%FSLAX23Y23*%
%MOIN*%
%SFA1B1*%

%IPPOS*%
%AMD27*
4,1,4,-0.004200,0.020900,-0.020900,0.004200,0.004200,-0.020900,0.020900,-0.004200,-0.004200,0.020900,0.0*
%
%AMD30*
4,1,8,-0.031200,-0.021700,0.031200,-0.021700,0.034400,-0.018400,0.034400,0.018400,0.031200,0.021700,-0.031200,0.021700,-0.034400,0.018400,-0.034400,-0.018400,-0.031200,-0.021700,0.0*
1,1,0.006500,-0.031200,-0.018400*
1,1,0.006500,0.031200,-0.018400*
1,1,0.006500,0.031200,0.018400*
1,1,0.006500,-0.031200,0.018400*
%
%AMD34*
4,1,8,0.014000,0.004900,-0.014000,0.004900,-0.015300,0.003700,-0.015300,-0.003700,-0.014000,-0.004900,0.014000,-0.004900,0.015300,-0.003700,0.015300,0.003700,0.014000,0.004900,0.0*
1,1,0.002460,0.014000,0.003700*
1,1,0.002460,-0.014000,0.003700*
1,1,0.002460,-0.014000,-0.003700*
1,1,0.002460,0.014000,-0.003700*
%
%AMD35*
4,1,8,0.003700,0.015300,-0.003700,0.015300,-0.004900,0.014000,-0.004900,-0.014000,-0.003700,-0.015300,0.003700,-0.015300,0.004900,-0.014000,0.004900,0.014000,0.003700,0.015300,0.0*
1,1,0.002460,0.003700,0.014000*
1,1,0.002460,-0.003700,0.014000*
1,1,0.002460,-0.003700,-0.014000*
1,1,0.002460,0.003700,-0.014000*
%
%ADD24C,0.029750*%
%ADD25R,0.032280X0.035000*%
%ADD26R,0.102360X0.102360*%
G04~CAMADD=27~9~0.0~0.0~236.2~354.3~0.0~0.0~0~0.0~0.0~0.0~0.0~0~0.0~0.0~0.0~0.0~0~0.0~0.0~0.0~45.0~418.0~417.0*
%ADD27D27*%
%ADD28R,0.035430X0.023620*%
%ADD29R,0.023620X0.035430*%
G04~CAMADD=30~8~0.0~0.0~689.0~433.1~32.5~0.0~15~0.0~0.0~0.0~0.0~0~0.0~0.0~0.0~0.0~0~0.0~0.0~0.0~180.0~690.0~433.0*
%ADD30D30*%
%ADD31R,0.039370X0.110240*%
%ADD32R,0.020470X0.019680*%
%ADD33R,0.022000X0.020000*%
G04~CAMADD=34~8~0.0~0.0~305.1~98.4~12.3~0.0~15~0.0~0.0~0.0~0.0~0~0.0~0.0~0.0~0.0~0~0.0~0.0~0.0~0.0~305.1~98.4*
%ADD34D34*%
G04~CAMADD=35~8~0.0~0.0~98.4~305.1~12.3~0.0~15~0.0~0.0~0.0~0.0~0~0.0~0.0~0.0~0.0~0~0.0~0.0~0.0~0.0~98.4~305.1*
%ADD35D35*%
%ADD36R,0.096460X0.096460*%
%LNbenchy-frontpanel-pcb1-1*%
%LPD*%
G36*
X8869Y781D02*
Y768D01*
X8864Y763*
X8850*
X8845Y768*
Y781*
X8850Y786*
X8864*
X8869Y781*
G37*
G36*
X8908D02*
Y768D01*
X8903Y763*
X8889*
X8884Y768*
Y781*
X8889Y786*
X8903*
X8908Y781*
G37*
G36*
X8869Y820D02*
Y806D01*
X8864Y801*
X8850*
X8845Y806*
Y820*
X8850Y825*
X8864Y825*
X8869Y820*
G37*
G36*
X8908D02*
Y806D01*
X8903Y801*
X8889*
X8884Y806*
Y820*
X8889Y825*
X8903*
X8908Y820*
G37*
G54D24*
X8896Y813D03*
X8857Y775D03*
X8896D03*
X8857Y813D03*
G54D25*
X6614Y1497D03*
Y1558D03*
G54D26*
X12685Y1566D03*
G54D27*
X4844Y1832D03*
X4801Y1789D03*
X5080Y1832D03*
X5037Y1789D03*
X5316Y1832D03*
X5273Y1789D03*
X5553Y1832D03*
X5509Y1789D03*
X5789Y1832D03*
X5746Y1789D03*
X6025Y1832D03*
X5982Y1789D03*
X6265Y1832D03*
X6222Y1789D03*
G54D28*
X5748Y520D03*
Y581D03*
X6118Y520D03*
Y581D03*
X13326Y717D03*
Y778D03*
X13188Y717D03*
Y778D03*
X12185Y701D03*
Y762D03*
X4947Y1428D03*
Y1367D03*
X5139Y1428D03*
Y1367D03*
X9665Y264D03*
Y325D03*
X9566Y264D03*
Y325D03*
X6692Y264D03*
Y325D03*
X7030Y264D03*
Y325D03*
X7367Y264D03*
Y325D03*
X7705Y264D03*
Y325D03*
X8042Y264D03*
Y325D03*
X8380Y264D03*
Y325D03*
X8717Y264D03*
Y325D03*
X9055Y264D03*
Y325D03*
X10728Y264D03*
Y325D03*
X9862Y264D03*
Y325D03*
X10029Y264D03*
Y325D03*
X10196Y264D03*
Y325D03*
X10364Y264D03*
Y325D03*
X10531Y264D03*
Y325D03*
X695Y550D03*
Y489D03*
X1194Y550D03*
Y489D03*
G54D29*
X5621Y1358D03*
X5560D03*
X6093D03*
X6032D03*
X1815Y1771D03*
X1876D03*
X2406D03*
X2467D03*
X2997D03*
X3058D03*
X3587D03*
X3648D03*
X4178D03*
X4239D03*
X1815Y1574D03*
X1876D03*
X2406D03*
X2467D03*
X2997D03*
X3058D03*
X3587D03*
X3648D03*
X4178D03*
X4239D03*
X465Y1653D03*
X526D03*
X1125D03*
X1063D03*
X764D03*
X825D03*
X1363D03*
X1424D03*
X15876Y1870D03*
X15815D03*
X15876Y1716D03*
X15815D03*
X15876Y1563D03*
X15815D03*
X15876Y1410D03*
X15815D03*
X15876Y1257D03*
X15815D03*
X15876Y1104D03*
X15815D03*
X15876Y951D03*
X15815D03*
X15876Y798D03*
X15815D03*
X15876Y645D03*
X15815D03*
X15876Y492D03*
X15815D03*
X15601Y582D03*
X15540D03*
X15195D03*
X15134D03*
X14790D03*
X14729D03*
X14384D03*
X14323D03*
X13979D03*
X13918D03*
X13573D03*
X13512D03*
X12983Y1870D03*
X12922D03*
X12983Y1704D03*
X12922D03*
X12983Y1538D03*
X12922D03*
X12983Y1372D03*
X12922D03*
X12983Y1206D03*
X12922D03*
Y1040D03*
X12983D03*
Y874D03*
X12922D03*
X12983Y708D03*
X12922D03*
G54D30*
X1757Y1459D03*
X1935D03*
X1757Y1375D03*
X1935D03*
X2348Y1459D03*
X2525D03*
X2348Y1375D03*
X2525D03*
X2938Y1459D03*
X3116D03*
X2938Y1375D03*
X3116D03*
X3529Y1459D03*
X3706D03*
X3529Y1375D03*
X3706D03*
X4297D03*
X4120D03*
X4297Y1459D03*
X4120D03*
X11289Y567D03*
X11112D03*
X11289Y652D03*
X11112D03*
X11289Y331D03*
X11112D03*
X11289Y416D03*
X11112D03*
X11427Y1477D03*
X11250D03*
X11427Y1562D03*
X11250D03*
Y1376D03*
X11427D03*
X11250Y1292D03*
X11427D03*
X11250Y1191D03*
X11427D03*
X11250Y1107D03*
X11427D03*
X11250Y1932D03*
X11427D03*
X11250Y1847D03*
X11427D03*
Y1662D03*
X11250D03*
X11427Y1747D03*
X11250D03*
Y1006D03*
X11427D03*
X11250Y922D03*
X11427D03*
X9734Y1729D03*
X9557D03*
X9734Y1813D03*
X9557D03*
X9734Y548D03*
X9557D03*
X9734Y632D03*
X9557D03*
X9734Y1138D03*
X9557D03*
X9734Y1223D03*
X9557D03*
X10797Y1403D03*
X10620D03*
X10797Y1488D03*
X10620D03*
Y889D03*
X10797D03*
X10620Y805D03*
X10797D03*
X10088Y693D03*
X10265D03*
X10088Y608D03*
X10265D03*
X10088Y1291D03*
X10265D03*
X10088Y1206D03*
X10265D03*
X1305Y1432D03*
X1482D03*
X1305Y1347D03*
X1482D03*
X407Y1436D03*
X584D03*
X407Y1351D03*
X584D03*
X706Y1436D03*
X883D03*
X706Y1351D03*
X883D03*
G54D31*
X13112Y493D03*
Y293D03*
X13257D03*
Y493D03*
X13470D03*
Y293D03*
X13616D03*
Y493D03*
X13875D03*
Y293D03*
X14021D03*
Y493D03*
X14427D03*
Y293D03*
X14281D03*
Y493D03*
X14832D03*
Y293D03*
X14687D03*
Y493D03*
X15238D03*
Y293D03*
X15092D03*
Y493D03*
X15643D03*
Y293D03*
X15498D03*
Y493D03*
X13340Y1773D03*
Y1573D03*
X13194D03*
Y1773D03*
G54D32*
X8889Y967D03*
Y929D03*
G54D33*
X8925Y953D03*
Y913D03*
G54D34*
X8798Y843D03*
Y823D03*
Y804D03*
Y784D03*
Y764D03*
Y745D03*
X8955Y843D03*
Y823D03*
Y804D03*
Y784D03*
Y764D03*
Y745D03*
G54D35*
X8827Y716D03*
X8847D03*
X8867D03*
X8886D03*
X8906D03*
X8926Y872D03*
X8906D03*
X8886D03*
X8867D03*
X8847D03*
X8827D03*
X8926Y716D03*
G54D36*
X8876Y794D03*
M02*