%FSLAX23Y23*%
%MOIN*%
%SFA1B1*%

%IPPOS*%
%ADD9500C,0.007900*%
%ADD9501C,0.011800*%
%ADD9502C,0.029500*%
%ADD9503C,0.037400*%
%ADD9504C,0.037800*%
%ADD9505C,0.039400*%
%ADD9506C,0.078700*%
%ADD9507C,0.106300*%
%ADD9508C,0.137800*%
%ADD9509C,0.240200*%
%ADD9510C,0.137800*%
%LNbenchy-frontpanel-pcb1-roundholes-1*%
%LPD*%
G54D9500*
X8838Y755D03*
Y794D03*
Y832D03*
X8877D03*
X8915D03*
Y794D03*
X8877D03*
Y755D03*
X8915D03*
X12643Y1525D03*
X12685D03*
X12726D03*
Y1566D03*
X12685D03*
X12643D03*
Y1608D03*
X12685D03*
X12726D03*
G54D9501*
X259Y259D03*
X315Y236D03*
X370Y259D03*
X393Y315D03*
X370Y370D03*
X315Y393D03*
X259Y370D03*
X236Y315D03*
X307Y480D03*
X405Y582D03*
X661Y488D03*
X747Y452D03*
X787Y488D03*
X1000D03*
X1126Y519D03*
X1157Y488D03*
X1228Y551D03*
X1499Y370D03*
X1476Y315D03*
X1499Y259D03*
X1555Y236D03*
Y393D03*
X1425Y1224D03*
X1456Y1259D03*
X1425Y1299D03*
X1346Y1295D03*
X1318Y1259D03*
X1346Y1224D03*
X1224D03*
X1196Y1189D03*
X1165Y1149D03*
X1122D03*
X1031Y1165D03*
X944D03*
X980Y1318D03*
X1027Y1378D03*
X901Y1385D03*
X842Y1311D03*
X752Y1279D03*
X645Y1358D03*
X602Y1385D03*
X523Y1393D03*
X496Y1366D03*
X539Y1279D03*
X421D03*
X366Y1208D03*
X374Y1181D03*
Y1133D03*
Y1098D03*
X397Y1157D03*
X240Y1126D03*
X224Y1196D03*
X252Y1232D03*
X352Y1370D03*
X433Y1480D03*
X645Y1444D03*
X1082Y1484D03*
X1165Y1378D03*
X1287Y1385D03*
X1216Y1291D03*
X1665Y1287D03*
X1626Y1334D03*
X1740Y1409D03*
X1850D03*
X2000Y1401D03*
X2279Y1389D03*
X2330Y1409D03*
X2456D03*
X2795Y1401D03*
X2862Y1437D03*
X2921Y1409D03*
X3043Y1405D03*
X1610Y370D03*
X1633Y315D03*
X1610Y259D03*
X3311Y1401D03*
X3378Y1448D03*
X3511Y1409D03*
X3626Y1405D03*
X3944D03*
X3984Y1480D03*
X4102Y1409D03*
X4236Y1405D03*
X4374Y1456D03*
X4913Y1366D03*
X4980Y1429D03*
X5173D03*
X5181Y1381D03*
X5267Y1429D03*
X5622Y1480D03*
X5704Y1358D03*
X5771Y1393D03*
X5854Y1366D03*
X5811Y1275D03*
X6035Y1315D03*
X6157Y1354D03*
X6122Y1397D03*
X6094Y1479D03*
X5563Y1315D03*
X5748Y610D03*
Y500D03*
Y425D03*
X5685Y370D03*
X5708Y315D03*
X5685Y259D03*
X5629Y236D03*
X5574Y259D03*
X5551Y315D03*
X5574Y370D03*
X5629Y393D03*
X6118Y421D03*
Y496D03*
Y610D03*
X6216Y370D03*
X6192Y315D03*
X6216Y259D03*
X6271Y236D03*
X6327Y259D03*
X6350Y315D03*
X6327Y370D03*
X6271Y393D03*
X6338Y878D03*
X6362Y1161D03*
X6496Y1129D03*
Y1029D03*
X6476Y1267D03*
X6480Y1362D03*
X6456Y1393D03*
X6322Y1362D03*
X6252Y1393D03*
X6283Y1275D03*
X6692Y1476D03*
X6917Y1515D03*
X6992Y1547D03*
X7035Y1484D03*
X7147Y1409D03*
X7173Y1429D03*
X7216Y1468D03*
X7208Y1330D03*
Y1240D03*
X7043Y1228D03*
X7114Y1330D03*
X6944Y1352D03*
X6885Y1253D03*
X6937Y1118D03*
X6767Y1129D03*
X7267Y1078D03*
X7476Y1456D03*
X7539Y1547D03*
X7705Y240D03*
X7367D03*
X7031D03*
X6692D03*
X8042D03*
X8334Y275D03*
X8380Y240D03*
X8425Y275D03*
X8717Y240D03*
X9055D03*
X9114Y334D03*
X9307Y326D03*
X9330Y271D03*
Y382D03*
X9350Y570D03*
X8976Y629D03*
X8956Y661D03*
X9047Y736D03*
X9078Y764D03*
X9059Y787D03*
X9078Y811D03*
X9157Y878D03*
X9189Y1000D03*
X9279Y1055D03*
X9074Y956D03*
X8925Y972D03*
X8889Y988D03*
X8886Y905D03*
X8728Y854D03*
X8704Y822D03*
X8740Y1094D03*
X8803Y1086D03*
X8854Y1145D03*
X8881Y1118D03*
X8937Y1106D03*
X9035Y1165D03*
X9000Y1244D03*
X8937Y1263D03*
X8905Y1303D03*
X8854Y1228D03*
X8787D03*
X8763Y1347D03*
Y1393D03*
X8787Y1417D03*
X8767Y1444D03*
X8704Y1476D03*
X8641Y1366D03*
X8644Y1262D03*
X8645Y1184D03*
X8622Y1129D03*
Y1066D03*
X8582Y1094D03*
X8689Y1126D03*
X8539Y1200D03*
X8468Y1165D03*
X8429Y1189D03*
X8381Y1216D03*
X8326Y1228D03*
X8279Y1192D03*
X8240Y1228D03*
X8208Y1259D03*
X8177Y1181D03*
X8000D03*
X7988Y1275D03*
X8098Y1279D03*
X8126Y1409D03*
X8003D03*
X7944Y1456D03*
X7870Y1279D03*
Y1181D03*
X8334Y1137D03*
X8413Y1066D03*
X8488Y1259D03*
X8511Y1350D03*
X8460Y1379D03*
X8389D03*
X8330Y1409D03*
X8259D03*
X8291Y1535D03*
X8551D03*
X8543Y1444D03*
X8492D03*
X8799Y1370D03*
X9492Y1137D03*
X9468Y689D03*
X9787D03*
Y775D03*
X9885Y689D03*
X10015Y629D03*
X10003Y484D03*
X9960Y433D03*
X10118Y460D03*
X10149Y507D03*
X10295Y531D03*
X10275Y460D03*
X10492Y433D03*
X10531Y240D03*
X10364D03*
X10196D03*
X10029D03*
X9862D03*
X9665D03*
X9566D03*
X9441Y271D03*
X9464Y326D03*
X9441Y382D03*
X9385Y405D03*
Y248D03*
X10728Y240D03*
X10838Y267D03*
X10893Y244D03*
X10815Y322D03*
X10838Y378D03*
X10893Y401D03*
X10563Y805D03*
X10559Y1401D03*
X10027Y1206D03*
X11338Y1189D03*
Y1374D03*
Y1559D03*
X11614Y1456D03*
X11657D03*
X11637Y1425D03*
X11633Y1389D03*
X11653Y1370D03*
X11610Y1311D03*
X11700Y1315D03*
X11736Y1279D03*
X11775Y1271D03*
X11811Y1255D03*
Y1208D03*
X11862Y1283D03*
X11779Y1405D03*
X11783Y1519D03*
X11752D03*
X11708Y1480D03*
X11661Y1252D03*
X11566D03*
X11503Y1137D03*
Y1082D03*
X11555Y1055D03*
X11535Y1019D03*
X11338Y1000D03*
X11645Y1153D03*
X12322Y1126D03*
X12374Y1173D03*
X12287Y1039D03*
X12244Y988D03*
X12185Y677D03*
X12086Y1480D03*
X12027Y1543D03*
X11980D03*
X10949Y378D03*
X10972Y322D03*
X10949Y267D03*
X13011Y708D03*
Y874D03*
X12964Y933D03*
X12952Y964D03*
X12909Y996D03*
X12883Y929D03*
X12801Y1011D03*
X12803Y1228D03*
X12830Y1291D03*
X12870Y1413D03*
X12740Y1433D03*
X12700Y1437D03*
X12771Y1472D03*
X12799Y1519D03*
X12818Y1539D03*
X13011Y1538D03*
Y1372D03*
Y1206D03*
Y1040D03*
X13200Y1054D03*
X13255Y1031D03*
X13311Y1054D03*
X13334Y1110D03*
X13311Y1165D03*
X13255Y1189D03*
X13200Y1165D03*
X13177Y1110D03*
X13189Y807D03*
X13257Y811D03*
X13326Y807D03*
Y689D03*
X13257Y728D03*
X13189Y689D03*
X13224Y507D03*
X13444Y629D03*
X13599Y578D03*
X13582Y507D03*
X13661Y452D03*
Y748D03*
Y866D03*
X13665Y980D03*
X13759D03*
X13905Y1055D03*
X13968Y1126D03*
X13905Y866D03*
X13854Y799D03*
Y692D03*
X13795Y645D03*
X13929Y484D03*
Y409D03*
X13988Y507D03*
X14035Y838D03*
X13535Y866D03*
X13393Y980D03*
X13385Y1437D03*
X13484Y1507D03*
X13578Y1547D03*
X13641Y1515D03*
X13637Y1397D03*
X13759D03*
X13901D03*
X14047D03*
X13267Y1523D03*
X12602Y1484D03*
X14153Y1449D03*
X14192Y1397D03*
X14315D03*
X14440D03*
X14488Y1279D03*
X14622Y1287D03*
X14822Y1299D03*
X14854Y1165D03*
X14960Y1161D03*
X15000Y1149D03*
X15003Y1118D03*
X15040Y1124D03*
X15043Y1090D03*
X15039Y1047D03*
X15074Y1019D03*
X15047Y984D03*
X15023Y952D03*
X14996Y937D03*
X14988Y905D03*
X14952Y897D03*
X14909Y893D03*
X14878Y881D03*
X14826Y901D03*
X14815Y933D03*
X14783Y937D03*
X14779Y968D03*
X14744Y1019D03*
X14720Y1133D03*
X14744Y1161D03*
X14804Y1099D03*
X14889Y1023D03*
X14594Y992D03*
X14468Y988D03*
X14389Y948D03*
Y1055D03*
X14283Y1019D03*
X14252Y992D03*
X14129Y952D03*
X14189Y893D03*
X14318Y874D03*
X14283Y811D03*
X14366Y759D03*
X14472Y775D03*
X14468Y665D03*
X14645Y661D03*
X14602Y720D03*
X14692Y775D03*
X14811Y724D03*
X14944Y657D03*
X15059Y661D03*
Y838D03*
X15196Y724D03*
X15393D03*
X15456Y783D03*
X15622Y838D03*
X15610Y507D03*
X15566Y539D03*
X15547Y484D03*
Y409D03*
X15381Y500D03*
X15295Y452D03*
X15204Y507D03*
X15145Y484D03*
X15146Y409D03*
X14901Y452D03*
X14799Y507D03*
X14740Y484D03*
Y409D03*
X14488Y452D03*
X14393Y507D03*
X14334Y484D03*
Y409D03*
X14075Y452D03*
X14078Y791D03*
X14066Y1137D03*
X14082Y1161D03*
X14236Y1165D03*
X14263Y1192D03*
X14212Y1259D03*
X14350Y1304D03*
X14381Y1507D03*
X14429Y1559D03*
X14496D03*
X14232Y1515D03*
X14106Y1349D03*
X14523Y1161D03*
X14980Y1283D03*
X15114Y1417D03*
X14996Y1535D03*
X14811Y1460D03*
X15456Y1437D03*
X15232Y980D03*
X15661Y925D03*
X15905Y951D03*
Y798D03*
Y645D03*
Y492D03*
X15882Y370D03*
X15905Y315D03*
X15882Y259D03*
X15826Y236D03*
X15771Y259D03*
X15748Y315D03*
X15771Y370D03*
X15826Y393D03*
X15708Y456D03*
X15689Y492D03*
X15736Y574D03*
X15677Y610D03*
X15905Y1104D03*
Y1257D03*
Y1410D03*
Y1563D03*
Y1717D03*
Y1870D03*
X15882Y1991D03*
X15905Y2047D03*
X15882Y2102D03*
X15826Y2126D03*
X15771Y2102D03*
X15748Y2047D03*
X15771Y1991D03*
X15826Y1968D03*
X15066Y1866D03*
X15118Y1807D03*
X15066Y1748D03*
X14921Y1673D03*
X14724Y1752D03*
X14626D03*
X14527D03*
X14425D03*
X14330Y1748D03*
X14228D03*
X14129Y1744D03*
X14133Y1862D03*
X14232D03*
X14330D03*
X14425D03*
X14523D03*
X14626D03*
X14527Y1633D03*
X14389Y1590D03*
X14279Y1574D03*
X13984D03*
X13897Y1578D03*
X13818Y1594D03*
X13700D03*
X13669Y1712D03*
X13759D03*
X13771Y1830D03*
X13700Y1850D03*
X13645Y1822D03*
X13563Y1712D03*
X13492D03*
X13460Y1653D03*
X13295Y1775D03*
X13208Y1858D03*
Y1960D03*
X13145Y1909D03*
X13011Y1870D03*
Y1704D03*
X13157Y1673D03*
X12834Y1602D03*
X12803Y1610D03*
X12815Y1574D03*
X12783Y1649D03*
X12775Y1689D03*
X12716Y1677D03*
X12677D03*
X12629Y1712D03*
X12566Y1586D03*
X13897Y1712D03*
X13921Y1842D03*
X14039Y1862D03*
Y1748D03*
X12421Y1712D03*
X12389Y1681D03*
X12362Y1649D03*
X12303Y1594D03*
X12228Y1618D03*
X12248Y1681D03*
X12165Y1649D03*
X12122Y1685D03*
X12057D03*
X11958D03*
X11937Y1610D03*
X11984Y1582D03*
X11958Y1791D03*
X12057D03*
X12155D03*
X12334Y1874D03*
Y1968D03*
X12381Y1921D03*
X11811Y1799D03*
X11759Y1744D03*
X11811Y1689D03*
X11728Y1582D03*
X11338Y1744D03*
Y1929D03*
X9511Y1729D03*
X7744Y1862D03*
Y1937D03*
X7586D03*
X7582Y1842D03*
X7507Y1830D03*
X7429Y1846D03*
X7350Y1822D03*
X7354Y1712D03*
X7311D03*
X7279Y1685D03*
Y1653D03*
X7346D03*
X7389Y1732D03*
X7433Y1736D03*
X7468Y1771D03*
Y1563D03*
X7200Y1653D03*
X7153Y1649D03*
X7074Y1641D03*
X7043Y1606D03*
X6996Y1610D03*
X6964Y1602D03*
X6692Y1594D03*
X6592Y1579D03*
X6476Y1578D03*
X6303D03*
X6291Y1889D03*
X6287Y1933D03*
X6275Y1992D03*
X6677Y1933D03*
X6866Y1913D03*
X7114Y1937D03*
X7192D03*
X7271D03*
X7232Y1685D03*
X6204Y1771D03*
X6165Y1773D03*
X5964Y1771D03*
X5893D03*
X5858Y1728D03*
X5728Y1771D03*
X5653D03*
X5633Y1704D03*
X5492Y1771D03*
X5460D03*
X5255D03*
X5224Y1767D03*
X5161Y1696D03*
X5019Y1771D03*
X4988Y1767D03*
X4901Y1736D03*
X4783Y1771D03*
X4740Y1752D03*
X4752Y1878D03*
X4767Y1972D03*
X4818Y1948D03*
X4803Y2015D03*
Y2047D03*
X4858Y2094D03*
X4913Y1933D03*
X4960Y1968D03*
X4992Y1992D03*
X5098Y1889D03*
X5259Y1933D03*
X5334Y1889D03*
X5571D03*
X5744Y1933D03*
X5806Y1889D03*
X6043D03*
X5401Y1578D03*
X4873Y1889D03*
X4681Y1885D03*
X4645Y1854D03*
X4649Y1752D03*
X4519D03*
X4515Y1898D03*
X4527Y1968D03*
X4583Y1991D03*
X4606Y2047D03*
X4583Y2102D03*
X4527Y2126D03*
X4471Y2102D03*
X4448Y2047D03*
X4471Y1991D03*
X4326Y1972D03*
X4283Y1968D03*
X4299Y1803D03*
X4267Y1771D03*
X4177Y1858D03*
X4110Y1856D03*
X4137Y1574D03*
X4267D03*
X3830D03*
X3677D03*
X3511D03*
X3440Y1610D03*
X3551Y1856D03*
X3586Y1858D03*
X3618Y1856D03*
X3677Y1771D03*
X3086D03*
X3027Y1850D03*
X2996Y1830D03*
X2952Y1838D03*
X3086Y1574D03*
X2657Y1637D03*
X2496Y1574D03*
Y1771D03*
X2444Y1838D03*
X2405Y1830D03*
X2362Y1838D03*
X2370Y1773D03*
X2137D03*
X2066Y1732D03*
X2055Y1606D03*
X2110Y1570D03*
X1905Y1574D03*
X1767Y1578D03*
X1779Y1728D03*
X1854D03*
Y1815D03*
X1815Y1807D03*
X1905Y1771D03*
X1944Y1850D03*
X1685Y1807D03*
X1614Y1858D03*
X1637Y1991D03*
X1692Y1968D03*
X1748Y1991D03*
X1771Y2047D03*
X1748Y2102D03*
X1692Y2126D03*
X1637Y2102D03*
X1614Y2047D03*
X1570Y1708D03*
X1456Y1653D03*
X1363Y1700D03*
X1303Y1649D03*
X1157Y1653D03*
X1064Y1700D03*
X897Y1626D03*
X858Y1653D03*
X764Y1700D03*
X689Y1669D03*
X685Y1574D03*
X559Y1653D03*
X465Y1700D03*
X405Y1661D03*
X381Y1732D03*
X244Y1728D03*
X279Y1633D03*
X315Y1968D03*
X370Y1991D03*
X393Y2047D03*
X370Y2102D03*
X315Y2126D03*
X259Y2102D03*
X236Y2047D03*
X259Y1991D03*
X440Y1944D03*
G54D9502*
X6917Y1897D03*
X6996D03*
X7074D03*
X7153D03*
X7232D03*
X7311D03*
X7389D03*
X7468D03*
X7547D03*
X7626D03*
X7704D03*
X7783D03*
Y1976D03*
X7704D03*
X7626D03*
X7547D03*
X7468D03*
X7389D03*
X7311D03*
X7232D03*
X7153D03*
X7074D03*
X6996D03*
X6917D03*
G54D9503*
X14082Y1807D03*
X14181D03*
X14279D03*
X14378D03*
X14476D03*
X14574D03*
X14673D03*
X14771D03*
X14870D03*
X14968D03*
X15066D03*
X13984D03*
X12303Y1744D03*
X12204D03*
X12106D03*
X12007D03*
X11909D03*
X11811D03*
G54D9504*
X6535Y979D03*
Y1079D03*
Y1179D03*
Y1279D03*
Y1379D03*
Y1479D03*
X12035Y1921D03*
X12135D03*
X12235D03*
X12335D03*
X6535Y1579D03*
G54D9505*
X7313Y1028D03*
X7413D03*
Y1128D03*
X7313D03*
Y1228D03*
X7413D03*
Y1328D03*
X7313D03*
Y1428D03*
X7413D03*
X13523Y1449D03*
Y1549D03*
Y1349D03*
Y1249D03*
Y1149D03*
Y1049D03*
Y949D03*
Y1649D03*
X13307Y1909D03*
X13207D03*
G54D9506*
X13513Y708D03*
X15610D03*
Y1889D03*
X13523D03*
G54D9507*
X315Y315D03*
X1555D03*
X5629D03*
X6271D03*
X9385Y326D03*
X10893Y322D03*
X13255Y1110D03*
X15826Y315D03*
Y2047D03*
X4527D03*
X1692D03*
X315D03*
G54D9508*
X6515Y511D03*
X9192D03*
X11586Y779D03*
X12783D03*
Y1901D03*
X11586D03*
X9192Y2047D03*
X6515D03*
G54D9509*
X11594Y433D03*
X12774D03*
G54D9510*
X1220Y842D03*
M02*