%FSLAX23Y23*%
%MOIN*%
%SFA1B1*%

%IPPOS*%
%AMD49*
4,1,8,0.028400,0.039900,-0.028400,0.039900,-0.035000,0.033400,-0.035000,-0.033400,-0.028400,-0.039900,0.028400,-0.039900,0.035000,-0.033400,0.035000,0.033400,0.028400,0.039900,0.0*
1,1,0.013040,0.028400,0.033400*
1,1,0.013040,-0.028400,0.033400*
1,1,0.013040,-0.028400,-0.033400*
1,1,0.013040,0.028400,-0.033400*
%
%AMD50*
4,1,8,0.000000,0.039900,0.000000,0.039900,-0.035000,0.004900,-0.035000,-0.004900,0.000000,-0.039900,0.000000,-0.039900,0.035000,-0.004900,0.035000,0.004900,0.000000,0.039900,0.0*
1,1,0.069920,0.000000,0.004900*
1,1,0.069920,0.000000,0.004900*
1,1,0.069920,0.000000,-0.004900*
1,1,0.069920,0.000000,-0.004900*
%
%AMD53*
4,1,8,0.018700,0.025100,-0.018700,0.025100,-0.025100,0.018700,-0.025100,-0.018700,-0.018700,-0.025100,0.018700,-0.025100,0.025100,-0.018700,0.025100,0.018700,0.018700,0.025100,0.0*
1,1,0.012920,0.018700,0.018700*
1,1,0.012920,-0.018700,0.018700*
1,1,0.012920,-0.018700,-0.018700*
1,1,0.012920,0.018700,-0.018700*
%
%AMD55*
4,1,8,-0.035000,0.000000,-0.035000,0.000000,0.000000,-0.035000,0.000000,-0.035000,0.035000,0.000000,0.035000,0.000000,0.000000,0.035000,0.000000,0.035000,-0.035000,0.000000,0.0*
1,1,0.069920,0.000000,0.000000*
1,1,0.069920,0.000000,0.000000*
1,1,0.069920,0.000000,0.000000*
1,1,0.069920,0.000000,0.000000*
%
%AMD65*
4,1,8,-0.028400,-0.035000,0.028400,-0.035000,0.035000,-0.028400,0.035000,0.028400,0.028400,0.035000,-0.028400,0.035000,-0.035000,0.028400,-0.035000,-0.028400,-0.028400,-0.035000,0.0*
1,1,0.013040,-0.028400,-0.028400*
1,1,0.013040,0.028400,-0.028400*
1,1,0.013040,0.028400,0.028400*
1,1,0.013040,-0.028400,0.028400*
%
%AMD116*
4,1,4,0.070300,0.000000,0.000000,0.070300,-0.070300,0.000000,0.000000,-0.070300,0.070300,0.000000,0.0*
%
%AMD117*
4,1,8,0.009200,-0.014400,0.014400,-0.009200,0.014400,-0.005400,-0.005400,0.014400,-0.009200,0.014400,-0.014400,0.009200,-0.014400,0.005400,0.005400,-0.014400,0.009200,-0.014400,0.0*
1,1,0.005460,0.007300,-0.012500*
1,1,0.005460,0.012500,-0.007300*
1,1,0.005460,-0.007300,0.012500*
1,1,0.005460,-0.012500,0.007300*
%
%AMD118*
4,1,8,-0.005400,-0.014400,0.014400,0.005400,0.014400,0.009200,0.009200,0.014400,0.005400,0.014400,-0.014400,-0.005400,-0.014400,-0.009200,-0.009200,-0.014400,-0.005400,-0.014400,0.0*
1,1,0.005460,-0.007300,-0.012500*
1,1,0.005460,0.012500,0.007300*
1,1,0.005460,0.007300,0.012500*
1,1,0.005460,-0.012500,-0.007300*
%
%AMD119*
4,1,8,-0.003700,-0.017700,0.003700,-0.017700,0.006400,-0.015000,0.006400,0.015000,0.003700,0.017700,-0.003700,0.017700,-0.006400,0.015000,-0.006400,-0.015000,-0.003700,-0.017700,0.0*
1,1,0.005460,-0.003700,-0.015000*
1,1,0.005460,0.003700,-0.015000*
1,1,0.005460,0.003700,0.015000*
1,1,0.005460,-0.003700,0.015000*
%
%AMD120*
4,1,8,-0.015000,-0.006400,0.015000,-0.006400,0.017700,-0.003700,0.017700,0.003700,0.015000,0.006400,-0.015000,0.006400,-0.017700,0.003700,-0.017700,-0.003700,-0.015000,-0.006400,0.0*
1,1,0.005460,-0.015000,-0.003700*
1,1,0.005460,0.015000,-0.003700*
1,1,0.005460,0.015000,0.003700*
1,1,0.005460,-0.015000,0.003700*
%
%AMD121*
4,1,8,-0.014400,0.005400,0.005400,-0.014400,0.009200,-0.014400,0.014400,-0.009200,0.014400,-0.005400,-0.005400,0.014400,-0.009200,0.014400,-0.014400,0.009200,-0.014400,0.005400,0.0*
1,1,0.005460,-0.012500,0.007300*
1,1,0.005460,0.007300,-0.012500*
1,1,0.005460,0.012500,-0.007300*
1,1,0.005460,-0.007300,0.012500*
%
%AMD122*
4,1,8,-0.014400,-0.009200,-0.009200,-0.014400,-0.005400,-0.014400,0.014400,0.005400,0.014400,0.009200,0.009200,0.014400,0.005400,0.014400,-0.014400,-0.005400,-0.014400,-0.009200,0.0*
1,1,0.005460,-0.012500,-0.007300*
1,1,0.005460,-0.007300,-0.012500*
1,1,0.005460,0.012500,0.007300*
1,1,0.005460,0.007300,0.012500*
%
%AMD123*
4,1,4,0.000000,-0.070300,0.070300,0.000000,0.000000,0.070300,-0.070300,0.000000,0.000000,-0.070300,0.0*
%
%AMD125*
4,1,8,-0.023100,-0.013300,0.023100,-0.013300,0.027600,-0.008900,0.027600,0.008900,0.023100,0.013300,-0.023100,0.013300,-0.027600,0.008900,-0.027600,-0.008900,-0.023100,-0.013300,0.0*
1,1,0.008900,-0.023100,-0.008900*
1,1,0.008900,0.023100,-0.008900*
1,1,0.008900,0.023100,0.008900*
1,1,0.008900,-0.023100,0.008900*
%
%AMD126*
4,1,8,-0.006400,0.014500,-0.006400,-0.014500,-0.003700,-0.017200,0.003700,-0.017200,0.006400,-0.014500,0.006400,0.014500,0.003700,0.017200,-0.003700,0.017200,-0.006400,0.014500,0.0*
1,1,0.005460,-0.003700,0.014500*
1,1,0.005460,-0.003700,-0.014500*
1,1,0.005460,0.003700,-0.014500*
1,1,0.005460,0.003700,0.014500*
%
%AMD127*
4,1,8,-0.017200,0.003700,-0.017200,-0.003700,-0.014500,-0.006400,0.014500,-0.006400,0.017200,-0.003700,0.017200,0.003700,0.014500,0.006400,-0.014500,0.006400,-0.017200,0.003700,0.0*
1,1,0.005460,-0.014500,0.003700*
1,1,0.005460,-0.014500,-0.003700*
1,1,0.005460,0.014500,-0.003700*
1,1,0.005460,0.014500,0.003700*
%
%AMD130*
4,1,4,-0.016800,-0.000700,-0.000700,-0.016800,0.016800,0.000700,0.000700,0.016800,-0.016800,-0.000700,0.0*
%
%AMD131*
4,1,4,0.077200,0.000000,0.000000,0.077200,-0.077200,0.000000,0.000000,-0.077200,0.077200,0.000000,0.0*
%
%AMD132*
4,1,8,0.009500,-0.014800,0.014800,-0.009500,0.014800,-0.005700,-0.005700,0.014800,-0.009500,0.014800,-0.014800,0.009500,-0.014800,0.005700,0.005700,-0.014800,0.009500,-0.014800,0.0*
1,1,0.005460,0.007600,-0.012900*
1,1,0.005460,0.012900,-0.007600*
1,1,0.005460,-0.007600,0.012900*
1,1,0.005460,-0.012900,0.007600*
%
%AMD133*
4,1,8,-0.005700,-0.014800,0.014800,0.005700,0.014800,0.009500,0.009500,0.014800,0.005700,0.014800,-0.014800,-0.005700,-0.014800,-0.009500,-0.009500,-0.014800,-0.005700,-0.014800,0.0*
1,1,0.005460,-0.007600,-0.012900*
1,1,0.005460,0.012900,0.007600*
1,1,0.005460,0.007600,0.012900*
1,1,0.005460,-0.012900,-0.007600*
%
%AMD134*
4,1,4,-0.000300,0.016300,-0.016300,0.000300,0.000300,-0.016300,0.016300,-0.000300,-0.000300,0.016300,0.0*
%
%AMD135*
4,1,4,-0.016300,-0.000300,-0.000300,-0.016300,0.016300,0.000300,0.000300,0.016300,-0.016300,-0.000300,0.0*
%
%AMD137*
4,1,8,-0.003700,-0.017200,0.003700,-0.017200,0.006400,-0.014500,0.006400,0.014500,0.003700,0.017200,-0.003700,0.017200,-0.006400,0.014500,-0.006400,-0.014500,-0.003700,-0.017200,0.0*
1,1,0.005460,-0.003700,-0.014500*
1,1,0.005460,0.003700,-0.014500*
1,1,0.005460,0.003700,0.014500*
1,1,0.005460,-0.003700,0.014500*
%
%AMD138*
4,1,8,-0.014500,-0.006400,0.014500,-0.006400,0.017200,-0.003700,0.017200,0.003700,0.014500,0.006400,-0.014500,0.006400,-0.017200,0.003700,-0.017200,-0.003700,-0.014500,-0.006400,0.0*
1,1,0.005460,-0.014500,-0.003700*
1,1,0.005460,0.014500,-0.003700*
1,1,0.005460,0.014500,0.003700*
1,1,0.005460,-0.014500,0.003700*
%
%ADD37R,0.035280X0.037990*%
%ADD38R,0.105350X0.105350*%
%ADD44R,0.023460X0.022680*%
%ADD45R,0.024990X0.022990*%
%ADD48R,0.099450X0.099450*%
G04~CAMADD=49~8~0.0~0.0~699.2~797.6~65.2~0.0~15~0.0~0.0~0.0~0.0~0~0.0~0.0~0.0~0.0~0~0.0~0.0~0.0~0.0~699.2~797.6*
%ADD49D49*%
G04~CAMADD=50~8~0.0~0.0~699.2~797.6~349.6~0.0~15~0.0~0.0~0.0~0.0~0~0.0~0.0~0.0~0.0~0~0.0~0.0~0.0~0.0~699.2~797.6*
%ADD50D50*%
%ADD51C,0.022680*%
%ADD52C,0.050240*%
G04~CAMADD=53~8~0.0~0.0~502.4~502.4~64.6~0.0~15~0.0~0.0~0.0~0.0~0~0.0~0.0~0.0~0.0~0~0.0~0.0~0.0~0.0~502.4~502.4*
%ADD53D53*%
%ADD54C,0.207720*%
G04~CAMADD=55~8~0.0~0.0~699.2~699.2~349.6~0.0~15~0.0~0.0~0.0~0.0~0~0.0~0.0~0.0~0.0~0~0.0~0.0~0.0~90.0~700.0~699.0*
%ADD55D55*%
%ADD56R,0.069920X0.069920*%
%ADD57C,0.065980*%
%ADD58C,0.113230*%
%ADD59C,0.180160*%
%ADD60C,0.062050*%
%ADD61R,0.062050X0.062050*%
%ADD62C,0.402990*%
%ADD63R,0.062050X0.062050*%
%ADD64C,0.069920*%
G04~CAMADD=65~8~0.0~0.0~699.2~699.2~65.2~0.0~15~0.0~0.0~0.0~0.0~0~0.0~0.0~0.0~0.0~0~0.0~0.0~0.0~180.0~700.0~700.0*
%ADD65D65*%
%ADD66R,0.160470X0.160470*%
%ADD67C,0.140790*%
%ADD115R,0.022990X0.024990*%
G04~CAMADD=116~10~0.0~994.5~0.0~0.0~0.0~0.0~0~0.0~0.0~0.0~0.0~0~0.0~0.0~0.0~0.0~0~0.0~0.0~0.0~315.0~994.5~0.0*
%ADD116D116*%
G04~CAMADD=117~8~0.0~0.0~128.4~335.0~27.3~0.0~15~0.0~0.0~0.0~0.0~0~0.0~0.0~0.0~0.0~0~0.0~0.0~0.0~225.0~306.0~305.0*
%ADD117D117*%
G04~CAMADD=118~8~0.0~0.0~335.0~128.4~27.3~0.0~15~0.0~0.0~0.0~0.0~0~0.0~0.0~0.0~0.0~0~0.0~0.0~0.0~225.0~306.0~305.0*
%ADD118D118*%
G04~CAMADD=119~8~0.0~0.0~128.4~354.7~27.3~0.0~15~0.0~0.0~0.0~0.0~0~0.0~0.0~0.0~0.0~0~0.0~0.0~0.0~180.0~128.0~354.0*
%ADD119D119*%
G04~CAMADD=120~8~0.0~0.0~354.7~128.4~27.3~0.0~15~0.0~0.0~0.0~0.0~0~0.0~0.0~0.0~0.0~0~0.0~0.0~0.0~180.0~354.0~128.0*
%ADD120D120*%
G04~CAMADD=121~8~0.0~0.0~335.0~128.4~27.3~0.0~15~0.0~0.0~0.0~0.0~0~0.0~0.0~0.0~0.0~0~0.0~0.0~0.0~135.0~306.0~305.0*
%ADD121D121*%
G04~CAMADD=122~8~0.0~0.0~128.4~335.0~27.3~0.0~15~0.0~0.0~0.0~0.0~0~0.0~0.0~0.0~0.0~0~0.0~0.0~0.0~135.0~306.0~305.0*
%ADD122D122*%
G04~CAMADD=123~10~0.0~994.5~0.0~0.0~0.0~0.0~0~0.0~0.0~0.0~0.0~0~0.0~0.0~0.0~0.0~0~0.0~0.0~0.0~225.0~994.5~0.0*
%ADD123D123*%
%ADD124R,0.037990X0.035280*%
G04~CAMADD=125~8~0.0~0.0~551.6~266.1~44.5~0.0~15~0.0~0.0~0.0~0.0~0~0.0~0.0~0.0~0.0~0~0.0~0.0~0.0~180.0~552.0~266.0*
%ADD125D125*%
G04~CAMADD=126~8~0.0~0.0~344.9~128.4~27.3~0.0~15~0.0~0.0~0.0~0.0~0~0.0~0.0~0.0~0.0~0~0.0~0.0~0.0~90.0~128.0~344.0*
%ADD126D126*%
G04~CAMADD=127~8~0.0~0.0~128.4~344.9~27.3~0.0~15~0.0~0.0~0.0~0.0~0~0.0~0.0~0.0~0.0~0~0.0~0.0~0.0~90.0~344.0~128.0*
%ADD127D127*%
%ADD128R,0.109290X0.109290*%
%ADD129R,0.022680X0.023460*%
G04~CAMADD=130~9~0.0~0.0~229.9~249.9~0.0~0.0~0~0.0~0.0~0.0~0.0~0~0.0~0.0~0.0~0.0~0~0.0~0.0~0.0~135.0~336.0~335.0*
%ADD130D130*%
G04~CAMADD=131~10~0.0~1092.9~0.0~0.0~0.0~0.0~0~0.0~0.0~0.0~0.0~0~0.0~0.0~0.0~0.0~0~0.0~0.0~0.0~315.0~1092.9~0.0*
%ADD131D131*%
G04~CAMADD=132~8~0.0~0.0~128.4~344.9~27.3~0.0~15~0.0~0.0~0.0~0.0~0~0.0~0.0~0.0~0.0~0~0.0~0.0~0.0~225.0~312.0~312.0*
%ADD132D132*%
G04~CAMADD=133~8~0.0~0.0~344.9~128.4~27.3~0.0~15~0.0~0.0~0.0~0.0~0~0.0~0.0~0.0~0.0~0~0.0~0.0~0.0~225.0~312.0~312.0*
%ADD133D133*%
G04~CAMADD=134~9~0.0~0.0~226.8~234.6~0.0~0.0~0~0.0~0.0~0.0~0.0~0~0.0~0.0~0.0~0.0~0~0.0~0.0~0.0~45.0~326.0~325.0*
%ADD134D134*%
G04~CAMADD=135~9~0.0~0.0~226.8~234.6~0.0~0.0~0~0.0~0.0~0.0~0.0~0~0.0~0.0~0.0~0.0~0~0.0~0.0~0.0~135.0~326.0~325.0*
%ADD135D135*%
%ADD136R,0.109290X0.109290*%
G04~CAMADD=137~8~0.0~0.0~128.4~344.9~27.3~0.0~15~0.0~0.0~0.0~0.0~0~0.0~0.0~0.0~0.0~0~0.0~0.0~0.0~180.0~128.0~344.0*
%ADD137D137*%
G04~CAMADD=138~8~0.0~0.0~344.9~128.4~27.3~0.0~15~0.0~0.0~0.0~0.0~0~0.0~0.0~0.0~0.0~0~0.0~0.0~0.0~180.0~344.0~128.0*
%ADD138D138*%
%LNbenchy-frontpanel-pcb1-1*%
%LPD*%
G54D37*
X13043Y1932D03*
Y1871D03*
X9114Y302D03*
Y241D03*
G54D38*
X12685Y1566D03*
G54D44*
X4842Y1918D03*
Y1955D03*
X4196Y1410D03*
Y1448D03*
X4708Y1847D03*
Y1885D03*
X8645Y1205D03*
Y1243D03*
G54D45*
X10562Y866D03*
Y826D03*
X10559Y1468D03*
Y1428D03*
X9492Y1201D03*
Y1161D03*
X10027Y1271D03*
Y1231D03*
X13295Y1716D03*
Y1756D03*
Y1791D03*
Y1831D03*
X5748Y444D03*
Y484D03*
X570Y1373D03*
Y1413D03*
X5814Y1354D03*
Y1394D03*
X6287Y1354D03*
Y1394D03*
X6118Y440D03*
Y480D03*
X870Y1373D03*
Y1413D03*
X13295Y728D03*
Y688D03*
X13220Y728D03*
Y688D03*
X11736Y1248D03*
Y1208D03*
X11775Y1248D03*
Y1208D03*
X11653Y1299D03*
Y1339D03*
X11708Y1519D03*
Y1559D03*
X11657Y1491D03*
Y1531D03*
X11700Y1243D03*
Y1283D03*
X12185Y712D03*
Y752D03*
G54D48*
X8876Y794D03*
G54D49*
X13984Y1807D03*
X12303Y1744D03*
G54D50*
X14082Y1807D03*
X14181D03*
X14279D03*
X14377D03*
X14476D03*
X14574D03*
X14673D03*
X14771D03*
X14870D03*
X14968D03*
X15066D03*
X11811Y1744D03*
X11909D03*
X12007D03*
X12106D03*
X12204D03*
G54D51*
X12685Y1566D03*
X12726Y1608D03*
Y1566D03*
Y1525D03*
X12643Y1566D03*
X12685Y1525D03*
X12643Y1608D03*
Y1525D03*
X12685Y1608D03*
X8838Y755D03*
Y794D03*
Y832D03*
X8915D03*
X8876Y794D03*
X8915D03*
X8876Y832D03*
X8915Y755D03*
X8876D03*
G54D52*
X7783Y1976D03*
Y1897D03*
X7704Y1976D03*
Y1897D03*
X7625Y1976D03*
Y1897D03*
X7547Y1976D03*
Y1897D03*
X7468Y1976D03*
Y1897D03*
X7389Y1976D03*
Y1897D03*
X7311Y1976D03*
Y1897D03*
X7232Y1976D03*
Y1897D03*
X7153Y1976D03*
Y1897D03*
X7074Y1976D03*
Y1897D03*
X6996Y1976D03*
Y1897D03*
X6917Y1976D03*
G54D53*
X6917Y1897D03*
G54D54*
X314Y314D03*
Y2047D03*
X5629Y314D03*
X1555D03*
X4527Y2047D03*
X1692D03*
X15826Y314D03*
Y2047D03*
X10893Y322D03*
X9385Y326D03*
X6271Y314D03*
X13255Y1110D03*
G54D55*
X13207Y1909D03*
G54D56*
X13307Y1909D03*
G54D57*
X13523Y1449D03*
Y1549D03*
Y1649D03*
Y1349D03*
Y1249D03*
Y1149D03*
Y1049D03*
Y949D03*
G54D58*
X13523Y1889D03*
X13513Y708D03*
X15610Y1889D03*
Y708D03*
G54D59*
X11586Y779D03*
Y1901D03*
X12783Y779D03*
Y1901D03*
X9192Y511D03*
X6515D03*
X9192Y2047D03*
X6515D03*
G54D60*
X12035Y1921D03*
X12135D03*
X12235D03*
X6535Y979D03*
Y1079D03*
Y1179D03*
Y1279D03*
Y1379D03*
Y1479D03*
G54D61*
X12335Y1921D03*
G54D62*
X12774Y433D03*
X11594D03*
G54D63*
X6535Y1579D03*
G54D64*
X7313Y1028D03*
X7413D03*
X7313Y1128D03*
X7413D03*
X7313Y1228D03*
X7413D03*
X7313Y1328D03*
X7413D03*
X7313Y1428D03*
G54D65*
X7413Y1428D03*
G54D66*
X633Y895D03*
G54D67*
X1220Y842D03*
G54D115*
X13424Y1248D03*
X13464D03*
X13424Y1051D03*
X13464D03*
X5240Y1429D03*
X5200D03*
X5020Y1460D03*
X4980D03*
X9452Y1729D03*
X9492D03*
X9944Y629D03*
X9984D03*
X4850Y1771D03*
X4810D03*
X5086D03*
X5046D03*
X5323D03*
X5283D03*
X5559D03*
X5519D03*
X5795D03*
X5755D03*
X6031D03*
X5991D03*
X6271D03*
X6231D03*
X1314Y1385D03*
X1354D03*
X5626Y1314D03*
X5586D03*
X6098D03*
X6058D03*
X1767Y1409D03*
X1807D03*
X2357D03*
X2397D03*
X2948D03*
X2988D03*
X3539D03*
X3579D03*
X4129D03*
X4169D03*
X4665Y1913D03*
X4625D03*
X13165Y507D03*
X13205D03*
X13563D03*
X13523D03*
X13928D03*
X13968D03*
X14374D03*
X14334D03*
X14779D03*
X14739D03*
X15185D03*
X15145D03*
X15586D03*
X15546D03*
X11606Y1425D03*
X11566D03*
X11566Y1389D03*
X11606D03*
X9535Y688D03*
X9495D03*
G54D116*
X14889Y1023D03*
G54D117*
X14869Y1113D03*
X14855Y1099D03*
X14841Y1085D03*
X14827Y1071D03*
X14813Y1058D03*
X14799Y1044D03*
X14910Y933D03*
X14924Y947D03*
X14938Y961D03*
X14952Y975D03*
X14965Y989D03*
X14979Y1003D03*
G54D118*
X14799Y1003D03*
X14813Y989D03*
X14827Y975D03*
X14841Y961D03*
X14855Y947D03*
X14869Y933D03*
X14979Y1044D03*
X14965Y1058D03*
X14952Y1071D03*
X14938Y1085D03*
X14924Y1099D03*
X14910Y1113D03*
G54D119*
X12734Y1643D03*
X12714D03*
X12694D03*
X12675D03*
X12655D03*
X12635D03*
Y1490D03*
X12655D03*
X12675D03*
X12694D03*
X12714D03*
X12734D03*
G54D120*
X12608Y1616D03*
Y1596D03*
Y1576D03*
Y1557D03*
Y1537D03*
Y1517D03*
X12761Y1537D03*
Y1557D03*
Y1576D03*
Y1596D03*
Y1616D03*
Y1517D03*
G54D121*
X4609Y1770D03*
X4595Y1756D03*
X4581Y1742D03*
X4568Y1729D03*
X4554Y1715D03*
X4540Y1701D03*
X4429Y1811D03*
X4443Y1825D03*
X4457Y1839D03*
X4471Y1853D03*
X4485Y1867D03*
X4499Y1881D03*
G54D122*
X4499Y1701D03*
X4485Y1715D03*
X4471Y1729D03*
X4457Y1742D03*
X4443Y1756D03*
X4429Y1770D03*
X4540Y1881D03*
X4554Y1867D03*
X4568Y1853D03*
X4581Y1839D03*
X4595Y1825D03*
X4609Y1811D03*
G54D123*
X4519Y1791D03*
G54D124*
X1778Y1807D03*
X1717D03*
G54D125*
X5675Y1314D03*
X5765Y1277D03*
Y1352D03*
X6237D03*
Y1277D03*
X6148Y1314D03*
G54D126*
X1141Y1183D03*
X1122D03*
X1102D03*
X1082D03*
X1062D03*
Y1336D03*
X1082D03*
X1102D03*
X1122D03*
X1141D03*
G54D127*
X1025Y1220D03*
Y1240D03*
Y1259D03*
Y1279D03*
Y1299D03*
X1179D03*
Y1279D03*
Y1259D03*
Y1240D03*
Y1220D03*
G54D128*
X1102Y1259D03*
G54D129*
X15904Y460D03*
X15866D03*
X11786Y1543D03*
X11748D03*
X12677Y1700D03*
X12715D03*
G54D130*
X14762Y1092D03*
X14733Y1120D03*
G54D131*
X14162Y1078D03*
G54D132*
X14136Y1160D03*
X14122Y1146D03*
X14108Y1132D03*
X14094Y1118D03*
X14080Y1104D03*
X14188Y996D03*
X14202Y1009D03*
X14216Y1023D03*
X14230Y1037D03*
X14244Y1051D03*
G54D133*
X14080Y1051D03*
X14094Y1037D03*
X14108Y1023D03*
X14122Y1009D03*
X14136Y996D03*
X14244Y1104D03*
X14230Y1118D03*
X14216Y1132D03*
X14202Y1146D03*
X14188Y1160D03*
G54D134*
X14029Y1151D03*
X14056Y1178D03*
G54D135*
X14785Y1120D03*
X14758Y1147D03*
G54D136*
X11779Y1405D03*
X8641Y1366D03*
G54D137*
X11818Y1482D03*
X11799D03*
X11779D03*
X11759D03*
X11740D03*
Y1328D03*
X11759D03*
X11779D03*
X11799D03*
X11818D03*
X8602Y1442D03*
X8622D03*
X8641D03*
X8661D03*
X8681D03*
Y1289D03*
X8661D03*
X8641D03*
X8622D03*
X8602D03*
G54D138*
X11702Y1444D03*
Y1425D03*
Y1405D03*
Y1385D03*
Y1366D03*
X11856D03*
Y1385D03*
Y1405D03*
Y1425D03*
Y1444D03*
X8564Y1326D03*
Y1346D03*
Y1366D03*
Y1385D03*
Y1405D03*
X8718D03*
Y1385D03*
Y1366D03*
Y1346D03*
Y1326D03*
M02*