%FSLAX23Y23*%
%MOIN*%
%SFA1B1*%

%IPPOS*%
%AMD92*
4,1,4,0.068200,0.000000,0.000000,0.068200,-0.068200,0.000000,0.000000,-0.068200,0.068200,0.000000,0.0*
%
%AMD93*
4,1,8,0.008200,-0.013400,0.013400,-0.008200,0.013400,-0.006400,-0.006400,0.013400,-0.008200,0.013400,-0.013400,0.008200,-0.013400,0.006400,0.006400,-0.013400,0.008200,-0.013400,0.0*
1,1,0.002460,0.007300,-0.012500*
1,1,0.002460,0.012500,-0.007300*
1,1,0.002460,-0.007300,0.012500*
1,1,0.002460,-0.012500,0.007300*
%
%AMD94*
4,1,8,-0.006400,-0.013400,0.013400,0.006400,0.013400,0.008200,0.008200,0.013400,0.006400,0.013400,-0.013400,-0.006400,-0.013400,-0.008200,-0.008200,-0.013400,-0.006400,-0.013400,0.0*
1,1,0.002460,-0.007300,-0.012500*
1,1,0.002460,0.012500,0.007300*
1,1,0.002460,0.007300,0.012500*
1,1,0.002460,-0.012500,-0.007300*
%
%AMD95*
4,1,8,-0.003700,-0.016200,0.003700,-0.016200,0.004900,-0.015000,0.004900,0.015000,0.003700,0.016200,-0.003700,0.016200,-0.004900,0.015000,-0.004900,-0.015000,-0.003700,-0.016200,0.0*
1,1,0.002460,-0.003700,-0.015000*
1,1,0.002460,0.003700,-0.015000*
1,1,0.002460,0.003700,0.015000*
1,1,0.002460,-0.003700,0.015000*
%
%AMD96*
4,1,8,-0.015000,-0.004900,0.015000,-0.004900,0.016200,-0.003700,0.016200,0.003700,0.015000,0.004900,-0.015000,0.004900,-0.016200,0.003700,-0.016200,-0.003700,-0.015000,-0.004900,0.0*
1,1,0.002460,-0.015000,-0.003700*
1,1,0.002460,0.015000,-0.003700*
1,1,0.002460,0.015000,0.003700*
1,1,0.002460,-0.015000,0.003700*
%
%AMD97*
4,1,8,-0.013400,0.006400,0.006400,-0.013400,0.008200,-0.013400,0.013400,-0.008200,0.013400,-0.006400,-0.006400,0.013400,-0.008200,0.013400,-0.013400,0.008200,-0.013400,0.006400,0.0*
1,1,0.002460,-0.012500,0.007300*
1,1,0.002460,0.007300,-0.012500*
1,1,0.002460,0.012500,-0.007300*
1,1,0.002460,-0.007300,0.012500*
%
%AMD98*
4,1,8,-0.013400,-0.008200,-0.008200,-0.013400,-0.006400,-0.013400,0.013400,0.006400,0.013400,0.008200,0.008200,0.013400,0.006400,0.013400,-0.013400,-0.006400,-0.013400,-0.008200,0.0*
1,1,0.002460,-0.012500,-0.007300*
1,1,0.002460,-0.007300,-0.012500*
1,1,0.002460,0.012500,0.007300*
1,1,0.002460,0.007300,0.012500*
%
%AMD99*
4,1,4,0.000000,-0.068200,0.068200,0.000000,0.000000,0.068200,-0.068200,0.000000,0.000000,-0.068200,0.0*
%
%AMD101*
4,1,8,-0.023100,-0.011800,0.023100,-0.011800,0.026100,-0.008900,0.026100,0.008900,0.023100,0.011800,-0.023100,0.011800,-0.026100,0.008900,-0.026100,-0.008900,-0.023100,-0.011800,0.0*
1,1,0.005900,-0.023100,-0.008900*
1,1,0.005900,0.023100,-0.008900*
1,1,0.005900,0.023100,0.008900*
1,1,0.005900,-0.023100,0.008900*
%
%AMD102*
4,1,8,-0.004900,0.014500,-0.004900,-0.014500,-0.003700,-0.015700,0.003700,-0.015700,0.004900,-0.014500,0.004900,0.014500,0.003700,0.015700,-0.003700,0.015700,-0.004900,0.014500,0.0*
1,1,0.002460,-0.003700,0.014500*
1,1,0.002460,-0.003700,-0.014500*
1,1,0.002460,0.003700,-0.014500*
1,1,0.002460,0.003700,0.014500*
%
%AMD103*
4,1,8,-0.015700,0.003700,-0.015700,-0.003700,-0.014500,-0.004900,0.014500,-0.004900,0.015700,-0.003700,0.015700,0.003700,0.014500,0.004900,-0.014500,0.004900,-0.015700,0.003700,0.0*
1,1,0.002460,-0.014500,0.003700*
1,1,0.002460,-0.014500,-0.003700*
1,1,0.002460,0.014500,-0.003700*
1,1,0.002460,0.014500,0.003700*
%
%AMD106*
4,1,4,-0.014800,-0.000700,-0.000700,-0.014800,0.014800,0.000700,0.000700,0.014800,-0.014800,-0.000700,0.0*
%
%AMD107*
4,1,4,0.075100,0.000000,0.000000,0.075100,-0.075100,0.000000,0.000000,-0.075100,0.075100,0.000000,0.0*
%
%AMD108*
4,1,8,0.008500,-0.013700,0.013700,-0.008500,0.013700,-0.006800,-0.006800,0.013700,-0.008500,0.013700,-0.013700,0.008500,-0.013700,0.006800,0.006800,-0.013700,0.008500,-0.013700,0.0*
1,1,0.002460,0.007600,-0.012900*
1,1,0.002460,0.012900,-0.007600*
1,1,0.002460,-0.007600,0.012900*
1,1,0.002460,-0.012900,0.007600*
%
%AMD109*
4,1,8,-0.006800,-0.013700,0.013700,0.006800,0.013700,0.008500,0.008500,0.013700,0.006800,0.013700,-0.013700,-0.006800,-0.013700,-0.008500,-0.008500,-0.013700,-0.006800,-0.013700,0.0*
1,1,0.002460,-0.007600,-0.012900*
1,1,0.002460,0.012900,0.007600*
1,1,0.002460,0.007600,0.012900*
1,1,0.002460,-0.012900,-0.007600*
%
%AMD110*
4,1,4,-0.000300,0.014100,-0.014100,0.000300,0.000300,-0.014100,0.014100,-0.000300,-0.000300,0.014100,0.0*
%
%AMD111*
4,1,4,-0.014100,-0.000300,-0.000300,-0.014100,0.014100,0.000300,0.000300,0.014100,-0.014100,-0.000300,0.0*
%
%AMD113*
4,1,8,-0.003700,-0.015700,0.003700,-0.015700,0.004900,-0.014500,0.004900,0.014500,0.003700,0.015700,-0.003700,0.015700,-0.004900,0.014500,-0.004900,-0.014500,-0.003700,-0.015700,0.0*
1,1,0.002460,-0.003700,-0.014500*
1,1,0.002460,0.003700,-0.014500*
1,1,0.002460,0.003700,0.014500*
1,1,0.002460,-0.003700,0.014500*
%
%AMD114*
4,1,8,-0.014500,-0.004900,0.014500,-0.004900,0.015700,-0.003700,0.015700,0.003700,0.014500,0.004900,-0.014500,0.004900,-0.015700,0.003700,-0.015700,-0.003700,-0.014500,-0.004900,0.0*
1,1,0.002460,-0.014500,-0.003700*
1,1,0.002460,0.014500,-0.003700*
1,1,0.002460,0.014500,0.003700*
1,1,0.002460,-0.014500,0.003700*
%
%AMD139*
4,1,8,0.002300,-0.016100,0.016100,-0.002300,0.016100,0.002300,0.002300,0.016100,-0.002300,0.016100,-0.016100,0.002300,-0.016100,-0.002300,-0.002300,-0.016100,0.002300,-0.016100,0.0*
1,1,0.006500,0.000000,-0.013700*
1,1,0.006500,0.013700,0.000000*
1,1,0.006500,0.000000,0.013700*
1,1,0.006500,-0.013700,0.000000*
%
%AMD140*
4,1,8,-0.017400,-0.022200,0.017400,-0.022200,0.022200,-0.017400,0.022200,0.017400,0.017400,0.022200,-0.017400,0.022200,-0.022200,0.017400,-0.022200,-0.017400,-0.017400,-0.022200,0.0*
1,1,0.009780,-0.017400,-0.017400*
1,1,0.009780,0.017400,-0.017400*
1,1,0.009780,0.017400,0.017400*
1,1,0.009780,-0.017400,0.017400*
%
%AMD141*
4,1,8,-0.016100,-0.002300,-0.002300,-0.016100,0.002300,-0.016100,0.016100,-0.002300,0.016100,0.002300,0.002300,0.016100,-0.002300,0.016100,-0.016100,0.002300,-0.016100,-0.002300,0.0*
1,1,0.006500,-0.013700,0.000000*
1,1,0.006500,0.000000,-0.013700*
1,1,0.006500,0.013700,0.000000*
1,1,0.006500,0.000000,0.013700*
%
%AMD142*
4,1,8,-0.021500,0.016500,-0.021500,-0.016500,-0.016500,-0.021500,0.016500,-0.021500,0.021500,-0.016500,0.021500,0.016500,0.016500,0.021500,-0.016500,0.021500,-0.021500,0.016500,0.0*
1,1,0.009880,-0.016500,0.016500*
1,1,0.009880,-0.016500,-0.016500*
1,1,0.009880,0.016500,-0.016500*
1,1,0.009880,0.016500,0.016500*
%
%AMD143*
4,1,8,0.003500,-0.026900,0.026900,-0.003500,0.026900,0.003500,0.003500,0.026900,-0.003500,0.026900,-0.026900,0.003500,-0.026900,-0.003500,-0.003500,-0.026900,0.003500,-0.026900,0.0*
1,1,0.009880,0.000000,-0.023300*
1,1,0.009880,0.023300,0.000000*
1,1,0.009880,0.000000,0.023300*
1,1,0.009880,-0.023300,0.000000*
%
%AMD144*
4,1,8,-0.016500,-0.021500,0.016500,-0.021500,0.021500,-0.016500,0.021500,0.016500,0.016500,0.021500,-0.016500,0.021500,-0.021500,0.016500,-0.021500,-0.016500,-0.016500,-0.021500,0.0*
1,1,0.009880,-0.016500,-0.016500*
1,1,0.009880,0.016500,-0.016500*
1,1,0.009880,0.016500,0.016500*
1,1,0.009880,-0.016500,0.016500*
%
%ADD25R,0.032280X0.035000*%
%ADD26R,0.102360X0.102360*%
%ADD32R,0.020470X0.019680*%
%ADD33R,0.022000X0.020000*%
%ADD36R,0.096460X0.096460*%
%ADD91R,0.020000X0.022000*%
G04~CAMADD=92~10~0.0~964.6~0.0~0.0~0.0~0.0~0~0.0~0.0~0.0~0.0~0~0.0~0.0~0.0~0.0~0~0.0~0.0~0.0~315.0~964.6~0.0*
%ADD92D92*%
G04~CAMADD=93~8~0.0~0.0~98.4~305.1~12.3~0.0~15~0.0~0.0~0.0~0.0~0~0.0~0.0~0.0~0.0~0~0.0~0.0~0.0~225.0~276.0~275.0*
%ADD93D93*%
G04~CAMADD=94~8~0.0~0.0~305.1~98.4~12.3~0.0~15~0.0~0.0~0.0~0.0~0~0.0~0.0~0.0~0.0~0~0.0~0.0~0.0~225.0~276.0~275.0*
%ADD94D94*%
G04~CAMADD=95~8~0.0~0.0~98.4~324.8~12.3~0.0~15~0.0~0.0~0.0~0.0~0~0.0~0.0~0.0~0.0~0~0.0~0.0~0.0~180.0~98.0~324.0*
%ADD95D95*%
G04~CAMADD=96~8~0.0~0.0~324.8~98.4~12.3~0.0~15~0.0~0.0~0.0~0.0~0~0.0~0.0~0.0~0.0~0~0.0~0.0~0.0~180.0~324.0~98.0*
%ADD96D96*%
G04~CAMADD=97~8~0.0~0.0~305.1~98.4~12.3~0.0~15~0.0~0.0~0.0~0.0~0~0.0~0.0~0.0~0.0~0~0.0~0.0~0.0~135.0~276.0~275.0*
%ADD97D97*%
G04~CAMADD=98~8~0.0~0.0~98.4~305.1~12.3~0.0~15~0.0~0.0~0.0~0.0~0~0.0~0.0~0.0~0.0~0~0.0~0.0~0.0~135.0~276.0~275.0*
%ADD98D98*%
G04~CAMADD=99~10~0.0~964.6~0.0~0.0~0.0~0.0~0~0.0~0.0~0.0~0.0~0~0.0~0.0~0.0~0.0~0~0.0~0.0~0.0~225.0~964.6~0.0*
%ADD99D99*%
%ADD100R,0.035000X0.032280*%
G04~CAMADD=101~8~0.0~0.0~521.7~236.2~29.5~0.0~15~0.0~0.0~0.0~0.0~0~0.0~0.0~0.0~0.0~0~0.0~0.0~0.0~180.0~522.0~236.0*
%ADD101D101*%
G04~CAMADD=102~8~0.0~0.0~315.0~98.4~12.3~0.0~15~0.0~0.0~0.0~0.0~0~0.0~0.0~0.0~0.0~0~0.0~0.0~0.0~90.0~98.0~314.0*
%ADD102D102*%
G04~CAMADD=103~8~0.0~0.0~98.4~315.0~12.3~0.0~15~0.0~0.0~0.0~0.0~0~0.0~0.0~0.0~0.0~0~0.0~0.0~0.0~90.0~314.0~98.0*
%ADD103D103*%
%ADD104R,0.106300X0.106300*%
%ADD105R,0.019680X0.020470*%
G04~CAMADD=106~9~0.0~0.0~200.0~220.0~0.0~0.0~0~0.0~0.0~0.0~0.0~0~0.0~0.0~0.0~0.0~0~0.0~0.0~0.0~135.0~296.0~295.0*
%ADD106D106*%
G04~CAMADD=107~10~0.0~1063.0~0.0~0.0~0.0~0.0~0~0.0~0.0~0.0~0.0~0~0.0~0.0~0.0~0.0~0~0.0~0.0~0.0~315.0~1063.0~0.0*
%ADD107D107*%
G04~CAMADD=108~8~0.0~0.0~98.4~315.0~12.3~0.0~15~0.0~0.0~0.0~0.0~0~0.0~0.0~0.0~0.0~0~0.0~0.0~0.0~225.0~282.0~282.0*
%ADD108D108*%
G04~CAMADD=109~8~0.0~0.0~315.0~98.4~12.3~0.0~15~0.0~0.0~0.0~0.0~0~0.0~0.0~0.0~0.0~0~0.0~0.0~0.0~225.0~282.0~282.0*
%ADD109D109*%
G04~CAMADD=110~9~0.0~0.0~196.8~204.7~0.0~0.0~0~0.0~0.0~0.0~0.0~0~0.0~0.0~0.0~0.0~0~0.0~0.0~0.0~45.0~282.0~281.0*
%ADD110D110*%
G04~CAMADD=111~9~0.0~0.0~196.8~204.7~0.0~0.0~0~0.0~0.0~0.0~0.0~0~0.0~0.0~0.0~0.0~0~0.0~0.0~0.0~135.0~282.0~281.0*
%ADD111D111*%
%ADD112R,0.106300X0.106300*%
G04~CAMADD=113~8~0.0~0.0~98.4~315.0~12.3~0.0~15~0.0~0.0~0.0~0.0~0~0.0~0.0~0.0~0.0~0~0.0~0.0~0.0~180.0~98.0~314.0*
%ADD113D113*%
G04~CAMADD=114~8~0.0~0.0~315.0~98.4~12.3~0.0~15~0.0~0.0~0.0~0.0~0~0.0~0.0~0.0~0.0~0~0.0~0.0~0.0~180.0~314.0~98.0*
%ADD114D114*%
G04~CAMADD=139~8~0.0~0.0~259.8~259.8~32.5~0.0~15~0.0~0.0~0.0~0.0~0~0.0~0.0~0.0~0.0~0~0.0~0.0~0.0~225.0~340.0~340.0*
%ADD139D139*%
G04~CAMADD=140~8~0.0~0.0~444.9~444.9~48.9~0.0~15~0.0~0.0~0.0~0.0~0~0.0~0.0~0.0~0.0~0~0.0~0.0~0.0~180.0~444.0~444.0*
%ADD140D140*%
G04~CAMADD=141~8~0.0~0.0~259.8~259.8~32.5~0.0~15~0.0~0.0~0.0~0.0~0~0.0~0.0~0.0~0.0~0~0.0~0.0~0.0~135.0~340.0~340.0*
%ADD141D141*%
G04~CAMADD=142~8~0.0~0.0~429.1~429.1~49.4~0.0~15~0.0~0.0~0.0~0.0~0~0.0~0.0~0.0~0.0~0~0.0~0.0~0.0~90.0~430.0~430.0*
%ADD142D142*%
G04~CAMADD=143~8~0.0~0.0~429.1~429.1~49.4~0.0~15~0.0~0.0~0.0~0.0~0~0.0~0.0~0.0~0.0~0~0.0~0.0~0.0~225.0~566.0~565.0*
%ADD143D143*%
G04~CAMADD=144~8~0.0~0.0~429.1~429.1~49.4~0.0~15~0.0~0.0~0.0~0.0~0~0.0~0.0~0.0~0.0~0~0.0~0.0~0.0~180.0~430.0~430.0*
%ADD144D144*%
%LNbenchy-frontpanel-pcb1-1*%
%LPD*%
G54D25*
X13043Y1932D03*
Y1871D03*
X9114Y302D03*
Y241D03*
G54D26*
X12685Y1566D03*
G54D32*
X4842Y1918D03*
Y1955D03*
X4196Y1410D03*
Y1448D03*
X4708Y1847D03*
Y1885D03*
X8645Y1205D03*
Y1243D03*
G54D33*
X10562Y866D03*
Y826D03*
X10559Y1468D03*
Y1428D03*
X9492Y1201D03*
Y1161D03*
X10027Y1271D03*
Y1231D03*
X13295Y1716D03*
Y1756D03*
Y1791D03*
Y1831D03*
X5748Y444D03*
Y484D03*
X570Y1373D03*
Y1413D03*
X5814Y1354D03*
Y1394D03*
X6287Y1354D03*
Y1394D03*
X6118Y440D03*
Y480D03*
X870Y1373D03*
Y1413D03*
X13295Y728D03*
Y688D03*
X13220Y728D03*
Y688D03*
X11736Y1248D03*
Y1208D03*
X11775Y1248D03*
Y1208D03*
X11653Y1299D03*
Y1339D03*
X11708Y1519D03*
Y1559D03*
X11657Y1491D03*
Y1531D03*
X11700Y1243D03*
Y1283D03*
X12185Y712D03*
Y752D03*
G54D36*
X8876Y794D03*
G54D91*
X13424Y1248D03*
X13464D03*
X13424Y1051D03*
X13464D03*
X5240Y1429D03*
X5200D03*
X5020Y1460D03*
X4980D03*
X9452Y1729D03*
X9492D03*
X9944Y629D03*
X9984D03*
X4850Y1771D03*
X4810D03*
X5086D03*
X5046D03*
X5323D03*
X5283D03*
X5559D03*
X5519D03*
X5795D03*
X5755D03*
X6031D03*
X5991D03*
X6271D03*
X6231D03*
X1314Y1385D03*
X1354D03*
X5626Y1314D03*
X5586D03*
X6098D03*
X6058D03*
X1767Y1409D03*
X1807D03*
X2357D03*
X2397D03*
X2948D03*
X2988D03*
X3539D03*
X3579D03*
X4129D03*
X4169D03*
X4665Y1913D03*
X4625D03*
X13165Y507D03*
X13205D03*
X13563D03*
X13523D03*
X13928D03*
X13968D03*
X14374D03*
X14334D03*
X14779D03*
X14739D03*
X15185D03*
X15145D03*
X15586D03*
X15546D03*
X11606Y1425D03*
X11566D03*
X11566Y1389D03*
X11606D03*
X9535Y688D03*
X9495D03*
G54D92*
X14889Y1023D03*
G54D93*
X14869Y1113D03*
X14855Y1099D03*
X14841Y1085D03*
X14827Y1071D03*
X14813Y1058D03*
X14799Y1044D03*
X14910Y933D03*
X14924Y947D03*
X14938Y961D03*
X14952Y975D03*
X14965Y989D03*
X14979Y1003D03*
G54D94*
X14799Y1003D03*
X14813Y989D03*
X14827Y975D03*
X14841Y961D03*
X14855Y947D03*
X14869Y933D03*
X14979Y1044D03*
X14965Y1058D03*
X14952Y1071D03*
X14938Y1085D03*
X14924Y1099D03*
X14910Y1113D03*
G54D95*
X12734Y1643D03*
X12714D03*
X12694D03*
X12675D03*
X12655D03*
X12635D03*
Y1490D03*
X12655D03*
X12675D03*
X12694D03*
X12714D03*
X12734D03*
G54D96*
X12608Y1616D03*
Y1596D03*
Y1576D03*
Y1557D03*
Y1537D03*
Y1517D03*
X12761Y1537D03*
Y1557D03*
Y1576D03*
Y1596D03*
Y1616D03*
Y1517D03*
G54D97*
X4609Y1770D03*
X4595Y1756D03*
X4581Y1742D03*
X4568Y1729D03*
X4554Y1715D03*
X4540Y1701D03*
X4429Y1811D03*
X4443Y1825D03*
X4457Y1839D03*
X4471Y1853D03*
X4485Y1867D03*
X4499Y1881D03*
G54D98*
X4499Y1701D03*
X4485Y1715D03*
X4471Y1729D03*
X4457Y1742D03*
X4443Y1756D03*
X4429Y1770D03*
X4540Y1881D03*
X4554Y1867D03*
X4568Y1853D03*
X4581Y1839D03*
X4595Y1825D03*
X4609Y1811D03*
G54D99*
X4519Y1791D03*
G54D100*
X1778Y1807D03*
X1717D03*
G54D101*
X5675Y1314D03*
X5765Y1277D03*
Y1352D03*
X6237D03*
Y1277D03*
X6148Y1314D03*
G54D102*
X1141Y1183D03*
X1122D03*
X1102D03*
X1082D03*
X1062D03*
Y1336D03*
X1082D03*
X1102D03*
X1122D03*
X1141D03*
G54D103*
X1025Y1220D03*
Y1240D03*
Y1259D03*
Y1279D03*
Y1299D03*
X1179D03*
Y1279D03*
Y1259D03*
Y1240D03*
Y1220D03*
G54D104*
X1102Y1259D03*
G54D105*
X15904Y460D03*
X15866D03*
X11786Y1543D03*
X11748D03*
X12677Y1700D03*
X12715D03*
G54D106*
X14762Y1092D03*
X14733Y1120D03*
G54D107*
X14162Y1078D03*
G54D108*
X14136Y1160D03*
X14122Y1146D03*
X14108Y1132D03*
X14094Y1118D03*
X14080Y1104D03*
X14188Y996D03*
X14202Y1009D03*
X14216Y1023D03*
X14230Y1037D03*
X14244Y1051D03*
G54D109*
X14080Y1051D03*
X14094Y1037D03*
X14108Y1023D03*
X14122Y1009D03*
X14136Y996D03*
X14244Y1104D03*
X14230Y1118D03*
X14216Y1132D03*
X14202Y1146D03*
X14188Y1160D03*
G54D110*
X14029Y1151D03*
X14056Y1178D03*
G54D111*
X14785Y1120D03*
X14758Y1147D03*
G54D112*
X11779Y1405D03*
X8641Y1366D03*
G54D113*
X11818Y1482D03*
X11799D03*
X11779D03*
X11759D03*
X11740D03*
Y1328D03*
X11759D03*
X11779D03*
X11799D03*
X11818D03*
X8602Y1442D03*
X8622D03*
X8641D03*
X8661D03*
X8681D03*
Y1289D03*
X8661D03*
X8641D03*
X8622D03*
X8602D03*
G54D114*
X11702Y1444D03*
Y1425D03*
Y1405D03*
Y1385D03*
Y1366D03*
X11856D03*
Y1385D03*
Y1405D03*
Y1425D03*
Y1444D03*
X8564Y1326D03*
Y1346D03*
Y1366D03*
Y1385D03*
Y1405D03*
X8718D03*
Y1385D03*
Y1366D03*
Y1346D03*
Y1326D03*
G54D139*
X14912Y1046D03*
X14935Y1023D03*
X14912Y1000D03*
X14866Y1046D03*
X14889Y1023D03*
Y977D03*
X14844Y1023D03*
X14866Y1000D03*
X14889Y1069D03*
G54D140*
X12710Y1592D03*
Y1541D03*
X12659Y1592D03*
Y1541D03*
G54D141*
X4565Y1791D03*
X4496Y1814D03*
X4519Y1836D03*
X4474Y1791D03*
X4519D03*
X4542Y1814D03*
X4496Y1768D03*
X4519Y1745D03*
X4542Y1768D03*
G54D142*
X1075Y1286D03*
X1128Y1233D03*
Y1286D03*
X1075Y1233D03*
G54D143*
X14200Y1078D03*
X14124D03*
X14162Y1115D03*
Y1040D03*
G54D144*
X11806Y1378D03*
X11752Y1432D03*
X11806D03*
X11752Y1378D03*
X8668Y1392D03*
X8615Y1339D03*
X8668D03*
X8615Y1392D03*
M02*