%FSLAX23Y23*%
%MOIN*%
%SFA1B1*%

%IPPOS*%
%AMD65*
4,1,8,0.017200,-0.016500,0.017200,0.016500,0.012600,0.021200,-0.012600,0.021200,-0.017200,0.016500,-0.017200,-0.016500,-0.012600,-0.021200,0.012600,-0.021200,0.017200,-0.016500,0.0*
1,1,0.009300,0.012600,-0.016500*
1,1,0.009300,0.012600,0.016500*
1,1,0.009300,-0.012600,0.016500*
1,1,0.009300,-0.012600,-0.016500*
%
%AMD66*
4,1,8,0.031000,-0.011000,0.031000,0.011000,0.026800,0.015300,-0.026800,0.015300,-0.031000,0.011000,-0.031000,-0.011000,-0.026800,-0.015300,0.026800,-0.015300,0.031000,-0.011000,0.0*
1,1,0.008500,0.026800,-0.011000*
1,1,0.008500,0.026800,0.011000*
1,1,0.008500,-0.026800,0.011000*
1,1,0.008500,-0.026800,-0.011000*
%
%AMD68*
4,1,8,-0.009600,-0.010400,0.009600,-0.010400,0.013300,-0.006600,0.013300,0.006600,0.009600,0.010400,-0.009600,0.010400,-0.013300,0.006600,-0.013300,-0.006600,-0.009600,-0.010400,0.0*
1,1,0.007420,-0.009600,-0.006600*
1,1,0.007420,0.009600,-0.006600*
1,1,0.007420,0.009600,0.006600*
1,1,0.007420,-0.009600,0.006600*
%
%AMD73*
4,1,8,0.031200,0.023100,-0.031200,0.023100,-0.035900,0.018400,-0.035900,-0.018400,-0.031200,-0.023100,0.031200,-0.023100,0.035900,-0.018400,0.035900,0.018400,0.031200,0.023100,0.0*
1,1,0.009480,0.031200,0.018400*
1,1,0.009480,-0.031200,0.018400*
1,1,0.009480,-0.031200,-0.018400*
1,1,0.009480,0.031200,-0.018400*
%
%AMD75*
4,1,8,0.029000,0.007400,-0.029000,0.007400,-0.032000,0.004400,-0.032000,-0.004400,-0.029000,-0.007400,0.029000,-0.007400,0.032000,-0.004400,0.032000,0.004400,0.029000,0.007400,0.0*
1,1,0.005940,0.029000,0.004400*
1,1,0.005940,-0.029000,0.004400*
1,1,0.005940,-0.029000,-0.004400*
1,1,0.005940,0.029000,-0.004400*
%
%AMD76*
4,1,8,0.004400,0.032000,-0.004400,0.032000,-0.007400,0.029000,-0.007400,-0.029000,-0.004400,-0.032000,0.004400,-0.032000,0.007400,-0.029000,0.007400,0.029000,0.004400,0.032000,0.0*
1,1,0.005940,0.004400,0.029000*
1,1,0.005940,-0.004400,0.029000*
1,1,0.005940,-0.004400,-0.029000*
1,1,0.005940,0.004400,-0.029000*
%
%AMD80*
4,1,8,-0.063000,-0.099000,0.063000,-0.099000,0.080200,-0.081800,0.080200,0.081800,0.063000,0.099000,-0.063000,0.099000,-0.080200,0.081800,-0.080200,-0.081800,-0.063000,-0.099000,0.0*
1,1,0.034480,-0.063000,-0.081800*
1,1,0.034480,0.063000,-0.081800*
1,1,0.034480,0.063000,0.081800*
1,1,0.034480,-0.063000,0.081800*
%
%AMD82*
4,1,8,-0.063900,-0.033000,0.063900,-0.033000,0.070400,-0.026400,0.070400,0.026400,0.063900,0.033000,-0.063900,0.033000,-0.070400,0.026400,-0.070400,-0.026400,-0.063900,-0.033000,0.0*
1,1,0.013080,-0.063900,-0.026400*
1,1,0.013080,0.063900,-0.026400*
1,1,0.013080,0.063900,0.026400*
1,1,0.013080,-0.063900,0.026400*
%
%AMD88*
4,1,8,-0.048400,-0.066500,0.048400,-0.066500,0.054600,-0.060200,0.054600,0.060200,0.048400,0.066500,-0.048400,0.066500,-0.054600,0.060200,-0.054600,-0.060200,-0.048400,-0.066500,0.0*
1,1,0.012560,-0.048400,-0.060200*
1,1,0.012560,0.048400,-0.060200*
1,1,0.012560,0.048400,0.060200*
1,1,0.012560,-0.048400,0.060200*
%
%AMD89*
4,1,8,0.000000,-0.066500,0.000000,-0.066500,0.054600,-0.011800,0.054600,0.011800,0.000000,0.066500,0.000000,0.066500,-0.054600,0.011800,-0.054600,-0.011800,0.000000,-0.066500,0.0*
1,1,0.109300,0.000000,-0.011800*
1,1,0.109300,0.000000,-0.011800*
1,1,0.109300,0.000000,0.011800*
1,1,0.109300,0.000000,0.011800*
%
%AMD90*
4,1,8,0.039900,-0.028400,0.039900,0.028400,0.033400,0.035000,-0.033400,0.035000,-0.039900,0.028400,-0.039900,-0.028400,-0.033400,-0.035000,0.033400,-0.035000,0.039900,-0.028400,0.0*
1,1,0.013040,0.033400,-0.028400*
1,1,0.013040,0.033400,0.028400*
1,1,0.013040,-0.033400,0.028400*
1,1,0.013040,-0.033400,-0.028400*
%
%AMD91*
4,1,8,0.039900,0.000000,0.039900,0.000000,0.004900,0.035000,-0.004900,0.035000,-0.039900,0.000000,-0.039900,0.000000,-0.004900,-0.035000,0.004900,-0.035000,0.039900,0.000000,0.0*
1,1,0.069920,0.004900,0.000000*
1,1,0.069920,0.004900,0.000000*
1,1,0.069920,-0.004900,0.000000*
1,1,0.069920,-0.004900,0.000000*
%
%AMD92*
4,1,8,0.000000,0.040900,0.000000,0.040900,-0.035000,0.005900,-0.035000,-0.005900,0.000000,-0.040900,0.000000,-0.040900,0.035000,-0.005900,0.035000,0.005900,0.000000,0.040900,0.0*
1,1,0.069920,0.000000,0.005900*
1,1,0.069920,0.000000,0.005900*
1,1,0.069920,0.000000,-0.005900*
1,1,0.069920,0.000000,-0.005900*
%
%AMD93*
4,1,8,0.028400,0.040900,-0.028400,0.040900,-0.035000,0.034300,-0.035000,-0.034300,-0.028400,-0.040900,0.028400,-0.040900,0.035000,-0.034300,0.035000,0.034300,0.028400,0.040900,0.0*
1,1,0.013040,0.028400,0.034300*
1,1,0.013040,-0.028400,0.034300*
1,1,0.013040,-0.028400,-0.034300*
1,1,0.013040,0.028400,-0.034300*
%
%AMD95*
4,1,8,0.000000,0.039900,0.000000,0.039900,-0.035000,0.004900,-0.035000,-0.004900,0.000000,-0.039900,0.000000,-0.039900,0.035000,-0.004900,0.035000,0.004900,0.000000,0.039900,0.0*
1,1,0.069920,0.000000,0.004900*
1,1,0.069920,0.000000,0.004900*
1,1,0.069920,0.000000,-0.004900*
1,1,0.069920,0.000000,-0.004900*
%
%AMD96*
4,1,8,0.028400,0.039900,-0.028400,0.039900,-0.035000,0.033400,-0.035000,-0.033400,-0.028400,-0.039900,0.028400,-0.039900,0.035000,-0.033400,0.035000,0.033400,0.028400,0.039900,0.0*
1,1,0.013040,0.028400,0.033400*
1,1,0.013040,-0.028400,0.033400*
1,1,0.013040,-0.028400,-0.033400*
1,1,0.013040,0.028400,-0.033400*
%
%AMD100*
4,1,8,-0.066500,0.048400,-0.066500,-0.048400,-0.060200,-0.054600,0.060200,-0.054600,0.066500,-0.048400,0.066500,0.048400,0.060200,0.054600,-0.060200,0.054600,-0.066500,0.048400,0.0*
1,1,0.012560,-0.060200,0.048400*
1,1,0.012560,-0.060200,-0.048400*
1,1,0.012560,0.060200,-0.048400*
1,1,0.012560,0.060200,0.048400*
%
%AMD101*
4,1,8,-0.066500,0.000000,-0.066500,0.000000,-0.011800,-0.054600,0.011800,-0.054600,0.066500,0.000000,0.066500,0.000000,0.011800,0.054600,-0.011800,0.054600,-0.066500,0.000000,0.0*
1,1,0.109300,-0.011800,0.000000*
1,1,0.109300,-0.011800,0.000000*
1,1,0.109300,0.011800,0.000000*
1,1,0.109300,0.011800,0.000000*
%
%ADD58R,0.003030X0.003030*%
%ADD59R,0.014800X0.039210*%
%ADD60R,0.039210X0.014800*%
%ADD61R,0.041380X0.058110*%
%ADD62R,0.047990X0.107990*%
%ADD63R,0.023460X0.022680*%
%ADD64R,0.107990X0.047990*%
G04~CAMADD=65~8~0.0~0.0~423.6~344.9~46.5~0.0~15~0.0~0.0~0.0~0.0~0~0.0~0.0~0.0~0.0~0~0.0~0.0~0.0~270.0~345.0~423.0*
%ADD65D65*%
G04~CAMADD=66~8~0.0~0.0~305.5~620.5~42.5~0.0~15~0.0~0.0~0.0~0.0~0~0.0~0.0~0.0~0.0~0~0.0~0.0~0.0~270.0~621.0~306.0*
%ADD66D66*%
%ADD67R,0.022990X0.024990*%
G04~CAMADD=68~8~0.0~0.0~266.1~207.1~37.1~0.0~15~0.0~0.0~0.0~0.0~0~0.0~0.0~0.0~0.0~0~0.0~0.0~0.0~180.0~267.0~207.0*
%ADD68D68*%
%ADD69R,0.035280X0.037990*%
%ADD70R,0.034490X0.040390*%
%ADD71R,0.022680X0.023460*%
%ADD72R,0.071890X0.018740*%
G04~CAMADD=73~8~0.0~0.0~718.9~463.0~47.4~0.0~15~0.0~0.0~0.0~0.0~0~0.0~0.0~0.0~0.0~0~0.0~0.0~0.0~0.0~718.9~463.0*
%ADD73D73*%
%ADD74R,0.024990X0.022990*%
G04~CAMADD=75~8~0.0~0.0~640.2~148.0~29.7~0.0~15~0.0~0.0~0.0~0.0~0~0.0~0.0~0.0~0.0~0~0.0~0.0~0.0~0.0~640.2~148.0*
%ADD75D75*%
G04~CAMADD=76~8~0.0~0.0~148.0~640.2~29.7~0.0~15~0.0~0.0~0.0~0.0~0~0.0~0.0~0.0~0.0~0~0.0~0.0~0.0~0.0~148.0~640.2*
%ADD76D76*%
%ADD77C,0.033990*%
%ADD78R,0.081730X0.062050*%
%ADD79R,0.081730X0.152600*%
G04~CAMADD=80~8~0.0~0.0~1604.7~1979.9~172.4~0.0~15~0.0~0.0~0.0~0.0~0~0.0~0.0~0.0~0.0~0~0.0~0.0~0.0~180.0~1605.0~1980.0*
%ADD80D80*%
%ADD81R,0.024650X0.022680*%
G04~CAMADD=82~8~0.0~0.0~1407.9~659.8~65.4~0.0~15~0.0~0.0~0.0~0.0~0~0.0~0.0~0.0~0.0~0~0.0~0.0~0.0~180.0~1408.0~660.0*
%ADD82D82*%
%ADD83R,0.016770X0.020710*%
%ADD84R,0.020710X0.016770*%
%ADD85R,0.022680X0.024650*%
%ADD86R,0.042990X0.058990*%
%ADD87R,0.058990X0.042990*%
G04~CAMADD=88~8~0.0~0.0~1092.9~1329.1~62.8~0.0~15~0.0~0.0~0.0~0.0~0~0.0~0.0~0.0~0.0~0~0.0~0.0~0.0~180.0~1094.0~1329.0*
%ADD88D88*%
G04~CAMADD=89~8~0.0~0.0~1092.9~1329.1~546.5~0.0~15~0.0~0.0~0.0~0.0~0~0.0~0.0~0.0~0.0~0~0.0~0.0~0.0~180.0~1094.0~1329.0*
%ADD89D89*%
G04~CAMADD=90~8~0.0~0.0~699.2~797.6~65.2~0.0~15~0.0~0.0~0.0~0.0~0~0.0~0.0~0.0~0.0~0~0.0~0.0~0.0~270.0~798.0~700.0*
%ADD90D90*%
G04~CAMADD=91~8~0.0~0.0~699.2~797.6~349.6~0.0~15~0.0~0.0~0.0~0.0~0~0.0~0.0~0.0~0.0~0~0.0~0.0~0.0~270.0~798.0~700.0*
%ADD91D91*%
G04~CAMADD=92~8~0.0~0.0~699.2~817.3~349.6~0.0~15~0.0~0.0~0.0~0.0~0~0.0~0.0~0.0~0.0~0~0.0~0.0~0.0~0.0~699.2~817.3*
%ADD92D92*%
G04~CAMADD=93~8~0.0~0.0~699.2~817.3~65.2~0.0~15~0.0~0.0~0.0~0.0~0~0.0~0.0~0.0~0.0~0~0.0~0.0~0.0~0.0~699.2~817.3*
%ADD93D93*%
%ADD94C,0.038420*%
G04~CAMADD=95~8~0.0~0.0~699.2~797.6~349.6~0.0~15~0.0~0.0~0.0~0.0~0~0.0~0.0~0.0~0.0~0~0.0~0.0~0.0~0.0~699.2~797.6*
%ADD95D95*%
G04~CAMADD=96~8~0.0~0.0~699.2~797.6~65.2~0.0~15~0.0~0.0~0.0~0.0~0~0.0~0.0~0.0~0.0~0~0.0~0.0~0.0~0.0~699.2~797.6*
%ADD96D96*%
%ADD97C,0.041990*%
%ADD98C,0.096490*%
%ADD99C,0.227400*%
G04~CAMADD=100~8~0.0~0.0~1092.9~1329.1~62.8~0.0~15~0.0~0.0~0.0~0.0~0~0.0~0.0~0.0~0.0~0~0.0~0.0~0.0~90.0~1330.0~1093.0*
%ADD100D100*%
G04~CAMADD=101~8~0.0~0.0~1092.9~1329.1~546.5~0.0~15~0.0~0.0~0.0~0.0~0~0.0~0.0~0.0~0.0~0~0.0~0.0~0.0~90.0~1330.0~1093.0*
%ADD101D101*%
%ADD102C,0.121100*%
%LNbenchypowersupplypcb-1*%
%LPD*%
G36*
X2117Y4618D02*
X2117Y4618D01*
X2117Y4618*
X2117Y4618*
X2118Y4618*
X2118Y4618*
X2118Y4617*
X2118Y4617*
Y4581*
Y4555*
X2118Y4555*
X2118Y4554*
X2118Y4554*
X2117Y4554*
X2117Y4554*
X2117Y4554*
X2117Y4554*
X2116Y4554*
X1987*
X1986Y4554*
X1986Y4554*
X1986Y4554*
X1985Y4554*
X1985Y4554*
X1985Y4554*
X1985Y4555*
X1985Y4555*
Y4571*
X1985Y4571*
X1985Y4571*
X1985Y4572*
X1985Y4572*
X1986Y4572*
X1986Y4572*
X1986Y4572*
X1987Y4572*
X2022*
Y4617*
X2022Y4617*
X2023Y4618*
X2023Y4618*
X2023Y4618*
X2023Y4618*
X2023Y4618*
X2024Y4618*
X2024Y4619*
X2038*
X2038Y4618*
X2038Y4618*
X2039Y4618*
X2039Y4618*
X2039Y4618*
X2039Y4618*
X2039Y4617*
X2039Y4617*
Y4582*
X2042*
Y4617*
X2042Y4617*
X2042Y4618*
X2042Y4618*
X2043Y4618*
X2043Y4618*
X2043Y4618*
X2043Y4618*
X2044Y4619*
X2057*
X2058Y4618*
X2058Y4618*
X2058Y4618*
X2058Y4618*
X2059Y4618*
X2059Y4618*
X2059Y4617*
X2059Y4617*
Y4582*
X2062*
Y4617*
X2062Y4617*
X2062Y4618*
X2062Y4618*
X2062Y4618*
X2062Y4618*
X2063Y4618*
X2063Y4618*
X2063Y4619*
X2077*
X2077Y4618*
X2078Y4618*
X2078Y4618*
X2078Y4618*
X2078Y4618*
X2078Y4618*
X2079Y4617*
X2079Y4617*
Y4582*
X2081*
Y4617*
X2081Y4617*
X2082Y4618*
X2082Y4618*
X2082Y4618*
X2082Y4618*
X2082Y4618*
X2083Y4618*
X2083Y4619*
X2097*
X2097Y4618*
X2097Y4618*
X2098Y4618*
X2098Y4618*
X2098Y4618*
X2098Y4618*
X2098Y4617*
X2098Y4617*
Y4582*
X2101*
Y4617*
X2101Y4617*
X2101Y4618*
X2101Y4618*
X2102Y4618*
X2102Y4618*
X2102Y4618*
X2102Y4618*
X2103Y4619*
X2116*
X2117Y4618*
G37*
G36*
X2146Y4618D02*
X2146Y4617D01*
X2147Y4617*
X2147Y4617*
X2147Y4617*
X2147Y4617*
X2147Y4616*
X2147Y4616*
Y4569*
Y4543*
X2176*
X2177Y4543*
X2177Y4543*
X2177Y4542*
X2177Y4542*
X2178Y4542*
X2178Y4542*
X2178Y4542*
X2178Y4541*
Y4518*
X2178Y4517*
X2178Y4517*
X2178Y4517*
X2177Y4517*
X2177Y4516*
X2177Y4516*
X2177Y4516*
X2176Y4516*
X2132*
X2132Y4516*
X2131Y4516*
X2131Y4516*
X2131Y4517*
X2131Y4517*
X2131Y4517*
X2131Y4517*
X2131Y4518*
Y4616*
X2131Y4616*
X2131Y4617*
X2131Y4617*
X2131Y4617*
X2131Y4617*
X2131Y4617*
X2132Y4618*
X2132Y4618*
X2146*
X2146Y4618*
G37*
G36*
X2259Y4564D02*
X2260Y4564D01*
X2260Y4564*
X2260Y4564*
X2260Y4564*
X2261Y4563*
X2261Y4563*
X2261Y4563*
Y4421*
X2261Y4421*
X2261Y4421*
X2260Y4420*
X2260Y4420*
X2260Y4420*
X2260Y4420*
X2259Y4420*
X2259Y4420*
X2186*
X2186Y4420*
X2186Y4420*
X2185Y4420*
X2185Y4420*
X2185Y4420*
X2185Y4421*
X2185Y4421*
X2185Y4421*
Y4460*
X1986*
X1986Y4460*
X1986Y4460*
X1986Y4460*
X1985Y4460*
X1985Y4461*
X1985Y4461*
X1985Y4461*
X1985Y4461*
Y4485*
X1985Y4485*
X1985Y4485*
X1985Y4485*
X1985Y4486*
X1985Y4486*
X1985Y4486*
X1985Y4486*
X1985Y4486*
X1986Y4486*
X1986Y4486*
X1986Y4486*
X1986Y4486*
X1986Y4486*
X1986Y4486*
X2017Y4486*
Y4518*
X1987*
X1986Y4518*
X1986Y4518*
X1986Y4518*
X1985Y4519*
X1985Y4519*
X1985Y4519*
X1985Y4519*
X1985Y4520*
Y4543*
X1985Y4543*
X1985Y4544*
X1985Y4544*
X1985Y4544*
X1986Y4544*
X1986Y4545*
X1986Y4545*
X1987Y4545*
X2108*
X2108Y4545*
X2108Y4545*
X2108Y4544*
X2109Y4544*
X2109Y4544*
X2109Y4544*
X2109Y4543*
X2109Y4543*
Y4501*
X2185*
Y4563*
X2185Y4563*
X2185Y4563*
X2185Y4564*
X2185Y4564*
X2185Y4564*
X2186Y4564*
X2186Y4564*
X2186Y4564*
X2259*
X2259Y4564*
G37*
G36*
X2165Y4449D02*
X2165Y4449D01*
X2166Y4449*
X2166Y4449*
X2166Y4449*
X2166Y4448*
X2166Y4448*
X2166Y4448*
Y4423*
X2166Y4422*
X2166Y4422*
X2166Y4422*
X2166Y4422*
X2166Y4421*
X2165Y4421*
X2165Y4421*
X2165Y4421*
X2145*
Y4389*
Y4368*
X2145Y4367*
X2145Y4367*
X2145Y4367*
X2145Y4367*
X2145Y4366*
X2145Y4366*
X2144Y4366*
X2144Y4366*
X2123*
X2122Y4366*
X2122Y4366*
X2122Y4366*
X2121Y4367*
X2121Y4367*
X2121Y4367*
X2121Y4367*
X2121Y4368*
Y4387*
X2097*
Y4368*
X2097Y4367*
X2097Y4367*
X2097Y4367*
X2097Y4367*
X2097Y4366*
X2096Y4366*
X2096Y4366*
X2096Y4366*
X2073*
X2073Y4366*
X2073Y4366*
X2072Y4366*
X2072Y4367*
X2072Y4367*
X2072Y4367*
X2072Y4367*
X2072Y4368*
Y4387*
X2047*
Y4368*
X2047Y4367*
X2047Y4367*
X2047Y4367*
X2047Y4367*
X2047Y4366*
X2046Y4366*
X2046Y4366*
X2046Y4366*
X2024*
X2024Y4366*
X2023Y4366*
X2023Y4366*
X2023Y4367*
X2023Y4367*
X2023Y4367*
X2022Y4367*
X2022Y4368*
Y4389*
Y4434*
X1986*
X1986Y4434*
X1986Y4434*
X1985Y4434*
X1985Y4434*
X1985Y4435*
X1985Y4435*
X1985Y4435*
X1985Y4436*
Y4448*
X1985Y4448*
X1985Y4448*
X1985Y4449*
X1985Y4449*
X1985Y4449*
X1986Y4449*
X1986Y4449*
X1986Y4449*
X2165*
X2165Y4449*
G37*
G54D58*
X2035Y4368D03*
G54D59*
X2159Y4394D03*
X2178D03*
X2198D03*
X2218D03*
X2237D03*
X2257D03*
Y4591D03*
X2237D03*
X2218D03*
X2198D03*
X2178D03*
X2159D03*
G54D60*
X2288Y4413D03*
Y4433D03*
Y4453D03*
Y4472D03*
Y4492D03*
Y4512D03*
Y4531D03*
Y4551D03*
Y4571D03*
G54D61*
X351Y1496D03*
X278D03*
X351Y1377D03*
X278D03*
X351Y1259D03*
X278D03*
X351Y1141D03*
X278D03*
X351Y1023D03*
X278D03*
X351Y905D03*
X278D03*
X351Y787D03*
X278D03*
X351Y669D03*
X278D03*
G54D62*
X1138Y4255D03*
X1254D03*
X3010Y2106D03*
X2894D03*
X1254Y4133D03*
X1138D03*
X2238Y4123D03*
X2122D03*
X2238Y3995D03*
X2122D03*
G54D63*
X2681Y1825D03*
Y1788D03*
X1161Y1278D03*
Y1240D03*
X1791Y1554D03*
Y1516D03*
X1830Y1554D03*
Y1516D03*
X1387Y1085D03*
Y1048D03*
G54D64*
X2598Y1829D03*
Y1713D03*
X1377Y5038D03*
Y4922D03*
X1515Y5038D03*
Y4922D03*
X1240Y5038D03*
Y4922D03*
X1299Y4481D03*
Y4597D03*
X1425Y4481D03*
Y4597D03*
X1551Y4481D03*
Y4597D03*
X1677Y4481D03*
Y4597D03*
X1102Y5038D03*
Y4922D03*
G54D65*
X276Y2781D03*
X352Y2494D03*
X276D03*
X352Y2781D03*
G54D66*
X383Y2549D03*
Y2608D03*
Y2726D03*
G54D67*
X512Y1791D03*
X472D03*
X2794Y905D03*
X2834D03*
X2794Y1003D03*
X2834D03*
X2794Y1102D03*
X2834D03*
X2795Y1200D03*
X2835D03*
X2795Y1299D03*
X2835D03*
X440Y2608D03*
X480D03*
X964Y1350D03*
X1004D03*
X1054Y1137D03*
X1094D03*
X2016Y1523D03*
X1976D03*
X2016Y1484D03*
X1976D03*
X2396Y4418D03*
X2436D03*
X2396Y4458D03*
X2436D03*
X2396Y4536D03*
X2436D03*
X2396Y4497D03*
X2436D03*
Y4576D03*
X2396D03*
G54D68*
X549Y1791D03*
X631D03*
G54D69*
X1122Y1290D03*
Y1229D03*
X964Y1298D03*
Y1237D03*
X1338Y1073D03*
Y1012D03*
X1181Y1172D03*
Y1111D03*
G54D70*
X1075Y1299D03*
X1010D03*
G54D71*
X1339Y1673D03*
X1377D03*
X1266Y1574D03*
X1229D03*
X1668Y1086D03*
X1630D03*
G54D72*
X1122Y1484D03*
Y1437D03*
Y1389D03*
G54D73*
X828Y1491D03*
X1005D03*
X828Y1406D03*
X1005D03*
G54D74*
X1299Y1063D03*
Y1023D03*
X1259D03*
Y1063D03*
X1141Y1161D03*
Y1121D03*
X1732Y1870D03*
Y1830D03*
X1220Y1141D03*
Y1181D03*
X1259D03*
Y1141D03*
X1692Y1870D03*
Y1830D03*
X2385Y4739D03*
Y4779D03*
X1653Y1830D03*
Y1870D03*
X2416Y4699D03*
Y4739D03*
G54D75*
X1272Y1525D03*
Y1505D03*
Y1486D03*
Y1466D03*
Y1446D03*
Y1427D03*
Y1407D03*
Y1387D03*
Y1368D03*
Y1348D03*
Y1328D03*
Y1309D03*
Y1289D03*
Y1269D03*
Y1250D03*
Y1230D03*
X1719D03*
Y1250D03*
Y1269D03*
Y1289D03*
Y1309D03*
Y1328D03*
Y1348D03*
Y1368D03*
Y1387D03*
Y1407D03*
Y1427D03*
Y1446D03*
Y1466D03*
Y1486D03*
Y1505D03*
Y1525D03*
G54D76*
X1348Y1154D03*
X1368D03*
X1387D03*
X1407D03*
X1427D03*
X1446D03*
X1466D03*
X1486D03*
X1505D03*
X1525D03*
X1545D03*
X1564D03*
X1584D03*
X1604D03*
X1624D03*
X1643D03*
Y1601D03*
X1624D03*
X1604D03*
X1584D03*
X1564D03*
X1545D03*
X1525D03*
X1505D03*
X1486D03*
X1466D03*
X1446D03*
X1427D03*
X1407D03*
X1387D03*
X1368D03*
X1348D03*
G54D77*
X1458Y2401D03*
X1408D03*
X1358D03*
X1308D03*
X1258D03*
Y2351D03*
X1308D03*
X1358D03*
X1408D03*
X1458D03*
G54D78*
X2998Y1799D03*
Y1889D03*
Y1980D03*
G54D79*
X2750Y1889D03*
G54D80*
X1686Y4844D03*
X2042Y4842D03*
G54D81*
X2259Y4770D03*
Y4732D03*
G54D82*
X627Y4763D03*
X840D03*
X1704Y3937D03*
X1917D03*
X1704Y4251D03*
X1917D03*
G54D83*
X1783Y4554D03*
Y4579D03*
G54D84*
X2193Y4349D03*
X2168D03*
G54D85*
X2175Y4290D03*
X2137D03*
G54D86*
X2123Y4231D03*
X2198D03*
G54D87*
X2200Y4745D03*
Y4820D03*
X2318Y4745D03*
Y4820D03*
G54D88*
X531Y3385D03*
X984D03*
Y2834D03*
X977Y4202D03*
G54D89*
X366Y3385D03*
X531Y3602D03*
X366D03*
X818Y3385D03*
X984Y3602D03*
X818D03*
Y3051D03*
X984D03*
X818Y2834D03*
X812Y4202D03*
X647D03*
X481D03*
X977Y4418D03*
X812D03*
X647D03*
X481D03*
G54D90*
X2027Y3031D03*
X1712D03*
X1397D03*
X2952Y905D03*
X314Y1791D03*
G54D91*
X2027Y2933D03*
Y2834D03*
X1712Y2933D03*
Y2834D03*
X1397Y2933D03*
Y2834D03*
X2952Y1003D03*
Y1102D03*
Y1200D03*
Y1299D03*
Y1397D03*
X314Y1889D03*
Y1988D03*
Y2086D03*
Y2185D03*
Y2283D03*
G54D92*
X1791Y2027D03*
G54D93*
X1692Y2027D03*
G54D94*
X314Y2578D03*
Y2696D03*
G54D95*
X2460Y570D03*
X2362D03*
X2263D03*
X2165D03*
X2066D03*
X1968D03*
X1870D03*
X1771D03*
X1673D03*
X1574D03*
X1476D03*
G54D96*
X1377Y570D03*
G54D97*
X1208Y2416D03*
Y2336D03*
X1508Y2376D03*
G54D98*
X1508Y2276D03*
X1283Y2476D03*
Y2276D03*
X1508Y2476D03*
G54D99*
X2992Y472D03*
X334Y452D03*
Y5078D03*
X3011D03*
G54D100*
X2456Y2240D03*
G54D101*
X2456Y2405D03*
Y2570D03*
Y2736D03*
Y2901D03*
Y3066D03*
Y3232D03*
Y3397D03*
Y3562D03*
Y3728D03*
Y3893D03*
Y4059D03*
X2673Y2240D03*
Y2405D03*
Y2570D03*
Y2736D03*
Y2901D03*
Y3066D03*
Y3232D03*
Y3397D03*
Y3562D03*
Y3728D03*
Y3893D03*
Y4059D03*
G54D102*
X1163Y4400D03*
X296D03*
M02*