%FSLAX23Y23*%
%MOIN*%
%SFA1B1*%

%IPPOS*%
%ADD11C,0.003940*%
%ADD14C,0.007870*%
%LNbenchypowersupplypcb-1*%
%LPD*%
G54D11*
X305Y1128D02*
X309D01*
X305Y1508D02*
X309D01*
X305Y1483D02*
X309D01*
X305Y1272D02*
X309D01*
X305Y1010D02*
X309D01*
X305Y682D02*
X309D01*
X305Y656D02*
X309D01*
X305Y1036D02*
X309D01*
X305Y1247D02*
X309D01*
X305Y1390D02*
X309D01*
X305Y1365D02*
X309D01*
X305Y1154D02*
X309D01*
X305Y892D02*
X309D01*
X305Y800D02*
X309D01*
X305Y774D02*
X309D01*
X305Y918D02*
X309D01*
G54D14*
X388Y712D02*
Y751D01*
X368*
X361Y744*
Y731*
X368Y725*
X388*
X374D02*
X361Y712D01*
X348Y744D02*
X342Y751D01*
X328*
X322Y744*
Y738*
X328Y731*
X335*
X328*
X322Y725*
Y718*
X328Y712*
X342*
X348Y718*
X283Y712D02*
X309D01*
X283Y738*
Y744*
X289Y751*
X302*
X309Y744*
X375Y830D02*
Y869D01*
X355*
X348Y862*
Y849*
X355Y843*
X375*
X361D02*
X348Y830D01*
X335Y862D02*
X329Y869D01*
X315*
X309Y862*
Y856*
X315Y849*
X322*
X315*
X309Y843*
Y836*
X315Y830*
X329*
X335Y836*
X296Y830D02*
X283D01*
X289*
Y869*
X296Y862*
X388Y948D02*
Y987D01*
X368*
X361Y980*
Y967*
X368Y961*
X388*
X374D02*
X361Y948D01*
X348Y980D02*
X342Y987D01*
X328*
X322Y980*
Y974*
X328Y967*
X335*
X328*
X322Y961*
Y954*
X328Y948*
X342*
X348Y954*
X309Y980D02*
X302Y987D01*
X289*
X283Y980*
Y954*
X289Y948*
X302*
X309Y954*
Y980*
X388Y1066D02*
Y1105D01*
X368*
X361Y1098*
Y1085*
X368Y1079*
X388*
X374D02*
X361Y1066D01*
X322D02*
X348D01*
X322Y1092*
Y1098*
X328Y1105*
X342*
X348Y1098*
X309Y1072D02*
X302Y1066D01*
X289*
X283Y1072*
Y1098*
X289Y1105*
X302*
X309Y1098*
Y1092*
X302Y1085*
X283*
X388Y1302D02*
Y1341D01*
X368*
X361Y1334*
Y1321*
X368Y1315*
X388*
X374D02*
X361Y1302D01*
X322D02*
X348D01*
X322Y1328*
Y1334*
X328Y1341*
X342*
X348Y1334*
X309D02*
X302Y1341D01*
X289*
X283Y1334*
Y1328*
X289Y1321*
X283Y1315*
Y1308*
X289Y1302*
X302*
X309Y1308*
Y1315*
X302Y1321*
X309Y1328*
Y1334*
X302Y1321D02*
X289D01*
X388Y1421D02*
Y1460D01*
X368*
X361Y1453*
Y1440*
X368Y1434*
X388*
X374D02*
X361Y1421D01*
X322D02*
X348D01*
X322Y1447*
Y1453*
X328Y1460*
X342*
X348Y1453*
X309Y1460D02*
X283D01*
Y1453*
X309Y1427*
Y1421*
X388Y1539D02*
Y1578D01*
X368*
X361Y1571*
Y1558*
X368Y1552*
X388*
X374D02*
X361Y1539D01*
X322D02*
X348D01*
X322Y1565*
Y1571*
X328Y1578*
X342*
X348Y1571*
X283Y1578D02*
X296Y1571D01*
X309Y1558*
Y1545*
X302Y1539*
X289*
X283Y1545*
Y1552*
X289Y1558*
X309*
X388Y1184D02*
Y1223D01*
X368*
X361Y1216*
Y1203*
X368Y1197*
X388*
X374D02*
X361Y1184D01*
X348Y1216D02*
X342Y1223D01*
X328*
X322Y1216*
Y1210*
X328Y1203*
X335*
X328*
X322Y1197*
Y1190*
X328Y1184*
X342*
X348Y1190*
X309Y1216D02*
X302Y1223D01*
X289*
X283Y1216*
Y1210*
X289Y1203*
X296*
X289*
X283Y1197*
Y1190*
X289Y1184*
X302*
X309Y1190*
M02*