%FSLAX23Y23*%
%MOIN*%
%SFA1B1*%

%IPPOS*%
%AMD116*
4,1,8,-0.048400,-0.065000,0.048400,-0.065000,0.053100,-0.060200,0.053100,0.060200,0.048400,0.065000,-0.048400,0.065000,-0.053100,0.060200,-0.053100,-0.060200,-0.048400,-0.065000,0.0*
1,1,0.009560,-0.048400,-0.060200*
1,1,0.009560,0.048400,-0.060200*
1,1,0.009560,0.048400,0.060200*
1,1,0.009560,-0.048400,0.060200*
%
%AMD117*
4,1,8,0.000000,-0.065000,0.000000,-0.065000,0.053100,-0.011800,0.053100,0.011800,0.000000,0.065000,0.000000,0.065000,-0.053100,0.011800,-0.053100,-0.011800,0.000000,-0.065000,0.0*
1,1,0.106300,0.000000,-0.011800*
1,1,0.106300,0.000000,-0.011800*
1,1,0.106300,0.000000,0.011800*
1,1,0.106300,0.000000,0.011800*
%
%AMD118*
4,1,8,0.038400,-0.028400,0.038400,0.028400,0.033400,0.033500,-0.033400,0.033500,-0.038400,0.028400,-0.038400,-0.028400,-0.033400,-0.033500,0.033400,-0.033500,0.038400,-0.028400,0.0*
1,1,0.010040,0.033400,-0.028400*
1,1,0.010040,0.033400,0.028400*
1,1,0.010040,-0.033400,0.028400*
1,1,0.010040,-0.033400,-0.028400*
%
%AMD119*
4,1,8,0.038400,0.000000,0.038400,0.000000,0.004900,0.033500,-0.004900,0.033500,-0.038400,0.000000,-0.038400,0.000000,-0.004900,-0.033500,0.004900,-0.033500,0.038400,0.000000,0.0*
1,1,0.066940,0.004900,0.000000*
1,1,0.066940,0.004900,0.000000*
1,1,0.066940,-0.004900,0.000000*
1,1,0.066940,-0.004900,0.000000*
%
%AMD120*
4,1,8,0.000000,0.039400,0.000000,0.039400,-0.033500,0.005900,-0.033500,-0.005900,0.000000,-0.039400,0.000000,-0.039400,0.033500,-0.005900,0.033500,0.005900,0.000000,0.039400,0.0*
1,1,0.066940,0.000000,0.005900*
1,1,0.066940,0.000000,0.005900*
1,1,0.066940,0.000000,-0.005900*
1,1,0.066940,0.000000,-0.005900*
%
%AMD121*
4,1,8,0.028400,0.039400,-0.028400,0.039400,-0.033500,0.034300,-0.033500,-0.034300,-0.028400,-0.039400,0.028400,-0.039400,0.033500,-0.034300,0.033500,0.034300,0.028400,0.039400,0.0*
1,1,0.010040,0.028400,0.034300*
1,1,0.010040,-0.028400,0.034300*
1,1,0.010040,-0.028400,-0.034300*
1,1,0.010040,0.028400,-0.034300*
%
%AMD123*
4,1,8,0.000000,0.038400,0.000000,0.038400,-0.033500,0.004900,-0.033500,-0.004900,0.000000,-0.038400,0.000000,-0.038400,0.033500,-0.004900,0.033500,0.004900,0.000000,0.038400,0.0*
1,1,0.066940,0.000000,0.004900*
1,1,0.066940,0.000000,0.004900*
1,1,0.066940,0.000000,-0.004900*
1,1,0.066940,0.000000,-0.004900*
%
%AMD124*
4,1,8,0.028400,0.038400,-0.028400,0.038400,-0.033500,0.033400,-0.033500,-0.033400,-0.028400,-0.038400,0.028400,-0.038400,0.033500,-0.033400,0.033500,0.033400,0.028400,0.038400,0.0*
1,1,0.010040,0.028400,0.033400*
1,1,0.010040,-0.028400,0.033400*
1,1,0.010040,-0.028400,-0.033400*
1,1,0.010040,0.028400,-0.033400*
%
%AMD128*
4,1,8,-0.065000,0.048400,-0.065000,-0.048400,-0.060200,-0.053100,0.060200,-0.053100,0.065000,-0.048400,0.065000,0.048400,0.060200,0.053100,-0.060200,0.053100,-0.065000,0.048400,0.0*
1,1,0.009560,-0.060200,0.048400*
1,1,0.009560,-0.060200,-0.048400*
1,1,0.009560,0.060200,-0.048400*
1,1,0.009560,0.060200,0.048400*
%
%AMD129*
4,1,8,-0.065000,0.000000,-0.065000,0.000000,-0.011800,-0.053100,0.011800,-0.053100,0.065000,0.000000,0.065000,0.000000,0.011800,0.053100,-0.011800,0.053100,-0.065000,0.000000,0.0*
1,1,0.106300,-0.011800,0.000000*
1,1,0.106300,-0.011800,0.000000*
1,1,0.106300,0.011800,0.000000*
1,1,0.106300,0.011800,0.000000*
%
%ADD13C,0.011810*%
%ADD14C,0.007870*%
%ADD37R,0.020000X0.022000*%
%ADD108C,0.005910*%
%ADD109C,0.009840*%
%ADD110C,0.017720*%
%ADD111C,0.008660*%
%ADD112C,0.039370*%
%ADD113C,0.019680*%
G04~CAMADD=116~8~0.0~0.0~1063.0~1299.2~47.8~0.0~15~0.0~0.0~0.0~0.0~0~0.0~0.0~0.0~0.0~0~0.0~0.0~0.0~180.0~1063.0~1299.0*
%ADD116D116*%
G04~CAMADD=117~8~0.0~0.0~1063.0~1299.2~531.5~0.0~15~0.0~0.0~0.0~0.0~0~0.0~0.0~0.0~0.0~0~0.0~0.0~0.0~180.0~1064.0~1299.0*
%ADD117D117*%
G04~CAMADD=118~8~0.0~0.0~669.3~767.7~50.2~0.0~15~0.0~0.0~0.0~0.0~0~0.0~0.0~0.0~0.0~0~0.0~0.0~0.0~270.0~768.0~670.0*
%ADD118D118*%
G04~CAMADD=119~8~0.0~0.0~669.3~767.7~334.7~0.0~15~0.0~0.0~0.0~0.0~0~0.0~0.0~0.0~0.0~0~0.0~0.0~0.0~270.0~768.0~670.0*
%ADD119D119*%
G04~CAMADD=120~8~0.0~0.0~669.3~787.4~334.7~0.0~15~0.0~0.0~0.0~0.0~0~0.0~0.0~0.0~0.0~0~0.0~0.0~0.0~0.0~669.3~787.4*
%ADD120D120*%
G04~CAMADD=121~8~0.0~0.0~669.3~787.4~50.2~0.0~15~0.0~0.0~0.0~0.0~0~0.0~0.0~0.0~0.0~0~0.0~0.0~0.0~0.0~669.3~787.4*
%ADD121D121*%
%ADD122C,0.035430*%
G04~CAMADD=123~8~0.0~0.0~669.3~767.7~334.7~0.0~15~0.0~0.0~0.0~0.0~0~0.0~0.0~0.0~0.0~0~0.0~0.0~0.0~0.0~669.3~767.7*
%ADD123D123*%
G04~CAMADD=124~8~0.0~0.0~669.3~767.7~50.2~0.0~15~0.0~0.0~0.0~0.0~0~0.0~0.0~0.0~0.0~0~0.0~0.0~0.0~0.0~669.3~767.7*
%ADD124D124*%
%ADD125C,0.039000*%
%ADD126C,0.093500*%
%ADD127C,0.224410*%
G04~CAMADD=128~8~0.0~0.0~1063.0~1299.2~47.8~0.0~15~0.0~0.0~0.0~0.0~0~0.0~0.0~0.0~0.0~0~0.0~0.0~0.0~90.0~1300.0~1062.0*
%ADD128D128*%
G04~CAMADD=129~8~0.0~0.0~1063.0~1299.2~531.5~0.0~15~0.0~0.0~0.0~0.0~0~0.0~0.0~0.0~0.0~0~0.0~0.0~0.0~90.0~1300.0~1063.0*
%ADD129D129*%
%ADD130C,0.118110*%
%ADD131C,0.017720*%
%ADD132C,0.018900*%
%LNbenchypowersupplypcb-1*%
%LPD*%
G36*
X3140Y323D02*
X205D01*
Y5207*
X3140*
Y323*
G37*
%LNbenchypowersupplypcb-2*%
%LPC*%
G36*
X834Y4949D02*
X834Y4949D01*
X834Y4949*
X823Y4948*
X822Y4948*
X803Y4943*
X802Y4943*
X783Y4934*
X782Y4934*
X766Y4922*
X765Y4921*
X752Y4906*
X751Y4905*
X741Y4888*
X740Y4887*
X733Y4868*
X733Y4867*
X730Y4847*
X730Y4846*
X730Y4836*
Y4149*
Y4149*
Y4145*
X730Y4144*
X732Y4137*
X732Y4136*
X735Y4130*
X735Y4129*
X739Y4123*
X740Y4122*
X745Y4117*
X745Y4117*
X751Y4113*
X752Y4112*
X759Y4110*
X759Y4110*
X766Y4108*
X767Y4108*
X771*
X1019*
X1019Y4108*
X1019Y4108*
X1024Y4108*
X1024Y4108*
X1025Y4108*
X1031Y4110*
X1032Y4110*
X1039Y4113*
X1040Y4113*
Y4113*
X1047Y4118*
X1047Y4118*
X1053Y4124*
X1054Y4125*
X1058Y4131*
X1058Y4132*
X1061Y4139*
X1062Y4140*
X1063Y4148*
X1063Y4149*
Y4152*
Y4487*
X1064Y4495*
X1067Y4510*
X1072Y4524*
X1081Y4536*
X1092Y4547*
X1104Y4556*
X1118Y4561*
X1133Y4564*
X1141Y4565*
X1790*
X1792*
X1793Y4565*
X1794Y4565*
X1797Y4566*
X1798Y4567*
X1798Y4567*
X1799Y4567*
X1801Y4570*
X1801Y4570*
X1802Y4571*
X1803Y4574*
X1803Y4575*
X1803Y4576*
Y4578*
Y4632*
Y4637*
X1803Y4637*
X1803Y4637*
X1803Y4637*
X1803Y4638*
X1803Y4638*
X1803Y4638*
X1802Y4643*
X1802Y4643*
X1802Y4643*
X1802Y4643*
X1802Y4643*
X1801Y4644*
X1801Y4644*
X1801Y4644*
X1801Y4644*
X1801Y4645*
X1801Y4645*
X1799Y4647*
X1798Y4648*
X1797Y4648*
X1794Y4649*
X1793Y4650*
X1792Y4650*
X1790*
X1783*
X1781Y4650*
X1777Y4651*
X1774Y4654*
X1772Y4658*
X1772Y4661*
Y4920*
X1772Y4924*
X1772Y4925*
X1773Y4925*
X1772Y4925*
Y4925*
X1772Y4926*
X1772Y4926*
X1771Y4933*
X1771Y4934*
X1770Y4935*
X1766Y4941*
X1765Y4942*
X1764Y4943*
X1758Y4947*
X1757Y4948*
X1756Y4948*
X1752Y4949*
X1752*
X1752Y4949*
X1751Y4949*
X1751*
X834*
G37*
G36*
X2382Y4698D02*
X2380D01*
X2379Y4698*
X2377Y4698*
X2375Y4697*
X2374Y4696*
X2372Y4695*
X2371Y4694*
X2370Y4692*
X2369Y4691*
X2368Y4689*
X2368Y4687*
X2368Y4685*
Y4684*
X2368Y4683*
X2316Y4632*
X2262Y4686*
X2261Y4687*
X2260Y4688*
X2259Y4689*
X2257Y4689*
X2256Y4689*
X2207*
X2206Y4689*
X2205Y4690*
X2204Y4692*
X2202Y4692*
X2200Y4693*
X2199Y4694*
X2197Y4694*
X2195*
X2193Y4694*
X2192Y4693*
X2190Y4692*
X2188Y4692*
X2187Y4690*
X2186Y4689*
X2184Y4688*
X2184Y4686*
X2183Y4684*
X2182Y4683*
X2182Y4681*
Y4679*
X2182Y4677*
X2183Y4676*
X2184Y4674*
X2184Y4672*
X2186Y4671*
X2187Y4670*
X2188Y4668*
X2190Y4668*
X2192Y4667*
X2193Y4666*
X2195Y4666*
X2197*
X2199Y4666*
X2200Y4667*
X2202Y4668*
X2204Y4668*
X2205Y4670*
X2206Y4671*
X2207Y4671*
X2252*
X2308Y4615*
X2392Y4531*
Y4361*
X2370Y4339*
X2136*
X2136Y4339*
X2135Y4341*
X2133Y4342*
X2132Y4343*
X2130Y4343*
X2128Y4344*
X2126Y4344*
X2125*
X2123Y4344*
X2121Y4343*
X2119Y4343*
X2118Y4342*
X2116Y4341*
X2115Y4339*
X2114Y4338*
X2113Y4336*
X2112Y4335*
X2112Y4333*
X2112Y4331*
Y4329*
X2112Y4328*
X2112Y4326*
X2113Y4324*
X2114Y4322*
X2115Y4321*
X2116Y4320*
X2118Y4319*
X2119Y4318*
X2121Y4317*
X2123Y4317*
X2125Y4316*
X2126*
X2128Y4317*
X2130Y4317*
X2132Y4318*
X2133Y4319*
X2135Y4320*
X2136Y4321*
X2136Y4321*
X2374*
X2375Y4321*
X2376Y4322*
X2378Y4322*
X2379Y4323*
X2380Y4324*
X2407Y4351*
X2408Y4353*
X2409Y4354*
X2410Y4355*
X2410Y4356*
X2410Y4358*
Y4535*
X2410Y4536*
X2410Y4538*
X2409Y4539*
X2408Y4540*
X2407Y4541*
X2329Y4620*
X2380Y4671*
X2380Y4671*
X2382*
X2384Y4671*
X2386Y4671*
X2388Y4672*
X2389Y4673*
X2391Y4674*
X2392Y4675*
X2393Y4677*
X2394Y4678*
X2395Y4680*
X2395Y4682*
X2395Y4684*
Y4685*
X2395Y4687*
X2395Y4689*
X2394Y4691*
X2393Y4692*
X2392Y4694*
X2391Y4695*
X2389Y4696*
X2388Y4697*
X2386Y4698*
X2384Y4698*
X2382Y4698*
G37*
G36*
X2944Y4590D02*
X2942D01*
X2940Y4589*
X2939Y4589*
X2937Y4588*
X2935Y4587*
X2935Y4587*
X2469*
X2468Y4587*
X2467Y4588*
X2465Y4589*
X2463Y4589*
X2462Y4590*
X2460*
X2458Y4589*
X2456Y4589*
X2455Y4588*
X2453Y4587*
X2452Y4586*
X2450Y4585*
X2449Y4583*
X2448Y4582*
X2448Y4580*
X2447Y4578*
X2447Y4577*
Y4575*
X2447Y4573*
X2448Y4571*
X2448Y4570*
X2449Y4568*
X2450Y4567*
X2452Y4565*
X2453Y4564*
X2455Y4563*
X2456Y4563*
X2458Y4562*
X2460Y4562*
X2462*
X2463Y4562*
X2465Y4563*
X2467Y4563*
X2468Y4564*
X2469Y4565*
X2935*
X2935Y4564*
X2937Y4563*
X2939Y4563*
X2940Y4562*
X2942Y4562*
X2944*
X2946Y4562*
X2947Y4563*
X2949Y4563*
X2951Y4564*
X2952Y4565*
X2953Y4567*
X2955Y4568*
X2955Y4570*
X2956Y4571*
X2957Y4573*
X2957Y4575*
Y4577*
X2957Y4578*
X2956Y4580*
X2955Y4582*
X2955Y4583*
X2953Y4585*
X2952Y4586*
X2951Y4587*
X2949Y4588*
X2947Y4589*
X2946Y4589*
X2944Y4590*
G37*
G36*
X1890Y4572D02*
X1888D01*
X1887Y4572*
X1885Y4572*
X1883Y4571*
X1882Y4570*
X1880Y4569*
X1879Y4568*
X1878Y4566*
X1877Y4565*
X1876Y4563*
X1876Y4561*
X1875Y4559*
Y4558*
X1876Y4556*
X1876Y4554*
X1876Y4554*
X1873Y4551*
X1873Y4551*
X1871Y4551*
X1870Y4552*
X1868*
X1866Y4551*
X1864Y4551*
X1863Y4550*
X1861Y4549*
X1860Y4548*
X1858Y4547*
X1857Y4545*
X1856Y4544*
X1856Y4542*
X1855Y4540*
X1855Y4539*
Y4537*
X1855Y4535*
X1856Y4533*
X1856Y4532*
X1857Y4530*
X1858Y4529*
X1860Y4527*
X1861Y4526*
X1863Y4525*
X1864Y4525*
X1866Y4524*
X1868Y4524*
X1870*
X1871Y4524*
X1961Y4434*
X1962Y4433*
X1964Y4432*
X1965Y4432*
X1967Y4432*
X2295*
X2330Y4397*
Y4394*
X2325Y4388*
X2324Y4387*
X2323Y4386*
X2322Y4384*
X2322Y4383*
Y4381*
X2321Y4380*
X2320Y4379*
X2319Y4377*
X2318Y4376*
X2317Y4374*
X2317Y4372*
X2316Y4370*
Y4369*
X2317Y4367*
X2317Y4365*
X2318Y4363*
X2319Y4362*
X2320Y4360*
X2321Y4359*
X2322Y4358*
X2324Y4357*
X2326Y4356*
X2328Y4356*
X2329Y4356*
X2331*
X2333Y4356*
X2335Y4356*
X2336Y4357*
X2338Y4358*
X2339Y4359*
X2341Y4360*
X2342Y4362*
X2343Y4363*
X2343Y4365*
X2344Y4367*
X2344Y4369*
Y4370*
X2344Y4372*
X2343Y4374*
X2343Y4376*
X2342Y4377*
X2341Y4379*
X2342Y4383*
X2343Y4385*
X2344Y4386*
X2345Y4387*
X2346Y4389*
X2346Y4390*
Y4398*
X2350Y4400*
X2358Y4392*
Y4381*
X2356Y4380*
X2355Y4379*
X2354Y4377*
X2353Y4376*
X2352Y4374*
X2352Y4372*
X2352Y4370*
Y4369*
X2352Y4367*
X2352Y4365*
X2353Y4363*
X2354Y4362*
X2355Y4360*
X2356Y4359*
X2358Y4358*
X2360Y4357*
X2361Y4356*
X2363Y4356*
X2365Y4356*
X2367*
X2368Y4356*
X2370Y4356*
X2372Y4357*
X2373Y4358*
X2375Y4359*
X2376Y4360*
X2377Y4362*
X2378Y4363*
X2379Y4365*
X2379Y4367*
X2380Y4369*
Y4370*
X2379Y4372*
X2379Y4374*
X2378Y4376*
X2377Y4377*
X2376Y4379*
X2375Y4380*
X2374Y4381*
Y4395*
X2373Y4396*
X2373Y4398*
X2372Y4399*
X2371Y4400*
X2311Y4461*
X2309Y4462*
X2308Y4463*
X2306Y4463*
X2305Y4464*
X1989*
X1946Y4506*
Y4509*
X1946Y4511*
X1946Y4512*
X1945Y4514*
X1944Y4515*
X1903Y4556*
X1903Y4558*
Y4559*
X1903Y4561*
X1902Y4563*
X1902Y4565*
X1901Y4566*
X1900Y4568*
X1898Y4569*
X1897Y4570*
X1895Y4571*
X1894Y4572*
X1892Y4572*
X1890Y4572*
G37*
G36*
X1165Y4464D02*
X1160D01*
X1156Y4464*
X1152Y4463*
X1148Y4463*
X1144Y4461*
X1140Y4460*
X1136Y4458*
X1132Y4457*
X1129Y4455*
X1125Y4452*
X1122Y4450*
X1119Y4447*
X1116Y4444*
X1113Y4441*
X1110Y4437*
X1108Y4434*
X1106Y4430*
X1104Y4427*
X1103Y4423*
X1101Y4419*
X1100Y4415*
X1099Y4411*
X1099Y4406*
X1098Y4402*
Y4398*
X1099Y4394*
X1099Y4390*
X1100Y4386*
X1101Y4381*
X1103Y4378*
X1104Y4374*
X1106Y4370*
X1108Y4366*
X1110Y4363*
X1113Y4359*
X1116Y4356*
X1119Y4353*
X1122Y4351*
X1125Y4348*
X1129Y4346*
X1132Y4344*
X1136Y4342*
X1140Y4340*
X1144Y4339*
X1148Y4338*
X1152Y4337*
X1156Y4336*
X1160Y4336*
X1165*
X1169Y4336*
X1173Y4337*
X1177Y4338*
X1181Y4339*
X1185Y4340*
X1189Y4342*
X1193Y4344*
X1196Y4346*
X1200Y4348*
X1203Y4351*
X1206Y4353*
X1209Y4356*
X1212Y4359*
X1215Y4363*
X1217Y4366*
X1219Y4370*
X1221Y4374*
X1223Y4378*
X1224Y4381*
X1225Y4386*
X1226Y4390*
X1226Y4394*
X1227Y4398*
Y4402*
X1226Y4406*
X1226Y4411*
X1225Y4415*
X1224Y4419*
X1223Y4423*
X1221Y4427*
X1219Y4430*
X1217Y4434*
X1215Y4437*
X1212Y4441*
X1209Y4444*
X1206Y4447*
X1203Y4450*
X1200Y4452*
X1196Y4455*
X1193Y4457*
X1189Y4458*
X1185Y4460*
X1181Y4461*
X1177Y4463*
X1173Y4463*
X1169Y4464*
X1165Y4464*
G37*
G36*
X298D02*
X294D01*
X290Y4464*
X286Y4463*
X282Y4463*
X278Y4461*
X274Y4460*
X270Y4458*
X266Y4457*
X263Y4455*
X259Y4452*
X256Y4450*
X253Y4447*
X250Y4444*
X247Y4441*
X244Y4437*
X242Y4434*
X240Y4430*
X238Y4427*
X236Y4423*
X235Y4419*
X234Y4415*
X233Y4411*
X233Y4406*
X232Y4402*
Y4398*
X233Y4394*
X233Y4390*
X234Y4386*
X235Y4381*
X236Y4378*
X238Y4374*
X240Y4370*
X242Y4366*
X244Y4363*
X247Y4359*
X250Y4356*
X253Y4353*
X256Y4351*
X259Y4348*
X263Y4346*
X266Y4344*
X270Y4342*
X274Y4340*
X278Y4339*
X282Y4338*
X286Y4337*
X290Y4336*
X294Y4336*
X298*
X303Y4336*
X307Y4337*
X311Y4338*
X315Y4339*
X319Y4340*
X323Y4342*
X327Y4344*
X330Y4346*
X334Y4348*
X337Y4351*
X340Y4353*
X343Y4356*
X346Y4359*
X348Y4363*
X351Y4366*
X353Y4370*
X355Y4374*
X356Y4378*
X358Y4381*
X359Y4386*
X360Y4390*
X360Y4394*
X360Y4398*
Y4402*
X360Y4406*
X360Y4411*
X359Y4415*
X358Y4419*
X356Y4423*
X355Y4427*
X353Y4430*
X351Y4434*
X348Y4437*
X346Y4441*
X343Y4444*
X340Y4447*
X337Y4450*
X334Y4452*
X330Y4455*
X327Y4457*
X323Y4458*
X319Y4460*
X315Y4461*
X311Y4463*
X307Y4463*
X303Y4464*
X298Y4464*
G37*
G36*
X2468Y4117D02*
X2444D01*
X2440Y4117*
X2436Y4116*
X2432Y4115*
X2428Y4114*
X2424Y4113*
X2420Y4111*
X2417Y4110*
X2413Y4108*
X2410Y4105*
X2406Y4103*
X2403Y4100*
X2400Y4097*
X2398Y4093*
X2395Y4090*
X2393Y4086*
X2391Y4083*
X2390Y4079*
X2389Y4075*
X2388Y4071*
X2387Y4067*
X2386Y4063*
X2386Y4059*
X2386Y4054*
X2387Y4050*
X2388Y4046*
X2389Y4042*
X2390Y4038*
X2391Y4034*
X2393Y4031*
X2395Y4027*
X2398Y4024*
X2400Y4020*
X2403Y4017*
X2406Y4015*
X2410Y4012*
X2413Y4010*
X2417Y4007*
X2420Y4006*
X2424Y4004*
X2428Y4003*
X2432Y4002*
X2436Y4001*
X2440Y4001*
X2444Y4000*
X2468*
X2472Y4001*
X2476Y4001*
X2480Y4002*
X2484Y4003*
X2488Y4004*
X2492Y4006*
X2496Y4007*
X2499Y4010*
X2503Y4012*
X2506Y4015*
X2509Y4017*
X2512Y4020*
X2515Y4024*
X2517Y4027*
X2519Y4031*
X2521Y4034*
X2523Y4038*
X2524Y4042*
X2525Y4046*
X2526Y4050*
X2526Y4054*
X2526Y4059*
X2526Y4063*
X2526Y4067*
X2525Y4071*
X2524Y4075*
X2523Y4079*
X2521Y4083*
X2519Y4086*
X2517Y4090*
X2515Y4093*
X2512Y4097*
X2509Y4100*
X2506Y4103*
X2503Y4105*
X2499Y4108*
X2496Y4110*
X2492Y4111*
X2488Y4113*
X2484Y4114*
X2480Y4115*
X2476Y4116*
X2472Y4117*
X2468Y4117*
G37*
G36*
X2685Y3951D02*
X2661D01*
X2657Y3951*
X2653Y3951*
X2649Y3950*
X2645Y3949*
X2641Y3948*
X2637Y3946*
X2633Y3944*
X2629Y3942*
X2626Y3940*
X2623Y3937*
X2620Y3934*
X2617Y3931*
X2614Y3928*
X2612Y3925*
X2610Y3921*
X2608Y3917*
X2606Y3914*
X2605Y3910*
X2604Y3906*
X2603Y3901*
X2603Y3897*
X2603Y3893*
X2603Y3889*
X2603Y3885*
X2604Y3881*
X2605Y3877*
X2606Y3873*
X2608Y3869*
X2610Y3865*
X2612Y3862*
X2614Y3858*
X2617Y3855*
X2620Y3852*
X2623Y3849*
X2626Y3847*
X2629Y3844*
X2633Y3842*
X2637Y3840*
X2641Y3839*
X2645Y3837*
X2649Y3836*
X2653Y3836*
X2657Y3835*
X2661Y3835*
X2685*
X2689Y3835*
X2693Y3836*
X2697Y3836*
X2701Y3837*
X2705Y3839*
X2709Y3840*
X2712Y3842*
X2716Y3844*
X2719Y3847*
X2723Y3849*
X2726Y3852*
X2729Y3855*
X2731Y3858*
X2733Y3862*
X2736Y3865*
X2737Y3869*
X2739Y3873*
X2740Y3877*
X2741Y3881*
X2742Y3885*
X2743Y3889*
X2743Y3893*
X2743Y3897*
X2742Y3901*
X2741Y3906*
X2740Y3910*
X2739Y3914*
X2737Y3917*
X2736Y3921*
X2733Y3925*
X2731Y3928*
X2729Y3931*
X2726Y3934*
X2723Y3937*
X2719Y3940*
X2716Y3942*
X2712Y3944*
X2709Y3946*
X2705Y3948*
X2701Y3949*
X2697Y3950*
X2693Y3951*
X2689Y3951*
X2685Y3951*
G37*
G36*
X2468D02*
X2444D01*
X2440Y3951*
X2436Y3951*
X2432Y3950*
X2428Y3949*
X2424Y3948*
X2420Y3946*
X2417Y3944*
X2413Y3942*
X2410Y3940*
X2406Y3937*
X2403Y3934*
X2400Y3931*
X2398Y3928*
X2395Y3925*
X2393Y3921*
X2391Y3917*
X2390Y3914*
X2389Y3910*
X2388Y3906*
X2387Y3901*
X2386Y3897*
X2386Y3893*
X2386Y3889*
X2387Y3885*
X2388Y3881*
X2389Y3877*
X2390Y3873*
X2391Y3869*
X2393Y3865*
X2395Y3862*
X2398Y3858*
X2400Y3855*
X2403Y3852*
X2406Y3849*
X2410Y3847*
X2413Y3844*
X2417Y3842*
X2420Y3840*
X2424Y3839*
X2428Y3837*
X2432Y3836*
X2436Y3836*
X2440Y3835*
X2444Y3835*
X2468*
X2472Y3835*
X2476Y3836*
X2480Y3836*
X2484Y3837*
X2488Y3839*
X2492Y3840*
X2496Y3842*
X2499Y3844*
X2503Y3847*
X2506Y3849*
X2509Y3852*
X2512Y3855*
X2515Y3858*
X2517Y3862*
X2519Y3865*
X2521Y3869*
X2523Y3873*
X2524Y3877*
X2525Y3881*
X2526Y3885*
X2526Y3889*
X2526Y3893*
X2526Y3897*
X2526Y3901*
X2525Y3906*
X2524Y3910*
X2523Y3914*
X2521Y3917*
X2519Y3921*
X2517Y3925*
X2515Y3928*
X2512Y3931*
X2509Y3934*
X2506Y3937*
X2503Y3940*
X2499Y3942*
X2496Y3944*
X2492Y3946*
X2488Y3948*
X2484Y3949*
X2480Y3950*
X2476Y3951*
X2472Y3951*
X2468Y3951*
G37*
G36*
X2685Y3786D02*
X2661D01*
X2657Y3786*
X2653Y3785*
X2649Y3785*
X2645Y3784*
X2641Y3782*
X2637Y3781*
X2633Y3779*
X2629Y3777*
X2626Y3774*
X2623Y3772*
X2620Y3769*
X2617Y3766*
X2614Y3763*
X2612Y3759*
X2610Y3756*
X2608Y3752*
X2606Y3748*
X2605Y3744*
X2604Y3740*
X2603Y3736*
X2603Y3732*
X2603Y3728*
X2603Y3724*
X2603Y3720*
X2604Y3715*
X2605Y3711*
X2606Y3708*
X2608Y3704*
X2610Y3700*
X2612Y3696*
X2614Y3693*
X2617Y3690*
X2620Y3687*
X2623Y3684*
X2626Y3681*
X2629Y3679*
X2633Y3677*
X2637Y3675*
X2641Y3673*
X2645Y3672*
X2649Y3671*
X2653Y3670*
X2657Y3670*
X2661Y3670*
X2685*
X2689Y3670*
X2693Y3670*
X2697Y3671*
X2701Y3672*
X2705Y3673*
X2709Y3675*
X2712Y3677*
X2716Y3679*
X2719Y3681*
X2723Y3684*
X2726Y3687*
X2729Y3690*
X2731Y3693*
X2733Y3696*
X2736Y3700*
X2737Y3704*
X2739Y3708*
X2740Y3711*
X2741Y3715*
X2742Y3720*
X2743Y3724*
X2743Y3728*
X2743Y3732*
X2742Y3736*
X2741Y3740*
X2740Y3744*
X2739Y3748*
X2737Y3752*
X2736Y3756*
X2733Y3759*
X2731Y3763*
X2729Y3766*
X2726Y3769*
X2723Y3772*
X2719Y3774*
X2716Y3777*
X2712Y3779*
X2709Y3781*
X2705Y3782*
X2701Y3784*
X2697Y3785*
X2693Y3785*
X2689Y3786*
X2685Y3786*
G37*
G36*
X2468D02*
X2444D01*
X2440Y3786*
X2436Y3785*
X2432Y3785*
X2428Y3784*
X2424Y3782*
X2420Y3781*
X2417Y3779*
X2413Y3777*
X2410Y3774*
X2406Y3772*
X2403Y3769*
X2400Y3766*
X2398Y3763*
X2395Y3759*
X2393Y3756*
X2391Y3752*
X2390Y3748*
X2389Y3744*
X2388Y3740*
X2387Y3736*
X2386Y3732*
X2386Y3728*
X2386Y3724*
X2387Y3720*
X2388Y3715*
X2389Y3711*
X2390Y3708*
X2391Y3704*
X2393Y3700*
X2395Y3696*
X2398Y3693*
X2400Y3690*
X2403Y3687*
X2406Y3684*
X2410Y3681*
X2413Y3679*
X2417Y3677*
X2420Y3675*
X2424Y3673*
X2428Y3672*
X2432Y3671*
X2436Y3670*
X2440Y3670*
X2444Y3670*
X2468*
X2472Y3670*
X2476Y3670*
X2480Y3671*
X2484Y3672*
X2488Y3673*
X2492Y3675*
X2496Y3677*
X2499Y3679*
X2503Y3681*
X2506Y3684*
X2509Y3687*
X2512Y3690*
X2515Y3693*
X2517Y3696*
X2519Y3700*
X2521Y3704*
X2523Y3708*
X2524Y3711*
X2525Y3715*
X2526Y3720*
X2526Y3724*
X2526Y3728*
X2526Y3732*
X2526Y3736*
X2525Y3740*
X2524Y3744*
X2523Y3748*
X2521Y3752*
X2519Y3756*
X2517Y3759*
X2515Y3763*
X2512Y3766*
X2509Y3769*
X2506Y3772*
X2503Y3774*
X2499Y3777*
X2496Y3779*
X2492Y3781*
X2488Y3782*
X2484Y3784*
X2480Y3785*
X2476Y3785*
X2472Y3786*
X2468Y3786*
G37*
G36*
X531Y3672D02*
X527Y3672D01*
X523Y3671*
X519Y3671*
X515Y3670*
X511Y3668*
X507Y3667*
X503Y3665*
X500Y3663*
X496Y3660*
X493Y3658*
X490Y3655*
X487Y3652*
X484Y3649*
X482Y3645*
X480Y3642*
X478Y3638*
X476Y3634*
X475Y3630*
X474Y3626*
X473Y3622*
X473Y3618*
X473Y3614*
Y3590*
X473Y3586*
X473Y3582*
X474Y3578*
X475Y3574*
X476Y3570*
X478Y3566*
X480Y3562*
X482Y3559*
X484Y3555*
X487Y3552*
X490Y3549*
X493Y3546*
X496Y3543*
X500Y3541*
X503Y3539*
X507Y3537*
X511Y3536*
X515Y3534*
X519Y3533*
X523Y3532*
X527Y3532*
X531Y3532*
X535Y3532*
X539Y3532*
X543Y3533*
X547Y3534*
X551Y3536*
X555Y3537*
X559Y3539*
X562Y3541*
X566Y3543*
X569Y3546*
X572Y3549*
X575Y3552*
X578Y3555*
X580Y3559*
X582Y3562*
X584Y3566*
X586Y3570*
X587Y3574*
X588Y3578*
X589Y3582*
X589Y3586*
X589Y3590*
Y3614*
X589Y3618*
X589Y3622*
X588Y3626*
X587Y3630*
X586Y3634*
X584Y3638*
X582Y3642*
X580Y3645*
X578Y3649*
X575Y3652*
X572Y3655*
X569Y3658*
X566Y3660*
X562Y3663*
X559Y3665*
X555Y3667*
X551Y3668*
X547Y3670*
X543Y3671*
X539Y3671*
X535Y3672*
X531Y3672*
G37*
G36*
X2685Y3621D02*
X2661D01*
X2657Y3621*
X2653Y3620*
X2649Y3619*
X2645Y3618*
X2641Y3617*
X2637Y3615*
X2633Y3614*
X2629Y3611*
X2626Y3609*
X2623Y3606*
X2620Y3604*
X2617Y3601*
X2614Y3597*
X2612Y3594*
X2610Y3590*
X2608Y3587*
X2606Y3583*
X2605Y3579*
X2604Y3575*
X2603Y3571*
X2603Y3567*
X2603Y3562*
X2603Y3558*
X2603Y3554*
X2604Y3550*
X2605Y3546*
X2606Y3542*
X2608Y3538*
X2610Y3535*
X2612Y3531*
X2614Y3528*
X2617Y3524*
X2620Y3521*
X2623Y3519*
X2626Y3516*
X2629Y3514*
X2633Y3511*
X2637Y3510*
X2641Y3508*
X2645Y3507*
X2649Y3506*
X2653Y3505*
X2657Y3504*
X2661Y3504*
X2685*
X2689Y3504*
X2693Y3505*
X2697Y3506*
X2701Y3507*
X2705Y3508*
X2709Y3510*
X2712Y3511*
X2716Y3514*
X2719Y3516*
X2723Y3519*
X2726Y3521*
X2729Y3524*
X2731Y3528*
X2733Y3531*
X2736Y3535*
X2737Y3538*
X2739Y3542*
X2740Y3546*
X2741Y3550*
X2742Y3554*
X2743Y3558*
X2743Y3562*
X2743Y3567*
X2742Y3571*
X2741Y3575*
X2740Y3579*
X2739Y3583*
X2737Y3587*
X2736Y3590*
X2733Y3594*
X2731Y3597*
X2729Y3601*
X2726Y3604*
X2723Y3606*
X2719Y3609*
X2716Y3611*
X2712Y3614*
X2709Y3615*
X2705Y3617*
X2701Y3618*
X2697Y3619*
X2693Y3620*
X2689Y3621*
X2685Y3621*
G37*
G36*
X984Y3672D02*
X980Y3672D01*
X975Y3671*
X971Y3671*
X967Y3670*
X963Y3668*
X960Y3667*
X956Y3665*
X952Y3663*
X949Y3660*
X946Y3658*
X943Y3655*
X940Y3652*
X937Y3649*
X935Y3645*
X933Y3642*
X931Y3638*
X929Y3634*
X928Y3630*
X927Y3626*
X926Y3622*
X926Y3618*
X926Y3614*
Y3590*
X926Y3586*
X926Y3582*
X927Y3578*
X928Y3574*
X929Y3570*
X931Y3566*
X933Y3562*
X935Y3559*
X937Y3555*
X940Y3552*
X943Y3549*
X946Y3546*
X949Y3543*
X952Y3541*
X956Y3539*
X960Y3537*
X963Y3536*
X967Y3534*
X971Y3533*
X975Y3532*
X980Y3532*
X984Y3532*
X988Y3532*
X992Y3532*
X996Y3533*
X1000Y3534*
X1004Y3536*
X1008Y3537*
X1012Y3539*
X1015Y3541*
X1019Y3543*
X1022Y3546*
X1025Y3549*
X1028Y3552*
X1030Y3555*
X1033Y3559*
X1035Y3562*
X1037Y3566*
X1038Y3570*
X1040Y3574*
X1040Y3577*
X1741*
X1773Y3545*
X1775Y3543*
X1778Y3542*
X1780Y3540*
X1783Y3539*
X1785Y3538*
X1788Y3538*
X1791Y3538*
X2392*
X2393Y3535*
X2395Y3531*
X2398Y3528*
X2400Y3524*
X2403Y3521*
X2406Y3519*
X2410Y3516*
X2413Y3514*
X2417Y3511*
X2420Y3510*
X2424Y3508*
X2428Y3507*
X2432Y3506*
X2436Y3505*
X2440Y3504*
X2444Y3504*
X2468*
X2472Y3504*
X2476Y3505*
X2480Y3506*
X2484Y3507*
X2488Y3508*
X2492Y3510*
X2496Y3511*
X2499Y3514*
X2503Y3516*
X2506Y3519*
X2509Y3521*
X2512Y3524*
X2515Y3528*
X2517Y3531*
X2519Y3535*
X2521Y3538*
X2523Y3542*
X2524Y3546*
X2525Y3550*
X2526Y3554*
X2526Y3558*
X2526Y3562*
X2526Y3567*
X2526Y3571*
X2525Y3575*
X2524Y3579*
X2523Y3583*
X2521Y3587*
X2519Y3590*
X2517Y3594*
X2515Y3597*
X2512Y3601*
X2509Y3604*
X2506Y3606*
X2503Y3609*
X2499Y3611*
X2496Y3614*
X2492Y3615*
X2488Y3617*
X2484Y3618*
X2480Y3619*
X2476Y3620*
X2472Y3621*
X2468Y3621*
X2444*
X2440Y3621*
X2436Y3620*
X2432Y3619*
X2428Y3618*
X2424Y3617*
X2420Y3615*
X2417Y3614*
X2413Y3611*
X2410Y3609*
X2406Y3606*
X2403Y3604*
X2400Y3601*
X2398Y3597*
X2395Y3594*
X2393Y3590*
X2392Y3587*
X1801*
X1769Y3619*
X1767Y3621*
X1765Y3623*
X1762Y3624*
X1760Y3625*
X1757Y3626*
X1754Y3626*
X1751Y3627*
X1040*
X1040Y3630*
X1038Y3634*
X1037Y3638*
X1035Y3642*
X1033Y3645*
X1030Y3649*
X1028Y3652*
X1025Y3655*
X1022Y3658*
X1019Y3660*
X1015Y3663*
X1012Y3665*
X1008Y3667*
X1004Y3668*
X1000Y3670*
X996Y3671*
X992Y3671*
X988Y3672*
X984Y3672*
G37*
G36*
X2685Y3455D02*
X2661D01*
X2657Y3455*
X2653Y3455*
X2649Y3454*
X2645Y3453*
X2641Y3452*
X2637Y3450*
X2633Y3448*
X2629Y3446*
X2626Y3444*
X2623Y3441*
X2620Y3438*
X2617Y3435*
X2614Y3432*
X2612Y3429*
X2610Y3425*
X2608Y3421*
X2606Y3417*
X2605Y3414*
X2604Y3410*
X2603Y3405*
X2603Y3401*
X2603Y3397*
X2603Y3393*
X2603Y3389*
X2604Y3385*
X2605Y3381*
X2606Y3377*
X2608Y3373*
X2610Y3369*
X2612Y3366*
X2614Y3362*
X2617Y3359*
X2620Y3356*
X2623Y3353*
X2626Y3351*
X2629Y3348*
X2633Y3346*
X2637Y3344*
X2641Y3343*
X2645Y3341*
X2649Y3340*
X2653Y3340*
X2657Y3339*
X2661Y3339*
X2685*
X2689Y3339*
X2693Y3340*
X2697Y3340*
X2701Y3341*
X2705Y3343*
X2709Y3344*
X2712Y3346*
X2716Y3348*
X2719Y3351*
X2723Y3353*
X2726Y3356*
X2729Y3359*
X2731Y3362*
X2733Y3366*
X2736Y3369*
X2737Y3373*
X2739Y3377*
X2740Y3381*
X2741Y3385*
X2742Y3389*
X2743Y3393*
X2743Y3397*
X2743Y3401*
X2742Y3405*
X2741Y3410*
X2740Y3414*
X2739Y3417*
X2737Y3421*
X2736Y3425*
X2733Y3429*
X2731Y3432*
X2729Y3435*
X2726Y3438*
X2723Y3441*
X2719Y3444*
X2716Y3446*
X2712Y3448*
X2709Y3450*
X2705Y3452*
X2701Y3453*
X2697Y3454*
X2693Y3455*
X2689Y3455*
X2685Y3455*
G37*
G36*
X1032D02*
X935D01*
X934Y3455*
X932Y3455*
X931Y3454*
X930Y3453*
X928Y3452*
X927Y3451*
X927Y3450*
X926Y3449*
X926Y3447*
X926Y3446*
Y3325*
X926Y3324*
X926Y3322*
X927Y3321*
X927Y3319*
X928Y3318*
X930Y3317*
X931Y3316*
X932Y3316*
X934Y3315*
X935Y3315*
X1032*
X1034Y3315*
X1035Y3316*
X1037Y3316*
X1038Y3317*
X1039Y3318*
X1040Y3319*
X1041Y3321*
X1041Y3322*
X1042Y3324*
X1042Y3325*
Y3446*
X1042Y3447*
X1041Y3449*
X1041Y3450*
X1040Y3451*
X1039Y3452*
X1038Y3453*
X1037Y3454*
X1035Y3455*
X1034Y3455*
X1032Y3455*
G37*
G36*
X366Y3455D02*
X361Y3455D01*
X357Y3455*
X353Y3454*
X349Y3453*
X345Y3452*
X341Y3450*
X338Y3448*
X334Y3446*
X331Y3444*
X328Y3441*
X325Y3438*
X322Y3435*
X319Y3432*
X317Y3429*
X315Y3425*
X313Y3421*
X311Y3417*
X310Y3414*
X309Y3410*
X308Y3405*
X308Y3401*
X307Y3397*
Y3374*
X308Y3369*
X308Y3365*
X309Y3361*
X310Y3357*
X311Y3353*
X313Y3349*
X315Y3346*
X317Y3342*
X319Y3339*
X322Y3335*
X325Y3332*
X328Y3330*
X331Y3327*
X334Y3325*
X338Y3322*
X341Y3321*
X345Y3319*
X349Y3318*
X353Y3317*
X357Y3316*
X361Y3315*
X366Y3315*
X370Y3315*
X374Y3316*
X378Y3317*
X382Y3318*
X386Y3319*
X390Y3321*
X394Y3322*
X397Y3325*
X401Y3327*
X404Y3330*
X407Y3332*
X410Y3335*
X412Y3339*
X415Y3342*
X417Y3346*
X419Y3349*
X420Y3353*
X421Y3357*
X423Y3361*
X423Y3365*
X424Y3369*
X424Y3374*
Y3397*
X424Y3401*
X423Y3405*
X423Y3410*
X421Y3414*
X420Y3417*
X419Y3421*
X417Y3425*
X415Y3429*
X412Y3432*
X410Y3435*
X407Y3438*
X404Y3441*
X401Y3444*
X397Y3446*
X394Y3448*
X390Y3450*
X386Y3452*
X382Y3453*
X378Y3454*
X374Y3455*
X370Y3455*
X366Y3455*
G37*
G36*
X818Y3455D02*
X814Y3455D01*
X810Y3455*
X806Y3454*
X802Y3453*
X798Y3452*
X794Y3450*
X791Y3448*
X787Y3446*
X784Y3444*
X780Y3441*
X777Y3438*
X774Y3435*
X772Y3432*
X769Y3429*
X767Y3425*
X765Y3421*
X764Y3417*
X763Y3414*
X762Y3410*
X761Y3405*
X760Y3401*
X760Y3397*
Y3374*
X760Y3369*
X761Y3365*
X762Y3361*
X763Y3357*
X764Y3353*
X765Y3349*
X767Y3346*
X769Y3342*
X772Y3339*
X774Y3335*
X777Y3332*
X780Y3330*
X784Y3327*
X787Y3325*
X791Y3322*
X794Y3321*
X798Y3319*
X802Y3318*
X806Y3317*
X810Y3316*
X814Y3315*
X818Y3315*
X823Y3315*
X827Y3316*
X831Y3317*
X835Y3318*
X839Y3319*
X843Y3321*
X846Y3322*
X850Y3325*
X853Y3327*
X857Y3330*
X860Y3332*
X862Y3335*
X865Y3339*
X867Y3342*
X869Y3346*
X871Y3349*
X873Y3353*
X874Y3357*
X875Y3361*
X876Y3365*
X876Y3369*
X877Y3374*
Y3397*
X876Y3401*
X876Y3405*
X875Y3410*
X874Y3414*
X873Y3417*
X871Y3421*
X869Y3425*
X867Y3429*
X865Y3432*
X862Y3435*
X860Y3438*
X857Y3441*
X853Y3444*
X850Y3446*
X846Y3448*
X843Y3450*
X839Y3452*
X835Y3453*
X831Y3454*
X827Y3455*
X823Y3455*
X818Y3455*
G37*
G36*
X2468Y3125D02*
X2444D01*
X2440Y3124*
X2436Y3124*
X2432Y3123*
X2428Y3122*
X2424Y3121*
X2420Y3119*
X2417Y3118*
X2413Y3115*
X2410Y3113*
X2406Y3110*
X2403Y3108*
X2400Y3105*
X2398Y3101*
X2395Y3098*
X2393Y3094*
X2391Y3091*
X2390Y3087*
X2389Y3083*
X2388Y3079*
X2387Y3075*
X2386Y3071*
X2386Y3066*
X2386Y3062*
X2387Y3058*
X2388Y3054*
X2389Y3050*
X2390Y3046*
X2391Y3042*
X2393Y3039*
X2395Y3035*
X2398Y3032*
X2400Y3028*
X2403Y3025*
X2406Y3022*
X2410Y3020*
X2413Y3017*
X2417Y3015*
X2420Y3014*
X2424Y3012*
X2428Y3011*
X2432Y3010*
X2436Y3009*
X2440Y3008*
X2444Y3008*
X2468*
X2472Y3008*
X2476Y3009*
X2480Y3010*
X2484Y3011*
X2488Y3012*
X2492Y3014*
X2496Y3015*
X2499Y3017*
X2503Y3020*
X2506Y3022*
X2509Y3025*
X2512Y3028*
X2515Y3032*
X2517Y3035*
X2519Y3039*
X2521Y3042*
X2523Y3046*
X2524Y3050*
X2525Y3054*
X2526Y3058*
X2526Y3062*
X2526Y3066*
X2526Y3071*
X2526Y3075*
X2525Y3079*
X2524Y3083*
X2523Y3087*
X2521Y3091*
X2519Y3094*
X2517Y3098*
X2515Y3101*
X2512Y3105*
X2509Y3108*
X2506Y3110*
X2503Y3113*
X2499Y3115*
X2496Y3118*
X2492Y3119*
X2488Y3121*
X2484Y3122*
X2480Y3123*
X2476Y3124*
X2472Y3124*
X2468Y3125*
G37*
G36*
X2060Y3069D02*
X1994D01*
X1992Y3069*
X1991Y3069*
X1989Y3068*
X1988Y3068*
X1987Y3067*
X1986Y3065*
X1985Y3064*
X1984Y3063*
X1984Y3061*
X1984Y3059*
Y3003*
X1984Y3001*
X1984Y2999*
X1985Y2998*
X1986Y2997*
X1987Y2995*
X1988Y2994*
X1989Y2994*
X1991Y2993*
X1992Y2993*
X1994Y2993*
X2060*
X2062Y2993*
X2064Y2993*
X2065Y2994*
X2066Y2994*
X2068Y2995*
X2069Y2997*
X2069Y2998*
X2070Y2999*
X2070Y3001*
X2070Y3003*
Y3059*
X2070Y3061*
X2070Y3063*
X2069Y3064*
X2069Y3065*
X2068Y3067*
X2066Y3068*
X2065Y3068*
X2064Y3069*
X2062Y3069*
X2060Y3069*
G37*
G36*
X1431D02*
X1364D01*
X1362Y3069*
X1361Y3069*
X1359Y3068*
X1358Y3068*
X1357Y3067*
X1356Y3065*
X1355Y3064*
X1354Y3063*
X1354Y3061*
X1354Y3059*
Y3003*
X1354Y3001*
X1354Y2999*
X1355Y2998*
X1356Y2997*
X1357Y2995*
X1358Y2994*
X1359Y2994*
X1361Y2993*
X1362Y2993*
X1364Y2993*
X1431*
X1432Y2993*
X1434Y2993*
X1435Y2994*
X1436Y2994*
X1438Y2995*
X1439Y2997*
X1439Y2998*
X1440Y2999*
X1440Y3001*
X1441Y3003*
Y3059*
X1440Y3061*
X1440Y3063*
X1439Y3064*
X1439Y3065*
X1438Y3067*
X1436Y3068*
X1435Y3068*
X1434Y3069*
X1432Y3069*
X1431Y3069*
G37*
G36*
X984Y3121D02*
X980Y3121D01*
X975Y3120*
X971Y3119*
X967Y3118*
X963Y3117*
X960Y3115*
X956Y3114*
X952Y3111*
X949Y3109*
X946Y3106*
X943Y3104*
X940Y3101*
X937Y3097*
X935Y3094*
X933Y3090*
X931Y3087*
X929Y3083*
X928Y3079*
X927Y3075*
X926Y3071*
X926Y3067*
X926Y3062*
Y3039*
X926Y3035*
X926Y3031*
X927Y3027*
X928Y3022*
X929Y3019*
X931Y3015*
X933Y3011*
X935Y3007*
X937Y3004*
X940Y3001*
X943Y2998*
X946Y2995*
X949Y2992*
X952Y2990*
X956Y2988*
X960Y2986*
X963Y2984*
X967Y2983*
X971Y2982*
X975Y2981*
X980Y2981*
X984Y2981*
X988Y2981*
X992Y2981*
X996Y2982*
X1000Y2983*
X1004Y2984*
X1008Y2986*
X1012Y2988*
X1015Y2990*
X1019Y2992*
X1022Y2995*
X1025Y2998*
X1028Y3001*
X1030Y3004*
X1033Y3007*
X1035Y3011*
X1037Y3015*
X1038Y3019*
X1040Y3022*
X1041Y3027*
X1041Y3031*
X1042Y3035*
X1042Y3039*
Y3062*
X1042Y3067*
X1041Y3071*
X1041Y3075*
X1040Y3079*
X1038Y3083*
X1037Y3087*
X1035Y3090*
X1033Y3094*
X1030Y3097*
X1028Y3101*
X1025Y3104*
X1022Y3106*
X1019Y3109*
X1015Y3111*
X1012Y3114*
X1008Y3115*
X1004Y3117*
X1000Y3118*
X996Y3119*
X992Y3120*
X988Y3121*
X984Y3121*
G37*
G36*
X818D02*
X814Y3121D01*
X810Y3120*
X806Y3119*
X802Y3118*
X798Y3117*
X794Y3115*
X791Y3114*
X787Y3111*
X784Y3109*
X780Y3106*
X777Y3104*
X774Y3101*
X772Y3097*
X769Y3094*
X767Y3090*
X765Y3087*
X764Y3083*
X763Y3079*
X762Y3075*
X761Y3071*
X760Y3067*
X760Y3062*
Y3039*
X760Y3035*
X761Y3031*
X762Y3027*
X763Y3022*
X764Y3019*
X765Y3015*
X767Y3011*
X769Y3007*
X772Y3004*
X774Y3001*
X777Y2998*
X780Y2995*
X784Y2992*
X787Y2990*
X791Y2988*
X794Y2986*
X798Y2984*
X802Y2983*
X806Y2982*
X810Y2981*
X814Y2981*
X818Y2981*
X823Y2981*
X827Y2981*
X831Y2982*
X835Y2983*
X839Y2984*
X843Y2986*
X846Y2988*
X850Y2990*
X853Y2992*
X857Y2995*
X860Y2998*
X862Y3001*
X865Y3004*
X867Y3007*
X869Y3011*
X871Y3015*
X873Y3019*
X874Y3022*
X875Y3027*
X876Y3031*
X876Y3035*
X877Y3039*
Y3062*
X876Y3067*
X876Y3071*
X875Y3075*
X874Y3079*
X873Y3083*
X871Y3087*
X869Y3090*
X867Y3094*
X865Y3097*
X862Y3101*
X860Y3104*
X857Y3106*
X853Y3109*
X850Y3111*
X846Y3114*
X843Y3115*
X839Y3117*
X835Y3118*
X831Y3119*
X827Y3120*
X823Y3121*
X818Y3121*
G37*
G36*
X2032Y2971D02*
X2022D01*
X2019Y2971*
X2015Y2970*
X2012Y2970*
X2009Y2969*
X2006Y2967*
X2003Y2966*
X2000Y2964*
X1997Y2962*
X1995Y2960*
X1993Y2957*
X1991Y2955*
X1989Y2952*
X1987Y2949*
X1986Y2946*
X1985Y2943*
X1984Y2939*
X1984Y2936*
X1984Y2933*
X1984Y2929*
X1984Y2926*
X1985Y2923*
X1986Y2919*
X1987Y2916*
X1989Y2913*
X1991Y2910*
X1993Y2908*
X1995Y2905*
X1997Y2903*
X2000Y2901*
X2003Y2899*
X2006Y2898*
X2009Y2896*
X2012Y2895*
X2015Y2895*
X2019Y2894*
X2022Y2894*
X2032*
X2035Y2894*
X2039Y2895*
X2042Y2895*
X2045Y2896*
X2048Y2898*
X2051Y2899*
X2054Y2901*
X2057Y2903*
X2059Y2905*
X2061Y2908*
X2064Y2910*
X2065Y2913*
X2067Y2916*
X2068Y2919*
X2069Y2923*
X2070Y2926*
X2070Y2929*
X2070Y2933*
X2070Y2936*
X2070Y2939*
X2069Y2943*
X2068Y2946*
X2067Y2949*
X2065Y2952*
X2064Y2955*
X2061Y2957*
X2059Y2960*
X2057Y2962*
X2054Y2964*
X2051Y2966*
X2048Y2967*
X2045Y2969*
X2042Y2970*
X2039Y2970*
X2035Y2971*
X2032Y2971*
G37*
G36*
X1717D02*
X1707D01*
X1704Y2971*
X1700Y2970*
X1697Y2970*
X1694Y2969*
X1691Y2967*
X1688Y2966*
X1685Y2964*
X1682Y2962*
X1680Y2960*
X1678Y2957*
X1676Y2955*
X1674Y2952*
X1672Y2949*
X1671Y2946*
X1670Y2943*
X1669Y2939*
X1669Y2936*
X1669Y2933*
X1669Y2929*
X1669Y2926*
X1670Y2923*
X1671Y2919*
X1672Y2916*
X1674Y2913*
X1676Y2910*
X1678Y2908*
X1680Y2905*
X1682Y2903*
X1685Y2901*
X1688Y2899*
X1691Y2898*
X1694Y2896*
X1697Y2895*
X1700Y2895*
X1704Y2894*
X1707Y2894*
X1717*
X1720Y2894*
X1724Y2895*
X1727Y2895*
X1730Y2896*
X1733Y2898*
X1736Y2899*
X1739Y2901*
X1742Y2903*
X1744Y2905*
X1747Y2908*
X1749Y2910*
X1750Y2913*
X1752Y2916*
X1753Y2919*
X1754Y2923*
X1755Y2926*
X1755Y2929*
X1756Y2933*
X1755Y2936*
X1755Y2939*
X1754Y2943*
X1753Y2946*
X1752Y2949*
X1750Y2952*
X1749Y2955*
X1747Y2957*
X1744Y2960*
X1742Y2962*
X1739Y2964*
X1736Y2966*
X1733Y2967*
X1730Y2969*
X1727Y2970*
X1724Y2970*
X1720Y2971*
X1717Y2971*
G37*
G36*
X1402D02*
X1392D01*
X1389Y2971*
X1386Y2970*
X1382Y2970*
X1379Y2969*
X1376Y2967*
X1373Y2966*
X1370Y2964*
X1367Y2962*
X1365Y2960*
X1363Y2957*
X1361Y2955*
X1359Y2952*
X1357Y2949*
X1356Y2946*
X1355Y2943*
X1355Y2943*
X1295*
X1293Y2942*
X1292Y2942*
X1290Y2941*
X1289Y2941*
X1288Y2940*
X1067Y2719*
X1066Y2718*
X1065Y2717*
X1065Y2715*
X1064Y2714*
X1064Y2712*
Y2047*
X764Y1747*
X763Y1746*
X762Y1744*
X762Y1743*
X761Y1741*
X761Y1740*
Y1153*
Y1153*
X761Y1151*
X762Y1150*
X762Y1149*
X763Y1147*
X764Y1146*
X894Y1016*
Y1016*
X895Y1015*
X897Y1014*
X898Y1014*
X900Y1013*
X901Y1013*
X1226*
X1227Y1013*
X1228Y1012*
X1230Y1011*
X1231Y1010*
X1233Y1010*
X1235Y1009*
X1237*
X1238Y1010*
X1240Y1010*
X1242Y1011*
X1243Y1012*
X1245Y1013*
X1246Y1014*
X1247Y1015*
X1248Y1017*
X1249Y1019*
X1249Y1020*
X1250Y1022*
Y1024*
X1249Y1026*
X1249Y1028*
X1248Y1029*
X1247Y1031*
X1246Y1032*
X1245Y1034*
X1243Y1035*
X1242Y1036*
X1240Y1036*
X1238Y1037*
X1237Y1037*
X1235*
X1233Y1037*
X1231Y1036*
X1230Y1036*
X1228Y1035*
X1227Y1034*
X1226Y1033*
X1194*
X1194Y1037*
X1195Y1037*
X1197Y1038*
X1198Y1039*
X1199Y1040*
X1227Y1067*
Y1067*
X1228Y1068*
X1229Y1070*
X1229Y1071*
X1230Y1073*
X1230Y1074*
Y1112*
X1230Y1112*
X1232Y1114*
X1232Y1115*
X1233Y1117*
X1234Y1119*
X1234Y1121*
Y1122*
X1234Y1124*
X1233Y1126*
X1232Y1128*
X1232Y1129*
X1230Y1131*
X1229Y1132*
X1228Y1133*
X1226Y1134*
X1224Y1135*
X1223Y1135*
X1221Y1135*
X1219*
X1217Y1135*
X1216Y1135*
X1214Y1134*
X1212Y1133*
X1211Y1132*
X1210Y1131*
X1208Y1129*
X1208Y1128*
X1207Y1126*
X1206Y1124*
X1206Y1122*
Y1121*
X1206Y1119*
X1207Y1117*
X1208Y1115*
X1208Y1114*
X1210Y1112*
X1210Y1112*
Y1078*
X1188Y1057*
X952*
X840Y1169*
Y1680*
X1129Y1969*
X1130Y1970*
X1130Y1971*
X1131Y1973*
X1131Y1974*
X1132Y1976*
Y2511*
X1180Y2559*
X1181Y2561*
X1182Y2562*
X1182Y2563*
X1183Y2565*
X1183Y2566*
Y2666*
X1184Y2668*
X1185Y2669*
X1186Y2671*
X1186Y2672*
X1187Y2674*
X1187Y2676*
Y2678*
X1187Y2679*
X1186Y2681*
X1186Y2683*
X1185Y2684*
X1184Y2686*
X1182Y2687*
X1181Y2688*
X1179Y2689*
X1178Y2690*
X1176Y2690*
X1174Y2691*
X1172*
X1171Y2690*
X1169Y2690*
X1167Y2689*
X1166Y2688*
X1164Y2687*
X1163Y2686*
X1162Y2684*
X1161Y2683*
X1160Y2681*
X1160Y2679*
X1159Y2678*
Y2676*
X1160Y2674*
X1160Y2672*
X1161Y2671*
X1162Y2669*
X1163Y2668*
Y2571*
X1115Y2522*
X1114Y2521*
X1113Y2520*
X1112Y2518*
X1112Y2517*
X1112Y2515*
Y1980*
X823Y1692*
X822Y1690*
X821Y1689*
X821Y1688*
X820Y1686*
X820Y1685*
Y1165*
Y1165*
X820Y1163*
X821Y1162*
X821Y1160*
X822Y1159*
X823Y1158*
X941Y1040*
X942Y1039*
X944Y1038*
X945Y1037*
X947Y1037*
X946Y1033*
X905*
X781Y1157*
Y1736*
X1081Y2036*
X1082Y2037*
X1083Y2038*
X1084Y2040*
X1084Y2041*
X1084Y2043*
Y2708*
X1299Y2923*
X1355*
X1355Y2923*
X1356Y2919*
X1357Y2916*
X1359Y2913*
X1361Y2910*
X1363Y2908*
X1365Y2905*
X1367Y2903*
X1370Y2901*
X1373Y2899*
X1376Y2898*
X1379Y2896*
X1382Y2895*
X1386Y2895*
X1389Y2894*
X1392Y2894*
X1402*
X1405Y2894*
X1409Y2895*
X1412Y2895*
X1415Y2896*
X1418Y2898*
X1421Y2899*
X1424Y2901*
X1427Y2903*
X1429Y2905*
X1432Y2908*
X1434Y2910*
X1435Y2913*
X1437Y2916*
X1438Y2919*
X1439Y2923*
X1440Y2926*
X1440Y2929*
X1441Y2933*
X1440Y2936*
X1440Y2939*
X1439Y2943*
X1438Y2946*
X1437Y2949*
X1435Y2952*
X1434Y2955*
X1432Y2957*
X1429Y2960*
X1427Y2962*
X1424Y2964*
X1421Y2966*
X1418Y2967*
X1415Y2969*
X1412Y2970*
X1409Y2970*
X1405Y2971*
X1402Y2971*
G37*
G36*
X2468Y2794D02*
X2444D01*
X2440Y2794*
X2436Y2793*
X2432Y2793*
X2428Y2792*
X2424Y2790*
X2420Y2789*
X2417Y2787*
X2413Y2785*
X2410Y2782*
X2406Y2780*
X2403Y2777*
X2400Y2774*
X2398Y2771*
X2395Y2767*
X2393Y2764*
X2391Y2760*
X2390Y2756*
X2389Y2752*
X2388Y2748*
X2387Y2744*
X2386Y2740*
X2386Y2736*
X2386Y2732*
X2387Y2727*
X2388Y2723*
X2389Y2719*
X2390Y2715*
X2391Y2712*
X2393Y2708*
X2395Y2704*
X2398Y2701*
X2400Y2698*
X2403Y2695*
X2406Y2692*
X2410Y2689*
X2413Y2687*
X2417Y2685*
X2420Y2683*
X2424Y2681*
X2428Y2680*
X2432Y2679*
X2436Y2678*
X2440Y2678*
X2444Y2678*
X2468*
X2472Y2678*
X2476Y2678*
X2480Y2679*
X2484Y2680*
X2488Y2681*
X2492Y2683*
X2496Y2685*
X2499Y2687*
X2503Y2689*
X2506Y2692*
X2509Y2695*
X2512Y2698*
X2515Y2701*
X2517Y2704*
X2519Y2708*
X2521Y2712*
X2523Y2715*
X2524Y2719*
X2525Y2723*
X2526Y2727*
X2526Y2732*
X2526Y2736*
X2526Y2740*
X2526Y2744*
X2525Y2748*
X2524Y2752*
X2523Y2756*
X2521Y2760*
X2519Y2764*
X2517Y2767*
X2515Y2771*
X2512Y2774*
X2509Y2777*
X2506Y2780*
X2503Y2782*
X2499Y2785*
X2496Y2787*
X2492Y2789*
X2488Y2790*
X2484Y2792*
X2480Y2793*
X2476Y2793*
X2472Y2794*
X2468Y2794*
G37*
G36*
X316Y2719D02*
X313D01*
X311Y2719*
X308Y2718*
X306Y2717*
X303Y2716*
X301Y2715*
X299Y2713*
X298Y2712*
X296Y2710*
X295Y2707*
X293Y2705*
X293Y2703*
X292Y2700*
X292Y2698*
Y2695*
X292Y2693*
X293Y2690*
X293Y2688*
X295Y2685*
X296Y2683*
X298Y2681*
X299Y2679*
X301Y2678*
X303Y2676*
X306Y2675*
X308Y2674*
X311Y2674*
X313Y2674*
X316*
X318Y2674*
X321Y2674*
X323Y2675*
X325Y2676*
X328Y2678*
X330Y2679*
X331Y2681*
X333Y2683*
X334Y2685*
X335Y2688*
X336Y2690*
X337Y2693*
X337Y2695*
Y2698*
X337Y2700*
X336Y2703*
X335Y2705*
X334Y2707*
X333Y2710*
X331Y2712*
X330Y2713*
X328Y2715*
X325Y2716*
X323Y2717*
X321Y2718*
X318Y2719*
X316Y2719*
G37*
G36*
Y2601D02*
X313D01*
X311Y2601*
X308Y2600*
X306Y2599*
X303Y2598*
X301Y2597*
X299Y2595*
X298Y2593*
X296Y2591*
X295Y2589*
X293Y2587*
X293Y2585*
X292Y2582*
X292Y2580*
Y2577*
X292Y2574*
X293Y2572*
X293Y2570*
X295Y2567*
X296Y2565*
X298Y2563*
X299Y2561*
X301Y2560*
X303Y2558*
X306Y2557*
X308Y2556*
X311Y2556*
X313Y2556*
X316*
X318Y2556*
X321Y2556*
X323Y2557*
X325Y2558*
X328Y2560*
X330Y2561*
X331Y2563*
X333Y2565*
X334Y2567*
X335Y2570*
X336Y2572*
X337Y2574*
X337Y2577*
Y2580*
X337Y2582*
X336Y2585*
X335Y2587*
X334Y2589*
X333Y2591*
X331Y2593*
X330Y2595*
X328Y2597*
X325Y2598*
X323Y2599*
X321Y2600*
X318Y2601*
X316Y2601*
G37*
G36*
X1745Y3069D02*
X1679D01*
X1677Y3069*
X1676Y3069*
X1674Y3068*
X1673Y3068*
X1672Y3067*
X1671Y3065*
X1670Y3064*
X1669Y3063*
X1669Y3061*
X1669Y3059*
Y3003*
X1669Y3001*
X1669Y3001*
X1647Y2978*
X1646Y2977*
X1645Y2976*
X1645Y2975*
X1644Y2973*
X1644Y2972*
Y2569*
X1644Y2569*
X1643Y2568*
X1642Y2566*
X1641Y2565*
X1640Y2563*
X1639Y2561*
X1639Y2559*
Y2558*
X1639Y2556*
X1640Y2554*
X1641Y2552*
X1642Y2551*
X1643Y2549*
X1644Y2548*
X1645Y2547*
X1647Y2546*
X1649Y2545*
X1650Y2545*
X1652Y2545*
X1654*
X1656Y2545*
X1658Y2545*
X1659Y2546*
X1661Y2547*
X1662Y2548*
X1663Y2549*
X1665Y2551*
X1666Y2552*
X1666Y2554*
X1667Y2556*
X1667Y2558*
Y2559*
X1667Y2561*
X1666Y2563*
X1666Y2565*
X1665Y2566*
X1663Y2568*
X1662Y2569*
X1662Y2569*
Y2968*
X1685Y2991*
X1686Y2992*
X1686Y2993*
X1745*
X1747Y2993*
X1749Y2993*
X1750Y2994*
X1751Y2994*
X1753Y2995*
X1754Y2997*
X1754Y2998*
X1755Y2999*
X1755Y3001*
X1756Y3003*
Y3059*
X1755Y3061*
X1755Y3063*
X1754Y3064*
X1754Y3065*
X1753Y3067*
X1751Y3068*
X1750Y3068*
X1749Y3069*
X1747Y3069*
X1745Y3069*
G37*
G36*
X1510Y2528D02*
X1506D01*
X1502Y2528*
X1499Y2527*
X1495Y2526*
X1491Y2525*
X1488Y2524*
X1485Y2522*
X1481Y2521*
X1478Y2519*
X1475Y2516*
X1472Y2514*
X1470Y2511*
X1467Y2509*
X1465Y2506*
X1463Y2503*
X1461Y2499*
X1460Y2496*
X1459Y2492*
X1458Y2489*
X1457Y2485*
X1456Y2482*
X1456Y2478*
Y2474*
X1456Y2471*
X1457Y2467*
X1458Y2463*
X1459Y2460*
X1460Y2456*
X1461Y2453*
X1463Y2450*
X1465Y2447*
X1467Y2444*
X1470Y2441*
X1472Y2438*
X1475Y2436*
X1478Y2434*
X1481Y2432*
X1485Y2430*
X1488Y2428*
X1491Y2427*
X1495Y2426*
X1499Y2425*
X1502Y2425*
X1506Y2424*
X1510*
X1513Y2425*
X1517Y2425*
X1521Y2426*
X1524Y2427*
X1528Y2428*
X1531Y2430*
X1534Y2432*
X1537Y2434*
X1540Y2436*
X1543Y2438*
X1546Y2441*
X1548Y2444*
X1550Y2447*
X1552Y2450*
X1554Y2453*
X1556Y2456*
X1557Y2460*
X1558Y2463*
X1559Y2467*
X1559Y2471*
X1560Y2474*
Y2478*
X1559Y2482*
X1559Y2485*
X1558Y2489*
X1557Y2492*
X1556Y2496*
X1554Y2499*
X1552Y2503*
X1550Y2506*
X1548Y2509*
X1546Y2511*
X1543Y2514*
X1540Y2516*
X1537Y2519*
X1534Y2521*
X1531Y2522*
X1528Y2524*
X1524Y2525*
X1521Y2526*
X1517Y2527*
X1513Y2528*
X1510Y2528*
G37*
G36*
X1285D02*
X1281D01*
X1277Y2528*
X1274Y2527*
X1270Y2526*
X1266Y2525*
X1263Y2524*
X1260Y2522*
X1256Y2521*
X1253Y2519*
X1250Y2516*
X1247Y2514*
X1245Y2511*
X1242Y2509*
X1240Y2506*
X1238Y2503*
X1236Y2499*
X1235Y2496*
X1234Y2492*
X1233Y2489*
X1232Y2485*
X1231Y2482*
X1231Y2478*
Y2474*
X1231Y2471*
X1232Y2467*
X1233Y2463*
X1234Y2460*
X1235Y2456*
X1236Y2453*
X1238Y2450*
X1240Y2447*
X1242Y2444*
X1245Y2441*
X1247Y2438*
X1250Y2436*
X1253Y2434*
X1256Y2432*
X1260Y2430*
X1263Y2428*
X1266Y2427*
X1270Y2426*
X1274Y2425*
X1277Y2425*
X1281Y2424*
X1285*
X1288Y2425*
X1292Y2425*
X1296Y2426*
X1299Y2427*
X1303Y2428*
X1306Y2430*
X1309Y2432*
X1312Y2434*
X1315Y2436*
X1318Y2438*
X1321Y2441*
X1323Y2444*
X1325Y2447*
X1327Y2450*
X1329Y2453*
X1331Y2456*
X1332Y2460*
X1333Y2463*
X1334Y2467*
X1334Y2471*
X1335Y2474*
Y2478*
X1334Y2482*
X1334Y2485*
X1333Y2489*
X1332Y2492*
X1331Y2496*
X1329Y2499*
X1327Y2503*
X1325Y2506*
X1323Y2509*
X1321Y2511*
X1318Y2514*
X1315Y2516*
X1312Y2519*
X1309Y2521*
X1306Y2522*
X1303Y2524*
X1299Y2525*
X1296Y2526*
X1292Y2527*
X1288Y2528*
X1285Y2528*
G37*
G36*
X1209Y2441D02*
X1206D01*
X1204Y2440*
X1201Y2440*
X1198Y2439*
X1196Y2438*
X1194Y2436*
X1191Y2434*
X1189Y2432*
X1188Y2430*
X1186Y2428*
X1185Y2425*
X1184Y2423*
X1184Y2420*
X1183Y2417*
Y2415*
X1184Y2412*
X1184Y2409*
X1185Y2407*
X1186Y2404*
X1188Y2402*
X1189Y2400*
X1191Y2398*
X1194Y2396*
X1196Y2395*
X1198Y2393*
X1201Y2393*
X1204Y2392*
X1206Y2392*
X1209*
X1212Y2392*
X1215Y2393*
X1217Y2393*
X1220Y2395*
X1222Y2396*
X1224Y2398*
X1226Y2400*
X1228Y2402*
X1229Y2404*
X1230Y2407*
X1231Y2409*
X1232Y2412*
X1232Y2415*
Y2417*
X1232Y2420*
X1231Y2423*
X1230Y2425*
X1229Y2428*
X1228Y2430*
X1226Y2432*
X1224Y2434*
X1222Y2436*
X1220Y2438*
X1217Y2439*
X1215Y2440*
X1212Y2440*
X1209Y2441*
G37*
G36*
X1509Y2401D02*
X1506D01*
X1504Y2400*
X1501Y2400*
X1498Y2399*
X1496Y2398*
X1494Y2396*
X1491Y2394*
X1489Y2392*
X1488Y2390*
X1486Y2388*
X1485Y2385*
X1484Y2383*
X1484Y2380*
X1483Y2377*
Y2375*
X1484Y2372*
X1484Y2369*
X1485Y2367*
X1486Y2364*
X1488Y2362*
X1489Y2360*
X1491Y2358*
X1494Y2356*
X1496Y2355*
X1498Y2353*
X1501Y2352*
X1504Y2352*
X1506Y2352*
X1509*
X1512Y2352*
X1515Y2352*
X1517Y2353*
X1520Y2355*
X1522Y2356*
X1524Y2358*
X1526Y2360*
X1528Y2362*
X1529Y2364*
X1530Y2367*
X1531Y2369*
X1532Y2372*
X1532Y2375*
Y2377*
X1532Y2380*
X1531Y2383*
X1530Y2385*
X1529Y2388*
X1528Y2390*
X1526Y2392*
X1524Y2394*
X1522Y2396*
X1520Y2398*
X1517Y2399*
X1515Y2400*
X1512Y2400*
X1509Y2401*
G37*
G36*
X2468Y2463D02*
X2444D01*
X2440Y2463*
X2436Y2463*
X2432Y2462*
X2428Y2461*
X2424Y2460*
X2420Y2458*
X2417Y2456*
X2413Y2454*
X2410Y2452*
X2406Y2449*
X2403Y2446*
X2400Y2443*
X2398Y2440*
X2395Y2436*
X2393Y2433*
X2391Y2429*
X2390Y2425*
X2389Y2421*
X2388Y2417*
X2387Y2413*
X2386Y2409*
X2386Y2405*
X2386Y2401*
X2387Y2397*
X2388Y2393*
X2389Y2389*
X2390Y2385*
X2391Y2381*
X2393Y2377*
X2395Y2374*
X2398Y2370*
X2400Y2367*
X2403Y2364*
X2406Y2361*
X2410Y2358*
X2413Y2356*
X2417Y2354*
X2420Y2352*
X2424Y2350*
X2428Y2349*
X2432Y2348*
X2436Y2347*
X2440Y2347*
X2444Y2347*
X2468*
X2472Y2347*
X2476Y2347*
X2480Y2348*
X2484Y2349*
X2488Y2350*
X2492Y2352*
X2496Y2354*
X2499Y2356*
X2503Y2358*
X2506Y2361*
X2509Y2364*
X2512Y2367*
X2515Y2370*
X2517Y2374*
X2519Y2377*
X2521Y2381*
X2523Y2385*
X2524Y2389*
X2525Y2393*
X2526Y2397*
X2526Y2401*
X2526Y2405*
X2526Y2409*
X2526Y2413*
X2525Y2417*
X2524Y2421*
X2523Y2425*
X2521Y2429*
X2519Y2433*
X2517Y2436*
X2515Y2440*
X2512Y2443*
X2509Y2446*
X2506Y2449*
X2503Y2452*
X2499Y2454*
X2496Y2456*
X2492Y2458*
X2488Y2460*
X2484Y2461*
X2480Y2462*
X2476Y2463*
X2472Y2463*
X2468Y2463*
G37*
G36*
X579Y3455D02*
X483D01*
X481Y3455*
X480Y3455*
X478Y3454*
X477Y3453*
X476Y3452*
X475Y3451*
X474Y3450*
X473Y3449*
X473Y3447*
X473Y3446*
Y3325*
X473Y3324*
X473Y3322*
X474Y3321*
X475Y3319*
X476Y3318*
X477Y3317*
X478Y3316*
X480Y3316*
X481Y3315*
X483Y3315*
X564*
X564Y3315*
X566*
X651Y3230*
X653Y3228*
X656Y3227*
X658Y3225*
X661Y3224*
X663Y3223*
X666Y3223*
X669Y3223*
X2076*
X2187Y3111*
Y2271*
X2188Y2268*
X2188Y2266*
X2189Y2263*
X2190Y2260*
X2191Y2258*
X2193Y2256*
X2195Y2254*
X2311Y2137*
X2313Y2135*
X2316Y2134*
X2318Y2132*
X2321Y2131*
X2323Y2130*
X2326Y2130*
X2329Y2130*
X2540*
X2543Y2130*
X2546Y2130*
X2548Y2131*
X2551Y2132*
X2553Y2134*
X2556Y2135*
X2558Y2137*
X2584Y2163*
X2586Y2165*
X2587Y2167*
X2589Y2170*
X2590Y2172*
X2591Y2175*
X2591Y2178*
X2591Y2181*
Y2300*
X2641Y2350*
X2645Y2349*
X2649Y2348*
X2653Y2347*
X2657Y2347*
X2661Y2347*
X2685*
X2689Y2347*
X2693Y2347*
X2697Y2348*
X2701Y2349*
X2705Y2350*
X2709Y2352*
X2712Y2354*
X2716Y2356*
X2719Y2358*
X2723Y2361*
X2726Y2364*
X2729Y2367*
X2731Y2370*
X2733Y2374*
X2736Y2377*
X2737Y2381*
X2739Y2385*
X2740Y2389*
X2741Y2393*
X2742Y2397*
X2743Y2401*
X2743Y2405*
X2743Y2409*
X2742Y2413*
X2741Y2417*
X2740Y2421*
X2739Y2425*
X2737Y2429*
X2736Y2433*
X2733Y2436*
X2731Y2440*
X2729Y2443*
X2726Y2446*
X2723Y2449*
X2719Y2452*
X2716Y2454*
X2712Y2456*
X2709Y2458*
X2705Y2460*
X2701Y2461*
X2697Y2462*
X2693Y2463*
X2689Y2463*
X2685Y2463*
X2661*
X2657Y2463*
X2653Y2463*
X2649Y2462*
X2645Y2461*
X2641Y2460*
X2637Y2458*
X2633Y2456*
X2629Y2454*
X2626Y2452*
X2623Y2449*
X2620Y2446*
X2617Y2443*
X2614Y2440*
X2612Y2436*
X2610Y2433*
X2608Y2429*
X2606Y2425*
X2605Y2421*
X2604Y2417*
X2603Y2413*
X2603Y2409*
X2603Y2405*
X2603Y2401*
X2603Y2397*
X2604Y2393*
X2605Y2389*
X2606Y2385*
X2549Y2328*
X2547Y2326*
X2545Y2324*
X2544Y2321*
X2543Y2319*
X2542Y2316*
X2542Y2313*
X2542Y2311*
Y2191*
X2530Y2179*
X2523*
X2522Y2183*
X2522Y2183*
X2523Y2184*
X2524Y2186*
X2525Y2187*
X2526Y2188*
X2526Y2190*
X2526Y2191*
Y2288*
X2526Y2290*
X2526Y2291*
X2525Y2292*
X2524Y2294*
X2523Y2295*
X2522Y2296*
X2521Y2297*
X2519Y2297*
X2518Y2298*
X2516Y2298*
X2396*
X2394Y2298*
X2393Y2297*
X2392Y2297*
X2390Y2296*
X2389Y2295*
X2388Y2294*
X2387Y2292*
X2387Y2291*
X2386Y2290*
X2386Y2288*
Y2191*
X2386Y2190*
X2387Y2188*
X2387Y2187*
X2388Y2186*
X2389Y2184*
X2390Y2183*
X2391Y2183*
X2389Y2179*
X2339*
X2237Y2281*
Y3122*
X2237Y3124*
X2236Y3127*
X2235Y3130*
X2234Y3132*
X2233Y3135*
X2231Y3137*
X2230Y3139*
X2104Y3265*
X2102Y3267*
X2099Y3268*
X2097Y3270*
X2094Y3271*
X2092Y3272*
X2089Y3272*
X2086Y3272*
X679*
X594Y3358*
X592Y3359*
X589Y3361*
X589Y3361*
Y3446*
X589Y3447*
X589Y3449*
X588Y3450*
X587Y3451*
X586Y3452*
X585Y3453*
X584Y3454*
X582Y3455*
X581Y3455*
X579Y3455*
G37*
G36*
X1209Y2361D02*
X1206D01*
X1204Y2360*
X1201Y2360*
X1198Y2359*
X1196Y2358*
X1194Y2356*
X1191Y2354*
X1189Y2352*
X1188Y2350*
X1186Y2348*
X1185Y2345*
X1184Y2343*
X1184Y2340*
X1183Y2337*
Y2335*
X1184Y2332*
X1184Y2329*
X1185Y2327*
X1186Y2324*
X1188Y2322*
X1189Y2320*
X1191Y2318*
X1194Y2316*
X1196Y2315*
X1198Y2313*
X1201Y2312*
X1204Y2312*
X1206Y2312*
X1209*
X1212Y2312*
X1215Y2312*
X1217Y2313*
X1220Y2315*
X1222Y2316*
X1224Y2318*
X1226Y2320*
X1228Y2322*
X1229Y2324*
X1230Y2327*
X1231Y2329*
X1232Y2332*
X1232Y2335*
Y2337*
X1232Y2340*
X1231Y2343*
X1230Y2345*
X1229Y2348*
X1228Y2350*
X1226Y2352*
X1224Y2354*
X1222Y2356*
X1220Y2358*
X1217Y2359*
X1215Y2360*
X1212Y2360*
X1209Y2361*
G37*
G36*
X1510Y2328D02*
X1506D01*
X1502Y2328*
X1499Y2327*
X1495Y2326*
X1491Y2325*
X1488Y2324*
X1485Y2322*
X1481Y2321*
X1478Y2319*
X1475Y2316*
X1472Y2314*
X1470Y2311*
X1467Y2309*
X1465Y2306*
X1463Y2303*
X1461Y2299*
X1460Y2296*
X1459Y2292*
X1458Y2289*
X1457Y2285*
X1456Y2282*
X1456Y2278*
Y2274*
X1456Y2271*
X1457Y2267*
X1458Y2263*
X1459Y2260*
X1460Y2256*
X1461Y2253*
X1463Y2250*
X1465Y2247*
X1467Y2244*
X1470Y2241*
X1472Y2238*
X1475Y2236*
X1478Y2234*
X1481Y2232*
X1485Y2230*
X1488Y2228*
X1491Y2227*
X1495Y2226*
X1499Y2225*
X1502Y2225*
X1506Y2224*
X1510*
X1513Y2225*
X1517Y2225*
X1521Y2226*
X1524Y2227*
X1528Y2228*
X1531Y2230*
X1534Y2232*
X1537Y2234*
X1540Y2236*
X1543Y2238*
X1546Y2241*
X1548Y2244*
X1550Y2247*
X1552Y2250*
X1554Y2253*
X1556Y2256*
X1557Y2260*
X1558Y2263*
X1559Y2267*
X1559Y2271*
X1560Y2274*
Y2278*
X1559Y2282*
X1559Y2285*
X1558Y2289*
X1557Y2292*
X1556Y2296*
X1554Y2299*
X1552Y2303*
X1550Y2306*
X1548Y2309*
X1546Y2311*
X1543Y2314*
X1540Y2316*
X1537Y2319*
X1534Y2321*
X1531Y2322*
X1528Y2324*
X1524Y2325*
X1521Y2326*
X1517Y2327*
X1513Y2328*
X1510Y2328*
G37*
G36*
X1285D02*
X1281D01*
X1277Y2328*
X1274Y2327*
X1270Y2326*
X1266Y2325*
X1263Y2324*
X1260Y2322*
X1256Y2321*
X1253Y2319*
X1250Y2316*
X1247Y2314*
X1245Y2311*
X1242Y2309*
X1240Y2306*
X1238Y2303*
X1236Y2299*
X1235Y2296*
X1234Y2292*
X1233Y2289*
X1232Y2285*
X1231Y2282*
X1231Y2278*
Y2274*
X1231Y2271*
X1232Y2267*
X1233Y2263*
X1234Y2260*
X1235Y2256*
X1236Y2253*
X1238Y2250*
X1240Y2247*
X1242Y2244*
X1245Y2241*
X1247Y2238*
X1250Y2236*
X1253Y2234*
X1256Y2232*
X1260Y2230*
X1263Y2228*
X1266Y2227*
X1270Y2226*
X1274Y2225*
X1277Y2225*
X1281Y2224*
X1285*
X1288Y2225*
X1292Y2225*
X1296Y2226*
X1299Y2227*
X1303Y2228*
X1306Y2230*
X1309Y2232*
X1312Y2234*
X1315Y2236*
X1318Y2238*
X1321Y2241*
X1323Y2244*
X1325Y2247*
X1327Y2250*
X1329Y2253*
X1331Y2256*
X1332Y2260*
X1333Y2263*
X1334Y2267*
X1334Y2271*
X1335Y2274*
Y2278*
X1334Y2282*
X1334Y2285*
X1333Y2289*
X1332Y2292*
X1331Y2296*
X1329Y2299*
X1327Y2303*
X1325Y2306*
X1323Y2309*
X1321Y2311*
X1318Y2314*
X1315Y2316*
X1312Y2319*
X1309Y2321*
X1306Y2322*
X1303Y2324*
X1299Y2325*
X1296Y2326*
X1292Y2327*
X1288Y2328*
X1285Y2328*
G37*
G36*
X2685Y2298D02*
X2661D01*
X2657Y2298*
X2653Y2297*
X2649Y2297*
X2645Y2295*
X2641Y2294*
X2637Y2293*
X2633Y2291*
X2629Y2289*
X2626Y2286*
X2623Y2284*
X2620Y2281*
X2617Y2278*
X2614Y2275*
X2612Y2271*
X2610Y2268*
X2608Y2264*
X2606Y2260*
X2605Y2256*
X2604Y2252*
X2603Y2248*
X2603Y2244*
X2603Y2240*
X2603Y2236*
X2603Y2231*
X2604Y2227*
X2605Y2223*
X2606Y2219*
X2608Y2215*
X2610Y2212*
X2612Y2208*
X2614Y2205*
X2617Y2202*
X2620Y2199*
X2623Y2196*
X2626Y2193*
X2629Y2191*
X2633Y2189*
X2637Y2187*
X2641Y2185*
X2645Y2184*
X2649Y2183*
X2653Y2182*
X2657Y2182*
X2661Y2181*
X2685*
X2689Y2182*
X2693Y2182*
X2697Y2183*
X2701Y2184*
X2705Y2185*
X2709Y2187*
X2712Y2189*
X2716Y2191*
X2719Y2193*
X2723Y2196*
X2726Y2199*
X2729Y2202*
X2731Y2205*
X2733Y2208*
X2736Y2212*
X2737Y2215*
X2739Y2219*
X2740Y2223*
X2741Y2227*
X2742Y2231*
X2743Y2236*
X2743Y2240*
X2743Y2244*
X2742Y2248*
X2741Y2252*
X2740Y2256*
X2739Y2260*
X2737Y2264*
X2736Y2268*
X2733Y2271*
X2731Y2275*
X2729Y2278*
X2726Y2281*
X2723Y2284*
X2719Y2286*
X2716Y2289*
X2712Y2291*
X2709Y2293*
X2705Y2294*
X2701Y2295*
X2697Y2297*
X2693Y2297*
X2689Y2298*
X2685Y2298*
G37*
G36*
X319Y2223D02*
X310D01*
X306Y2223*
X303Y2222*
X300Y2222*
X296Y2221*
X293Y2219*
X290Y2218*
X287Y2216*
X285Y2214*
X282Y2212*
X280Y2209*
X278Y2207*
X276Y2204*
X275Y2201*
X273Y2198*
X272Y2195*
X272Y2191*
X271Y2188*
X271Y2185*
X271Y2181*
X272Y2178*
X272Y2175*
X273Y2171*
X275Y2168*
X276Y2165*
X278Y2162*
X280Y2160*
X282Y2157*
X285Y2155*
X287Y2153*
X290Y2151*
X293Y2150*
X296Y2148*
X300Y2147*
X303Y2147*
X306Y2146*
X310Y2146*
X319*
X323Y2146*
X326Y2147*
X329Y2147*
X333Y2148*
X336Y2150*
X339Y2151*
X341Y2153*
X344Y2155*
X347Y2157*
X349Y2160*
X351Y2162*
X353Y2165*
X354Y2168*
X356Y2171*
X357Y2175*
X357Y2178*
X358Y2181*
X358Y2185*
X358Y2188*
X357Y2191*
X357Y2195*
X356Y2198*
X354Y2201*
X353Y2204*
X351Y2207*
X349Y2209*
X347Y2212*
X344Y2214*
X341Y2216*
X339Y2218*
X336Y2219*
X333Y2221*
X329Y2222*
X326Y2222*
X323Y2223*
X319Y2223*
G37*
G36*
X1359Y2466D02*
X1357D01*
X1355Y2466*
X1353Y2465*
X1352Y2465*
X1350Y2464*
X1349Y2463*
X1347Y2461*
X1346Y2460*
X1345Y2458*
X1345Y2457*
X1344Y2455*
X1344Y2453*
Y2451*
X1344Y2450*
X1345Y2448*
X1345Y2446*
X1346Y2445*
X1347Y2443*
X1349Y2442*
X1349Y2442*
Y2185*
X1349Y2183*
X1349Y2182*
X1350Y2180*
X1351Y2179*
X1351Y2178*
X1403Y2127*
X1403Y2126*
Y2125*
X1403Y2123*
X1404Y2121*
X1404Y2119*
X1405Y2118*
X1406Y2116*
X1408Y2115*
X1409Y2114*
X1411Y2113*
X1412Y2112*
X1414Y2112*
X1416Y2112*
X1418*
X1420Y2112*
X1421Y2112*
X1423Y2113*
X1425Y2114*
X1426Y2115*
X1427Y2116*
X1428Y2118*
X1429Y2119*
X1430Y2121*
X1430Y2123*
X1431Y2125*
Y2126*
X1430Y2128*
X1430Y2130*
X1429Y2132*
X1428Y2133*
X1427Y2135*
X1426Y2136*
X1425Y2137*
X1423Y2138*
X1421Y2139*
X1420Y2139*
X1418Y2139*
X1416*
X1416Y2139*
X1367Y2188*
Y2442*
X1367Y2442*
X1368Y2443*
X1369Y2445*
X1370Y2446*
X1371Y2448*
X1371Y2450*
X1372Y2451*
Y2453*
X1371Y2455*
X1371Y2457*
X1370Y2458*
X1369Y2460*
X1368Y2461*
X1367Y2463*
X1365Y2464*
X1364Y2465*
X1362Y2465*
X1360Y2466*
X1359Y2466*
G37*
G36*
X1351Y2131D02*
X1349D01*
X1347Y2131*
X1345Y2131*
X1344Y2130*
X1342Y2129*
X1341Y2128*
X1339Y2127*
X1338Y2125*
X1337Y2124*
X1337Y2122*
X1336Y2120*
X1336Y2119*
Y2117*
X1336Y2116*
X958Y1738*
X957Y1737*
X956Y1736*
X956Y1735*
X955Y1733*
X955Y1732*
Y1452*
X922Y1419*
X922Y1419*
X920*
X918Y1419*
X916Y1418*
X915Y1417*
X913Y1417*
X912Y1415*
X910Y1414*
X909Y1413*
X908Y1411*
X908Y1409*
X907Y1408*
X907Y1406*
Y1404*
X907Y1402*
X908Y1401*
X908Y1399*
X909Y1397*
X910Y1396*
X912Y1395*
X913Y1393*
X915Y1393*
X916Y1392*
X918Y1391*
X920Y1391*
X922*
X923Y1391*
X925Y1392*
X927Y1393*
X928Y1393*
X930Y1395*
X931Y1396*
X932Y1397*
X933Y1399*
X934Y1401*
X934Y1402*
X935Y1404*
Y1406*
X935Y1406*
X970Y1442*
X971Y1443*
X972Y1444*
X973Y1446*
X973Y1447*
X973Y1448*
Y1728*
X1349Y2104*
X1349Y2104*
X1351*
X1353Y2104*
X1354Y2104*
X1356Y2105*
X1358Y2106*
X1359Y2107*
X1360Y2108*
X1361Y2110*
X1362Y2111*
X1363Y2113*
X1364Y2115*
X1364Y2117*
Y2119*
X1364Y2120*
X1363Y2122*
X1362Y2124*
X1361Y2125*
X1360Y2127*
X1359Y2128*
X1358Y2129*
X1356Y2130*
X1354Y2131*
X1353Y2131*
X1351Y2131*
G37*
G36*
X319Y2125D02*
X310D01*
X306Y2124*
X303Y2124*
X300Y2123*
X296Y2122*
X293Y2121*
X290Y2119*
X287Y2118*
X285Y2116*
X282Y2113*
X280Y2111*
X278Y2108*
X276Y2105*
X275Y2102*
X273Y2099*
X272Y2096*
X272Y2093*
X271Y2089*
X271Y2086*
X271Y2083*
X272Y2079*
X272Y2076*
X273Y2073*
X275Y2070*
X276Y2067*
X278Y2064*
X280Y2061*
X282Y2059*
X285Y2057*
X287Y2055*
X290Y2053*
X293Y2051*
X296Y2050*
X300Y2049*
X303Y2048*
X306Y2048*
X310Y2048*
X319*
X323Y2048*
X326Y2048*
X329Y2049*
X333Y2050*
X336Y2051*
X339Y2053*
X341Y2055*
X344Y2057*
X347Y2059*
X349Y2061*
X351Y2064*
X353Y2067*
X354Y2070*
X356Y2073*
X357Y2076*
X357Y2079*
X358Y2083*
X358Y2086*
X358Y2089*
X357Y2093*
X357Y2096*
X356Y2099*
X354Y2102*
X353Y2105*
X351Y2108*
X349Y2111*
X347Y2113*
X344Y2116*
X341Y2118*
X339Y2119*
X336Y2121*
X333Y2122*
X329Y2123*
X326Y2124*
X323Y2124*
X319Y2125*
G37*
G36*
X1721Y2071D02*
X1664D01*
X1662Y2071*
X1661Y2071*
X1659Y2070*
X1658Y2070*
X1657Y2069*
X1656Y2067*
X1655Y2066*
X1654Y2065*
X1654Y2063*
X1654Y2061*
Y1993*
X1654Y1991*
X1654Y1990*
X1655Y1988*
X1656Y1987*
X1657Y1986*
X1658Y1985*
X1659Y1984*
X1661Y1983*
X1662Y1983*
X1664Y1983*
X1721*
X1722Y1983*
X1724Y1983*
X1725Y1984*
X1727Y1985*
X1728Y1986*
X1729Y1987*
X1730Y1988*
X1730Y1990*
X1731Y1991*
X1731Y1993*
Y2061*
X1731Y2063*
X1730Y2065*
X1730Y2066*
X1729Y2067*
X1728Y2069*
X1727Y2070*
X1725Y2070*
X1724Y2071*
X1722Y2071*
X1721Y2071*
G37*
G36*
X319Y2026D02*
X310D01*
X306Y2026*
X303Y2026*
X300Y2025*
X296Y2024*
X293Y2023*
X290Y2021*
X287Y2019*
X285Y2017*
X282Y2015*
X280Y2012*
X278Y2010*
X276Y2007*
X275Y2004*
X273Y2001*
X272Y1998*
X272Y1994*
X271Y1991*
X271Y1988*
X271Y1984*
X272Y1981*
X272Y1978*
X273Y1975*
X275Y1971*
X276Y1968*
X278Y1966*
X280Y1963*
X282Y1960*
X285Y1958*
X287Y1956*
X290Y1954*
X293Y1953*
X296Y1952*
X300Y1951*
X303Y1950*
X306Y1949*
X310Y1949*
X319*
X323Y1949*
X326Y1950*
X329Y1951*
X333Y1952*
X336Y1953*
X339Y1954*
X341Y1956*
X344Y1958*
X347Y1960*
X349Y1963*
X351Y1966*
X353Y1968*
X354Y1971*
X356Y1975*
X357Y1978*
X357Y1981*
X358Y1984*
X358Y1988*
X358Y1991*
X357Y1994*
X357Y1998*
X356Y2001*
X354Y2004*
X353Y2007*
X351Y2010*
X349Y2012*
X347Y2015*
X344Y2017*
X341Y2019*
X339Y2021*
X336Y2023*
X333Y2024*
X329Y2025*
X326Y2026*
X323Y2026*
X319Y2026*
G37*
G36*
X1626Y1883D02*
X1625D01*
X1623Y1883*
X1621Y1883*
X1619Y1882*
X1618Y1881*
X1616Y1880*
X1615Y1879*
X1615Y1879*
X1318*
X1317Y1878*
X1316Y1878*
X1314Y1878*
X1313Y1877*
X1312Y1876*
X1241Y1805*
X1241Y1805*
X1239*
X1237Y1804*
X1235Y1804*
X1234Y1803*
X1232Y1802*
X1231Y1801*
X1229Y1800*
X1228Y1799*
X1227Y1797*
X1227Y1795*
X1226Y1794*
X1226Y1792*
Y1790*
X1226Y1788*
X1227Y1786*
X1227Y1785*
X1228Y1783*
X1229Y1782*
X1231Y1780*
X1232Y1779*
X1234Y1778*
X1235Y1778*
X1237Y1777*
X1239Y1777*
X1241*
X1242Y1777*
X1244Y1778*
X1246Y1778*
X1247Y1779*
X1249Y1780*
X1250Y1782*
X1251Y1783*
X1252Y1785*
X1253Y1786*
X1253Y1788*
X1254Y1790*
Y1792*
X1253Y1792*
X1322Y1861*
X1615*
X1615Y1860*
X1616Y1859*
X1618Y1858*
X1619Y1857*
X1621Y1856*
X1623Y1856*
X1625Y1856*
X1626*
X1628Y1856*
X1630Y1856*
X1632Y1857*
X1633Y1858*
X1635Y1859*
X1636Y1860*
X1637Y1862*
X1638Y1863*
X1639Y1865*
X1639Y1867*
X1639Y1869*
Y1870*
X1639Y1872*
X1639Y1874*
X1638Y1876*
X1637Y1877*
X1636Y1879*
X1635Y1880*
X1633Y1881*
X1632Y1882*
X1630Y1883*
X1628Y1883*
X1626Y1883*
G37*
G36*
X319Y1928D02*
X310D01*
X306Y1928*
X303Y1927*
X300Y1926*
X296Y1925*
X293Y1924*
X290Y1923*
X287Y1921*
X285Y1919*
X282Y1916*
X280Y1914*
X278Y1911*
X276Y1909*
X275Y1906*
X273Y1902*
X272Y1899*
X272Y1896*
X271Y1893*
X271Y1889*
X271Y1886*
X272Y1883*
X272Y1879*
X273Y1876*
X275Y1873*
X276Y1870*
X278Y1867*
X280Y1865*
X282Y1862*
X285Y1860*
X287Y1858*
X290Y1856*
X293Y1854*
X296Y1853*
X300Y1852*
X303Y1851*
X306Y1851*
X310Y1851*
X319*
X323Y1851*
X326Y1851*
X329Y1852*
X333Y1853*
X336Y1854*
X339Y1856*
X341Y1858*
X344Y1860*
X347Y1862*
X349Y1865*
X351Y1867*
X353Y1870*
X354Y1873*
X356Y1876*
X357Y1879*
X357Y1883*
X358Y1886*
X358Y1889*
X358Y1893*
X357Y1896*
X357Y1899*
X356Y1902*
X354Y1906*
X353Y1909*
X351Y1911*
X349Y1914*
X347Y1916*
X344Y1919*
X341Y1921*
X339Y1923*
X336Y1924*
X333Y1925*
X329Y1926*
X326Y1927*
X323Y1928*
X319Y1928*
G37*
G36*
X481Y2592D02*
X479D01*
X477Y2592*
X475Y2591*
X474Y2591*
X472Y2590*
X471Y2589*
X469Y2587*
X468Y2586*
X467Y2584*
X467Y2583*
X466Y2581*
X466Y2579*
Y2577*
X466Y2576*
X467Y2574*
X467Y2572*
X468Y2571*
X469Y2569*
X471Y2568*
X472Y2567*
X474Y2566*
X475Y2565*
X477Y2565*
X478Y2564*
X796Y2247*
Y1851*
X795Y1850*
X794Y1848*
X793Y1846*
X793Y1845*
X793Y1843*
Y1841*
X793Y1839*
X793Y1838*
X794Y1836*
X795Y1834*
X796Y1833*
X797Y1832*
X799Y1830*
X800Y1830*
X802Y1829*
X804Y1828*
X806Y1828*
X808*
X809Y1828*
X811Y1829*
X813Y1830*
X814Y1830*
X816Y1832*
X817Y1833*
X818Y1834*
X819Y1836*
X820Y1838*
X820Y1839*
X820Y1841*
Y1843*
X820Y1845*
X820Y1846*
X819Y1848*
X818Y1850*
X818Y1851*
Y2251*
X817Y2253*
X817Y2255*
X816Y2256*
X815Y2258*
X814Y2259*
X494Y2580*
X493Y2581*
X493Y2583*
X492Y2584*
X491Y2586*
X490Y2587*
X489Y2589*
X488Y2590*
X486Y2591*
X484Y2591*
X483Y2592*
X481Y2592*
G37*
G36*
X348Y1829D02*
X281D01*
X280Y1829*
X278Y1829*
X277Y1828*
X275Y1827*
X274Y1826*
X273Y1825*
X272Y1824*
X272Y1822*
X271Y1821*
X271Y1819*
Y1762*
X271Y1761*
X272Y1759*
X272Y1758*
X273Y1756*
X274Y1755*
X275Y1754*
X277Y1753*
X278Y1753*
X280Y1752*
X281Y1752*
X348*
X349Y1752*
X351Y1753*
X352Y1753*
X354Y1754*
X355Y1755*
X356Y1756*
X357Y1758*
X357Y1759*
X358Y1761*
X358Y1762*
Y1819*
X358Y1821*
X357Y1822*
X357Y1824*
X356Y1825*
X355Y1826*
X354Y1827*
X352Y1828*
X351Y1829*
X349Y1829*
X348Y1829*
G37*
G36*
X1556Y1746D02*
X1554D01*
X1552Y1745*
X1550Y1745*
X1548Y1744*
X1547Y1743*
X1545Y1742*
X1544Y1741*
X1544Y1741*
X1329*
X1329Y1741*
X1328Y1742*
X1326Y1743*
X1325Y1744*
X1323Y1745*
X1321Y1745*
X1319Y1746*
X1317*
X1316Y1745*
X1314Y1745*
X1312Y1744*
X1311Y1743*
X1309Y1742*
X1308Y1741*
X1307Y1740*
X1306Y1738*
X1305Y1736*
X1305Y1734*
X1305Y1733*
Y1731*
X1305Y1729*
X1305Y1727*
X1306Y1726*
X1307Y1724*
X1308Y1723*
X1309Y1721*
X1311Y1720*
X1312Y1719*
X1314Y1719*
X1316Y1718*
X1317Y1718*
X1319*
X1321Y1718*
X1323Y1719*
X1325Y1719*
X1326Y1720*
X1328Y1721*
X1329Y1723*
X1329Y1723*
X1544*
X1544Y1723*
X1545Y1721*
X1547Y1720*
X1548Y1719*
X1550Y1719*
X1552Y1718*
X1554Y1718*
X1556*
X1557Y1718*
X1559Y1719*
X1561Y1719*
X1562Y1720*
X1564Y1721*
X1565Y1723*
X1566Y1724*
X1567Y1726*
X1568Y1727*
X1568Y1729*
X1568Y1731*
Y1733*
X1568Y1734*
X1568Y1736*
X1567Y1738*
X1566Y1740*
X1565Y1741*
X1564Y1742*
X1562Y1743*
X1561Y1744*
X1559Y1745*
X1557Y1745*
X1556Y1746*
G37*
G36*
X2685Y2794D02*
X2661D01*
X2657Y2794*
X2653Y2793*
X2649Y2793*
X2645Y2792*
X2641Y2790*
X2637Y2789*
X2633Y2787*
X2629Y2785*
X2626Y2782*
X2623Y2780*
X2620Y2777*
X2617Y2774*
X2614Y2771*
X2612Y2767*
X2610Y2764*
X2608Y2760*
X2606Y2756*
X2605Y2752*
X2604Y2748*
X2603Y2744*
X2603Y2740*
X2603Y2736*
X2603Y2732*
X2603Y2727*
X2604Y2723*
X2605Y2719*
X2606Y2715*
X2608Y2712*
X2610Y2708*
X2612Y2704*
X2614Y2701*
X2617Y2698*
X2620Y2695*
X2623Y2692*
X2626Y2689*
X2629Y2687*
X2633Y2685*
X2637Y2683*
X2641Y2681*
X2645Y2680*
X2649Y2679*
X2653Y2678*
X2657Y2678*
X2661Y2678*
X2685*
X2689Y2678*
X2693Y2678*
X2697Y2679*
X2701Y2680*
X2705Y2681*
X2709Y2683*
X2712Y2685*
X2716Y2687*
X2719Y2689*
X2766Y2641*
Y2228*
X2645Y2107*
X2145*
X2144Y2107*
X2142Y2107*
X2141Y2106*
X2140Y2106*
X2139Y2105*
X1842Y1808*
X1685*
X1683Y1808*
X1682Y1808*
X1680Y1807*
X1679Y1806*
X1678Y1805*
X1584Y1711*
X1580Y1711*
X1578Y1712*
X1577Y1713*
X1575Y1713*
X1573Y1714*
X1571Y1714*
X1569*
X1568Y1714*
X1566Y1713*
X1564Y1713*
X1563Y1712*
X1561Y1711*
X1560Y1709*
X1559Y1708*
X1558Y1706*
X1557Y1705*
X1557Y1703*
X1557Y1701*
Y1699*
X1557Y1698*
X1557Y1696*
X1558Y1694*
X1559Y1693*
X1560Y1691*
X1561Y1690*
X1563Y1689*
X1564Y1688*
X1566Y1687*
X1568Y1687*
X1569Y1686*
X1571*
X1573Y1687*
X1575Y1687*
X1577Y1688*
X1578Y1689*
X1580Y1690*
X1581Y1691*
X1586*
X1588Y1691*
X1589Y1691*
X1590Y1692*
X1592Y1693*
X1593Y1694*
X1688Y1789*
X1846*
X1847Y1789*
X1849Y1790*
X1850Y1790*
X1851Y1791*
X1853Y1792*
X2149Y2089*
X2649*
X2651Y2089*
X2652Y2089*
X2653Y2090*
X2655Y2090*
X2656Y2091*
X2782Y2217*
X2783Y2218*
X2783Y2220*
X2784Y2221*
X2784Y2222*
X2784Y2224*
Y2645*
X2784Y2647*
X2784Y2648*
X2783Y2649*
X2783Y2651*
X2782Y2652*
X2732Y2702*
X2733Y2704*
X2736Y2708*
X2737Y2712*
X2739Y2715*
X2740Y2719*
X2741Y2723*
X2742Y2727*
X2743Y2732*
X2743Y2736*
X2743Y2740*
X2742Y2744*
X2741Y2748*
X2740Y2752*
X2739Y2756*
X2737Y2760*
X2736Y2764*
X2733Y2767*
X2731Y2771*
X2729Y2774*
X2726Y2777*
X2723Y2780*
X2719Y2782*
X2716Y2785*
X2712Y2787*
X2709Y2789*
X2705Y2790*
X2701Y2792*
X2697Y2793*
X2693Y2793*
X2689Y2794*
X2685Y2794*
G37*
G36*
X2468Y3455D02*
X2444D01*
X2440Y3455*
X2436Y3455*
X2432Y3454*
X2428Y3453*
X2424Y3452*
X2420Y3450*
X2417Y3448*
X2413Y3446*
X2410Y3444*
X2406Y3441*
X2403Y3438*
X2400Y3435*
X2398Y3432*
X2395Y3429*
X2393Y3425*
X2391Y3421*
X2390Y3417*
X2389Y3414*
X2388Y3410*
X2387Y3405*
X2386Y3401*
X2386Y3397*
X2386Y3393*
X2387Y3389*
X2388Y3385*
X2389Y3381*
X2390Y3377*
X2391Y3373*
X2393Y3369*
X2395Y3366*
X2398Y3362*
X2400Y3359*
X2403Y3356*
X2406Y3353*
X2410Y3351*
X2413Y3348*
X2417Y3346*
X2420Y3344*
X2424Y3343*
X2428Y3341*
X2432Y3340*
X2436Y3340*
X2440Y3339*
X2444Y3339*
X2468*
X2472Y3339*
X2476Y3340*
X2480Y3340*
X2484Y3341*
X2488Y3343*
X2492Y3344*
X2496Y3346*
X2499Y3348*
X2502Y3350*
X2552Y3300*
X2553Y3299*
X2554Y3298*
X2556Y3298*
X2557Y3297*
X2559Y3297*
X2752*
X2805Y3244*
Y2228*
X2657Y2080*
X2169*
X2167Y2080*
X2166Y2079*
X2165Y2079*
X2163Y2078*
X2162Y2077*
X1866Y1781*
X1692*
X1691Y1780*
X1690Y1780*
X1688Y1779*
X1687Y1779*
X1686Y1778*
X1595Y1687*
X1593*
X1591Y1686*
X1590Y1686*
X1588Y1685*
X1586Y1684*
X1585Y1683*
X1584Y1682*
X1582Y1680*
X1582Y1679*
X1581Y1677*
X1580Y1675*
X1580Y1674*
Y1672*
X1580Y1670*
X1581Y1668*
X1582Y1667*
X1582Y1665*
X1584Y1664*
X1585Y1662*
X1586Y1661*
X1588Y1660*
X1590Y1660*
X1591Y1659*
X1593Y1659*
X1595*
X1597Y1659*
X1598Y1660*
X1600Y1660*
X1604Y1658*
Y1656*
X1604Y1654*
X1604Y1653*
X1605Y1651*
X1606Y1649*
X1607Y1648*
X1608Y1647*
X1610Y1645*
X1611Y1645*
X1613Y1644*
X1615Y1643*
X1617Y1643*
X1619*
X1620Y1643*
X1622Y1644*
X1624Y1645*
X1625Y1645*
X1627Y1647*
X1628Y1648*
X1665*
X1666Y1648*
X1668Y1648*
X1669Y1649*
X1670Y1649*
X1671Y1650*
X1731Y1710*
X1733*
X1734Y1710*
X1736Y1711*
X1738Y1711*
X1740Y1712*
X1741Y1713*
X1742Y1715*
X1743Y1716*
X1744Y1718*
X1745Y1719*
X1745Y1721*
X1746Y1723*
Y1725*
X1745Y1727*
X1745Y1728*
X1744Y1730*
X1743Y1732*
X1742Y1733*
X1741Y1734*
X1740Y1735*
X1738Y1736*
X1736Y1737*
X1734Y1738*
X1733Y1738*
X1731*
X1729Y1738*
X1727Y1737*
X1726Y1736*
X1724Y1735*
X1723Y1734*
X1721Y1733*
X1720Y1732*
X1719Y1730*
X1719Y1728*
X1718Y1727*
X1718Y1725*
Y1723*
X1661Y1666*
X1628*
X1627Y1667*
X1625Y1669*
X1624Y1669*
X1622Y1670*
X1620Y1671*
X1619Y1671*
X1617*
X1615Y1671*
X1614Y1670*
X1612Y1671*
X1610Y1673*
X1610Y1675*
X1696Y1762*
X1870*
X1871Y1762*
X1872Y1762*
X1874Y1763*
X1875Y1764*
X1876Y1765*
X2173Y2061*
X2661*
X2662Y2061*
X2664Y2061*
X2665Y2062*
X2666Y2063*
X2668Y2064*
X2821Y2217*
X2822Y2218*
X2823Y2220*
X2823Y2221*
X2824Y2222*
X2824Y2224*
Y3248*
X2824Y3249*
X2823Y3250*
X2823Y3252*
X2822Y3253*
X2821Y3254*
X2762Y3313*
X2761Y3314*
X2760Y3315*
X2758Y3315*
X2757Y3316*
X2755Y3316*
X2562*
X2515Y3363*
X2517Y3366*
X2519Y3369*
X2521Y3373*
X2523Y3377*
X2524Y3381*
X2525Y3385*
X2526Y3389*
X2526Y3393*
X2526Y3397*
X2526Y3401*
X2526Y3405*
X2525Y3410*
X2524Y3414*
X2523Y3417*
X2521Y3421*
X2519Y3425*
X2517Y3429*
X2515Y3432*
X2512Y3435*
X2509Y3438*
X2506Y3441*
X2503Y3444*
X2499Y3446*
X2496Y3448*
X2492Y3450*
X2488Y3452*
X2484Y3453*
X2480Y3454*
X2476Y3455*
X2472Y3455*
X2468Y3455*
G37*
G36*
X2953Y2533D02*
X2951D01*
X2950Y2533*
X2948Y2532*
X2946Y2532*
X2945Y2531*
X2943Y2530*
X2942Y2528*
X2941Y2527*
X2940Y2525*
X2939Y2524*
X2939Y2522*
X2938Y2520*
Y2518*
X2939Y2516*
X2939Y2515*
X2940Y2513*
X2941Y2511*
X2942Y2510*
X2943Y2509*
X2943Y2509*
Y2287*
X2681Y2024*
X2224*
X2223Y2024*
X2221Y2024*
X2220Y2023*
X2219Y2023*
X2218Y2022*
X1954Y1758*
X1953Y1757*
X1952Y1756*
X1952Y1754*
X1951Y1753*
X1951Y1751*
Y1582*
X1863Y1494*
X1863Y1494*
X1861*
X1859Y1493*
X1857Y1493*
X1856Y1492*
X1854Y1491*
X1853Y1490*
X1851Y1489*
X1850Y1488*
X1849Y1486*
X1849Y1484*
X1848Y1483*
X1848Y1481*
Y1479*
X1848Y1477*
X1849Y1475*
X1849Y1474*
X1850Y1472*
X1851Y1471*
X1853Y1469*
X1854Y1468*
X1856Y1467*
X1857Y1467*
X1859Y1466*
X1861Y1466*
X1863*
X1864Y1466*
X1866Y1467*
X1868Y1467*
X1869Y1468*
X1871Y1469*
X1872Y1471*
X1873Y1472*
X1874Y1474*
X1875Y1475*
X1875Y1477*
X1876Y1479*
Y1481*
X1876Y1481*
X1919Y1524*
X1923Y1523*
Y1522*
X1923Y1520*
X1923Y1519*
X1924Y1517*
X1925Y1515*
X1926Y1514*
X1927Y1513*
X1929Y1512*
X1930Y1511*
X1932Y1510*
X1934Y1510*
X1936Y1509*
X1937*
X1939Y1510*
X1941Y1510*
X1943Y1511*
X1944Y1512*
X1946Y1513*
X1947Y1514*
X1948Y1515*
X1949Y1517*
X1950Y1519*
X1950Y1520*
X1950Y1522*
Y1524*
X1950Y1524*
X1994Y1568*
X1995Y1569*
X1996Y1570*
X1996Y1572*
X1997Y1573*
X1997Y1574*
Y1724*
X2251Y1979*
X2822*
X2824Y1979*
X2825Y1979*
X2826Y1980*
X2828Y1980*
X2829Y1981*
X2998Y2151*
X2999Y2152*
X3000Y2153*
X3000Y2154*
X3000Y2156*
X3001Y2157*
Y2469*
X3001Y2469*
X3002Y2471*
X3003Y2472*
X3004Y2474*
X3005Y2475*
X3005Y2477*
X3005Y2479*
Y2481*
X3005Y2483*
X3005Y2484*
X3004Y2486*
X3003Y2488*
X3002Y2489*
X3001Y2490*
X2999Y2491*
X2998Y2492*
X2996Y2493*
X2994Y2493*
X2993Y2494*
X2991*
X2989Y2493*
X2987Y2493*
X2985Y2492*
X2984Y2491*
X2982Y2490*
X2981Y2489*
X2980Y2488*
X2979Y2486*
X2978Y2484*
X2978Y2483*
X2978Y2481*
Y2479*
X2978Y2477*
X2978Y2475*
X2979Y2474*
X2980Y2472*
X2981Y2471*
X2982Y2469*
X2983Y2469*
Y2161*
X2819Y1997*
X2248*
X2246Y1997*
X2245Y1996*
X2243Y1996*
X2242Y1995*
X2241Y1994*
X1981Y1734*
X1980Y1733*
X1980Y1732*
X1979Y1731*
X1979Y1729*
X1979Y1728*
Y1578*
X1940Y1540*
X1940Y1540*
X1938Y1544*
X1966Y1572*
X1967Y1573*
X1968Y1574*
X1969Y1575*
X1969Y1577*
X1969Y1578*
Y1748*
X2228Y2006*
X2685*
X2686Y2006*
X2687Y2007*
X2689Y2007*
X2690Y2008*
X2691Y2009*
X2959Y2277*
X2960Y2278*
X2960Y2279*
X2961Y2280*
X2961Y2282*
X2961Y2283*
Y2509*
X2961Y2509*
X2963Y2510*
X2964Y2511*
X2965Y2513*
X2965Y2515*
X2966Y2516*
X2966Y2518*
Y2520*
X2966Y2522*
X2965Y2524*
X2965Y2525*
X2964Y2527*
X2963Y2528*
X2961Y2530*
X2960Y2531*
X2958Y2532*
X2957Y2532*
X2955Y2533*
X2953Y2533*
G37*
G36*
X302Y1512D02*
X272D01*
Y1507*
X252*
X251Y1507*
X250Y1508*
X248Y1509*
X246Y1509*
X245Y1509*
X243*
X241Y1509*
X239Y1509*
X237Y1508*
X236Y1507*
X234Y1506*
X233Y1505*
X232Y1503*
X231Y1502*
X230Y1500*
X230Y1498*
X230Y1496*
Y1495*
X230Y1493*
X230Y1491*
X231Y1489*
X232Y1488*
X233Y1486*
X234Y1485*
X236Y1484*
X237Y1483*
X239Y1482*
X241Y1482*
X243Y1482*
X245*
X246Y1482*
X248Y1482*
X250Y1483*
X251Y1484*
X252Y1485*
X272*
Y1480*
X302*
Y1512*
G37*
G36*
X3032Y2454D02*
X3030D01*
X3028Y2454*
X3027Y2454*
X3025Y2453*
X3023Y2452*
X3022Y2451*
X3021Y2450*
X3019Y2448*
X3019Y2447*
X3018Y2445*
X3017Y2443*
X3017Y2441*
Y2440*
X3017Y2438*
X3018Y2436*
X3019Y2434*
X3019Y2433*
X3021Y2431*
X3022Y2430*
X3022Y2430*
Y2161*
X2830Y1969*
X2267*
X2266Y1969*
X2264Y1969*
X2263Y1968*
X2262Y1967*
X2261Y1966*
X2013Y1718*
X2012Y1717*
X2011Y1716*
X2011Y1715*
X2010Y1714*
X2010Y1712*
Y1566*
X1977Y1533*
X1977*
X1975Y1533*
X1974Y1533*
X1973Y1532*
X1972Y1531*
X1970Y1530*
X1938Y1498*
X1937Y1498*
X1936*
X1934Y1497*
X1932Y1497*
X1930Y1496*
X1929Y1495*
X1927Y1494*
X1926Y1493*
X1925Y1491*
X1924Y1490*
X1923Y1488*
X1923Y1486*
X1923Y1485*
Y1483*
X1923Y1481*
X1923Y1479*
X1924Y1478*
X1925Y1476*
X1926Y1475*
X1927Y1473*
X1929Y1472*
X1930Y1471*
X1932Y1471*
X1934Y1470*
X1936Y1470*
X1937*
X1939Y1470*
X1941Y1471*
X1943Y1471*
X1944Y1472*
X1946Y1473*
X1947Y1475*
X1948Y1476*
X1949Y1478*
X1950Y1479*
X1950Y1481*
X1950Y1483*
Y1485*
X1950Y1485*
X1981Y1515*
X1981*
X1982Y1515*
X1984Y1516*
X1985Y1516*
X1986Y1517*
X1987Y1518*
X2026Y1556*
X2026Y1557*
X2027Y1558*
X2028Y1560*
X2028Y1561*
X2028Y1562*
Y1708*
X2271Y1951*
X2834*
X2836Y1951*
X2837Y1952*
X2838Y1952*
X2839Y1953*
X2840Y1954*
X3037Y2151*
X3038Y2152*
X3039Y2153*
X3040Y2154*
X3040Y2156*
X3040Y2157*
Y2430*
X3040Y2430*
X3041Y2431*
X3043Y2433*
X3043Y2434*
X3044Y2436*
X3045Y2438*
X3045Y2440*
Y2441*
X3045Y2443*
X3044Y2445*
X3043Y2447*
X3043Y2448*
X3041Y2450*
X3040Y2451*
X3039Y2452*
X3037Y2453*
X3035Y2454*
X3034Y2454*
X3032Y2454*
G37*
G36*
X2914Y2572D02*
X2912D01*
X2910Y2572*
X2908Y2572*
X2907Y2571*
X2905Y2570*
X2904Y2569*
X2902Y2568*
X2901Y2566*
X2900Y2565*
X2900Y2563*
X2899Y2561*
X2899Y2559*
Y2558*
X2899Y2556*
X2900Y2554*
X2900Y2552*
X2901Y2551*
X2902Y2549*
X2904Y2548*
X2904Y2548*
Y2287*
X2669Y2052*
X2204*
X2203Y2052*
X2201Y2051*
X2200Y2051*
X2199Y2050*
X2198Y2049*
X1926Y1777*
X1925Y1776*
X1925Y1775*
X1924Y1774*
X1924Y1773*
X1924Y1771*
Y1594*
X1827Y1498*
X1820Y1490*
X1819Y1490*
X1817*
X1816Y1490*
X1814Y1489*
X1812Y1488*
X1811Y1487*
X1809Y1486*
X1808Y1485*
X1807Y1484*
X1806Y1482*
X1805Y1480*
X1805Y1479*
X1805Y1477*
Y1475*
X1805Y1473*
X1805Y1471*
X1806Y1470*
X1807Y1468*
X1808Y1467*
X1809Y1465*
X1811Y1464*
X1812Y1463*
X1814Y1463*
X1816Y1462*
X1817Y1462*
X1819*
X1821Y1462*
X1823Y1463*
X1825Y1463*
X1826Y1464*
X1828Y1465*
X1829Y1467*
X1830Y1468*
X1831Y1470*
X1832Y1471*
X1832Y1473*
X1832Y1475*
Y1477*
X1832Y1477*
X1840Y1485*
X1939Y1584*
X1940Y1585*
X1941Y1586*
X1941Y1587*
X1941Y1589*
X1942Y1590*
Y1767*
X2208Y2034*
X2673*
X2674Y2034*
X2676Y2034*
X2677Y2035*
X2678Y2036*
X2679Y2036*
X2919Y2277*
X2920Y2278*
X2921Y2279*
X2921Y2280*
X2922Y2282*
X2922Y2283*
Y2548*
X2922Y2548*
X2923Y2549*
X2924Y2551*
X2925Y2552*
X2926Y2554*
X2927Y2556*
X2927Y2558*
Y2559*
X2927Y2561*
X2926Y2563*
X2925Y2565*
X2924Y2566*
X2923Y2568*
X2922Y2569*
X2921Y2570*
X2919Y2571*
X2917Y2572*
X2916Y2572*
X2914Y2572*
G37*
G36*
X3071Y2415D02*
X3069D01*
X3068Y2415*
X3066Y2414*
X3064Y2414*
X3063Y2413*
X3061Y2412*
X3060Y2410*
X3059Y2409*
X3058Y2407*
X3057Y2406*
X3057Y2404*
X3057Y2402*
Y2400*
X3057Y2398*
X3057Y2397*
X3058Y2395*
X3059Y2393*
X3060Y2392*
X3061Y2391*
X3061Y2390*
Y2161*
X2842Y1942*
X2283*
X2282Y1941*
X2280Y1941*
X2279Y1941*
X2278Y1940*
X2277Y1939*
X2052Y1715*
X2051Y1713*
X2051Y1712*
X2050Y1711*
X2050Y1710*
X2050Y1708*
Y1476*
X2027Y1453*
X1998*
X1998Y1454*
X1997Y1455*
X1995Y1456*
X1994Y1457*
X1992Y1458*
X1990Y1458*
X1989Y1458*
X1987*
X1985Y1458*
X1983Y1458*
X1982Y1457*
X1980Y1456*
X1979Y1455*
X1977Y1454*
X1976Y1452*
X1975Y1451*
X1975Y1449*
X1974Y1447*
X1974Y1445*
Y1443*
X1974Y1442*
X1975Y1440*
X1975Y1438*
X1976Y1437*
X1977Y1435*
X1979Y1434*
X1980Y1433*
X1982Y1432*
X1983Y1431*
X1985Y1431*
X1987Y1431*
X1989*
X1990Y1431*
X1992Y1431*
X1994Y1432*
X1995Y1433*
X1997Y1434*
X1998Y1435*
X1998Y1435*
X2031*
X2032Y1436*
X2034Y1436*
X2035Y1436*
X2036Y1437*
X2037Y1438*
X2065Y1466*
X2066Y1467*
X2067Y1468*
X2067Y1469*
X2067Y1471*
X2068Y1472*
Y1704*
X2287Y1924*
X2846*
X2847Y1924*
X2849Y1924*
X2850Y1925*
X2851Y1925*
X2852Y1926*
X3077Y2151*
X3078Y2152*
X3078Y2153*
X3079Y2154*
X3079Y2156*
X3079Y2157*
Y2390*
X3080Y2391*
X3081Y2392*
X3082Y2393*
X3083Y2395*
X3084Y2397*
X3084Y2398*
X3084Y2400*
Y2402*
X3084Y2404*
X3084Y2406*
X3083Y2407*
X3082Y2409*
X3081Y2410*
X3080Y2412*
X3078Y2413*
X3077Y2414*
X3075Y2414*
X3073Y2415*
X3071Y2415*
G37*
G36*
X1170Y1529D02*
X1168D01*
X1166Y1529*
X1164Y1528*
X1163Y1528*
X1161Y1527*
X1160Y1526*
X1158Y1524*
X1157Y1523*
X1156Y1521*
X1156Y1520*
X1155Y1518*
X1155Y1516*
Y1514*
X1155Y1513*
X1156Y1511*
X1156Y1509*
X1157Y1508*
X1158Y1506*
X1160Y1505*
X1161Y1504*
X1163Y1503*
X1164Y1502*
X1166Y1502*
X1168Y1501*
X1170*
X1170Y1501*
X1241Y1430*
X1242Y1429*
X1243Y1429*
X1245Y1428*
X1246Y1428*
X1248Y1428*
X1406*
X1406Y1427*
X1408Y1426*
X1409Y1425*
X1411Y1424*
X1412Y1423*
X1414Y1423*
X1416Y1423*
X1418*
X1420Y1423*
X1421Y1423*
X1423Y1424*
X1425Y1425*
X1426Y1426*
X1427Y1427*
X1428Y1429*
X1429Y1430*
X1430Y1432*
X1430Y1434*
X1431Y1436*
Y1437*
X1430Y1439*
X1430Y1441*
X1429Y1443*
X1428Y1444*
X1427Y1446*
X1426Y1447*
X1425Y1448*
X1423Y1449*
X1421Y1450*
X1420Y1450*
X1418Y1450*
X1416*
X1414Y1450*
X1412Y1450*
X1411Y1449*
X1409Y1448*
X1408Y1447*
X1406Y1446*
X1406Y1445*
X1251*
X1183Y1514*
X1183Y1514*
Y1516*
X1182Y1518*
X1182Y1520*
X1181Y1521*
X1180Y1523*
X1179Y1524*
X1178Y1526*
X1177Y1527*
X1175Y1528*
X1173Y1528*
X1172Y1529*
X1170Y1529*
G37*
G36*
X302Y1393D02*
X272D01*
Y1388*
X252*
X251Y1389*
X250Y1390*
X248Y1391*
X246Y1391*
X245Y1391*
X243*
X241Y1391*
X239Y1391*
X237Y1390*
X236Y1389*
X234Y1388*
X233Y1387*
X232Y1385*
X231Y1384*
X230Y1382*
X230Y1380*
X230Y1378*
Y1377*
X230Y1375*
X230Y1373*
X231Y1371*
X232Y1370*
X233Y1368*
X234Y1367*
X236Y1366*
X237Y1365*
X239Y1364*
X241Y1364*
X243Y1364*
X245*
X246Y1364*
X248Y1364*
X250Y1365*
X251Y1366*
X252Y1367*
X272*
Y1361*
X302*
Y1393*
G37*
G36*
X1910Y1387D02*
X1908D01*
X1906Y1387*
X1904Y1387*
X1903Y1386*
X1901Y1385*
X1900Y1384*
X1899Y1383*
X1898Y1382*
X1640*
X1640Y1383*
X1639Y1384*
X1637Y1385*
X1636Y1386*
X1634Y1387*
X1632Y1387*
X1630Y1387*
X1629*
X1627Y1387*
X1625Y1387*
X1623Y1386*
X1622Y1385*
X1620Y1384*
X1619Y1383*
X1618Y1381*
X1617Y1380*
X1616Y1378*
X1616Y1376*
X1616Y1374*
Y1373*
X1616Y1371*
X1616Y1369*
X1617Y1367*
X1618Y1366*
X1619Y1364*
X1620Y1363*
X1622Y1362*
X1623Y1361*
X1625Y1360*
X1627Y1360*
X1629Y1360*
X1630*
X1632Y1360*
X1634Y1360*
X1636Y1361*
X1637Y1362*
X1639Y1363*
X1639Y1364*
X1642Y1363*
X1642Y1363*
X1643Y1360*
X1643Y1359*
X1643Y1359*
X1642Y1358*
X1641Y1356*
X1640Y1354*
X1639Y1353*
X1639Y1351*
Y1349*
X1639Y1347*
X1640Y1345*
X1641Y1344*
X1642Y1342*
X1643Y1341*
X1644Y1339*
X1645Y1338*
X1647Y1337*
X1649Y1337*
X1650Y1336*
X1652Y1336*
X1654*
X1656Y1336*
X1658Y1337*
X1659Y1337*
X1661Y1338*
X1662Y1339*
X1663Y1341*
X1664Y1341*
X1811*
X1828Y1324*
X1829Y1323*
X1830Y1322*
X1831Y1322*
X1833Y1321*
X1834Y1321*
X1898*
X1899Y1321*
X1900Y1320*
X1901Y1319*
X1903Y1318*
X1904Y1317*
X1906Y1317*
X1908Y1316*
X1910*
X1912Y1317*
X1913Y1317*
X1915Y1318*
X1917Y1319*
X1918Y1320*
X1919Y1321*
X1921Y1322*
X1921Y1324*
X1922Y1326*
X1923Y1328*
X1923Y1329*
Y1331*
X1923Y1333*
X1922Y1335*
X1921Y1336*
X1921Y1338*
X1919Y1339*
X1918Y1341*
X1917Y1342*
X1915Y1343*
X1913Y1343*
X1912Y1344*
X1910Y1344*
X1908*
X1906Y1344*
X1904Y1343*
X1903Y1343*
X1901Y1342*
X1900Y1341*
X1899Y1339*
X1898Y1339*
X1838*
X1821Y1356*
X1820Y1357*
X1819Y1358*
X1817Y1358*
X1816Y1359*
X1814Y1359*
X1665*
X1664Y1361*
X1666Y1365*
X1898*
X1899Y1364*
X1900Y1363*
X1901Y1362*
X1903Y1361*
X1904Y1360*
X1906Y1360*
X1908Y1360*
X1910*
X1912Y1360*
X1913Y1360*
X1915Y1361*
X1917Y1362*
X1918Y1363*
X1919Y1364*
X1921Y1366*
X1921Y1367*
X1922Y1369*
X1923Y1371*
X1923Y1373*
Y1374*
X1923Y1376*
X1922Y1378*
X1921Y1380*
X1921Y1381*
X1919Y1383*
X1918Y1384*
X1917Y1385*
X1915Y1386*
X1913Y1387*
X1912Y1387*
X1910Y1387*
G37*
G36*
X658Y1805D02*
X656D01*
X654Y1804*
X653Y1804*
X651Y1803*
X649Y1802*
X648Y1801*
X647Y1800*
X645Y1799*
X645Y1797*
X644Y1795*
X643Y1794*
X643Y1792*
Y1790*
X643Y1788*
X644Y1786*
X645Y1785*
X645Y1783*
X646Y1782*
Y1732*
X646Y1730*
X647Y1728*
X647Y1727*
X648Y1725*
X649Y1724*
X697Y1676*
Y1307*
X697Y1306*
X696Y1305*
X695Y1303*
X695Y1301*
X694Y1300*
Y1298*
X695Y1296*
X695Y1294*
X696Y1293*
X697Y1291*
X698Y1290*
X699Y1288*
X700Y1287*
X702Y1286*
X704Y1286*
X705Y1285*
X707Y1285*
X709*
X711Y1285*
X713Y1286*
X714Y1286*
X716Y1287*
X717Y1288*
X719Y1290*
X720Y1291*
X721Y1293*
X721Y1294*
X722Y1296*
X722Y1298*
Y1300*
X722Y1301*
X721Y1303*
X721Y1305*
X720Y1306*
X719Y1307*
Y1681*
X719Y1682*
X719Y1684*
X718Y1686*
X717Y1687*
X716Y1688*
X668Y1736*
Y1782*
X669Y1783*
X669Y1785*
X670Y1786*
X671Y1788*
X671Y1790*
Y1792*
X671Y1794*
X670Y1795*
X669Y1797*
X669Y1799*
X667Y1800*
X666Y1801*
X665Y1802*
X663Y1803*
X661Y1804*
X660Y1804*
X658Y1805*
G37*
G36*
X302Y1275D02*
X272D01*
Y1270*
X252*
X251Y1271*
X250Y1272*
X248Y1272*
X246Y1273*
X245Y1273*
X243*
X241Y1273*
X239Y1272*
X237Y1272*
X236Y1271*
X234Y1270*
X233Y1269*
X232Y1267*
X231Y1265*
X230Y1264*
X230Y1262*
X230Y1260*
Y1258*
X230Y1257*
X230Y1255*
X231Y1253*
X232Y1252*
X233Y1250*
X234Y1249*
X236Y1248*
X237Y1247*
X239Y1246*
X241Y1246*
X243Y1245*
X245*
X246Y1246*
X248Y1246*
X250Y1247*
X251Y1248*
X252Y1248*
X272*
Y1243*
X302*
Y1275*
G37*
G36*
X2957Y1337D02*
X2947D01*
X2944Y1337*
X2941Y1337*
X2937Y1336*
X2934Y1335*
X2931Y1334*
X2928Y1332*
X2925Y1330*
X2923Y1328*
X2920Y1326*
X2918Y1323*
X2916Y1321*
X2914Y1318*
X2912Y1315*
X2911Y1312*
X2910Y1309*
X2909Y1305*
X2909Y1302*
X2909Y1299*
X2909Y1295*
X2909Y1292*
X2910Y1289*
X2911Y1286*
X2912Y1282*
X2914Y1279*
X2916Y1277*
X2918Y1274*
X2920Y1271*
X2923Y1269*
X2925Y1267*
X2928Y1265*
X2931Y1264*
X2934Y1263*
X2937Y1262*
X2941Y1261*
X2944Y1260*
X2947Y1260*
X2957*
X2961Y1260*
X2964Y1261*
X2967Y1262*
X2970Y1263*
X2973Y1264*
X2976Y1265*
X2979Y1267*
X2982Y1269*
X2984Y1271*
X2987Y1274*
X2989Y1277*
X2991Y1279*
X2992Y1282*
X2993Y1286*
X2994Y1289*
X2995Y1292*
X2996Y1295*
X2996Y1299*
X2996Y1302*
X2995Y1305*
X2994Y1309*
X2993Y1312*
X2992Y1315*
X2991Y1318*
X2989Y1321*
X2987Y1323*
X2984Y1326*
X2982Y1328*
X2979Y1330*
X2976Y1332*
X2973Y1334*
X2970Y1335*
X2967Y1336*
X2964Y1337*
X2961Y1337*
X2957Y1337*
G37*
G36*
X1827Y1269D02*
X1825D01*
X1824Y1269*
X1822Y1269*
X1820Y1268*
X1819Y1267*
X1817Y1266*
X1816Y1265*
X1815Y1263*
X1814Y1262*
X1813Y1260*
X1813Y1258*
X1813Y1257*
X1809*
X1808Y1258*
X1808Y1260*
X1807Y1262*
X1806Y1263*
X1805Y1265*
X1804Y1266*
X1802Y1267*
X1801Y1268*
X1799Y1269*
X1797Y1269*
X1796Y1269*
X1794*
X1792Y1269*
X1790Y1269*
X1789Y1268*
X1787Y1267*
X1786Y1266*
X1784Y1265*
X1783Y1263*
X1782Y1262*
X1782Y1260*
X1781Y1258*
X1781Y1256*
Y1255*
X1777Y1252*
X1776Y1253*
X1774Y1253*
X1772Y1254*
X1770*
X1768Y1253*
X1767Y1253*
X1765Y1252*
X1763Y1251*
X1762Y1250*
X1761Y1249*
X1760Y1247*
X1759Y1246*
X1758Y1244*
X1758Y1242*
X1757Y1241*
Y1239*
X1758Y1237*
X1758Y1235*
X1759Y1234*
X1760Y1232*
X1761Y1231*
X1762Y1229*
X1762Y1229*
Y885*
X1568Y691*
X1567Y690*
X1566Y689*
X1566Y687*
X1565Y686*
X1565Y685*
Y613*
X1564Y612*
X1561Y611*
X1558Y610*
X1555Y609*
X1552Y607*
X1550Y605*
X1547Y603*
X1545Y600*
X1543Y597*
X1541Y595*
X1539Y592*
X1538Y588*
X1537Y585*
X1536Y582*
X1536Y579*
X1536Y575*
Y565*
X1536Y562*
X1536Y559*
X1537Y555*
X1538Y552*
X1539Y549*
X1541Y546*
X1543Y543*
X1545Y541*
X1547Y538*
X1550Y536*
X1552Y534*
X1555Y532*
X1558Y531*
X1561Y529*
X1564Y528*
X1568Y528*
X1571Y527*
X1574Y527*
X1578Y527*
X1581Y528*
X1584Y528*
X1587Y529*
X1591Y531*
X1594Y532*
X1596Y534*
X1599Y536*
X1602Y538*
X1604Y541*
X1606Y543*
X1608Y546*
X1609Y549*
X1610Y552*
X1611Y555*
X1612Y559*
X1613Y562*
X1613Y565*
Y575*
X1613Y579*
X1612Y582*
X1611Y585*
X1610Y588*
X1609Y592*
X1608Y595*
X1606Y597*
X1604Y600*
X1602Y603*
X1599Y605*
X1596Y607*
X1594Y609*
X1591Y610*
X1587Y611*
X1584Y612*
X1583Y613*
Y681*
X1777Y875*
X1778Y876*
X1779Y877*
X1780Y879*
X1780Y880*
X1780Y881*
Y1228*
X1782Y1229*
X1786Y1227*
Y838*
X1666Y718*
X1665Y717*
X1665Y716*
X1664Y715*
X1664Y714*
X1664Y712*
Y613*
X1663Y612*
X1660Y611*
X1656Y610*
X1653Y609*
X1651Y607*
X1648Y605*
X1646Y603*
X1643Y600*
X1641Y597*
X1639Y595*
X1638Y592*
X1637Y588*
X1636Y585*
X1635Y582*
X1634Y579*
X1634Y575*
Y565*
X1634Y562*
X1635Y559*
X1636Y555*
X1637Y552*
X1638Y549*
X1639Y546*
X1641Y543*
X1643Y541*
X1646Y538*
X1648Y536*
X1651Y534*
X1653Y532*
X1656Y531*
X1660Y529*
X1663Y528*
X1666Y528*
X1669Y527*
X1673Y527*
X1676Y527*
X1679Y528*
X1683Y528*
X1686Y529*
X1689Y531*
X1692Y532*
X1695Y534*
X1697Y536*
X1700Y538*
X1702Y541*
X1704Y543*
X1706Y546*
X1708Y549*
X1709Y552*
X1710Y555*
X1711Y559*
X1711Y562*
X1711Y565*
Y575*
X1711Y579*
X1711Y582*
X1710Y585*
X1709Y588*
X1708Y592*
X1706Y595*
X1704Y597*
X1702Y600*
X1700Y603*
X1697Y605*
X1695Y607*
X1692Y609*
X1689Y610*
X1686Y611*
X1683Y612*
X1682Y613*
Y708*
X1801Y828*
X1802Y829*
X1803Y830*
X1803Y831*
X1804Y833*
X1804Y834*
Y1245*
X1804Y1245*
X1805Y1246*
X1806Y1248*
X1807Y1249*
X1808Y1251*
X1808Y1253*
X1809Y1254*
X1813*
X1813Y1253*
X1813Y1251*
X1814Y1249*
X1815Y1248*
X1816Y1246*
X1817Y1245*
X1817Y1245*
Y814*
X1765Y762*
X1764Y761*
X1763Y759*
X1763Y758*
X1762Y757*
X1762Y755*
Y613*
X1761Y612*
X1758Y611*
X1755Y610*
X1752Y609*
X1749Y607*
X1746Y605*
X1744Y603*
X1742Y600*
X1740Y597*
X1738Y595*
X1736Y592*
X1735Y588*
X1734Y585*
X1733Y582*
X1733Y579*
X1733Y575*
Y565*
X1733Y562*
X1733Y559*
X1734Y555*
X1735Y552*
X1736Y549*
X1738Y546*
X1740Y543*
X1742Y541*
X1744Y538*
X1746Y536*
X1749Y534*
X1752Y532*
X1755Y531*
X1758Y529*
X1761Y528*
X1764Y528*
X1768Y527*
X1771Y527*
X1775Y527*
X1778Y528*
X1781Y528*
X1784Y529*
X1787Y531*
X1790Y532*
X1793Y534*
X1796Y536*
X1798Y538*
X1801Y541*
X1803Y543*
X1805Y546*
X1806Y549*
X1807Y552*
X1808Y555*
X1809Y559*
X1810Y562*
X1810Y565*
Y575*
X1810Y579*
X1809Y582*
X1808Y585*
X1807Y588*
X1806Y592*
X1805Y595*
X1803Y597*
X1801Y600*
X1798Y603*
X1796Y605*
X1793Y607*
X1790Y609*
X1787Y610*
X1784Y611*
X1781Y612*
X1780Y613*
Y752*
X1833Y804*
X1834Y805*
X1834Y806*
X1835Y808*
X1835Y809*
X1835Y811*
Y1245*
X1835Y1245*
X1837Y1246*
X1838Y1248*
X1839Y1249*
X1839Y1251*
X1840Y1253*
X1840Y1255*
Y1256*
X1840Y1258*
X1839Y1260*
X1839Y1262*
X1838Y1263*
X1837Y1265*
X1835Y1266*
X1834Y1267*
X1832Y1268*
X1831Y1269*
X1829Y1269*
X1827Y1269*
G37*
G36*
X2957Y1239D02*
X2947D01*
X2944Y1239*
X2941Y1238*
X2937Y1237*
X2934Y1236*
X2931Y1235*
X2928Y1234*
X2925Y1232*
X2923Y1230*
X2920Y1228*
X2918Y1225*
X2916Y1222*
X2914Y1220*
X2912Y1217*
X2911Y1213*
X2910Y1210*
X2909Y1207*
X2909Y1204*
X2909Y1200*
X2909Y1197*
X2909Y1194*
X2910Y1190*
X2911Y1187*
X2912Y1184*
X2914Y1181*
X2916Y1178*
X2918Y1176*
X2920Y1173*
X2923Y1171*
X2925Y1169*
X2928Y1167*
X2931Y1165*
X2934Y1164*
X2937Y1163*
X2941Y1162*
X2944Y1162*
X2947Y1162*
X2957*
X2961Y1162*
X2964Y1162*
X2967Y1163*
X2970Y1164*
X2973Y1165*
X2976Y1167*
X2979Y1169*
X2982Y1171*
X2984Y1173*
X2987Y1176*
X2989Y1178*
X2991Y1181*
X2992Y1184*
X2993Y1187*
X2994Y1190*
X2995Y1194*
X2996Y1197*
X2996Y1200*
X2996Y1204*
X2995Y1207*
X2994Y1210*
X2993Y1213*
X2992Y1217*
X2991Y1220*
X2989Y1222*
X2987Y1225*
X2984Y1228*
X2982Y1230*
X2979Y1232*
X2976Y1234*
X2973Y1235*
X2970Y1236*
X2967Y1237*
X2964Y1238*
X2961Y1239*
X2957Y1239*
G37*
G36*
X302Y1157D02*
X272D01*
Y1152*
X252*
X251Y1153*
X250Y1154*
X248Y1154*
X246Y1155*
X245Y1155*
X243*
X241Y1155*
X239Y1154*
X237Y1154*
X236Y1153*
X234Y1152*
X233Y1150*
X232Y1149*
X231Y1147*
X230Y1146*
X230Y1144*
X230Y1142*
Y1140*
X230Y1139*
X230Y1137*
X231Y1135*
X232Y1134*
X233Y1132*
X234Y1131*
X236Y1130*
X237Y1129*
X239Y1128*
X241Y1128*
X243Y1127*
X245*
X246Y1128*
X248Y1128*
X250Y1129*
X251Y1130*
X252Y1130*
X272*
Y1125*
X302*
Y1157*
G37*
G36*
X619Y1612D02*
X617D01*
X615Y1612*
X613Y1611*
X611Y1610*
X610Y1609*
X608Y1608*
X607Y1607*
X606Y1606*
X605Y1604*
X604Y1602*
X604Y1601*
X604Y1599*
Y1597*
X604Y1595*
X604Y1593*
X605Y1592*
X606Y1590*
X607Y1589*
X608Y1587*
X609Y1587*
Y1423*
X596Y1410*
X595Y1409*
X594Y1408*
X593Y1406*
X593Y1405*
X593Y1404*
Y1244*
X593Y1242*
X593Y1241*
X594Y1240*
X595Y1238*
X596Y1237*
X694Y1138*
X694Y1138*
Y1136*
X695Y1135*
X695Y1133*
X696Y1131*
X697Y1130*
X698Y1128*
X699Y1127*
X700Y1126*
X702Y1125*
X704Y1124*
X705Y1124*
X707Y1123*
X709*
X711Y1124*
X713Y1124*
X714Y1125*
X716Y1126*
X717Y1127*
X719Y1128*
X720Y1130*
X721Y1131*
X721Y1133*
X722Y1135*
X722Y1136*
Y1138*
X722Y1140*
X721Y1142*
X721Y1143*
X720Y1145*
X719Y1146*
X717Y1148*
X716Y1149*
X714Y1150*
X713Y1150*
X711Y1151*
X709Y1151*
X707*
X707Y1151*
X611Y1247*
Y1400*
X624Y1413*
X625Y1414*
X626Y1415*
X626Y1417*
X626Y1418*
X627Y1419*
Y1587*
X627Y1587*
X628Y1589*
X629Y1590*
X630Y1592*
X631Y1593*
X631Y1595*
X631Y1597*
Y1599*
X631Y1601*
X631Y1602*
X630Y1604*
X629Y1606*
X628Y1607*
X627Y1608*
X625Y1609*
X624Y1610*
X622Y1611*
X620Y1612*
X619Y1612*
G37*
G36*
X1445Y2450D02*
X1443D01*
X1442Y2450*
X1440Y2450*
X1438Y2449*
X1437Y2448*
X1435Y2447*
X1434Y2446*
X1433Y2444*
X1432Y2443*
X1431Y2441*
X1431Y2439*
X1431Y2438*
X1417Y2425*
X1416Y2423*
X1415Y2422*
X1414Y2420*
X1414Y2419*
X1414Y2417*
Y2220*
X1414Y2218*
X1414Y2217*
X1415Y2215*
X1416Y2214*
X1417Y2212*
X1441Y2188*
Y2106*
X1098Y1763*
X1097Y1762*
X1096Y1760*
X1095Y1759*
X1095Y1757*
X1095Y1755*
Y1559*
X1029Y1494*
X1028Y1492*
X1027Y1491*
X1026Y1489*
X1025Y1487*
X1025Y1486*
X1025Y1484*
Y1407*
X954Y1336*
X954Y1336*
X954Y1335*
X953Y1335*
X953Y1335*
X953Y1334*
X953Y1334*
X952Y1334*
X952Y1333*
X952Y1333*
X952Y1332*
X951Y1332*
X951Y1332*
X951Y1331*
X951Y1331*
X951Y1330*
X951Y1330*
X951Y1329*
X950Y1329*
X950Y1329*
X950Y1328*
X950Y1328*
X950Y1327*
Y1327*
X950Y1326*
X950Y1326*
Y1325*
X950Y1325*
X950Y1324*
X950Y1324*
X950Y1324*
X951Y1323*
X951Y1323*
X951Y1322*
X951Y1322*
X951Y1321*
X951Y1321*
X951Y1321*
X952Y1320*
X952Y1320*
X952Y1319*
X952Y1319*
X953Y1319*
X953Y1318*
X953Y1318*
X953Y1317*
X954Y1317*
X954Y1317*
X954Y1316*
X955Y1316*
X955Y1316*
X955Y1316*
X956Y1315*
X956Y1315*
X956Y1315*
X957Y1315*
X957Y1314*
X958Y1314*
X958Y1314*
X958Y1314*
X959Y1313*
X959Y1313*
X960Y1313*
X960Y1313*
X960Y1313*
X961Y1313*
X961Y1313*
X962Y1313*
X962Y1313*
X963Y1312*
X963Y1312*
X964*
X964Y1312*
X965Y1312*
X965*
X965Y1312*
X966Y1313*
X966Y1313*
X967Y1313*
X967Y1313*
X968Y1313*
X968Y1313*
X969Y1313*
X969Y1313*
X969Y1313*
X970Y1314*
X970Y1314*
X971Y1314*
X971Y1314*
X971Y1315*
X972Y1315*
X972Y1315*
X973Y1315*
X973Y1316*
X973Y1316*
X974Y1316*
X974Y1316*
X1049Y1391*
X1050Y1393*
X1051Y1394*
X1052Y1396*
X1052Y1397*
X1053Y1399*
X1053Y1401*
Y1478*
X1112Y1537*
X1210*
X1210Y1533*
X1209Y1533*
X1208Y1532*
X1206Y1532*
X1204Y1531*
X1203Y1530*
X1202Y1528*
X1201Y1527*
X1200Y1525*
X1199Y1524*
X1198Y1522*
X1198Y1520*
Y1518*
X1198Y1516*
X1199Y1515*
X1200Y1513*
X1201Y1511*
X1202Y1510*
X1203Y1509*
X1204Y1508*
X1206Y1507*
X1208Y1506*
X1209Y1506*
X1211Y1505*
X1213*
X1213Y1505*
X1237Y1481*
X1238Y1480*
X1240Y1480*
X1241Y1479*
X1242Y1479*
X1244Y1479*
X1429*
X1526Y1382*
Y1309*
X1526Y1309*
X1524Y1308*
X1523Y1306*
X1522Y1305*
X1522Y1303*
X1521Y1301*
X1521Y1300*
Y1298*
X1521Y1296*
X1522Y1294*
X1522Y1293*
X1523Y1291*
X1524Y1290*
X1526Y1288*
X1527Y1287*
X1529Y1286*
X1530Y1286*
X1532Y1285*
X1534Y1285*
X1536*
X1538Y1285*
X1539Y1286*
X1541Y1286*
X1543Y1287*
X1544Y1288*
X1545Y1290*
X1546Y1291*
X1547Y1293*
X1548Y1294*
X1549Y1296*
X1549Y1298*
Y1300*
X1549Y1301*
X1548Y1303*
X1547Y1305*
X1546Y1306*
X1545Y1308*
X1544Y1309*
X1544Y1309*
Y1385*
X1544Y1387*
X1543Y1388*
X1543Y1389*
X1542Y1391*
X1541Y1392*
X1439Y1494*
X1438Y1495*
X1437Y1496*
X1435Y1496*
X1434Y1497*
X1433Y1497*
X1247*
X1226Y1518*
X1226Y1518*
Y1520*
X1226Y1522*
X1225Y1524*
X1225Y1525*
X1224Y1527*
X1223Y1528*
X1221Y1530*
X1220Y1531*
X1218Y1532*
X1217Y1532*
X1215Y1533*
X1214Y1533*
X1215Y1537*
X1502*
X1505Y1533*
X1507Y1532*
X1508Y1531*
X1510Y1530*
X1512Y1529*
X1513Y1529*
X1515Y1529*
X1583*
Y1292*
X1583Y1290*
X1584Y1288*
X1584Y1286*
X1585Y1285*
X1586Y1283*
X1587Y1282*
X1643Y1226*
Y1154*
X1421*
X1419Y1154*
X1418Y1154*
X1416Y1153*
X1414Y1152*
X1413Y1151*
X1386Y1123*
X1385Y1123*
X1383Y1123*
X1381Y1122*
X1380Y1121*
X1378Y1120*
X1377Y1119*
X1376Y1117*
X1375Y1116*
X1374Y1114*
X1374Y1112*
X1373Y1111*
Y1109*
X1374Y1107*
X1374Y1105*
X1375Y1104*
X1376Y1102*
X1377Y1101*
X1378Y1099*
X1380Y1098*
X1381Y1097*
X1383Y1097*
X1385Y1096*
X1386Y1096*
X1388*
X1390Y1096*
X1392Y1097*
X1393Y1097*
X1395Y1098*
X1396Y1099*
X1398Y1101*
X1399Y1102*
X1400Y1104*
X1400Y1105*
X1401Y1107*
X1401Y1108*
X1425Y1132*
X1643*
Y1110*
X1643Y1109*
Y1109*
X1643Y1108*
X1643Y1108*
X1643Y1107*
X1643Y1107*
X1643Y1107*
X1644Y1106*
X1644Y1106*
X1644Y1105*
X1644Y1105*
X1644Y1104*
X1644Y1104*
X1645Y1104*
X1645Y1103*
X1645Y1103*
X1645Y1102*
X1645Y1102*
X1646Y1102*
X1646Y1101*
X1646Y1101*
X1647Y1101*
X1647Y1100*
X1647Y1100*
X1648Y1100*
X1648Y1099*
X1648Y1099*
X1649Y1099*
X1649Y1098*
X1649Y1098*
X1650Y1098*
X1650Y1098*
X1650Y1098*
X1651Y1097*
X1651Y1097*
X1652Y1097*
X1652Y1097*
X1653Y1097*
X1653Y1096*
X1653Y1096*
X1654Y1096*
X1654Y1096*
X1655Y1096*
X1655Y1096*
X1656Y1096*
X1656Y1096*
X1657*
X1657Y1096*
X1657Y1096*
X1658*
X1658Y1096*
X1659Y1096*
X1659Y1096*
X1660Y1096*
X1660Y1096*
X1661Y1096*
X1661Y1096*
X1661Y1097*
X1662Y1097*
X1662Y1097*
X1663Y1097*
X1663Y1097*
X1664Y1098*
X1664Y1098*
X1664Y1098*
X1665Y1098*
X1665Y1098*
X1665Y1099*
X1666Y1099*
X1666Y1099*
X1666Y1100*
X1667Y1100*
X1667Y1100*
X1667Y1101*
X1668Y1101*
X1668Y1101*
X1668Y1102*
X1669Y1102*
X1669Y1102*
X1669Y1103*
X1669Y1103*
X1669Y1104*
X1670Y1104*
X1670Y1104*
X1670Y1105*
X1670Y1105*
X1670Y1106*
X1670Y1106*
X1670Y1107*
X1671Y1107*
X1671Y1107*
X1671Y1108*
X1671Y1108*
X1671Y1109*
Y1109*
X1671Y1110*
Y1143*
Y1232*
X1671Y1234*
X1670Y1235*
X1670Y1237*
X1669Y1239*
X1668Y1240*
X1667Y1242*
X1611Y1297*
Y1529*
X1763*
X1764Y1529*
X1764*
X1765Y1529*
X1765Y1529*
X1766Y1529*
X1766Y1529*
X1766Y1529*
X1767Y1529*
X1767Y1530*
X1768Y1530*
X1768Y1530*
X1769Y1530*
X1769Y1530*
X1769Y1530*
X1770Y1531*
X1770Y1531*
X1771Y1531*
X1771Y1531*
X1771Y1532*
X1772Y1532*
X1772Y1532*
X1772Y1532*
X1773Y1533*
X1773Y1533*
X1773Y1533*
X1774Y1534*
X1774Y1534*
X1774Y1534*
X1775Y1535*
X1775Y1535*
X1775Y1535*
X1775Y1536*
X1776Y1536*
X1776Y1537*
X1776Y1537*
X1776Y1537*
X1776Y1538*
X1776Y1538*
X1777Y1539*
X1777Y1539*
X1777Y1540*
X1777Y1540*
X1777Y1541*
X1777Y1541*
X1777Y1541*
X1777Y1542*
Y1542*
X1777Y1543*
X1777Y1543*
Y1544*
X1777Y1544*
X1777Y1545*
X1777Y1545*
X1777Y1546*
X1777Y1546*
X1777Y1546*
X1777Y1547*
X1776Y1547*
X1776Y1548*
X1776Y1548*
X1776Y1549*
X1776Y1549*
X1776Y1549*
X1775Y1550*
X1775Y1550*
X1775Y1551*
X1775Y1551*
X1774Y1551*
X1774Y1552*
X1774Y1552*
X1773Y1552*
X1773Y1553*
X1773Y1553*
X1772Y1553*
X1772Y1554*
X1772Y1554*
X1771Y1554*
X1771Y1554*
X1771Y1555*
X1770Y1555*
X1770Y1555*
X1769Y1555*
X1769Y1555*
X1769Y1556*
X1768Y1556*
X1768Y1556*
X1767Y1556*
X1767Y1556*
X1766Y1556*
X1766Y1556*
X1766Y1556*
X1765Y1557*
X1765Y1557*
X1764Y1557*
X1764*
X1763Y1557*
X1521*
X1517Y1561*
X1516Y1562*
X1514Y1563*
X1513Y1564*
X1511Y1564*
X1509Y1564*
X1507Y1565*
X1356*
Y1645*
X1356Y1646*
Y1646*
X1356Y1647*
X1356Y1647*
X1356Y1647*
X1356Y1648*
X1356Y1648*
X1355Y1649*
X1355Y1649*
X1355Y1650*
X1355Y1650*
X1355Y1650*
X1355Y1651*
X1354Y1651*
X1354Y1652*
X1354Y1652*
X1354Y1652*
X1354Y1653*
X1353Y1653*
X1353Y1654*
X1353Y1654*
X1352Y1654*
X1352Y1655*
X1352Y1655*
X1352Y1655*
X1351Y1656*
X1351Y1656*
X1350Y1656*
X1350Y1656*
X1350Y1657*
X1349Y1657*
X1349Y1657*
X1349Y1657*
X1348Y1658*
X1348Y1658*
X1347Y1658*
X1347Y1658*
X1346Y1658*
X1346Y1658*
X1346Y1659*
X1345Y1659*
X1345Y1659*
X1344Y1659*
X1344Y1659*
X1343Y1659*
X1343Y1659*
X1342*
X1342Y1659*
X1342Y1659*
X1341*
X1341Y1659*
X1340Y1659*
X1340Y1659*
X1339Y1659*
X1339Y1659*
X1338Y1659*
X1338Y1658*
X1338Y1658*
X1337Y1658*
X1337Y1658*
X1336Y1658*
X1336Y1658*
X1335Y1657*
X1335Y1657*
X1335Y1657*
X1334Y1657*
X1334Y1656*
X1334Y1656*
X1333Y1656*
X1333Y1656*
X1333Y1655*
X1332Y1655*
X1332Y1655*
X1332Y1654*
X1331Y1654*
X1331Y1654*
X1331Y1653*
X1330Y1653*
X1330Y1652*
X1330Y1652*
X1330Y1652*
X1330Y1651*
X1329Y1651*
X1329Y1650*
X1329Y1650*
X1329Y1650*
X1329Y1649*
X1329Y1649*
X1329Y1648*
X1328Y1648*
X1328Y1647*
X1328Y1647*
X1328Y1647*
X1328Y1646*
Y1646*
X1328Y1645*
Y1565*
X1117*
Y1751*
X1460Y2094*
X1461Y2095*
X1462Y2097*
X1463Y2098*
X1463Y2100*
X1463Y2102*
Y2192*
X1463Y2194*
X1463Y2196*
X1462Y2197*
X1461Y2199*
X1460Y2200*
X1436Y2225*
Y2412*
X1446Y2423*
X1447Y2423*
X1449Y2423*
X1451Y2424*
X1452Y2425*
X1454Y2426*
X1455Y2427*
X1456Y2429*
X1457Y2430*
X1458Y2432*
X1458Y2434*
X1458Y2436*
Y2437*
X1458Y2439*
X1458Y2441*
X1457Y2443*
X1456Y2444*
X1455Y2446*
X1454Y2447*
X1452Y2448*
X1451Y2449*
X1449Y2450*
X1447Y2450*
X1445Y2450*
G37*
G36*
X2957Y1140D02*
X2947D01*
X2944Y1140*
X2941Y1140*
X2937Y1139*
X2934Y1138*
X2931Y1137*
X2928Y1135*
X2925Y1133*
X2923Y1131*
X2920Y1129*
X2918Y1127*
X2916Y1124*
X2914Y1121*
X2912Y1118*
X2911Y1115*
X2910Y1112*
X2909Y1109*
X2909Y1105*
X2909Y1102*
X2909Y1099*
X2909Y1095*
X2910Y1092*
X2911Y1089*
X2912Y1086*
X2914Y1083*
X2916Y1080*
X2918Y1077*
X2920Y1075*
X2923Y1072*
X2925Y1070*
X2928Y1069*
X2931Y1067*
X2934Y1066*
X2937Y1065*
X2941Y1064*
X2944Y1064*
X2947Y1063*
X2957*
X2961Y1064*
X2964Y1064*
X2967Y1065*
X2970Y1066*
X2973Y1067*
X2976Y1069*
X2979Y1070*
X2982Y1072*
X2984Y1075*
X2987Y1077*
X2989Y1080*
X2991Y1083*
X2992Y1086*
X2993Y1089*
X2994Y1092*
X2995Y1095*
X2996Y1099*
X2996Y1102*
X2996Y1105*
X2995Y1109*
X2994Y1112*
X2993Y1115*
X2992Y1118*
X2991Y1121*
X2989Y1124*
X2987Y1127*
X2984Y1129*
X2982Y1131*
X2979Y1133*
X2976Y1135*
X2973Y1137*
X2970Y1138*
X2967Y1139*
X2964Y1140*
X2961Y1140*
X2957Y1140*
G37*
G36*
X1605Y1080D02*
X1603D01*
X1601Y1080*
X1599Y1080*
X1598Y1079*
X1596Y1078*
X1595Y1077*
X1593Y1076*
X1592Y1074*
X1591Y1073*
X1591Y1071*
X1590Y1069*
X1590Y1067*
Y1066*
X1590Y1065*
X1560Y1035*
X1559Y1034*
X1558Y1033*
X1558Y1032*
X1558Y1030*
X1557Y1029*
Y963*
X1557Y963*
X1556Y961*
X1555Y960*
X1554Y958*
X1553Y957*
X1553Y955*
X1553Y953*
Y951*
X1553Y950*
X1553Y948*
X1554Y946*
X1555Y945*
X1556Y943*
X1557Y942*
X1559Y941*
X1560Y940*
X1562Y939*
X1564Y939*
X1566Y938*
X1567*
X1569Y939*
X1571Y939*
X1573Y940*
X1574Y941*
X1576Y942*
X1577Y943*
X1578Y945*
X1579Y946*
X1580Y948*
X1580Y950*
X1580Y951*
Y953*
X1580Y955*
X1580Y957*
X1579Y958*
X1578Y960*
X1577Y961*
X1576Y963*
X1575Y963*
Y1023*
X1576Y1023*
X1578Y1023*
X1580Y1021*
X1580Y1020*
X1581Y1019*
X1582Y1017*
X1582Y1015*
X1584Y1014*
X1585Y1013*
X1585Y1013*
Y935*
X1585Y935*
X1584Y934*
X1582Y932*
X1582Y931*
X1581Y929*
X1580Y927*
X1580Y926*
Y924*
X1580Y922*
X1581Y920*
X1582Y919*
X1582Y917*
X1584Y916*
X1585Y914*
X1586Y913*
X1588Y912*
X1590Y912*
X1591Y911*
X1593Y911*
X1595*
X1597Y911*
X1598Y912*
X1600Y912*
X1602Y913*
X1603Y914*
X1604Y916*
X1606Y917*
X1606Y919*
X1607Y920*
X1608Y922*
X1608Y924*
Y926*
X1608Y927*
X1607Y929*
X1606Y931*
X1606Y932*
X1604Y934*
X1603Y935*
X1603Y935*
Y1013*
X1603Y1013*
X1604Y1014*
X1606Y1015*
X1606Y1017*
X1607Y1019*
X1608Y1020*
X1608Y1022*
Y1024*
X1608Y1026*
X1607Y1028*
X1606Y1029*
X1606Y1031*
X1604Y1032*
X1603Y1034*
X1602Y1035*
X1600Y1036*
X1598Y1036*
X1597Y1037*
X1595Y1037*
X1593*
X1593Y1037*
X1591Y1041*
X1603Y1053*
X1603Y1053*
X1605*
X1607Y1053*
X1608Y1053*
X1610Y1054*
X1612Y1055*
X1613Y1056*
X1614Y1057*
X1615Y1059*
X1616Y1060*
X1617Y1062*
X1617Y1064*
X1618Y1066*
Y1067*
X1617Y1069*
X1617Y1071*
X1616Y1073*
X1615Y1074*
X1614Y1076*
X1613Y1077*
X1612Y1078*
X1610Y1079*
X1608Y1080*
X1607Y1080*
X1605Y1080*
G37*
G36*
X302Y1039D02*
X272D01*
Y1034*
X252*
X251Y1035*
X250Y1036*
X248Y1036*
X246Y1037*
X245Y1037*
X243*
X241Y1037*
X239Y1036*
X237Y1036*
X236Y1035*
X234Y1034*
X233Y1032*
X232Y1031*
X231Y1029*
X230Y1028*
X230Y1026*
X230Y1024*
Y1022*
X230Y1020*
X230Y1019*
X231Y1017*
X232Y1015*
X233Y1014*
X234Y1013*
X236Y1012*
X237Y1011*
X239Y1010*
X241Y1010*
X243Y1009*
X245*
X246Y1010*
X248Y1010*
X250Y1011*
X251Y1012*
X252Y1012*
X272*
Y1007*
X302*
Y1039*
G37*
G36*
X2957Y1042D02*
X2947D01*
X2944Y1042*
X2941Y1041*
X2937Y1041*
X2934Y1040*
X2931Y1038*
X2928Y1037*
X2925Y1035*
X2923Y1033*
X2920Y1031*
X2918Y1028*
X2916Y1026*
X2914Y1023*
X2912Y1020*
X2911Y1017*
X2910Y1013*
X2909Y1010*
X2909Y1007*
X2909Y1003*
X2909Y1000*
X2909Y997*
X2910Y993*
X2911Y990*
X2912Y987*
X2914Y984*
X2916Y981*
X2918Y979*
X2920Y976*
X2923Y974*
X2925Y972*
X2928Y970*
X2931Y969*
X2934Y967*
X2937Y966*
X2941Y966*
X2944Y965*
X2947Y965*
X2957*
X2961Y965*
X2964Y966*
X2967Y966*
X2970Y967*
X2973Y969*
X2976Y970*
X2979Y972*
X2982Y974*
X2984Y976*
X2987Y979*
X2989Y981*
X2991Y984*
X2992Y987*
X2993Y990*
X2994Y993*
X2995Y997*
X2996Y1000*
X2996Y1003*
X2996Y1007*
X2995Y1010*
X2994Y1013*
X2993Y1017*
X2992Y1020*
X2991Y1023*
X2989Y1026*
X2987Y1028*
X2984Y1031*
X2982Y1033*
X2979Y1035*
X2976Y1037*
X2973Y1038*
X2970Y1040*
X2967Y1041*
X2964Y1041*
X2961Y1042*
X2957Y1042*
G37*
G36*
X302Y921D02*
X272D01*
Y916*
X252*
X251Y917*
X250Y917*
X248Y918*
X246Y919*
X245Y919*
X243*
X241Y919*
X239Y918*
X237Y917*
X236Y917*
X234Y915*
X233Y914*
X232Y913*
X231Y911*
X230Y909*
X230Y908*
X230Y906*
Y904*
X230Y902*
X230Y901*
X231Y899*
X232Y897*
X233Y896*
X234Y895*
X236Y893*
X237Y893*
X239Y892*
X241Y891*
X243Y891*
X245*
X246Y891*
X248Y892*
X250Y893*
X251Y893*
X252Y894*
X272*
Y889*
X302*
Y921*
G37*
G36*
X2986Y944D02*
X2919D01*
X2917Y943*
X2916Y943*
X2914Y942*
X2913Y942*
X2912Y941*
X2911Y939*
X2910Y938*
X2909Y937*
X2909Y935*
X2909Y933*
Y877*
X2909Y875*
X2909Y873*
X2910Y872*
X2911Y871*
X2912Y869*
X2913Y868*
X2914Y868*
X2916Y867*
X2917Y867*
X2919Y867*
X2986*
X2987Y867*
X2989Y867*
X2990Y868*
X2992Y868*
X2993Y869*
X2994Y871*
X2995Y872*
X2995Y873*
X2996Y875*
X2996Y877*
Y933*
X2996Y935*
X2995Y937*
X2995Y938*
X2994Y939*
X2993Y941*
X2992Y942*
X2990Y942*
X2989Y943*
X2987Y943*
X2986Y944*
G37*
G36*
X302Y803D02*
X272D01*
Y798*
X252*
X251Y798*
X250Y799*
X248Y800*
X246Y801*
X245Y801*
X243*
X241Y801*
X239Y800*
X237Y799*
X236Y798*
X234Y797*
X233Y796*
X232Y795*
X231Y793*
X230Y791*
X230Y790*
X230Y788*
Y786*
X230Y784*
X230Y782*
X231Y781*
X232Y779*
X233Y778*
X234Y776*
X236Y775*
X237Y774*
X239Y774*
X241Y773*
X243Y773*
X245*
X246Y773*
X248Y774*
X250Y774*
X251Y775*
X252Y776*
X272*
Y771*
X302*
Y803*
G37*
G36*
Y685D02*
X272D01*
Y680*
X252*
X251Y680*
X250Y681*
X248Y682*
X246Y682*
X245Y683*
X243*
X241Y682*
X239Y682*
X237Y681*
X236Y680*
X234Y679*
X233Y678*
X232Y677*
X231Y675*
X230Y673*
X230Y672*
X230Y670*
Y668*
X230Y666*
X230Y664*
X231Y663*
X232Y661*
X233Y660*
X234Y658*
X236Y657*
X237Y656*
X239Y656*
X241Y655*
X243Y655*
X245*
X246Y655*
X248Y656*
X250Y656*
X251Y657*
X252Y658*
X272*
Y653*
X302*
Y685*
G37*
G36*
X2362Y614D02*
X2358Y614D01*
X2355Y613*
X2352Y612*
X2349Y611*
X2345Y610*
X2342Y609*
X2340Y607*
X2337Y605*
X2334Y603*
X2332Y600*
X2330Y597*
X2328Y595*
X2327Y592*
X2326Y588*
X2325Y585*
X2324Y582*
X2323Y579*
X2323Y575*
Y565*
X2323Y562*
X2324Y559*
X2325Y555*
X2326Y552*
X2327Y549*
X2328Y546*
X2330Y543*
X2332Y541*
X2334Y538*
X2337Y536*
X2340Y534*
X2342Y532*
X2345Y531*
X2349Y529*
X2352Y528*
X2355Y528*
X2358Y527*
X2362Y527*
X2365Y527*
X2368Y528*
X2372Y528*
X2375Y529*
X2378Y531*
X2381Y532*
X2384Y534*
X2386Y536*
X2389Y538*
X2391Y541*
X2393Y543*
X2395Y546*
X2397Y549*
X2398Y552*
X2399Y555*
X2400Y559*
X2400Y562*
X2400Y565*
Y575*
X2400Y579*
X2400Y582*
X2399Y585*
X2398Y588*
X2397Y592*
X2395Y595*
X2393Y597*
X2391Y600*
X2389Y603*
X2386Y605*
X2384Y607*
X2381Y609*
X2378Y610*
X2375Y611*
X2372Y612*
X2368Y613*
X2365Y614*
X2362Y614*
G37*
G36*
X2263D02*
X2260Y614D01*
X2257Y613*
X2253Y612*
X2250Y611*
X2247Y610*
X2244Y609*
X2241Y607*
X2239Y605*
X2236Y603*
X2234Y600*
X2232Y597*
X2230Y595*
X2228Y592*
X2227Y588*
X2226Y585*
X2225Y582*
X2225Y579*
X2225Y575*
Y565*
X2225Y562*
X2225Y559*
X2226Y555*
X2227Y552*
X2228Y549*
X2230Y546*
X2232Y543*
X2234Y541*
X2236Y538*
X2239Y536*
X2241Y534*
X2244Y532*
X2247Y531*
X2250Y529*
X2253Y528*
X2257Y528*
X2260Y527*
X2263Y527*
X2267Y527*
X2270Y528*
X2273Y528*
X2276Y529*
X2280Y531*
X2283Y532*
X2285Y534*
X2288Y536*
X2291Y538*
X2293Y541*
X2295Y543*
X2297Y546*
X2298Y549*
X2299Y552*
X2300Y555*
X2301Y559*
X2302Y562*
X2302Y565*
Y575*
X2302Y579*
X2301Y582*
X2300Y585*
X2299Y588*
X2298Y592*
X2297Y595*
X2295Y597*
X2293Y600*
X2291Y603*
X2288Y605*
X2285Y607*
X2283Y609*
X2280Y610*
X2276Y611*
X2273Y612*
X2270Y613*
X2267Y614*
X2263Y614*
G37*
G36*
X2165D02*
X2162Y614D01*
X2158Y613*
X2155Y612*
X2152Y611*
X2149Y610*
X2146Y609*
X2143Y607*
X2140Y605*
X2138Y603*
X2135Y600*
X2133Y597*
X2132Y595*
X2130Y592*
X2129Y588*
X2128Y585*
X2127Y582*
X2127Y579*
X2126Y575*
Y565*
X2127Y562*
X2127Y559*
X2128Y555*
X2129Y552*
X2130Y549*
X2132Y546*
X2133Y543*
X2135Y541*
X2138Y538*
X2140Y536*
X2143Y534*
X2146Y532*
X2149Y531*
X2152Y529*
X2155Y528*
X2158Y528*
X2162Y527*
X2165Y527*
X2168Y527*
X2172Y528*
X2175Y528*
X2178Y529*
X2181Y531*
X2184Y532*
X2187Y534*
X2190Y536*
X2192Y538*
X2194Y541*
X2196Y543*
X2198Y546*
X2200Y549*
X2201Y552*
X2202Y555*
X2203Y559*
X2203Y562*
X2203Y565*
Y575*
X2203Y579*
X2203Y582*
X2202Y585*
X2201Y588*
X2200Y592*
X2198Y595*
X2196Y597*
X2194Y600*
X2192Y603*
X2190Y605*
X2187Y607*
X2184Y609*
X2181Y610*
X2178Y611*
X2175Y612*
X2172Y613*
X2168Y614*
X2165Y614*
G37*
G36*
X2066D02*
X2063Y614D01*
X2060Y613*
X2056Y612*
X2053Y611*
X2050Y610*
X2047Y609*
X2044Y607*
X2042Y605*
X2039Y603*
X2037Y600*
X2035Y597*
X2033Y595*
X2032Y592*
X2030Y588*
X2029Y585*
X2029Y582*
X2028Y579*
X2028Y575*
Y565*
X2028Y562*
X2029Y559*
X2029Y555*
X2030Y552*
X2032Y549*
X2033Y546*
X2035Y543*
X2037Y541*
X2039Y538*
X2042Y536*
X2044Y534*
X2047Y532*
X2050Y531*
X2053Y529*
X2056Y528*
X2060Y528*
X2063Y527*
X2066Y527*
X2070Y527*
X2073Y528*
X2076Y528*
X2080Y529*
X2083Y531*
X2086Y532*
X2089Y534*
X2091Y536*
X2094Y538*
X2096Y541*
X2098Y543*
X2100Y546*
X2101Y549*
X2103Y552*
X2104Y555*
X2104Y559*
X2105Y562*
X2105Y565*
Y575*
X2105Y579*
X2104Y582*
X2104Y585*
X2103Y588*
X2101Y592*
X2100Y595*
X2098Y597*
X2096Y600*
X2094Y603*
X2091Y605*
X2089Y607*
X2086Y609*
X2083Y610*
X2080Y611*
X2076Y612*
X2073Y613*
X2070Y614*
X2066Y614*
G37*
G36*
X1890Y1096D02*
X1888D01*
X1887Y1096*
X1885Y1095*
X1883Y1095*
X1882Y1094*
X1880Y1093*
X1879Y1091*
X1878Y1090*
X1877Y1088*
X1876Y1087*
X1876Y1085*
X1875Y1083*
Y1081*
X1876Y1079*
X1876Y1078*
X1877Y1076*
X1878Y1074*
X1879Y1073*
X1880Y1072*
X1882Y1071*
X1883Y1070*
X1885Y1069*
X1887Y1069*
X1888Y1068*
X1890*
X1890Y1068*
X1959Y1000*
Y613*
X1958Y612*
X1955Y611*
X1952Y610*
X1949Y609*
X1946Y607*
X1943Y605*
X1941Y603*
X1939Y600*
X1936Y597*
X1935Y595*
X1933Y592*
X1932Y588*
X1931Y585*
X1930Y582*
X1930Y579*
X1930Y575*
Y565*
X1930Y562*
X1930Y559*
X1931Y555*
X1932Y552*
X1933Y549*
X1935Y546*
X1936Y543*
X1939Y541*
X1941Y538*
X1943Y536*
X1946Y534*
X1949Y532*
X1952Y531*
X1955Y529*
X1958Y528*
X1961Y528*
X1965Y527*
X1968Y527*
X1971Y527*
X1975Y528*
X1978Y528*
X1981Y529*
X1984Y531*
X1987Y532*
X1990Y534*
X1993Y536*
X1995Y538*
X1998Y541*
X2000Y543*
X2001Y546*
X2003Y549*
X2004Y552*
X2005Y555*
X2006Y559*
X2006Y562*
X2007Y565*
Y575*
X2006Y579*
X2006Y582*
X2005Y585*
X2004Y588*
X2003Y592*
X2001Y595*
X2000Y597*
X1998Y600*
X1995Y603*
X1993Y605*
X1990Y607*
X1987Y609*
X1984Y610*
X1981Y611*
X1978Y612*
X1977Y613*
Y1003*
X1977Y1005*
X1977Y1006*
X1976Y1008*
X1975Y1009*
X1974Y1010*
X1903Y1081*
X1903Y1081*
Y1083*
X1903Y1085*
X1902Y1087*
X1902Y1088*
X1901Y1090*
X1900Y1091*
X1898Y1093*
X1897Y1094*
X1895Y1095*
X1894Y1095*
X1892Y1096*
X1890Y1096*
G37*
G36*
X1870Y998D02*
X1869D01*
X1867Y997*
X1865Y997*
X1863Y996*
X1862Y995*
X1860Y994*
X1859Y993*
X1858Y991*
X1857Y990*
X1856Y988*
X1856Y986*
X1856Y985*
Y983*
X1856Y981*
X1856Y979*
X1857Y978*
X1858Y976*
X1859Y975*
X1860Y973*
X1861Y973*
Y613*
X1860Y612*
X1856Y611*
X1853Y610*
X1850Y609*
X1848Y607*
X1845Y605*
X1842Y603*
X1840Y600*
X1838Y597*
X1836Y595*
X1835Y592*
X1833Y588*
X1832Y585*
X1832Y582*
X1831Y579*
X1831Y575*
Y565*
X1831Y562*
X1832Y559*
X1832Y555*
X1833Y552*
X1835Y549*
X1836Y546*
X1838Y543*
X1840Y541*
X1842Y538*
X1845Y536*
X1848Y534*
X1850Y532*
X1853Y531*
X1856Y529*
X1860Y528*
X1863Y528*
X1866Y527*
X1870Y527*
X1873Y527*
X1876Y528*
X1880Y528*
X1883Y529*
X1886Y531*
X1889Y532*
X1892Y534*
X1894Y536*
X1897Y538*
X1899Y541*
X1901Y543*
X1903Y546*
X1904Y549*
X1906Y552*
X1907Y555*
X1907Y559*
X1908Y562*
X1908Y565*
Y575*
X1908Y579*
X1907Y582*
X1907Y585*
X1906Y588*
X1904Y592*
X1903Y595*
X1901Y597*
X1899Y600*
X1897Y603*
X1894Y605*
X1892Y607*
X1889Y609*
X1886Y610*
X1883Y611*
X1880Y612*
X1879Y613*
Y973*
X1879Y973*
X1880Y975*
X1881Y976*
X1882Y978*
X1883Y979*
X1883Y981*
X1883Y983*
Y985*
X1883Y986*
X1883Y988*
X1882Y990*
X1881Y991*
X1880Y993*
X1879Y994*
X1877Y995*
X1876Y996*
X1874Y997*
X1872Y997*
X1870Y998*
G37*
G36*
X1476Y614D02*
X1473Y614D01*
X1469Y613*
X1466Y612*
X1463Y611*
X1460Y610*
X1457Y609*
X1454Y607*
X1451Y605*
X1449Y603*
X1446Y600*
X1444Y597*
X1443Y595*
X1441Y592*
X1440Y588*
X1439Y585*
X1438Y582*
X1438Y579*
X1437Y575*
Y565*
X1438Y562*
X1438Y559*
X1439Y555*
X1440Y552*
X1441Y549*
X1443Y546*
X1444Y543*
X1446Y541*
X1449Y538*
X1451Y536*
X1454Y534*
X1457Y532*
X1460Y531*
X1463Y529*
X1466Y528*
X1469Y528*
X1473Y527*
X1476Y527*
X1479Y527*
X1483Y528*
X1486Y528*
X1489Y529*
X1492Y531*
X1495Y532*
X1498Y534*
X1501Y536*
X1503Y538*
X1505Y541*
X1507Y543*
X1509Y546*
X1511Y549*
X1512Y552*
X1513Y555*
X1514Y559*
X1514Y562*
X1514Y565*
Y575*
X1514Y579*
X1514Y582*
X1513Y585*
X1512Y588*
X1511Y592*
X1509Y595*
X1507Y597*
X1505Y600*
X1503Y603*
X1501Y605*
X1498Y607*
X1495Y609*
X1492Y610*
X1489Y611*
X1486Y612*
X1483Y613*
X1479Y614*
X1476Y614*
G37*
G36*
X3050Y1904D02*
X2696D01*
X2694Y1904*
X2693Y1904*
X2691Y1903*
X2689Y1902*
X2687Y1901*
X2686Y1900*
X2685Y1898*
X2683Y1897*
X2683Y1895*
X2682Y1893*
X2682Y1891*
X2681Y1889*
Y1838*
X2682Y1836*
X2682Y1834*
X2683Y1832*
X2683Y1831*
X2685Y1829*
X2686Y1828*
X2733Y1781*
Y925*
X2733Y923*
X2733Y921*
X2734Y919*
X2735Y917*
X2736Y916*
X2737Y914*
X2757Y894*
X2758Y893*
X2760Y892*
X2762Y891*
X2763Y891*
X2765Y890*
X2767Y890*
X2769Y890*
X2771Y891*
X2773Y891*
X2775Y892*
X2776Y893*
X2778Y894*
X2779Y896*
X2780Y898*
X2781Y899*
X2782Y901*
X2782Y903*
X2782Y905*
X2782Y907*
X2782Y909*
X2781Y911*
X2780Y912*
X2779Y914*
X2778Y916*
X2762Y931*
Y1787*
X2762Y1789*
X2762Y1791*
X2761Y1793*
X2760Y1794*
X2759Y1796*
X2758Y1797*
X2711Y1844*
Y1874*
X3044*
X3075Y1844*
Y832*
X2690Y447*
X1423*
X1392Y478*
Y527*
X1406*
X1407Y527*
X1409Y527*
X1410Y528*
X1412Y529*
X1413Y530*
X1414Y531*
X1415Y532*
X1415Y534*
X1416Y535*
X1416Y537*
Y604*
X1416Y605*
X1415Y607*
X1415Y608*
X1414Y610*
X1413Y611*
X1412Y612*
X1410Y613*
X1409Y613*
X1407Y614*
X1406Y614*
X1349*
X1347Y614*
X1346Y613*
X1344Y613*
X1343Y612*
X1342Y611*
X1341Y610*
X1340Y608*
X1339Y607*
X1339Y605*
X1339Y604*
Y537*
X1339Y535*
X1339Y534*
X1340Y532*
X1341Y531*
X1342Y530*
X1343Y529*
X1344Y528*
X1346Y527*
X1347Y527*
X1349Y527*
X1363*
Y472*
X1363Y470*
X1363Y468*
X1364Y466*
X1365Y465*
X1366Y463*
X1367Y461*
X1406Y422*
X1408Y421*
X1409Y420*
X1411Y419*
X1413Y418*
X1415Y418*
X1417Y418*
X2696*
X2698Y418*
X2700Y418*
X2702Y419*
X2704Y420*
X2705Y421*
X2707Y422*
X3101Y816*
X3102Y817*
X3103Y819*
X3104Y821*
X3104Y822*
X3105Y824*
X3105Y826*
Y1850*
X3105Y1852*
X3104Y1854*
X3104Y1855*
X3103Y1857*
X3102Y1859*
X3101Y1860*
X3061Y1900*
X3060Y1901*
X3058Y1902*
X3056Y1903*
X3054Y1904*
X3052Y1904*
X3052Y1904*
X3050Y1904*
G37*
%LNbenchypowersupplypcb-3*%
%LPD*%
G36*
X1751Y4944D02*
X1755Y4943D01*
X1762Y4939*
X1766Y4932*
X1767Y4925*
X1767Y4920*
Y4660*
X1767Y4657*
X1770Y4652*
X1774Y4647*
X1780Y4645*
X1783Y4645*
X1790*
X1792*
X1795Y4643*
X1797Y4641*
X1798Y4637*
Y4632*
Y4578*
Y4576*
X1797Y4573*
X1795Y4571*
X1792Y4570*
X1790*
X1141*
X1133Y4569*
X1117Y4566*
X1102Y4560*
X1088Y4551*
X1077Y4540*
X1068Y4526*
X1062Y4511*
X1059Y4495*
X1058Y4487*
Y4152*
Y4149*
X1057Y4141*
X1054Y4134*
X1049Y4127*
X1044Y4122*
X1037Y4118*
X1030Y4115*
X1024Y4113*
X1019Y4113*
X771*
X767*
X760Y4114*
X754Y4117*
X748Y4121*
X743Y4126*
X739Y4132*
X737Y4138*
X735Y4145*
Y4149*
Y4149*
Y4836*
X735Y4846*
X738Y4866*
X745Y4885*
X755Y4903*
X769Y4918*
X785Y4930*
X804Y4938*
X824Y4943*
X834Y4944*
X1751*
G37*
G36*
X1885Y4545D02*
X1887Y4545D01*
X1888Y4545*
X1890*
X1892Y4545*
X1930Y4506*
Y4503*
X1931Y4501*
X1931Y4499*
X1932Y4498*
X1933Y4497*
X1978Y4452*
X1976Y4448*
X1970*
X1882Y4535*
X1883Y4537*
Y4539*
X1882Y4540*
X1882Y4542*
X1882Y4542*
X1885Y4545*
X1885Y4545*
G37*
G54D13*
X244Y669D02*
X287D01*
X244Y787D02*
X287D01*
X244Y905D02*
X287D01*
X244Y1023D02*
X287D01*
X244Y1141D02*
X287D01*
X244Y1259D02*
X287D01*
X244Y1377D02*
X287D01*
X244Y1496D02*
X287D01*
X657Y1732D02*
Y1791D01*
X708Y1299D02*
Y1681D01*
X657Y1732D02*
X708Y1681D01*
X480Y2578D02*
X807Y2251D01*
Y1842D02*
Y2251D01*
X1106Y1755D02*
X1452Y2102D01*
X1106Y1551D02*
Y1755D01*
X1452Y2102D02*
Y2192D01*
X1425Y2220D02*
X1452Y2192D01*
X1425Y2417D02*
X1444Y2437D01*
X1425Y2220D02*
Y2417D01*
X1387Y1110D02*
X1421Y1143D01*
X1657*
X2461Y4576D02*
X2943D01*
G54D14*
X1771Y755D02*
X1826Y811D01*
Y1255*
X2204Y2043D02*
X2673D01*
X1933Y1771D02*
X2204Y2043D01*
X2673D02*
X2913Y2283D01*
X1960Y1751D02*
X2224Y2015D01*
X2685D02*
X2952Y2283D01*
X2224Y2015D02*
X2685D01*
X2822Y1988D02*
X2992Y2157D01*
X2248Y1988D02*
X2822D01*
X1988Y1728D02*
X2248Y1988D01*
X2019Y1712D02*
X2267Y1960D01*
X2834*
X3031Y2157*
X2283Y1933D02*
X2846D01*
X2059Y1708D02*
X2283Y1933D01*
X2846D02*
X3070Y2157D01*
X602Y1244D02*
X708Y1137D01*
X602Y1404D02*
X618Y1419D01*
X602Y1244D02*
Y1404D01*
X618Y1419D02*
Y1598D01*
X2314Y4622D02*
X2401Y4535D01*
X2256Y4680D02*
X2314Y4622D01*
X2318D02*
X2381Y4685D01*
X2314Y4622D02*
X2318D01*
X1358Y2185D02*
X1417Y2125D01*
X1358Y2185D02*
Y2452D01*
X1629Y1374D02*
X1909D01*
X1988Y1444D02*
X2031D01*
X2059Y1472*
X1318Y1732D02*
X1555D01*
X1653Y1350D02*
X1814D01*
X1834Y1330D02*
X1909D01*
X1814Y1350D02*
X1834Y1330D01*
X2125Y4330D02*
X2374D01*
X2401Y4358D02*
Y4535D01*
X2374Y4330D02*
X2401Y4358D01*
X2196Y4680D02*
X2256D01*
X1653Y2559D02*
Y2972D01*
X921Y1405D02*
X964Y1448D01*
Y1732D02*
X1350Y2118D01*
X964Y1448D02*
Y1732D01*
X1318Y1870D02*
X1625D01*
X1240Y1791D02*
X1318Y1870D01*
X1169Y1515D02*
X1248Y1437D01*
X1417*
X1244Y1488D02*
X1433D01*
X1212Y1519D02*
X1244Y1488D01*
X1535Y1299D02*
Y1385D01*
X1433Y1488D02*
X1535Y1385D01*
X1708Y3031D02*
X1712D01*
X1678Y3002D02*
X1708Y3031D01*
X1678Y2997D02*
Y3002D01*
X1653Y2972D02*
X1678Y2997D01*
X1988Y1574D02*
Y1728D01*
X1937Y1523D02*
X1988Y1574D01*
X2059Y1472D02*
Y1708D01*
X1937Y1484D02*
X1977Y1524D01*
X1981*
X2019Y1562*
Y1712*
X1834Y1491D02*
D01*
X1933Y1590*
X1818Y1476D02*
X1834Y1491D01*
X1960Y1578D02*
Y1751D01*
X1862Y1480D02*
X1960Y1578D01*
X1933Y1590D02*
Y1771D01*
X2913Y2283D02*
Y2559D01*
X3070Y2157D02*
Y2401D01*
X3031Y2157D02*
Y2440D01*
X2992Y2157D02*
Y2480D01*
X2952Y2283D02*
Y2519D01*
X1771Y570D02*
Y755D01*
Y881D02*
Y1240D01*
X1574Y685D02*
X1771Y881D01*
X1673Y712D02*
X1795Y834D01*
Y1255*
X1574Y570D02*
Y685D01*
X1673Y570D02*
Y712D01*
X1870Y570D02*
Y984D01*
X1889Y1082D02*
X1968Y1003D01*
Y570D02*
Y1003D01*
X1870Y570D02*
D01*
X1566Y952D02*
Y1029D01*
X1604Y1066*
X1594Y925D02*
Y1023D01*
G54D37*
X287Y1141D03*
X327D03*
X287Y1377D03*
X327D03*
X287Y905D03*
X327D03*
X287Y787D03*
X327D03*
X287Y1259D03*
X327D03*
X287Y1496D03*
X327D03*
X287Y1023D03*
X327D03*
X287Y669D03*
X327D03*
G54D108*
X1938Y4503D02*
Y4509D01*
X1889Y4559D02*
X1938Y4509D01*
Y4503D02*
X1985Y4456D01*
X2305D02*
X2366Y4395D01*
Y4370D02*
Y4395D01*
X2330Y4383D02*
X2338Y4390D01*
X2330Y4370D02*
Y4383D01*
X2338Y4390D02*
Y4400D01*
X1985Y4456D02*
X2305D01*
X2298Y4440D02*
X2338Y4400D01*
X1967Y4440D02*
X2298D01*
X1869Y4538D02*
X1967Y4440D01*
G54D109*
X948Y1047D02*
X1192D01*
X1220Y1074*
X830Y1165D02*
X948Y1047D01*
X901Y1023D02*
X1236D01*
X771Y1153D02*
X901Y1023D01*
X1173Y2676D02*
X1173Y2677D01*
X1173Y2566D02*
Y2676D01*
X1122Y1976D02*
Y2515D01*
X1173Y2566*
X830Y1685D02*
X1122Y1976D01*
X830Y1165D02*
Y1685D01*
X1220Y1074D02*
Y1122D01*
X1295Y2933D02*
X1397D01*
X1074Y2712D02*
X1295Y2933D01*
X1074Y2043D02*
Y2712D01*
X771Y1740D02*
X1074Y2043D01*
X771Y1153D02*
Y1740D01*
G54D110*
X3050Y1889D02*
D01*
X1657Y1143D02*
Y1232D01*
Y1110D02*
Y1143D01*
X1039Y1401D02*
Y1484D01*
X964Y1326D02*
X1039Y1401D01*
Y1484D02*
X1106Y1551D01*
X1597Y1292D02*
X1657Y1232D01*
X1106Y1551D02*
X1267D01*
X1597Y1543D02*
X1763D01*
X1515D02*
X1597D01*
Y1292D02*
Y1543D01*
X1342Y1551D02*
X1507D01*
X1267D02*
X1342D01*
Y1645*
X1507Y1551D02*
X1515Y1543D01*
G54D111*
X2145Y2098D02*
X2649D01*
X2775Y2224*
X1846Y1799D02*
X2145Y2098D01*
X2661Y2070D02*
X2814Y2224D01*
X2169Y2070D02*
X2661D01*
X1870Y1771D02*
X2169Y2070D01*
X1685Y1799D02*
X1846D01*
X1692Y1771D02*
X1870D01*
X1665Y1657D02*
X1732Y1724D01*
X1618Y1657D02*
X1665D01*
X1570Y1700D02*
X1586D01*
X1685Y1799*
X1594Y1673D02*
X1692Y1771D01*
X2775Y2224D02*
Y2645D01*
X2685Y2736D02*
X2775Y2645D01*
X2814Y2224D02*
Y3248D01*
X2755Y3307D02*
X2814Y3248D01*
X2673Y2736D02*
X2685D01*
X2456Y3397D02*
X2468D01*
X2559Y3307*
X2755*
G54D112*
X2212Y2271D02*
Y3122D01*
X2086Y3248D02*
X2212Y3122D01*
Y2271D02*
X2329Y2155D01*
X2540*
X2566Y2181*
X2661Y2405D02*
X2673D01*
X2566Y2311D02*
X2661Y2405D01*
X2566Y2181D02*
Y2311D01*
X1791Y3562D02*
X2456D01*
X1751Y3602D02*
X1791Y3562D01*
X984Y3602D02*
X1751D01*
X669Y3248D02*
X2086D01*
X531Y3374D02*
Y3385D01*
Y3374D02*
X564Y3340D01*
X576*
X669Y3248*
G54D113*
X2696Y1838D02*
Y1889D01*
X2748Y925D02*
Y1787D01*
X2696Y1838D02*
X2748Y1787D01*
Y925D02*
X2767Y905D01*
X1377Y472D02*
Y570D01*
X1417Y433D02*
X2696D01*
X1377Y472D02*
X1417Y433D01*
X2696D02*
X3090Y826D01*
X3050Y1889D02*
X3090Y1850D01*
Y826D02*
Y1850D01*
X2696Y1889D02*
X3050D01*
G54D116*
X531Y3385D03*
X984D03*
Y2834D03*
X977Y4202D03*
G54D117*
X366Y3385D03*
X531Y3602D03*
X366D03*
X818Y3385D03*
X984Y3602D03*
X818D03*
Y3051D03*
X984D03*
X818Y2834D03*
X812Y4202D03*
X647D03*
X481D03*
X977Y4418D03*
X812D03*
X647D03*
X481D03*
G54D118*
X2027Y3031D03*
X1712D03*
X1397D03*
X2952Y905D03*
X314Y1791D03*
G54D119*
X2027Y2933D03*
Y2834D03*
X1712Y2933D03*
Y2834D03*
X1397Y2933D03*
Y2834D03*
X2952Y1003D03*
Y1102D03*
Y1200D03*
Y1299D03*
Y1397D03*
X314Y1889D03*
Y1988D03*
Y2086D03*
Y2185D03*
Y2283D03*
G54D120*
X1791Y2027D03*
G54D121*
X1692Y2027D03*
G54D122*
X314Y2578D03*
Y2696D03*
G54D123*
X2460Y570D03*
X2362D03*
X2263D03*
X2165D03*
X2066D03*
X1968D03*
X1870D03*
X1771D03*
X1673D03*
X1574D03*
X1476D03*
G54D124*
X1377Y570D03*
G54D125*
X1208Y2416D03*
Y2336D03*
X1508Y2376D03*
G54D126*
X1508Y2276D03*
X1283Y2476D03*
Y2276D03*
X1508Y2476D03*
G54D127*
X2992Y472D03*
X334Y452D03*
Y5078D03*
X3011D03*
G54D128*
X2456Y2240D03*
G54D129*
X2456Y2405D03*
Y2570D03*
Y2736D03*
Y2901D03*
Y3066D03*
Y3232D03*
Y3397D03*
Y3562D03*
Y3728D03*
Y3893D03*
Y4059D03*
X2673Y2240D03*
Y2405D03*
Y2570D03*
Y2736D03*
Y2901D03*
Y3066D03*
Y3232D03*
Y3397D03*
Y3562D03*
Y3728D03*
Y3893D03*
Y4059D03*
G54D130*
X1163Y4400D03*
X296D03*
G54D131*
X1826Y1255D03*
X2248Y2137D03*
X744Y1476D03*
X661Y1397D03*
X803Y1539D03*
Y1653D03*
X744Y1625D03*
X661Y1543D03*
X1889Y4559D03*
X2366Y4370D03*
X2330D03*
X2224Y4354D03*
X3047Y4917D03*
X3096Y4818D03*
X3047Y4720D03*
X3096Y4622D03*
X3047Y4523D03*
Y1767D03*
Y1374D03*
Y1177D03*
Y980D03*
X3096Y685D03*
X2948Y4917D03*
X2998Y4818D03*
X2948Y4720D03*
X2998Y4622D03*
X2948Y4523D03*
X2998Y4425D03*
X2948Y2161D03*
Y1767D03*
X2998Y1669D03*
X2948Y1570D03*
X2998Y1472D03*
X2948Y783D03*
X2998Y685D03*
X2850Y5114D03*
X2899Y5015D03*
X2850Y4917D03*
X2899Y4818D03*
X2850Y4720D03*
X2899Y4622D03*
X2850Y4129D03*
Y3933D03*
Y2358D03*
Y1767D03*
Y1570D03*
X2899Y1472D03*
X2850Y1374D03*
X2899Y1275D03*
Y1078D03*
X2850Y783D03*
X2899Y685D03*
X2850Y389D03*
X2751Y5114D03*
X2801Y5015D03*
X2751Y4917D03*
X2801Y4818D03*
X2751Y4720D03*
X2801Y4622D03*
X2751Y4326D03*
X2801Y4228D03*
X2751Y4129D03*
X2801Y4031D03*
X2751Y3933D03*
X2801Y3834D03*
X2751Y3736D03*
X2801Y3637D03*
X2751Y3539D03*
X2801Y3440D03*
X2751Y3342D03*
Y3145D03*
Y2948D03*
Y2751D03*
Y2555D03*
Y2358D03*
X2801Y2062D03*
Y1669D03*
Y1472D03*
X2751Y783D03*
X2801Y685D03*
X2751Y586D03*
X2801Y488D03*
X2751Y389D03*
X2653Y5114D03*
X2702Y5015D03*
X2653Y4917D03*
X2702Y4818D03*
X2653Y4523D03*
X2702Y4425D03*
X2653Y4326D03*
X2702Y4228D03*
X2653Y4129D03*
Y3145D03*
X2702Y2653D03*
X2653Y2161D03*
Y1767D03*
X2702Y1669D03*
X2653Y1570D03*
X2702Y1472D03*
X2653Y1374D03*
X2702Y1275D03*
X2653Y1177D03*
X2702Y1078D03*
X2653Y980D03*
X2702Y881D03*
X2653Y783D03*
X2702Y685D03*
X2653Y586D03*
X2702Y488D03*
X2653Y389D03*
X2555Y5114D03*
X2604Y5015D03*
X2555Y4917D03*
X2604Y4818D03*
X2555Y4523D03*
X2604Y4425D03*
X2555Y4326D03*
X2604Y4228D03*
X2555Y4129D03*
Y3539D03*
X2604Y3440D03*
X2555Y2948D03*
X2604Y2850D03*
X2555Y2751D03*
X2604Y2653D03*
X2555Y2555D03*
Y2358D03*
Y1767D03*
Y1570D03*
X2604Y1472D03*
X2555Y1374D03*
X2604Y1275D03*
X2555Y1177D03*
X2604Y1078D03*
X2555Y980D03*
X2604Y881D03*
X2555Y783D03*
X2604Y685D03*
X2555Y586D03*
X2604Y488D03*
X2555Y389D03*
X2456Y5114D03*
X2505Y5015D03*
X2456Y4917D03*
X2505Y4818D03*
Y4425D03*
X2456Y4326D03*
X2505Y4228D03*
X2456Y4129D03*
X2505Y3637D03*
X2456Y3145D03*
X2505Y2653D03*
Y1866D03*
X2456Y1767D03*
X2505Y1669D03*
X2456Y1570D03*
X2505Y1472D03*
X2456Y1374D03*
X2505Y1275D03*
X2456Y1177D03*
X2505Y1078D03*
X2456Y980D03*
X2505Y881D03*
X2456Y783D03*
X2505Y685D03*
Y488D03*
X2456Y389D03*
X2358Y5114D03*
X2407Y5015D03*
X2358Y4917D03*
X2407Y4818D03*
Y4228D03*
X2358Y4129D03*
X2407Y3637D03*
X2358Y3342D03*
Y3145D03*
Y2948D03*
X2407Y2653D03*
X2358Y2555D03*
Y2358D03*
X2407Y1866D03*
X2358Y1767D03*
X2407Y1669D03*
X2358Y1570D03*
X2407Y1472D03*
X2358Y1374D03*
X2407Y1275D03*
X2358Y1177D03*
X2407Y1078D03*
X2358Y980D03*
X2407Y881D03*
X2358Y783D03*
X2407Y685D03*
Y488D03*
X2358Y389D03*
X2259Y5114D03*
X2309Y5015D03*
X2259Y4917D03*
X2309Y4818D03*
Y4228D03*
Y4031D03*
X2259Y3933D03*
X2309Y3637D03*
Y3440D03*
X2259Y3342D03*
X2309Y3244D03*
X2259Y3145D03*
X2309Y2653D03*
Y2456D03*
X2259Y2358D03*
X2309Y2259D03*
Y1669D03*
X2259Y1570D03*
X2309Y1472D03*
X2259Y1374D03*
X2309Y1275D03*
X2259Y1177D03*
X2309Y1078D03*
X2259Y980D03*
X2309Y881D03*
Y685D03*
Y488D03*
X2259Y389D03*
X2161Y5114D03*
X2210Y5015D03*
X2161Y4917D03*
X2210Y4818D03*
Y3440D03*
Y3244D03*
X2161Y2751D03*
Y2555D03*
Y2358D03*
Y2161D03*
Y1767D03*
X2210Y1669D03*
X2161Y1570D03*
X2210Y1472D03*
X2161Y1374D03*
X2210Y1275D03*
X2161Y1177D03*
X2210Y1078D03*
X2161Y980D03*
X2210Y881D03*
X2161Y783D03*
X2210Y685D03*
Y488D03*
X2161Y389D03*
X2062Y5114D03*
X2112Y5015D03*
X2062Y4523D03*
X2112Y2850D03*
X2062Y2751D03*
Y2555D03*
X2112Y2456D03*
Y2259D03*
X2062Y2161D03*
X2112Y1472D03*
X2062Y1374D03*
X2112Y1275D03*
X2062Y1177D03*
X2112Y1078D03*
Y685D03*
Y488D03*
X2062Y389D03*
X1964Y5114D03*
X2013Y5015D03*
X1964Y4523D03*
Y2751D03*
Y2555D03*
Y2358D03*
X2013Y2259D03*
X1964Y2161D03*
X2013Y2062D03*
X1964Y1964D03*
X2013Y1275D03*
Y1078D03*
Y685D03*
Y488D03*
X1964Y389D03*
X1866Y5114D03*
X1915Y5015D03*
X1866Y4917D03*
X1915Y4818D03*
X1866Y4720D03*
X1915Y4622D03*
Y2850D03*
X1866Y2751D03*
X1915Y2456D03*
X1866Y2358D03*
X1915Y2259D03*
X1866Y2161D03*
X1915Y2062D03*
X1866Y1964D03*
Y1177D03*
X1915Y685D03*
Y488D03*
X1866Y389D03*
X1767Y5114D03*
X1816Y5015D03*
Y4818D03*
Y4622D03*
X1767Y4523D03*
X1816Y4425D03*
X1767Y4326D03*
X1816Y4228D03*
X1767Y4129D03*
X1816Y4031D03*
X1767Y3933D03*
X1816Y3834D03*
Y2850D03*
X1767Y2751D03*
Y2555D03*
X1816Y2456D03*
X1767Y2358D03*
X1816Y2259D03*
X1767Y2161D03*
Y1964D03*
X1816Y1866D03*
Y1669D03*
Y685D03*
Y488D03*
X1767Y389D03*
X1669Y5114D03*
X1718Y5015D03*
Y4425D03*
X1669Y4326D03*
Y4129D03*
X1718Y4031D03*
Y3834D03*
X1669Y3736D03*
X1718Y2456D03*
Y2259D03*
X1669Y2161D03*
Y1964D03*
X1718Y1866D03*
Y1669D03*
Y1078D03*
X1669Y980D03*
X1718Y685D03*
Y488D03*
X1669Y389D03*
X1570Y5114D03*
X1620Y5015D03*
Y4425D03*
X1570Y4326D03*
Y4129D03*
X1620Y4031D03*
Y3834D03*
X1570Y3736D03*
X1620Y2850D03*
X1570Y2751D03*
Y2358D03*
Y783D03*
X1620Y685D03*
Y488D03*
X1570Y389D03*
X1472Y5114D03*
X1521Y4425D03*
X1472Y4326D03*
X1521Y4228D03*
X1472Y4129D03*
X1521Y4031D03*
X1472Y3933D03*
X1521Y3834D03*
X1472Y3736D03*
Y3539D03*
X1521Y2850D03*
X1472Y2751D03*
X1521Y2062D03*
X1472Y1964D03*
X1521Y1078D03*
X1472Y980D03*
X1521Y881D03*
X1472Y783D03*
X1521Y685D03*
Y488D03*
X1472Y389D03*
X1374Y5114D03*
X1423Y4425D03*
X1374Y4326D03*
X1423Y4228D03*
X1374Y4129D03*
X1423Y4031D03*
X1374Y3933D03*
X1423Y3834D03*
X1374Y3736D03*
Y3539D03*
Y2751D03*
Y2555D03*
Y1964D03*
X1423Y1275D03*
X1374Y980D03*
Y783D03*
X1423Y685D03*
Y488D03*
X1374Y389D03*
X1275Y5114D03*
X1324Y4425D03*
X1275Y4326D03*
X1324Y4031D03*
X1275Y3933D03*
X1324Y3834D03*
X1275Y3736D03*
Y3539D03*
Y2948D03*
X1324Y2850D03*
X1275Y2751D03*
Y2555D03*
Y2161D03*
X1324Y2062D03*
X1275Y1767D03*
X1324Y1275D03*
X1275Y980D03*
X1324Y881D03*
X1275Y783D03*
X1324Y685D03*
X1275Y586D03*
X1324Y488D03*
X1275Y389D03*
X1177Y5114D03*
Y4523D03*
Y4129D03*
X1226Y4031D03*
X1177Y3933D03*
X1226Y3834D03*
X1177Y3736D03*
Y3539D03*
Y2948D03*
Y2751D03*
Y2358D03*
Y2161D03*
Y1767D03*
X1226Y1669D03*
X1177Y980D03*
X1226Y881D03*
X1177Y783D03*
X1226Y685D03*
X1177Y586D03*
X1226Y488D03*
X1177Y389D03*
X1078Y5114D03*
X1127Y4031D03*
X1078Y3933D03*
X1127Y3834D03*
X1078Y3736D03*
Y3539D03*
Y2948D03*
X1127Y2850D03*
X1078Y2751D03*
Y1964D03*
X1127Y1866D03*
X1078Y1767D03*
Y1177D03*
Y980D03*
X1127Y881D03*
X1078Y783D03*
X1127Y685D03*
X1078Y586D03*
X1127Y488D03*
X1078Y389D03*
X980Y5114D03*
X1029Y5015D03*
Y4031D03*
X980Y3933D03*
X1029Y3834D03*
X980Y3736D03*
Y2948D03*
Y2751D03*
Y2555D03*
X1029Y2456D03*
X980Y2358D03*
X1029Y2259D03*
X980Y2161D03*
X1029Y2062D03*
Y1669D03*
X980Y1177D03*
X1029Y1078D03*
X980Y980D03*
X1029Y881D03*
X980Y783D03*
X1029Y685D03*
X980Y586D03*
X1029Y488D03*
X980Y389D03*
X881Y5114D03*
X931Y5015D03*
Y4031D03*
X881Y3933D03*
X931Y3834D03*
X881Y3736D03*
Y3539D03*
Y2948D03*
Y2751D03*
Y2555D03*
X931Y2456D03*
X881Y2358D03*
X931Y2259D03*
X881Y2161D03*
X931Y2062D03*
X881Y1964D03*
X931Y1866D03*
X881Y1767D03*
X931Y1669D03*
X881Y1374D03*
Y1177D03*
Y980D03*
X931Y881D03*
X881Y783D03*
X931Y685D03*
X881Y586D03*
X931Y488D03*
X881Y389D03*
X783Y5114D03*
X832Y5015D03*
Y4031D03*
X783Y3933D03*
X832Y3834D03*
X783Y3736D03*
Y2948D03*
Y2751D03*
Y2555D03*
X832Y2456D03*
X783Y2358D03*
X832Y2259D03*
X783Y2161D03*
X832Y2062D03*
X783Y1964D03*
X832Y1866D03*
Y881D03*
X783Y783D03*
X832Y685D03*
X783Y586D03*
X832Y488D03*
X783Y389D03*
X685Y5114D03*
X734Y5015D03*
X685Y4917D03*
Y4720D03*
Y4523D03*
Y4326D03*
Y4129D03*
X734Y4031D03*
X685Y3933D03*
X734Y3834D03*
X685Y3736D03*
X734Y3637D03*
X685Y3539D03*
Y2948D03*
X734Y2850D03*
X685Y2751D03*
Y2555D03*
X734Y2456D03*
Y2259D03*
X685Y2161D03*
X734Y2062D03*
X685Y1964D03*
X734Y1866D03*
X685Y1767D03*
Y1374D03*
X734Y1275D03*
Y1078D03*
X685Y980D03*
Y783D03*
X734Y685D03*
X685Y586D03*
X734Y488D03*
X685Y389D03*
X586Y5114D03*
X635Y5015D03*
X586Y4917D03*
X635Y4818D03*
X586Y4720D03*
X635Y4622D03*
X586Y4523D03*
Y4326D03*
Y4129D03*
X635Y4031D03*
X586Y3933D03*
X635Y3834D03*
X586Y3736D03*
X635Y3637D03*
X586Y3539D03*
Y2948D03*
X635Y2850D03*
X586Y2555D03*
X635Y2456D03*
X586Y2358D03*
X635Y2259D03*
X586Y2161D03*
X635Y2062D03*
X586Y1964D03*
X635Y1866D03*
X586Y1767D03*
X635Y1669D03*
X586Y1570D03*
X635Y1275D03*
X586Y980D03*
X635Y881D03*
Y685D03*
X586Y586D03*
Y389D03*
X488Y5114D03*
X537Y5015D03*
X488Y4917D03*
X537Y4818D03*
X488Y4720D03*
X537Y4622D03*
X488Y4523D03*
Y4326D03*
Y4129D03*
X537Y4031D03*
X488Y3933D03*
X537Y3834D03*
X488Y3736D03*
Y2948D03*
X537Y2850D03*
X488Y2751D03*
X537Y2456D03*
X488Y2358D03*
X537Y2259D03*
X488Y2161D03*
X537Y2062D03*
X488Y1964D03*
X537Y1866D03*
Y1669D03*
X488Y1570D03*
X537Y1472D03*
Y1275D03*
X488Y1177D03*
X537Y1078D03*
X488Y980D03*
X537Y881D03*
Y685D03*
Y488D03*
X488Y389D03*
X389Y4917D03*
X438Y4818D03*
X389Y4720D03*
X438Y4622D03*
X389Y4523D03*
Y4326D03*
Y4129D03*
X438Y4031D03*
X389Y3933D03*
X438Y3834D03*
X389Y3736D03*
X438Y3637D03*
Y2653D03*
Y2456D03*
X389Y2358D03*
X438Y2259D03*
X389Y2161D03*
X438Y2062D03*
X389Y1964D03*
X438Y1866D03*
X389Y1767D03*
X438Y1669D03*
X389Y1570D03*
X438Y1472D03*
X389Y1177D03*
X438Y1078D03*
X389Y980D03*
X438Y881D03*
X389Y586D03*
X291Y4917D03*
X340Y4818D03*
X291Y4720D03*
X340Y4622D03*
X291Y4523D03*
X340Y4228D03*
X291Y4129D03*
X340Y4031D03*
X291Y3933D03*
X340Y3834D03*
X291Y3736D03*
Y2948D03*
X340Y2850D03*
Y2653D03*
Y2456D03*
X291Y2358D03*
X340Y1669D03*
X291Y1570D03*
X340Y1078D03*
X291Y980D03*
Y586D03*
X1496Y1102D03*
X1627Y1107D03*
X1208Y1578D03*
X618Y1598D03*
X1228Y2377D03*
X1742Y4901D03*
X1712Y4842D03*
X1742Y4783D03*
X1712Y4724D03*
X1742Y4665D03*
X1712Y4606D03*
X1683Y4901D03*
X1653Y4842D03*
X1683Y4783D03*
X1653Y4724D03*
X1683Y4665D03*
X1653Y4606D03*
X1624Y4901D03*
X1594Y4842D03*
X1624Y4783D03*
X1594Y4724D03*
X1624Y4665D03*
X1594Y4606D03*
X1564Y4901D03*
X1535Y4842D03*
X1564Y4783D03*
X1535Y4724D03*
X1564Y4665D03*
X1535Y4606D03*
X1505Y4901D03*
X1476Y4842D03*
X1505Y4783D03*
X1476Y4724D03*
X1505Y4665D03*
X1476Y4606D03*
X1446Y4901D03*
X1417Y4842D03*
X1446Y4783D03*
X1417Y4724D03*
X1446Y4665D03*
X1417Y4606D03*
X1387Y4901D03*
X1358Y4842D03*
X1387Y4783D03*
X1358Y4724D03*
X1387Y4665D03*
X1358Y4606D03*
X1328Y4901D03*
X1299Y4842D03*
X1328Y4783D03*
X1299Y4724D03*
X1328Y4665D03*
X1299Y4606D03*
X1269Y4901D03*
X1240Y4842D03*
X1269Y4783D03*
X1240Y4724D03*
X1269Y4665D03*
X1240Y4606D03*
X1210Y4901D03*
X1181Y4842D03*
X1210Y4783D03*
X1181Y4724D03*
X1210Y4665D03*
X1181Y4606D03*
X1151Y4901D03*
X1122Y4842D03*
X1151Y4783D03*
X1122Y4724D03*
X1151Y4665D03*
X1122Y4606D03*
X1092Y4901D03*
X1062Y4842D03*
X1092Y4783D03*
X1062Y4724D03*
X1092Y4665D03*
X1062Y4606D03*
X1033Y4901D03*
X1003Y4842D03*
X1033Y4783D03*
X1003Y4724D03*
X1033Y4665D03*
X1003Y4606D03*
X1033Y4547D03*
Y4311D03*
X974Y4901D03*
X944Y4842D03*
X974Y4783D03*
X944Y4724D03*
X974Y4665D03*
X944Y4606D03*
X974Y4547D03*
Y4311D03*
X915Y4901D03*
X885Y4842D03*
X915Y4665D03*
X885Y4606D03*
X915Y4547D03*
X885Y4370D03*
X915Y4311D03*
X885Y4251D03*
Y4133D03*
X856Y4901D03*
X826Y4842D03*
X856Y4665D03*
X826Y4606D03*
X856Y4547D03*
Y4311D03*
X797Y4901D03*
X767Y4842D03*
X797Y4665D03*
X767Y4606D03*
X797Y4547D03*
X767Y4488D03*
X797Y4311D03*
X767Y4133D03*
X708Y1137D03*
X1387Y1027D03*
X244Y669D03*
Y787D03*
Y905D03*
Y1023D03*
Y1141D03*
Y1259D03*
Y1377D03*
Y1496D03*
X1381Y2429D03*
X1397Y2322D03*
X2897Y1397D03*
X3007D03*
X2952Y1448D03*
X2511Y570D03*
X2460Y515D03*
Y625D03*
X370Y2283D03*
X259D03*
X318Y2334D03*
X429Y2547D03*
X2385Y4803D03*
X2307Y4854D03*
X2330D03*
X2212D03*
X2188D03*
X2259Y4795D03*
X1291Y4133D03*
Y4169D03*
Y4098D03*
X2196Y4291D03*
X2232Y4216D03*
Y4244D03*
X2275Y3964D03*
Y4027D03*
Y3996D03*
Y4090D03*
Y4153D03*
Y4122D03*
X1590Y3937D03*
X1618D03*
X1590Y4251D03*
X1618D03*
X1291Y4220D03*
Y4291D03*
Y4255D03*
X1263Y4452D03*
X1334D03*
X1299D03*
X1389D03*
X1460D03*
X1425D03*
X1515D03*
X1586D03*
X1551D03*
X1641D03*
X1712D03*
X1677D03*
X1551Y5074D03*
X1480D03*
X1515D03*
X1413D03*
X1342D03*
X1377D03*
X1275D03*
X1204D03*
X1240D03*
X1137D03*
X1070D03*
X1102D03*
X543Y4748D03*
Y4779D03*
X1909Y1374D03*
X1988Y1444D03*
X1318Y1732D03*
X2767Y905D03*
X1909Y1330D03*
X2696Y1889D03*
X3050D03*
X1653Y2559D03*
X480Y2578D03*
X807Y1842D03*
X1240Y1791D03*
X1417Y2125D03*
X1350Y2118D03*
X1444Y2437D03*
X1236Y1023D03*
X1625Y1870D03*
X708Y1299D03*
X1417Y1437D03*
X1169Y1515D03*
X1212Y1519D03*
X1173Y2677D03*
X1657Y1110D03*
X964Y1326D03*
X1535Y1299D03*
X1732Y1724D03*
X1618Y1657D03*
X1358Y2452D03*
X1594Y1673D03*
X1570Y1700D03*
X1937Y1523D03*
Y1484D03*
X1555Y1732D03*
X1818Y1476D03*
X1862Y1480D03*
X1629Y1374D03*
X1653Y1350D03*
X2996Y1755D03*
X2944Y1799D03*
X3051D03*
X2566Y1677D03*
X2629D03*
X2598D03*
X2681Y1767D03*
X2858Y2078D03*
Y2141D03*
Y2110D03*
X1732Y1893D03*
X657Y1791D03*
X921Y1405D03*
Y1492D03*
X992Y1236D03*
X1161Y1220D03*
X1122Y1200D03*
X1338Y984D03*
X1299Y1003D03*
X1141Y1102D03*
X1181Y1082D03*
X1220Y1122D03*
X1259D03*
X1318Y1307D03*
X1074Y1437D03*
X1169D03*
X1267Y1551D03*
X1374Y1645D03*
X1342D03*
X1763Y1543D03*
Y1507D03*
X1387Y1110D03*
X1771Y1240D03*
X1795Y1255D03*
X1870Y984D03*
X1889Y1082D03*
X1604Y1066D03*
X1566Y952D03*
X1594Y925D03*
Y1023D03*
X2381Y4685D03*
X2125Y4330D03*
X2943Y4576D03*
X2913Y2559D03*
X2952Y2519D03*
X2992Y2480D03*
X3031Y2440D03*
X3070Y2401D03*
X2289Y4369D03*
X2196Y4680D03*
X2461Y4418D03*
Y4576D03*
Y4458D03*
Y4497D03*
Y4536D03*
X1869Y4538D03*
G54D132*
X3055Y536D03*
X2928Y408D03*
X3082Y472D03*
X2902D03*
X3055Y408D03*
X2928Y536D03*
X2992Y382D03*
Y562D03*
X398Y516D03*
X271Y389D03*
X424Y452D03*
X244D03*
X398Y389D03*
X271Y516D03*
X334Y362D03*
Y542D03*
Y5168D03*
Y4988D03*
X271Y5142D03*
X398Y5015D03*
X244Y5078D03*
X424D03*
X271Y5015D03*
X398Y5142D03*
X3011Y5168D03*
Y4988D03*
X2948Y5142D03*
X3075Y5015D03*
X2921Y5078D03*
X3101D03*
X2948Y5015D03*
X3075Y5142D03*
M02*