%FSLAX23Y23*%
%MOIN*%
%SFA1B1*%

%IPPOS*%
%AMD20*
4,1,8,0.013400,-0.010000,0.013400,0.010000,0.010000,0.013400,-0.010000,0.013400,-0.013400,0.010000,-0.013400,-0.010000,-0.010000,-0.013400,0.010000,-0.013400,0.013400,-0.010000,0.0*
1,1,0.006700,0.010000,-0.010000*
1,1,0.006700,0.010000,0.010000*
1,1,0.006700,-0.010000,0.010000*
1,1,0.006700,-0.010000,-0.010000*
%
%AMD21*
4,1,8,0.016500,0.002400,0.002400,0.016500,-0.002400,0.016500,-0.016500,0.002400,-0.016500,-0.002400,-0.002400,-0.016500,0.002400,-0.016500,0.016500,-0.002400,0.016500,0.002400,0.0*
1,1,0.006700,0.014100,0.000000*
1,1,0.006700,0.000000,0.014100*
1,1,0.006700,-0.014100,0.000000*
1,1,0.006700,0.000000,-0.014100*
%
%AMD22*
4,1,8,0.040900,-0.036000,0.040900,0.036000,0.036000,0.040900,-0.036000,0.040900,-0.040900,0.036000,-0.040900,-0.036000,-0.036000,-0.040900,0.036000,-0.040900,0.040900,-0.036000,0.0*
1,1,0.009820,0.036000,-0.036000*
1,1,0.009820,0.036000,0.036000*
1,1,0.009820,-0.036000,0.036000*
1,1,0.009820,-0.036000,-0.036000*
%
%AMD23*
4,1,8,0.022200,-0.017400,0.022200,0.017400,0.017400,0.022200,-0.017400,0.022200,-0.022200,0.017400,-0.022200,-0.017400,-0.017400,-0.022200,0.017400,-0.022200,0.022200,-0.017400,0.0*
1,1,0.009780,0.017400,-0.017400*
1,1,0.009780,0.017400,0.017400*
1,1,0.009780,-0.017400,0.017400*
1,1,0.009780,-0.017400,-0.017400*
%
%AMD24*
4,1,8,-0.017700,0.013300,-0.017700,-0.013300,-0.013300,-0.017700,0.013300,-0.017700,0.017700,-0.013300,0.017700,0.013300,0.013300,0.017700,-0.013300,0.017700,-0.017700,0.013300,0.0*
1,1,0.008860,-0.013300,0.013300*
1,1,0.008860,-0.013300,-0.013300*
1,1,0.008860,0.013300,-0.013300*
1,1,0.008860,0.013300,0.013300*
%
%AMD27*
4,1,8,0.025600,0.019700,-0.025600,0.019700,-0.029500,0.015700,-0.029500,-0.015700,-0.025600,-0.019700,0.025600,-0.019700,0.029500,-0.015700,0.029500,0.015700,0.025600,0.019700,0.0*
1,1,0.007880,0.025600,0.015700*
1,1,0.007880,-0.025600,0.015700*
1,1,0.007880,-0.025600,-0.015700*
1,1,0.007880,0.025600,-0.015700*
%
%AMD28*
4,1,8,0.016100,0.017700,-0.016100,0.017700,-0.019700,0.014200,-0.019700,-0.014200,-0.016100,-0.017700,0.016100,-0.017700,0.019700,-0.014200,0.019700,0.014200,0.016100,0.017700,0.0*
1,1,0.007080,0.016100,0.014200*
1,1,0.007080,-0.016100,0.014200*
1,1,0.007080,-0.016100,-0.014200*
1,1,0.007080,0.016100,-0.014200*
%
%AMD31*
4,1,8,0.004900,-0.015000,0.004900,0.015000,0.003700,0.016200,-0.003700,0.016200,-0.004900,0.015000,-0.004900,-0.015000,-0.003700,-0.016200,0.003700,-0.016200,0.004900,-0.015000,0.0*
1,1,0.002460,0.003700,-0.015000*
1,1,0.002460,0.003700,0.015000*
1,1,0.002460,-0.003700,0.015000*
1,1,0.002460,-0.003700,-0.015000*
%
%AMD32*
4,1,8,0.016200,-0.003700,0.016200,0.003700,0.015000,0.004900,-0.015000,0.004900,-0.016200,0.003700,-0.016200,-0.003700,-0.015000,-0.004900,0.015000,-0.004900,0.016200,-0.003700,0.0*
1,1,0.002460,0.015000,-0.003700*
1,1,0.002460,0.015000,0.003700*
1,1,0.002460,-0.015000,0.003700*
1,1,0.002460,-0.015000,-0.003700*
%
%AMD34*
4,1,8,-0.031500,0.038300,-0.031500,-0.038300,-0.026500,-0.043300,0.026500,-0.043300,0.031500,-0.038300,0.031500,0.038300,0.026500,0.043300,-0.026500,0.043300,-0.031500,0.038300,0.0*
1,1,0.010080,-0.026500,0.038300*
1,1,0.010080,-0.026500,-0.038300*
1,1,0.010080,0.026500,-0.038300*
1,1,0.010080,0.026500,0.038300*
%
%AMD35*
4,1,8,0.014100,-0.007100,-0.007100,0.014100,-0.008800,0.014100,-0.014100,0.008800,-0.014100,0.007100,0.007100,-0.014100,0.008800,-0.014100,0.014100,-0.008800,0.014100,-0.007100,0.0*
1,1,0.002460,0.013200,-0.008000*
1,1,0.002460,-0.008000,0.013200*
1,1,0.002460,-0.013200,0.008000*
1,1,0.002460,0.008000,-0.013200*
%
%AMD36*
4,1,8,0.014100,0.008800,0.008800,0.014100,0.007100,0.014100,-0.014100,-0.007100,-0.014100,-0.008800,-0.008800,-0.014100,-0.007100,-0.014100,0.014100,0.007100,0.014100,0.008800,0.0*
1,1,0.002460,0.013200,0.008000*
1,1,0.002460,0.008000,0.013200*
1,1,0.002460,-0.013200,-0.008000*
1,1,0.002460,-0.008000,-0.013200*
%
%AMD37*
4,1,4,0.000000,0.046700,-0.046700,0.000000,0.000000,-0.046700,0.046700,0.000000,0.000000,0.046700,0.0*
%
%AMD44*
4,1,8,0.009600,0.008900,-0.009600,0.008900,-0.011800,0.006600,-0.011800,-0.006600,-0.009600,-0.008900,0.009600,-0.008900,0.011800,-0.006600,0.011800,0.006600,0.009600,0.008900,0.0*
1,1,0.004440,0.009600,0.006600*
1,1,0.004440,-0.009600,0.006600*
1,1,0.004440,-0.009600,-0.006600*
1,1,0.004440,0.009600,-0.006600*
%
%AMD45*
4,1,8,0.023100,0.011800,-0.023100,0.011800,-0.026100,0.008900,-0.026100,-0.008900,-0.023100,-0.011800,0.023100,-0.011800,0.026100,-0.008900,0.026100,0.008900,0.023100,0.011800,0.0*
1,1,0.005900,0.023100,0.008900*
1,1,0.005900,-0.023100,0.008900*
1,1,0.005900,-0.023100,-0.008900*
1,1,0.005900,0.023100,-0.008900*
%
%AMD53*
4,1,4,0.014100,0.000300,0.000300,0.014100,-0.014100,-0.000300,-0.000300,-0.014100,0.014100,0.000300,0.0*
%
%AMD57*
4,1,8,0.000000,-0.023600,0.000000,-0.023600,0.003900,-0.019700,0.003900,0.019700,0.000000,0.023600,0.000000,0.023600,-0.003900,0.019700,-0.003900,-0.019700,0.000000,-0.023600,0.0*
1,1,0.007880,0.000000,-0.019700*
1,1,0.007880,0.000000,-0.019700*
1,1,0.007880,0.000000,0.019700*
1,1,0.007880,0.000000,0.019700*
%
%AMD58*
4,1,8,-0.023600,0.000000,-0.023600,0.000000,-0.019700,-0.003900,0.019700,-0.003900,0.023600,0.000000,0.023600,0.000000,0.019700,0.003900,-0.019700,0.003900,-0.023600,0.000000,0.0*
1,1,0.007880,-0.019700,0.000000*
1,1,0.007880,-0.019700,0.000000*
1,1,0.007880,0.019700,0.000000*
1,1,0.007880,0.019700,0.000000*
%
%AMD61*
4,1,8,0.031200,0.021700,-0.031200,0.021700,-0.034400,0.018400,-0.034400,-0.018400,-0.031200,-0.021700,0.031200,-0.021700,0.034400,-0.018400,0.034400,0.018400,0.031200,0.021700,0.0*
1,1,0.006500,0.031200,0.018400*
1,1,0.006500,-0.031200,0.018400*
1,1,0.006500,-0.031200,-0.018400*
1,1,0.006500,0.031200,-0.018400*
%
%AMD63*
4,1,8,0.017200,-0.003700,0.017200,0.003700,0.016000,0.004900,-0.016000,0.004900,-0.017200,0.003700,-0.017200,-0.003700,-0.016000,-0.004900,0.016000,-0.004900,0.017200,-0.003700,0.0*
1,1,0.002460,0.016000,-0.003700*
1,1,0.002460,0.016000,0.003700*
1,1,0.002460,-0.016000,0.003700*
1,1,0.002460,-0.016000,-0.003700*
%
%AMD64*
4,1,8,0.004900,-0.016000,0.004900,0.016000,0.003700,0.017200,-0.003700,0.017200,-0.004900,0.016000,-0.004900,-0.016000,-0.003700,-0.017200,0.003700,-0.017200,0.004900,-0.016000,0.0*
1,1,0.002460,0.003700,-0.016000*
1,1,0.002460,0.003700,0.016000*
1,1,0.002460,-0.003700,0.016000*
1,1,0.002460,-0.003700,-0.016000*
%
%AMD72*
4,1,8,-0.011800,0.023100,-0.011800,-0.023100,-0.008900,-0.026100,0.008900,-0.026100,0.011800,-0.023100,0.011800,0.023100,0.008900,0.026100,-0.008900,0.026100,-0.011800,0.023100,0.0*
1,1,0.005900,-0.008900,0.023100*
1,1,0.005900,-0.008900,-0.023100*
1,1,0.005900,0.008900,-0.023100*
1,1,0.005900,0.008900,0.023100*
%
%AMD73*
4,1,8,0.019700,-0.004700,0.019700,0.004700,0.018500,0.005900,-0.018500,0.005900,-0.019700,0.004700,-0.019700,-0.004700,-0.018500,-0.005900,0.018500,-0.005900,0.019700,-0.004700,0.0*
1,1,0.002360,0.018500,-0.004700*
1,1,0.002360,0.018500,0.004700*
1,1,0.002360,-0.018500,0.004700*
1,1,0.002360,-0.018500,-0.004700*
%
%AMD74*
4,1,8,0.015700,-0.011800,0.015700,0.011800,0.012800,0.014800,-0.012800,0.014800,-0.015700,0.011800,-0.015700,-0.011800,-0.012800,-0.014800,0.012800,-0.014800,0.015700,-0.011800,0.0*
1,1,0.005900,0.012800,-0.011800*
1,1,0.005900,0.012800,0.011800*
1,1,0.005900,-0.012800,0.011800*
1,1,0.005900,-0.012800,-0.011800*
%
%AMD80*
4,1,8,-0.007900,0.027100,-0.007900,-0.027100,-0.005900,-0.029000,0.005900,-0.029000,0.007900,-0.027100,0.007900,0.027100,0.005900,0.029000,-0.005900,0.029000,-0.007900,0.027100,0.0*
1,1,0.003940,-0.005900,0.027100*
1,1,0.003940,-0.005900,-0.027100*
1,1,0.003940,0.005900,-0.027100*
1,1,0.003940,0.005900,0.027100*
%
%AMD85*
4,1,4,-0.014800,-0.000700,-0.000700,-0.014800,0.014800,0.000700,0.000700,0.014800,-0.014800,-0.000700,0.0*
%
%AMD86*
4,1,4,0.015700,0.007900,0.007900,0.015700,-0.015700,-0.007900,-0.007900,-0.015700,0.015700,0.007900,0.0*
%
%AMD87*
4,1,4,0.014300,0.006500,0.006500,0.014300,-0.014300,-0.006500,-0.006500,-0.014300,0.014300,0.006500,0.0*
%
%AMD89*
4,1,8,-0.015700,0.003700,-0.015700,-0.003700,-0.014500,-0.004900,0.014500,-0.004900,0.015700,-0.003700,0.015700,0.003700,0.014500,0.004900,-0.014500,0.004900,-0.015700,0.003700,0.0*
1,1,0.002460,-0.014500,0.003700*
1,1,0.002460,-0.014500,-0.003700*
1,1,0.002460,0.014500,-0.003700*
1,1,0.002460,0.014500,0.003700*
%
%AMD90*
4,1,8,-0.004900,0.014500,-0.004900,-0.014500,-0.003700,-0.015700,0.003700,-0.015700,0.004900,-0.014500,0.004900,0.014500,0.003700,0.015700,-0.003700,0.015700,-0.004900,0.014500,0.0*
1,1,0.002460,-0.003700,0.014500*
1,1,0.002460,-0.003700,-0.014500*
1,1,0.002460,0.003700,-0.014500*
1,1,0.002460,0.003700,0.014500*
%
%AMD96*
4,1,8,0.017700,0.007900,-0.017700,0.007900,-0.019700,0.005900,-0.019700,-0.005900,-0.017700,-0.007900,0.017700,-0.007900,0.019700,-0.005900,0.019700,0.005900,0.017700,0.007900,0.0*
1,1,0.003940,0.017700,0.005900*
1,1,0.003940,-0.017700,0.005900*
1,1,0.003940,-0.017700,-0.005900*
1,1,0.003940,0.017700,-0.005900*
%
%AMD101*
4,1,8,-0.043300,0.046500,-0.043300,-0.046500,-0.034600,-0.055100,0.034600,-0.055100,0.043300,-0.046500,0.043300,0.046500,0.034600,0.055100,-0.034600,0.055100,-0.043300,0.046500,0.0*
1,1,0.017320,-0.034600,0.046500*
1,1,0.017320,-0.034600,-0.046500*
1,1,0.017320,0.034600,-0.046500*
1,1,0.017320,0.034600,0.046500*
%
%AMD102*
4,1,8,-0.031500,0.063900,-0.031500,-0.063900,-0.026500,-0.068900,0.026500,-0.068900,0.031500,-0.063900,0.031500,0.063900,0.026500,0.068900,-0.026500,0.068900,-0.031500,0.063900,0.0*
1,1,0.010080,-0.026500,0.063900*
1,1,0.010080,-0.026500,-0.063900*
1,1,0.010080,0.026500,-0.063900*
1,1,0.010080,0.026500,0.063900*
%
G04~CAMADD=20~8~0.0~0.0~267.7~267.7~33.5~0.0~15~0.0~0.0~0.0~0.0~0~0.0~0.0~0.0~0.0~0~0.0~0.0~0.0~270.0~268.0~268.0*
%ADD20D20*%
G04~CAMADD=21~8~0.0~0.0~267.7~267.7~33.5~0.0~15~0.0~0.0~0.0~0.0~0~0.0~0.0~0.0~0.0~0~0.0~0.0~0.0~315.0~350.0~350.0*
%ADD21D21*%
G04~CAMADD=22~8~0.0~0.0~818.9~818.9~49.1~0.0~15~0.0~0.0~0.0~0.0~0~0.0~0.0~0.0~0.0~0~0.0~0.0~0.0~270.0~818.0~818.0*
%ADD22D22*%
G04~CAMADD=23~8~0.0~0.0~444.9~444.9~48.9~0.0~15~0.0~0.0~0.0~0.0~0~0.0~0.0~0.0~0.0~0~0.0~0.0~0.0~270.0~444.0~444.0*
%ADD23D23*%
G04~CAMADD=24~8~0.0~0.0~354.3~354.3~44.3~0.0~15~0.0~0.0~0.0~0.0~0~0.0~0.0~0.0~0.0~0~0.0~0.0~0.0~90.0~354.0~354.0*
%ADD24D24*%
%ADD25R,0.023230X0.031500*%
%ADD26R,0.011810X0.023620*%
G04~CAMADD=27~8~0.0~0.0~590.6~393.7~39.4~0.0~15~0.0~0.0~0.0~0.0~0~0.0~0.0~0.0~0.0~0~0.0~0.0~0.0~0.0~590.6~393.7*
%ADD27D27*%
G04~CAMADD=28~8~0.0~0.0~393.7~354.3~35.4~0.0~15~0.0~0.0~0.0~0.0~0~0.0~0.0~0.0~0.0~0~0.0~0.0~0.0~0.0~393.7~354.3*
%ADD28D28*%
%ADD29R,0.020000X0.022000*%
%ADD30R,0.145670X0.047240*%
G04~CAMADD=31~8~0.0~0.0~324.8~98.4~12.3~0.0~15~0.0~0.0~0.0~0.0~0~0.0~0.0~0.0~0.0~0~0.0~0.0~0.0~270.0~98.0~324.0*
%ADD31D31*%
G04~CAMADD=32~8~0.0~0.0~98.4~324.8~12.3~0.0~15~0.0~0.0~0.0~0.0~0~0.0~0.0~0.0~0.0~0~0.0~0.0~0.0~270.0~324.0~98.0*
%ADD32D32*%
%ADD33R,0.066140X0.066140*%
G04~CAMADD=34~8~0.0~0.0~866.1~629.9~50.4~0.0~15~0.0~0.0~0.0~0.0~0~0.0~0.0~0.0~0.0~0~0.0~0.0~0.0~90.0~630.0~866.0*
%ADD34D34*%
G04~CAMADD=35~8~0.0~0.0~324.8~98.4~12.3~0.0~15~0.0~0.0~0.0~0.0~0~0.0~0.0~0.0~0.0~0~0.0~0.0~0.0~315.0~290.0~289.0*
%ADD35D35*%
G04~CAMADD=36~8~0.0~0.0~98.4~324.8~12.3~0.0~15~0.0~0.0~0.0~0.0~0~0.0~0.0~0.0~0.0~0~0.0~0.0~0.0~315.0~290.0~289.0*
%ADD36D36*%
G04~CAMADD=37~10~0.0~661.4~0.0~0.0~0.0~0.0~0~0.0~0.0~0.0~0.0~0~0.0~0.0~0.0~0.0~0~0.0~0.0~0.0~405.0~661.4~0.0*
%ADD37D37*%
%ADD38R,0.013780X0.021650*%
%ADD39R,0.031500X0.011810*%
%ADD40R,0.023620X0.011810*%
%ADD41R,0.021970X0.010000*%
%ADD42R,0.010000X0.021970*%
%ADD43R,0.045000X0.105000*%
G04~CAMADD=44~8~0.0~0.0~236.2~177.2~22.2~0.0~15~0.0~0.0~0.0~0.0~0~0.0~0.0~0.0~0.0~0~0.0~0.0~0.0~0.0~236.2~177.2*
%ADD44D44*%
G04~CAMADD=45~8~0.0~0.0~521.7~236.2~29.5~0.0~15~0.0~0.0~0.0~0.0~0~0.0~0.0~0.0~0.0~0~0.0~0.0~0.0~0.0~521.7~236.2*
%ADD45D45*%
%ADD46R,0.105000X0.045000*%
%ADD47R,0.022000X0.020000*%
%ADD48R,0.019680X0.020470*%
%ADD49C,0.029530*%
%ADD50R,0.015750X0.012210*%
%ADD51C,0.019680*%
%ADD52C,0.039370*%
G04~CAMADD=53~9~0.0~0.0~196.8~204.7~0.0~0.0~0~0.0~0.0~0.0~0.0~0~0.0~0.0~0.0~0.0~0~0.0~0.0~0.0~315.0~282.0~281.0*
%ADD53D53*%
%ADD54R,0.039370X0.082680*%
%ADD55R,0.039370X0.027560*%
%ADD56R,0.020470X0.019680*%
G04~CAMADD=57~8~0.0~0.0~78.7~472.4~39.4~0.0~15~0.0~0.0~0.0~0.0~0~0.0~0.0~0.0~0.0~0~0.0~0.0~0.0~180.0~78.0~472.0*
%ADD57D57*%
G04~CAMADD=58~8~0.0~0.0~78.7~472.4~39.4~0.0~15~0.0~0.0~0.0~0.0~0~0.0~0.0~0.0~0.0~0~0.0~0.0~0.0~90.0~472.0~78.0*
%ADD58D58*%
%ADD59R,0.104990X0.104990*%
%ADD60R,0.040000X0.056000*%
G04~CAMADD=61~8~0.0~0.0~689.0~433.1~32.5~0.0~15~0.0~0.0~0.0~0.0~0~0.0~0.0~0.0~0.0~0~0.0~0.0~0.0~0.0~689.0~433.1*
%ADD61D61*%
%ADD62R,0.032280X0.035000*%
G04~CAMADD=63~8~0.0~0.0~98.4~344.5~12.3~0.0~15~0.0~0.0~0.0~0.0~0~0.0~0.0~0.0~0.0~0~0.0~0.0~0.0~270.0~344.0~98.0*
%ADD63D63*%
G04~CAMADD=64~8~0.0~0.0~344.5~98.4~12.3~0.0~15~0.0~0.0~0.0~0.0~0~0.0~0.0~0.0~0.0~0~0.0~0.0~0.0~270.0~98.0~344.0*
%ADD64D64*%
%ADD65R,0.202760X0.202760*%
%ADD66R,0.038390X0.055120*%
%ADD67R,0.017720X0.012600*%
%ADD68R,0.015750X0.025590*%
%ADD69R,0.102360X0.102360*%
%ADD70R,0.082680X0.039370*%
%ADD71R,0.027560X0.039370*%
G04~CAMADD=72~8~0.0~0.0~521.7~236.2~29.5~0.0~15~0.0~0.0~0.0~0.0~0~0.0~0.0~0.0~0.0~0~0.0~0.0~0.0~90.0~236.0~522.0*
%ADD72D72*%
G04~CAMADD=73~8~0.0~0.0~118.1~393.7~11.8~0.0~15~0.0~0.0~0.0~0.0~0~0.0~0.0~0.0~0.0~0~0.0~0.0~0.0~270.0~394.0~118.0*
%ADD73D73*%
G04~CAMADD=74~8~0.0~0.0~295.3~315.0~29.5~0.0~15~0.0~0.0~0.0~0.0~0~0.0~0.0~0.0~0.0~0~0.0~0.0~0.0~270.0~316.0~295.0*
%ADD74D74*%
%ADD75R,0.094490X0.047240*%
%ADD76R,0.055120X0.024020*%
%ADD77R,0.025590X0.015750*%
%ADD78R,0.016000X0.110000*%
%ADD79R,0.023810X0.008030*%
G04~CAMADD=80~8~0.0~0.0~580.7~157.5~19.7~0.0~15~0.0~0.0~0.0~0.0~0~0.0~0.0~0.0~0.0~0~0.0~0.0~0.0~90.0~158.0~582.0*
%ADD80D80*%
%ADD81R,0.055120X0.047240*%
%ADD82R,0.046000X0.033000*%
%ADD83R,0.056000X0.040000*%
%ADD84R,0.012600X0.017720*%
G04~CAMADD=85~9~0.0~0.0~200.0~220.0~0.0~0.0~0~0.0~0.0~0.0~0.0~0~0.0~0.0~0.0~0.0~0~0.0~0.0~0.0~135.0~296.0~295.0*
%ADD85D85*%
G04~CAMADD=86~9~0.0~0.0~110.2~334.7~0.0~0.0~0~0.0~0.0~0.0~0.0~0~0.0~0.0~0.0~0.0~0~0.0~0.0~0.0~315.0~314.0~313.0*
%ADD86D86*%
G04~CAMADD=87~9~0.0~0.0~110.2~295.3~0.0~0.0~0~0.0~0.0~0.0~0.0~0~0.0~0.0~0.0~0.0~0~0.0~0.0~0.0~315.0~286.0~285.0*
%ADD87D87*%
%ADD88R,0.131890X0.131890*%
G04~CAMADD=89~8~0.0~0.0~98.4~315.0~12.3~0.0~15~0.0~0.0~0.0~0.0~0~0.0~0.0~0.0~0.0~0~0.0~0.0~0.0~90.0~314.0~98.0*
%ADD89D89*%
G04~CAMADD=90~8~0.0~0.0~315.0~98.4~12.3~0.0~15~0.0~0.0~0.0~0.0~0~0.0~0.0~0.0~0.0~0~0.0~0.0~0.0~90.0~98.0~314.0*
%ADD90D90*%
%ADD91R,0.029530X0.033470*%
%ADD92R,0.055120X0.038390*%
%ADD93R,0.029530X0.011810*%
%ADD94R,0.064960X0.094490*%
%ADD95R,0.012210X0.015750*%
G04~CAMADD=96~8~0.0~0.0~393.7~157.5~19.7~0.0~15~0.0~0.0~0.0~0.0~0~0.0~0.0~0.0~0.0~0~0.0~0.0~0.0~0.0~393.7~157.5*
%ADD96D96*%
%ADD97R,0.133860X0.169290*%
%ADD98R,0.068900X0.015750*%
%ADD99R,0.066930X0.043310*%
%ADD100C,0.012600*%
G04~CAMADD=101~8~0.0~0.0~1102.4~866.1~86.6~0.0~15~0.0~0.0~0.0~0.0~0~0.0~0.0~0.0~0.0~0~0.0~0.0~0.0~90.0~866.0~1102.0*
%ADD101D101*%
G04~CAMADD=102~8~0.0~0.0~1378.0~629.9~50.4~0.0~15~0.0~0.0~0.0~0.0~0~0.0~0.0~0.0~0.0~0~0.0~0.0~0.0~90.0~630.0~1378.0*
%ADD102D102*%
%ADD103R,0.078740X0.059060*%
%ADD104R,0.078740X0.149610*%
%ADD105C,0.010430*%
%ADD106R,0.047240X0.019680*%
%ADD107R,0.027560X0.027560*%
%ADD108C,0.031000*%
%LNbenchy-mb-pcb-changes-1*%
%LPD*%
G36*
X1697Y1946D02*
X1723D01*
Y1908*
X1658*
Y1946*
X1684*
Y1976*
X1697*
Y1946*
G37*
G36*
X2740Y1473D02*
X2735Y1468D01*
X2730*
Y1490*
X2740*
Y1473*
G37*
G36*
X2662Y1468D02*
X2657D01*
X2652Y1473*
Y1490*
X2662*
Y1468*
G37*
G36*
X4512Y1473D02*
X4507Y1468D01*
X4502*
Y1490*
X4512*
Y1473*
G37*
G36*
X4434Y1468D02*
X4429D01*
X4424Y1473*
Y1490*
X4434*
Y1468*
G37*
G36*
X3921Y1473D02*
X3916Y1468D01*
X3911*
Y1490*
X3921*
Y1473*
G37*
G36*
X3843Y1468D02*
X3838D01*
X3833Y1473*
Y1490*
X3843*
Y1468*
G37*
G36*
X2765Y1455D02*
X2743D01*
Y1460*
X2748Y1465*
X2765*
Y1455*
G37*
G36*
X2649Y1460D02*
Y1455D01*
X2627*
Y1465*
X2644*
X2649Y1460*
G37*
G36*
X4537Y1455D02*
X4515D01*
Y1460*
X4520Y1465*
X4537*
Y1455*
G37*
G36*
X4421Y1460D02*
Y1455D01*
X4399*
Y1465*
X4416*
X4421Y1460*
G37*
G36*
X3946Y1455D02*
X3924D01*
Y1460*
X3929Y1465*
X3946*
Y1455*
G37*
G36*
X3830Y1460D02*
Y1455D01*
X3808*
Y1465*
X3825*
X3830Y1460*
G37*
G36*
X2765Y1377D02*
X2748D01*
X2743Y1382*
Y1387*
X2765*
Y1377*
G37*
G36*
X2649Y1382D02*
X2644Y1377D01*
X2627*
Y1387*
X2649*
Y1382*
G37*
G36*
X4537Y1377D02*
X4520D01*
X4515Y1382*
Y1387*
X4537*
Y1377*
G37*
G36*
X4421Y1382D02*
X4416Y1377D01*
X4399*
Y1387*
X4421*
Y1382*
G37*
G36*
X3946Y1377D02*
X3929D01*
X3924Y1382*
Y1387*
X3946*
Y1377*
G37*
G36*
X3830Y1382D02*
X3825Y1377D01*
X3808*
Y1387*
X3830*
Y1382*
G37*
G36*
X2740Y1369D02*
Y1352D01*
X2730*
Y1374*
X2735*
X2740Y1369*
G37*
G36*
X2662Y1352D02*
X2652D01*
Y1369*
X2657Y1374*
X2662*
Y1352*
G37*
G36*
X4512Y1369D02*
Y1352D01*
X4502*
Y1374*
X4507*
X4512Y1369*
G37*
G36*
X4434Y1352D02*
X4424D01*
Y1369*
X4429Y1374*
X4434*
Y1352*
G37*
G36*
X3921Y1369D02*
Y1352D01*
X3911*
Y1374*
X3916*
X3921Y1369*
G37*
G36*
X3843Y1352D02*
X3833D01*
Y1369*
X3838Y1374*
X3843*
Y1352*
G37*
G54D20*
X5455Y3627D03*
X5488D03*
Y3594D03*
X5455D03*
G54D21*
X6031Y2320D03*
X6055Y2344D03*
X6078Y2320D03*
X6055Y2297D03*
G54D22*
X6067Y2968D03*
Y3070D03*
X6168Y2968D03*
Y3070D03*
G54D23*
X6129Y1553D03*
Y1501D03*
X6078Y1553D03*
Y1501D03*
X1439Y1359D03*
X1490D03*
X1439Y1410D03*
X1490D03*
G54D24*
X5644Y1437D03*
X5733Y1393D03*
X5644D03*
X5688Y1349D03*
X5733Y1437D03*
Y1349D03*
X5688Y1437D03*
X5644Y1349D03*
X5688Y1393D03*
G54D25*
X5118Y1938D03*
X5086D03*
Y1899D03*
X5118D03*
G54D26*
X3787Y3963D03*
X3751D03*
X3720D03*
X3688D03*
X3653D03*
X3669Y3926D03*
X3704D03*
X3736D03*
X3771D03*
G54D27*
X983Y826D03*
X857D03*
G54D28*
X920Y850D03*
G54D29*
X928Y887D03*
X968D03*
X6231Y1482D03*
X6271D03*
X5913Y1545D03*
X5953D03*
X5913Y1576D03*
X5953D03*
X5913Y1639D03*
X5953D03*
X5913Y1484D03*
X5953D03*
X5913Y1450D03*
X5953D03*
X5913Y1387D03*
X5953D03*
X2035Y2734D03*
X1995D03*
X6256Y2846D03*
X6216D03*
X6256Y2814D03*
X6216D03*
X6342Y3013D03*
X6302D03*
Y2950D03*
X6342D03*
Y2887D03*
X6302D03*
X5980Y2814D03*
X6020D03*
Y2846D03*
X5980D03*
X5483Y1348D03*
X5523D03*
X5747Y1588D03*
X5787D03*
X5836Y1442D03*
X5876D03*
X5731Y1730D03*
X5771D03*
X6047Y1659D03*
X6007D03*
X6122D03*
X6082D03*
X6197D03*
X6157D03*
X6271Y1419D03*
X6231D03*
X6271Y1450D03*
X6231D03*
X6271Y1515D03*
X6231D03*
X6271Y1549D03*
X6231D03*
X6271Y1580D03*
X6231D03*
X5929Y2883D03*
X5889D03*
X2988Y3391D03*
X2948D03*
X2574Y3407D03*
X2614D03*
X2457Y3431D03*
X2417D03*
X2785Y1519D03*
X2745D03*
Y1549D03*
X2785D03*
X2607Y1519D03*
X2647D03*
Y1549D03*
X2607D03*
X1417Y1501D03*
X1457D03*
X4515Y1517D03*
X4555D03*
Y1549D03*
X4515D03*
X3966Y1529D03*
X3926D03*
Y1559D03*
X3966D03*
X3789Y1529D03*
X3829D03*
Y1559D03*
X3789D03*
X1141Y2108D03*
X1181D03*
X1141Y2364D03*
X1181D03*
X1141Y1675D03*
X1181D03*
X1141Y1891D03*
X1181D03*
X1617Y1816D03*
X1657D03*
X1633Y1553D03*
X1673D03*
Y1513D03*
X1633D03*
X5201Y2001D03*
X5161D03*
X5130D03*
X5090D03*
X3294Y2557D03*
X3334D03*
X3200Y2950D03*
X3240D03*
X5657Y3962D03*
X5617D03*
X4228Y3438D03*
X4268D03*
X4228Y3407D03*
X4268D03*
X4224Y3332D03*
X4184D03*
X4224Y3293D03*
X4184D03*
X4224Y3253D03*
X4184D03*
X4586Y3332D03*
X4546D03*
X4586Y3293D03*
X4546D03*
X4586Y3253D03*
X4546D03*
X4133Y3655D03*
X4173D03*
X1181Y1458D03*
X1141D03*
G54D30*
X6220Y2751D03*
Y2657D03*
X6015Y2751D03*
Y2657D03*
X6023Y3279D03*
Y3374D03*
X1826Y1978D03*
Y2072D03*
G54D31*
X5501Y3669D03*
X5481D03*
X5461D03*
X5442D03*
Y3553D03*
X5461D03*
X5481D03*
X5501D03*
X1415Y1461D03*
X1435D03*
X1455D03*
X1475D03*
X1494D03*
X1514D03*
Y1308D03*
X1494D03*
X1475D03*
X1455D03*
X1435D03*
X1415D03*
G54D32*
X5414Y3640D03*
Y3621D03*
Y3601D03*
Y3581D03*
X5529D03*
Y3601D03*
Y3621D03*
Y3640D03*
X1388Y1336D03*
Y1355D03*
Y1375D03*
Y1395D03*
Y1414D03*
Y1434D03*
X1541D03*
Y1414D03*
X1541Y1395D03*
Y1375D03*
X1541Y1355D03*
Y1336D03*
G54D33*
X5471Y3611D03*
G54D34*
X5775Y3938D03*
Y4057D03*
G54D35*
X6035Y2382D03*
X6021Y2368D03*
X6007Y2354D03*
X5993Y2340D03*
X6074Y2259D03*
X6088Y2273D03*
X6102Y2287D03*
X6116Y2301D03*
G54D36*
X5993Y2301D03*
X6007Y2287D03*
X6021Y2273D03*
X6035Y2259D03*
X6116Y2340D03*
X6102Y2354D03*
X6088Y2368D03*
X6074Y2382D03*
G54D37*
X6055Y2320D03*
G54D38*
X1716Y1888D03*
X1690D03*
X1665D03*
X1716Y1965D03*
X1665D03*
G54D39*
X2165Y2895D03*
Y2875D03*
Y2856D03*
Y2836D03*
X2055D03*
Y2856D03*
Y2875D03*
Y2895D03*
G54D40*
X1010Y3555D03*
Y3519D03*
Y3488D03*
Y3456D03*
Y3421D03*
X1048Y3437D03*
Y3472D03*
Y3503D03*
Y3539D03*
G54D41*
X4410Y1440D03*
Y1421D03*
Y1401D03*
X4526D03*
Y1421D03*
Y1440D03*
X3819D03*
Y1421D03*
Y1401D03*
X3935D03*
Y1421D03*
Y1440D03*
X2638D03*
Y1421D03*
Y1401D03*
X2754D03*
Y1421D03*
Y1440D03*
G54D42*
X4449Y1363D03*
X4468D03*
X4488D03*
Y1479D03*
X4468D03*
X4449D03*
X3858Y1363D03*
X3877D03*
X3897D03*
Y1479D03*
X3877D03*
X3858D03*
X2677Y1363D03*
X2696D03*
X2716D03*
Y1479D03*
X2696D03*
X2677D03*
G54D43*
X1256Y3964D03*
X1141D03*
X961Y3856D03*
X1077D03*
X6227Y2500D03*
X6111D03*
X5158Y1413D03*
X5274D03*
X6288Y2535D03*
X6404D03*
X6288Y2421D03*
X6404D03*
X6272Y3625D03*
X6388D03*
X6272Y3751D03*
X6388D03*
G54D44*
X1068Y3966D03*
X986D03*
G54D45*
X1154Y3875D03*
Y3838D03*
Y3801D03*
X1243D03*
Y3838D03*
Y3875D03*
X3285Y3027D03*
Y2952D03*
X3375Y2990D03*
X3284Y2826D03*
Y2864D03*
Y2901D03*
X3195D03*
Y2864D03*
Y2826D03*
G54D46*
X1344Y3955D03*
Y3839D03*
X6023Y3449D03*
Y3565D03*
X5897Y3449D03*
Y3565D03*
X5771Y3449D03*
Y3565D03*
X5645Y3449D03*
Y3565D03*
X6015Y2581D03*
Y2465D03*
X5897Y2581D03*
Y2465D03*
X5779Y2581D03*
Y2465D03*
X2767Y1197D03*
Y1313D03*
X2625Y1197D03*
Y1313D03*
X3807Y1197D03*
Y1313D03*
X3948Y1197D03*
Y1313D03*
X4397D03*
Y1197D03*
X4539Y1313D03*
Y1197D03*
X1933Y1758D03*
Y1875D03*
X5381Y1880D03*
Y1997D03*
X6023Y3762D03*
Y3646D03*
X5897Y3762D03*
Y3646D03*
X5803Y4164D03*
Y4280D03*
G54D47*
X5984Y1455D03*
Y1415D03*
X2381Y2834D03*
Y2874D03*
X2350Y2834D03*
Y2874D03*
X2318Y2834D03*
Y2874D03*
X2224D03*
Y2834D03*
X2035Y2930D03*
Y2970D03*
X2007Y2850D03*
Y2890D03*
X5877Y3136D03*
Y3096D03*
X5913Y3155D03*
Y3115D03*
X6322Y3155D03*
Y3115D03*
X6358Y3136D03*
Y3096D03*
X5204Y939D03*
Y899D03*
X5165Y939D03*
Y899D03*
X5224Y1485D03*
Y1525D03*
X5188Y1485D03*
Y1525D03*
X5984Y1509D03*
Y1549D03*
Y1588D03*
Y1628D03*
X6232Y1730D03*
Y1690D03*
X6169D03*
Y1730D03*
X6137Y1690D03*
Y1730D03*
X6074D03*
Y1690D03*
X6043D03*
Y1730D03*
X5980D03*
Y1690D03*
X6139Y1367D03*
Y1407D03*
X5944Y3115D03*
Y3155D03*
X2838Y3423D03*
Y3383D03*
X2488Y3391D03*
Y3431D03*
X1293Y3755D03*
Y3795D03*
X1255Y3645D03*
Y3605D03*
X1098Y3665D03*
Y3625D03*
X1531Y2407D03*
Y2447D03*
X1562D03*
Y2407D03*
X2594Y1422D03*
Y1462D03*
X4370D03*
Y1422D03*
X4417Y1553D03*
Y1513D03*
X4381D03*
Y1553D03*
X3771Y1422D03*
Y1462D03*
X1503Y2045D03*
Y2005D03*
X1661Y2037D03*
Y1997D03*
X1622Y1966D03*
Y1926D03*
X1574Y1639D03*
Y1679D03*
X1669D03*
Y1639D03*
X1637D03*
Y1679D03*
X2047Y2271D03*
Y2311D03*
X6106Y990D03*
Y950D03*
X6224Y990D03*
Y950D03*
X6023Y907D03*
Y947D03*
X5944Y907D03*
Y947D03*
X5240Y1922D03*
Y1962D03*
X5208D03*
Y1922D03*
X5003Y1978D03*
Y1938D03*
X3948Y2167D03*
Y2207D03*
X6505Y2770D03*
Y2730D03*
X6291Y3115D03*
Y3155D03*
X5440Y3988D03*
Y3948D03*
X5584Y4004D03*
Y3964D03*
X2303Y4151D03*
Y4111D03*
X3129Y4151D03*
Y4111D03*
X4586Y3572D03*
Y3612D03*
X3830Y3850D03*
Y3890D03*
X3799Y3850D03*
Y3890D03*
X3767Y3850D03*
Y3890D03*
X3736Y3850D03*
Y3890D03*
X3704Y3850D03*
Y3890D03*
X3673Y3850D03*
Y3890D03*
X3641Y3850D03*
Y3890D03*
X3610Y3850D03*
Y3890D03*
G54D48*
X5914Y1608D03*
X5951D03*
X5914Y1513D03*
X5951D03*
X5914Y1419D03*
X5951D03*
X1996Y2702D03*
X2034D03*
X1725Y2116D03*
X1762D03*
X1725Y2143D03*
X1762D03*
X2160Y2933D03*
X2122D03*
X2034Y2671D03*
X1996D03*
X5870Y3066D03*
X5908D03*
X5807Y3100D03*
X5845D03*
X6215Y2429D03*
X6177D03*
X6118Y2608D03*
X6156D03*
X6428Y3135D03*
X6390D03*
X6428Y3100D03*
X6390D03*
X6341Y3064D03*
X6303D03*
X6341Y2982D03*
X6303D03*
X6341Y2919D03*
X6303D03*
X5522Y1379D03*
X5485D03*
X5197Y1314D03*
X5235D03*
X5197Y1344D03*
X5235D03*
X6298Y2610D03*
X6335D03*
X5890Y2915D03*
X5928D03*
X5807Y3131D03*
X5845D03*
X2790Y3340D03*
X2752D03*
X2755Y3482D03*
X2717D03*
X1138Y3580D03*
X1176D03*
X1339Y2415D03*
X1377D03*
X2042Y2346D03*
X2004D03*
X2544Y2257D03*
X2581D03*
X2607Y2627D03*
X2644D03*
X5837Y1374D03*
X5875D03*
X5837Y1344D03*
X5875D03*
X5693Y1253D03*
X5731D03*
X3209Y2777D03*
X3247D03*
X6200Y3578D03*
X6162D03*
X6200Y3610D03*
X6162D03*
X5329Y4147D03*
X5292D03*
X5329Y4120D03*
X5292D03*
X5329Y4092D03*
X5292D03*
G54D49*
X3360Y2661D03*
X1397Y2072D03*
X1448D03*
X1503D03*
X5291Y1592D03*
X5141D03*
X5574Y2045D03*
X5519D03*
X5862Y1407D03*
X5850Y2864D03*
X1476Y2421D03*
X1425Y2419D03*
X1665Y1852D03*
X1598Y1553D03*
Y1513D03*
X5834Y1305D03*
X6224Y1025D03*
X6106D03*
X5362Y2505D03*
Y2383D03*
X6456Y2277D03*
X6547Y2734D03*
X5405Y3996D03*
X4149Y3253D03*
Y3293D03*
Y3332D03*
X4086Y3655D03*
G54D50*
X3370Y2368D03*
X3346D03*
X3362Y2316D03*
X3338D03*
X3362Y2297D03*
X3338D03*
X3362Y2277D03*
X3338D03*
X3362Y2257D03*
X3338D03*
X3771Y2990D03*
X3795D03*
X4834Y2364D03*
X4810D03*
G54D51*
X3917Y2222D03*
X1562Y2478D03*
X3901Y2179D03*
X3775Y2206D03*
X3744D03*
X3421Y2990D03*
X3921Y2927D03*
X4145Y2458D03*
X4157Y2584D03*
X4956Y2769D03*
G54D52*
X1803Y2127D03*
X5440Y3427D03*
X5608Y3397D03*
X6236Y2389D03*
X5901Y2631D03*
X5688Y1549D03*
X5635Y3785D03*
X2568Y1519D03*
X2824D03*
X4598Y1517D03*
X4005Y1529D03*
X3750D03*
X5000Y1899D03*
X6318Y2271D03*
X6496Y2332D03*
X6220Y3649D03*
G54D53*
X5396Y3527D03*
X5422Y3500D03*
X5816Y1492D03*
X5789Y1519D03*
G54D54*
X5490Y3427D03*
X5553D03*
X5685Y3787D03*
X5748D03*
G54D55*
X5553Y3499D03*
X5490D03*
X5748Y3859D03*
X5685D03*
G54D56*
X2456Y2835D03*
Y2873D03*
X2488Y2835D03*
Y2873D03*
X2413Y2835D03*
Y2873D03*
X2287Y2835D03*
Y2873D03*
X6062Y2841D03*
Y2803D03*
X6173Y2841D03*
Y2803D03*
X6342Y2821D03*
Y2859D03*
X6303D03*
Y2821D03*
X5897Y2670D03*
Y2707D03*
X5870Y2670D03*
Y2707D03*
X5842Y2670D03*
Y2707D03*
X5637Y1534D03*
Y1572D03*
X6045Y1406D03*
Y1368D03*
X5842Y1616D03*
Y1654D03*
X6200Y1729D03*
Y1691D03*
X6011Y1729D03*
Y1691D03*
X6106Y1729D03*
Y1691D03*
X5929Y2855D03*
Y2817D03*
X5889Y2855D03*
Y2817D03*
X6007Y3191D03*
Y3229D03*
X5905Y3361D03*
Y3323D03*
X5877Y3361D03*
Y3323D03*
X5850Y3361D03*
Y3323D03*
X2588Y3502D03*
Y3540D03*
X1350Y1371D03*
Y1333D03*
X2696Y1270D03*
Y1308D03*
X3877Y1270D03*
Y1308D03*
X4468D03*
Y1270D03*
X1629Y1998D03*
Y2036D03*
X1720Y1821D03*
Y1859D03*
X1562Y1750D03*
Y1788D03*
X1606Y1678D03*
Y1640D03*
X2267Y2229D03*
Y2191D03*
X2409Y2229D03*
Y2191D03*
X2618Y2329D03*
Y2292D03*
X4972Y1939D03*
Y1977D03*
X4960Y1879D03*
Y1841D03*
X4933Y1879D03*
Y1841D03*
X4905Y1879D03*
Y1841D03*
X3996Y1973D03*
Y1935D03*
X4023Y1973D03*
Y1935D03*
X6228Y3191D03*
Y3229D03*
G54D57*
X2141Y2291D03*
X2157D03*
X2173D03*
X2188D03*
X2204D03*
X2220D03*
X2236D03*
X2251D03*
X2267D03*
X2283D03*
X2299D03*
X2314D03*
X2330D03*
X2346D03*
X2362D03*
X2377D03*
X2393D03*
X2409D03*
X2425D03*
X2440D03*
X2456D03*
X2472D03*
X2488D03*
X2503D03*
X2519D03*
Y2755D03*
X2503D03*
X2488D03*
X2472Y2755D03*
X2456D03*
X2440D03*
X2425D03*
X2409D03*
X2393D03*
X2377D03*
X2362Y2755D03*
X2346Y2755D03*
X2330Y2755D03*
X2314Y2755D03*
X2299Y2755D03*
X2283Y2755D03*
X2267D03*
X2251D03*
X2236D03*
X2220D03*
X2204D03*
X2188D03*
X2173Y2755D03*
X2157D03*
X2141D03*
G54D58*
X2562Y2334D03*
Y2350D03*
Y2366D03*
Y2381D03*
Y2397D03*
Y2413D03*
Y2429D03*
Y2444D03*
Y2460D03*
Y2476D03*
Y2492D03*
Y2507D03*
Y2523D03*
Y2539D03*
Y2555D03*
Y2570D03*
Y2586D03*
Y2602D03*
Y2618D03*
Y2633D03*
Y2649D03*
Y2665D03*
Y2681D03*
Y2696D03*
Y2712D03*
X2098D03*
Y2696D03*
Y2681D03*
Y2665D03*
Y2649D03*
Y2633D03*
Y2618D03*
Y2602D03*
Y2586D03*
Y2570D03*
Y2555D03*
Y2539D03*
Y2523D03*
Y2507D03*
Y2492D03*
Y2476D03*
Y2460D03*
Y2444D03*
Y2429D03*
Y2413D03*
Y2397D03*
Y2381D03*
Y2366D03*
Y2350D03*
Y2334D03*
G54D59*
X2225Y2418D03*
X2330D03*
X2435D03*
X2225Y2523D03*
X2330D03*
X2435D03*
X2225Y2628D03*
X2330D03*
X2435D03*
G54D60*
X1773Y2190D03*
X1698D03*
X5751Y2915D03*
X5826D03*
X5751Y2982D03*
X5826D03*
X5751Y3049D03*
X5826D03*
X5265Y4045D03*
X5340D03*
G54D61*
X856Y2443D03*
X1033D03*
X856Y2359D03*
X1033D03*
X856Y1538D03*
X1033D03*
X856Y1453D03*
X1033D03*
X856Y1754D03*
X1033D03*
X856Y1670D03*
X1033D03*
X856Y1971D03*
X1033D03*
X856Y1886D03*
X1033D03*
X856Y2187D03*
X1033D03*
X856Y2103D03*
X1033D03*
G54D62*
X1102Y2115D03*
Y2176D03*
Y2371D03*
Y2432D03*
Y1682D03*
Y1743D03*
Y1898D03*
Y1959D03*
Y1526D03*
Y1465D03*
G54D63*
X5982Y2911D03*
Y2950D03*
Y2970D03*
Y2990D03*
Y2931D03*
Y3049D03*
Y3088D03*
Y3068D03*
Y3009D03*
Y3029D03*
Y3108D03*
Y3127D03*
X6253Y2931D03*
Y2911D03*
Y3009D03*
Y2990D03*
Y2970D03*
Y2950D03*
Y3049D03*
Y3127D03*
Y3108D03*
Y3029D03*
Y3088D03*
Y3068D03*
X6180Y1557D03*
Y1537D03*
Y1576D03*
Y1517D03*
Y1498D03*
Y1478D03*
X6028Y1576D03*
Y1557D03*
Y1517D03*
Y1498D03*
Y1537D03*
Y1478D03*
G54D64*
X6029Y2884D03*
X6009D03*
X6049D03*
X6068D03*
X6088D03*
X6108D03*
X6029Y3155D03*
X6009D03*
X6049D03*
X6108D03*
X6068D03*
X6088D03*
X6147Y2884D03*
X6127D03*
X6187D03*
X6167D03*
X6206D03*
X6226D03*
X6127Y3155D03*
X6147D03*
X6206D03*
X6167D03*
X6187D03*
X6226D03*
X6153Y1603D03*
X6114D03*
X6133D03*
X6153Y1451D03*
X6133D03*
X6114D03*
X6094Y1603D03*
X6074D03*
X6055D03*
X6074Y1451D03*
X6094D03*
X6055D03*
G54D65*
X6118Y3019D03*
G54D66*
X5132Y838D03*
X5206D03*
X848Y1338D03*
X922D03*
X848Y1181D03*
X922D03*
X5947Y838D03*
X6021D03*
G54D67*
X5544Y1415D03*
X5518D03*
X1731Y2309D03*
X1756D03*
X3359Y2584D03*
X3333D03*
X5544Y1435D03*
X5518D03*
G54D68*
X5803Y1694D03*
X5777D03*
X5751D03*
Y1620D03*
X5803D03*
X1608Y1710D03*
X1633D03*
X1659D03*
Y1785D03*
X1608D03*
G54D69*
X6104Y1527D03*
X1465Y1385D03*
X2759Y3411D03*
G54D70*
X6250Y2275D03*
Y2338D03*
G54D71*
X6178Y2338D03*
Y2275D03*
G54D72*
X2415Y3476D03*
X2490D03*
X2452Y3566D03*
G54D73*
X921Y3753D03*
Y3734D03*
Y3714D03*
Y3694D03*
Y3675D03*
Y3655D03*
Y3635D03*
Y3616D03*
Y3596D03*
Y3576D03*
Y3557D03*
Y3537D03*
Y3517D03*
Y3498D03*
Y3478D03*
Y3458D03*
Y3438D03*
Y3419D03*
Y3399D03*
Y3379D03*
G54D74*
X822Y3336D03*
Y3797D03*
G54D75*
X954Y2625D03*
X1309D03*
X954Y3260D03*
X1309D03*
G54D76*
X1387Y3206D03*
Y3163D03*
Y3119D03*
Y3076D03*
Y3033D03*
Y2989D03*
Y2946D03*
Y2903D03*
Y2860D03*
G54D77*
X1214Y3620D03*
Y3645D03*
Y3671D03*
X1139D03*
Y3620D03*
X5551Y3994D03*
Y3968D03*
Y3942D03*
X5476Y3994D03*
Y3942D03*
G54D78*
X1574Y3061D03*
G54D79*
X1546Y3005D03*
Y3021D03*
Y3037D03*
Y3053D03*
Y3068D03*
Y3084D03*
Y3100D03*
Y3116D03*
X1603D03*
Y3100D03*
Y3084D03*
Y3068D03*
Y3053D03*
Y3037D03*
Y3021D03*
Y3005D03*
G54D80*
X1347Y2131D03*
X1373D03*
X1398D03*
X1424D03*
X1449D03*
X1475D03*
X1501D03*
X1526D03*
Y2356D03*
X1501D03*
X1475D03*
X1449D03*
X1424D03*
X1398D03*
X1373D03*
X1347D03*
G54D81*
X1708Y2433D03*
Y2358D03*
X1803D03*
Y2433D03*
G54D82*
X2166Y899D03*
Y844D03*
X2046Y899D03*
Y844D03*
X1528Y899D03*
Y844D03*
X1408Y899D03*
Y844D03*
G54D83*
X1842Y1874D03*
Y1799D03*
X1775Y1874D03*
Y1799D03*
X5291Y1960D03*
Y1885D03*
X4925Y1992D03*
Y1917D03*
X5712Y4173D03*
Y4248D03*
G54D84*
X1850Y2416D03*
Y2390D03*
X3289Y2646D03*
Y2621D03*
Y2676D03*
Y2701D03*
G54D85*
X2120Y2227D03*
X2092Y2256D03*
X2579Y2169D03*
X2550Y2197D03*
X2516Y2106D03*
X2488Y2134D03*
X2537Y2127D03*
X2509Y2155D03*
X2558Y2148D03*
X2529Y2176D03*
G54D86*
X2026Y2200D03*
G54D87*
X2039Y2184D03*
X2053Y2170D03*
X2085Y2202D03*
X2071Y2216D03*
X2057Y2230D03*
G54D88*
X5688Y1393D03*
G54D89*
X5592Y1334D03*
Y1354D03*
Y1374D03*
Y1393D03*
Y1413D03*
Y1433D03*
Y1452D03*
X5785D03*
Y1433D03*
Y1413D03*
Y1393D03*
Y1374D03*
Y1354D03*
Y1334D03*
G54D90*
X5629Y1490D03*
X5649D03*
X5669D03*
X5688D03*
X5708D03*
X5728D03*
X5748D03*
Y1297D03*
X5728D03*
X5708D03*
X5688D03*
X5669D03*
X5649D03*
X5629D03*
G54D91*
X5477Y1424D03*
X5432D03*
X5477Y1485D03*
X5432D03*
G54D92*
X6106Y897D03*
Y823D03*
X6224Y897D03*
Y823D03*
G54D93*
X5160Y1958D03*
Y1938D03*
Y1879D03*
Y1919D03*
Y1899D03*
X5044Y1958D03*
Y1938D03*
Y1919D03*
Y1879D03*
Y1899D03*
G54D94*
X5102Y1919D03*
G54D95*
X3712Y2183D03*
Y2159D03*
X3570Y2982D03*
Y2958D03*
X3590Y2930D03*
Y2954D03*
G54D96*
X3635Y2094D03*
Y2044D03*
Y1994D03*
Y1944D03*
X3950D03*
Y1994D03*
Y2044D03*
Y2094D03*
G54D97*
X3793Y2019D03*
G54D98*
X3303Y2509D03*
Y2462D03*
Y2415D03*
G54D99*
X3242Y2714D03*
Y2608D03*
G54D100*
X3460Y2277D03*
Y2309D03*
X3492Y2277D03*
Y2340D03*
Y2309D03*
X3460Y2340D03*
Y2403D03*
Y2372D03*
X3492D03*
Y2403D03*
X3523D03*
Y2277D03*
X3555Y2309D03*
X3586Y2277D03*
X3555D03*
X3586Y2309D03*
X3523D03*
Y2372D03*
Y2340D03*
X3555D03*
Y2403D03*
Y2372D03*
X3492Y2435D03*
X3460D03*
X3492Y2466D03*
X3460D03*
Y2529D03*
Y2498D03*
X3492D03*
Y2529D03*
X3523Y2561D03*
Y2435D03*
Y2466D03*
X3555D03*
X3586Y2435D03*
X3555D03*
X3586Y2466D03*
X3523Y2498D03*
Y2529D03*
X3555D03*
X3586Y2498D03*
X3555D03*
X3586Y2529D03*
X3618Y2277D03*
Y2309D03*
X3649D03*
X3586Y2340D03*
Y2372D03*
X3618D03*
X3649Y2340D03*
X3618D03*
X3649Y2372D03*
X3681Y2277D03*
X3649D03*
X3681Y2309D03*
X3712Y2277D03*
Y2309D03*
X3744D03*
X3681Y2340D03*
Y2372D03*
X3712Y2403D03*
X3744Y2340D03*
X3712Y2372D03*
Y2340D03*
X3586Y2403D03*
X3618Y2435D03*
Y2403D03*
X3649Y2466D03*
X3618Y2498D03*
Y2561D03*
Y2529D03*
Y2466D03*
X3649Y2529D03*
Y2498D03*
Y2403D03*
Y2435D03*
X3681D03*
Y2403D03*
X3712Y2466D03*
Y2435D03*
X3681Y2466D03*
Y2529D03*
Y2498D03*
X3712D03*
Y2561D03*
Y2529D03*
X3460Y2561D03*
Y2592D03*
X3492Y2561D03*
Y2624D03*
Y2592D03*
X3460Y2655D03*
Y2718D03*
Y2687D03*
Y2624D03*
X3492Y2687D03*
Y2655D03*
X3523Y2592D03*
Y2624D03*
X3555Y2561D03*
Y2624D03*
Y2592D03*
X3523Y2655D03*
Y2718D03*
Y2687D03*
X3555Y2655D03*
Y2718D03*
Y2687D03*
X3460Y2750D03*
Y2781D03*
X3492Y2718D03*
Y2781D03*
Y2750D03*
X3460Y2812D03*
Y2844D03*
X3492Y2812D03*
Y2844D03*
X3523Y2750D03*
Y2781D03*
X3555D03*
X3586Y2718D03*
X3555Y2750D03*
X3586D03*
X3523Y2812D03*
Y2844D03*
X3555D03*
X3586Y2812D03*
X3555D03*
X3586Y2844D03*
Y2592D03*
Y2624D03*
Y2561D03*
X3618Y2624D03*
Y2592D03*
X3586Y2655D03*
Y2687D03*
X3618D03*
X3649Y2655D03*
X3618D03*
X3649Y2687D03*
Y2561D03*
Y2592D03*
X3681D03*
Y2561D03*
X3712Y2624D03*
Y2592D03*
X3649Y2624D03*
X3681Y2687D03*
Y2655D03*
Y2624D03*
X3712Y2687D03*
Y2655D03*
X3618Y2781D03*
X3586D03*
X3618Y2718D03*
Y2750D03*
X3649Y2781D03*
X3618Y2812D03*
Y2844D03*
X3649D03*
Y2812D03*
Y2718D03*
Y2750D03*
X3681D03*
X3712Y2718D03*
X3681D03*
X3712Y2750D03*
X3681Y2781D03*
Y2844D03*
Y2812D03*
X3712Y2781D03*
Y2844D03*
Y2812D03*
X3744Y2277D03*
X3775Y2309D03*
Y2277D03*
X3807Y2340D03*
Y2309D03*
X3775Y2372D03*
X3744D03*
X3775Y2403D03*
Y2340D03*
X3807Y2403D03*
Y2372D03*
Y2277D03*
X3838Y2309D03*
X3870Y2277D03*
X3838D03*
X3870Y2309D03*
X3838Y2340D03*
Y2403D03*
Y2372D03*
X3870Y2340D03*
Y2403D03*
Y2372D03*
X3744Y2435D03*
Y2466D03*
Y2403D03*
X3775Y2466D03*
Y2435D03*
X3744Y2498D03*
Y2529D03*
X3775D03*
X3807Y2498D03*
X3775D03*
X3807Y2529D03*
X3838Y2435D03*
X3807D03*
X3838Y2466D03*
X3901Y2435D03*
X3870Y2466D03*
Y2435D03*
X3807Y2466D03*
X3838Y2561D03*
Y2529D03*
X3870Y2498D03*
X3838D03*
X3870Y2529D03*
X3901Y2277D03*
Y2309D03*
X3933Y2277D03*
Y2340D03*
Y2309D03*
X3901Y2340D03*
Y2403D03*
Y2372D03*
X3964D03*
X3933D03*
X3964Y2403D03*
Y2277D03*
Y2309D03*
X3996D03*
X4027Y2277D03*
X3996D03*
X4027Y2309D03*
X3964Y2340D03*
X3996Y2403D03*
Y2372D03*
X4027Y2340D03*
X3996D03*
X4027Y2372D03*
X3933Y2466D03*
X3901D03*
X3933Y2403D03*
X3964Y2498D03*
Y2466D03*
X3901Y2498D03*
Y2561D03*
Y2529D03*
X3964D03*
X3933D03*
X3964Y2561D03*
X3996Y2435D03*
X3964D03*
X4027Y2466D03*
Y2435D03*
X3996Y2498D03*
Y2561D03*
Y2529D03*
Y2466D03*
X4027Y2529D03*
Y2498D03*
X3744Y2561D03*
Y2592D03*
X3775Y2561D03*
Y2624D03*
Y2592D03*
X3744Y2624D03*
Y2687D03*
Y2655D03*
X3775D03*
Y2718D03*
Y2687D03*
X3807Y2561D03*
Y2592D03*
X3838Y2624D03*
X3870Y2561D03*
X3838Y2592D03*
X3870D03*
X3807Y2624D03*
Y2687D03*
Y2655D03*
X3838D03*
Y2687D03*
X3870D03*
X3744Y2750D03*
Y2781D03*
Y2718D03*
X3775Y2781D03*
Y2750D03*
X3744Y2812D03*
Y2844D03*
X3775D03*
X3807Y2812D03*
X3775D03*
X3807Y2844D03*
Y2718D03*
Y2750D03*
X3838D03*
Y2718D03*
X3870Y2781D03*
Y2750D03*
X3807Y2781D03*
X3838Y2844D03*
Y2812D03*
Y2781D03*
X3870Y2844D03*
Y2812D03*
X3901Y2624D03*
X3870D03*
X3933Y2592D03*
X3901D03*
X3964Y2655D03*
X3901D03*
X3870D03*
X3901Y2687D03*
X3933Y2655D03*
Y2718D03*
X3964Y2687D03*
X3996Y2592D03*
X3964D03*
X3996Y2624D03*
X4027Y2561D03*
Y2624D03*
Y2592D03*
X3964Y2624D03*
X3996Y2718D03*
Y2687D03*
X4027Y2655D03*
X3996D03*
X4027Y2687D03*
X3870Y2718D03*
X3901Y2750D03*
Y2718D03*
X3933Y2781D03*
Y2750D03*
X3901Y2781D03*
Y2844D03*
Y2812D03*
X3933D03*
Y2844D03*
X3964D03*
Y2718D03*
Y2750D03*
X3996Y2781D03*
X4027Y2750D03*
X3996D03*
X4027Y2781D03*
X3964D03*
Y2812D03*
X3996Y2844D03*
X4027Y2812D03*
X3996D03*
X4027Y2844D03*
X4972Y2498D03*
X4688Y2435D03*
Y2466D03*
Y2498D03*
Y2624D03*
Y2655D03*
Y2687D03*
X4720Y2435D03*
Y2466D03*
Y2498D03*
Y2624D03*
Y2655D03*
Y2687D03*
X4751Y2435D03*
Y2466D03*
Y2498D03*
Y2624D03*
Y2655D03*
Y2687D03*
X4783Y2435D03*
Y2466D03*
Y2498D03*
Y2624D03*
Y2655D03*
Y2687D03*
X4814Y2435D03*
Y2466D03*
Y2498D03*
Y2624D03*
Y2655D03*
Y2687D03*
X4846Y2435D03*
Y2466D03*
Y2498D03*
Y2624D03*
Y2655D03*
Y2687D03*
X4877Y2435D03*
Y2466D03*
Y2498D03*
Y2624D03*
Y2655D03*
Y2687D03*
X4909Y2435D03*
Y2466D03*
Y2498D03*
Y2624D03*
Y2655D03*
Y2687D03*
X4940Y2435D03*
Y2466D03*
Y2498D03*
Y2624D03*
Y2655D03*
Y2687D03*
X4972Y2435D03*
Y2466D03*
Y2624D03*
Y2655D03*
Y2687D03*
X5003Y2435D03*
Y2466D03*
Y2498D03*
Y2624D03*
Y2655D03*
Y2687D03*
X5035Y2435D03*
Y2466D03*
Y2498D03*
Y2624D03*
Y2655D03*
Y2687D03*
X5066Y2435D03*
Y2466D03*
Y2498D03*
Y2624D03*
Y2655D03*
Y2687D03*
X5098Y2435D03*
Y2466D03*
Y2498D03*
Y2624D03*
Y2655D03*
Y2687D03*
X5129Y2435D03*
Y2466D03*
Y2498D03*
Y2624D03*
Y2655D03*
Y2687D03*
X5161Y2435D03*
Y2466D03*
Y2498D03*
Y2624D03*
Y2655D03*
Y2687D03*
G54D101*
X6236Y3309D03*
Y3486D03*
G54D102*
X5992Y3938D03*
Y4151D03*
G54D103*
X5635Y4253D03*
Y4163D03*
Y4072D03*
G54D104*
X5387Y4163D03*
G54D105*
X3812Y3183D03*
X3793D03*
X3773D03*
X3753D03*
X3734D03*
X3714D03*
X3694D03*
X3675D03*
X3655D03*
X3635D03*
X3616D03*
X3596D03*
X3576D03*
X3557D03*
X3812Y3202D03*
X3793D03*
X3773D03*
X3753D03*
X3734D03*
X3714D03*
X3694D03*
X3675D03*
X3655D03*
X3635D03*
X3616D03*
X3596D03*
X3576D03*
X3557D03*
X3812Y3222D03*
X3793D03*
X3773D03*
X3753D03*
X3734D03*
X3714D03*
X3694D03*
X3675D03*
X3655D03*
X3635D03*
X3616D03*
X3596D03*
X3576D03*
X3557D03*
X3812Y3242D03*
X3793D03*
X3773D03*
X3753D03*
X3596D03*
X3576D03*
X3557D03*
X3812Y3261D03*
X3793D03*
X3773D03*
X3734D03*
X3714D03*
X3694D03*
X3675D03*
X3655D03*
X3635D03*
X3596D03*
X3576D03*
X3557D03*
X3812Y3281D03*
X3793D03*
X3773D03*
X3734D03*
X3635D03*
X3596D03*
X3576D03*
X3557D03*
X3812Y3301D03*
X3793D03*
X3773D03*
X3734D03*
X3635D03*
X3596D03*
X3576D03*
X3557D03*
X3812Y3320D03*
X3793D03*
X3773D03*
X3734D03*
X3635D03*
X3596D03*
X3576D03*
X3557D03*
X3812Y3340D03*
X3793D03*
X3773D03*
X3734D03*
X3635D03*
X3596D03*
X3576D03*
X3557D03*
X3812Y3360D03*
X3793D03*
X3773D03*
X3734D03*
X3714D03*
X3694D03*
X3675D03*
X3655D03*
X3635D03*
X3596D03*
X3576D03*
X3557D03*
X3812Y3379D03*
X3793D03*
X3773D03*
X3596D03*
X3576D03*
X3557D03*
X3812Y3399D03*
X3793D03*
X3773D03*
X3753D03*
X3734D03*
X3714D03*
X3694D03*
X3675D03*
X3655D03*
X3635D03*
X3616D03*
X3596D03*
X3576D03*
X3557D03*
X3812Y3419D03*
X3793D03*
X3773D03*
X3753D03*
X3734D03*
X3714D03*
X3694D03*
X3675D03*
X3655D03*
X3635D03*
X3616D03*
X3596D03*
X3576D03*
X3557D03*
X3812Y3438D03*
X3793D03*
X3773D03*
X3753D03*
X3734D03*
X3714D03*
X3694D03*
X3675D03*
X3655D03*
X3635D03*
X3616D03*
X3596D03*
X3576D03*
X3557D03*
G54D106*
X4269Y3332D03*
Y3293D03*
Y3253D03*
X4501D03*
Y3293D03*
Y3332D03*
G54D107*
X4301Y3214D03*
X4470D03*
Y3372D03*
X4301D03*
G54D108*
X4289Y3641D03*
X4339D03*
X4389D03*
X4439D03*
X4489D03*
Y3591D03*
X4439D03*
X4389D03*
X4339D03*
X4289D03*
M02*