%FSLAX23Y23*%
%MOIN*%
%SFA1B1*%

%IPPOS*%
%ADD11C,0.004720*%
%ADD12C,0.010000*%
%ADD13C,0.003940*%
%ADD15C,0.007090*%
%ADD18C,0.007870*%
%ADD243C,0.009840*%
%LNbenchy-mb-pcb-changes-1*%
%LPD*%
G54D11*
X6516Y1478D02*
X6558D01*
Y1464D02*
Y1478D01*
Y1311D02*
Y1326D01*
X6516Y1311D02*
X6558D01*
X6516D02*
X6525Y1303D01*
X1994Y3731D02*
Y3772D01*
X1826Y3731D02*
Y3772D01*
X6525Y1303D02*
X6530Y1311D01*
X1978Y3772D02*
X1994D01*
X2306Y1115D02*
Y1207D01*
X2135Y1218D02*
X2295D01*
X2135Y1104D02*
X2295D01*
X2299Y1108D02*
X2306Y1115D01*
X2299Y1214D02*
X2306Y1207D01*
X2897Y1115D02*
Y1207D01*
X2726Y1218D02*
X2886D01*
X2726Y1104D02*
X2886D01*
X2890Y1108D02*
X2897Y1115D01*
X1314Y1197D02*
Y1204D01*
X1283Y1197D02*
Y1204D01*
X2252Y951D02*
Y966D01*
X2203Y951D02*
Y966D01*
X2890Y1214D02*
X2897Y1207D01*
X5379Y1174D02*
X5387Y1167D01*
X5479*
X5248Y1086D02*
X5255Y1079D01*
X5375Y1178D02*
Y1338D01*
X5490Y1178D02*
Y1338D01*
X5225Y2415D02*
Y2478D01*
X5348Y2429D02*
X5355Y2424D01*
X5479Y1167D02*
X5486Y1174D01*
X5348Y2478D02*
Y2415D01*
X3487Y1115D02*
Y1207D01*
X3316Y1218D02*
X3476D01*
X3316Y1104D02*
X3476D01*
X3480Y1108D02*
X3487Y1115D01*
X3480Y1214D02*
X3487Y1207D01*
X5255Y987D02*
Y1079D01*
X5084Y1090D02*
X5244D01*
X5084Y976D02*
X5244D01*
X5248Y980D02*
X5255Y987D01*
X1781Y4018D02*
Y4024D01*
X1812Y4018D02*
Y4024D01*
X2542Y3494D02*
Y3549D01*
X2634Y3494D02*
Y3549D01*
X2535Y3540D02*
X2542Y3535D01*
X2535Y3540D02*
X2542Y3549D01*
X1044Y3677D02*
Y3692D01*
X1101Y3629D02*
X1115D01*
X995Y3677D02*
Y3692D01*
X1101Y3661D02*
X1115D01*
X5348Y2415D02*
X5355Y2423D01*
X3946Y1387D02*
X3998D01*
X3946Y1489D02*
X3998D01*
X5317Y1509D02*
Y1433D01*
Y1356D02*
Y1433D01*
X3757Y1490D02*
X3809D01*
X3757Y1388D02*
X3809D01*
X6409Y1949D02*
X6416Y1958D01*
X5115Y1433D02*
Y1568D01*
Y1433D02*
Y1356D01*
X5108Y1560D02*
X5115Y1568D01*
X5108Y1560D02*
X5115Y1555D01*
X4497Y1218D02*
X4657D01*
X4661Y1214D02*
X4668Y1207D01*
X4661Y1108D02*
X4668Y1115D01*
Y1207*
X4071Y1214D02*
X4078Y1207D01*
X4071Y1108D02*
X4078Y1115D01*
X3907Y1104D02*
X4067D01*
X3907Y1218D02*
X4067D01*
X4078Y1115D02*
Y1207D01*
X2765Y1489D02*
X2817D01*
X2576Y1490D02*
X2628D01*
X4497Y1104D02*
X4657D01*
X2765Y1387D02*
X2817D01*
X2576Y1388D02*
X2628D01*
X5522Y2062D02*
X5530Y2070D01*
X5522Y2062D02*
X5530Y2057D01*
Y1929D02*
Y2070D01*
X5456Y1853D02*
Y1859D01*
X5488Y1853D02*
Y1859D01*
X6508Y1903D02*
Y1958D01*
X6409Y1949D02*
X6416Y1944D01*
Y1903D02*
Y1958D01*
X5745Y1929D02*
Y1842D01*
X5530D02*
Y1929D01*
X5745D02*
Y2015D01*
X1512Y2725D02*
X1527D01*
X5632Y1190D02*
X5639Y1199D01*
X1430Y2856D02*
Y2919D01*
X1512Y2774D02*
X1527D01*
X5632Y1204D02*
X5639Y1199D01*
X5501Y918D02*
X5509Y927D01*
X5501Y918D02*
X5509Y913D01*
Y1190D02*
Y1253D01*
X5632Y1190D02*
Y1253D01*
X2503Y1493D02*
Y1534D01*
X2490Y1493D02*
X2503D01*
X2336D02*
X2352D01*
X2336D02*
Y1534D01*
X2329Y1525D02*
X2336Y1534D01*
X1423Y2910D02*
X1430Y2905D01*
X1553Y2856D02*
Y2919D01*
X2329Y1525D02*
X2336Y1520D01*
X1423Y2910D02*
X1425Y2913D01*
X1427Y2915D02*
X1430Y2919D01*
X5632Y864D02*
Y927D01*
X5509Y864D02*
Y927D01*
X5811Y3739D02*
Y3758D01*
X5792D02*
X5811D01*
X5684Y3631D02*
Y3650D01*
X5792Y3631D02*
X5811D01*
X4679Y1493D02*
X4694D01*
X4832D02*
X4846D01*
X4671Y1525D02*
X4679Y1534D01*
Y1493D02*
Y1534D01*
X4846Y1493D02*
Y1534D01*
X1994Y3745D02*
X2001Y3740D01*
X5811Y3753D02*
X5818Y3748D01*
X1826Y3772D02*
X1840D01*
X1994Y3731D02*
X2001Y3740D01*
X5811Y3739D02*
X5818Y3748D01*
X5684Y3739D02*
Y3758D01*
X5703*
X5684Y3631D02*
X5703D01*
X5811D02*
Y3650D01*
X4671Y1525D02*
X4679Y1520D01*
X3490Y1525D02*
X3498Y1520D01*
X2907Y1493D02*
X2923D01*
X3651D02*
X3665D01*
X3490Y1525D02*
X3498Y1534D01*
X2907Y1493D02*
Y1534D01*
X2900Y1525D02*
X2907Y1534D01*
X2900Y1525D02*
X2907Y1520D01*
X3074Y1493D02*
Y1534D01*
X3061Y1493D02*
X3074D01*
X4255D02*
Y1534D01*
X4242Y1493D02*
X4255D01*
X4088D02*
X4104D01*
X4088D02*
Y1534D01*
X4081Y1525D02*
X4088Y1534D01*
X3498Y1493D02*
Y1534D01*
X3665Y1493D02*
Y1534D01*
X4081Y1525D02*
X4088Y1520D01*
X3498Y1493D02*
X3513D01*
X2681Y3494D02*
X2686Y3501D01*
X2720Y3535D02*
Y3586D01*
X2676Y3328D02*
X2695D01*
X2686Y3501D02*
X2695Y3494D01*
X2830Y3535D02*
X2840Y3545D01*
X2830Y3535D02*
Y3586D01*
X2830Y3550D02*
X2840Y3545D01*
X2676Y3475D02*
Y3494D01*
X2695*
X3226Y3968D02*
Y4019D01*
X3327Y3968D02*
Y4019D01*
X2824Y3494D02*
X2842D01*
Y3328D02*
Y3347D01*
X2824Y3328D02*
X2842D01*
Y3475D02*
Y3494D01*
X2676Y3328D02*
Y3347D01*
X3111Y3531D02*
X3124Y3544D01*
X2967Y3431D02*
Y3557D01*
X3111D02*
X3124Y3544D01*
X3111Y3431D02*
Y3557D01*
X4885Y4215D02*
Y4229D01*
X6092Y3417D02*
X6143D01*
X6092Y3197D02*
X6143D01*
X4917Y4215D02*
Y4229D01*
X6092Y3315D02*
X6143D01*
X1312Y3025D02*
X1364D01*
X1312Y2924D02*
X1364D01*
X6092Y3299D02*
X6143D01*
X3866Y3342D02*
X3921D01*
X3866Y3433D02*
X3921D01*
X3912Y3440D02*
X3921Y3433D01*
X6168Y2718D02*
Y2769D01*
X6066Y2718D02*
Y2769D01*
G54D12*
X1131Y1069D02*
Y1076D01*
X1230Y1069D02*
Y1076D01*
X1131Y1167D02*
Y1174D01*
X1230Y1167D02*
Y1174D01*
G54D13*
X1286Y1100D02*
Y1104D01*
X2094Y2156D02*
X2097Y2159D01*
X1312Y1100D02*
Y1104D01*
X1812Y989D02*
X1816D01*
X1812Y1014D02*
X1816D01*
X1732Y4024D02*
X1736D01*
X2588Y3434D02*
X2592D01*
X1732Y4050D02*
X1736D01*
X1112Y4071D02*
X1116D01*
X1112Y4097D02*
X1116D01*
X1732Y3977D02*
X1736D01*
X1732Y4002D02*
X1736D01*
X2564Y3583D02*
X2568D01*
X2588Y3459D02*
X2592D01*
X2564Y3609D02*
X2568D01*
X1671Y3034D02*
X1675D01*
X1671Y3008D02*
X1675D01*
X1671Y3040D02*
X1675D01*
X1671Y3065D02*
X1675D01*
X1671Y3002D02*
X1675D01*
X1671Y2945D02*
X1675D01*
X2076Y2174D02*
X2078Y2177D01*
X1671Y2977D02*
X1675D01*
X1671Y2971D02*
X1675D01*
X1671Y3160D02*
X1675D01*
X1671Y3134D02*
X1675D01*
X1671Y3097D02*
X1675D01*
X1671Y3071D02*
X1675D01*
X1671Y3128D02*
X1675D01*
X1671Y3103D02*
X1675D01*
X3217Y2480D02*
Y2484D01*
X3249Y2480D02*
Y2484D01*
X3191Y2480D02*
Y2484D01*
X6406Y1905D02*
Y1909D01*
X6380Y1905D02*
Y1909D01*
X6458Y1873D02*
X6462D01*
X3223Y2480D02*
Y2484D01*
Y2413D02*
Y2417D01*
X3191Y2413D02*
Y2417D01*
X5546Y2129D02*
Y2133D01*
X5510Y2129D02*
Y2133D01*
X5571Y2129D02*
Y2133D01*
X5721Y2118D02*
Y2122D01*
X5391Y2420D02*
X5395D01*
X5536Y2129D02*
Y2133D01*
X5174Y1917D02*
Y1921D01*
X5689Y1742D02*
Y1746D01*
X2689Y3267D02*
Y3271D01*
X2664Y3267D02*
Y3271D01*
X2726Y3243D02*
X2730D01*
X2726Y3274D02*
X2730D01*
X2805D02*
X2809D01*
X2726Y3217D02*
X2730D01*
X2726Y3249D02*
X2730D01*
X2805D02*
X2809D01*
X2966Y3347D02*
X2970D01*
X2805Y3217D02*
X2809D01*
X2805Y3243D02*
X2809D01*
X3994Y3400D02*
X3998D01*
X3831Y3385D02*
Y3389D01*
X5809Y2876D02*
X5812D01*
X3994Y3375D02*
X3998D01*
X3806Y3385D02*
Y3389D01*
X6320Y3058D02*
X6324D01*
X6320Y3000D02*
X6324D01*
X6320Y2969D02*
X6324D01*
X6320Y3026D02*
X6324D01*
X6320Y2995D02*
X6324D01*
X5809Y2851D02*
X5812D01*
G54D15*
X4345Y3608D02*
X4350Y3603D01*
Y3593*
X4345Y3587*
X4324*
X4318Y3593*
Y3603*
X4324Y3608*
X4318Y3619D02*
Y3629D01*
Y3624*
X4350*
X4345Y3619*
Y3645D02*
X4350Y3650D01*
Y3661*
X4345Y3666*
X4324*
X4318Y3661*
Y3650*
X4324Y3645*
X4345*
X4318Y3692D02*
X4350D01*
X4334Y3677*
Y3698*
X1191Y1087D02*
X1196Y1082D01*
Y1071*
X1191Y1066*
X1170*
X1165Y1071*
Y1082*
X1170Y1087*
X2976Y3208D02*
X3007D01*
Y3223*
X3002Y3229*
X2992*
X2986Y3223*
Y3208*
Y3218D02*
X2976Y3229D01*
X3002Y3239D02*
X3007Y3244D01*
Y3255*
X3002Y3260*
X2997*
X2992Y3255*
Y3250*
Y3255*
X2986Y3260*
X2981*
X2976Y3255*
Y3244*
X2981Y3239*
X3007Y3291D02*
X3002Y3281D01*
X2992Y3270*
X2981*
X2976Y3276*
Y3286*
X2981Y3291*
X2986*
X2992Y3286*
Y3270*
X2927Y3200D02*
X2958D01*
Y3215*
X2953Y3221*
X2942*
X2937Y3215*
Y3200*
Y3210D02*
X2927Y3221D01*
X2953Y3231D02*
X2958Y3236D01*
Y3247*
X2953Y3252*
X2948*
X2942Y3247*
Y3242*
Y3247*
X2937Y3252*
X2932*
X2927Y3247*
Y3236*
X2932Y3231*
X2958Y3284D02*
Y3263D01*
X2942*
X2948Y3273*
Y3278*
X2942Y3284*
X2932*
X2927Y3278*
Y3268*
X2932Y3263*
X5983Y2980D02*
X5988Y2986D01*
X5999*
X6004Y2980*
Y2959*
X5999Y2954*
X5988*
X5983Y2959*
X5973Y2954D02*
X5962D01*
X5967*
Y2986*
X5973Y2980*
X5946D02*
X5941Y2986D01*
X5931*
X5925Y2980*
Y2975*
X5931Y2970*
X5925Y2965*
Y2959*
X5931Y2954*
X5941*
X5946Y2959*
Y2965*
X5941Y2970*
X5946Y2975*
Y2980*
X5941Y2970D02*
X5931D01*
X5915Y2954D02*
X5904D01*
X5910*
Y2986*
X5915Y2980*
X4019Y2176D02*
X4051D01*
Y2192*
X4045Y2197*
X4035*
X4030Y2192*
Y2176*
Y2187D02*
X4019Y2197D01*
Y2229D02*
Y2208D01*
X4040Y2229*
X4045*
X4051Y2223*
Y2213*
X4045Y2208*
Y2239D02*
X4051Y2244D01*
Y2255*
X4045Y2260*
X4024*
X4019Y2255*
Y2244*
X4024Y2239*
X4045*
X4024Y2270D02*
X4019Y2276D01*
Y2286*
X4024Y2291*
X4045*
X4051Y2286*
Y2276*
X4045Y2270*
X4040*
X4035Y2276*
Y2291*
X3910Y2269D02*
Y2301D01*
X3894*
X3889Y2295*
Y2285*
X3894Y2280*
X3910*
X3899D02*
X3889Y2269D01*
X3857D02*
X3878D01*
X3857Y2290*
Y2295*
X3862Y2301*
X3873*
X3878Y2295*
X3847D02*
X3841Y2301D01*
X3831*
X3826Y2295*
Y2274*
X3831Y2269*
X3841*
X3847Y2274*
Y2295*
X3815D02*
X3810Y2301D01*
X3799*
X3794Y2295*
Y2290*
X3799Y2285*
X3794Y2280*
Y2274*
X3799Y2269*
X3810*
X3815Y2274*
Y2280*
X3810Y2285*
X3815Y2290*
Y2295*
X3810Y2285D02*
X3799D01*
X2618Y1988D02*
X2624Y1983D01*
Y1973*
X2618Y1967*
X2597*
X2592Y1973*
Y1983*
X2597Y1988*
X2618Y1999D02*
X2624Y2004D01*
Y2015*
X2618Y2020*
X2613*
X2608Y2015*
Y2009*
Y2015*
X2603Y2020*
X2597*
X2592Y2015*
Y2004*
X2597Y1999*
X2592Y2051D02*
Y2030D01*
X2613Y2051*
X2618*
X2624Y2046*
Y2036*
X2618Y2030*
Y2062D02*
X2624Y2067D01*
Y2078*
X2618Y2083*
X2613*
X2608Y2078*
Y2072*
Y2078*
X2603Y2083*
X2597*
X2592Y2078*
Y2067*
X2597Y2062*
X3012Y2264D02*
X3017Y2259D01*
Y2248*
X3012Y2243*
X2991*
X2986Y2248*
Y2259*
X2991Y2264*
X3012Y2274D02*
X3017Y2280D01*
Y2290*
X3012Y2295*
X3007*
X3001Y2290*
Y2285*
Y2290*
X2996Y2295*
X2991*
X2986Y2290*
Y2280*
X2991Y2274*
X2986Y2327D02*
Y2306D01*
X3007Y2327*
X3012*
X3017Y2322*
Y2311*
X3012Y2306*
X2986Y2358D02*
Y2337D01*
X3007Y2358*
X3012*
X3017Y2353*
Y2343*
X3012Y2337*
X3131Y2400D02*
X3137Y2405D01*
X3147*
X3152Y2400*
Y2379*
X3147Y2374*
X3137*
X3131Y2379*
X3121Y2400D02*
X3116Y2405D01*
X3105*
X3100Y2400*
Y2395*
X3105Y2389*
X3110*
X3105*
X3100Y2384*
Y2379*
X3105Y2374*
X3116*
X3121Y2379*
X3068Y2374D02*
X3089D01*
X3068Y2395*
Y2400*
X3074Y2405*
X3084*
X3089Y2400*
X3058Y2374D02*
X3047D01*
X3053*
Y2405*
X3058Y2400*
X2815Y1851D02*
X2820Y1845D01*
Y1835*
X2815Y1830*
X2794*
X2789Y1835*
Y1845*
X2794Y1851*
X2815Y1861D02*
X2820Y1866D01*
Y1877*
X2815Y1882*
X2810*
X2805Y1877*
Y1872*
Y1877*
X2799Y1882*
X2794*
X2789Y1877*
Y1866*
X2794Y1861*
X2789Y1914D02*
Y1893D01*
X2810Y1914*
X2815*
X2820Y1908*
Y1898*
X2815Y1893*
Y1924D02*
X2820Y1929D01*
Y1940*
X2815Y1945*
X2794*
X2789Y1940*
Y1929*
X2794Y1924*
X2815*
X2864Y1853D02*
X2870Y1848D01*
Y1837*
X2864Y1832*
X2843*
X2838Y1837*
Y1848*
X2843Y1853*
X2864Y1864D02*
X2870Y1869D01*
Y1879*
X2864Y1885*
X2859*
X2854Y1879*
Y1874*
Y1879*
X2849Y1885*
X2843*
X2838Y1879*
Y1869*
X2843Y1864*
X2838Y1895D02*
Y1906D01*
Y1900*
X2870*
X2864Y1895*
X2843Y1921D02*
X2838Y1927D01*
Y1937*
X2843Y1942*
X2864*
X2870Y1937*
Y1927*
X2864Y1921*
X2859*
X2854Y1927*
Y1942*
X2914Y1853D02*
X2919Y1848D01*
Y1837*
X2914Y1832*
X2893*
X2887Y1837*
Y1848*
X2893Y1853*
X2914Y1864D02*
X2919Y1869D01*
Y1879*
X2914Y1885*
X2908*
X2903Y1879*
Y1874*
Y1879*
X2898Y1885*
X2893*
X2887Y1879*
Y1869*
X2893Y1864*
X2887Y1895D02*
Y1906D01*
Y1900*
X2919*
X2914Y1895*
Y1921D02*
X2919Y1927D01*
Y1937*
X2914Y1942*
X2908*
X2903Y1937*
X2898Y1942*
X2893*
X2887Y1937*
Y1927*
X2893Y1921*
X2898*
X2903Y1927*
X2908Y1921*
X2914*
X2903Y1927D02*
Y1937D01*
X2963Y1853D02*
X2968Y1848D01*
Y1837*
X2963Y1832*
X2942*
X2937Y1837*
Y1848*
X2942Y1853*
X2963Y1864D02*
X2968Y1869D01*
Y1879*
X2963Y1885*
X2958*
X2952Y1879*
Y1874*
Y1879*
X2947Y1885*
X2942*
X2937Y1879*
Y1869*
X2942Y1864*
X2937Y1895D02*
Y1906D01*
Y1900*
X2968*
X2963Y1895*
X2968Y1921D02*
Y1942D01*
X2963*
X2942Y1921*
X2937*
X3012Y1853D02*
X3017Y1848D01*
Y1837*
X3012Y1832*
X2991*
X2986Y1837*
Y1848*
X2991Y1853*
X3012Y1864D02*
X3017Y1869D01*
Y1879*
X3012Y1885*
X3007*
X3001Y1879*
Y1874*
Y1879*
X2996Y1885*
X2991*
X2986Y1879*
Y1869*
X2991Y1864*
X2986Y1895D02*
Y1906D01*
Y1900*
X3017*
X3012Y1895*
X3017Y1942D02*
X3012Y1932D01*
X3001Y1921*
X2991*
X2986Y1927*
Y1937*
X2991Y1942*
X2996*
X3001Y1937*
Y1921*
X1835Y1035D02*
Y1066D01*
X1819*
X1814Y1061*
Y1051*
X1819Y1045*
X1835*
X1824D02*
X1814Y1035D01*
X1782D02*
X1803D01*
X1782Y1056*
Y1061*
X1788Y1066*
X1798*
X1803Y1061*
X1772D02*
X1767Y1066D01*
X1756*
X1751Y1061*
Y1040*
X1756Y1035*
X1767*
X1772Y1040*
Y1061*
X1740Y1066D02*
X1719D01*
Y1061*
X1740Y1040*
Y1035*
X2648Y3253D02*
Y3285D01*
X2632*
X2627Y3280*
Y3269*
X2632Y3264*
X2648*
X2637D02*
X2627Y3253D01*
X2595D02*
X2616D01*
X2595Y3274*
Y3280*
X2601Y3285*
X2611*
X2616Y3280*
X2585D02*
X2580Y3285D01*
X2569*
X2564Y3280*
Y3259*
X2569Y3253*
X2580*
X2585Y3259*
Y3280*
X2538Y3253D02*
Y3285D01*
X2553Y3269*
X2532*
X2132Y885D02*
Y854D01*
X2116*
X2111Y859*
Y880*
X2116Y885*
X2132*
X2101Y859D02*
X2095Y854D01*
X2085*
X2080Y859*
Y880*
X2085Y885*
X2095*
X2101Y880*
Y875*
X2095Y870*
X2080*
X1494Y887D02*
Y856D01*
X1479*
X1473Y861*
Y882*
X1479Y887*
X1494*
X1463Y882D02*
X1458Y887D01*
X1447*
X1442Y882*
Y877*
X1447Y872*
X1442Y866*
Y861*
X1447Y856*
X1458*
X1463Y861*
Y866*
X1458Y872*
X1463Y877*
Y882*
X1458Y872D02*
X1447D01*
X5937Y1314D02*
Y1346D01*
X5922*
X5916Y1341*
Y1330*
X5922Y1325*
X5937*
X5927D02*
X5916Y1314D01*
X5885D02*
X5906D01*
X5885Y1335*
Y1341*
X5890Y1346*
X5901*
X5906Y1341*
X5874D02*
X5869Y1346D01*
X5859*
X5853Y1341*
Y1320*
X5859Y1314*
X5869*
X5874Y1320*
Y1341*
X5822Y1314D02*
X5843D01*
X5822Y1335*
Y1341*
X5827Y1346*
X5838*
X5843Y1341*
X6013Y1759D02*
X6045D01*
Y1774*
X6040Y1780*
X6029*
X6024Y1774*
Y1759*
Y1769D02*
X6013Y1780D01*
Y1811D02*
Y1790D01*
X6034Y1811*
X6040*
X6045Y1806*
Y1795*
X6040Y1790*
Y1822D02*
X6045Y1827D01*
Y1837*
X6040Y1843*
X6019*
X6013Y1837*
Y1827*
X6019Y1822*
X6040*
X6013Y1853D02*
Y1864D01*
Y1858*
X6045*
X6040Y1853*
X5960Y1284D02*
X5992D01*
Y1300*
X5986Y1305*
X5976*
X5971Y1300*
Y1284*
Y1295D02*
X5960Y1305D01*
Y1337D02*
Y1316D01*
X5981Y1337*
X5986*
X5992Y1332*
Y1321*
X5986Y1316*
Y1347D02*
X5992Y1353D01*
Y1363*
X5986Y1368*
X5965*
X5960Y1363*
Y1353*
X5965Y1347*
X5986*
Y1379D02*
X5992Y1384D01*
Y1395*
X5986Y1400*
X5965*
X5960Y1395*
Y1384*
X5965Y1379*
X5986*
X6045Y1704D02*
Y1736D01*
X6029*
X6024Y1730*
Y1720*
X6029Y1715*
X6045*
X6034D02*
X6024Y1704D01*
X6013D02*
X6003D01*
X6008*
Y1736*
X6013Y1730*
X5987Y1709D02*
X5982Y1704D01*
X5971*
X5966Y1709*
Y1730*
X5971Y1736*
X5982*
X5987Y1730*
Y1725*
X5982Y1720*
X5966*
X5956Y1709D02*
X5950Y1704D01*
X5940*
X5935Y1709*
Y1730*
X5940Y1736*
X5950*
X5956Y1730*
Y1725*
X5950Y1720*
X5935*
X6341Y1350D02*
Y1381D01*
X6325*
X6320Y1376*
Y1366*
X6325Y1360*
X6341*
X6330D02*
X6320Y1350D01*
X6309D02*
X6299D01*
X6304*
Y1381*
X6309Y1376*
X6283Y1355D02*
X6278Y1350D01*
X6267*
X6262Y1355*
Y1376*
X6267Y1381*
X6278*
X6283Y1376*
Y1371*
X6278Y1366*
X6262*
X6252Y1376D02*
X6246Y1381D01*
X6236*
X6231Y1376*
Y1371*
X6236Y1366*
X6231Y1360*
Y1355*
X6236Y1350*
X6246*
X6252Y1355*
Y1360*
X6246Y1366*
X6252Y1371*
Y1376*
X6246Y1366D02*
X6236D01*
X6341Y1511D02*
Y1543D01*
X6325*
X6320Y1538*
Y1527*
X6325Y1522*
X6341*
X6330D02*
X6320Y1511D01*
X6309D02*
X6299D01*
X6304*
Y1543*
X6309Y1538*
X6283Y1517D02*
X6278Y1511D01*
X6267*
X6262Y1517*
Y1538*
X6267Y1543*
X6278*
X6283Y1538*
Y1532*
X6278Y1527*
X6262*
X6252Y1543D02*
X6231D01*
Y1538*
X6252Y1517*
Y1511*
X6263Y968D02*
X6295D01*
Y984*
X6290Y989*
X6279*
X6274Y984*
Y968*
Y979D02*
X6263Y989D01*
Y1000D02*
Y1010D01*
Y1005*
X6295*
X6290Y1000*
X6269Y1026D02*
X6263Y1031D01*
Y1041*
X6269Y1047*
X6290*
X6295Y1041*
Y1031*
X6290Y1026*
X6284*
X6279Y1031*
Y1047*
X6295Y1078D02*
X6290Y1068D01*
X6279Y1057*
X6269*
X6263Y1062*
Y1073*
X6269Y1078*
X6274*
X6279Y1073*
Y1057*
X6145Y968D02*
X6177D01*
Y984*
X6171Y989*
X6161*
X6156Y984*
Y968*
Y979D02*
X6145Y989D01*
Y1000D02*
Y1010D01*
Y1005*
X6177*
X6171Y1000*
X6150Y1026D02*
X6145Y1031D01*
Y1041*
X6150Y1047*
X6171*
X6177Y1041*
Y1031*
X6171Y1026*
X6166*
X6161Y1031*
Y1047*
X6177Y1078D02*
Y1057D01*
X6161*
X6166Y1068*
Y1073*
X6161Y1078*
X6150*
X6145Y1073*
Y1062*
X6150Y1057*
X5937Y1208D02*
Y1240D01*
X5922*
X5916Y1234*
Y1224*
X5922Y1219*
X5937*
X5927D02*
X5916Y1208D01*
X5906D02*
X5895D01*
X5901*
Y1240*
X5906Y1234*
X5880Y1213D02*
X5874Y1208D01*
X5864*
X5859Y1213*
Y1234*
X5864Y1240*
X5874*
X5880Y1234*
Y1229*
X5874Y1224*
X5859*
X5832Y1208D02*
Y1240D01*
X5848Y1224*
X5827*
X5907Y1759D02*
X5938D01*
Y1774*
X5933Y1780*
X5923*
X5917Y1774*
Y1759*
Y1769D02*
X5907Y1780D01*
Y1790D02*
Y1801D01*
Y1795*
X5938*
X5933Y1790*
X5912Y1816D02*
X5907Y1822D01*
Y1832*
X5912Y1837*
X5933*
X5938Y1832*
Y1822*
X5933Y1816*
X5928*
X5923Y1822*
Y1837*
X5933Y1848D02*
X5938Y1853D01*
Y1864*
X5933Y1869*
X5928*
X5923Y1864*
Y1858*
Y1864*
X5917Y1869*
X5912*
X5907Y1864*
Y1853*
X5912Y1848*
X5937Y1474D02*
Y1505D01*
X5922*
X5916Y1500*
Y1490*
X5922Y1484*
X5937*
X5927D02*
X5916Y1474D01*
X5906D02*
X5895D01*
X5901*
Y1505*
X5906Y1500*
X5880Y1479D02*
X5874Y1474D01*
X5864*
X5859Y1479*
Y1500*
X5864Y1505*
X5874*
X5880Y1500*
Y1495*
X5874Y1490*
X5859*
X5827Y1474D02*
X5848D01*
X5827Y1495*
Y1500*
X5832Y1505*
X5843*
X5848Y1500*
X6173Y1759D02*
X6204D01*
Y1774*
X6199Y1780*
X6188*
X6183Y1774*
Y1759*
Y1769D02*
X6173Y1780D01*
Y1790D02*
Y1801D01*
Y1795*
X6204*
X6199Y1790*
X6178Y1816D02*
X6173Y1822D01*
Y1832*
X6178Y1837*
X6199*
X6204Y1832*
Y1822*
X6199Y1816*
X6194*
X6188Y1822*
Y1837*
X6173Y1848D02*
Y1858D01*
Y1853*
X6204*
X6199Y1848*
X5960Y1438D02*
X5992D01*
Y1454*
X5986Y1459*
X5976*
X5971Y1454*
Y1438*
Y1449D02*
X5960Y1459D01*
Y1470D02*
Y1480D01*
Y1475*
X5992*
X5986Y1470*
X5965Y1496D02*
X5960Y1501D01*
Y1512*
X5965Y1517*
X5986*
X5992Y1512*
Y1501*
X5986Y1496*
X5981*
X5976Y1501*
Y1517*
X5986Y1528D02*
X5992Y1533D01*
Y1543*
X5986Y1549*
X5965*
X5960Y1543*
Y1533*
X5965Y1528*
X5986*
X6192Y1704D02*
Y1736D01*
X6177*
X6171Y1730*
Y1720*
X6177Y1715*
X6192*
X6182D02*
X6171Y1704D01*
X6161D02*
X6150D01*
X6156*
Y1736*
X6161Y1730*
X6135D02*
X6129Y1736D01*
X6119*
X6114Y1730*
Y1725*
X6119Y1720*
X6114Y1715*
Y1709*
X6119Y1704*
X6129*
X6135Y1709*
Y1715*
X6129Y1720*
X6135Y1725*
Y1730*
X6129Y1720D02*
X6119D01*
X6103Y1709D02*
X6098Y1704D01*
X6087*
X6082Y1709*
Y1730*
X6087Y1736*
X6098*
X6103Y1730*
Y1725*
X6098Y1720*
X6082*
X6341Y1403D02*
Y1435D01*
X6325*
X6320Y1429*
Y1419*
X6325Y1414*
X6341*
X6330D02*
X6320Y1403D01*
X6309D02*
X6299D01*
X6304*
Y1435*
X6309Y1429*
X6283D02*
X6278Y1435D01*
X6267*
X6262Y1429*
Y1424*
X6267Y1419*
X6262Y1414*
Y1408*
X6267Y1403*
X6278*
X6283Y1408*
Y1414*
X6278Y1419*
X6283Y1424*
Y1429*
X6278Y1419D02*
X6267D01*
X6252Y1429D02*
X6246Y1435D01*
X6236*
X6231Y1429*
Y1424*
X6236Y1419*
X6231Y1414*
Y1408*
X6236Y1403*
X6246*
X6252Y1408*
Y1414*
X6246Y1419*
X6252Y1424*
Y1429*
X6246Y1419D02*
X6236D01*
X6341Y1566D02*
Y1598D01*
X6325*
X6320Y1593*
Y1582*
X6325Y1577*
X6341*
X6330D02*
X6320Y1566D01*
X6309D02*
X6299D01*
X6304*
Y1598*
X6309Y1593*
X6283D02*
X6278Y1598D01*
X6267*
X6262Y1593*
Y1587*
X6267Y1582*
X6262Y1577*
Y1572*
X6267Y1566*
X6278*
X6283Y1572*
Y1577*
X6278Y1582*
X6283Y1587*
Y1593*
X6278Y1582D02*
X6267D01*
X6252Y1598D02*
X6231D01*
Y1593*
X6252Y1572*
Y1566*
X5937Y1370D02*
Y1401D01*
X5922*
X5916Y1396*
Y1385*
X5922Y1380*
X5937*
X5927D02*
X5916Y1370D01*
X5906D02*
X5895D01*
X5901*
Y1401*
X5906Y1396*
X5880D02*
X5874Y1401D01*
X5864*
X5859Y1396*
Y1391*
X5864Y1385*
X5859Y1380*
Y1375*
X5864Y1370*
X5874*
X5880Y1375*
Y1380*
X5874Y1385*
X5880Y1391*
Y1396*
X5874Y1385D02*
X5864D01*
X5827Y1401D02*
X5838Y1396D01*
X5848Y1385*
Y1375*
X5843Y1370*
X5832*
X5827Y1375*
Y1380*
X5832Y1385*
X5848*
X6066Y1759D02*
X6098D01*
Y1774*
X6093Y1780*
X6082*
X6077Y1774*
Y1759*
Y1769D02*
X6066Y1780D01*
Y1790D02*
Y1801D01*
Y1795*
X6098*
X6093Y1790*
Y1816D02*
X6098Y1822D01*
Y1832*
X6093Y1837*
X6087*
X6082Y1832*
X6077Y1837*
X6072*
X6066Y1832*
Y1822*
X6072Y1816*
X6077*
X6082Y1822*
X6087Y1816*
X6093*
X6082Y1822D02*
Y1832D01*
X6098Y1869D02*
Y1848D01*
X6082*
X6087Y1858*
Y1864*
X6082Y1869*
X6072*
X6066Y1864*
Y1853*
X6072Y1848*
X5937Y1633D02*
Y1665D01*
X5922*
X5916Y1660*
Y1649*
X5922Y1644*
X5937*
X5927D02*
X5916Y1633D01*
X5906D02*
X5895D01*
X5901*
Y1665*
X5906Y1660*
X5880D02*
X5874Y1665D01*
X5864*
X5859Y1660*
Y1654*
X5864Y1649*
X5859Y1644*
Y1639*
X5864Y1633*
X5874*
X5880Y1639*
Y1644*
X5874Y1649*
X5880Y1654*
Y1660*
X5874Y1649D02*
X5864D01*
X5832Y1633D02*
Y1665D01*
X5848Y1649*
X5827*
X5960Y1572D02*
X5992D01*
Y1588*
X5986Y1593*
X5976*
X5971Y1588*
Y1572*
Y1583D02*
X5960Y1593D01*
Y1604D02*
Y1614D01*
Y1609*
X5992*
X5986Y1604*
X5992Y1651D02*
X5986Y1641D01*
X5976Y1630*
X5965*
X5960Y1635*
Y1646*
X5965Y1651*
X5971*
X5976Y1646*
Y1630*
X5960Y1677D02*
X5992D01*
X5976Y1662*
Y1683*
X6344Y1704D02*
Y1736D01*
X6328*
X6323Y1730*
Y1720*
X6328Y1715*
X6344*
X6333D02*
X6323Y1704D01*
X6312D02*
X6302D01*
X6307*
Y1736*
X6312Y1730*
X6265Y1736D02*
X6276Y1730D01*
X6286Y1720*
Y1709*
X6281Y1704*
X6271*
X6265Y1709*
Y1715*
X6271Y1720*
X6286*
X6255Y1730D02*
X6250Y1736D01*
X6239*
X6234Y1730*
Y1725*
X6239Y1720*
X6244*
X6239*
X6234Y1715*
Y1709*
X6239Y1704*
X6250*
X6255Y1709*
X6341Y1456D02*
Y1488D01*
X6325*
X6320Y1482*
Y1472*
X6325Y1467*
X6341*
X6330D02*
X6320Y1456D01*
X6309D02*
X6299D01*
X6304*
Y1488*
X6309Y1482*
X6262Y1488D02*
X6273Y1482D01*
X6283Y1472*
Y1461*
X6278Y1456*
X6267*
X6262Y1461*
Y1467*
X6267Y1472*
X6283*
X6231Y1456D02*
X6252D01*
X6231Y1477*
Y1482*
X6236Y1488*
X6246*
X6252Y1482*
X6341Y1620D02*
Y1651D01*
X6325*
X6320Y1646*
Y1635*
X6325Y1630*
X6341*
X6330D02*
X6320Y1620D01*
X6309D02*
X6299D01*
X6304*
Y1651*
X6309Y1646*
X6262Y1651D02*
X6273Y1646D01*
X6283Y1635*
Y1625*
X6278Y1620*
X6267*
X6262Y1625*
Y1630*
X6267Y1635*
X6283*
X6252Y1620D02*
X6241D01*
X6246*
Y1651*
X6252Y1646*
X5916Y1288D02*
X5922Y1293D01*
X5932*
X5937Y1288*
Y1267*
X5932Y1261*
X5922*
X5916Y1267*
X5906Y1288D02*
X5901Y1293D01*
X5890*
X5885Y1288*
Y1282*
X5890Y1277*
X5895*
X5890*
X5885Y1272*
Y1267*
X5890Y1261*
X5901*
X5906Y1267*
X5874Y1261D02*
X5864D01*
X5869*
Y1293*
X5874Y1288*
X5848D02*
X5843Y1293D01*
X5832*
X5827Y1288*
Y1282*
X5832Y1277*
X5838*
X5832*
X5827Y1272*
Y1267*
X5832Y1261*
X5843*
X5848Y1267*
X3159Y3463D02*
X3127Y3484D01*
X3159D02*
X3127Y3463D01*
Y3511D02*
X3159D01*
X3143Y3495*
Y3516*
X2817Y3645D02*
Y3619D01*
X2812Y3614*
X2801*
X2796Y3619*
Y3645*
X2770Y3614D02*
Y3645D01*
X2786Y3629*
X2765*
X2733Y3645D02*
X2754D01*
Y3629*
X2744Y3635*
X2738*
X2733Y3629*
Y3619*
X2738Y3614*
X2749*
X2754Y3619*
X6501Y2033D02*
Y2007D01*
X6496Y2001*
X6486*
X6480Y2007*
Y2033*
X6470Y2001D02*
X6459D01*
X6465*
Y2033*
X6470Y2028*
X6423Y2033D02*
X6433Y2028D01*
X6444Y2017*
Y2007*
X6438Y2001*
X6428*
X6423Y2007*
Y2012*
X6428Y2017*
X6444*
X6528Y2843D02*
Y2822D01*
Y2832*
X6559*
Y2811D02*
X6528D01*
Y2795*
X6533Y2790*
X6544*
X6549Y2795*
Y2811*
X6528Y2759D02*
Y2780D01*
X6544*
X6538Y2769*
Y2764*
X6544Y2759*
X6554*
X6559Y2764*
Y2774*
X6554Y2780*
X6559Y2732D02*
X6528D01*
X6544Y2748*
Y2727*
X3214Y2339D02*
Y2318D01*
Y2328*
X3246*
Y2307D02*
X3214D01*
Y2291*
X3219Y2286*
X3230*
X3235Y2291*
Y2307*
X3246Y2255D02*
Y2276D01*
X3225Y2255*
X3219*
X3214Y2260*
Y2271*
X3219Y2276*
X3214Y2244D02*
Y2223D01*
X3219*
X3240Y2244*
X3246*
X3325Y2596D02*
X3304D01*
X3314*
Y2564*
X3293D02*
Y2596D01*
X3278*
X3272Y2591*
Y2580*
X3278Y2575*
X3293*
X3241Y2564D02*
X3262D01*
X3241Y2585*
Y2591*
X3246Y2596*
X3257*
X3262Y2591*
X3209Y2596D02*
X3220Y2591D01*
X3230Y2580*
Y2570*
X3225Y2564*
X3215*
X3209Y2570*
Y2575*
X3215Y2580*
X3230*
X4065Y2521D02*
X4044D01*
X4055*
Y2490*
X4034D02*
Y2521D01*
X4018*
X4013Y2516*
Y2505*
X4018Y2500*
X4034*
X3981Y2490D02*
X4002D01*
X3981Y2511*
Y2516*
X3986Y2521*
X3997*
X4002Y2516*
X3971D02*
X3965Y2521D01*
X3955*
X3950Y2516*
Y2495*
X3955Y2490*
X3965*
X3971Y2495*
Y2516*
X1169Y4021D02*
Y4053D01*
X1153*
X1148Y4047*
Y4037*
X1153Y4032*
X1169*
X1158D02*
X1148Y4021D01*
X1137D02*
X1127D01*
X1132*
Y4053*
X1137Y4047*
X1111D02*
X1106Y4053D01*
X1095*
X1090Y4047*
Y4042*
X1095Y4037*
X1090Y4032*
Y4026*
X1095Y4021*
X1106*
X1111Y4026*
Y4032*
X1106Y4037*
X1111Y4042*
Y4047*
X1106Y4037D02*
X1095D01*
X1080Y4047D02*
X1074Y4053D01*
X1064*
X1059Y4047*
Y4042*
X1064Y4037*
X1069*
X1064*
X1059Y4032*
Y4026*
X1064Y4021*
X1074*
X1080Y4026*
X6324Y1762D02*
X6356D01*
Y1778*
X6351Y1783*
X6340*
X6335Y1778*
Y1762*
Y1773D02*
X6324Y1783D01*
Y1794D02*
Y1804D01*
Y1799*
X6356*
X6351Y1794*
Y1820D02*
X6356Y1825D01*
Y1836*
X6351Y1841*
X6345*
X6340Y1836*
X6335Y1841*
X6330*
X6324Y1836*
Y1825*
X6330Y1820*
X6335*
X6340Y1825*
X6345Y1820*
X6351*
X6340Y1825D02*
Y1836D01*
X6324Y1873D02*
Y1852D01*
X6345Y1873*
X6351*
X6356Y1867*
Y1857*
X6351Y1852*
X5570Y1746D02*
Y1777D01*
X5554*
X5549Y1772*
Y1761*
X5554Y1756*
X5570*
X5559D02*
X5549Y1746D01*
X5538D02*
X5528D01*
X5533*
Y1777*
X5538Y1772*
X5512Y1777D02*
X5491D01*
Y1772*
X5512Y1751*
Y1746*
X5465D02*
Y1777D01*
X5480Y1761*
X5459*
X5570Y1696D02*
Y1728D01*
X5554*
X5549Y1723*
Y1712*
X5554Y1707*
X5570*
X5559D02*
X5549Y1696D01*
X5538D02*
X5528D01*
X5533*
Y1728*
X5538Y1723*
X5512Y1728D02*
X5491D01*
Y1723*
X5512Y1702*
Y1696*
X5480Y1723D02*
X5475Y1728D01*
X5465*
X5459Y1723*
Y1717*
X5465Y1712*
X5470*
X5465*
X5459Y1707*
Y1702*
X5465Y1696*
X5475*
X5480Y1702*
X5751Y1693D02*
X5783D01*
Y1709*
X5778Y1714*
X5767*
X5762Y1709*
Y1693*
Y1704D02*
X5751Y1714D01*
Y1725D02*
Y1735D01*
Y1730*
X5783*
X5778Y1725*
X5783Y1751D02*
Y1772D01*
X5778*
X5757Y1751*
X5751*
Y1803D02*
Y1782D01*
X5772Y1803*
X5778*
X5783Y1798*
Y1788*
X5778Y1782*
X5801Y1704D02*
X5832D01*
Y1719*
X5827Y1725*
X5816*
X5811Y1719*
Y1704*
Y1714D02*
X5801Y1725D01*
Y1735D02*
Y1746D01*
Y1740*
X5832*
X5827Y1735*
X5832Y1761D02*
Y1782D01*
X5827*
X5806Y1761*
X5801*
Y1793D02*
Y1803D01*
Y1798*
X5832*
X5827Y1793*
X5755Y2174D02*
X5787D01*
Y2190*
X5782Y2195*
X5771*
X5766Y2190*
Y2174*
Y2184D02*
X5755Y2195D01*
Y2205D02*
Y2216D01*
Y2211*
X5787*
X5782Y2205*
X5787Y2232D02*
Y2253D01*
X5782*
X5761Y2232*
X5755*
X5782Y2263D02*
X5787Y2268D01*
Y2279*
X5782Y2284*
X5761*
X5755Y2279*
Y2268*
X5761Y2263*
X5782*
X5688Y2174D02*
X5720D01*
Y2190*
X5715Y2195*
X5704*
X5699Y2190*
Y2174*
Y2184D02*
X5688Y2195D01*
Y2205D02*
Y2216D01*
Y2211*
X5720*
X5715Y2205*
X5720Y2253D02*
X5715Y2242D01*
X5704Y2232*
X5694*
X5688Y2237*
Y2247*
X5694Y2253*
X5699*
X5704Y2247*
Y2232*
X5694Y2263D02*
X5688Y2268D01*
Y2279*
X5694Y2284*
X5715*
X5720Y2279*
Y2268*
X5715Y2263*
X5709*
X5704Y2268*
Y2284*
X5637Y2174D02*
X5669D01*
Y2190*
X5664Y2195*
X5653*
X5648Y2190*
Y2174*
Y2184D02*
X5637Y2195D01*
Y2205D02*
Y2216D01*
Y2211*
X5669*
X5664Y2205*
X5669Y2253D02*
X5664Y2242D01*
X5653Y2232*
X5643*
X5637Y2237*
Y2247*
X5643Y2253*
X5648*
X5653Y2247*
Y2232*
X5664Y2263D02*
X5669Y2268D01*
Y2279*
X5664Y2284*
X5658*
X5653Y2279*
X5648Y2284*
X5643*
X5637Y2279*
Y2268*
X5643Y2263*
X5648*
X5653Y2268*
X5658Y2263*
X5664*
X5653Y2268D02*
Y2279D01*
X5574Y2174D02*
X5606D01*
Y2190*
X5601Y2195*
X5590*
X5585Y2190*
Y2174*
Y2184D02*
X5574Y2195D01*
Y2205D02*
Y2216D01*
Y2211*
X5606*
X5601Y2205*
X5606Y2253D02*
X5601Y2242D01*
X5590Y2232*
X5580*
X5574Y2237*
Y2247*
X5580Y2253*
X5585*
X5590Y2247*
Y2232*
X5606Y2263D02*
Y2284D01*
X5601*
X5580Y2263*
X5574*
X1829Y3064D02*
Y3096D01*
X1814*
X1808Y3091*
Y3080*
X1814Y3075*
X1829*
X1819D02*
X1808Y3064D01*
X1798D02*
X1787D01*
X1793*
Y3096*
X1798Y3091*
X1751Y3096D02*
X1772D01*
Y3080*
X1761Y3085*
X1756*
X1751Y3080*
Y3070*
X1756Y3064*
X1766*
X1772Y3070*
X1740Y3096D02*
X1719D01*
Y3091*
X1740Y3070*
Y3064*
X3890Y3289D02*
Y3320D01*
X3875*
X3869Y3315*
Y3305*
X3875Y3299*
X3890*
X3880D02*
X3869Y3289D01*
X3859D02*
X3848D01*
X3854*
Y3320*
X3859Y3315*
X3812Y3320D02*
X3833D01*
Y3305*
X3822Y3310*
X3817*
X3812Y3305*
Y3294*
X3817Y3289*
X3827*
X3833Y3294*
X3780Y3320D02*
X3801D01*
Y3305*
X3791Y3310*
X3785*
X3780Y3305*
Y3294*
X3785Y3289*
X3796*
X3801Y3294*
X1829Y3224D02*
Y3255D01*
X1814*
X1808Y3250*
Y3240*
X1814Y3234*
X1829*
X1819D02*
X1808Y3224D01*
X1798D02*
X1787D01*
X1793*
Y3255*
X1798Y3250*
X1751Y3255D02*
X1772D01*
Y3240*
X1761Y3245*
X1756*
X1751Y3240*
Y3229*
X1756Y3224*
X1766*
X1772Y3229*
X1724Y3224D02*
Y3255D01*
X1740Y3240*
X1719*
X1829Y3171D02*
Y3202D01*
X1814*
X1808Y3197*
Y3187*
X1814Y3181*
X1829*
X1819D02*
X1808Y3171D01*
X1798D02*
X1787D01*
X1793*
Y3202*
X1798Y3197*
X1751Y3202D02*
X1772D01*
Y3187*
X1761Y3192*
X1756*
X1751Y3187*
Y3176*
X1756Y3171*
X1766*
X1772Y3176*
X1740Y3197D02*
X1735Y3202D01*
X1724*
X1719Y3197*
Y3192*
X1724Y3187*
X1730*
X1724*
X1719Y3181*
Y3176*
X1724Y3171*
X1735*
X1740Y3176*
X1829Y3118D02*
Y3149D01*
X1814*
X1808Y3144*
Y3133*
X1814Y3128*
X1829*
X1819D02*
X1808Y3118D01*
X1798D02*
X1787D01*
X1793*
Y3149*
X1798Y3144*
X1751Y3149D02*
X1772D01*
Y3133*
X1761Y3139*
X1756*
X1751Y3133*
Y3123*
X1756Y3118*
X1766*
X1772Y3123*
X1719Y3118D02*
X1740D01*
X1719Y3139*
Y3144*
X1724Y3149*
X1735*
X1740Y3144*
X1819Y3011D02*
Y3043D01*
X1803*
X1798Y3038*
Y3027*
X1803Y3022*
X1819*
X1808D02*
X1798Y3011D01*
X1787D02*
X1777D01*
X1782*
Y3043*
X1787Y3038*
X1740Y3043D02*
X1761D01*
Y3027*
X1751Y3032*
X1745*
X1740Y3027*
Y3017*
X1745Y3011*
X1756*
X1761Y3017*
X1730Y3011D02*
X1719D01*
X1724*
Y3043*
X1730Y3038*
X1829Y2958D02*
Y2990D01*
X1814*
X1808Y2984*
Y2974*
X1814Y2969*
X1829*
X1819D02*
X1808Y2958D01*
X1798D02*
X1787D01*
X1793*
Y2990*
X1798Y2984*
X1751Y2990D02*
X1772D01*
Y2974*
X1761Y2979*
X1756*
X1751Y2974*
Y2963*
X1756Y2958*
X1766*
X1772Y2963*
X1740Y2984D02*
X1735Y2990D01*
X1724*
X1719Y2984*
Y2963*
X1724Y2958*
X1735*
X1740Y2963*
Y2984*
X1829Y2905D02*
Y2937D01*
X1814*
X1808Y2931*
Y2921*
X1814Y2916*
X1829*
X1819D02*
X1808Y2905D01*
X1798D02*
X1787D01*
X1793*
Y2937*
X1798Y2931*
X1756Y2905D02*
Y2937D01*
X1772Y2921*
X1751*
X1740Y2910D02*
X1735Y2905D01*
X1724*
X1719Y2910*
Y2931*
X1724Y2937*
X1735*
X1740Y2931*
Y2926*
X1735Y2921*
X1719*
X3803Y3433D02*
X3834D01*
Y3448*
X3829Y3454*
X3818*
X3813Y3448*
Y3433*
Y3443D02*
X3803Y3454D01*
Y3464D02*
Y3475D01*
Y3469*
X3834*
X3829Y3464*
X3803Y3506D02*
X3834D01*
X3818Y3490*
Y3511*
X3829Y3522D02*
X3834Y3527D01*
Y3538*
X3829Y3543*
X3824*
X3818Y3538*
X3813Y3543*
X3808*
X3803Y3538*
Y3527*
X3808Y3522*
X3813*
X3818Y3527*
X3824Y3522*
X3829*
X3818Y3527D02*
Y3538D01*
X4152Y3372D02*
Y3403D01*
X4136*
X4131Y3398*
Y3387*
X4136Y3382*
X4152*
X4142D02*
X4131Y3372D01*
X4121D02*
X4110D01*
X4115*
Y3403*
X4121Y3398*
X4079Y3372D02*
Y3403D01*
X4095Y3387*
X4074*
X4063Y3403D02*
X4042D01*
Y3398*
X4063Y3377*
Y3372*
X3023Y3307D02*
Y3338D01*
X3007*
X3002Y3333*
Y3322*
X3007Y3317*
X3023*
X3013D02*
X3002Y3307D01*
X2992D02*
X2981D01*
X2986*
Y3338*
X2992Y3333*
X2950Y3307D02*
Y3338D01*
X2965Y3322*
X2944*
X2913Y3338D02*
X2923Y3333D01*
X2934Y3322*
Y3312*
X2929Y3307*
X2918*
X2913Y3312*
Y3317*
X2918Y3322*
X2934*
X2892Y3169D02*
Y3200D01*
X2877*
X2871Y3195*
Y3185*
X2877Y3179*
X2892*
X2882D02*
X2871Y3169D01*
X2861D02*
X2850D01*
X2856*
Y3200*
X2861Y3195*
X2819Y3169D02*
Y3200D01*
X2835Y3185*
X2814*
X2787Y3169D02*
Y3200D01*
X2803Y3185*
X2782*
X2750Y3169D02*
Y3200D01*
X2735*
X2729Y3195*
Y3185*
X2735Y3179*
X2750*
X2740D02*
X2729Y3169D01*
X2719D02*
X2708D01*
X2714*
Y3200*
X2719Y3195*
X2677Y3169D02*
Y3200D01*
X2693Y3185*
X2672*
X2661Y3195D02*
X2656Y3200D01*
X2645*
X2640Y3195*
Y3190*
X2645Y3185*
X2651*
X2645*
X2640Y3179*
Y3174*
X2645Y3169*
X2656*
X2661Y3174*
X2892Y3120D02*
Y3151D01*
X2877*
X2871Y3146*
Y3135*
X2877Y3130*
X2892*
X2882D02*
X2871Y3120D01*
X2861D02*
X2850D01*
X2856*
Y3151*
X2861Y3146*
X2835D02*
X2829Y3151D01*
X2819*
X2814Y3146*
Y3141*
X2819Y3135*
X2824*
X2819*
X2814Y3130*
Y3125*
X2819Y3120*
X2829*
X2835Y3125*
X2803D02*
X2798Y3120D01*
X2787*
X2782Y3125*
Y3146*
X2787Y3151*
X2798*
X2803Y3146*
Y3141*
X2798Y3135*
X2782*
X2750Y3120D02*
Y3151D01*
X2735*
X2729Y3146*
Y3135*
X2735Y3130*
X2750*
X2740D02*
X2729Y3120D01*
X2719D02*
X2708D01*
X2714*
Y3151*
X2719Y3146*
X2693D02*
X2687Y3151D01*
X2677*
X2672Y3146*
Y3141*
X2677Y3135*
X2682*
X2677*
X2672Y3130*
Y3125*
X2677Y3120*
X2687*
X2693Y3125*
X2661Y3146D02*
X2656Y3151D01*
X2645*
X2640Y3146*
Y3141*
X2645Y3135*
X2640Y3130*
Y3125*
X2645Y3120*
X2656*
X2661Y3125*
Y3130*
X2656Y3135*
X2661Y3141*
Y3146*
X2656Y3135D02*
X2645D01*
X2541Y3431D02*
Y3462D01*
X2525*
X2520Y3457*
Y3446*
X2525Y3441*
X2541*
X2530D02*
X2520Y3431D01*
X2509D02*
X2499D01*
X2504*
Y3462*
X2509Y3457*
X2483D02*
X2478Y3462D01*
X2467*
X2462Y3457*
Y3452*
X2467Y3446*
X2473*
X2467*
X2462Y3441*
Y3436*
X2467Y3431*
X2478*
X2483Y3436*
X2431Y3462D02*
X2441Y3457D01*
X2452Y3446*
Y3436*
X2446Y3431*
X2436*
X2431Y3436*
Y3441*
X2436Y3446*
X2452*
X2509Y3576D02*
Y3608D01*
X2494*
X2488Y3603*
Y3592*
X2494Y3587*
X2509*
X2499D02*
X2488Y3576D01*
X2478D02*
X2467D01*
X2473*
Y3608*
X2478Y3603*
X2452D02*
X2446Y3608D01*
X2436*
X2431Y3603*
Y3597*
X2436Y3592*
X2441*
X2436*
X2431Y3587*
Y3582*
X2436Y3576*
X2446*
X2452Y3582*
X2399Y3608D02*
X2420D01*
Y3592*
X2410Y3597*
X2404*
X2399Y3592*
Y3582*
X2404Y3576*
X2415*
X2420Y3582*
X4809Y2788D02*
Y2820D01*
X4793*
X4788Y2814*
Y2804*
X4793Y2799*
X4809*
X4799D02*
X4788Y2788D01*
X4778Y2814D02*
X4772Y2820D01*
X4762*
X4757Y2814*
Y2809*
X4762Y2804*
X4757Y2799*
Y2793*
X4762Y2788*
X4772*
X4778Y2793*
Y2799*
X4772Y2804*
X4778Y2809*
Y2814*
X4772Y2804D02*
X4762D01*
X4725Y2788D02*
X4746D01*
X4725Y2809*
Y2814*
X4730Y2820*
X4741*
X4746Y2814*
X4950Y2525D02*
Y2557D01*
X4934*
X4929Y2551*
Y2541*
X4934Y2536*
X4950*
X4939D02*
X4929Y2525D01*
X4918Y2551D02*
X4913Y2557D01*
X4902*
X4897Y2551*
Y2546*
X4902Y2541*
X4897Y2536*
Y2530*
X4902Y2525*
X4913*
X4918Y2530*
Y2536*
X4913Y2541*
X4918Y2546*
Y2551*
X4913Y2541D02*
X4902D01*
X4887Y2525D02*
X4876D01*
X4881*
Y2557*
X4887Y2551*
X4826Y2487D02*
X4858D01*
Y2503*
X4853Y2508*
X4842*
X4837Y2503*
Y2487*
Y2497D02*
X4826Y2508D01*
X4853Y2518D02*
X4858Y2524D01*
Y2534*
X4853Y2539*
X4847*
X4842Y2534*
X4837Y2539*
X4832*
X4826Y2534*
Y2524*
X4832Y2518*
X4837*
X4842Y2524*
X4847Y2518*
X4853*
X4842Y2524D02*
Y2534D01*
X4853Y2550D02*
X4858Y2555D01*
Y2566*
X4853Y2571*
X4832*
X4826Y2566*
Y2555*
X4832Y2550*
X4853*
X4728Y2487D02*
X4759D01*
Y2503*
X4754Y2508*
X4744*
X4738Y2503*
Y2487*
Y2497D02*
X4728Y2508D01*
X4759Y2518D02*
Y2539D01*
X4754*
X4733Y2518*
X4728*
X4733Y2550D02*
X4728Y2555D01*
Y2566*
X4733Y2571*
X4754*
X4759Y2566*
Y2555*
X4754Y2550*
X4749*
X4744Y2555*
Y2571*
X4679Y2487D02*
X4710D01*
Y2503*
X4705Y2508*
X4694*
X4689Y2503*
Y2487*
Y2497D02*
X4679Y2508D01*
X4710Y2518D02*
Y2539D01*
X4705*
X4684Y2518*
X4679*
X4705Y2550D02*
X4710Y2555D01*
Y2566*
X4705Y2571*
X4700*
X4694Y2566*
X4689Y2571*
X4684*
X4679Y2566*
Y2555*
X4684Y2550*
X4689*
X4694Y2555*
X4700Y2550*
X4705*
X4694Y2555D02*
Y2566D01*
X4112Y2694D02*
Y2726D01*
X4097*
X4091Y2721*
Y2710*
X4097Y2705*
X4112*
X4102D02*
X4091Y2694D01*
X4081Y2726D02*
X4060D01*
Y2721*
X4081Y2700*
Y2694*
X4049Y2726D02*
X4028D01*
Y2721*
X4049Y2700*
Y2694*
X5511Y2172D02*
X5543D01*
Y2188*
X5538Y2193*
X5527*
X5522Y2188*
Y2172*
Y2182D02*
X5511Y2193D01*
X5543Y2203D02*
Y2224D01*
X5538*
X5517Y2203*
X5511*
X5543Y2256D02*
X5538Y2245D01*
X5527Y2235*
X5517*
X5511Y2240*
Y2251*
X5517Y2256*
X5522*
X5527Y2251*
Y2235*
X5448Y2172D02*
X5480D01*
Y2188*
X5475Y2193*
X5464*
X5459Y2188*
Y2172*
Y2182D02*
X5448Y2193D01*
X5480Y2203D02*
Y2224D01*
X5475*
X5454Y2203*
X5448*
X5480Y2256D02*
Y2235D01*
X5464*
X5469Y2245*
Y2251*
X5464Y2256*
X5454*
X5448Y2251*
Y2240*
X5454Y2235*
X5445Y2500D02*
Y2531D01*
X5429*
X5424Y2526*
Y2515*
X5429Y2510*
X5445*
X5434D02*
X5424Y2500D01*
X5413Y2531D02*
X5392D01*
Y2526*
X5413Y2505*
Y2500*
X5361D02*
X5382D01*
X5361Y2521*
Y2526*
X5366Y2531*
X5377*
X5382Y2526*
X5434Y2346D02*
Y2377D01*
X5419*
X5413Y2372*
Y2362*
X5419Y2356*
X5434*
X5424D02*
X5413Y2346D01*
X5403Y2377D02*
X5382D01*
Y2372*
X5403Y2351*
Y2346*
X5371D02*
X5361D01*
X5366*
Y2377*
X5371Y2372*
X5937Y1527D02*
Y1559D01*
X5922*
X5916Y1553*
Y1543*
X5922Y1538*
X5937*
X5927D02*
X5916Y1527D01*
X5885Y1559D02*
X5895Y1553D01*
X5906Y1543*
Y1532*
X5901Y1527*
X5890*
X5885Y1532*
Y1538*
X5890Y1543*
X5906*
X5874Y1532D02*
X5869Y1527D01*
X5859*
X5853Y1532*
Y1553*
X5859Y1559*
X5869*
X5874Y1553*
Y1548*
X5869Y1543*
X5853*
X6226Y1759D02*
X6257D01*
Y1774*
X6252Y1780*
X6242*
X6236Y1774*
Y1759*
Y1769D02*
X6226Y1780D01*
X6257Y1811D02*
Y1790D01*
X6242*
X6247Y1801*
Y1806*
X6242Y1811*
X6231*
X6226Y1806*
Y1795*
X6231Y1790*
X6257Y1822D02*
Y1843D01*
X6252*
X6231Y1822*
X6226*
X6475Y1795D02*
Y1826D01*
X6459*
X6454Y1821*
Y1811*
X6459Y1805*
X6475*
X6464D02*
X6454Y1795D01*
X6422Y1826D02*
X6443D01*
Y1811*
X6433Y1816*
X6427*
X6422Y1811*
Y1800*
X6427Y1795*
X6438*
X6443Y1800*
X6391Y1826D02*
X6401Y1821D01*
X6412Y1811*
Y1800*
X6406Y1795*
X6396*
X6391Y1800*
Y1805*
X6396Y1811*
X6412*
X1283Y961D02*
X1314D01*
Y977*
X1309Y982*
X1299*
X1293Y977*
Y961*
Y972D02*
X1283Y982D01*
X1314Y1014D02*
Y993D01*
X1299*
X1304Y1003*
Y1009*
X1299Y1014*
X1288*
X1283Y1009*
Y998*
X1288Y993*
X1283Y1040D02*
X1314D01*
X1299Y1024*
Y1045*
X5853Y2803D02*
Y2834D01*
X5837*
X5832Y2829*
Y2818*
X5837Y2813*
X5853*
X5842D02*
X5832Y2803D01*
X5805D02*
Y2834D01*
X5821Y2818*
X5800*
X5790Y2834D02*
X5769D01*
Y2829*
X5790Y2808*
Y2803*
X3314Y2339D02*
X3346D01*
Y2355*
X3341Y2360*
X3330*
X3325Y2355*
Y2339*
Y2350D02*
X3314Y2360D01*
Y2387D02*
X3346D01*
X3330Y2371*
Y2392*
X3346Y2423D02*
X3341Y2413D01*
X3330Y2402*
X3320*
X3314Y2408*
Y2418*
X3320Y2423*
X3325*
X3330Y2418*
Y2402*
X3314Y2448D02*
X3346D01*
Y2463*
X3341Y2469*
X3330*
X3325Y2463*
Y2448*
Y2458D02*
X3314Y2469D01*
Y2495D02*
X3346D01*
X3330Y2479*
Y2500*
X3346Y2532D02*
Y2511D01*
X3330*
X3335Y2521*
Y2526*
X3330Y2532*
X3320*
X3314Y2526*
Y2516*
X3320Y2511*
X3265Y2339D02*
X3297D01*
Y2355*
X3291Y2360*
X3281*
X3276Y2355*
Y2339*
Y2350D02*
X3265Y2360D01*
Y2387D02*
X3297D01*
X3281Y2371*
Y2392*
X3265Y2418D02*
X3297D01*
X3281Y2402*
Y2423*
X3265Y2448D02*
X3297D01*
Y2463*
X3291Y2469*
X3281*
X3276Y2463*
Y2448*
Y2458D02*
X3265Y2469D01*
Y2495D02*
X3297D01*
X3281Y2479*
Y2500*
X3291Y2511D02*
X3297Y2516D01*
Y2526*
X3291Y2532*
X3286*
X3281Y2526*
Y2521*
Y2526*
X3276Y2532*
X3271*
X3265Y2526*
Y2516*
X3271Y2511*
X5196Y1877D02*
X5228D01*
Y1893*
X5223Y1898*
X5212*
X5207Y1893*
Y1877*
Y1887D02*
X5196Y1898D01*
Y1929D02*
Y1908D01*
X5217Y1929*
X5223*
X5228Y1924*
Y1914*
X5223Y1908*
Y1940D02*
X5228Y1945D01*
Y1956*
X5223Y1961*
X5217*
X5212Y1956*
X5207Y1961*
X5202*
X5196Y1956*
Y1945*
X5202Y1940*
X5207*
X5212Y1945*
X5217Y1940*
X5223*
X5212Y1945D02*
Y1956D01*
X6449Y2944D02*
Y2976D01*
X6433*
X6428Y2971*
Y2960*
X6433Y2955*
X6449*
X6438D02*
X6428Y2944D01*
X6396D02*
X6417D01*
X6396Y2965*
Y2971*
X6402Y2976*
X6412*
X6417Y2971*
X6365Y2944D02*
X6386D01*
X6365Y2965*
Y2971*
X6370Y2976*
X6381*
X6386Y2971*
X6444Y2998D02*
Y3029D01*
X6428*
X6423Y3024*
Y3013*
X6428Y3008*
X6444*
X6433D02*
X6423Y2998D01*
X6412D02*
X6402D01*
X6407*
Y3029*
X6412Y3024*
X6386Y3003D02*
X6381Y2998D01*
X6370*
X6365Y3003*
Y3024*
X6370Y3029*
X6381*
X6386Y3024*
Y3019*
X6381Y3013*
X6365*
X6444Y3051D02*
Y3082D01*
X6428*
X6423Y3077*
Y3066*
X6428Y3061*
X6444*
X6433D02*
X6423Y3051D01*
X6412D02*
X6402D01*
X6407*
Y3082*
X6412Y3077*
X6386D02*
X6381Y3082D01*
X6370*
X6365Y3077*
Y3072*
X6370Y3066*
X6365Y3061*
Y3056*
X6370Y3051*
X6381*
X6386Y3056*
Y3061*
X6381Y3066*
X6386Y3072*
Y3077*
X6381Y3066D02*
X6370D01*
X6310Y2834D02*
Y2866D01*
X6294*
X6289Y2860*
Y2850*
X6294Y2845*
X6310*
X6299D02*
X6289Y2834D01*
X6278D02*
X6268D01*
X6273*
Y2866*
X6278Y2860*
X6236Y2834D02*
Y2866D01*
X6252Y2850*
X6231*
X6511Y2801D02*
X6480D01*
Y2785*
X6485Y2780*
X6496*
X6501Y2785*
Y2801*
Y2790D02*
X6511Y2780D01*
Y2769D02*
Y2759D01*
Y2764*
X6480*
X6485Y2769*
Y2743D02*
X6480Y2738D01*
Y2727*
X6485Y2722*
X6490*
X6496Y2727*
Y2732*
Y2727*
X6501Y2722*
X6506*
X6511Y2727*
Y2738*
X6506Y2743*
X6354Y1889D02*
Y1921D01*
X6338*
X6333Y1916*
Y1905*
X6338Y1900*
X6354*
X6343D02*
X6333Y1889D01*
X6322D02*
X6312D01*
X6317*
Y1921*
X6322Y1916*
X6275Y1889D02*
X6296D01*
X6275Y1910*
Y1916*
X6280Y1921*
X6291*
X6296Y1916*
X6299Y2785D02*
Y2816D01*
X6283*
X6278Y2811*
Y2801*
X6283Y2795*
X6299*
X6289D02*
X6278Y2785D01*
X6268D02*
X6257D01*
X6262*
Y2816*
X6268Y2811*
X6241Y2785D02*
X6231D01*
X6236*
Y2816*
X6241Y2811*
X4970Y4201D02*
Y4180D01*
X4954*
Y4190*
Y4180*
X4938*
X4970Y4211D02*
X4938D01*
Y4227*
X4944Y4232*
X4949*
X4954Y4227*
Y4211*
Y4227*
X4959Y4232*
X4965*
X4970Y4227*
Y4211*
X4938Y4264D02*
Y4243D01*
X4959Y4264*
X4965*
X4970Y4259*
Y4248*
X4965Y4243*
X1129Y3714D02*
X1150D01*
Y3698*
X1140*
X1150*
Y3683*
X1119Y3714D02*
Y3683D01*
X1103*
X1098Y3688*
Y3693*
X1103Y3698*
X1119*
X1103*
X1098Y3704*
Y3709*
X1103Y3714*
X1119*
X1087Y3683D02*
X1077D01*
X1082*
Y3714*
X1087Y3709*
X6208Y888D02*
X6240D01*
Y872*
X6234Y867*
X6213*
X6208Y872*
Y888*
Y835D02*
Y856D01*
X6224*
X6219Y846*
Y841*
X6224Y835*
X6234*
X6240Y841*
Y851*
X6234Y856*
X6090Y888D02*
X6122D01*
Y872*
X6116Y867*
X6095*
X6090Y872*
Y888*
X6122Y841D02*
X6090D01*
X6106Y856*
Y835*
X2667Y2129D02*
X2673Y2124D01*
Y2113*
X2667Y2108*
X2646*
X2641Y2113*
Y2124*
X2646Y2129*
X2667Y2139D02*
X2673Y2145D01*
Y2155*
X2667Y2160*
X2662*
X2657Y2155*
Y2150*
Y2155*
X2652Y2160*
X2646*
X2641Y2155*
Y2145*
X2646Y2139*
X2641Y2171D02*
Y2181D01*
Y2176*
X2673*
X2667Y2171*
X2641Y2218D02*
Y2197D01*
X2662Y2218*
X2667*
X2673Y2213*
Y2202*
X2667Y2197*
X2863Y2404D02*
X2868Y2409D01*
X2879*
X2884Y2404*
Y2383*
X2879Y2377*
X2868*
X2863Y2383*
X2853Y2404D02*
X2847Y2409D01*
X2837*
X2832Y2404*
Y2398*
X2837Y2393*
X2842*
X2837*
X2832Y2388*
Y2383*
X2837Y2377*
X2847*
X2853Y2383*
X2821Y2377D02*
X2811D01*
X2816*
Y2409*
X2821Y2404*
X2795Y2377D02*
X2784D01*
X2790*
Y2409*
X2795Y2404*
X2996D02*
X3001Y2409D01*
X3012*
X3017Y2404*
Y2383*
X3012Y2377*
X3001*
X2996Y2383*
X2986Y2404D02*
X2980Y2409D01*
X2970*
X2965Y2404*
Y2398*
X2970Y2393*
X2975*
X2970*
X2965Y2388*
Y2383*
X2970Y2377*
X2980*
X2986Y2383*
X2954Y2377D02*
X2944D01*
X2949*
Y2409*
X2954Y2404*
X2928D02*
X2923Y2409D01*
X2912*
X2907Y2404*
Y2383*
X2912Y2377*
X2923*
X2928Y2383*
Y2404*
X2999Y2453D02*
X3004Y2458D01*
X3015*
X3020Y2453*
Y2432*
X3015Y2427*
X3004*
X2999Y2432*
X2988Y2453D02*
X2983Y2458D01*
X2973*
X2967Y2453*
Y2448*
X2973Y2442*
X2978*
X2973*
X2967Y2437*
Y2432*
X2973Y2427*
X2983*
X2988Y2432*
X2957Y2453D02*
X2952Y2458D01*
X2941*
X2936Y2453*
Y2432*
X2941Y2427*
X2952*
X2957Y2432*
Y2453*
X2925Y2432D02*
X2920Y2427D01*
X2910*
X2904Y2432*
Y2453*
X2910Y2458*
X2920*
X2925Y2453*
Y2448*
X2920Y2442*
X2904*
X2963Y1988D02*
X2968Y1983D01*
Y1973*
X2963Y1967*
X2942*
X2937Y1973*
Y1983*
X2942Y1988*
X2963Y1999D02*
X2968Y2004D01*
Y2015*
X2963Y2020*
X2958*
X2952Y2015*
Y2009*
Y2015*
X2947Y2020*
X2942*
X2937Y2015*
Y2004*
X2942Y1999*
X2963Y2030D02*
X2968Y2036D01*
Y2046*
X2963Y2051*
X2942*
X2937Y2046*
Y2036*
X2942Y2030*
X2963*
Y2062D02*
X2968Y2067D01*
Y2078*
X2963Y2083*
X2958*
X2952Y2078*
X2947Y2083*
X2942*
X2937Y2078*
Y2067*
X2942Y2062*
X2947*
X2952Y2067*
X2958Y2062*
X2963*
X2952Y2067D02*
Y2078D01*
X2914Y1988D02*
X2919Y1983D01*
Y1973*
X2914Y1967*
X2893*
X2887Y1973*
Y1983*
X2893Y1988*
X2914Y1999D02*
X2919Y2004D01*
Y2015*
X2914Y2020*
X2908*
X2903Y2015*
Y2009*
Y2015*
X2898Y2020*
X2893*
X2887Y2015*
Y2004*
X2893Y1999*
X2914Y2030D02*
X2919Y2036D01*
Y2046*
X2914Y2051*
X2893*
X2887Y2046*
Y2036*
X2893Y2030*
X2914*
X2919Y2062D02*
Y2083D01*
X2914*
X2893Y2062*
X2887*
X2864Y1988D02*
X2870Y1983D01*
Y1973*
X2864Y1967*
X2843*
X2838Y1973*
Y1983*
X2843Y1988*
X2864Y1999D02*
X2870Y2004D01*
Y2015*
X2864Y2020*
X2859*
X2854Y2015*
Y2009*
Y2015*
X2849Y2020*
X2843*
X2838Y2015*
Y2004*
X2843Y1999*
X2864Y2030D02*
X2870Y2036D01*
Y2046*
X2864Y2051*
X2843*
X2838Y2046*
Y2036*
X2843Y2030*
X2864*
X2870Y2083D02*
X2864Y2072D01*
X2854Y2062*
X2843*
X2838Y2067*
Y2078*
X2843Y2083*
X2849*
X2854Y2078*
Y2062*
X2815Y1988D02*
X2820Y1983D01*
Y1973*
X2815Y1967*
X2794*
X2789Y1973*
Y1983*
X2794Y1988*
X2815Y1999D02*
X2820Y2004D01*
Y2015*
X2815Y2020*
X2810*
X2805Y2015*
Y2009*
Y2015*
X2799Y2020*
X2794*
X2789Y2015*
Y2004*
X2794Y1999*
X2815Y2030D02*
X2820Y2036D01*
Y2046*
X2815Y2051*
X2794*
X2789Y2046*
Y2036*
X2794Y2030*
X2815*
X2820Y2083D02*
Y2062D01*
X2805*
X2810Y2072*
Y2078*
X2805Y2083*
X2794*
X2789Y2078*
Y2067*
X2794Y2062*
X2766Y2126D02*
X2771Y2121D01*
Y2110*
X2766Y2105*
X2745*
X2740Y2110*
Y2121*
X2745Y2126*
X2766Y2137D02*
X2771Y2142D01*
Y2152*
X2766Y2158*
X2761*
X2755Y2152*
Y2147*
Y2152*
X2750Y2158*
X2745*
X2740Y2152*
Y2142*
X2745Y2137*
X2766Y2168D02*
X2771Y2173D01*
Y2184*
X2766Y2189*
X2745*
X2740Y2184*
Y2173*
X2745Y2168*
X2766*
X2740Y2215D02*
X2771D01*
X2755Y2200*
Y2221*
X2815Y2126D02*
X2820Y2121D01*
Y2110*
X2815Y2105*
X2794*
X2789Y2110*
Y2121*
X2794Y2126*
X2815Y2137D02*
X2820Y2142D01*
Y2152*
X2815Y2158*
X2810*
X2805Y2152*
Y2147*
Y2152*
X2799Y2158*
X2794*
X2789Y2152*
Y2142*
X2794Y2137*
X2815Y2168D02*
X2820Y2173D01*
Y2184*
X2815Y2189*
X2794*
X2789Y2184*
Y2173*
X2794Y2168*
X2815*
Y2200D02*
X2820Y2205D01*
Y2215*
X2815Y2221*
X2810*
X2805Y2215*
Y2210*
Y2215*
X2799Y2221*
X2794*
X2789Y2215*
Y2205*
X2794Y2200*
X2864Y2126D02*
X2870Y2121D01*
Y2110*
X2864Y2105*
X2843*
X2838Y2110*
Y2121*
X2843Y2126*
X2864Y2137D02*
X2870Y2142D01*
Y2152*
X2864Y2158*
X2859*
X2854Y2152*
Y2147*
Y2152*
X2849Y2158*
X2843*
X2838Y2152*
Y2142*
X2843Y2137*
X2864Y2168D02*
X2870Y2173D01*
Y2184*
X2864Y2189*
X2843*
X2838Y2184*
Y2173*
X2843Y2168*
X2864*
X2838Y2221D02*
Y2200D01*
X2859Y2221*
X2864*
X2870Y2215*
Y2205*
X2864Y2200*
X2914Y2131D02*
X2919Y2126D01*
Y2116*
X2914Y2110*
X2893*
X2887Y2116*
Y2126*
X2893Y2131*
X2914Y2142D02*
X2919Y2147D01*
Y2158*
X2914Y2163*
X2908*
X2903Y2158*
Y2152*
Y2158*
X2898Y2163*
X2893*
X2887Y2158*
Y2147*
X2893Y2142*
X2914Y2173D02*
X2919Y2179D01*
Y2189*
X2914Y2194*
X2893*
X2887Y2189*
Y2179*
X2893Y2173*
X2914*
X2887Y2205D02*
Y2215D01*
Y2210*
X2919*
X2914Y2205*
X2717Y2126D02*
X2722Y2121D01*
Y2110*
X2717Y2105*
X2696*
X2690Y2110*
Y2121*
X2696Y2126*
X2717Y2137D02*
X2722Y2142D01*
Y2152*
X2717Y2158*
X2711*
X2706Y2152*
Y2147*
Y2152*
X2701Y2158*
X2696*
X2690Y2152*
Y2142*
X2696Y2137*
X2717Y2168D02*
X2722Y2173D01*
Y2184*
X2717Y2189*
X2696*
X2690Y2184*
Y2173*
X2696Y2168*
X2717*
Y2200D02*
X2722Y2205D01*
Y2215*
X2717Y2221*
X2696*
X2690Y2215*
Y2205*
X2696Y2200*
X2717*
X2766Y1988D02*
X2771Y1983D01*
Y1973*
X2766Y1967*
X2745*
X2740Y1973*
Y1983*
X2745Y1988*
X2740Y2020D02*
Y1999D01*
X2761Y2020*
X2766*
X2771Y2015*
Y2004*
X2766Y1999*
X2745Y2030D02*
X2740Y2036D01*
Y2046*
X2745Y2051*
X2766*
X2771Y2046*
Y2036*
X2766Y2030*
X2761*
X2755Y2036*
Y2051*
X2745Y2062D02*
X2740Y2067D01*
Y2078*
X2745Y2083*
X2766*
X2771Y2078*
Y2067*
X2766Y2062*
X2761*
X2755Y2067*
Y2083*
X2717Y1988D02*
X2722Y1983D01*
Y1973*
X2717Y1967*
X2696*
X2690Y1973*
Y1983*
X2696Y1988*
X2690Y2020D02*
Y1999D01*
X2711Y2020*
X2717*
X2722Y2015*
Y2004*
X2717Y1999*
X2696Y2030D02*
X2690Y2036D01*
Y2046*
X2696Y2051*
X2717*
X2722Y2046*
Y2036*
X2717Y2030*
X2711*
X2706Y2036*
Y2051*
X2717Y2062D02*
X2722Y2067D01*
Y2078*
X2717Y2083*
X2711*
X2706Y2078*
X2701Y2083*
X2696*
X2690Y2078*
Y2067*
X2696Y2062*
X2701*
X2706Y2067*
X2711Y2062*
X2717*
X2706Y2067D02*
Y2078D01*
X3012Y1988D02*
X3017Y1983D01*
Y1973*
X3012Y1967*
X2991*
X2986Y1973*
Y1983*
X2991Y1988*
X2986Y2020D02*
Y1999D01*
X3007Y2020*
X3012*
X3017Y2015*
Y2004*
X3012Y1999*
X2991Y2030D02*
X2986Y2036D01*
Y2046*
X2991Y2051*
X3012*
X3017Y2046*
Y2036*
X3012Y2030*
X3007*
X3001Y2036*
Y2051*
X3017Y2062D02*
Y2083D01*
X3012*
X2991Y2062*
X2986*
X2421Y2126D02*
X2427Y2121D01*
Y2110*
X2421Y2105*
X2400*
X2395Y2110*
Y2121*
X2400Y2126*
X2395Y2158D02*
Y2137D01*
X2416Y2158*
X2421*
X2427Y2152*
Y2142*
X2421Y2137*
X2400Y2168D02*
X2395Y2173D01*
Y2184*
X2400Y2189*
X2421*
X2427Y2184*
Y2173*
X2421Y2168*
X2416*
X2411Y2173*
Y2189*
X2427Y2221D02*
X2421Y2210D01*
X2411Y2200*
X2400*
X2395Y2205*
Y2215*
X2400Y2221*
X2406*
X2411Y2215*
Y2200*
X2471Y2126D02*
X2476Y2121D01*
Y2110*
X2471Y2105*
X2450*
X2444Y2110*
Y2121*
X2450Y2126*
X2444Y2158D02*
Y2137D01*
X2465Y2158*
X2471*
X2476Y2152*
Y2142*
X2471Y2137*
X2450Y2168D02*
X2444Y2173D01*
Y2184*
X2450Y2189*
X2471*
X2476Y2184*
Y2173*
X2471Y2168*
X2465*
X2460Y2173*
Y2189*
X2476Y2221D02*
Y2200D01*
X2460*
X2465Y2210*
Y2215*
X2460Y2221*
X2450*
X2444Y2215*
Y2205*
X2450Y2200*
X2520Y2126D02*
X2525Y2121D01*
Y2110*
X2520Y2105*
X2499*
X2494Y2110*
Y2121*
X2499Y2126*
X2494Y2158D02*
Y2137D01*
X2515Y2158*
X2520*
X2525Y2152*
Y2142*
X2520Y2137*
X2499Y2168D02*
X2494Y2173D01*
Y2184*
X2499Y2189*
X2520*
X2525Y2184*
Y2173*
X2520Y2168*
X2515*
X2509Y2173*
Y2189*
X2494Y2215D02*
X2525D01*
X2509Y2200*
Y2221*
X2471Y1851D02*
X2476Y1845D01*
Y1835*
X2471Y1830*
X2450*
X2444Y1835*
Y1845*
X2450Y1851*
X2444Y1882D02*
Y1861D01*
X2465Y1882*
X2471*
X2476Y1877*
Y1866*
X2471Y1861*
X2450Y1893D02*
X2444Y1898D01*
Y1908*
X2450Y1914*
X2471*
X2476Y1908*
Y1898*
X2471Y1893*
X2465*
X2460Y1898*
Y1914*
X2471Y1924D02*
X2476Y1929D01*
Y1940*
X2471Y1945*
X2465*
X2460Y1940*
Y1935*
Y1940*
X2455Y1945*
X2450*
X2444Y1940*
Y1929*
X2450Y1924*
X2520Y1851D02*
X2525Y1845D01*
Y1835*
X2520Y1830*
X2499*
X2494Y1835*
Y1845*
X2499Y1851*
X2494Y1882D02*
Y1861D01*
X2515Y1882*
X2520*
X2525Y1877*
Y1866*
X2520Y1861*
X2499Y1893D02*
X2494Y1898D01*
Y1908*
X2499Y1914*
X2520*
X2525Y1908*
Y1898*
X2520Y1893*
X2515*
X2509Y1898*
Y1914*
X2494Y1945D02*
Y1924D01*
X2515Y1945*
X2520*
X2525Y1940*
Y1929*
X2520Y1924*
X2569Y1856D02*
X2574Y1851D01*
Y1840*
X2569Y1835*
X2548*
X2543Y1840*
Y1851*
X2548Y1856*
X2543Y1887D02*
Y1866D01*
X2564Y1887*
X2569*
X2574Y1882*
Y1872*
X2569Y1866*
X2548Y1898D02*
X2543Y1903D01*
Y1914*
X2548Y1919*
X2569*
X2574Y1914*
Y1903*
X2569Y1898*
X2564*
X2559Y1903*
Y1919*
X2543Y1929D02*
Y1940D01*
Y1935*
X2574*
X2569Y1929*
X2618Y1851D02*
X2624Y1845D01*
Y1835*
X2618Y1830*
X2597*
X2592Y1835*
Y1845*
X2597Y1851*
X2592Y1882D02*
Y1861D01*
X2613Y1882*
X2618*
X2624Y1877*
Y1866*
X2618Y1861*
X2597Y1893D02*
X2592Y1898D01*
Y1908*
X2597Y1914*
X2618*
X2624Y1908*
Y1898*
X2618Y1893*
X2613*
X2608Y1898*
Y1914*
X2618Y1924D02*
X2624Y1929D01*
Y1940*
X2618Y1945*
X2597*
X2592Y1940*
Y1929*
X2597Y1924*
X2618*
X2667Y1851D02*
X2673Y1845D01*
Y1835*
X2667Y1830*
X2646*
X2641Y1835*
Y1845*
X2646Y1851*
X2641Y1882D02*
Y1861D01*
X2662Y1882*
X2667*
X2673Y1877*
Y1866*
X2667Y1861*
Y1893D02*
X2673Y1898D01*
Y1908*
X2667Y1914*
X2662*
X2657Y1908*
X2652Y1914*
X2646*
X2641Y1908*
Y1898*
X2646Y1893*
X2652*
X2657Y1898*
X2662Y1893*
X2667*
X2657Y1898D02*
Y1908D01*
X2646Y1924D02*
X2641Y1929D01*
Y1940*
X2646Y1945*
X2667*
X2673Y1940*
Y1929*
X2667Y1924*
X2662*
X2657Y1929*
Y1945*
X2421Y1851D02*
X2427Y1845D01*
Y1835*
X2421Y1830*
X2400*
X2395Y1835*
Y1845*
X2400Y1851*
X2395Y1882D02*
Y1861D01*
X2416Y1882*
X2421*
X2427Y1877*
Y1866*
X2421Y1861*
Y1893D02*
X2427Y1898D01*
Y1908*
X2421Y1914*
X2416*
X2411Y1908*
X2406Y1914*
X2400*
X2395Y1908*
Y1898*
X2400Y1893*
X2406*
X2411Y1898*
X2416Y1893*
X2421*
X2411Y1898D02*
Y1908D01*
X2421Y1924D02*
X2427Y1929D01*
Y1940*
X2421Y1945*
X2416*
X2411Y1940*
X2406Y1945*
X2400*
X2395Y1940*
Y1929*
X2400Y1924*
X2406*
X2411Y1929*
X2416Y1924*
X2421*
X2411Y1929D02*
Y1940D01*
X2372Y1851D02*
X2377Y1845D01*
Y1835*
X2372Y1830*
X2351*
X2346Y1835*
Y1845*
X2351Y1851*
X2346Y1882D02*
Y1861D01*
X2367Y1882*
X2372*
X2377Y1877*
Y1866*
X2372Y1861*
Y1893D02*
X2377Y1898D01*
Y1908*
X2372Y1914*
X2367*
X2362Y1908*
X2356Y1914*
X2351*
X2346Y1908*
Y1898*
X2351Y1893*
X2356*
X2362Y1898*
X2367Y1893*
X2372*
X2362Y1898D02*
Y1908D01*
X2377Y1924D02*
Y1945D01*
X2372*
X2351Y1924*
X2346*
X2569Y1988D02*
X2574Y1983D01*
Y1973*
X2569Y1967*
X2548*
X2543Y1973*
Y1983*
X2548Y1988*
X2543Y2020D02*
Y1999D01*
X2564Y2020*
X2569*
X2574Y2015*
Y2004*
X2569Y1999*
Y2030D02*
X2574Y2036D01*
Y2046*
X2569Y2051*
X2564*
X2559Y2046*
X2553Y2051*
X2548*
X2543Y2046*
Y2036*
X2548Y2030*
X2553*
X2559Y2036*
X2564Y2030*
X2569*
X2559Y2036D02*
Y2046D01*
X2574Y2083D02*
X2569Y2072D01*
X2559Y2062*
X2548*
X2543Y2067*
Y2078*
X2548Y2083*
X2553*
X2559Y2078*
Y2062*
X2520Y1988D02*
X2525Y1983D01*
Y1973*
X2520Y1967*
X2499*
X2494Y1973*
Y1983*
X2499Y1988*
X2494Y2020D02*
Y1999D01*
X2515Y2020*
X2520*
X2525Y2015*
Y2004*
X2520Y1999*
Y2030D02*
X2525Y2036D01*
Y2046*
X2520Y2051*
X2515*
X2509Y2046*
X2504Y2051*
X2499*
X2494Y2046*
Y2036*
X2499Y2030*
X2504*
X2509Y2036*
X2515Y2030*
X2520*
X2509Y2036D02*
Y2046D01*
X2525Y2083D02*
Y2062D01*
X2509*
X2515Y2072*
Y2078*
X2509Y2083*
X2499*
X2494Y2078*
Y2067*
X2499Y2062*
X2595Y2126D02*
X2600Y2121D01*
Y2110*
X2595Y2105*
X2574*
X2568Y2110*
Y2121*
X2574Y2126*
X2568Y2158D02*
Y2137D01*
X2589Y2158*
X2595*
X2600Y2152*
Y2142*
X2595Y2137*
Y2168D02*
X2600Y2173D01*
Y2184*
X2595Y2189*
X2589*
X2584Y2184*
X2579Y2189*
X2574*
X2568Y2184*
Y2173*
X2574Y2168*
X2579*
X2584Y2173*
X2589Y2168*
X2595*
X2584Y2173D02*
Y2184D01*
X2568Y2215D02*
X2600D01*
X2584Y2200*
Y2221*
X2372Y1988D02*
X2377Y1983D01*
Y1973*
X2372Y1967*
X2351*
X2346Y1973*
Y1983*
X2351Y1988*
X2346Y2020D02*
Y1999D01*
X2367Y2020*
X2372*
X2377Y2015*
Y2004*
X2372Y1999*
Y2030D02*
X2377Y2036D01*
Y2046*
X2372Y2051*
X2367*
X2362Y2046*
X2356Y2051*
X2351*
X2346Y2046*
Y2036*
X2351Y2030*
X2356*
X2362Y2036*
X2367Y2030*
X2372*
X2362Y2036D02*
Y2046D01*
X2372Y2062D02*
X2377Y2067D01*
Y2078*
X2372Y2083*
X2367*
X2362Y2078*
Y2072*
Y2078*
X2356Y2083*
X2351*
X2346Y2078*
Y2067*
X2351Y2062*
X2471Y1988D02*
X2476Y1983D01*
Y1973*
X2471Y1967*
X2450*
X2444Y1973*
Y1983*
X2450Y1988*
X2444Y2020D02*
Y1999D01*
X2465Y2020*
X2471*
X2476Y2015*
Y2004*
X2471Y1999*
Y2030D02*
X2476Y2036D01*
Y2046*
X2471Y2051*
X2465*
X2460Y2046*
X2455Y2051*
X2450*
X2444Y2046*
Y2036*
X2450Y2030*
X2455*
X2460Y2036*
X2465Y2030*
X2471*
X2460Y2036D02*
Y2046D01*
X2444Y2083D02*
Y2062D01*
X2465Y2083*
X2471*
X2476Y2078*
Y2067*
X2471Y2062*
X2421Y1994D02*
X2427Y1988D01*
Y1978*
X2421Y1973*
X2400*
X2395Y1978*
Y1988*
X2400Y1994*
X2395Y2025D02*
Y2004D01*
X2416Y2025*
X2421*
X2427Y2020*
Y2009*
X2421Y2004*
Y2036D02*
X2427Y2041D01*
Y2051*
X2421Y2057*
X2416*
X2411Y2051*
X2406Y2057*
X2400*
X2395Y2051*
Y2041*
X2400Y2036*
X2406*
X2411Y2041*
X2416Y2036*
X2421*
X2411Y2041D02*
Y2051D01*
X2395Y2067D02*
Y2078D01*
Y2072*
X2427*
X2421Y2067*
X3012Y2126D02*
X3017Y2121D01*
Y2110*
X3012Y2105*
X2991*
X2986Y2110*
Y2121*
X2991Y2126*
X2986Y2158D02*
Y2137D01*
X3007Y2158*
X3012*
X3017Y2152*
Y2142*
X3012Y2137*
Y2168D02*
X3017Y2173D01*
Y2184*
X3012Y2189*
X3007*
X3001Y2184*
X2996Y2189*
X2991*
X2986Y2184*
Y2173*
X2991Y2168*
X2996*
X3001Y2173*
X3007Y2168*
X3012*
X3001Y2173D02*
Y2184D01*
X3012Y2200D02*
X3017Y2205D01*
Y2215*
X3012Y2221*
X2991*
X2986Y2215*
Y2205*
X2991Y2200*
X3012*
X2618Y2264D02*
X2624Y2259D01*
Y2248*
X2618Y2243*
X2597*
X2592Y2248*
Y2259*
X2597Y2264*
X2592Y2295D02*
Y2274D01*
X2613Y2295*
X2618*
X2624Y2290*
Y2280*
X2618Y2274*
X2624Y2306D02*
Y2327D01*
X2618*
X2597Y2306*
X2592*
X2597Y2337D02*
X2592Y2343D01*
Y2353*
X2597Y2358*
X2618*
X2624Y2353*
Y2343*
X2618Y2337*
X2613*
X2608Y2343*
Y2358*
X2520Y2264D02*
X2525Y2259D01*
Y2248*
X2520Y2243*
X2499*
X2494Y2248*
Y2259*
X2499Y2264*
X2494Y2295D02*
Y2274D01*
X2515Y2295*
X2520*
X2525Y2290*
Y2280*
X2520Y2274*
X2525Y2306D02*
Y2327D01*
X2520*
X2499Y2306*
X2494*
X2520Y2337D02*
X2525Y2343D01*
Y2353*
X2520Y2358*
X2515*
X2509Y2353*
X2504Y2358*
X2499*
X2494Y2353*
Y2343*
X2499Y2337*
X2504*
X2509Y2343*
X2515Y2337*
X2520*
X2509Y2343D02*
Y2353D01*
X2471Y2264D02*
X2476Y2259D01*
Y2248*
X2471Y2243*
X2450*
X2444Y2248*
Y2259*
X2450Y2264*
X2444Y2295D02*
Y2274D01*
X2465Y2295*
X2471*
X2476Y2290*
Y2280*
X2471Y2274*
X2476Y2306D02*
Y2327D01*
X2471*
X2450Y2306*
X2444*
X2476Y2337D02*
Y2358D01*
X2471*
X2450Y2337*
X2444*
X3139Y2449D02*
X3144Y2454D01*
X3154*
X3160Y2449*
Y2428*
X3154Y2423*
X3144*
X3139Y2428*
X3107Y2423D02*
X3128D01*
X3107Y2444*
Y2449*
X3112Y2454*
X3123*
X3128Y2449*
X3097Y2454D02*
X3076D01*
Y2449*
X3097Y2428*
Y2423*
X3044Y2454D02*
X3055Y2449D01*
X3065Y2438*
Y2428*
X3060Y2423*
X3049*
X3044Y2428*
Y2433*
X3049Y2438*
X3065*
X2963Y2264D02*
X2968Y2259D01*
Y2248*
X2963Y2243*
X2942*
X2937Y2248*
Y2259*
X2942Y2264*
X2937Y2295D02*
Y2274D01*
X2958Y2295*
X2963*
X2968Y2290*
Y2280*
X2963Y2274*
X2968Y2306D02*
Y2327D01*
X2963*
X2942Y2306*
X2937*
X2968Y2358D02*
Y2337D01*
X2952*
X2958Y2348*
Y2353*
X2952Y2358*
X2942*
X2937Y2353*
Y2343*
X2942Y2337*
X2569Y2264D02*
X2574Y2259D01*
Y2248*
X2569Y2243*
X2548*
X2543Y2248*
Y2259*
X2548Y2264*
X2543Y2295D02*
Y2274D01*
X2564Y2295*
X2569*
X2574Y2290*
Y2280*
X2569Y2274*
X2574Y2306D02*
Y2327D01*
X2569*
X2548Y2306*
X2543*
Y2353D02*
X2574D01*
X2559Y2337*
Y2358*
X2421Y2264D02*
X2427Y2259D01*
Y2248*
X2421Y2243*
X2400*
X2395Y2248*
Y2259*
X2400Y2264*
X2395Y2295D02*
Y2274D01*
X2416Y2295*
X2421*
X2427Y2290*
Y2280*
X2421Y2274*
X2427Y2306D02*
Y2327D01*
X2421*
X2400Y2306*
X2395*
X2421Y2337D02*
X2427Y2343D01*
Y2353*
X2421Y2358*
X2416*
X2411Y2353*
Y2348*
Y2353*
X2406Y2358*
X2400*
X2395Y2353*
Y2343*
X2400Y2337*
X2667Y2264D02*
X2673Y2259D01*
Y2248*
X2667Y2243*
X2646*
X2641Y2248*
Y2259*
X2646Y2264*
X2641Y2295D02*
Y2274D01*
X2662Y2295*
X2667*
X2673Y2290*
Y2280*
X2667Y2274*
X2673Y2306D02*
Y2327D01*
X2667*
X2646Y2306*
X2641*
Y2358D02*
Y2337D01*
X2662Y2358*
X2667*
X2673Y2353*
Y2343*
X2667Y2337*
X2372Y2269D02*
X2377Y2264D01*
Y2253*
X2372Y2248*
X2351*
X2346Y2253*
Y2264*
X2351Y2269*
X2346Y2301D02*
Y2280D01*
X2367Y2301*
X2372*
X2377Y2295*
Y2285*
X2372Y2280*
X2377Y2311D02*
Y2332D01*
X2372*
X2351Y2311*
X2346*
Y2343D02*
Y2353D01*
Y2348*
X2377*
X2372Y2343*
X2717Y2264D02*
X2722Y2259D01*
Y2248*
X2717Y2243*
X2696*
X2690Y2248*
Y2259*
X2696Y2264*
X2690Y2295D02*
Y2274D01*
X2711Y2295*
X2717*
X2722Y2290*
Y2280*
X2717Y2274*
X2722Y2306D02*
Y2327D01*
X2717*
X2696Y2306*
X2690*
X2717Y2337D02*
X2722Y2343D01*
Y2353*
X2717Y2358*
X2696*
X2690Y2353*
Y2343*
X2696Y2337*
X2717*
X2766Y2264D02*
X2771Y2259D01*
Y2248*
X2766Y2243*
X2745*
X2740Y2248*
Y2259*
X2745Y2264*
X2740Y2295D02*
Y2274D01*
X2761Y2295*
X2766*
X2771Y2290*
Y2280*
X2766Y2274*
X2771Y2327D02*
X2766Y2316D01*
X2755Y2306*
X2745*
X2740Y2311*
Y2322*
X2745Y2327*
X2750*
X2755Y2322*
Y2306*
X2745Y2337D02*
X2740Y2343D01*
Y2353*
X2745Y2358*
X2766*
X2771Y2353*
Y2343*
X2766Y2337*
X2761*
X2755Y2343*
Y2358*
X2815Y2264D02*
X2820Y2259D01*
Y2248*
X2815Y2243*
X2794*
X2789Y2248*
Y2259*
X2794Y2264*
X2789Y2295D02*
Y2274D01*
X2810Y2295*
X2815*
X2820Y2290*
Y2280*
X2815Y2274*
X2820Y2327D02*
X2815Y2316D01*
X2805Y2306*
X2794*
X2789Y2311*
Y2322*
X2794Y2327*
X2799*
X2805Y2322*
Y2306*
X2815Y2337D02*
X2820Y2343D01*
Y2353*
X2815Y2358*
X2810*
X2805Y2353*
X2799Y2358*
X2794*
X2789Y2353*
Y2343*
X2794Y2337*
X2799*
X2805Y2343*
X2810Y2337*
X2815*
X2805Y2343D02*
Y2353D01*
X2864Y2264D02*
X2870Y2259D01*
Y2248*
X2864Y2243*
X2843*
X2838Y2248*
Y2259*
X2843Y2264*
X2838Y2295D02*
Y2274D01*
X2859Y2295*
X2864*
X2870Y2290*
Y2280*
X2864Y2274*
X2870Y2327D02*
X2864Y2316D01*
X2854Y2306*
X2843*
X2838Y2311*
Y2322*
X2843Y2327*
X2849*
X2854Y2322*
Y2306*
X2870Y2337D02*
Y2358D01*
X2864*
X2843Y2337*
X2838*
X2914Y2264D02*
X2919Y2259D01*
Y2248*
X2914Y2243*
X2893*
X2887Y2248*
Y2259*
X2893Y2264*
X2887Y2295D02*
Y2274D01*
X2908Y2295*
X2914*
X2919Y2290*
Y2280*
X2914Y2274*
X2919Y2327D02*
X2914Y2316D01*
X2903Y2306*
X2893*
X2887Y2311*
Y2322*
X2893Y2327*
X2898*
X2903Y2322*
Y2306*
X2919Y2358D02*
X2914Y2348D01*
X2903Y2337*
X2893*
X2887Y2343*
Y2353*
X2893Y2358*
X2898*
X2903Y2353*
Y2337*
X2963Y2126D02*
X2968Y2121D01*
Y2110*
X2963Y2105*
X2942*
X2937Y2110*
Y2121*
X2942Y2126*
X2937Y2158D02*
Y2137D01*
X2958Y2158*
X2963*
X2968Y2152*
Y2142*
X2963Y2137*
X2968Y2189D02*
X2963Y2179D01*
X2952Y2168*
X2942*
X2937Y2173*
Y2184*
X2942Y2189*
X2947*
X2952Y2184*
Y2168*
X2968Y2221D02*
Y2200D01*
X2952*
X2958Y2210*
Y2215*
X2952Y2221*
X2942*
X2937Y2215*
Y2205*
X2942Y2200*
X3137Y2252D02*
X3142Y2257D01*
X3152*
X3158Y2252*
Y2231*
X3152Y2226*
X3142*
X3137Y2231*
X3105Y2226D02*
X3126D01*
X3105Y2247*
Y2252*
X3110Y2257*
X3121*
X3126Y2252*
X3074Y2257D02*
X3084Y2252D01*
X3095Y2242*
Y2231*
X3089Y2226*
X3079*
X3074Y2231*
Y2236*
X3079Y2242*
X3095*
X3047Y2226D02*
Y2257D01*
X3063Y2242*
X3042*
X3137Y2301D02*
X3142Y2307D01*
X3152*
X3158Y2301*
Y2280*
X3152Y2275*
X3142*
X3137Y2280*
X3105Y2275D02*
X3126D01*
X3105Y2296*
Y2301*
X3110Y2307*
X3121*
X3126Y2301*
X3074Y2307D02*
X3084Y2301D01*
X3095Y2291*
Y2280*
X3089Y2275*
X3079*
X3074Y2280*
Y2286*
X3079Y2291*
X3095*
X3063Y2301D02*
X3058Y2307D01*
X3047*
X3042Y2301*
Y2296*
X3047Y2291*
X3053*
X3047*
X3042Y2286*
Y2280*
X3047Y2275*
X3058*
X3063Y2280*
X3137Y2351D02*
X3142Y2356D01*
X3152*
X3158Y2351*
Y2330*
X3152Y2324*
X3142*
X3137Y2330*
X3105Y2324D02*
X3126D01*
X3105Y2345*
Y2351*
X3110Y2356*
X3121*
X3126Y2351*
X3074Y2356D02*
X3084Y2351D01*
X3095Y2340*
Y2330*
X3089Y2324*
X3079*
X3074Y2330*
Y2335*
X3079Y2340*
X3095*
X3042Y2324D02*
X3063D01*
X3042Y2345*
Y2351*
X3047Y2356*
X3058*
X3063Y2351*
X3131Y2154D02*
X3137Y2159D01*
X3147*
X3152Y2154*
Y2133*
X3147Y2127*
X3137*
X3131Y2133*
X3100Y2127D02*
X3121D01*
X3100Y2148*
Y2154*
X3105Y2159*
X3116*
X3121Y2154*
X3068Y2159D02*
X3079Y2154D01*
X3089Y2143*
Y2133*
X3084Y2127*
X3074*
X3068Y2133*
Y2138*
X3074Y2143*
X3089*
X3058Y2127D02*
X3047D01*
X3053*
Y2159*
X3058Y2154*
X3137Y2203D02*
X3142Y2208D01*
X3152*
X3158Y2203*
Y2182*
X3152Y2177*
X3142*
X3137Y2182*
X3105Y2177D02*
X3126D01*
X3105Y2198*
Y2203*
X3110Y2208*
X3121*
X3126Y2203*
X3074Y2208D02*
X3084Y2203D01*
X3095Y2192*
Y2182*
X3089Y2177*
X3079*
X3074Y2182*
Y2187*
X3079Y2192*
X3095*
X3063Y2203D02*
X3058Y2208D01*
X3047*
X3042Y2203*
Y2182*
X3047Y2177*
X3058*
X3063Y2182*
Y2203*
X3137Y2104D02*
X3142Y2110D01*
X3152*
X3158Y2104*
Y2083*
X3152Y2078*
X3142*
X3137Y2083*
X3105Y2078D02*
X3126D01*
X3105Y2099*
Y2104*
X3110Y2110*
X3121*
X3126Y2104*
X3074Y2110D02*
X3095D01*
Y2094*
X3084Y2099*
X3079*
X3074Y2094*
Y2083*
X3079Y2078*
X3089*
X3095Y2083*
X3063D02*
X3058Y2078D01*
X3047*
X3042Y2083*
Y2104*
X3047Y2110*
X3058*
X3063Y2104*
Y2099*
X3058Y2094*
X3042*
X3137Y2006D02*
X3142Y2011D01*
X3152*
X3158Y2006*
Y1985*
X3152Y1980*
X3142*
X3137Y1985*
X3105Y1980D02*
X3126D01*
X3105Y2001*
Y2006*
X3110Y2011*
X3121*
X3126Y2006*
X3074Y2011D02*
X3095D01*
Y1996*
X3084Y2001*
X3079*
X3074Y1996*
Y1985*
X3079Y1980*
X3089*
X3095Y1985*
X3063Y2006D02*
X3058Y2011D01*
X3047*
X3042Y2006*
Y2001*
X3047Y1996*
X3042Y1990*
Y1985*
X3047Y1980*
X3058*
X3063Y1985*
Y1990*
X3058Y1996*
X3063Y2001*
Y2006*
X3058Y1996D02*
X3047D01*
X3137Y2055D02*
X3142Y2061D01*
X3152*
X3158Y2055*
Y2034*
X3152Y2029*
X3142*
X3137Y2034*
X3105Y2029D02*
X3126D01*
X3105Y2050*
Y2055*
X3110Y2061*
X3121*
X3126Y2055*
X3074Y2061D02*
X3095D01*
Y2045*
X3084Y2050*
X3079*
X3074Y2045*
Y2034*
X3079Y2029*
X3089*
X3095Y2034*
X3063Y2061D02*
X3042D01*
Y2055*
X3063Y2034*
Y2029*
X3137Y1957D02*
X3142Y1962D01*
X3152*
X3158Y1957*
Y1936*
X3152Y1931*
X3142*
X3137Y1936*
X3105Y1931D02*
X3126D01*
X3105Y1952*
Y1957*
X3110Y1962*
X3121*
X3126Y1957*
X3074Y1962D02*
X3095D01*
Y1946*
X3084Y1952*
X3079*
X3074Y1946*
Y1936*
X3079Y1931*
X3089*
X3095Y1936*
X3042Y1962D02*
X3053Y1957D01*
X3063Y1946*
Y1936*
X3058Y1931*
X3047*
X3042Y1936*
Y1941*
X3047Y1946*
X3063*
X3137Y1858D02*
X3142Y1864D01*
X3152*
X3158Y1858*
Y1837*
X3152Y1832*
X3142*
X3137Y1837*
X3105Y1832D02*
X3126D01*
X3105Y1853*
Y1858*
X3110Y1864*
X3121*
X3126Y1858*
X3074Y1864D02*
X3095D01*
Y1848*
X3084Y1853*
X3079*
X3074Y1848*
Y1837*
X3079Y1832*
X3089*
X3095Y1837*
X3042Y1864D02*
X3063D01*
Y1848*
X3053Y1853*
X3047*
X3042Y1848*
Y1837*
X3047Y1832*
X3058*
X3063Y1837*
X3137Y1908D02*
X3142Y1913D01*
X3152*
X3158Y1908*
Y1887*
X3152Y1881*
X3142*
X3137Y1887*
X3105Y1881D02*
X3126D01*
X3105Y1902*
Y1908*
X3110Y1913*
X3121*
X3126Y1908*
X3074Y1913D02*
X3095D01*
Y1897*
X3084Y1902*
X3079*
X3074Y1897*
Y1887*
X3079Y1881*
X3089*
X3095Y1887*
X3047Y1881D02*
Y1913D01*
X3063Y1897*
X3042*
X6003Y3258D02*
X6008Y3263D01*
X6019*
X6024Y3258*
Y3237*
X6019Y3232*
X6008*
X6003Y3237*
X5971Y3232D02*
X5992D01*
X5971Y3253*
Y3258*
X5977Y3263*
X5987*
X5992Y3258*
X5940Y3263D02*
X5961D01*
Y3248*
X5950Y3253*
X5945*
X5940Y3248*
Y3237*
X5945Y3232*
X5956*
X5961Y3237*
X5929Y3258D02*
X5924Y3263D01*
X5914*
X5908Y3258*
Y3253*
X5914Y3248*
X5919*
X5914*
X5908Y3242*
Y3237*
X5914Y3232*
X5924*
X5929Y3237*
X5986Y1780D02*
X5992Y1774D01*
Y1764*
X5986Y1759*
X5965*
X5960Y1764*
Y1774*
X5965Y1780*
X5960Y1811D02*
Y1790D01*
X5981Y1811*
X5986*
X5992Y1806*
Y1795*
X5986Y1790*
X5992Y1843D02*
Y1822D01*
X5976*
X5981Y1832*
Y1837*
X5976Y1843*
X5965*
X5960Y1837*
Y1827*
X5965Y1822*
X5960Y1874D02*
Y1853D01*
X5981Y1874*
X5986*
X5992Y1869*
Y1858*
X5986Y1853*
X6146Y1780D02*
X6151Y1774D01*
Y1764*
X6146Y1759*
X6125*
X6120Y1764*
Y1774*
X6125Y1780*
X6120Y1811D02*
Y1790D01*
X6141Y1811*
X6146*
X6151Y1806*
Y1795*
X6146Y1790*
X6151Y1843D02*
Y1822D01*
X6135*
X6141Y1832*
Y1837*
X6135Y1843*
X6125*
X6120Y1837*
Y1827*
X6125Y1822*
X6146Y1853D02*
X6151Y1858D01*
Y1869*
X6146Y1874*
X6125*
X6120Y1869*
Y1858*
X6125Y1853*
X6146*
X2282Y1022D02*
X2277Y1028D01*
Y1038*
X2282Y1043*
X2303*
X2309Y1038*
Y1028*
X2303Y1022*
X2309Y991D02*
Y1012D01*
X2288Y991*
X2282*
X2277Y996*
Y1007*
X2282Y1012*
X2309Y965D02*
X2277D01*
X2293Y980*
Y959*
X2303Y949D02*
X2309Y944D01*
Y933*
X2303Y928*
X2282*
X2277Y933*
Y944*
X2282Y949*
X2288*
X2293Y944*
Y928*
X3314Y3892D02*
X3319Y3897D01*
X3330*
X3335Y3892*
Y3871*
X3330Y3866*
X3319*
X3314Y3871*
X3282Y3866D02*
X3303D01*
X3282Y3887*
Y3892*
X3288Y3897*
X3298*
X3303Y3892*
X3256Y3866D02*
Y3897D01*
X3272Y3881*
X3251*
X3219Y3897D02*
X3240D01*
Y3881*
X3230Y3887*
X3225*
X3219Y3881*
Y3871*
X3225Y3866*
X3235*
X3240Y3871*
X5311Y2132D02*
X5316Y2127D01*
Y2116*
X5311Y2111*
X5290*
X5285Y2116*
Y2127*
X5290Y2132*
X5285Y2164D02*
Y2143D01*
X5306Y2164*
X5311*
X5316Y2158*
Y2148*
X5311Y2143*
X5285Y2190D02*
X5316D01*
X5301Y2174*
Y2195*
X5285Y2221D02*
X5316D01*
X5301Y2206*
Y2227*
X3972Y3502D02*
X3977Y3507D01*
X3988*
X3993Y3502*
Y3481*
X3988Y3476*
X3977*
X3972Y3481*
X3940Y3476D02*
X3961D01*
X3940Y3497*
Y3502*
X3946Y3507*
X3956*
X3961Y3502*
X3914Y3476D02*
Y3507D01*
X3930Y3492*
X3909*
X3898Y3476D02*
X3888D01*
X3893*
Y3507*
X3898Y3502*
X3904Y3252D02*
X3909Y3257D01*
X3920*
X3925Y3252*
Y3231*
X3920Y3226*
X3909*
X3904Y3231*
X3873Y3226D02*
X3894D01*
X3873Y3247*
Y3252*
X3878Y3257*
X3888*
X3894Y3252*
X3862D02*
X3857Y3257D01*
X3846*
X3841Y3252*
Y3247*
X3846Y3242*
X3852*
X3846*
X3841Y3236*
Y3231*
X3846Y3226*
X3857*
X3862Y3231*
X3831Y3252D02*
X3825Y3257D01*
X3815*
X3810Y3252*
Y3247*
X3815Y3242*
X3810Y3236*
Y3231*
X3815Y3226*
X3825*
X3831Y3231*
Y3236*
X3825Y3242*
X3831Y3247*
Y3252*
X3825Y3242D02*
X3815D01*
X3780Y3551D02*
X3785Y3546D01*
Y3535*
X3780Y3530*
X3759*
X3753Y3535*
Y3546*
X3759Y3551*
X3753Y3583D02*
Y3562D01*
X3774Y3583*
X3780*
X3785Y3577*
Y3567*
X3780Y3562*
Y3593D02*
X3785Y3598D01*
Y3609*
X3780Y3614*
X3774*
X3769Y3609*
Y3604*
Y3609*
X3764Y3614*
X3759*
X3753Y3609*
Y3598*
X3759Y3593*
X3785Y3625D02*
Y3646D01*
X3780*
X3759Y3625*
X3753*
X3730Y3551D02*
X3736Y3546D01*
Y3535*
X3730Y3530*
X3709*
X3704Y3535*
Y3546*
X3709Y3551*
X3704Y3583D02*
Y3562D01*
X3725Y3583*
X3730*
X3736Y3577*
Y3567*
X3730Y3562*
Y3593D02*
X3736Y3598D01*
Y3609*
X3730Y3614*
X3725*
X3720Y3609*
Y3604*
Y3609*
X3715Y3614*
X3709*
X3704Y3609*
Y3598*
X3709Y3593*
X3736Y3646D02*
X3730Y3635D01*
X3720Y3625*
X3709*
X3704Y3630*
Y3640*
X3709Y3646*
X3715*
X3720Y3640*
Y3625*
X3681Y3551D02*
X3687Y3546D01*
Y3535*
X3681Y3530*
X3660*
X3655Y3535*
Y3546*
X3660Y3551*
X3655Y3583D02*
Y3562D01*
X3676Y3583*
X3681*
X3687Y3577*
Y3567*
X3681Y3562*
Y3593D02*
X3687Y3598D01*
Y3609*
X3681Y3614*
X3676*
X3671Y3609*
Y3604*
Y3609*
X3666Y3614*
X3660*
X3655Y3609*
Y3598*
X3660Y3593*
X3687Y3646D02*
Y3625D01*
X3671*
X3676Y3635*
Y3640*
X3671Y3646*
X3660*
X3655Y3640*
Y3630*
X3660Y3625*
X3632Y3551D02*
X3637Y3546D01*
Y3535*
X3632Y3530*
X3611*
X3606Y3535*
Y3546*
X3611Y3551*
X3606Y3583D02*
Y3562D01*
X3627Y3583*
X3632*
X3637Y3577*
Y3567*
X3632Y3562*
Y3593D02*
X3637Y3598D01*
Y3609*
X3632Y3614*
X3627*
X3622Y3609*
Y3604*
Y3609*
X3616Y3614*
X3611*
X3606Y3609*
Y3598*
X3611Y3593*
X3606Y3640D02*
X3637D01*
X3622Y3625*
Y3646*
X3599Y3421D02*
X3605Y3427D01*
X3615*
X3620Y3421*
Y3400*
X3615Y3395*
X3605*
X3599Y3400*
X3568Y3395D02*
X3589D01*
X3568Y3416*
Y3421*
X3573Y3427*
X3584*
X3589Y3421*
X3557D02*
X3552Y3427D01*
X3542*
X3536Y3421*
Y3416*
X3542Y3411*
X3547*
X3542*
X3536Y3406*
Y3400*
X3542Y3395*
X3552*
X3557Y3400*
X3526Y3421D02*
X3521Y3427D01*
X3510*
X3505Y3421*
Y3416*
X3510Y3411*
X3515*
X3510*
X3505Y3406*
Y3400*
X3510Y3395*
X3521*
X3526Y3400*
X3599Y3372D02*
X3605Y3377D01*
X3615*
X3620Y3372*
Y3351*
X3615Y3346*
X3605*
X3599Y3351*
X3568Y3346D02*
X3589D01*
X3568Y3367*
Y3372*
X3573Y3377*
X3584*
X3589Y3372*
X3557D02*
X3552Y3377D01*
X3542*
X3536Y3372*
Y3367*
X3542Y3362*
X3547*
X3542*
X3536Y3356*
Y3351*
X3542Y3346*
X3552*
X3557Y3351*
X3526Y3346D02*
X3515D01*
X3521*
Y3377*
X3526Y3372*
X3713Y3067D02*
X3718Y3062D01*
Y3052*
X3713Y3046*
X3692*
X3687Y3052*
Y3062*
X3692Y3067*
X3687Y3099D02*
Y3078D01*
X3708Y3099*
X3713*
X3718Y3093*
Y3083*
X3713Y3078*
Y3109D02*
X3718Y3114D01*
Y3125*
X3713Y3130*
X3708*
X3702Y3125*
Y3120*
Y3125*
X3697Y3130*
X3692*
X3687Y3125*
Y3114*
X3692Y3109*
X3713Y3141D02*
X3718Y3146D01*
Y3156*
X3713Y3162*
X3692*
X3687Y3156*
Y3146*
X3692Y3141*
X3713*
X3623Y3270D02*
X3628Y3275D01*
X3639*
X3644Y3270*
Y3249*
X3639Y3244*
X3628*
X3623Y3249*
X3592Y3244D02*
X3613D01*
X3592Y3265*
Y3270*
X3597Y3275*
X3607*
X3613Y3270*
X3560Y3244D02*
X3581D01*
X3560Y3265*
Y3270*
X3565Y3275*
X3576*
X3581Y3270*
X3550Y3249D02*
X3544Y3244D01*
X3534*
X3529Y3249*
Y3270*
X3534Y3275*
X3544*
X3550Y3270*
Y3265*
X3544Y3259*
X3529*
X1219Y3011D02*
X1214Y3016D01*
Y3026*
X1219Y3032*
X1240*
X1246Y3026*
Y3016*
X1240Y3011*
X1246Y2979D02*
Y3000D01*
X1225Y2979*
X1219*
X1214Y2984*
Y2995*
X1219Y3000*
X1246Y2948D02*
Y2969D01*
X1225Y2948*
X1219*
X1214Y2953*
Y2963*
X1219Y2969*
X1214Y2937D02*
Y2916D01*
X1219*
X1240Y2937*
X1246*
X1556Y2703D02*
X1561Y2708D01*
X1572*
X1577Y2703*
Y2682*
X1572Y2677*
X1561*
X1556Y2682*
X1524Y2677D02*
X1545D01*
X1524Y2698*
Y2703*
X1530Y2708*
X1540*
X1545Y2703*
X1493Y2677D02*
X1514D01*
X1493Y2698*
Y2703*
X1498Y2708*
X1509*
X1514Y2703*
X1467Y2677D02*
Y2708D01*
X1482Y2692*
X1461*
X2893Y3682D02*
X2887Y3688D01*
Y3698*
X2893Y3703*
X2914*
X2919Y3698*
Y3688*
X2914Y3682*
X2919Y3651D02*
Y3672D01*
X2898Y3651*
X2893*
X2887Y3656*
Y3667*
X2893Y3672*
X2919Y3640D02*
Y3630D01*
Y3635*
X2887*
X2893Y3640*
X2914Y3614D02*
X2919Y3609D01*
Y3598*
X2914Y3593*
X2893*
X2887Y3598*
Y3609*
X2893Y3614*
X2898*
X2903Y3609*
Y3593*
X2942Y3678D02*
X2937Y3684D01*
Y3694*
X2942Y3699*
X2963*
X2968Y3694*
Y3684*
X2963Y3678*
X2968Y3647D02*
Y3668D01*
X2947Y3647*
X2942*
X2937Y3652*
Y3663*
X2942Y3668*
X2968Y3636D02*
Y3626D01*
Y3631*
X2937*
X2942Y3636*
Y3610D02*
X2937Y3605D01*
Y3595*
X2942Y3589*
X2947*
X2952Y3595*
X2958Y3589*
X2963*
X2968Y3595*
Y3605*
X2963Y3610*
X2958*
X2952Y3605*
X2947Y3610*
X2942*
X2952Y3605D02*
Y3595D01*
X2428Y3655D02*
X2433Y3660D01*
X2444*
X2449Y3655*
Y3634*
X2444Y3629*
X2433*
X2428Y3634*
X2397Y3629D02*
X2418D01*
X2397Y3650*
Y3655*
X2402Y3660*
X2412*
X2418Y3655*
X2386Y3629D02*
X2376D01*
X2381*
Y3660*
X2386Y3655*
X2360D02*
X2355Y3660D01*
X2344*
X2339Y3655*
Y3650*
X2344Y3644*
X2349*
X2344*
X2339Y3639*
Y3634*
X2344Y3629*
X2355*
X2360Y3634*
X2432Y3722D02*
X2437Y3727D01*
X2448*
X2453Y3722*
Y3701*
X2448Y3696*
X2437*
X2432Y3701*
X2401Y3696D02*
X2422D01*
X2401Y3717*
Y3722*
X2406Y3727*
X2416*
X2422Y3722*
X2390Y3696D02*
X2380D01*
X2385*
Y3727*
X2390Y3722*
X2343Y3696D02*
X2364D01*
X2343Y3717*
Y3722*
X2348Y3727*
X2359*
X2364Y3722*
X1028Y3519D02*
X1033Y3514D01*
Y3504*
X1028Y3498*
X1007*
X1001Y3504*
Y3514*
X1007Y3519*
X1001Y3551D02*
Y3530D01*
X1022Y3551*
X1028*
X1033Y3546*
Y3535*
X1028Y3530*
Y3561D02*
X1033Y3567D01*
Y3577*
X1028Y3582*
X1007*
X1001Y3577*
Y3567*
X1007Y3561*
X1028*
X1007Y3593D02*
X1001Y3598D01*
Y3609*
X1007Y3614*
X1028*
X1033Y3609*
Y3598*
X1028Y3593*
X1022*
X1017Y3598*
Y3614*
X4803Y2508D02*
X4809Y2503D01*
Y2492*
X4803Y2487*
X4782*
X4777Y2492*
Y2503*
X4782Y2508*
X4777Y2518D02*
Y2529D01*
Y2524*
X4809*
X4803Y2518*
Y2545D02*
X4809Y2550D01*
Y2560*
X4803Y2566*
X4798*
X4793Y2560*
Y2555*
Y2560*
X4788Y2566*
X4782*
X4777Y2560*
Y2550*
X4782Y2545*
X4803Y2576D02*
X4809Y2581D01*
Y2592*
X4803Y2597*
X4798*
X4793Y2592*
X4788Y2597*
X4782*
X4777Y2592*
Y2581*
X4782Y2576*
X4788*
X4793Y2581*
X4798Y2576*
X4803*
X4793Y2581D02*
Y2592D01*
X4977Y2782D02*
X4982Y2776D01*
Y2766*
X4977Y2761*
X4956*
X4950Y2766*
Y2776*
X4956Y2782*
X4950Y2792D02*
Y2803D01*
Y2797*
X4982*
X4977Y2792*
Y2818D02*
X4982Y2824D01*
Y2834*
X4977Y2839*
X4971*
X4966Y2834*
Y2829*
Y2834*
X4961Y2839*
X4956*
X4950Y2834*
Y2824*
X4956Y2818*
X4982Y2850D02*
Y2871D01*
X4977*
X4956Y2850*
X4950*
X4000Y2200D02*
X4005Y2194D01*
Y2184*
X4000Y2179*
X3979*
X3974Y2184*
Y2194*
X3979Y2200*
X3974Y2210D02*
Y2221D01*
Y2215*
X4005*
X4000Y2210*
Y2236D02*
X4005Y2242D01*
Y2252*
X4000Y2257*
X3995*
X3990Y2252*
Y2247*
Y2252*
X3984Y2257*
X3979*
X3974Y2252*
Y2242*
X3979Y2236*
X4005Y2289D02*
X4000Y2278D01*
X3990Y2268*
X3979*
X3974Y2273*
Y2284*
X3979Y2289*
X3984*
X3990Y2284*
Y2268*
X4741Y2736D02*
X4746Y2742D01*
X4757*
X4762Y2736*
Y2715*
X4757Y2710*
X4746*
X4741Y2715*
X4731Y2710D02*
X4720D01*
X4725*
Y2742*
X4731Y2736*
X4704D02*
X4699Y2742D01*
X4689*
X4683Y2736*
Y2731*
X4689Y2726*
X4694*
X4689*
X4683Y2721*
Y2715*
X4689Y2710*
X4699*
X4704Y2715*
X4652Y2742D02*
X4673D01*
Y2726*
X4662Y2731*
X4657*
X4652Y2726*
Y2715*
X4657Y2710*
X4668*
X4673Y2715*
X4878Y2782D02*
X4883Y2776D01*
Y2766*
X4878Y2761*
X4857*
X4852Y2766*
Y2776*
X4857Y2782*
X4852Y2792D02*
Y2803D01*
Y2797*
X4883*
X4878Y2792*
Y2818D02*
X4883Y2824D01*
Y2834*
X4878Y2839*
X4873*
X4868Y2834*
Y2829*
Y2834*
X4862Y2839*
X4857*
X4852Y2834*
Y2824*
X4857Y2818*
X4852Y2865D02*
X4883D01*
X4868Y2850*
Y2871*
X4927Y2782D02*
X4933Y2776D01*
Y2766*
X4927Y2761*
X4906*
X4901Y2766*
Y2776*
X4906Y2782*
X4901Y2792D02*
Y2803D01*
Y2797*
X4933*
X4927Y2792*
Y2818D02*
X4933Y2824D01*
Y2834*
X4927Y2839*
X4922*
X4917Y2834*
Y2829*
Y2834*
X4912Y2839*
X4906*
X4901Y2834*
Y2824*
X4906Y2818*
X4927Y2850D02*
X4933Y2855D01*
Y2865*
X4927Y2871*
X4922*
X4917Y2865*
Y2860*
Y2865*
X4912Y2871*
X4906*
X4901Y2865*
Y2855*
X4906Y2850*
X5352Y2825D02*
X5357Y2830D01*
X5367*
X5373Y2825*
Y2804*
X5367Y2799*
X5357*
X5352Y2804*
X5341Y2799D02*
X5331D01*
X5336*
Y2830*
X5341Y2825*
X5315D02*
X5310Y2830D01*
X5299*
X5294Y2825*
Y2820*
X5299Y2814*
X5304*
X5299*
X5294Y2809*
Y2804*
X5299Y2799*
X5310*
X5315Y2804*
X5262Y2799D02*
X5283D01*
X5262Y2820*
Y2825*
X5268Y2830*
X5278*
X5283Y2825*
X5341Y2727D02*
X5346Y2732D01*
X5357*
X5362Y2727*
Y2706*
X5357Y2700*
X5346*
X5341Y2706*
X5331Y2700D02*
X5320D01*
X5325*
Y2732*
X5331Y2727*
X5304D02*
X5299Y2732D01*
X5289*
X5283Y2727*
Y2721*
X5289Y2716*
X5294*
X5289*
X5283Y2711*
Y2706*
X5289Y2700*
X5299*
X5304Y2706*
X5273Y2700D02*
X5262D01*
X5268*
Y2732*
X5273Y2727*
X5352Y2776D02*
X5357Y2781D01*
X5367*
X5373Y2776*
Y2755*
X5367Y2750*
X5357*
X5352Y2755*
X5341Y2750D02*
X5331D01*
X5336*
Y2781*
X5341Y2776*
X5315D02*
X5310Y2781D01*
X5299*
X5294Y2776*
Y2771*
X5299Y2765*
X5304*
X5299*
X5294Y2760*
Y2755*
X5299Y2750*
X5310*
X5315Y2755*
X5283Y2776D02*
X5278Y2781D01*
X5268*
X5262Y2776*
Y2755*
X5268Y2750*
X5278*
X5283Y2755*
Y2776*
X5352Y2677D02*
X5357Y2683D01*
X5367*
X5373Y2677*
Y2656*
X5367Y2651*
X5357*
X5352Y2656*
X5341Y2651D02*
X5331D01*
X5336*
Y2683*
X5341Y2677*
X5294Y2651D02*
X5315D01*
X5294Y2672*
Y2677*
X5299Y2683*
X5310*
X5315Y2677*
X5283Y2656D02*
X5278Y2651D01*
X5268*
X5262Y2656*
Y2677*
X5268Y2683*
X5278*
X5283Y2677*
Y2672*
X5278Y2667*
X5262*
X5352Y2628D02*
X5357Y2633D01*
X5367*
X5373Y2628*
Y2607*
X5367Y2602*
X5357*
X5352Y2607*
X5341Y2602D02*
X5331D01*
X5336*
Y2633*
X5341Y2628*
X5294Y2602D02*
X5315D01*
X5294Y2623*
Y2628*
X5299Y2633*
X5310*
X5315Y2628*
X5283D02*
X5278Y2633D01*
X5268*
X5262Y2628*
Y2623*
X5268Y2618*
X5262Y2612*
Y2607*
X5268Y2602*
X5278*
X5283Y2607*
Y2612*
X5278Y2618*
X5283Y2623*
Y2628*
X5278Y2618D02*
X5268D01*
X5030Y2246D02*
X5035Y2240D01*
Y2230*
X5030Y2225*
X5009*
X5003Y2230*
Y2240*
X5009Y2246*
X5003Y2256D02*
Y2267D01*
Y2261*
X5035*
X5030Y2256*
X5003Y2303D02*
Y2282D01*
X5024Y2303*
X5030*
X5035Y2298*
Y2288*
X5030Y2282*
X5035Y2314D02*
Y2335D01*
X5030*
X5009Y2314*
X5003*
X4734Y2246D02*
X4740Y2240D01*
Y2230*
X4734Y2225*
X4713*
X4708Y2230*
Y2240*
X4713Y2246*
X4708Y2256D02*
Y2267D01*
Y2261*
X4740*
X4734Y2256*
X4708Y2303D02*
Y2282D01*
X4729Y2303*
X4734*
X4740Y2298*
Y2288*
X4734Y2282*
X4740Y2335D02*
X4734Y2324D01*
X4724Y2314*
X4713*
X4708Y2319*
Y2330*
X4713Y2335*
X4719*
X4724Y2330*
Y2314*
X4882Y2246D02*
X4887Y2240D01*
Y2230*
X4882Y2225*
X4861*
X4856Y2230*
Y2240*
X4861Y2246*
X4856Y2256D02*
Y2267D01*
Y2261*
X4887*
X4882Y2256*
X4856Y2303D02*
Y2282D01*
X4877Y2303*
X4882*
X4887Y2298*
Y2288*
X4882Y2282*
X4887Y2335D02*
Y2314D01*
X4872*
X4877Y2324*
Y2330*
X4872Y2335*
X4861*
X4856Y2330*
Y2319*
X4861Y2314*
X4980Y2246D02*
X4986Y2240D01*
Y2230*
X4980Y2225*
X4959*
X4954Y2230*
Y2240*
X4959Y2246*
X4954Y2256D02*
Y2267D01*
Y2261*
X4986*
X4980Y2256*
X4954Y2303D02*
Y2282D01*
X4975Y2303*
X4980*
X4986Y2298*
Y2288*
X4980Y2282*
X4954Y2330D02*
X4986D01*
X4970Y2314*
Y2335*
X4784Y2246D02*
X4789Y2240D01*
Y2230*
X4784Y2225*
X4763*
X4757Y2230*
Y2240*
X4763Y2246*
X4757Y2256D02*
Y2267D01*
Y2261*
X4789*
X4784Y2256*
X4757Y2303D02*
Y2282D01*
X4778Y2303*
X4784*
X4789Y2298*
Y2288*
X4784Y2282*
Y2314D02*
X4789Y2319D01*
Y2330*
X4784Y2335*
X4778*
X4773Y2330*
Y2324*
Y2330*
X4768Y2335*
X4763*
X4757Y2330*
Y2319*
X4763Y2314*
X4931Y2246D02*
X4937Y2240D01*
Y2230*
X4931Y2225*
X4910*
X4905Y2230*
Y2240*
X4910Y2246*
X4905Y2256D02*
Y2267D01*
Y2261*
X4937*
X4931Y2256*
X4905Y2303D02*
Y2282D01*
X4926Y2303*
X4931*
X4937Y2298*
Y2288*
X4931Y2282*
X4905Y2335D02*
Y2314D01*
X4926Y2335*
X4931*
X4937Y2330*
Y2319*
X4931Y2314*
X4833Y2256D02*
X4838Y2251D01*
Y2240*
X4833Y2235*
X4812*
X4807Y2240*
Y2251*
X4812Y2256*
X4807Y2267D02*
Y2277D01*
Y2272*
X4838*
X4833Y2267*
X4807Y2314D02*
Y2293D01*
X4828Y2314*
X4833*
X4838Y2309*
Y2298*
X4833Y2293*
X4807Y2324D02*
Y2335D01*
Y2330*
X4838*
X4833Y2324*
X5128Y2246D02*
X5133Y2240D01*
Y2230*
X5128Y2225*
X5107*
X5102Y2230*
Y2240*
X5107Y2246*
X5102Y2256D02*
Y2267D01*
Y2261*
X5133*
X5128Y2256*
X5102Y2303D02*
Y2282D01*
X5123Y2303*
X5128*
X5133Y2298*
Y2288*
X5128Y2282*
Y2314D02*
X5133Y2319D01*
Y2330*
X5128Y2335*
X5107*
X5102Y2330*
Y2319*
X5107Y2314*
X5128*
X5177Y2251D02*
X5183Y2246D01*
Y2235*
X5177Y2230*
X5156*
X5151Y2235*
Y2246*
X5156Y2251*
X5151Y2261D02*
Y2272D01*
Y2267*
X5183*
X5177Y2261*
X5151Y2288D02*
Y2298D01*
Y2293*
X5183*
X5177Y2288*
X5156Y2314D02*
X5151Y2319D01*
Y2330*
X5156Y2335*
X5177*
X5183Y2330*
Y2319*
X5177Y2314*
X5172*
X5167Y2319*
Y2335*
X5079Y2251D02*
X5084Y2246D01*
Y2235*
X5079Y2230*
X5058*
X5053Y2235*
Y2246*
X5058Y2251*
X5053Y2261D02*
Y2272D01*
Y2267*
X5084*
X5079Y2261*
X5053Y2288D02*
Y2298D01*
Y2293*
X5084*
X5079Y2288*
Y2314D02*
X5084Y2319D01*
Y2330*
X5079Y2335*
X5074*
X5068Y2330*
X5063Y2335*
X5058*
X5053Y2330*
Y2319*
X5058Y2314*
X5063*
X5068Y2319*
X5074Y2314*
X5079*
X5068Y2319D02*
Y2330D01*
X6549Y1779D02*
X6555Y1774D01*
Y1763*
X6549Y1758*
X6528*
X6523Y1763*
Y1774*
X6528Y1779*
X6523Y1790D02*
Y1800D01*
Y1795*
X6555*
X6549Y1790*
X6523Y1816D02*
Y1826D01*
Y1821*
X6555*
X6549Y1816*
X6555Y1863D02*
Y1842D01*
X6539*
X6544Y1853*
Y1858*
X6539Y1863*
X6528*
X6523Y1858*
Y1847*
X6528Y1842*
X1360Y1166D02*
X1366Y1161D01*
Y1150*
X1360Y1145*
X1339*
X1334Y1150*
Y1161*
X1339Y1166*
X1334Y1177D02*
Y1187D01*
Y1182*
X1366*
X1360Y1177*
Y1203D02*
X1366Y1208D01*
Y1219*
X1360Y1224*
X1339*
X1334Y1219*
Y1208*
X1339Y1203*
X1360*
X1339Y1234D02*
X1334Y1240D01*
Y1250*
X1339Y1255*
X1360*
X1366Y1250*
Y1240*
X1360Y1234*
X1355*
X1350Y1240*
Y1255*
X6192Y2510D02*
X6197Y2515D01*
X6207*
X6213Y2510*
Y2489*
X6207Y2484*
X6197*
X6192Y2489*
X6160Y2515D02*
X6181D01*
Y2500*
X6171Y2505*
X6166*
X6160Y2500*
Y2489*
X6166Y2484*
X6176*
X6181Y2489*
X6129Y2515D02*
X6139Y2510D01*
X6150Y2500*
Y2489*
X6145Y2484*
X6134*
X6129Y2489*
Y2494*
X6134Y2500*
X6150*
X6003Y3376D02*
X6008Y3381D01*
X6019*
X6024Y3376*
Y3355*
X6019Y3350*
X6008*
X6003Y3355*
X5971Y3381D02*
X5982Y3376D01*
X5992Y3366*
Y3355*
X5987Y3350*
X5977*
X5971Y3355*
Y3360*
X5977Y3366*
X5992*
X6121Y2636D02*
X6126Y2641D01*
X6137*
X6142Y2636*
Y2615*
X6137Y2610*
X6126*
X6121Y2615*
X6089Y2641D02*
X6110D01*
Y2625*
X6100Y2631*
X6095*
X6089Y2625*
Y2615*
X6095Y2610*
X6105*
X6110Y2615*
X6549Y1196D02*
X6522D01*
X6517Y1201*
Y1211*
X6522Y1217*
X6549*
Y1248D02*
Y1227D01*
X6533*
X6538Y1238*
Y1243*
X6533Y1248*
X6522*
X6517Y1243*
Y1232*
X6522Y1227*
X6549Y1280D02*
Y1259D01*
X6533*
X6538Y1269*
Y1274*
X6533Y1280*
X6522*
X6517Y1274*
Y1264*
X6522Y1259*
X5478Y2041D02*
X5504D01*
X5509Y2036*
Y2026*
X5504Y2020*
X5478*
Y1989D02*
Y2010D01*
X5494*
X5488Y2000*
Y1994*
X5494Y1989*
X5504*
X5509Y1994*
Y2005*
X5504Y2010*
X5509Y1958D02*
Y1979D01*
X5488Y1958*
X5483*
X5478Y1963*
Y1973*
X5483Y1979*
X4028Y3450D02*
Y3424D01*
X4022Y3419*
X4012*
X4007Y3424*
Y3450*
X3980Y3419D02*
Y3450D01*
X3996Y3435*
X3975*
X3965Y3450D02*
X3944D01*
Y3445*
X3965Y3424*
Y3419*
X1545Y3003D02*
Y2977D01*
X1540Y2972*
X1530*
X1524Y2977*
Y3003*
X1498Y2972D02*
Y3003D01*
X1514Y2988*
X1493*
X1461Y3003D02*
X1472Y2998D01*
X1482Y2988*
Y2977*
X1477Y2972*
X1467*
X1461Y2977*
Y2982*
X1467Y2988*
X1482*
X2526Y3525D02*
Y3499D01*
X2520Y3494*
X2510*
X2505Y3499*
Y3525*
X2479Y3494D02*
Y3525D01*
X2494Y3509*
X2473*
X2447Y3494D02*
Y3525D01*
X2463Y3509*
X2442*
X2899Y3412D02*
X2873D01*
X2868Y3417*
Y3428*
X2873Y3433*
X2899*
X2868Y3459D02*
X2899D01*
X2883Y3444*
Y3465*
X2894Y3475D02*
X2899Y3480D01*
Y3491*
X2894Y3496*
X2889*
X2883Y3491*
Y3486*
Y3491*
X2878Y3496*
X2873*
X2868Y3491*
Y3480*
X2873Y3475*
X5679Y1172D02*
X5652D01*
X5647Y1177*
Y1188*
X5652Y1193*
X5679*
X5673Y1204D02*
X5679Y1209D01*
Y1219*
X5673Y1225*
X5668*
X5663Y1219*
Y1214*
Y1219*
X5658Y1225*
X5652*
X5647Y1219*
Y1209*
X5652Y1204*
X5679Y1256D02*
X5673Y1246D01*
X5663Y1235*
X5652*
X5647Y1240*
Y1251*
X5652Y1256*
X5658*
X5663Y1251*
Y1235*
X5645Y937D02*
X5671D01*
X5677Y932*
Y921*
X5671Y916*
X5645*
X5650Y906D02*
X5645Y900D01*
Y890*
X5650Y885*
X5656*
X5661Y890*
Y895*
Y890*
X5666Y885*
X5671*
X5677Y890*
Y900*
X5671Y906*
X5677Y858D02*
X5645D01*
X5661Y874*
Y853*
X4648Y1529D02*
Y1503D01*
X4643Y1498*
X4632*
X4627Y1503*
Y1529*
X4616Y1524D02*
X4611Y1529D01*
X4601*
X4595Y1524*
Y1519*
X4601Y1513*
X4606*
X4601*
X4595Y1508*
Y1503*
X4601Y1498*
X4611*
X4616Y1503*
X4564Y1498D02*
X4585D01*
X4564Y1519*
Y1524*
X4569Y1529*
X4580*
X4585Y1524*
X5087Y1539D02*
Y1513D01*
X5082Y1507*
X5072*
X5066Y1513*
Y1539*
X5056Y1534D02*
X5051Y1539D01*
X5040*
X5035Y1534*
Y1528*
X5040Y1523*
X5045*
X5040*
X5035Y1518*
Y1513*
X5040Y1507*
X5051*
X5056Y1513*
X5024Y1507D02*
X5014D01*
X5019*
Y1539*
X5024Y1534*
X4370Y1535D02*
Y1509D01*
X4365Y1503*
X4354*
X4349Y1509*
Y1535*
X4339Y1530D02*
X4333Y1535D01*
X4323*
X4318Y1530*
Y1524*
X4323Y1519*
X4328*
X4323*
X4318Y1514*
Y1509*
X4323Y1503*
X4333*
X4339Y1509*
X4307Y1530D02*
X4302Y1535D01*
X4292*
X4286Y1530*
Y1509*
X4292Y1503*
X4302*
X4307Y1509*
Y1530*
X3463Y1533D02*
Y1507D01*
X3457Y1501*
X3447*
X3442Y1507*
Y1533*
X3410Y1501D02*
X3431D01*
X3410Y1522*
Y1528*
X3416Y1533*
X3426*
X3431Y1528*
X3400Y1533D02*
X3379D01*
Y1528*
X3400Y1507*
Y1501*
X3185Y1533D02*
Y1507D01*
X3180Y1501*
X3169*
X3164Y1507*
Y1533*
X3133Y1501D02*
X3154D01*
X3133Y1522*
Y1528*
X3138Y1533*
X3148*
X3154Y1528*
X3101Y1533D02*
X3112Y1528D01*
X3122Y1517*
Y1507*
X3117Y1501*
X3106*
X3101Y1507*
Y1512*
X3106Y1517*
X3122*
X2096Y3763D02*
Y3737D01*
X2091Y3732*
X2081*
X2075Y3737*
Y3763*
X2044Y3732D02*
X2065D01*
X2044Y3753*
Y3758*
X2049Y3763*
X2060*
X2065Y3758*
X2018Y3732D02*
Y3763D01*
X2033Y3748*
X2012*
X2303Y1531D02*
Y1505D01*
X2298Y1500*
X2288*
X2282Y1505*
Y1531*
X2251Y1500D02*
X2272D01*
X2251Y1521*
Y1526*
X2256Y1531*
X2267*
X2272Y1526*
X2240D02*
X2235Y1531D01*
X2225*
X2219Y1526*
Y1521*
X2225Y1515*
X2230*
X2225*
X2219Y1510*
Y1505*
X2225Y1500*
X2235*
X2240Y1505*
X5326Y2568D02*
Y2542D01*
X5321Y2537*
X5311*
X5305Y2542*
Y2568*
X5295Y2537D02*
X5284D01*
X5290*
Y2568*
X5295Y2563*
X5269Y2542D02*
X5263Y2537D01*
X5253*
X5248Y2542*
Y2563*
X5253Y2568*
X5263*
X5269Y2563*
Y2558*
X5263Y2553*
X5248*
X5774Y3811D02*
Y3784D01*
X5769Y3779*
X5758*
X5753Y3784*
Y3811*
X5742D02*
X5721D01*
Y3805*
X5742Y3784*
Y3779*
X5797Y1405D02*
X5776D01*
X5787*
Y1374*
X5766D02*
Y1405D01*
X5750*
X5745Y1400*
Y1389*
X5750Y1384*
X5766*
X5713Y1405D02*
X5734D01*
Y1389*
X5724Y1395*
X5719*
X5713Y1389*
Y1379*
X5719Y1374*
X5729*
X5734Y1379*
X5703Y1400D02*
X5698Y1405D01*
X5687*
X5682Y1400*
Y1395*
X5687Y1389*
X5692*
X5687*
X5682Y1384*
Y1379*
X5687Y1374*
X5698*
X5703Y1379*
X2038Y2110D02*
Y2141D01*
X2022*
X2017Y2136*
Y2125*
X2022Y2120*
X2038*
X2027D02*
X2017Y2110D01*
X2006D02*
X1996D01*
X2001*
Y2141*
X2006Y2136*
X1959Y2110D02*
X1980D01*
X1959Y2131*
Y2136*
X1964Y2141*
X1975*
X1980Y2136*
X1948Y2110D02*
X1938D01*
X1943*
Y2141*
X1948Y2136*
X5794Y1423D02*
Y1454D01*
X5778*
X5773Y1449*
Y1438*
X5778Y1433*
X5794*
X5784D02*
X5773Y1423D01*
X5763D02*
X5752D01*
X5757*
Y1454*
X5763Y1449*
X5736Y1423D02*
X5726D01*
X5731*
Y1454*
X5736Y1449*
X5710Y1428D02*
X5705Y1423D01*
X5694*
X5689Y1428*
Y1449*
X5694Y1454*
X5705*
X5710Y1449*
Y1444*
X5705Y1438*
X5689*
X1691Y4035D02*
Y4066D01*
X1675*
X1670Y4061*
Y4051*
X1675Y4045*
X1691*
X1681D02*
X1670Y4035D01*
X1660Y4061D02*
X1655Y4066D01*
X1644*
X1639Y4061*
Y4056*
X1644Y4051*
X1639Y4045*
Y4040*
X1644Y4035*
X1655*
X1660Y4040*
Y4045*
X1655Y4051*
X1660Y4056*
Y4061*
X1655Y4051D02*
X1644D01*
X1607Y4066D02*
X1628D01*
Y4051*
X1618Y4056*
X1613*
X1607Y4051*
Y4040*
X1613Y4035*
X1623*
X1628Y4040*
X1691Y3960D02*
Y3992D01*
X1675*
X1670Y3986*
Y3976*
X1675Y3971*
X1691*
X1681D02*
X1670Y3960D01*
X1660Y3986D02*
X1655Y3992D01*
X1644*
X1639Y3986*
Y3981*
X1644Y3976*
X1639Y3971*
Y3965*
X1644Y3960*
X1655*
X1660Y3965*
Y3971*
X1655Y3976*
X1660Y3981*
Y3986*
X1655Y3976D02*
X1644D01*
X1613Y3960D02*
Y3992D01*
X1628Y3976*
X1607*
X5193Y852D02*
Y820D01*
X5177*
X5172Y826*
Y847*
X5177Y852*
X5193*
X5162D02*
X5141D01*
Y847*
X5162Y826*
Y820*
X6010Y852D02*
Y820D01*
X5994*
X5989Y826*
Y847*
X5994Y852*
X6010*
X5958D02*
X5968Y847D01*
X5979Y836*
Y826*
X5973Y820*
X5963*
X5958Y826*
Y831*
X5963Y836*
X5979*
X5916Y1447D02*
X5922Y1452D01*
X5932*
X5937Y1447*
Y1426*
X5932Y1421*
X5922*
X5916Y1426*
X5885Y1421D02*
X5906D01*
X5885Y1442*
Y1447*
X5890Y1452*
X5901*
X5906Y1447*
X5853Y1452D02*
X5874D01*
Y1437*
X5864Y1442*
X5859*
X5853Y1437*
Y1426*
X5859Y1421*
X5869*
X5874Y1426*
X5843Y1421D02*
X5832D01*
X5838*
Y1452*
X5843Y1447*
X5916Y1606D02*
X5922Y1612D01*
X5932*
X5937Y1606*
Y1585*
X5932Y1580*
X5922*
X5916Y1585*
X5885Y1580D02*
X5906D01*
X5885Y1601*
Y1606*
X5890Y1612*
X5901*
X5906Y1606*
X5859Y1580D02*
Y1612D01*
X5874Y1596*
X5853*
X5843Y1606D02*
X5838Y1612D01*
X5827*
X5822Y1606*
Y1601*
X5827Y1596*
X5822Y1591*
Y1585*
X5827Y1580*
X5838*
X5843Y1585*
Y1591*
X5838Y1596*
X5843Y1601*
Y1606*
X5838Y1596D02*
X5827D01*
X6305Y1780D02*
X6311Y1774D01*
Y1764*
X6305Y1759*
X6284*
X6279Y1764*
Y1774*
X6284Y1780*
X6279Y1811D02*
Y1790D01*
X6300Y1811*
X6305*
X6311Y1806*
Y1795*
X6305Y1790*
X6279Y1837D02*
X6311D01*
X6295Y1822*
Y1843*
X6311Y1853D02*
Y1874D01*
X6305*
X6284Y1853*
X6279*
X5372Y2132D02*
X5377Y2127D01*
Y2116*
X5372Y2111*
X5351*
X5346Y2116*
Y2127*
X5351Y2132*
X5346Y2164D02*
Y2143D01*
X5367Y2164*
X5372*
X5377Y2158*
Y2148*
X5372Y2143*
X5346Y2190D02*
X5377D01*
X5362Y2174*
Y2195*
X5372Y2206D02*
X5377Y2211D01*
Y2221*
X5372Y2227*
X5367*
X5362Y2221*
Y2216*
Y2221*
X5356Y2227*
X5351*
X5346Y2221*
Y2211*
X5351Y2206*
X3623Y3319D02*
X3628Y3324D01*
X3639*
X3644Y3319*
Y3298*
X3639Y3293*
X3628*
X3623Y3298*
X3592Y3293D02*
X3613D01*
X3592Y3314*
Y3319*
X3597Y3324*
X3607*
X3613Y3319*
X3581D02*
X3576Y3324D01*
X3565*
X3560Y3319*
Y3314*
X3565Y3309*
X3571*
X3565*
X3560Y3303*
Y3298*
X3565Y3293*
X3576*
X3581Y3298*
X3529Y3293D02*
X3550D01*
X3529Y3314*
Y3319*
X3534Y3324*
X3544*
X3550Y3319*
X3664Y3067D02*
X3669Y3062D01*
Y3052*
X3664Y3046*
X3643*
X3637Y3052*
Y3062*
X3643Y3067*
X3637Y3099D02*
Y3078D01*
X3658Y3099*
X3664*
X3669Y3093*
Y3083*
X3664Y3078*
X3637Y3130D02*
Y3109D01*
X3658Y3130*
X3664*
X3669Y3125*
Y3114*
X3664Y3109*
Y3141D02*
X3669Y3146D01*
Y3156*
X3664Y3162*
X3658*
X3653Y3156*
X3648Y3162*
X3643*
X3637Y3156*
Y3146*
X3643Y3141*
X3648*
X3653Y3146*
X3658Y3141*
X3664*
X3653Y3146D02*
Y3156D01*
X1395Y3081D02*
X1400Y3086D01*
X1410*
X1415Y3081*
Y3060*
X1410Y3055*
X1400*
X1395Y3060*
X1363Y3055D02*
X1384D01*
X1363Y3076*
Y3081*
X1368Y3086*
X1379*
X1384Y3081*
X1332Y3055D02*
X1353D01*
X1332Y3076*
Y3081*
X1337Y3086*
X1347*
X1353Y3081*
X1300Y3086D02*
X1311Y3081D01*
X1321Y3070*
Y3060*
X1316Y3055*
X1305*
X1300Y3060*
Y3065*
X1305Y3070*
X1321*
X1666Y2817D02*
X1671Y2822D01*
X1682*
X1687Y2817*
Y2796*
X1682Y2791*
X1671*
X1666Y2796*
X1635Y2791D02*
X1656D01*
X1635Y2812*
Y2817*
X1640Y2822*
X1650*
X1656Y2817*
X1603Y2791D02*
X1624D01*
X1603Y2812*
Y2817*
X1608Y2822*
X1619*
X1624Y2817*
X1572Y2822D02*
X1593D01*
Y2807*
X1582Y2812*
X1577*
X1572Y2807*
Y2796*
X1577Y2791*
X1587*
X1593Y2796*
X4734Y4175D02*
X4740Y4170D01*
Y4160*
X4734Y4154*
X4713*
X4708Y4160*
Y4170*
X4713Y4175*
X4708Y4207D02*
Y4186D01*
X4729Y4207*
X4734*
X4740Y4202*
Y4191*
X4734Y4186*
X4708Y4238D02*
Y4217D01*
X4729Y4238*
X4734*
X4740Y4233*
Y4223*
X4734Y4217*
Y4249D02*
X4740Y4254D01*
Y4265*
X4734Y4270*
X4729*
X4724Y4265*
Y4259*
Y4265*
X4719Y4270*
X4713*
X4708Y4265*
Y4254*
X4713Y4249*
X4793Y4175D02*
X4799Y4170D01*
Y4160*
X4793Y4154*
X4772*
X4767Y4160*
Y4170*
X4772Y4175*
X4767Y4207D02*
Y4186D01*
X4788Y4207*
X4793*
X4799Y4202*
Y4191*
X4793Y4186*
X4767Y4238D02*
Y4217D01*
X4788Y4238*
X4793*
X4799Y4233*
Y4223*
X4793Y4217*
X4767Y4270D02*
Y4249D01*
X4788Y4270*
X4793*
X4799Y4265*
Y4254*
X4793Y4249*
X2664Y3876D02*
X2669Y3871D01*
Y3860*
X2664Y3855*
X2643*
X2637Y3860*
Y3871*
X2643Y3876*
X2637Y3907D02*
Y3887D01*
X2658Y3907*
X2664*
X2669Y3902*
Y3892*
X2664Y3887*
X2637Y3939D02*
Y3918D01*
X2658Y3939*
X2664*
X2669Y3934*
Y3923*
X2664Y3918*
X2637Y3949D02*
Y3960D01*
Y3955*
X2669*
X2664Y3949*
X2790Y3876D02*
X2795Y3871D01*
Y3860*
X2790Y3855*
X2769*
X2763Y3860*
Y3871*
X2769Y3876*
X2763Y3907D02*
Y3887D01*
X2784Y3907*
X2790*
X2795Y3902*
Y3892*
X2790Y3887*
X2763Y3939D02*
Y3918D01*
X2784Y3939*
X2790*
X2795Y3934*
Y3923*
X2790Y3918*
Y3949D02*
X2795Y3955D01*
Y3965*
X2790Y3970*
X2769*
X2763Y3965*
Y3955*
X2769Y3949*
X2790*
X965Y3525D02*
X970Y3520D01*
Y3510*
X965Y3504*
X944*
X938Y3510*
Y3520*
X944Y3525*
X938Y3557D02*
Y3536D01*
X959Y3557*
X965*
X970Y3551*
Y3541*
X965Y3536*
X938Y3567D02*
Y3578D01*
Y3572*
X970*
X965Y3567*
Y3593D02*
X970Y3599D01*
Y3609*
X965Y3614*
X944*
X938Y3609*
Y3599*
X944Y3593*
X965*
X1975Y2195D02*
X1980Y2200D01*
X1991*
X1996Y2195*
Y2174*
X1991Y2169*
X1980*
X1975Y2174*
X1944Y2169D02*
X1965D01*
X1944Y2190*
Y2195*
X1949Y2200*
X1959*
X1965Y2195*
X1933D02*
X1928Y2200D01*
X1917*
X1912Y2195*
Y2174*
X1917Y2169*
X1928*
X1933Y2174*
Y2195*
X1881Y2200D02*
X1891Y2195D01*
X1902Y2185*
Y2174*
X1896Y2169*
X1886*
X1881Y2174*
Y2179*
X1886Y2185*
X1902*
X5765Y1503D02*
X5773D01*
X5780Y1495*
Y1488*
X5765Y1473*
X5758*
X5750Y1480*
Y1488*
X5724Y1506D02*
X5739Y1491D01*
Y1521*
X5743Y1525*
X5750*
X5758Y1517*
Y1510*
X5735Y1532D02*
Y1540D01*
X5728Y1547*
X5721*
X5706Y1532*
Y1525*
X5713Y1517*
X5721*
X5735Y1532*
X5713Y1555D02*
Y1562D01*
X5706Y1569*
X5698*
X5684Y1555*
Y1547*
X5691Y1540*
X5698*
X5713Y1555*
X5198Y1169D02*
X5203Y1175D01*
X5214*
X5219Y1169*
Y1148*
X5214Y1143*
X5203*
X5198Y1148*
X5187Y1143D02*
X5177D01*
X5182*
Y1175*
X5187Y1169*
X5161Y1148D02*
X5156Y1143D01*
X5145*
X5140Y1148*
Y1169*
X5145Y1175*
X5156*
X5161Y1169*
Y1164*
X5156Y1159*
X5140*
X5130Y1169D02*
X5124Y1175D01*
X5114*
X5109Y1169*
Y1164*
X5114Y1159*
X5109Y1154*
Y1148*
X5114Y1143*
X5124*
X5130Y1148*
Y1154*
X5124Y1159*
X5130Y1164*
Y1169*
X5124Y1159D02*
X5114D01*
X5288Y1240D02*
X5293Y1246D01*
X5303*
X5309Y1240*
Y1219*
X5303Y1214*
X5293*
X5288Y1219*
X5277Y1214D02*
X5267D01*
X5272*
Y1246*
X5277Y1240*
X5251Y1219D02*
X5246Y1214D01*
X5235*
X5230Y1219*
Y1240*
X5235Y1246*
X5246*
X5251Y1240*
Y1235*
X5246Y1230*
X5230*
X5219Y1246D02*
X5198D01*
Y1240*
X5219Y1219*
Y1214*
X5205Y949D02*
X5210Y954D01*
X5221*
X5226Y949*
Y928*
X5221Y923*
X5210*
X5205Y928*
X5194Y923D02*
X5184D01*
X5189*
Y954*
X5194Y949*
X5168Y928D02*
X5163Y923D01*
X5152*
X5147Y928*
Y949*
X5152Y954*
X5163*
X5168Y949*
Y944*
X5163Y938*
X5147*
X5116Y954D02*
X5126Y949D01*
X5137Y938*
Y928*
X5131Y923*
X5121*
X5116Y928*
Y933*
X5121Y938*
X5137*
X5467Y1402D02*
X5472Y1407D01*
X5482*
X5488Y1402*
Y1381*
X5482Y1375*
X5472*
X5467Y1381*
X5456Y1375D02*
X5446D01*
X5451*
Y1407*
X5456Y1402*
X5430Y1381D02*
X5425Y1375D01*
X5414*
X5409Y1381*
Y1402*
X5414Y1407*
X5425*
X5430Y1402*
Y1396*
X5425Y1391*
X5409*
X5377Y1407D02*
X5398D01*
Y1391*
X5388Y1396*
X5383*
X5377Y1391*
Y1381*
X5383Y1375*
X5393*
X5398Y1381*
X4833Y1602D02*
X4838Y1597D01*
Y1587*
X4833Y1581*
X4812*
X4807Y1587*
Y1597*
X4812Y1602*
X4807Y1613D02*
Y1623D01*
Y1618*
X4838*
X4833Y1613*
X4812Y1639D02*
X4807Y1644D01*
Y1655*
X4812Y1660*
X4833*
X4838Y1655*
Y1644*
X4833Y1639*
X4828*
X4822Y1644*
Y1660*
X4807Y1671D02*
Y1681D01*
Y1676*
X4838*
X4833Y1671*
X4715Y1602D02*
X4720Y1597D01*
Y1587*
X4715Y1581*
X4694*
X4688Y1587*
Y1597*
X4694Y1602*
X4688Y1613D02*
Y1623D01*
Y1618*
X4720*
X4715Y1613*
X4694Y1639D02*
X4688Y1644D01*
Y1655*
X4694Y1660*
X4715*
X4720Y1655*
Y1644*
X4715Y1639*
X4709*
X4704Y1644*
Y1660*
X4715Y1671D02*
X4720Y1676D01*
Y1686*
X4715Y1692*
X4694*
X4688Y1686*
Y1676*
X4694Y1671*
X4715*
X4457Y1127D02*
X4462Y1122D01*
Y1111*
X4457Y1106*
X4436*
X4431Y1111*
Y1122*
X4436Y1127*
X4431Y1137D02*
Y1148D01*
Y1143*
X4462*
X4457Y1137*
Y1164D02*
X4462Y1169D01*
Y1179*
X4457Y1185*
X4452*
X4446Y1179*
X4441Y1185*
X4436*
X4431Y1179*
Y1169*
X4436Y1164*
X4441*
X4446Y1169*
X4452Y1164*
X4457*
X4446Y1169D02*
Y1179D01*
X4436Y1195D02*
X4431Y1200D01*
Y1211*
X4436Y1216*
X4457*
X4462Y1211*
Y1200*
X4457Y1195*
X4452*
X4446Y1200*
Y1216*
X4242Y1602D02*
X4248Y1597D01*
Y1587*
X4242Y1581*
X4221*
X4216Y1587*
Y1597*
X4221Y1602*
X4216Y1613D02*
Y1623D01*
Y1618*
X4248*
X4242Y1613*
Y1639D02*
X4248Y1644D01*
Y1655*
X4242Y1660*
X4237*
X4232Y1655*
X4227Y1660*
X4221*
X4216Y1655*
Y1644*
X4221Y1639*
X4227*
X4232Y1644*
X4237Y1639*
X4242*
X4232Y1644D02*
Y1655D01*
X4248Y1671D02*
Y1692D01*
X4242*
X4221Y1671*
X4216*
X4124Y1602D02*
X4129Y1597D01*
Y1587*
X4124Y1581*
X4103*
X4098Y1587*
Y1597*
X4103Y1602*
X4098Y1613D02*
Y1623D01*
Y1618*
X4129*
X4124Y1613*
Y1639D02*
X4129Y1644D01*
Y1655*
X4124Y1660*
X4119*
X4114Y1655*
X4108Y1660*
X4103*
X4098Y1655*
Y1644*
X4103Y1639*
X4108*
X4114Y1644*
X4119Y1639*
X4124*
X4114Y1644D02*
Y1655D01*
X4129Y1692D02*
X4124Y1681D01*
X4114Y1671*
X4103*
X4098Y1676*
Y1686*
X4103Y1692*
X4108*
X4114Y1686*
Y1671*
X3866Y1127D02*
X3872Y1122D01*
Y1111*
X3866Y1106*
X3845*
X3840Y1111*
Y1122*
X3845Y1127*
X3840Y1137D02*
Y1148D01*
Y1143*
X3872*
X3866Y1137*
Y1164D02*
X3872Y1169D01*
Y1179*
X3866Y1185*
X3861*
X3856Y1179*
X3851Y1185*
X3845*
X3840Y1179*
Y1169*
X3845Y1164*
X3851*
X3856Y1169*
X3861Y1164*
X3866*
X3856Y1169D02*
Y1179D01*
X3872Y1216D02*
Y1195D01*
X3856*
X3861Y1206*
Y1211*
X3856Y1216*
X3845*
X3840Y1211*
Y1200*
X3845Y1195*
X3656Y1607D02*
X3661Y1602D01*
Y1591*
X3656Y1586*
X3635*
X3629Y1591*
Y1602*
X3635Y1607*
X3629Y1618D02*
Y1628D01*
Y1623*
X3661*
X3656Y1618*
Y1644D02*
X3661Y1649D01*
Y1660*
X3656Y1665*
X3650*
X3645Y1660*
X3640Y1665*
X3635*
X3629Y1660*
Y1649*
X3635Y1644*
X3640*
X3645Y1649*
X3650Y1644*
X3656*
X3645Y1649D02*
Y1660D01*
X3629Y1691D02*
X3661D01*
X3645Y1675*
Y1696*
X3530Y1605D02*
X3535Y1600D01*
Y1589*
X3530Y1584*
X3509*
X3503Y1589*
Y1600*
X3509Y1605*
X3503Y1616D02*
Y1626D01*
Y1621*
X3535*
X3530Y1616*
Y1642D02*
X3535Y1647D01*
Y1658*
X3530Y1663*
X3524*
X3519Y1658*
X3514Y1663*
X3509*
X3503Y1658*
Y1647*
X3509Y1642*
X3514*
X3519Y1647*
X3524Y1642*
X3530*
X3519Y1647D02*
Y1658D01*
X3530Y1673D02*
X3535Y1679D01*
Y1689*
X3530Y1694*
X3524*
X3519Y1689*
Y1684*
Y1689*
X3514Y1694*
X3509*
X3503Y1689*
Y1679*
X3509Y1673*
X3276Y1127D02*
X3281Y1122D01*
Y1111*
X3276Y1106*
X3255*
X3250Y1111*
Y1122*
X3255Y1127*
X3250Y1137D02*
Y1148D01*
Y1143*
X3281*
X3276Y1137*
X3281Y1164D02*
Y1185D01*
X3276*
X3255Y1164*
X3250*
X3281Y1216D02*
Y1195D01*
X3265*
X3271Y1206*
Y1211*
X3265Y1216*
X3255*
X3250Y1211*
Y1200*
X3255Y1195*
X2124Y2393D02*
X2129Y2387D01*
Y2377*
X2124Y2372*
X2103*
X2098Y2377*
Y2387*
X2103Y2393*
X2098Y2403D02*
Y2414D01*
Y2408*
X2129*
X2124Y2403*
X2129Y2429D02*
Y2450D01*
X2124*
X2103Y2429*
X2098*
Y2477D02*
X2129D01*
X2114Y2461*
Y2482*
X2569Y2418D02*
X2574Y2413D01*
Y2402*
X2569Y2397*
X2548*
X2543Y2402*
Y2413*
X2548Y2418*
X2543Y2429D02*
Y2439D01*
Y2434*
X2574*
X2569Y2429*
X2574Y2455D02*
Y2476D01*
X2569*
X2548Y2455*
X2543*
X2569Y2486D02*
X2574Y2492D01*
Y2502*
X2569Y2507*
X2548*
X2543Y2502*
Y2492*
X2548Y2486*
X2569*
X2595Y2538D02*
X2590Y2543D01*
Y2553*
X2595Y2559*
X2616*
X2622Y2553*
Y2543*
X2616Y2538*
X2622Y2527D02*
Y2517D01*
Y2522*
X2590*
X2595Y2527*
X2590Y2480D02*
X2595Y2490D01*
X2606Y2501*
X2616*
X2622Y2496*
Y2485*
X2616Y2480*
X2611*
X2606Y2485*
Y2501*
X2616Y2469D02*
X2622Y2464D01*
Y2454*
X2616Y2448*
X2595*
X2590Y2454*
Y2464*
X2595Y2469*
X2601*
X2606Y2464*
Y2448*
X2124Y2546D02*
X2129Y2541D01*
Y2530*
X2124Y2525*
X2103*
X2098Y2530*
Y2541*
X2103Y2546*
X2098Y2557D02*
Y2567D01*
Y2562*
X2129*
X2124Y2557*
X2129Y2604D02*
X2124Y2593D01*
X2114Y2583*
X2103*
X2098Y2588*
Y2599*
X2103Y2604*
X2108*
X2114Y2599*
Y2583*
X2124Y2614D02*
X2129Y2620D01*
Y2630*
X2124Y2635*
X2119*
X2114Y2630*
X2108Y2635*
X2103*
X2098Y2630*
Y2620*
X2103Y2614*
X2108*
X2114Y2620*
X2119Y2614*
X2124*
X2114Y2620D02*
Y2630D01*
X2054Y2549D02*
X2049Y2555D01*
Y2565*
X2054Y2570*
X2075*
X2080Y2565*
Y2555*
X2075Y2549*
X2080Y2539D02*
Y2528D01*
Y2534*
X2049*
X2054Y2539*
X2049Y2492D02*
Y2513D01*
X2064*
X2059Y2502*
Y2497*
X2064Y2492*
X2075*
X2080Y2497*
Y2507*
X2075Y2513*
X2054Y2481D02*
X2049Y2476D01*
Y2465*
X2054Y2460*
X2059*
X2064Y2465*
X2070Y2460*
X2075*
X2080Y2465*
Y2476*
X2075Y2481*
X2070*
X2064Y2476*
X2059Y2481*
X2054*
X2064Y2476D02*
Y2465D01*
X3061Y1602D02*
X3066Y1597D01*
Y1587*
X3061Y1581*
X3040*
X3035Y1587*
Y1597*
X3040Y1602*
X3035Y1613D02*
Y1623D01*
Y1618*
X3066*
X3061Y1613*
X3066Y1660D02*
Y1639D01*
X3051*
X3056Y1650*
Y1655*
X3051Y1660*
X3040*
X3035Y1655*
Y1644*
X3040Y1639*
X3066Y1671D02*
Y1692D01*
X3061*
X3040Y1671*
X3035*
X2943Y1602D02*
X2948Y1597D01*
Y1587*
X2943Y1581*
X2922*
X2917Y1587*
Y1597*
X2922Y1602*
X2917Y1613D02*
Y1623D01*
Y1618*
X2948*
X2943Y1613*
X2948Y1660D02*
Y1639D01*
X2933*
X2938Y1650*
Y1655*
X2933Y1660*
X2922*
X2917Y1655*
Y1644*
X2922Y1639*
X2948Y1692D02*
X2943Y1681D01*
X2933Y1671*
X2922*
X2917Y1676*
Y1686*
X2922Y1692*
X2927*
X2933Y1686*
Y1671*
X3815Y1538D02*
X3820Y1543D01*
X3831*
X3836Y1538*
Y1517*
X3831Y1511*
X3820*
X3815Y1517*
X3805Y1511D02*
X3794D01*
X3799*
Y1543*
X3805Y1538*
X3757Y1543D02*
X3778D01*
Y1527*
X3768Y1532*
X3763*
X3757Y1527*
Y1517*
X3763Y1511*
X3773*
X3778Y1517*
X3726Y1543D02*
X3747D01*
Y1527*
X3736Y1532*
X3731*
X3726Y1527*
Y1517*
X3731Y1511*
X3742*
X3747Y1517*
X4006Y1538D02*
X4011Y1543D01*
X4022*
X4027Y1538*
Y1517*
X4022Y1511*
X4011*
X4006Y1517*
X3996Y1511D02*
X3985D01*
X3990*
Y1543*
X3996Y1538*
X3948Y1543D02*
X3969D01*
Y1527*
X3959Y1532*
X3954*
X3948Y1527*
Y1517*
X3954Y1511*
X3964*
X3969Y1517*
X3922Y1511D02*
Y1543D01*
X3938Y1527*
X3917*
X2681Y1127D02*
X2687Y1122D01*
Y1111*
X2681Y1106*
X2660*
X2655Y1111*
Y1122*
X2660Y1127*
X2655Y1137D02*
Y1148D01*
Y1143*
X2687*
X2681Y1137*
X2687Y1185D02*
Y1164D01*
X2671*
X2676Y1174*
Y1179*
X2671Y1185*
X2660*
X2655Y1179*
Y1169*
X2660Y1164*
X2681Y1195D02*
X2687Y1200D01*
Y1211*
X2681Y1216*
X2660*
X2655Y1211*
Y1200*
X2660Y1195*
X2681*
X1935Y3604D02*
X1940Y3599D01*
Y3588*
X1935Y3583*
X1914*
X1909Y3588*
Y3599*
X1914Y3604*
X1909Y3614D02*
Y3625D01*
Y3620*
X1940*
X1935Y3614*
X1909Y3656D02*
X1940D01*
X1925Y3641*
Y3662*
X1914Y3672D02*
X1909Y3677D01*
Y3688*
X1914Y3693*
X1935*
X1940Y3688*
Y3677*
X1935Y3672*
X1930*
X1925Y3677*
Y3693*
X1817Y3604D02*
X1822Y3599D01*
Y3588*
X1817Y3583*
X1796*
X1791Y3588*
Y3599*
X1796Y3604*
X1791Y3614D02*
Y3625D01*
Y3620*
X1822*
X1817Y3614*
X1791Y3656D02*
X1822D01*
X1807Y3641*
Y3662*
X1817Y3672D02*
X1822Y3677D01*
Y3688*
X1817Y3693*
X1812*
X1807Y3688*
X1801Y3693*
X1796*
X1791Y3688*
Y3677*
X1796Y3672*
X1801*
X1807Y3677*
X1812Y3672*
X1817*
X1807Y3677D02*
Y3688D01*
X2490Y1602D02*
X2496Y1597D01*
Y1587*
X2490Y1581*
X2469*
X2464Y1587*
Y1597*
X2469Y1602*
X2464Y1613D02*
Y1623D01*
Y1618*
X2496*
X2490Y1613*
X2464Y1655D02*
X2496D01*
X2480Y1639*
Y1660*
X2496Y1671D02*
Y1692D01*
X2490*
X2469Y1671*
X2464*
X2372Y1602D02*
X2377Y1597D01*
Y1587*
X2372Y1581*
X2351*
X2346Y1587*
Y1597*
X2351Y1602*
X2346Y1613D02*
Y1623D01*
Y1618*
X2377*
X2372Y1613*
X2346Y1655D02*
X2377D01*
X2362Y1639*
Y1660*
X2377Y1692D02*
X2372Y1681D01*
X2362Y1671*
X2351*
X2346Y1676*
Y1686*
X2351Y1692*
X2356*
X2362Y1686*
Y1671*
X2845Y1546D02*
X2850Y1551D01*
X2860*
X2866Y1546*
Y1525*
X2860Y1520*
X2850*
X2845Y1525*
X2834Y1520D02*
X2824D01*
X2829*
Y1551*
X2834Y1546*
X2792Y1520D02*
Y1551D01*
X2808Y1535*
X2787*
X2776Y1546D02*
X2771Y1551D01*
X2761*
X2755Y1546*
Y1540*
X2761Y1535*
X2766*
X2761*
X2755Y1530*
Y1525*
X2761Y1520*
X2771*
X2776Y1525*
X2656Y1546D02*
X2661Y1551D01*
X2671*
X2677Y1546*
Y1525*
X2671Y1520*
X2661*
X2656Y1525*
X2645Y1520D02*
X2635D01*
X2640*
Y1551*
X2645Y1546*
X2603Y1520D02*
Y1551D01*
X2619Y1535*
X2598*
X2566Y1520D02*
X2587D01*
X2566Y1540*
Y1546*
X2572Y1551*
X2582*
X2587Y1546*
X1811Y4109D02*
X1816Y4104D01*
Y4093*
X1811Y4088*
X1790*
X1785Y4093*
Y4104*
X1790Y4109*
X1785Y4120D02*
Y4130D01*
Y4125*
X1816*
X1811Y4120*
X1785Y4162D02*
X1816D01*
X1801Y4146*
Y4167*
X1811Y4177D02*
X1816Y4183D01*
Y4193*
X1811Y4198*
X1790*
X1785Y4193*
Y4183*
X1790Y4177*
X1811*
X2095Y1139D02*
X2100Y1133D01*
Y1123*
X2095Y1118*
X2074*
X2068Y1123*
Y1133*
X2074Y1139*
X2068Y1149D02*
Y1160D01*
Y1154*
X2100*
X2095Y1149*
Y1175D02*
X2100Y1181D01*
Y1191*
X2095Y1196*
X2089*
X2084Y1191*
Y1186*
Y1191*
X2079Y1196*
X2074*
X2068Y1191*
Y1181*
X2074Y1175*
Y1207D02*
X2068Y1212D01*
Y1223*
X2074Y1228*
X2095*
X2100Y1223*
Y1212*
X2095Y1207*
X2089*
X2084Y1212*
Y1228*
X5171Y2415D02*
X5177Y2410D01*
Y2399*
X5171Y2394*
X5150*
X5145Y2399*
Y2410*
X5150Y2415*
X5145Y2425D02*
Y2436D01*
Y2431*
X5177*
X5171Y2425*
X5145Y2452D02*
Y2462D01*
Y2457*
X5177*
X5171Y2452*
X5177Y2478D02*
Y2499D01*
X5171*
X5150Y2478*
X5145*
X2307Y2303D02*
X2312Y2309D01*
X2323*
X2328Y2303*
Y2282*
X2323Y2277*
X2312*
X2307Y2282*
X2297Y2277D02*
X2286D01*
X2291*
Y2309*
X2297Y2303*
X2271D02*
X2265Y2309D01*
X2255*
X2250Y2303*
Y2282*
X2255Y2277*
X2265*
X2271Y2282*
Y2303*
X2239D02*
X2234Y2309D01*
X2223*
X2218Y2303*
Y2298*
X2223Y2293*
X2229*
X2223*
X2218Y2288*
Y2282*
X2223Y2277*
X2234*
X2239Y2282*
X6110Y2240D02*
Y2248D01*
X6118Y2255*
X6125*
X6140Y2240*
Y2233*
X6132Y2225*
X6125*
X6118Y2218D02*
Y2211D01*
X6110Y2203*
X6103*
X6088Y2218*
Y2225*
X6095Y2233*
X6103*
X6106Y2229*
Y2222*
X6095Y2211*
X6088Y2181D02*
X6066Y2203D01*
X6088*
X6073Y2188*
X3912Y2069D02*
X3917Y2064D01*
Y2053*
X3912Y2048*
X3891*
X3885Y2053*
Y2064*
X3891Y2069*
X3912Y2080D02*
X3917Y2085D01*
Y2095*
X3912Y2101*
X3906*
X3901Y2095*
X3896Y2101*
X3891*
X3885Y2095*
Y2085*
X3891Y2080*
X3896*
X3901Y2085*
X3906Y2080*
X3912*
X3901Y2085D02*
Y2095D01*
X3912Y2111D02*
X3917Y2116D01*
Y2127*
X3912Y2132*
X3906*
X3901Y2127*
Y2122*
Y2127*
X3896Y2132*
X3891*
X3885Y2127*
Y2116*
X3891Y2111*
X3829Y2065D02*
X3834Y2060D01*
Y2050*
X3829Y2044*
X3808*
X3803Y2050*
Y2060*
X3808Y2065*
X3829Y2076D02*
X3834Y2081D01*
Y2092*
X3829Y2097*
X3824*
X3818Y2092*
X3813Y2097*
X3808*
X3803Y2092*
Y2081*
X3808Y2076*
X3813*
X3818Y2081*
X3824Y2076*
X3829*
X3818Y2081D02*
Y2092D01*
X3803Y2128D02*
Y2107D01*
X3824Y2128*
X3829*
X3834Y2123*
Y2113*
X3829Y2107*
X5608Y3654D02*
X5614Y3648D01*
Y3638*
X5608Y3633*
X5587*
X5582Y3638*
Y3648*
X5587Y3654*
X5614Y3664D02*
Y3685D01*
X5608*
X5587Y3664*
X5582*
X5614Y3717D02*
Y3696D01*
X5598*
X5603Y3706*
Y3711*
X5598Y3717*
X5587*
X5582Y3711*
Y3701*
X5587Y3696*
X3730Y2065D02*
X3736Y2060D01*
Y2050*
X3730Y2044*
X3709*
X3704Y2050*
Y2060*
X3709Y2065*
X3736Y2097D02*
X3730Y2086D01*
X3720Y2076*
X3709*
X3704Y2081*
Y2092*
X3709Y2097*
X3715*
X3720Y2092*
Y2076*
X3730Y2107D02*
X3736Y2113D01*
Y2123*
X3730Y2128*
X3725*
X3720Y2123*
X3715Y2128*
X3709*
X3704Y2123*
Y2113*
X3709Y2107*
X3715*
X3720Y2113*
X3725Y2107*
X3730*
X3720Y2113D02*
Y2123D01*
X3833Y2847D02*
X3839Y2852D01*
X3849*
X3854Y2847*
Y2826*
X3849Y2820*
X3839*
X3833Y2826*
X3802Y2852D02*
X3812Y2847D01*
X3823Y2836*
Y2826*
X3818Y2820*
X3807*
X3802Y2826*
Y2831*
X3807Y2836*
X3823*
X3792Y2852D02*
X3771D01*
Y2847*
X3792Y2826*
Y2820*
X3977Y2929D02*
X3982Y2924D01*
Y2914*
X3977Y2908*
X3956*
X3950Y2914*
Y2924*
X3956Y2929*
X3982Y2961D02*
X3977Y2950D01*
X3966Y2940*
X3956*
X3950Y2945*
Y2956*
X3956Y2961*
X3961*
X3966Y2956*
Y2940*
X3982Y2992D02*
X3977Y2982D01*
X3966Y2971*
X3956*
X3950Y2977*
Y2987*
X3956Y2992*
X3961*
X3966Y2987*
Y2971*
X3864Y2933D02*
X3870Y2928D01*
Y2917*
X3864Y2912*
X3843*
X3838Y2917*
Y2928*
X3843Y2933*
X3870Y2965D02*
X3864Y2954D01*
X3854Y2944*
X3843*
X3838Y2949*
Y2959*
X3843Y2965*
X3849*
X3854Y2959*
Y2944*
X3870Y2996D02*
Y2975D01*
X3854*
X3859Y2986*
Y2991*
X3854Y2996*
X3843*
X3838Y2991*
Y2980*
X3843Y2975*
X3780Y2065D02*
X3785Y2060D01*
Y2050*
X3780Y2044*
X3759*
X3753Y2050*
Y2060*
X3759Y2065*
X3785Y2097D02*
X3780Y2086D01*
X3769Y2076*
X3759*
X3753Y2081*
Y2092*
X3759Y2097*
X3764*
X3769Y2092*
Y2076*
X3753Y2123D02*
X3785D01*
X3769Y2107*
Y2128*
X6209Y2441D02*
X6215Y2446D01*
X6225*
X6230Y2441*
Y2420*
X6225Y2415*
X6215*
X6209Y2420*
X6178Y2446D02*
X6199D01*
Y2431*
X6188Y2436*
X6183*
X6178Y2431*
Y2420*
X6183Y2415*
X6194*
X6199Y2420*
X6167D02*
X6162Y2415D01*
X6152*
X6147Y2420*
Y2441*
X6152Y2446*
X6162*
X6167Y2441*
Y2436*
X6162Y2431*
X6147*
X2299Y2016D02*
X2304Y2021D01*
X2314*
X2320Y2016*
Y1995*
X2314Y1990*
X2304*
X2299Y1995*
X2267Y2021D02*
X2288D01*
Y2005*
X2278Y2011*
X2272*
X2267Y2005*
Y1995*
X2272Y1990*
X2283*
X2288Y1995*
X2257Y1990D02*
X2246D01*
X2251*
Y2021*
X2257Y2016*
X6209Y2805D02*
X6214Y2800D01*
Y2790*
X6209Y2784*
X6188*
X6183Y2790*
Y2800*
X6188Y2805*
X6183Y2832D02*
X6214D01*
X6198Y2816*
Y2837*
X6188Y2847D02*
X6183Y2853D01*
Y2863*
X6188Y2868*
X6209*
X6214Y2863*
Y2853*
X6209Y2847*
X6204*
X6198Y2853*
Y2868*
X2643Y1801D02*
X2648Y1807D01*
X2658*
X2664Y1801*
Y1780*
X2658Y1775*
X2648*
X2643Y1780*
X2616Y1775D02*
Y1807D01*
X2632Y1791*
X2611*
X2601Y1801D02*
X2595Y1807D01*
X2585*
X2580Y1801*
Y1796*
X2585Y1791*
X2580Y1786*
Y1780*
X2585Y1775*
X2595*
X2601Y1780*
Y1786*
X2595Y1791*
X2601Y1796*
Y1801*
X2595Y1791D02*
X2585D01*
X2372Y2142D02*
X2377Y2137D01*
Y2126*
X2372Y2121*
X2351*
X2346Y2126*
Y2137*
X2351Y2142*
X2346Y2168D02*
X2377D01*
X2362Y2152*
Y2173*
X2377Y2184D02*
Y2205D01*
X2372*
X2351Y2184*
X2346*
X2717Y1866D02*
X2722Y1861D01*
Y1851*
X2717Y1845*
X2696*
X2690Y1851*
Y1861*
X2696Y1866*
X2690Y1893D02*
X2722D01*
X2706Y1877*
Y1898*
X2722Y1929D02*
X2717Y1919D01*
X2706Y1908*
X2696*
X2690Y1914*
Y1924*
X2696Y1929*
X2701*
X2706Y1924*
Y1908*
X2766Y1866D02*
X2771Y1861D01*
Y1851*
X2766Y1845*
X2745*
X2740Y1851*
Y1861*
X2745Y1866*
X2740Y1893D02*
X2771D01*
X2755Y1877*
Y1898*
X2771Y1929D02*
Y1908D01*
X2755*
X2761Y1919*
Y1924*
X2755Y1929*
X2745*
X2740Y1924*
Y1914*
X2745Y1908*
X2865Y1801D02*
X2870Y1807D01*
X2881*
X2886Y1801*
Y1780*
X2881Y1775*
X2870*
X2865Y1780*
X2854Y1801D02*
X2849Y1807D01*
X2839*
X2833Y1801*
Y1796*
X2839Y1791*
X2844*
X2839*
X2833Y1786*
Y1780*
X2839Y1775*
X2849*
X2854Y1780*
X2802Y1807D02*
X2813Y1801D01*
X2823Y1791*
Y1780*
X2818Y1775*
X2807*
X2802Y1780*
Y1786*
X2807Y1791*
X2823*
X2643Y1752D02*
X2648Y1757D01*
X2658*
X2664Y1752*
Y1731*
X2658Y1726*
X2648*
X2643Y1731*
X2632Y1752D02*
X2627Y1757D01*
X2616*
X2611Y1752*
Y1747*
X2616Y1742*
X2622*
X2616*
X2611Y1736*
Y1731*
X2616Y1726*
X2627*
X2632Y1731*
X2580Y1757D02*
X2601D01*
Y1742*
X2590Y1747*
X2585*
X2580Y1742*
Y1731*
X2585Y1726*
X2595*
X2601Y1731*
X2713Y1754D02*
X2718Y1749D01*
Y1738*
X2713Y1733*
X2692*
X2687Y1738*
Y1749*
X2692Y1754*
X2713Y1765D02*
X2718Y1770D01*
Y1780*
X2713Y1786*
X2708*
X2702Y1780*
Y1775*
Y1780*
X2697Y1786*
X2692*
X2687Y1780*
Y1770*
X2692Y1765*
X2687Y1812D02*
X2718D01*
X2702Y1796*
Y1817*
X2766Y1754D02*
X2771Y1749D01*
Y1738*
X2766Y1733*
X2745*
X2740Y1738*
Y1749*
X2745Y1754*
X2766Y1765D02*
X2771Y1770D01*
Y1780*
X2766Y1786*
X2761*
X2755Y1780*
Y1775*
Y1780*
X2750Y1786*
X2745*
X2740Y1780*
Y1770*
X2745Y1765*
X2766Y1796D02*
X2771Y1801D01*
Y1812*
X2766Y1817*
X2761*
X2755Y1812*
Y1807*
Y1812*
X2750Y1817*
X2745*
X2740Y1812*
Y1801*
X2745Y1796*
X6043Y2809D02*
X6049Y2803D01*
Y2793*
X6043Y2788*
X6022*
X6017Y2793*
Y2803*
X6022Y2809*
X6043Y2819D02*
X6049Y2824D01*
Y2835*
X6043Y2840*
X6038*
X6033Y2835*
Y2830*
Y2835*
X6028Y2840*
X6022*
X6017Y2835*
Y2824*
X6022Y2819*
X6017Y2851D02*
Y2861D01*
Y2856*
X6049*
X6043Y2851*
X2284Y1957D02*
X2290Y1962D01*
X2300*
X2305Y1957*
Y1936*
X2300Y1931*
X2290*
X2284Y1936*
X2253Y1931D02*
X2274D01*
X2253Y1952*
Y1957*
X2258Y1962*
X2269*
X2274Y1957*
X2221Y1931D02*
X2242D01*
X2221Y1952*
Y1957*
X2227Y1962*
X2237*
X2242Y1957*
X2279Y1908D02*
X2284Y1913D01*
X2295*
X2300Y1908*
Y1887*
X2295Y1881*
X2284*
X2279Y1887*
X2248Y1881D02*
X2269D01*
X2248Y1902*
Y1908*
X2253Y1913*
X2263*
X2269Y1908*
X2237Y1881D02*
X2227D01*
X2232*
Y1913*
X2237Y1908*
X2284Y1858D02*
X2290Y1864D01*
X2300*
X2305Y1858*
Y1837*
X2300Y1832*
X2290*
X2284Y1837*
X2253Y1832D02*
X2274D01*
X2253Y1853*
Y1858*
X2258Y1864*
X2269*
X2274Y1858*
X2242D02*
X2237Y1864D01*
X2227*
X2221Y1858*
Y1837*
X2227Y1832*
X2237*
X2242Y1837*
Y1858*
G54D18*
X2631Y3622D02*
X2661Y3592D01*
X2464Y3622D02*
X2631D01*
X2661Y3580D02*
Y3592D01*
X2687Y3580D02*
Y3612D01*
X2492Y3688D02*
X2529Y3651D01*
X2464Y3688D02*
X2492D01*
X2647Y3651D02*
X2687Y3612D01*
X2529Y3651D02*
X2647D01*
X1204Y4293D02*
X1216D01*
X1210*
Y4263*
X1216Y4257*
X1222*
X1228Y4263*
X1192Y4293D02*
Y4257D01*
X1169*
X1133Y4287D02*
X1139Y4293D01*
X1151*
X1157Y4287*
Y4263*
X1151Y4257*
X1139*
X1133Y4263*
X1098Y4293D02*
X1110D01*
X1104*
Y4263*
X1110Y4257*
X1116*
X1121Y4263*
X1086Y4293D02*
Y4257D01*
X1062*
X1027Y4287D02*
X1033Y4293D01*
X1045*
X1051Y4287*
Y4263*
X1045Y4257*
X1033*
X1027Y4263*
X992Y4293D02*
X1003D01*
X997*
Y4263*
X1003Y4257*
X1009*
X1015Y4263*
X980Y4293D02*
Y4257D01*
X956*
X921Y4287D02*
X927Y4293D01*
X938*
X944Y4287*
Y4263*
X938Y4257*
X927*
X921Y4263*
X885Y4293D02*
X897D01*
X891*
Y4263*
X897Y4257*
X903*
X909Y4263*
X874Y4293D02*
Y4257D01*
X850*
X814Y4287D02*
X820Y4293D01*
X832*
X838Y4287*
Y4263*
X832Y4257*
X820*
X814Y4263*
G54D243*
X3513Y2401D02*
X3566Y2348D01*
X3736*
X3444Y2401D02*
Y2637D01*
Y2401D02*
X3513D01*
X3736Y2348D02*
X3799Y2411D01*
X2824Y2480D02*
X3179D01*
X2722Y2377D02*
X2824Y2480D01*
X3799Y2411D02*
X3927D01*
X3179Y1811D02*
Y2480D01*
X3326Y2106D02*
X3444Y2224D01*
Y2401*
X3179Y2106D02*
X3326D01*
X3927Y2411D02*
Y2746D01*
X3494Y2687D02*
X3651D01*
X3444Y2637D02*
X3494Y2687D01*
X3710Y2746D02*
X3927D01*
X3651Y2687D02*
X3710Y2746D01*
X2240Y2377D02*
X2722D01*
X2194Y1811D02*
X2470D01*
X2578Y1702*
X2194Y2332D02*
X2240Y2377D01*
X2194Y1811D02*
Y2332D01*
X2578Y1702D02*
X2854D01*
X2962Y1811*
X3179*
M02*