%FSLAX23Y23*%
%MOIN*%
%SFA1B1*%

%IPPOS*%
%AMD110*
4,1,8,0.025600,0.021200,-0.025600,0.021200,-0.031000,0.015700,-0.031000,-0.015700,-0.025600,-0.021200,0.025600,-0.021200,0.031000,-0.015700,0.031000,0.015700,0.025600,0.021200,0.0*
1,1,0.010860,0.025600,0.015700*
1,1,0.010860,-0.025600,0.015700*
1,1,0.010860,-0.025600,-0.015700*
1,1,0.010860,0.025600,-0.015700*
%
%AMD111*
4,1,8,0.016100,0.019200,-0.016100,0.019200,-0.021200,0.014200,-0.021200,-0.014200,-0.016100,-0.019200,0.016100,-0.019200,0.021200,-0.014200,0.021200,0.014200,0.016100,0.019200,0.0*
1,1,0.010080,0.016100,0.014200*
1,1,0.010080,-0.016100,0.014200*
1,1,0.010080,-0.016100,-0.014200*
1,1,0.010080,0.016100,-0.014200*
%
%AMD114*
4,1,8,0.006400,-0.015000,0.006400,0.015000,0.003700,0.017700,-0.003700,0.017700,-0.006400,0.015000,-0.006400,-0.015000,-0.003700,-0.017700,0.003700,-0.017700,0.006400,-0.015000,0.0*
1,1,0.005460,0.003700,-0.015000*
1,1,0.005460,0.003700,0.015000*
1,1,0.005460,-0.003700,0.015000*
1,1,0.005460,-0.003700,-0.015000*
%
%AMD115*
4,1,8,0.017700,-0.003700,0.017700,0.003700,0.015000,0.006400,-0.015000,0.006400,-0.017700,0.003700,-0.017700,-0.003700,-0.015000,-0.006400,0.015000,-0.006400,0.017700,-0.003700,0.0*
1,1,0.005460,0.015000,-0.003700*
1,1,0.005460,0.015000,0.003700*
1,1,0.005460,-0.015000,0.003700*
1,1,0.005460,-0.015000,-0.003700*
%
%AMD117*
4,1,8,-0.033000,0.038300,-0.033000,-0.038300,-0.026400,-0.044800,0.026400,-0.044800,0.033000,-0.038300,0.033000,0.038300,0.026400,0.044800,-0.026400,0.044800,-0.033000,0.038300,0.0*
1,1,0.013080,-0.026400,0.038300*
1,1,0.013080,-0.026400,-0.038300*
1,1,0.013080,0.026400,-0.038300*
1,1,0.013080,0.026400,0.038300*
%
%AMD118*
4,1,8,0.015100,-0.006100,-0.006100,0.015100,-0.009900,0.015100,-0.015100,0.009900,-0.015100,0.006100,0.006100,-0.015100,0.009900,-0.015100,0.015100,-0.009900,0.015100,-0.006100,0.0*
1,1,0.005460,0.013200,-0.008000*
1,1,0.005460,-0.008000,0.013200*
1,1,0.005460,-0.013200,0.008000*
1,1,0.005460,0.008000,-0.013200*
%
%AMD119*
4,1,8,0.015100,0.009900,0.009900,0.015100,0.006100,0.015100,-0.015100,-0.006100,-0.015100,-0.009900,-0.009900,-0.015100,-0.006100,-0.015100,0.015100,0.006100,0.015100,0.009900,0.0*
1,1,0.005460,0.013200,0.008000*
1,1,0.005460,0.008000,0.013200*
1,1,0.005460,-0.013200,-0.008000*
1,1,0.005460,-0.008000,-0.013200*
%
%AMD120*
4,1,4,0.000000,0.048800,-0.048800,0.000000,0.000000,-0.048800,0.048800,0.000000,0.000000,0.048800,0.0*
%
%AMD127*
4,1,8,0.009600,0.010400,-0.009600,0.010400,-0.013300,0.006600,-0.013300,-0.006600,-0.009600,-0.010400,0.009600,-0.010400,0.013300,-0.006600,0.013300,0.006600,0.009600,0.010400,0.0*
1,1,0.007420,0.009600,0.006600*
1,1,0.007420,-0.009600,0.006600*
1,1,0.007420,-0.009600,-0.006600*
1,1,0.007420,0.009600,-0.006600*
%
%AMD128*
4,1,8,0.023100,0.013300,-0.023100,0.013300,-0.027600,0.008900,-0.027600,-0.008900,-0.023100,-0.013300,0.023100,-0.013300,0.027600,-0.008900,0.027600,0.008900,0.023100,0.013300,0.0*
1,1,0.008900,0.023100,0.008900*
1,1,0.008900,-0.023100,0.008900*
1,1,0.008900,-0.023100,-0.008900*
1,1,0.008900,0.023100,-0.008900*
%
%AMD138*
4,1,4,0.016300,0.000300,0.000300,0.016300,-0.016300,-0.000300,-0.000300,-0.016300,0.016300,0.000300,0.0*
%
%AMD142*
4,1,8,0.000000,-0.025100,0.000000,-0.025100,0.005400,-0.019700,0.005400,0.019700,0.000000,0.025100,0.000000,0.025100,-0.005400,0.019700,-0.005400,-0.019700,0.000000,-0.025100,0.0*
1,1,0.010860,0.000000,-0.019700*
1,1,0.010860,0.000000,-0.019700*
1,1,0.010860,0.000000,0.019700*
1,1,0.010860,0.000000,0.019700*
%
%AMD143*
4,1,8,-0.025100,0.000000,-0.025100,0.000000,-0.019700,-0.005400,0.019700,-0.005400,0.025100,0.000000,0.025100,0.000000,0.019700,0.005400,-0.019700,0.005400,-0.025100,0.000000,0.0*
1,1,0.010860,-0.019700,0.000000*
1,1,0.010860,-0.019700,0.000000*
1,1,0.010860,0.019700,0.000000*
1,1,0.010860,0.019700,0.000000*
%
%AMD146*
4,1,8,0.031200,0.023100,-0.031200,0.023100,-0.035900,0.018400,-0.035900,-0.018400,-0.031200,-0.023100,0.031200,-0.023100,0.035900,-0.018400,0.035900,0.018400,0.031200,0.023100,0.0*
1,1,0.009480,0.031200,0.018400*
1,1,0.009480,-0.031200,0.018400*
1,1,0.009480,-0.031200,-0.018400*
1,1,0.009480,0.031200,-0.018400*
%
%AMD148*
4,1,8,0.018700,-0.003700,0.018700,0.003700,0.016000,0.006400,-0.016000,0.006400,-0.018700,0.003700,-0.018700,-0.003700,-0.016000,-0.006400,0.016000,-0.006400,0.018700,-0.003700,0.0*
1,1,0.005460,0.016000,-0.003700*
1,1,0.005460,0.016000,0.003700*
1,1,0.005460,-0.016000,0.003700*
1,1,0.005460,-0.016000,-0.003700*
%
%AMD149*
4,1,8,0.006400,-0.016000,0.006400,0.016000,0.003700,0.018700,-0.003700,0.018700,-0.006400,0.016000,-0.006400,-0.016000,-0.003700,-0.018700,0.003700,-0.018700,0.006400,-0.016000,0.0*
1,1,0.005460,0.003700,-0.016000*
1,1,0.005460,0.003700,0.016000*
1,1,0.005460,-0.003700,0.016000*
1,1,0.005460,-0.003700,-0.016000*
%
%AMD156*
4,1,8,-0.013300,0.023100,-0.013300,-0.023100,-0.008900,-0.027600,0.008900,-0.027600,0.013300,-0.023100,0.013300,0.023100,0.008900,0.027600,-0.008900,0.027600,-0.013300,0.023100,0.0*
1,1,0.008900,-0.008900,0.023100*
1,1,0.008900,-0.008900,-0.023100*
1,1,0.008900,0.008900,-0.023100*
1,1,0.008900,0.008900,0.023100*
%
%AMD157*
4,1,8,0.021200,-0.004700,0.021200,0.004700,0.018500,0.007400,-0.018500,0.007400,-0.021200,0.004700,-0.021200,-0.004700,-0.018500,-0.007400,0.018500,-0.007400,0.021200,-0.004700,0.0*
1,1,0.005360,0.018500,-0.004700*
1,1,0.005360,0.018500,0.004700*
1,1,0.005360,-0.018500,0.004700*
1,1,0.005360,-0.018500,-0.004700*
%
%AMD158*
4,1,8,0.017200,-0.011800,0.017200,0.011800,0.012800,0.016300,-0.012800,0.016300,-0.017200,0.011800,-0.017200,-0.011800,-0.012800,-0.016300,0.012800,-0.016300,0.017200,-0.011800,0.0*
1,1,0.008900,0.012800,-0.011800*
1,1,0.008900,0.012800,0.011800*
1,1,0.008900,-0.012800,0.011800*
1,1,0.008900,-0.012800,-0.011800*
%
%AMD164*
4,1,8,-0.009400,0.027100,-0.009400,-0.027100,-0.005900,-0.030500,0.005900,-0.030500,0.009400,-0.027100,0.009400,0.027100,0.005900,0.030500,-0.005900,0.030500,-0.009400,0.027100,0.0*
1,1,0.006940,-0.005900,0.027100*
1,1,0.006940,-0.005900,-0.027100*
1,1,0.006940,0.005900,-0.027100*
1,1,0.006940,0.005900,0.027100*
%
%AMD169*
4,1,4,-0.016800,-0.000700,-0.000700,-0.016800,0.016800,0.000700,0.000700,0.016800,-0.016800,-0.000700,0.0*
%
%AMD170*
4,1,4,0.017800,0.007900,0.007900,0.017800,-0.017800,-0.007900,-0.007900,-0.017800,0.017800,0.007900,0.0*
%
%AMD171*
4,1,4,0.016400,0.006500,0.006500,0.016400,-0.016400,-0.006500,-0.006500,-0.016400,0.016400,0.006500,0.0*
%
%AMD173*
4,1,8,-0.017200,0.003700,-0.017200,-0.003700,-0.014500,-0.006400,0.014500,-0.006400,0.017200,-0.003700,0.017200,0.003700,0.014500,0.006400,-0.014500,0.006400,-0.017200,0.003700,0.0*
1,1,0.005460,-0.014500,0.003700*
1,1,0.005460,-0.014500,-0.003700*
1,1,0.005460,0.014500,-0.003700*
1,1,0.005460,0.014500,0.003700*
%
%AMD174*
4,1,8,-0.006400,0.014500,-0.006400,-0.014500,-0.003700,-0.017200,0.003700,-0.017200,0.006400,-0.014500,0.006400,0.014500,0.003700,0.017200,-0.003700,0.017200,-0.006400,0.014500,0.0*
1,1,0.005460,-0.003700,0.014500*
1,1,0.005460,-0.003700,-0.014500*
1,1,0.005460,0.003700,-0.014500*
1,1,0.005460,0.003700,0.014500*
%
%AMD180*
4,1,8,0.017700,0.009400,-0.017700,0.009400,-0.021200,0.005900,-0.021200,-0.005900,-0.017700,-0.009400,0.017700,-0.009400,0.021200,-0.005900,0.021200,0.005900,0.017700,0.009400,0.0*
1,1,0.006940,0.017700,0.005900*
1,1,0.006940,-0.017700,0.005900*
1,1,0.006940,-0.017700,-0.005900*
1,1,0.006940,0.017700,-0.005900*
%
%AMD185*
4,1,8,-0.044800,0.046500,-0.044800,-0.046500,-0.034600,-0.056600,0.034600,-0.056600,0.044800,-0.046500,0.044800,0.046500,0.034600,0.056600,-0.034600,0.056600,-0.044800,0.046500,0.0*
1,1,0.020320,-0.034600,0.046500*
1,1,0.020320,-0.034600,-0.046500*
1,1,0.020320,0.034600,-0.046500*
1,1,0.020320,0.034600,0.046500*
%
%AMD186*
4,1,8,-0.033000,0.063900,-0.033000,-0.063900,-0.026400,-0.070400,0.026400,-0.070400,0.033000,-0.063900,0.033000,0.063900,0.026400,0.070400,-0.026400,0.070400,-0.033000,0.063900,0.0*
1,1,0.013080,-0.026400,0.063900*
1,1,0.013080,-0.026400,-0.063900*
1,1,0.013080,0.026400,-0.063900*
1,1,0.013080,0.026400,0.063900*
%
%AMD195*
4,1,8,0.025100,-0.018700,0.025100,0.018700,0.018700,0.025100,-0.018700,0.025100,-0.025100,0.018700,-0.025100,-0.018700,-0.018700,-0.025100,0.018700,-0.025100,0.025100,-0.018700,0.0*
1,1,0.012920,0.018700,-0.018700*
1,1,0.012920,0.018700,0.018700*
1,1,0.012920,-0.018700,0.018700*
1,1,0.012920,-0.018700,-0.018700*
%
%AMD196*
4,1,8,-0.035000,0.000000,-0.035000,0.000000,0.000000,-0.035000,0.000000,-0.035000,0.035000,0.000000,0.035000,0.000000,0.000000,0.035000,0.000000,0.035000,-0.035000,0.000000,0.0*
1,1,0.069920,0.000000,0.000000*
1,1,0.069920,0.000000,0.000000*
1,1,0.069920,0.000000,0.000000*
1,1,0.069920,0.000000,0.000000*
%
%AMD207*
4,1,8,0.035000,-0.028400,0.035000,0.028400,0.028400,0.035000,-0.028400,0.035000,-0.035000,0.028400,-0.035000,-0.028400,-0.028400,-0.035000,0.028400,-0.035000,0.035000,-0.028400,0.0*
1,1,0.013040,0.028400,-0.028400*
1,1,0.013040,0.028400,0.028400*
1,1,0.013040,-0.028400,0.028400*
1,1,0.013040,-0.028400,-0.028400*
%
%AMD208*
4,1,8,0.000000,-0.035000,0.000000,-0.035000,0.035000,0.000000,0.035000,0.000000,0.000000,0.035000,0.000000,0.035000,-0.035000,0.000000,-0.035000,0.000000,0.000000,-0.035000,0.0*
1,1,0.069920,0.000000,0.000000*
1,1,0.069920,0.000000,0.000000*
1,1,0.069920,0.000000,0.000000*
1,1,0.069920,0.000000,0.000000*
%
%AMD209*
4,1,8,-0.066500,0.000000,-0.066500,0.000000,-0.011800,-0.054600,0.011800,-0.054600,0.066500,0.000000,0.066500,0.000000,0.011800,0.054600,-0.011800,0.054600,-0.066500,0.000000,0.0*
1,1,0.109300,-0.011800,0.000000*
1,1,0.109300,-0.011800,0.000000*
1,1,0.109300,0.011800,0.000000*
1,1,0.109300,0.011800,0.000000*
%
%AMD210*
4,1,8,-0.066500,0.048400,-0.066500,-0.048400,-0.060200,-0.054600,0.060200,-0.054600,0.066500,-0.048400,0.066500,0.048400,0.060200,0.054600,-0.060200,0.054600,-0.066500,0.048400,0.0*
1,1,0.012560,-0.060200,0.048400*
1,1,0.012560,-0.060200,-0.048400*
1,1,0.012560,0.060200,-0.048400*
1,1,0.012560,0.060200,0.048400*
%
%AMD219*
4,1,8,-0.035500,0.005900,-0.035500,-0.005900,0.000000,-0.041500,0.000000,-0.041500,0.035500,-0.005900,0.035500,0.005900,0.000000,0.041500,0.000000,0.041500,-0.035500,0.005900,0.0*
1,1,0.071100,0.000000,0.005900*
1,1,0.071100,0.000000,-0.005900*
1,1,0.071100,0.000000,-0.005900*
1,1,0.071100,0.000000,0.005900*
%
%AMD224*
4,1,8,0.028400,0.039900,-0.028400,0.039900,-0.035000,0.033400,-0.035000,-0.033400,-0.028400,-0.039900,0.028400,-0.039900,0.035000,-0.033400,0.035000,0.033400,0.028400,0.039900,0.0*
1,1,0.013040,0.028400,0.033400*
1,1,0.013040,-0.028400,0.033400*
1,1,0.013040,-0.028400,-0.033400*
1,1,0.013040,0.028400,-0.033400*
%
%AMD225*
4,1,8,0.000000,0.039900,0.000000,0.039900,-0.035000,0.004900,-0.035000,-0.004900,0.000000,-0.039900,0.000000,-0.039900,0.035000,-0.004900,0.035000,0.004900,0.000000,0.039900,0.0*
1,1,0.069920,0.000000,0.004900*
1,1,0.069920,0.000000,0.004900*
1,1,0.069920,0.000000,-0.004900*
1,1,0.069920,0.000000,-0.004900*
%
%ADD109R,0.014800X0.026610*%
G04~CAMADD=110~8~0.0~0.0~620.5~423.6~54.3~0.0~15~0.0~0.0~0.0~0.0~0~0.0~0.0~0.0~0.0~0~0.0~0.0~0.0~0.0~620.5~423.6*
%ADD110D110*%
G04~CAMADD=111~8~0.0~0.0~423.6~384.2~50.4~0.0~15~0.0~0.0~0.0~0.0~0~0.0~0.0~0.0~0.0~0~0.0~0.0~0.0~0.0~423.6~384.2*
%ADD111D111*%
%ADD112R,0.022990X0.024990*%
%ADD113R,0.148660X0.050240*%
G04~CAMADD=114~8~0.0~0.0~354.7~128.4~27.3~0.0~15~0.0~0.0~0.0~0.0~0~0.0~0.0~0.0~0.0~0~0.0~0.0~0.0~270.0~128.0~354.0*
%ADD114D114*%
G04~CAMADD=115~8~0.0~0.0~128.4~354.7~27.3~0.0~15~0.0~0.0~0.0~0.0~0~0.0~0.0~0.0~0.0~0~0.0~0.0~0.0~270.0~354.0~128.0*
%ADD115D115*%
%ADD116R,0.069130X0.069130*%
G04~CAMADD=117~8~0.0~0.0~896.1~659.8~65.4~0.0~15~0.0~0.0~0.0~0.0~0~0.0~0.0~0.0~0.0~0~0.0~0.0~0.0~90.0~660.0~896.0*
%ADD117D117*%
G04~CAMADD=118~8~0.0~0.0~354.7~128.4~27.3~0.0~15~0.0~0.0~0.0~0.0~0~0.0~0.0~0.0~0.0~0~0.0~0.0~0.0~315.0~318.0~318.0*
%ADD118D118*%
G04~CAMADD=119~8~0.0~0.0~128.4~354.7~27.3~0.0~15~0.0~0.0~0.0~0.0~0~0.0~0.0~0.0~0.0~0~0.0~0.0~0.0~315.0~318.0~318.0*
%ADD119D119*%
G04~CAMADD=120~10~0.0~691.3~0.0~0.0~0.0~0.0~0~0.0~0.0~0.0~0.0~0~0.0~0.0~0.0~0.0~0~0.0~0.0~0.0~405.0~691.3~0.0*
%ADD120D120*%
%ADD121R,0.016770X0.024650*%
%ADD122R,0.034490X0.014800*%
%ADD123R,0.026610X0.014800*%
%ADD124R,0.024960X0.012990*%
%ADD125R,0.012990X0.024960*%
%ADD126R,0.047990X0.107990*%
G04~CAMADD=127~8~0.0~0.0~266.1~207.1~37.1~0.0~15~0.0~0.0~0.0~0.0~0~0.0~0.0~0.0~0.0~0~0.0~0.0~0.0~0.0~266.1~207.1*
%ADD127D127*%
G04~CAMADD=128~8~0.0~0.0~551.6~266.1~44.5~0.0~15~0.0~0.0~0.0~0.0~0~0.0~0.0~0.0~0.0~0~0.0~0.0~0.0~0.0~551.6~266.1*
%ADD128D128*%
%ADD129R,0.107990X0.047990*%
%ADD130R,0.024990X0.022990*%
%ADD131R,0.022680X0.023460*%
%ADD132C,0.032520*%
%ADD133R,0.020710X0.015590*%
%ADD134R,0.018740X0.015200*%
%ADD135R,0.042990X0.057990*%
%ADD136C,0.022680*%
%ADD137C,0.042360*%
G04~CAMADD=138~9~0.0~0.0~226.8~234.6~0.0~0.0~0~0.0~0.0~0.0~0.0~0~0.0~0.0~0.0~0.0~0~0.0~0.0~0.0~315.0~326.0~325.0*
%ADD138D138*%
%ADD139R,0.042360X0.085670*%
%ADD140R,0.042360X0.030550*%
%ADD141R,0.023460X0.022680*%
G04~CAMADD=142~8~0.0~0.0~108.7~502.4~54.3~0.0~15~0.0~0.0~0.0~0.0~0~0.0~0.0~0.0~0.0~0~0.0~0.0~0.0~180.0~108.0~502.0*
%ADD142D142*%
G04~CAMADD=143~8~0.0~0.0~108.7~502.4~54.3~0.0~15~0.0~0.0~0.0~0.0~0~0.0~0.0~0.0~0.0~0~0.0~0.0~0.0~90.0~502.0~108.0*
%ADD143D143*%
%ADD144R,0.107980X0.107980*%
%ADD145R,0.042990X0.058990*%
G04~CAMADD=146~8~0.0~0.0~718.9~463.0~47.4~0.0~15~0.0~0.0~0.0~0.0~0~0.0~0.0~0.0~0.0~0~0.0~0.0~0.0~0.0~718.9~463.0*
%ADD146D146*%
%ADD147R,0.035280X0.037990*%
G04~CAMADD=148~8~0.0~0.0~128.4~374.4~27.3~0.0~15~0.0~0.0~0.0~0.0~0~0.0~0.0~0.0~0.0~0~0.0~0.0~0.0~270.0~374.0~128.0*
%ADD148D148*%
G04~CAMADD=149~8~0.0~0.0~374.4~128.4~27.3~0.0~15~0.0~0.0~0.0~0.0~0~0.0~0.0~0.0~0.0~0~0.0~0.0~0.0~270.0~128.0~374.0*
%ADD149D149*%
%ADD150R,0.205750X0.205750*%
%ADD151R,0.041380X0.058110*%
%ADD152R,0.018740X0.028580*%
%ADD153R,0.105350X0.105350*%
%ADD154R,0.085670X0.042360*%
%ADD155R,0.030550X0.042360*%
G04~CAMADD=156~8~0.0~0.0~551.6~266.1~44.5~0.0~15~0.0~0.0~0.0~0.0~0~0.0~0.0~0.0~0.0~0~0.0~0.0~0.0~90.0~266.0~552.0*
%ADD156D156*%
G04~CAMADD=157~8~0.0~0.0~148.0~423.6~26.8~0.0~15~0.0~0.0~0.0~0.0~0~0.0~0.0~0.0~0.0~0~0.0~0.0~0.0~270.0~424.0~148.0*
%ADD157D157*%
G04~CAMADD=158~8~0.0~0.0~325.2~344.9~44.5~0.0~15~0.0~0.0~0.0~0.0~0~0.0~0.0~0.0~0.0~0~0.0~0.0~0.0~270.0~346.0~325.0*
%ADD158D158*%
%ADD159R,0.097480X0.050240*%
%ADD160R,0.058110X0.027010*%
%ADD161R,0.028580X0.018740*%
%ADD162R,0.018990X0.112990*%
%ADD163R,0.026800X0.011020*%
G04~CAMADD=164~8~0.0~0.0~610.6~187.4~34.7~0.0~15~0.0~0.0~0.0~0.0~0~0.0~0.0~0.0~0.0~0~0.0~0.0~0.0~90.0~188.0~611.0*
%ADD164D164*%
%ADD165R,0.058110X0.050240*%
%ADD166R,0.048990X0.035990*%
%ADD167R,0.058990X0.042990*%
%ADD168R,0.015590X0.020710*%
G04~CAMADD=169~9~0.0~0.0~229.9~249.9~0.0~0.0~0~0.0~0.0~0.0~0.0~0~0.0~0.0~0.0~0.0~0~0.0~0.0~0.0~135.0~336.0~335.0*
%ADD169D169*%
G04~CAMADD=170~9~0.0~0.0~140.2~364.6~0.0~0.0~0~0.0~0.0~0.0~0.0~0~0.0~0.0~0.0~0.0~0~0.0~0.0~0.0~315.0~356.0~355.0*
%ADD170D170*%
G04~CAMADD=171~9~0.0~0.0~140.2~325.2~0.0~0.0~0~0.0~0.0~0.0~0.0~0~0.0~0.0~0.0~0.0~0~0.0~0.0~0.0~315.0~328.0~327.0*
%ADD171D171*%
%ADD172R,0.134880X0.134880*%
G04~CAMADD=173~8~0.0~0.0~128.4~344.9~27.3~0.0~15~0.0~0.0~0.0~0.0~0~0.0~0.0~0.0~0.0~0~0.0~0.0~0.0~90.0~344.0~128.0*
%ADD173D173*%
G04~CAMADD=174~8~0.0~0.0~344.9~128.4~27.3~0.0~15~0.0~0.0~0.0~0.0~0~0.0~0.0~0.0~0.0~0~0.0~0.0~0.0~90.0~128.0~344.0*
%ADD174D174*%
%ADD175R,0.032520X0.036460*%
%ADD176R,0.058110X0.041380*%
%ADD177R,0.032520X0.014800*%
%ADD178R,0.067950X0.097480*%
%ADD179R,0.015200X0.018740*%
G04~CAMADD=180~8~0.0~0.0~423.6~187.4~34.7~0.0~15~0.0~0.0~0.0~0.0~0~0.0~0.0~0.0~0.0~0~0.0~0.0~0.0~0.0~423.6~187.4*
%ADD180D180*%
%ADD181R,0.136850X0.172280*%
%ADD182R,0.071890X0.018740*%
%ADD183R,0.069920X0.046300*%
%ADD184C,0.015590*%
G04~CAMADD=185~8~0.0~0.0~1132.3~896.1~101.6~0.0~15~0.0~0.0~0.0~0.0~0~0.0~0.0~0.0~0.0~0~0.0~0.0~0.0~90.0~896.0~1132.0*
%ADD185D185*%
G04~CAMADD=186~8~0.0~0.0~1407.9~659.8~65.4~0.0~15~0.0~0.0~0.0~0.0~0~0.0~0.0~0.0~0.0~0~0.0~0.0~0.0~90.0~660.0~1408.0*
%ADD186D186*%
%ADD187R,0.081730X0.062050*%
%ADD188R,0.081730X0.152600*%
%ADD189C,0.013430*%
%ADD190R,0.050240X0.022680*%
%ADD191R,0.030550X0.030550*%
%ADD192C,0.033990*%
%ADD193C,0.055490*%
%ADD194C,0.050240*%
G04~CAMADD=195~8~0.0~0.0~502.4~502.4~64.6~0.0~15~0.0~0.0~0.0~0.0~0~0.0~0.0~0.0~0.0~0~0.0~0.0~0.0~270.0~502.0~502.0*
%ADD195D195*%
G04~CAMADD=196~8~0.0~0.0~699.2~699.2~349.6~0.0~15~0.0~0.0~0.0~0.0~0~0.0~0.0~0.0~0.0~0~0.0~0.0~0.0~90.0~700.0~699.0*
%ADD196D196*%
%ADD197R,0.069920X0.069920*%
%ADD198R,0.069920X0.069920*%
%ADD199C,0.039990*%
%ADD200C,0.069920*%
%ADD201C,0.085670*%
%ADD202C,0.051810*%
%ADD203C,0.081990*%
%ADD204C,0.128980*%
%ADD205C,0.058110*%
%ADD206C,0.024650*%
G04~CAMADD=207~8~0.0~0.0~699.2~699.2~65.2~0.0~15~0.0~0.0~0.0~0.0~0~0.0~0.0~0.0~0.0~0~0.0~0.0~0.0~270.0~700.0~700.0*
%ADD207D207*%
G04~CAMADD=208~8~0.0~0.0~699.2~699.2~349.6~0.0~15~0.0~0.0~0.0~0.0~0~0.0~0.0~0.0~0.0~0~0.0~0.0~0.0~180.0~700.0~699.0*
%ADD208D208*%
G04~CAMADD=209~8~0.0~0.0~1092.9~1329.1~546.5~0.0~15~0.0~0.0~0.0~0.0~0~0.0~0.0~0.0~0.0~0~0.0~0.0~0.0~90.0~1330.0~1093.0*
%ADD209D209*%
G04~CAMADD=210~8~0.0~0.0~1092.9~1329.1~62.8~0.0~15~0.0~0.0~0.0~0.0~0~0.0~0.0~0.0~0.0~0~0.0~0.0~0.0~90.0~1330.0~1093.0*
%ADD210D210*%
%ADD211C,0.121100*%
%ADD212R,0.058430X0.058430*%
%ADD213C,0.058430*%
%ADD214C,0.097480*%
%ADD215C,0.130950*%
%ADD216C,0.058030*%
%ADD217C,0.062840*%
%ADD218C,0.144730*%
G04~CAMADD=219~8~0.0~0.0~829.1~711.0~355.5~0.0~15~0.0~0.0~0.0~0.0~0~0.0~0.0~0.0~0.0~0~0.0~0.0~0.0~90.0~712.0~829.0*
%ADD219D219*%
%ADD220R,0.071100X0.082910*%
%ADD221C,0.046300*%
%ADD222C,0.096490*%
%ADD223C,0.041990*%
G04~CAMADD=224~8~0.0~0.0~699.2~797.6~65.2~0.0~15~0.0~0.0~0.0~0.0~0~0.0~0.0~0.0~0.0~0~0.0~0.0~0.0~0.0~699.2~797.6*
%ADD224D224*%
G04~CAMADD=225~8~0.0~0.0~699.2~797.6~349.6~0.0~15~0.0~0.0~0.0~0.0~0~0.0~0.0~0.0~0.0~0~0.0~0.0~0.0~0.0~699.2~797.6*
%ADD225D225*%
%ADD226C,0.207720*%
%ADD227C,0.148660*%
%LNbenchy-mb-pcb-changes-1*%
%LPD*%
G36*
X1698Y1977D02*
X1698Y1977D01*
X1698Y1977*
X1698Y1977*
X1699Y1977*
X1699Y1976*
X1699Y1976*
X1699Y1976*
Y1947*
X1723*
X1723Y1947*
X1723Y1947*
X1724Y1947*
X1724Y1947*
X1724Y1946*
X1724Y1946*
X1724Y1946*
X1724Y1946*
Y1908*
X1724Y1907*
X1724Y1907*
X1724Y1907*
X1724Y1907*
X1724Y1907*
X1723Y1906*
X1723Y1906*
X1723Y1906*
X1658*
X1658Y1906*
X1657Y1906*
X1657Y1907*
X1657Y1907*
X1657Y1907*
X1657Y1907*
X1656Y1907*
X1656Y1908*
Y1946*
X1656Y1946*
X1657Y1946*
X1657Y1946*
X1657Y1947*
X1657Y1947*
X1657Y1947*
X1658Y1947*
X1658Y1947*
X1682*
Y1976*
X1682Y1976*
X1682Y1976*
X1682Y1977*
X1682Y1977*
X1683Y1977*
X1683Y1977*
X1683Y1977*
X1684Y1977*
X1697*
X1698Y1977*
G37*
G36*
X2741Y1491D02*
X2741Y1491D01*
X2741Y1491*
X2741Y1491*
X2742Y1491*
X2742Y1490*
X2742Y1490*
X2742Y1490*
Y1473*
X2742Y1472*
X2742Y1472*
X2742Y1472*
X2741Y1472*
X2736Y1467*
X2736Y1467*
X2736Y1466*
X2736Y1466*
X2735Y1466*
X2730*
X2730Y1466*
X2730Y1466*
X2730Y1467*
X2729Y1467*
X2729Y1467*
X2729Y1467*
X2729Y1467*
X2729Y1468*
Y1490*
X2729Y1490*
X2729Y1490*
X2729Y1491*
X2729Y1491*
X2730Y1491*
X2730Y1491*
X2730Y1491*
X2730Y1491*
X2740*
X2741Y1491*
G37*
G36*
X2663D02*
X2663Y1491D01*
X2663Y1491*
X2663Y1491*
X2664Y1491*
X2664Y1490*
X2664Y1490*
X2664Y1490*
Y1468*
X2664Y1467*
X2664Y1467*
X2664Y1467*
X2663Y1467*
X2663Y1467*
X2663Y1466*
X2663Y1466*
X2662Y1466*
X2657*
X2657Y1466*
X2657Y1466*
X2657Y1467*
X2656Y1467*
X2651Y1472*
X2651Y1472*
X2651Y1472*
X2651Y1472*
X2651Y1473*
Y1490*
X2651Y1490*
X2651Y1490*
X2651Y1491*
X2651Y1491*
X2652Y1491*
X2652Y1491*
X2652Y1491*
X2652Y1491*
X2662*
X2663Y1491*
G37*
G36*
X4512D02*
X4513Y1491D01*
X4513Y1491*
X4513Y1491*
X4513Y1491*
X4513Y1490*
X4513Y1490*
X4514Y1490*
Y1473*
X4513Y1472*
X4513Y1472*
X4513Y1472*
X4513Y1472*
X4508Y1467*
X4508Y1467*
X4508Y1466*
X4507Y1466*
X4507Y1466*
X4502*
X4502Y1466*
X4501Y1466*
X4501Y1467*
X4501Y1467*
X4501Y1467*
X4501Y1467*
X4501Y1467*
X4501Y1468*
Y1490*
X4501Y1490*
X4501Y1490*
X4501Y1491*
X4501Y1491*
X4501Y1491*
X4501Y1491*
X4502Y1491*
X4502Y1491*
X4512*
X4512Y1491*
G37*
G36*
X4434D02*
X4435Y1491D01*
X4435Y1491*
X4435Y1491*
X4435Y1491*
X4435Y1490*
X4435Y1490*
X4436Y1490*
Y1468*
X4435Y1467*
X4435Y1467*
X4435Y1467*
X4435Y1467*
X4435Y1467*
X4435Y1466*
X4434Y1466*
X4434Y1466*
X4429*
X4429Y1466*
X4428Y1466*
X4428Y1467*
X4428Y1467*
X4423Y1472*
X4423Y1472*
X4423Y1472*
X4423Y1472*
X4423Y1473*
Y1490*
X4423Y1490*
X4423Y1490*
X4423Y1491*
X4423Y1491*
X4423Y1491*
X4423Y1491*
X4424Y1491*
X4424Y1491*
X4434*
X4434Y1491*
G37*
G36*
X3922D02*
X3922Y1491D01*
X3922Y1491*
X3923Y1491*
X3923Y1491*
X3923Y1490*
X3923Y1490*
X3923Y1490*
Y1473*
X3923Y1472*
X3923Y1472*
X3923Y1472*
X3923Y1472*
X3918Y1467*
X3917Y1467*
X3917Y1466*
X3917Y1466*
X3916Y1466*
X3911*
X3911Y1466*
X3911Y1466*
X3911Y1467*
X3910Y1467*
X3910Y1467*
X3910Y1467*
X3910Y1467*
X3910Y1468*
Y1490*
X3910Y1490*
X3910Y1490*
X3910Y1491*
X3910Y1491*
X3911Y1491*
X3911Y1491*
X3911Y1491*
X3911Y1491*
X3921*
X3922Y1491*
G37*
G36*
X3844D02*
X3844Y1491D01*
X3844Y1491*
X3845Y1491*
X3845Y1491*
X3845Y1490*
X3845Y1490*
X3845Y1490*
Y1468*
X3845Y1467*
X3845Y1467*
X3845Y1467*
X3845Y1467*
X3844Y1467*
X3844Y1466*
X3844Y1466*
X3843Y1466*
X3838*
X3838Y1466*
X3838Y1466*
X3838Y1467*
X3837Y1467*
X3832Y1472*
X3832Y1472*
X3832Y1472*
X3832Y1472*
X3832Y1473*
Y1490*
X3832Y1490*
X3832Y1490*
X3832Y1491*
X3832Y1491*
X3833Y1491*
X3833Y1491*
X3833Y1491*
X3833Y1491*
X3843*
X3844Y1491*
G37*
G36*
X2766Y1466D02*
X2766Y1466D01*
X2766Y1466*
X2766Y1466*
X2767Y1466*
X2767Y1465*
X2767Y1465*
X2767Y1465*
Y1455*
X2767Y1454*
X2767Y1454*
X2767Y1454*
X2766Y1454*
X2766Y1454*
X2766Y1453*
X2766Y1453*
X2765Y1453*
X2743*
X2743Y1453*
X2743Y1453*
X2743Y1454*
X2742Y1454*
X2742Y1454*
X2742Y1454*
X2742Y1454*
X2742Y1455*
Y1460*
X2742Y1460*
X2742Y1460*
X2742Y1461*
X2742Y1461*
X2747Y1466*
X2748Y1466*
X2748Y1466*
X2748Y1466*
X2748Y1466*
X2765*
X2766Y1466*
G37*
G36*
X2645D02*
X2645Y1466D01*
X2645Y1466*
X2645Y1466*
X2650Y1461*
X2651Y1461*
X2651Y1460*
X2651Y1460*
X2651Y1460*
Y1455*
X2651Y1454*
X2651Y1454*
X2651Y1454*
X2650Y1454*
X2650Y1454*
X2650Y1453*
X2650Y1453*
X2649Y1453*
X2627*
X2627Y1453*
X2627Y1453*
X2627Y1454*
X2626Y1454*
X2626Y1454*
X2626Y1454*
X2626Y1454*
X2626Y1455*
Y1465*
X2626Y1465*
X2626Y1465*
X2626Y1466*
X2626Y1466*
X2627Y1466*
X2627Y1466*
X2627Y1466*
X2627Y1466*
X2644*
X2645Y1466*
G37*
G36*
X4537D02*
X4538Y1466D01*
X4538Y1466*
X4538Y1466*
X4538Y1466*
X4538Y1465*
X4538Y1465*
X4538Y1465*
Y1455*
X4538Y1454*
X4538Y1454*
X4538Y1454*
X4538Y1454*
X4538Y1454*
X4538Y1453*
X4537Y1453*
X4537Y1453*
X4515*
X4515Y1453*
X4514Y1453*
X4514Y1454*
X4514Y1454*
X4514Y1454*
X4514Y1454*
X4514Y1454*
X4514Y1455*
Y1460*
X4514Y1460*
X4514Y1460*
X4514Y1461*
X4514Y1461*
X4519Y1466*
X4519Y1466*
X4519Y1466*
X4520Y1466*
X4520Y1466*
X4537*
X4537Y1466*
G37*
G36*
X4416D02*
X4417Y1466D01*
X4417Y1466*
X4417Y1466*
X4422Y1461*
X4422Y1461*
X4422Y1460*
X4422Y1460*
X4423Y1460*
Y1455*
X4422Y1454*
X4422Y1454*
X4422Y1454*
X4422Y1454*
X4422Y1454*
X4422Y1453*
X4421Y1453*
X4421Y1453*
X4399*
X4399Y1453*
X4398Y1453*
X4398Y1454*
X4398Y1454*
X4398Y1454*
X4398Y1454*
X4398Y1454*
X4398Y1455*
Y1465*
X4398Y1465*
X4398Y1465*
X4398Y1466*
X4398Y1466*
X4398Y1466*
X4398Y1466*
X4399Y1466*
X4399Y1466*
X4416*
X4416Y1466*
G37*
G36*
X3947D02*
X3947Y1466D01*
X3947Y1466*
X3947Y1466*
X3948Y1466*
X3948Y1465*
X3948Y1465*
X3948Y1465*
Y1455*
X3948Y1454*
X3948Y1454*
X3948Y1454*
X3947Y1454*
X3947Y1454*
X3947Y1453*
X3947Y1453*
X3946Y1453*
X3924*
X3924Y1453*
X3924Y1453*
X3924Y1454*
X3923Y1454*
X3923Y1454*
X3923Y1454*
X3923Y1454*
X3923Y1455*
Y1460*
X3923Y1460*
X3923Y1460*
X3923Y1461*
X3923Y1461*
X3928Y1466*
X3929Y1466*
X3929Y1466*
X3929Y1466*
X3929Y1466*
X3946*
X3947Y1466*
G37*
G36*
X3826D02*
X3826Y1466D01*
X3826Y1466*
X3827Y1466*
X3832Y1461*
X3832Y1461*
X3832Y1460*
X3832Y1460*
X3832Y1460*
Y1455*
X3832Y1454*
X3832Y1454*
X3832Y1454*
X3832Y1454*
X3831Y1454*
X3831Y1453*
X3831Y1453*
X3830Y1453*
X3808*
X3808Y1453*
X3808Y1453*
X3808Y1454*
X3807Y1454*
X3807Y1454*
X3807Y1454*
X3807Y1454*
X3807Y1455*
Y1465*
X3807Y1465*
X3807Y1465*
X3807Y1466*
X3807Y1466*
X3808Y1466*
X3808Y1466*
X3808Y1466*
X3808Y1466*
X3825*
X3826Y1466*
G37*
G36*
X2766Y1388D02*
X2766Y1388D01*
X2766Y1388*
X2766Y1388*
X2767Y1388*
X2767Y1387*
X2767Y1387*
X2767Y1387*
Y1377*
X2767Y1376*
X2767Y1376*
X2767Y1376*
X2766Y1376*
X2766Y1376*
X2766Y1375*
X2766Y1375*
X2765Y1375*
X2748*
X2748Y1375*
X2748Y1375*
X2748Y1376*
X2747Y1376*
X2742Y1381*
X2742Y1381*
X2742Y1381*
X2742Y1381*
X2742Y1382*
Y1387*
X2742Y1387*
X2742Y1387*
X2742Y1388*
X2742Y1388*
X2743Y1388*
X2743Y1388*
X2743Y1388*
X2743Y1388*
X2765*
X2766Y1388*
G37*
G36*
X2650D02*
X2650Y1388D01*
X2650Y1388*
X2650Y1388*
X2651Y1388*
X2651Y1387*
X2651Y1387*
X2651Y1387*
Y1382*
X2651Y1381*
X2651Y1381*
X2651Y1381*
X2650Y1381*
X2645Y1376*
X2645Y1376*
X2645Y1375*
X2645Y1375*
X2644Y1375*
X2627*
X2627Y1375*
X2627Y1375*
X2627Y1376*
X2626Y1376*
X2626Y1376*
X2626Y1376*
X2626Y1376*
X2626Y1377*
Y1387*
X2626Y1387*
X2626Y1387*
X2626Y1388*
X2626Y1388*
X2627Y1388*
X2627Y1388*
X2627Y1388*
X2627Y1388*
X2649*
X2650Y1388*
G37*
G36*
X4537D02*
X4538Y1388D01*
X4538Y1388*
X4538Y1388*
X4538Y1388*
X4538Y1387*
X4538Y1387*
X4538Y1387*
Y1377*
X4538Y1376*
X4538Y1376*
X4538Y1376*
X4538Y1376*
X4538Y1376*
X4538Y1375*
X4537Y1375*
X4537Y1375*
X4520*
X4520Y1375*
X4519Y1375*
X4519Y1376*
X4519Y1376*
X4514Y1381*
X4514Y1381*
X4514Y1381*
X4514Y1381*
X4514Y1382*
Y1387*
X4514Y1387*
X4514Y1387*
X4514Y1388*
X4514Y1388*
X4514Y1388*
X4514Y1388*
X4515Y1388*
X4515Y1388*
X4537*
X4537Y1388*
G37*
G36*
X4421D02*
X4422Y1388D01*
X4422Y1388*
X4422Y1388*
X4422Y1388*
X4422Y1387*
X4422Y1387*
X4423Y1387*
Y1382*
X4422Y1381*
X4422Y1381*
X4422Y1381*
X4422Y1381*
X4417Y1376*
X4417Y1376*
X4417Y1375*
X4416Y1375*
X4416Y1375*
X4399*
X4399Y1375*
X4398Y1375*
X4398Y1376*
X4398Y1376*
X4398Y1376*
X4398Y1376*
X4398Y1376*
X4398Y1377*
Y1387*
X4398Y1387*
X4398Y1387*
X4398Y1388*
X4398Y1388*
X4398Y1388*
X4398Y1388*
X4399Y1388*
X4399Y1388*
X4421*
X4421Y1388*
G37*
G36*
X3947D02*
X3947Y1388D01*
X3947Y1388*
X3947Y1388*
X3948Y1388*
X3948Y1387*
X3948Y1387*
X3948Y1387*
Y1377*
X3948Y1376*
X3948Y1376*
X3948Y1376*
X3947Y1376*
X3947Y1376*
X3947Y1375*
X3947Y1375*
X3946Y1375*
X3929*
X3929Y1375*
X3929Y1375*
X3929Y1376*
X3928Y1376*
X3923Y1381*
X3923Y1381*
X3923Y1381*
X3923Y1381*
X3923Y1382*
Y1387*
X3923Y1387*
X3923Y1387*
X3923Y1388*
X3923Y1388*
X3924Y1388*
X3924Y1388*
X3924Y1388*
X3924Y1388*
X3946*
X3947Y1388*
G37*
G36*
X3831D02*
X3831Y1388D01*
X3831Y1388*
X3832Y1388*
X3832Y1388*
X3832Y1387*
X3832Y1387*
X3832Y1387*
Y1382*
X3832Y1381*
X3832Y1381*
X3832Y1381*
X3832Y1381*
X3827Y1376*
X3826Y1376*
X3826Y1375*
X3826Y1375*
X3825Y1375*
X3808*
X3808Y1375*
X3808Y1375*
X3808Y1376*
X3807Y1376*
X3807Y1376*
X3807Y1376*
X3807Y1376*
X3807Y1377*
Y1387*
X3807Y1387*
X3807Y1387*
X3807Y1388*
X3807Y1388*
X3808Y1388*
X3808Y1388*
X3808Y1388*
X3808Y1388*
X3830*
X3831Y1388*
G37*
G36*
X2736Y1375D02*
X2736Y1375D01*
X2736Y1375*
X2736Y1375*
X2741Y1370*
X2742Y1370*
X2742Y1369*
X2742Y1369*
X2742Y1369*
Y1352*
X2742Y1352*
X2742Y1351*
X2742Y1351*
X2741Y1351*
X2741Y1351*
X2741Y1350*
X2741Y1350*
X2740Y1350*
X2730*
X2730Y1350*
X2730Y1350*
X2730Y1351*
X2729Y1351*
X2729Y1351*
X2729Y1351*
X2729Y1352*
X2729Y1352*
Y1374*
X2729Y1374*
X2729Y1374*
X2729Y1375*
X2729Y1375*
X2730Y1375*
X2730Y1375*
X2730Y1375*
X2730Y1375*
X2735*
X2736Y1375*
G37*
G36*
X2663D02*
X2663Y1375D01*
X2663Y1375*
X2663Y1375*
X2664Y1375*
X2664Y1374*
X2664Y1374*
X2664Y1374*
Y1352*
X2664Y1352*
X2664Y1351*
X2664Y1351*
X2663Y1351*
X2663Y1351*
X2663Y1350*
X2663Y1350*
X2662Y1350*
X2652*
X2652Y1350*
X2652Y1350*
X2652Y1351*
X2651Y1351*
X2651Y1351*
X2651Y1351*
X2651Y1352*
X2651Y1352*
Y1369*
X2651Y1369*
X2651Y1369*
X2651Y1370*
X2651Y1370*
X2656Y1375*
X2657Y1375*
X2657Y1375*
X2657Y1375*
X2657Y1375*
X2662*
X2663Y1375*
G37*
G36*
X4507D02*
X4508Y1375D01*
X4508Y1375*
X4508Y1375*
X4513Y1370*
X4513Y1370*
X4513Y1369*
X4513Y1369*
X4514Y1369*
Y1352*
X4513Y1352*
X4513Y1351*
X4513Y1351*
X4513Y1351*
X4513Y1351*
X4513Y1350*
X4512Y1350*
X4512Y1350*
X4502*
X4502Y1350*
X4501Y1350*
X4501Y1351*
X4501Y1351*
X4501Y1351*
X4501Y1351*
X4501Y1352*
X4501Y1352*
Y1374*
X4501Y1374*
X4501Y1374*
X4501Y1375*
X4501Y1375*
X4501Y1375*
X4501Y1375*
X4502Y1375*
X4502Y1375*
X4507*
X4507Y1375*
G37*
G36*
X4434D02*
X4435Y1375D01*
X4435Y1375*
X4435Y1375*
X4435Y1375*
X4435Y1374*
X4435Y1374*
X4436Y1374*
Y1352*
X4435Y1352*
X4435Y1351*
X4435Y1351*
X4435Y1351*
X4435Y1351*
X4435Y1350*
X4434Y1350*
X4434Y1350*
X4424*
X4424Y1350*
X4423Y1350*
X4423Y1351*
X4423Y1351*
X4423Y1351*
X4423Y1351*
X4423Y1352*
X4423Y1352*
Y1369*
X4423Y1369*
X4423Y1369*
X4423Y1370*
X4423Y1370*
X4428Y1375*
X4428Y1375*
X4428Y1375*
X4429Y1375*
X4429Y1375*
X4434*
X4434Y1375*
G37*
G36*
X3917D02*
X3917Y1375D01*
X3917Y1375*
X3918Y1375*
X3923Y1370*
X3923Y1370*
X3923Y1369*
X3923Y1369*
X3923Y1369*
Y1352*
X3923Y1352*
X3923Y1351*
X3923Y1351*
X3923Y1351*
X3922Y1351*
X3922Y1350*
X3922Y1350*
X3921Y1350*
X3911*
X3911Y1350*
X3911Y1350*
X3911Y1351*
X3910Y1351*
X3910Y1351*
X3910Y1351*
X3910Y1352*
X3910Y1352*
Y1374*
X3910Y1374*
X3910Y1374*
X3910Y1375*
X3910Y1375*
X3911Y1375*
X3911Y1375*
X3911Y1375*
X3911Y1375*
X3916*
X3917Y1375*
G37*
G36*
X3844D02*
X3844Y1375D01*
X3844Y1375*
X3845Y1375*
X3845Y1375*
X3845Y1374*
X3845Y1374*
X3845Y1374*
Y1352*
X3845Y1352*
X3845Y1351*
X3845Y1351*
X3845Y1351*
X3844Y1351*
X3844Y1350*
X3844Y1350*
X3843Y1350*
X3833*
X3833Y1350*
X3833Y1350*
X3833Y1351*
X3832Y1351*
X3832Y1351*
X3832Y1351*
X3832Y1352*
X3832Y1352*
Y1369*
X3832Y1369*
X3832Y1369*
X3832Y1370*
X3832Y1370*
X3837Y1375*
X3838Y1375*
X3838Y1375*
X3838Y1375*
X3838Y1375*
X3843*
X3844Y1375*
G37*
G54D109*
X3787Y3963D03*
X3751D03*
X3720D03*
X3688D03*
X3653D03*
X3669Y3926D03*
X3704D03*
X3736D03*
X3771D03*
G54D110*
X983Y826D03*
X857D03*
G54D111*
X920Y850D03*
G54D112*
X928Y887D03*
X968D03*
X6231Y1482D03*
X6271D03*
X5913Y1545D03*
X5953D03*
X5913Y1576D03*
X5953D03*
X5913Y1639D03*
X5953D03*
X5913Y1484D03*
X5953D03*
X5913Y1450D03*
X5953D03*
X5913Y1387D03*
X5953D03*
X2035Y2734D03*
X1995D03*
X6256Y2846D03*
X6216D03*
X6256Y2814D03*
X6216D03*
X6342Y3013D03*
X6302D03*
Y2950D03*
X6342D03*
Y2887D03*
X6302D03*
X5980Y2814D03*
X6020D03*
Y2846D03*
X5980D03*
X5483Y1348D03*
X5523D03*
X5747Y1588D03*
X5787D03*
X5836Y1442D03*
X5876D03*
X5731Y1730D03*
X5771D03*
X6047Y1659D03*
X6007D03*
X6122D03*
X6082D03*
X6197D03*
X6157D03*
X6271Y1419D03*
X6231D03*
X6271Y1450D03*
X6231D03*
X6271Y1515D03*
X6231D03*
X6271Y1549D03*
X6231D03*
X6271Y1580D03*
X6231D03*
X5929Y2883D03*
X5889D03*
X2988Y3391D03*
X2948D03*
X2614Y3438D03*
X2574D03*
Y3407D03*
X2614D03*
X2457Y3431D03*
X2417D03*
Y3399D03*
X2457D03*
X2785Y1519D03*
X2745D03*
Y1549D03*
X2785D03*
X2607Y1519D03*
X2647D03*
Y1549D03*
X2607D03*
X1417Y1501D03*
X1457D03*
X4515Y1517D03*
X4555D03*
Y1549D03*
X4515D03*
X3966Y1529D03*
X3926D03*
Y1559D03*
X3966D03*
X3789Y1529D03*
X3829D03*
Y1559D03*
X3789D03*
X1141Y2108D03*
X1181D03*
X1141Y2364D03*
X1181D03*
X1141Y1675D03*
X1181D03*
X1141Y1891D03*
X1181D03*
X1617Y1816D03*
X1657D03*
X1633Y1553D03*
X1673D03*
Y1513D03*
X1633D03*
X5201Y2001D03*
X5161D03*
X5130D03*
X5090D03*
X3294Y2557D03*
X3334D03*
X3200Y2950D03*
X3240D03*
X5657Y3962D03*
X5617D03*
X4228Y3438D03*
X4268D03*
X4228Y3407D03*
X4268D03*
X4224Y3332D03*
X4184D03*
X4224Y3293D03*
X4184D03*
X4224Y3253D03*
X4184D03*
X4586Y3332D03*
X4546D03*
X4586Y3293D03*
X4546D03*
X4586Y3253D03*
X4546D03*
X4133Y3655D03*
X4173D03*
X1181Y1458D03*
X1141D03*
G54D113*
X6220Y2751D03*
Y2657D03*
X6015Y2751D03*
Y2657D03*
X6023Y3279D03*
Y3374D03*
X1826Y1978D03*
Y2072D03*
G54D114*
X5501Y3669D03*
X5481D03*
X5461D03*
X5442D03*
Y3553D03*
X5461D03*
X5481D03*
X5501D03*
X1415Y1461D03*
X1435D03*
X1455D03*
X1475D03*
X1494D03*
X1514D03*
Y1308D03*
X1494D03*
X1475D03*
X1455D03*
X1435D03*
X1415D03*
G54D115*
X5414Y3640D03*
Y3621D03*
Y3601D03*
Y3581D03*
X5529D03*
Y3601D03*
Y3621D03*
Y3640D03*
X1388Y1336D03*
Y1355D03*
Y1375D03*
Y1395D03*
Y1414D03*
Y1434D03*
X1541D03*
Y1414D03*
X1541Y1395D03*
Y1375D03*
X1541Y1355D03*
Y1336D03*
G54D116*
X5471Y3611D03*
G54D117*
X5775Y3938D03*
Y4057D03*
G54D118*
X6035Y2382D03*
X6021Y2368D03*
X6007Y2354D03*
X5993Y2340D03*
X6074Y2259D03*
X6088Y2273D03*
X6102Y2287D03*
X6116Y2301D03*
G54D119*
X5993Y2301D03*
X6007Y2287D03*
X6021Y2273D03*
X6035Y2259D03*
X6116Y2340D03*
X6102Y2354D03*
X6088Y2368D03*
X6074Y2382D03*
G54D120*
X6055Y2320D03*
G54D121*
X1716Y1888D03*
X1690D03*
X1665D03*
X1716Y1965D03*
X1665D03*
G54D122*
X2165Y2895D03*
Y2875D03*
Y2856D03*
Y2836D03*
X2055D03*
Y2856D03*
Y2875D03*
Y2895D03*
G54D123*
X1010Y3555D03*
Y3519D03*
Y3488D03*
Y3456D03*
Y3421D03*
X1048Y3437D03*
Y3472D03*
Y3503D03*
Y3539D03*
G54D124*
X4410Y1440D03*
Y1421D03*
Y1401D03*
X4526D03*
Y1421D03*
Y1440D03*
X3819D03*
Y1421D03*
Y1401D03*
X3935D03*
Y1421D03*
Y1440D03*
X2638D03*
Y1421D03*
Y1401D03*
X2754D03*
Y1421D03*
Y1440D03*
G54D125*
X4449Y1363D03*
X4468D03*
X4488D03*
Y1479D03*
X4468D03*
X4449D03*
X3858Y1363D03*
X3877D03*
X3897D03*
Y1479D03*
X3877D03*
X3858D03*
X2677Y1363D03*
X2696D03*
X2716D03*
Y1479D03*
X2696D03*
X2677D03*
G54D126*
X1256Y3964D03*
X1141D03*
X961Y3856D03*
X1077D03*
X6227Y2500D03*
X6111D03*
X5158Y1413D03*
X5274D03*
X6288Y2535D03*
X6404D03*
X6288Y2421D03*
X6404D03*
X6272Y3625D03*
X6388D03*
X6272Y3751D03*
X6388D03*
G54D127*
X1068Y3966D03*
X986D03*
G54D128*
X1154Y3875D03*
Y3838D03*
Y3801D03*
X1243D03*
Y3838D03*
Y3875D03*
X3285Y3027D03*
Y2952D03*
X3375Y2990D03*
X3284Y2826D03*
Y2864D03*
Y2901D03*
X3195D03*
Y2864D03*
Y2826D03*
G54D129*
X1344Y3955D03*
Y3839D03*
X6023Y3449D03*
Y3565D03*
X5897Y3449D03*
Y3565D03*
X5771Y3449D03*
Y3565D03*
X5645Y3449D03*
Y3565D03*
X6015Y2581D03*
Y2465D03*
X5897Y2581D03*
Y2465D03*
X5779Y2581D03*
Y2465D03*
X2767Y1197D03*
Y1313D03*
X2625Y1197D03*
Y1313D03*
X3807Y1197D03*
Y1313D03*
X3948Y1197D03*
Y1313D03*
X4397D03*
Y1197D03*
X4539Y1313D03*
Y1197D03*
X1933Y1758D03*
Y1875D03*
X5381Y1880D03*
Y1997D03*
X6023Y3762D03*
Y3646D03*
X5897Y3762D03*
Y3646D03*
X5803Y4164D03*
Y4280D03*
G54D130*
X5984Y1455D03*
Y1415D03*
X2381Y2834D03*
Y2874D03*
X2350Y2834D03*
Y2874D03*
X2318Y2834D03*
Y2874D03*
X2224D03*
Y2834D03*
X2035Y2930D03*
Y2970D03*
X2007Y2850D03*
Y2890D03*
X5877Y3136D03*
Y3096D03*
X5913Y3155D03*
Y3115D03*
X6322Y3155D03*
Y3115D03*
X6358Y3136D03*
Y3096D03*
X5204Y939D03*
Y899D03*
X5165Y939D03*
Y899D03*
X5224Y1485D03*
Y1525D03*
X5188Y1485D03*
Y1525D03*
X5984Y1509D03*
Y1549D03*
Y1588D03*
Y1628D03*
X6232Y1730D03*
Y1690D03*
X6169D03*
Y1730D03*
X6137Y1690D03*
Y1730D03*
X6074D03*
Y1690D03*
X6043D03*
Y1730D03*
X5980D03*
Y1690D03*
X6139Y1367D03*
Y1407D03*
X5944Y3115D03*
Y3155D03*
X2838Y3423D03*
Y3383D03*
X2488Y3391D03*
Y3431D03*
X1293Y3755D03*
Y3795D03*
X1255Y3645D03*
Y3605D03*
X1098Y3665D03*
Y3625D03*
X1531Y2407D03*
Y2447D03*
X1562D03*
Y2407D03*
X2594Y1422D03*
Y1462D03*
X4370D03*
Y1422D03*
X4417Y1553D03*
Y1513D03*
X4381D03*
Y1553D03*
X3771Y1422D03*
Y1462D03*
X1503Y2045D03*
Y2005D03*
X1661Y2037D03*
Y1997D03*
X1622Y1966D03*
Y1926D03*
X1574Y1639D03*
Y1679D03*
X1669D03*
Y1639D03*
X1637D03*
Y1679D03*
X2047Y2271D03*
Y2311D03*
X3389Y2581D03*
Y2541D03*
X6106Y990D03*
Y950D03*
X6224Y990D03*
Y950D03*
X6023Y907D03*
Y947D03*
X5944Y907D03*
Y947D03*
X5240Y1922D03*
Y1962D03*
X5208D03*
Y1922D03*
X5003Y1978D03*
Y1938D03*
X3948Y2167D03*
Y2207D03*
X6505Y2770D03*
Y2730D03*
X6291Y3115D03*
Y3155D03*
X5440Y3988D03*
Y3948D03*
X5584Y4004D03*
Y3964D03*
X2303Y4151D03*
Y4111D03*
X3129Y4151D03*
Y4111D03*
X4586Y3572D03*
Y3612D03*
X3830Y3850D03*
Y3890D03*
X3799Y3850D03*
Y3890D03*
X3767Y3850D03*
Y3890D03*
X3736Y3850D03*
Y3890D03*
X3704Y3850D03*
Y3890D03*
X3673Y3850D03*
Y3890D03*
X3641Y3850D03*
Y3890D03*
X3610Y3850D03*
Y3890D03*
G54D131*
X5914Y1608D03*
X5951D03*
X5914Y1513D03*
X5951D03*
X5914Y1419D03*
X5951D03*
X1996Y2702D03*
X2034D03*
X1725Y2116D03*
X1762D03*
X1725Y2143D03*
X1762D03*
X2160Y2933D03*
X2122D03*
X2034Y2671D03*
X1996D03*
X5870Y3066D03*
X5908D03*
X5807Y3100D03*
X5845D03*
X6215Y2429D03*
X6177D03*
X6118Y2608D03*
X6156D03*
X6428Y3135D03*
X6390D03*
X6428Y3100D03*
X6390D03*
X6341Y3064D03*
X6303D03*
X6341Y2982D03*
X6303D03*
X6341Y2919D03*
X6303D03*
X5522Y1379D03*
X5485D03*
X5197Y1314D03*
X5235D03*
X5197Y1344D03*
X5235D03*
X6298Y2610D03*
X6335D03*
X5890Y2915D03*
X5928D03*
X5807Y3131D03*
X5845D03*
X2790Y3340D03*
X2752D03*
X2755Y3482D03*
X2717D03*
X1138Y3580D03*
X1176D03*
X1339Y2415D03*
X1377D03*
X2042Y2346D03*
X2004D03*
X2544Y2257D03*
X2581D03*
X2607Y2627D03*
X2644D03*
X5837Y1374D03*
X5875D03*
X5837Y1344D03*
X5875D03*
X5693Y1253D03*
X5731D03*
X3209Y2777D03*
X3247D03*
X6200Y3578D03*
X6162D03*
X6200Y3610D03*
X6162D03*
X5329Y4147D03*
X5292D03*
X5329Y4120D03*
X5292D03*
X5329Y4092D03*
X5292D03*
G54D132*
X3360Y2661D03*
X1397Y2072D03*
X1448D03*
X1503D03*
X5291Y1592D03*
X5141D03*
X5574Y2045D03*
X5519D03*
X5862Y1407D03*
X5850Y2864D03*
X1476Y2421D03*
X1425Y2419D03*
X1665Y1852D03*
X1598Y1553D03*
Y1513D03*
X5834Y1305D03*
X6224Y1025D03*
X6106D03*
X5362Y2505D03*
Y2383D03*
X6456Y2277D03*
X6547Y2734D03*
X5405Y3996D03*
X4149Y3253D03*
Y3293D03*
Y3332D03*
X4086Y3655D03*
G54D133*
X3312Y2661D03*
X3337D03*
X5544Y1415D03*
X5518D03*
X1731Y2309D03*
X1756D03*
X3359Y2584D03*
X3333D03*
X5544Y1435D03*
X5518D03*
G54D134*
X3370Y2368D03*
X3346D03*
X3362Y2316D03*
X3338D03*
X3362Y2297D03*
X3338D03*
X3362Y2277D03*
X3338D03*
X3362Y2257D03*
X3338D03*
X3771Y2990D03*
X3795D03*
X4834Y2364D03*
X4810D03*
G54D135*
X1160Y3738D03*
X1232D03*
G54D136*
X3917Y2222D03*
X1562Y2478D03*
X3901Y2179D03*
X3775Y2206D03*
X3744D03*
X3421Y2990D03*
X3921Y2927D03*
X4145Y2458D03*
X4157Y2584D03*
X4956Y2769D03*
X6026Y2973D03*
X6072Y2928D03*
X6026D03*
X6072Y2973D03*
X6026Y3065D03*
Y3019D03*
Y3111D03*
X6118Y3019D03*
X6072D03*
Y3065D03*
Y3111D03*
X6163Y2928D03*
X6118D03*
Y2973D03*
X6163D03*
Y3019D03*
X6209D03*
Y2928D03*
Y2973D03*
X6118Y3111D03*
Y3065D03*
X6209D03*
X6163D03*
X6209Y3111D03*
X6163D03*
X6145Y1568D03*
X6104D03*
X6145Y1527D03*
X6104D03*
Y1486D03*
X6145D03*
X6062Y1527D03*
Y1568D03*
Y1486D03*
X1465Y1385D03*
X1423Y1343D03*
X1465D03*
X1506D03*
X1465Y1426D03*
X1506Y1385D03*
X1423Y1426D03*
X1506D03*
X1423Y1385D03*
X2759Y3411D03*
X2718Y3452D03*
X2759D03*
X2801D03*
X2759Y3370D03*
X2801Y3411D03*
X2718Y3370D03*
X2801D03*
X2718Y3411D03*
G54D137*
X1803Y2127D03*
X5440Y3427D03*
X5608Y3397D03*
X6236Y2389D03*
X5901Y2631D03*
X5688Y1549D03*
X5635Y3785D03*
X2568Y1519D03*
X2824D03*
X4598Y1517D03*
X4005Y1529D03*
X3750D03*
X5000Y1899D03*
X6318Y2271D03*
X6496Y2332D03*
X6220Y3649D03*
G54D138*
X5396Y3527D03*
X5422Y3500D03*
X5816Y1492D03*
X5789Y1519D03*
G54D139*
X5490Y3427D03*
X5553D03*
X5685Y3787D03*
X5748D03*
G54D140*
X5553Y3499D03*
X5490D03*
X5748Y3859D03*
X5685D03*
G54D141*
X2456Y2835D03*
Y2873D03*
X2488Y2835D03*
Y2873D03*
X2413Y2835D03*
Y2873D03*
X2287Y2835D03*
Y2873D03*
X6062Y2841D03*
Y2803D03*
X6173Y2841D03*
Y2803D03*
X6342Y2821D03*
Y2859D03*
X6303D03*
Y2821D03*
X5897Y2670D03*
Y2707D03*
X5870Y2670D03*
Y2707D03*
X5842Y2670D03*
Y2707D03*
X5637Y1534D03*
Y1572D03*
X6045Y1406D03*
Y1368D03*
X5842Y1616D03*
Y1654D03*
X6200Y1729D03*
Y1691D03*
X6011Y1729D03*
Y1691D03*
X6106Y1729D03*
Y1691D03*
X5929Y2855D03*
Y2817D03*
X5889Y2855D03*
Y2817D03*
X6007Y3191D03*
Y3229D03*
X5905Y3361D03*
Y3323D03*
X5877Y3361D03*
Y3323D03*
X5850Y3361D03*
Y3323D03*
X2588Y3502D03*
Y3540D03*
X1350Y1371D03*
Y1333D03*
X2696Y1270D03*
Y1308D03*
X3877Y1270D03*
Y1308D03*
X4468D03*
Y1270D03*
X1629Y1998D03*
Y2036D03*
X1720Y1821D03*
Y1859D03*
X1562Y1750D03*
Y1788D03*
X1606Y1678D03*
Y1640D03*
X2267Y2229D03*
Y2191D03*
X2409Y2229D03*
Y2191D03*
X2618Y2329D03*
Y2292D03*
X4972Y1939D03*
Y1977D03*
X4960Y1879D03*
Y1841D03*
X4933Y1879D03*
Y1841D03*
X4905Y1879D03*
Y1841D03*
X3996Y1973D03*
Y1935D03*
X4023Y1973D03*
Y1935D03*
X6228Y3191D03*
Y3229D03*
G54D142*
X2141Y2291D03*
X2157D03*
X2173D03*
X2188D03*
X2204D03*
X2220D03*
X2236D03*
X2251D03*
X2267D03*
X2283D03*
X2299D03*
X2314D03*
X2330D03*
X2346D03*
X2362D03*
X2377D03*
X2393D03*
X2409D03*
X2425D03*
X2440D03*
X2456D03*
X2472D03*
X2488D03*
X2503D03*
X2519D03*
Y2755D03*
X2503D03*
X2488D03*
X2472Y2755D03*
X2456D03*
X2440D03*
X2425D03*
X2409D03*
X2393D03*
X2377D03*
X2362Y2755D03*
X2346Y2755D03*
X2330Y2755D03*
X2314Y2755D03*
X2299Y2755D03*
X2283Y2755D03*
X2267D03*
X2251D03*
X2236D03*
X2220D03*
X2204D03*
X2188D03*
X2173Y2755D03*
X2157D03*
X2141D03*
G54D143*
X2562Y2334D03*
Y2350D03*
Y2366D03*
Y2381D03*
Y2397D03*
Y2413D03*
Y2429D03*
Y2444D03*
Y2460D03*
Y2476D03*
Y2492D03*
Y2507D03*
Y2523D03*
Y2539D03*
Y2555D03*
Y2570D03*
Y2586D03*
Y2602D03*
Y2618D03*
Y2633D03*
Y2649D03*
Y2665D03*
Y2681D03*
Y2696D03*
Y2712D03*
X2098D03*
Y2696D03*
Y2681D03*
Y2665D03*
Y2649D03*
Y2633D03*
Y2618D03*
Y2602D03*
Y2586D03*
Y2570D03*
Y2555D03*
Y2539D03*
Y2523D03*
Y2507D03*
Y2492D03*
Y2476D03*
Y2460D03*
Y2444D03*
Y2429D03*
Y2413D03*
Y2397D03*
Y2381D03*
Y2366D03*
Y2350D03*
Y2334D03*
G54D144*
X2225Y2418D03*
X2330D03*
X2435D03*
X2225Y2523D03*
X2330D03*
X2435D03*
X2225Y2628D03*
X2330D03*
X2435D03*
G54D145*
X1773Y2190D03*
X1698D03*
X5751Y2915D03*
X5826D03*
X5751Y2982D03*
X5826D03*
X5751Y3049D03*
X5826D03*
X5265Y4045D03*
X5340D03*
G54D146*
X856Y2443D03*
X1033D03*
X856Y2359D03*
X1033D03*
X856Y1538D03*
X1033D03*
X856Y1453D03*
X1033D03*
X856Y1754D03*
X1033D03*
X856Y1670D03*
X1033D03*
X856Y1971D03*
X1033D03*
X856Y1886D03*
X1033D03*
X856Y2187D03*
X1033D03*
X856Y2103D03*
X1033D03*
G54D147*
X1102Y2115D03*
Y2176D03*
Y2371D03*
Y2432D03*
Y1682D03*
Y1743D03*
Y1898D03*
Y1959D03*
Y1526D03*
Y1465D03*
G54D148*
X5982Y2911D03*
Y2950D03*
Y2970D03*
Y2990D03*
Y2931D03*
Y3049D03*
Y3088D03*
Y3068D03*
Y3009D03*
Y3029D03*
Y3108D03*
Y3127D03*
X6253Y2931D03*
Y2911D03*
Y3009D03*
Y2990D03*
Y2970D03*
Y2950D03*
Y3049D03*
Y3127D03*
Y3108D03*
Y3029D03*
Y3088D03*
Y3068D03*
X6180Y1557D03*
Y1537D03*
Y1576D03*
Y1517D03*
Y1498D03*
Y1478D03*
X6028Y1576D03*
Y1557D03*
Y1517D03*
Y1498D03*
Y1537D03*
Y1478D03*
G54D149*
X6029Y2884D03*
X6009D03*
X6049D03*
X6068D03*
X6088D03*
X6108D03*
X6029Y3155D03*
X6009D03*
X6049D03*
X6108D03*
X6068D03*
X6088D03*
X6147Y2884D03*
X6127D03*
X6187D03*
X6167D03*
X6206D03*
X6226D03*
X6127Y3155D03*
X6147D03*
X6206D03*
X6167D03*
X6187D03*
X6226D03*
X6153Y1603D03*
X6114D03*
X6133D03*
X6153Y1451D03*
X6133D03*
X6114D03*
X6094Y1603D03*
X6074D03*
X6055D03*
X6074Y1451D03*
X6094D03*
X6055D03*
G54D150*
X6118Y3019D03*
G54D151*
X5132Y838D03*
X5206D03*
X848Y1338D03*
X922D03*
X848Y1181D03*
X922D03*
X5947Y838D03*
X6021D03*
G54D152*
X5803Y1694D03*
X5777D03*
X5751D03*
Y1620D03*
X5803D03*
X1608Y1710D03*
X1633D03*
X1659D03*
Y1785D03*
X1608D03*
G54D153*
X6104Y1527D03*
X1465Y1385D03*
X2759Y3411D03*
G54D154*
X6250Y2275D03*
Y2338D03*
G54D155*
X6178Y2338D03*
Y2275D03*
G54D156*
X2415Y3476D03*
X2490D03*
X2452Y3566D03*
G54D157*
X921Y3753D03*
Y3734D03*
Y3714D03*
Y3694D03*
Y3675D03*
Y3655D03*
Y3635D03*
Y3616D03*
Y3596D03*
Y3576D03*
Y3557D03*
Y3537D03*
Y3517D03*
Y3498D03*
Y3478D03*
Y3458D03*
Y3438D03*
Y3419D03*
Y3399D03*
Y3379D03*
G54D158*
X822Y3336D03*
Y3797D03*
G54D159*
X954Y2625D03*
X1309D03*
X954Y3260D03*
X1309D03*
G54D160*
X1387Y3206D03*
Y3163D03*
Y3119D03*
Y3076D03*
Y3033D03*
Y2989D03*
Y2946D03*
Y2903D03*
Y2860D03*
G54D161*
X1214Y3620D03*
Y3645D03*
Y3671D03*
X1139D03*
Y3620D03*
X5551Y3994D03*
Y3968D03*
Y3942D03*
X5476Y3994D03*
Y3942D03*
G54D162*
X1574Y3061D03*
G54D163*
X1546Y3005D03*
Y3021D03*
Y3037D03*
Y3053D03*
Y3068D03*
Y3084D03*
Y3100D03*
Y3116D03*
X1603D03*
Y3100D03*
Y3084D03*
Y3068D03*
Y3053D03*
Y3037D03*
Y3021D03*
Y3005D03*
G54D164*
X1347Y2131D03*
X1373D03*
X1398D03*
X1424D03*
X1449D03*
X1475D03*
X1501D03*
X1526D03*
Y2356D03*
X1501D03*
X1475D03*
X1449D03*
X1424D03*
X1398D03*
X1373D03*
X1347D03*
G54D165*
X1708Y2433D03*
Y2358D03*
X1803D03*
Y2433D03*
G54D166*
X2166Y899D03*
Y844D03*
X2046Y899D03*
Y844D03*
X1528Y899D03*
Y844D03*
X1408Y899D03*
Y844D03*
G54D167*
X1842Y1874D03*
Y1799D03*
X1775Y1874D03*
Y1799D03*
X5291Y1960D03*
Y1885D03*
X4925Y1992D03*
Y1917D03*
X5712Y4173D03*
Y4248D03*
G54D168*
X1850Y2416D03*
Y2390D03*
X3289Y2646D03*
Y2621D03*
Y2676D03*
Y2701D03*
G54D169*
X2120Y2227D03*
X2092Y2256D03*
X2579Y2169D03*
X2550Y2197D03*
X2516Y2106D03*
X2488Y2134D03*
X2537Y2127D03*
X2509Y2155D03*
X2558Y2148D03*
X2529Y2176D03*
G54D170*
X2026Y2200D03*
G54D171*
X2039Y2184D03*
X2053Y2170D03*
X2085Y2202D03*
X2071Y2216D03*
X2057Y2230D03*
G54D172*
X5688Y1393D03*
G54D173*
X5592Y1334D03*
Y1354D03*
Y1374D03*
Y1393D03*
Y1413D03*
Y1433D03*
Y1452D03*
X5785D03*
Y1433D03*
Y1413D03*
Y1393D03*
Y1374D03*
Y1354D03*
Y1334D03*
G54D174*
X5629Y1490D03*
X5649D03*
X5669D03*
X5688D03*
X5708D03*
X5728D03*
X5748D03*
Y1297D03*
X5728D03*
X5708D03*
X5688D03*
X5669D03*
X5649D03*
X5629D03*
G54D175*
X5477Y1424D03*
X5432D03*
X5477Y1485D03*
X5432D03*
G54D176*
X6106Y897D03*
Y823D03*
X6224Y897D03*
Y823D03*
G54D177*
X5160Y1958D03*
Y1938D03*
Y1879D03*
Y1919D03*
Y1899D03*
X5044Y1958D03*
Y1938D03*
Y1919D03*
Y1879D03*
Y1899D03*
G54D178*
X5102Y1919D03*
G54D179*
X3712Y2183D03*
Y2159D03*
X3570Y2982D03*
Y2958D03*
X3590Y2930D03*
Y2954D03*
G54D180*
X3635Y2094D03*
Y2044D03*
Y1994D03*
Y1944D03*
X3950D03*
Y1994D03*
Y2044D03*
Y2094D03*
G54D181*
X3793Y2019D03*
G54D182*
X3303Y2509D03*
Y2462D03*
Y2415D03*
G54D183*
X3242Y2714D03*
Y2608D03*
G54D184*
X3460Y2277D03*
Y2309D03*
X3492Y2277D03*
Y2340D03*
Y2309D03*
X3460Y2340D03*
Y2403D03*
Y2372D03*
X3492D03*
Y2403D03*
X3523D03*
Y2277D03*
X3555Y2309D03*
X3586Y2277D03*
X3555D03*
X3586Y2309D03*
X3523D03*
Y2372D03*
Y2340D03*
X3555D03*
Y2403D03*
Y2372D03*
X3492Y2435D03*
X3460D03*
X3492Y2466D03*
X3460D03*
Y2529D03*
Y2498D03*
X3492D03*
Y2529D03*
X3523Y2561D03*
Y2435D03*
Y2466D03*
X3555D03*
X3586Y2435D03*
X3555D03*
X3586Y2466D03*
X3523Y2498D03*
Y2529D03*
X3555D03*
X3586Y2498D03*
X3555D03*
X3586Y2529D03*
X3618Y2277D03*
Y2309D03*
X3649D03*
X3586Y2340D03*
Y2372D03*
X3618D03*
X3649Y2340D03*
X3618D03*
X3649Y2372D03*
X3681Y2277D03*
X3649D03*
X3681Y2309D03*
X3712Y2277D03*
Y2309D03*
X3744D03*
X3681Y2340D03*
Y2372D03*
X3712Y2403D03*
X3744Y2340D03*
X3712Y2372D03*
Y2340D03*
X3586Y2403D03*
X3618Y2435D03*
Y2403D03*
X3649Y2466D03*
X3618Y2498D03*
Y2561D03*
Y2529D03*
Y2466D03*
X3649Y2529D03*
Y2498D03*
Y2403D03*
Y2435D03*
X3681D03*
Y2403D03*
X3712Y2466D03*
Y2435D03*
X3681Y2466D03*
Y2529D03*
Y2498D03*
X3712D03*
Y2561D03*
Y2529D03*
X3460Y2561D03*
Y2592D03*
X3492Y2561D03*
Y2624D03*
Y2592D03*
X3460Y2655D03*
Y2718D03*
Y2687D03*
Y2624D03*
X3492Y2687D03*
Y2655D03*
X3523Y2592D03*
Y2624D03*
X3555Y2561D03*
Y2624D03*
Y2592D03*
X3523Y2655D03*
Y2718D03*
Y2687D03*
X3555Y2655D03*
Y2718D03*
Y2687D03*
X3460Y2750D03*
Y2781D03*
X3492Y2718D03*
Y2781D03*
Y2750D03*
X3460Y2812D03*
Y2844D03*
X3492Y2812D03*
Y2844D03*
X3523Y2750D03*
Y2781D03*
X3555D03*
X3586Y2718D03*
X3555Y2750D03*
X3586D03*
X3523Y2812D03*
Y2844D03*
X3555D03*
X3586Y2812D03*
X3555D03*
X3586Y2844D03*
Y2592D03*
Y2624D03*
Y2561D03*
X3618Y2624D03*
Y2592D03*
X3586Y2655D03*
Y2687D03*
X3618D03*
X3649Y2655D03*
X3618D03*
X3649Y2687D03*
Y2561D03*
Y2592D03*
X3681D03*
Y2561D03*
X3712Y2624D03*
Y2592D03*
X3649Y2624D03*
X3681Y2687D03*
Y2655D03*
Y2624D03*
X3712Y2687D03*
Y2655D03*
X3618Y2781D03*
X3586D03*
X3618Y2718D03*
Y2750D03*
X3649Y2781D03*
X3618Y2812D03*
Y2844D03*
X3649D03*
Y2812D03*
Y2718D03*
Y2750D03*
X3681D03*
X3712Y2718D03*
X3681D03*
X3712Y2750D03*
X3681Y2781D03*
Y2844D03*
Y2812D03*
X3712Y2781D03*
Y2844D03*
Y2812D03*
X3744Y2277D03*
X3775Y2309D03*
Y2277D03*
X3807Y2340D03*
Y2309D03*
X3775Y2372D03*
X3744D03*
X3775Y2403D03*
Y2340D03*
X3807Y2403D03*
Y2372D03*
Y2277D03*
X3838Y2309D03*
X3870Y2277D03*
X3838D03*
X3870Y2309D03*
X3838Y2340D03*
Y2403D03*
Y2372D03*
X3870Y2340D03*
Y2403D03*
Y2372D03*
X3744Y2435D03*
Y2466D03*
Y2403D03*
X3775Y2466D03*
Y2435D03*
X3744Y2498D03*
Y2529D03*
X3775D03*
X3807Y2498D03*
X3775D03*
X3807Y2529D03*
X3838Y2435D03*
X3807D03*
X3838Y2466D03*
X3901Y2435D03*
X3870Y2466D03*
Y2435D03*
X3807Y2466D03*
X3838Y2561D03*
Y2529D03*
X3870Y2498D03*
X3838D03*
X3870Y2529D03*
X3901Y2277D03*
Y2309D03*
X3933Y2277D03*
Y2340D03*
Y2309D03*
X3901Y2340D03*
Y2403D03*
Y2372D03*
X3964D03*
X3933D03*
X3964Y2403D03*
Y2277D03*
Y2309D03*
X3996D03*
X4027Y2277D03*
X3996D03*
X4027Y2309D03*
X3964Y2340D03*
X3996Y2403D03*
Y2372D03*
X4027Y2340D03*
X3996D03*
X4027Y2372D03*
X3933Y2466D03*
X3901D03*
X3933Y2403D03*
X3964Y2498D03*
Y2466D03*
X3901Y2498D03*
Y2561D03*
Y2529D03*
X3964D03*
X3933D03*
X3964Y2561D03*
X3996Y2435D03*
X3964D03*
X4027Y2466D03*
Y2435D03*
X3996Y2498D03*
Y2561D03*
Y2529D03*
Y2466D03*
X4027Y2529D03*
Y2498D03*
X3744Y2561D03*
Y2592D03*
X3775Y2561D03*
Y2624D03*
Y2592D03*
X3744Y2624D03*
Y2687D03*
Y2655D03*
X3775D03*
Y2718D03*
Y2687D03*
X3807Y2561D03*
Y2592D03*
X3838Y2624D03*
X3870Y2561D03*
X3838Y2592D03*
X3870D03*
X3807Y2624D03*
Y2687D03*
Y2655D03*
X3838D03*
Y2687D03*
X3870D03*
X3744Y2750D03*
Y2781D03*
Y2718D03*
X3775Y2781D03*
Y2750D03*
X3744Y2812D03*
Y2844D03*
X3775D03*
X3807Y2812D03*
X3775D03*
X3807Y2844D03*
Y2718D03*
Y2750D03*
X3838D03*
Y2718D03*
X3870Y2781D03*
Y2750D03*
X3807Y2781D03*
X3838Y2844D03*
Y2812D03*
Y2781D03*
X3870Y2844D03*
Y2812D03*
X3901Y2624D03*
X3870D03*
X3933Y2592D03*
X3901D03*
X3964Y2655D03*
X3901D03*
X3870D03*
X3901Y2687D03*
X3933Y2655D03*
Y2718D03*
X3964Y2687D03*
X3996Y2592D03*
X3964D03*
X3996Y2624D03*
X4027Y2561D03*
Y2624D03*
Y2592D03*
X3964Y2624D03*
X3996Y2718D03*
Y2687D03*
X4027Y2655D03*
X3996D03*
X4027Y2687D03*
X3870Y2718D03*
X3901Y2750D03*
Y2718D03*
X3933Y2781D03*
Y2750D03*
X3901Y2781D03*
Y2844D03*
Y2812D03*
X3933D03*
Y2844D03*
X3964D03*
Y2718D03*
Y2750D03*
X3996Y2781D03*
X4027Y2750D03*
X3996D03*
X4027Y2781D03*
X3964D03*
Y2812D03*
X3996Y2844D03*
X4027Y2812D03*
X3996D03*
X4027Y2844D03*
X4972Y2498D03*
X4688Y2435D03*
Y2466D03*
Y2498D03*
Y2624D03*
Y2655D03*
Y2687D03*
X4720Y2435D03*
Y2466D03*
Y2498D03*
Y2624D03*
Y2655D03*
Y2687D03*
X4751Y2435D03*
Y2466D03*
Y2498D03*
Y2624D03*
Y2655D03*
Y2687D03*
X4783Y2435D03*
Y2466D03*
Y2498D03*
Y2624D03*
Y2655D03*
Y2687D03*
X4814Y2435D03*
Y2466D03*
Y2498D03*
Y2624D03*
Y2655D03*
Y2687D03*
X4846Y2435D03*
Y2466D03*
Y2498D03*
Y2624D03*
Y2655D03*
Y2687D03*
X4877Y2435D03*
Y2466D03*
Y2498D03*
Y2624D03*
Y2655D03*
Y2687D03*
X4909Y2435D03*
Y2466D03*
Y2498D03*
Y2624D03*
Y2655D03*
Y2687D03*
X4940Y2435D03*
Y2466D03*
Y2498D03*
Y2624D03*
Y2655D03*
Y2687D03*
X4972Y2435D03*
Y2466D03*
Y2624D03*
Y2655D03*
Y2687D03*
X5003Y2435D03*
Y2466D03*
Y2498D03*
Y2624D03*
Y2655D03*
Y2687D03*
X5035Y2435D03*
Y2466D03*
Y2498D03*
Y2624D03*
Y2655D03*
Y2687D03*
X5066Y2435D03*
Y2466D03*
Y2498D03*
Y2624D03*
Y2655D03*
Y2687D03*
X5098Y2435D03*
Y2466D03*
Y2498D03*
Y2624D03*
Y2655D03*
Y2687D03*
X5129Y2435D03*
Y2466D03*
Y2498D03*
Y2624D03*
Y2655D03*
Y2687D03*
X5161Y2435D03*
Y2466D03*
Y2498D03*
Y2624D03*
Y2655D03*
Y2687D03*
G54D185*
X6236Y3309D03*
Y3486D03*
G54D186*
X5992Y3938D03*
Y4151D03*
G54D187*
X5635Y4253D03*
Y4163D03*
Y4072D03*
G54D188*
X5387Y4163D03*
G54D189*
X3812Y3183D03*
X3793D03*
X3773D03*
X3753D03*
X3734D03*
X3714D03*
X3694D03*
X3675D03*
X3655D03*
X3635D03*
X3616D03*
X3596D03*
X3576D03*
X3557D03*
X3812Y3202D03*
X3793D03*
X3773D03*
X3753D03*
X3734D03*
X3714D03*
X3694D03*
X3675D03*
X3655D03*
X3635D03*
X3616D03*
X3596D03*
X3576D03*
X3557D03*
X3812Y3222D03*
X3793D03*
X3773D03*
X3753D03*
X3734D03*
X3714D03*
X3694D03*
X3675D03*
X3655D03*
X3635D03*
X3616D03*
X3596D03*
X3576D03*
X3557D03*
X3812Y3242D03*
X3793D03*
X3773D03*
X3753D03*
X3596D03*
X3576D03*
X3557D03*
X3812Y3261D03*
X3793D03*
X3773D03*
X3734D03*
X3714D03*
X3694D03*
X3675D03*
X3655D03*
X3635D03*
X3596D03*
X3576D03*
X3557D03*
X3812Y3281D03*
X3793D03*
X3773D03*
X3734D03*
X3635D03*
X3596D03*
X3576D03*
X3557D03*
X3812Y3301D03*
X3793D03*
X3773D03*
X3734D03*
X3635D03*
X3596D03*
X3576D03*
X3557D03*
X3812Y3320D03*
X3793D03*
X3773D03*
X3734D03*
X3635D03*
X3596D03*
X3576D03*
X3557D03*
X3812Y3340D03*
X3793D03*
X3773D03*
X3734D03*
X3635D03*
X3596D03*
X3576D03*
X3557D03*
X3812Y3360D03*
X3793D03*
X3773D03*
X3734D03*
X3714D03*
X3694D03*
X3675D03*
X3655D03*
X3635D03*
X3596D03*
X3576D03*
X3557D03*
X3812Y3379D03*
X3793D03*
X3773D03*
X3596D03*
X3576D03*
X3557D03*
X3812Y3399D03*
X3793D03*
X3773D03*
X3753D03*
X3734D03*
X3714D03*
X3694D03*
X3675D03*
X3655D03*
X3635D03*
X3616D03*
X3596D03*
X3576D03*
X3557D03*
X3812Y3419D03*
X3793D03*
X3773D03*
X3753D03*
X3734D03*
X3714D03*
X3694D03*
X3675D03*
X3655D03*
X3635D03*
X3616D03*
X3596D03*
X3576D03*
X3557D03*
X3812Y3438D03*
X3793D03*
X3773D03*
X3753D03*
X3734D03*
X3714D03*
X3694D03*
X3675D03*
X3655D03*
X3635D03*
X3616D03*
X3596D03*
X3576D03*
X3557D03*
G54D190*
X4269Y3332D03*
Y3293D03*
Y3253D03*
X4501D03*
Y3293D03*
Y3332D03*
G54D191*
X4301Y3214D03*
X4470D03*
Y3372D03*
X4301D03*
G54D192*
X4289Y3641D03*
X4339D03*
X4389D03*
X4439D03*
X4489D03*
Y3591D03*
X4439D03*
X4389D03*
X4339D03*
X4289D03*
G54D193*
X2225Y2418D03*
X2330D03*
X2435D03*
X2225Y2523D03*
X2330D03*
X2435D03*
X2225Y2628D03*
X2330D03*
X2435D03*
G54D194*
X6464Y1039D03*
Y1118D03*
Y1275D03*
Y1196D03*
Y881D03*
X6385D03*
Y960D03*
X6464D03*
X6385Y1196D03*
Y1118D03*
Y1039D03*
X6464Y1590D03*
Y1669D03*
Y1354D03*
Y1511D03*
Y1433D03*
X6385Y1511D03*
Y1669D03*
Y1590D03*
Y1354D03*
Y1275D03*
Y1433D03*
Y1748D03*
X2076Y3899D03*
X2007D03*
X1909D03*
X1811D03*
X1742D03*
G54D195*
X6464Y1748D03*
G54D196*
X5665Y1647D03*
X1835Y1671D03*
G54D197*
X5565Y1647D03*
X1935Y1671D03*
G54D198*
X5413Y1683D03*
X6505Y2557D03*
G54D199*
X937Y2827D03*
Y3095D03*
G54D200*
X1230Y1122D03*
Y1220D03*
Y1023D03*
X1131Y1220D03*
Y1122D03*
Y1023D03*
X1683Y905D03*
X1860D03*
X6325Y1980D03*
X6225Y2080D03*
Y1980D03*
X6125Y2080D03*
Y1980D03*
X6025Y2080D03*
Y1980D03*
X5925Y2080D03*
Y1980D03*
X5825Y2080D03*
Y1980D03*
G54D201*
X1633Y1003D03*
X1909D03*
G54D202*
X4724Y1200D03*
Y1102D03*
Y1023D03*
Y925D03*
X4818Y905D03*
Y984D03*
Y1062D03*
Y1141D03*
Y1220D03*
X4228D03*
Y1141D03*
Y1062D03*
Y984D03*
Y905D03*
X4133Y925D03*
Y1023D03*
Y1102D03*
Y1200D03*
X3543D03*
Y1102D03*
Y1023D03*
Y925D03*
X3637Y905D03*
Y984D03*
Y1062D03*
Y1141D03*
Y1220D03*
X2952Y1200D03*
Y1102D03*
Y1023D03*
Y925D03*
X3047Y905D03*
Y984D03*
Y1062D03*
Y1141D03*
Y1220D03*
X2362Y1200D03*
Y1102D03*
Y1023D03*
Y925D03*
X2456Y905D03*
Y984D03*
Y1062D03*
Y1141D03*
Y1220D03*
G54D203*
X4645Y1274D03*
Y853D03*
X4874D03*
Y1274D03*
X4283D03*
X4283Y853D03*
X4055D03*
Y1274D03*
X3464D03*
Y853D03*
X3692D03*
Y1274D03*
X2874D03*
X2874Y853D03*
X3102D03*
Y1274D03*
X2283D03*
Y853D03*
X2511D03*
Y1274D03*
G54D204*
X5829Y901D03*
X5312D03*
X5829Y1125D03*
X5312D03*
G54D205*
X5708Y1008D03*
X5610D03*
X5531D03*
X5433D03*
Y1111D03*
X5531D03*
X5610D03*
X5708D03*
G54D206*
X5122Y1919D03*
X5102Y1950D03*
X5082Y1919D03*
X5102Y1887D03*
G54D207*
X6325Y2080D03*
G54D208*
X6505Y2657D03*
G54D209*
X6437Y4181D03*
Y4015D03*
X6220Y4181D03*
X5082Y4041D03*
Y3875D03*
Y3710D03*
Y3545D03*
X4866Y4041D03*
Y3875D03*
Y3710D03*
G54D210*
X6220Y4015D03*
X4866Y3545D03*
G54D211*
X5064Y4226D03*
Y3360D03*
G54D212*
X2891Y3805D03*
G54D213*
X2841Y3705D03*
X2791Y3805D03*
X2741Y3705D03*
X2691Y3805D03*
X2641Y3705D03*
X2591Y3805D03*
X2541Y3705D03*
G54D214*
X3022Y3935D03*
X2410D03*
G54D215*
X2941Y4055D03*
X2491D03*
G54D216*
X2865Y4188D03*
X2965Y4248D03*
X2467Y4188D03*
X2567Y4248D03*
G54D217*
X1860Y3978D03*
X1958D03*
Y4057D03*
X1860D03*
G54D218*
X1672Y4163D03*
X2146D03*
G54D219*
X1192Y4167D03*
X1092D03*
X992D03*
G54D220*
X892Y4167D03*
G54D221*
X1092Y4252D03*
G54D222*
X4239Y3516D03*
X4464Y3716D03*
Y3516D03*
X4239Y3716D03*
G54D223*
X4239Y3616D03*
X4539Y3656D03*
Y3576D03*
G54D224*
X3277Y4145D03*
G54D225*
X3375Y4145D03*
X3474D03*
X3572D03*
X3671D03*
X3769D03*
X3868D03*
X3966D03*
X4064D03*
X4163D03*
G54D226*
X6082Y1192D03*
X1397Y1692D03*
X1417Y4133D03*
X5393Y3789D03*
G54D227*
X889Y1023D03*
X5019Y905D03*
X4464D03*
X3881D03*
X3303D03*
X2692D03*
X2102Y1023D03*
X1466D03*
M02*