%FSLAX23Y23*%
%MOIN*%
%SFA1B1*%

%IPPOS*%
%ADD9500C,0.007900*%
%ADD9501C,0.009800*%
%ADD9502C,0.011800*%
%ADD9503C,0.015700*%
%ADD9504C,0.027600*%
%ADD9505C,0.029100*%
%ADD9506C,0.029500*%
%ADD9507C,0.035000*%
%ADD9508C,0.035400*%
%ADD9509C,0.036200*%
%ADD9510C,0.037400*%
%ADD9511C,0.039400*%
%ADD9512C,0.040200*%
%ADD9513C,0.051200*%
%ADD9514C,0.055100*%
%ADD9515C,0.059000*%
%ADD9516C,0.063000*%
%ADD9517C,0.090600*%
%ADD9518C,0.106300*%
%ADD9519C,0.037000*%
%ADD9520C,0.039000*%
%ADD9521C,0.043300*%
%ADD9522C,0.093500*%
%ADD9523C,0.118100*%
%ADD9524C,0.128000*%
%LNbenchy-mb-pcb-changes-1*%
%LPD*%
G54D9500*
X911Y887D03*
X954Y1181D03*
X822D03*
Y1338D03*
X954D03*
X1076Y1531D03*
X1183Y1486D03*
X1395Y1502D03*
X1474D03*
X1465Y1426D03*
Y1385D03*
Y1343D03*
X1423D03*
Y1385D03*
Y1426D03*
X1506D03*
Y1385D03*
Y1343D03*
X1366Y1334D03*
X1350Y1387D03*
X1492Y893D03*
X1795Y1023D03*
X2214D03*
X2242D03*
X2192Y905D03*
X2110Y1133D03*
Y1161D03*
Y1190D03*
X2637Y1169D03*
X2667D03*
X2696Y1171D03*
Y1143D03*
Y1200D03*
Y1252D03*
Y1322D03*
Y1342D03*
X2722Y1344D03*
X2744D03*
X2765D03*
X2775Y1421D03*
Y1440D03*
X2773Y1490D03*
X2716Y1511D03*
X2706Y1555D03*
X2805Y1553D03*
X2878Y1462D03*
Y1431D03*
X2992Y1515D03*
Y1553D03*
X2588D03*
X2594Y1484D03*
X2620Y1490D03*
X2618Y1440D03*
X2628Y1344D03*
X2649D03*
X2671D03*
X2515Y1431D03*
Y1462D03*
X2421Y1515D03*
Y1553D03*
X2746Y1169D03*
X2775D03*
X1590Y1316D03*
Y1342D03*
X1574Y1383D03*
X1633Y1492D03*
X1673Y1533D03*
X3582Y1515D03*
Y1553D03*
X3696Y1462D03*
Y1431D03*
X3799Y1440D03*
X3809Y1502D03*
X3771Y1484D03*
X3897Y1509D03*
X3887Y1535D03*
X3948Y1502D03*
X3956Y1440D03*
Y1421D03*
X3946Y1344D03*
X3925D03*
X3903D03*
X3878Y1342D03*
Y1322D03*
X3852Y1344D03*
X3830D03*
X3809D03*
X3878Y1252D03*
Y1200D03*
Y1171D03*
Y1143D03*
X3848Y1169D03*
X3818D03*
X3927D03*
X3956D03*
X4059Y1431D03*
Y1462D03*
X4173Y1515D03*
Y1553D03*
X4399D03*
X4370Y1482D03*
X4389Y1440D03*
X4399Y1344D03*
X4421D03*
X4442D03*
X4468Y1342D03*
Y1322D03*
X4494Y1344D03*
X4515D03*
X4537D03*
X4547Y1421D03*
Y1440D03*
X4537Y1486D03*
X4488Y1500D03*
X4578Y1553D03*
X4468Y1252D03*
Y1200D03*
Y1171D03*
Y1143D03*
X4439Y1169D03*
X4409D03*
X4517D03*
X4547D03*
X3291Y1161D03*
Y1133D03*
Y1190D03*
X4763Y1515D03*
Y1553D03*
X5128Y1440D03*
Y1413D03*
Y1385D03*
X5189Y1374D03*
X5244D03*
X5305Y1385D03*
Y1413D03*
Y1440D03*
X5206Y1482D03*
X5407Y1486D03*
X5403Y1364D03*
X5433D03*
X5462D03*
Y1383D03*
X5502Y1425D03*
X5531Y1511D03*
X5605Y1490D03*
X5592Y1477D03*
X5649Y1509D03*
X5669Y1521D03*
X5740Y1525D03*
X5777Y1505D03*
X5801Y1480D03*
X5826Y1413D03*
X5813Y1397D03*
Y1374D03*
X5791Y1316D03*
X5769Y1297D03*
X5728Y1273D03*
X5689D03*
Y1393D03*
X5563Y1346D03*
X5561Y1189D03*
X5579D03*
X5580Y929D03*
X5562D03*
X5964Y946D03*
X6003D03*
X6023Y879D03*
X5944D03*
X6141Y822D03*
X6189D03*
X6224Y1005D03*
X6106D03*
X6139Y1352D03*
X6045Y1354D03*
X6084Y1423D03*
X6104D03*
Y1486D03*
Y1527D03*
X6145D03*
Y1486D03*
X6206Y1478D03*
Y1498D03*
Y1517D03*
Y1537D03*
Y1557D03*
X6063Y1527D03*
Y1486D03*
X5899Y1484D03*
Y1513D03*
Y1545D03*
Y1450D03*
Y1419D03*
X5897Y1387D03*
X5891Y1368D03*
Y1344D03*
X5830Y1228D03*
X5346Y1279D03*
X5241Y1269D03*
Y1291D03*
X5191D03*
Y1269D03*
X5143Y1116D03*
X5059Y1063D03*
Y1033D03*
Y1005D03*
X5139Y878D03*
X6498Y1395D03*
X6271Y1596D03*
X6437Y1876D03*
X6529Y1891D03*
X6509Y1960D03*
X6456Y2234D03*
X6496Y2332D03*
X6435Y2391D03*
Y2421D03*
Y2450D03*
Y2505D03*
Y2535D03*
Y2565D03*
X6352Y2610D03*
X6322Y2824D03*
X6271Y2815D03*
X6255Y2866D03*
X6279Y2950D03*
X6281Y2990D03*
Y3009D03*
Y3029D03*
X6356Y3045D03*
Y3068D03*
Y2982D03*
Y2919D03*
X6428Y3118D03*
X6527Y2769D03*
X6301Y2336D03*
X6309Y2244D03*
Y2214D03*
Y2185D03*
X6279D03*
X6250D03*
Y2214D03*
X6279D03*
Y2244D03*
X6250D03*
X6220D03*
Y2214D03*
Y2185D03*
X6122Y2269D03*
X6106Y2255D03*
X6092Y2242D03*
X6009D03*
X5986Y2376D03*
X6003Y2397D03*
X6015Y2435D03*
X5986D03*
X5927D03*
X5897D03*
X5868D03*
X5809D03*
X5779D03*
X5750D03*
X5708Y2427D03*
X5728Y2352D03*
X5649D03*
X5689Y2311D03*
X5718Y2244D03*
X5708Y2153D03*
X5673D03*
X5626D03*
X5594D03*
X5541Y2151D03*
X5500Y2124D03*
X5502Y2068D03*
X5482Y2055D03*
Y2023D03*
X5413Y2027D03*
X5381D03*
X5344D03*
X5303Y1988D03*
X5279D03*
X5240Y1980D03*
X5202Y1978D03*
X5183Y1939D03*
X5185Y1895D03*
X5206Y1791D03*
X5273Y1677D03*
X5291Y1592D03*
X5242Y1572D03*
X5190D03*
X5141Y1592D03*
X4891Y1633D03*
X4905Y1824D03*
X4933D03*
X4960D03*
X4881Y1883D03*
Y1903D03*
Y1923D03*
X4907Y2019D03*
X4942D03*
X4972Y1996D03*
X5003D03*
X5027Y1976D03*
X5066Y1994D03*
X5147Y2066D03*
X5141Y2366D03*
X5118D03*
X5094Y2392D03*
X5070D03*
X5059Y2411D03*
X5106D03*
X5112Y2450D03*
X5082D03*
Y2482D03*
X5108Y2488D03*
X5120Y2507D03*
X5145Y2480D03*
X5179Y2466D03*
Y2435D03*
X5161Y2417D03*
X5222Y2405D03*
Y2488D03*
X5287Y2523D03*
X5352Y2474D03*
X5344Y2415D03*
X5287Y2366D03*
X5047D03*
X5023D03*
X4952Y2350D03*
X4929D03*
X4905D03*
X4881D03*
X4854Y2397D03*
X4893Y2417D03*
Y2450D03*
X4925D03*
X4964D03*
X4988D03*
Y2482D03*
X5019D03*
X5051D03*
X5055Y2517D03*
X5019Y2513D03*
X4972Y2498D03*
X4956Y2482D03*
X4940Y2521D03*
X4903Y2523D03*
X4881D03*
X4862Y2450D03*
X4830Y2482D03*
X4799D03*
X4803Y2454D03*
X4767Y2450D03*
Y2482D03*
X4736D03*
Y2413D03*
X4759Y2417D03*
X4783Y2413D03*
X4791Y2350D03*
X4728D03*
X4720Y2399D03*
X4704Y2413D03*
X4940Y2417D03*
X4956Y2639D03*
X4978Y2635D03*
X4999D03*
X5019Y2639D03*
X4988Y2671D03*
X4962Y2665D03*
X4960Y2687D03*
X4940Y2698D03*
X4893Y2671D03*
Y2639D03*
X4862Y2671D03*
X4830D03*
X4799D03*
X4767D03*
Y2639D03*
X4736D03*
X4803Y2635D03*
X4767Y2740D03*
X4720Y2738D03*
X4736Y2722D03*
X4704D03*
X4716Y2785D03*
X4753Y2783D03*
X4905Y2740D03*
X5043Y2706D03*
X5061Y2687D03*
X5114Y2671D03*
Y2639D03*
X5145D03*
Y2665D03*
X5141Y2698D03*
X5194Y2694D03*
Y2718D03*
Y2671D03*
Y2647D03*
Y2624D03*
X5250D03*
Y2647D03*
Y2671D03*
Y2694D03*
Y2718D03*
X5145Y2608D03*
X5126Y2600D03*
X5076Y2633D03*
X4793Y2244D03*
X5539Y2084D03*
X5563Y2092D03*
X5650Y2078D03*
X5676D03*
X5701D03*
X5736Y2084D03*
X5643Y1986D03*
X5616D03*
X5572Y1879D03*
X5507Y1885D03*
X5494Y1897D03*
X5442Y1891D03*
Y1870D03*
X5535Y1832D03*
X5661Y1876D03*
X5740Y1830D03*
X5777Y1834D03*
X5791Y1724D03*
X5828Y1728D03*
X5842Y1669D03*
X5822Y1618D03*
X5899Y1608D03*
Y1576D03*
Y1639D03*
X5917Y1728D03*
X5980Y1744D03*
X6011D03*
X6043D03*
X6074D03*
X6106D03*
X6137D03*
X6169D03*
X6200D03*
X6232D03*
X6145Y1568D03*
X6104D03*
X6063D03*
X5752Y1675D03*
X5708Y1708D03*
X5677D03*
X5629D03*
X5598D03*
X5637Y1584D03*
X5610Y2470D03*
X5767Y2618D03*
X5797D03*
X5826D03*
Y2647D03*
X5797D03*
X5856D03*
Y2618D03*
X5870Y2726D03*
X5842D03*
X5897D03*
X5909Y2820D03*
X5962Y2846D03*
X6041Y2854D03*
X6118Y2858D03*
Y2836D03*
Y2928D03*
Y2973D03*
X6072D03*
X6026D03*
Y2928D03*
X6072D03*
X6163D03*
Y2973D03*
Y3019D03*
X6209D03*
Y2973D03*
Y2928D03*
X6194Y2854D03*
X6209Y3065D03*
X6163D03*
X6118D03*
Y3019D03*
X6072D03*
X6026D03*
Y3065D03*
Y3111D03*
X6072D03*
Y3065D03*
X6118Y3111D03*
X6163D03*
X6209D03*
X5954Y3049D03*
X5952Y2970D03*
Y2950D03*
X5874Y2915D03*
X5850Y2864D03*
X5775D03*
X5722Y2903D03*
Y2927D03*
Y2970D03*
Y2994D03*
Y3037D03*
Y3061D03*
X5793Y3100D03*
X5870Y3049D03*
X5689Y2972D03*
X5616Y2923D03*
X5629Y2864D03*
X5541Y3015D03*
X6118Y2626D03*
X6080Y2529D03*
Y2500D03*
Y2470D03*
X6045Y2435D03*
X6161Y2429D03*
X5876Y2297D03*
X4681Y2442D03*
X4641Y2425D03*
X4653Y2474D03*
X4669Y2639D03*
X4683Y2694D03*
X4200Y2675D03*
X4131D03*
X4098Y2671D03*
X4104Y2704D03*
X4047Y2706D03*
X4033Y2726D03*
X4051Y2671D03*
X3980Y2669D03*
Y2702D03*
X3952Y2698D03*
X3935Y2730D03*
X3944Y2761D03*
X3980Y2765D03*
Y2797D03*
X4061Y2773D03*
X4090Y2763D03*
X4104Y2786D03*
Y2807D03*
X4112Y2838D03*
X4065Y2878D03*
X4041Y2858D03*
X4037Y2895D03*
X3964Y2887D03*
X3933Y2876D03*
X3889Y2837D03*
Y2819D03*
X3858D03*
Y2837D03*
X3826D03*
Y2819D03*
X3791Y2828D03*
X3753Y2822D03*
X3759Y2797D03*
Y2765D03*
X3696D03*
X3704Y2726D03*
X3681Y2734D03*
X3665Y2702D03*
X3641Y2726D03*
X3633Y2765D03*
Y2797D03*
X3602D03*
Y2828D03*
X3507D03*
X3476D03*
X3480Y2874D03*
X3450Y2854D03*
X3431Y2773D03*
X3448Y2750D03*
X3476Y2765D03*
Y2734D03*
Y2702D03*
X3507D03*
Y2671D03*
X3474Y2667D03*
X3476Y2639D03*
X3539D03*
X3543Y2612D03*
X3515Y2600D03*
X3535Y2572D03*
X3543Y2553D03*
X3570Y2545D03*
Y2482D03*
X3602D03*
X3539D03*
Y2450D03*
Y2513D03*
X3507D03*
X3476Y2545D03*
X3437Y2553D03*
X3440Y2529D03*
X3448Y2478D03*
X3444Y2450D03*
X3439Y2399D03*
X3415Y2419D03*
X3401Y2435D03*
Y2368D03*
Y2344D03*
X3448Y2360D03*
X3476Y2356D03*
X3507D03*
X3539D03*
Y2324D03*
X3570D03*
Y2356D03*
Y2387D03*
X3602Y2356D03*
X3633D03*
X3665D03*
X3696D03*
Y2324D03*
X3728D03*
Y2293D03*
X3696D03*
X3665D03*
X3633D03*
X3618Y2259D03*
X3649D03*
X3681D03*
X3728Y2261D03*
X3744Y2206D03*
X3712Y2196D03*
Y2145D03*
X3759Y2153D03*
X3791D03*
X3775Y2222D03*
X3807D03*
X3826Y2284D03*
Y2302D03*
X3822Y2324D03*
X3854Y2340D03*
Y2360D03*
X3858Y2383D03*
Y2415D03*
X3885Y2419D03*
X3881Y2391D03*
X3917Y2387D03*
X3942Y2423D03*
X3933Y2448D03*
X3952Y2478D03*
X3939Y2498D03*
X3952Y2517D03*
X3921Y2515D03*
X3917Y2482D03*
X3885D03*
X3854D03*
X3791D03*
X3728D03*
X3736Y2442D03*
X3744Y2403D03*
X3759Y2387D03*
X3793D03*
X3822D03*
Y2419D03*
X3791Y2356D03*
X3759Y2324D03*
X3791Y2293D03*
X3881Y2302D03*
Y2284D03*
Y2328D03*
X3917Y2324D03*
X3948D03*
Y2356D03*
X4011D03*
Y2293D03*
X4059Y2299D03*
X4047Y2324D03*
X4041Y2263D03*
X4019Y2230D03*
X3992Y2228D03*
X3929Y2259D03*
X3901Y2200D03*
X3915Y2157D03*
X3897Y2065D03*
X3915Y2045D03*
X3917Y1994D03*
X3878Y2019D03*
Y1958D03*
X3893Y1925D03*
X3939Y1915D03*
X3966D03*
X3996Y1917D03*
X4023D03*
X3976Y1973D03*
X3710Y2019D03*
Y2076D03*
X3665Y2131D03*
X3673Y2167D03*
X3635Y2007D03*
Y1956D03*
X3444Y1996D03*
X3409D03*
X3356Y1998D03*
X3307Y2035D03*
X3285Y2053D03*
X3265Y2072D03*
X3248Y2096D03*
X3228Y2118D03*
X3313Y2257D03*
X3297Y2334D03*
X3338Y2340D03*
X3322Y2374D03*
X3265Y2379D03*
X3263Y2462D03*
X3236Y2448D03*
X3204D03*
X3208Y2568D03*
X3295Y2576D03*
X3362Y2566D03*
X3366Y2539D03*
X3362Y2602D03*
X3332Y2645D03*
X3289Y2661D03*
X3326Y2767D03*
X3344Y2785D03*
X3285Y2801D03*
X3247Y2795D03*
X3194Y2789D03*
X3159Y2696D03*
X3401Y2720D03*
X3507Y2765D03*
X3539D03*
X3507Y2797D03*
X3570Y2734D03*
Y2671D03*
X3608Y2696D03*
X3633Y2671D03*
X3696D03*
X3759D03*
Y2702D03*
X3791D03*
X3822Y2734D03*
X3854D03*
X3881Y2738D03*
X3889Y2761D03*
X3854Y2781D03*
X3885Y2702D03*
X3917Y2671D03*
X3927Y2631D03*
X3909Y2622D03*
X3921Y2604D03*
X3952D03*
Y2643D03*
X3885Y2608D03*
X3854D03*
Y2671D03*
X3838Y2655D03*
X3822Y2671D03*
X3791Y2608D03*
X3728D03*
X3665D03*
X3602D03*
X3633Y2545D03*
X3696D03*
X3759D03*
X3822D03*
X3856Y2543D03*
X3885Y2545D03*
X4007Y2549D03*
X4078Y2505D03*
X4117Y2525D03*
X4138D03*
X4128Y2437D03*
X4185Y2450D03*
X4122Y2366D03*
Y2344D03*
X4078Y2376D03*
X4070Y2417D03*
X3980Y2419D03*
Y2387D03*
X3696D03*
Y2419D03*
X3667Y2385D03*
X3637Y2415D03*
X3665Y2482D03*
X3480Y2391D03*
X3492Y2261D03*
X3442Y2259D03*
X3452Y2202D03*
X3486Y2200D03*
X3474Y2149D03*
X3454Y2163D03*
X3444Y2135D03*
X3425Y2179D03*
X3482Y2108D03*
Y2090D03*
X3466Y2072D03*
Y2041D03*
Y2019D03*
X3482Y2057D03*
X3507Y2124D03*
X3342Y2462D03*
X3228Y2901D03*
X3185Y2950D03*
X3285Y2996D03*
X3305Y3124D03*
X3240Y3120D03*
X3374Y3116D03*
X3415D03*
X3450D03*
X3444Y2990D03*
X3439Y2970D03*
X3454Y2956D03*
X3474Y2942D03*
X3539Y2903D03*
X3570Y2893D03*
Y2994D03*
X3744Y2990D03*
X3769Y3031D03*
X3809Y3041D03*
X3828Y3070D03*
X3858Y3108D03*
X3856Y3023D03*
X3816Y2990D03*
X3903Y2966D03*
X3929Y2988D03*
X3948Y2978D03*
X3879Y2942D03*
X3807Y2860D03*
X3748Y2870D03*
X3728Y2797D03*
X4187Y2608D03*
X3994Y1565D03*
X3887Y1612D03*
X3765Y1563D03*
X2706Y1612D03*
X2677Y1584D03*
X2529Y1801D03*
X2521Y1889D03*
X2525Y2096D03*
X2547Y2118D03*
X2568Y2137D03*
X2588Y2159D03*
X2622Y2190D03*
X2618Y2275D03*
X2598Y2257D03*
X2525D03*
X2409D03*
Y2177D03*
X2425Y2147D03*
X2443D03*
X2395Y2145D03*
X2377D03*
X2354Y2167D03*
X2336D03*
X2315Y2192D03*
X2297D03*
X2267Y2177D03*
X2238Y2212D03*
X2220D03*
X2196Y2194D03*
X2178D03*
X2147Y2214D03*
X2086Y2232D03*
X2047Y2255D03*
X2059Y2161D03*
X2021Y2167D03*
X2002Y2175D03*
X1990Y2346D03*
X2065Y2350D03*
X2003Y2446D03*
Y2465D03*
X1972Y2494D03*
Y2512D03*
X2031Y2539D03*
Y2557D03*
X2013Y2584D03*
Y2602D03*
Y2626D03*
Y2644D03*
X1980Y2675D03*
X1982Y2702D03*
Y2734D03*
X2003Y2765D03*
Y2795D03*
X2029Y2842D03*
Y2893D03*
X2053Y2970D03*
X2108Y2933D03*
X2165Y2911D03*
X2135Y2876D03*
X2194Y2856D03*
X2224Y2889D03*
X2287D03*
X2318D03*
X2350D03*
X2381D03*
X2413D03*
X2456D03*
X2488D03*
Y2791D03*
X2456D03*
X2403Y2801D03*
X2409Y2724D03*
X2425Y2714D03*
X2448D03*
X2393D03*
X2370D03*
X2277Y2801D03*
X2252Y2791D03*
X2248Y2813D03*
X2173Y2789D03*
X2065Y2685D03*
Y2665D03*
X1821Y2584D03*
X1803D03*
X1708Y2464D03*
X1673Y2433D03*
X1563Y2462D03*
X1653Y2291D03*
X1669Y2202D03*
Y2179D03*
X1706Y2143D03*
Y2116D03*
X1777Y2129D03*
X1826Y2139D03*
X1807Y2159D03*
Y2185D03*
Y2206D03*
Y2100D03*
X1836D03*
X1846Y2120D03*
X1866Y2100D03*
X1838Y2356D03*
X1842Y2378D03*
X1805Y2326D03*
X1775Y2309D03*
X1649Y1925D03*
X1665Y1852D03*
X1690Y1866D03*
X1755Y1769D03*
X1783D03*
X1822D03*
X1850D03*
X1895Y1726D03*
X1927D03*
X1958D03*
X1990Y1860D03*
X2009D03*
X2000Y1876D03*
X2009Y1891D03*
X1990D03*
X2002Y1937D03*
X2126Y1964D03*
Y1889D03*
X2155Y1915D03*
X2267Y2257D03*
X2596Y2334D03*
X2637Y2349D03*
Y2367D03*
X2618Y2380D03*
Y2398D03*
X2649Y2419D03*
Y2437D03*
X2677Y2458D03*
Y2476D03*
X2649Y2492D03*
Y2510D03*
X2677Y2537D03*
Y2555D03*
X2661Y2628D03*
X2596Y2602D03*
X2700Y2878D03*
X2706Y2903D03*
X2962Y2854D03*
X2942Y2824D03*
X2982Y2785D03*
X3002Y2844D03*
X3017Y2200D03*
X2427Y3015D03*
X1706Y3053D03*
X1637D03*
Y3080D03*
X1641Y3110D03*
X1574Y3124D03*
Y2998D03*
X1637Y2990D03*
Y3021D03*
Y2958D03*
X1565Y2923D03*
X1683Y2795D03*
X1718Y2761D03*
X1677Y1710D03*
X1669Y1624D03*
X1637D03*
X1606D03*
X1574D03*
Y1694D03*
X1584Y1752D03*
X1588Y1785D03*
X1633Y1574D03*
X1200Y1679D03*
X1076Y1748D03*
Y1964D03*
X1200Y1895D03*
Y2108D03*
X1346Y2090D03*
X1535Y2072D03*
X1547Y2131D03*
X1503Y1986D03*
X1531Y2468D03*
X1374Y2395D03*
X1346D03*
X1200Y2362D03*
X1076Y2437D03*
Y2181D03*
X1005Y2624D03*
X903D03*
X1257D03*
X1360D03*
X1472Y2789D03*
X1454Y2807D03*
X1555Y2795D03*
Y2824D03*
X1446Y2990D03*
X1427D03*
X1419Y3072D03*
X1440D03*
X1309Y3002D03*
Y2974D03*
Y2942D03*
X1360Y3261D03*
X1257D03*
X1005D03*
X903D03*
X893Y3379D03*
Y3399D03*
Y3458D03*
Y3517D03*
Y3576D03*
X960Y3616D03*
X950Y3635D03*
Y3655D03*
X970Y3702D03*
X905Y3832D03*
X846Y3797D03*
X1212Y3838D03*
X1318Y3795D03*
X1275Y3645D03*
Y3606D03*
X1176Y3600D03*
X1163Y3645D03*
X1118Y3620D03*
X1102Y3557D03*
Y3538D03*
Y3520D03*
Y3497D03*
Y3479D03*
Y3455D03*
Y3437D03*
Y3419D03*
X1120Y3466D03*
X1084D03*
Y3509D03*
X1120D03*
X1027Y3488D03*
X992D03*
X846Y3336D03*
X1214Y3690D03*
X1133Y4065D03*
X1909Y3750D03*
Y3712D03*
X2096Y3533D03*
X2086Y3494D03*
X2175Y3228D03*
Y3200D03*
X1883Y3183D03*
X1637Y3147D03*
X2557Y3240D03*
X2692Y3238D03*
X2708Y3277D03*
X2710Y3303D03*
X2730Y3310D03*
X2789Y3313D03*
X2801Y3370D03*
X2759D03*
Y3411D03*
Y3452D03*
X2718D03*
Y3411D03*
Y3370D03*
X2647Y3421D03*
Y3440D03*
X2689Y3500D03*
X2722Y3515D03*
X2775Y3521D03*
Y3600D03*
X2673Y3561D03*
X2614Y3539D03*
X2588Y3578D03*
X2531Y3596D03*
X2582Y3480D03*
X2549Y3431D03*
X2507D03*
X2574Y3389D03*
X2468Y3336D03*
X2401Y3399D03*
X2801Y3411D03*
Y3452D03*
X2862Y3421D03*
X2923Y3391D03*
X2897Y3360D03*
X2907Y3293D03*
X2905Y3204D03*
X2870Y3208D03*
X2842Y3238D03*
X2826Y3277D03*
X2787Y3210D03*
X2748D03*
X2722Y3192D03*
X2856Y3157D03*
X2889Y3149D03*
X2921Y3143D03*
X2992Y3316D03*
X2988Y3376D03*
X3072Y3313D03*
X3104Y3466D03*
X2974Y3521D03*
X2937Y3496D03*
X2716Y3907D03*
X3248Y3905D03*
X3277D03*
X3307D03*
X3277Y4088D03*
X3720Y3982D03*
Y3944D03*
X3736Y3828D03*
X3704D03*
X3673D03*
X3641D03*
X3610D03*
X3767D03*
X3799D03*
X3830D03*
X3765Y3502D03*
X3738D03*
X3710D03*
Y3458D03*
X3714Y3439D03*
X3753Y3440D03*
X3765Y3458D03*
X3738D03*
X3740Y3383D03*
X3714D03*
X3685Y3374D03*
Y3346D03*
X3651Y3344D03*
Y3378D03*
X3655Y3307D03*
Y3279D03*
X3665Y3238D03*
X3692D03*
X3714Y3242D03*
Y3202D03*
X3734D03*
X3753D03*
X3773D03*
X3793D03*
Y3222D03*
X3753D03*
X3748Y3291D03*
X3750Y3320D03*
Y3360D03*
X3724Y3340D03*
X3720Y3281D03*
X3692Y3167D03*
X3665D03*
X3687Y3133D03*
X3736Y3126D03*
X3793Y3135D03*
X3818Y3151D03*
X3618Y3149D03*
X3586Y3159D03*
X3328Y3181D03*
X3271D03*
X3208Y3147D03*
X3346Y3285D03*
X3376Y3259D03*
X3427Y3338D03*
X3793Y3419D03*
X3856Y3429D03*
X3911Y3454D03*
X3960Y3421D03*
X3948Y3362D03*
X4031Y3387D03*
X4005Y3299D03*
X4114Y3293D03*
Y3253D03*
Y3332D03*
X4013Y3129D03*
X4112Y3655D03*
X4339Y3665D03*
X4374Y3561D03*
X4301D03*
X4502Y3570D03*
X4586Y3313D03*
Y3273D03*
X4665Y3287D03*
X5374Y3395D03*
Y3425D03*
Y3454D03*
X5393Y3439D03*
Y3409D03*
X5413Y3395D03*
Y3425D03*
Y3454D03*
X5448Y3517D03*
X5474Y3527D03*
X5425Y3547D03*
X5421Y3669D03*
X5378Y3639D03*
X5474Y3700D03*
X5517Y3669D03*
X5661Y3657D03*
Y3685D03*
X5653Y3718D03*
X5628Y3748D03*
X5606Y3761D03*
Y3785D03*
Y3807D03*
X5628Y3820D03*
X5685Y3881D03*
X5748D03*
X5842Y3939D03*
X5864D03*
X5832Y3724D03*
X5836Y3692D03*
X5816Y3645D03*
X5795Y3628D03*
X5801Y3596D03*
X5771D03*
X5742D03*
X5675D03*
X5645D03*
X5616D03*
X5582Y3464D03*
X5868Y3596D03*
Y3616D03*
X5897D03*
Y3596D03*
X5927D03*
Y3616D03*
X5994D03*
Y3596D03*
X6023D03*
Y3616D03*
X6053D03*
Y3596D03*
X6145Y3610D03*
Y3578D03*
X6143Y3395D03*
Y3366D03*
Y3336D03*
Y3277D03*
Y3248D03*
Y3218D03*
X6137Y3200D03*
Y3181D03*
X6098D03*
Y3200D03*
X5982Y3143D03*
X5944Y3173D03*
X5905Y3305D03*
X5878D03*
X5850D03*
X5793Y3131D03*
X5787Y4108D03*
X5803Y4133D03*
X5712Y4145D03*
X5683Y4084D03*
Y4061D03*
X5568Y3998D03*
X5502Y3994D03*
X5340Y3988D03*
Y4007D03*
X5238Y4045D03*
X5275Y4092D03*
Y4120D03*
Y4147D03*
X5964Y4226D03*
X5992D03*
X6019D03*
X6419Y3779D03*
Y3752D03*
Y3720D03*
Y3653D03*
Y3626D03*
Y3594D03*
X6322Y3173D03*
X6291D03*
X6253Y3145D03*
G54D9501*
X5102Y1887D03*
X5122Y1919D03*
X5082D03*
X5102Y1950D03*
G54D9502*
X1545Y1533D03*
X1702D03*
X1801Y1529D03*
X1939Y1519D03*
X2066D03*
X2185D03*
X5340Y1316D03*
X5570Y1311D03*
Y818D03*
X6027Y1137D03*
X6003Y1192D03*
X6027Y1248D03*
X6082Y1271D03*
X6138Y1248D03*
X6161Y1192D03*
X6138Y1137D03*
X6082Y1114D03*
X5490Y1742D03*
X2529Y2415D03*
X2511Y2470D03*
X2529Y2523D03*
X2157Y2547D03*
X2141Y2502D03*
Y2444D03*
X2157Y2391D03*
X2141Y2594D03*
X1453Y1748D03*
X1397Y1771D03*
X1342Y1748D03*
X1318Y1692D03*
X1342Y1637D03*
X1397Y1614D03*
X1453Y1637D03*
X1476Y1692D03*
X1385Y3809D03*
X1362D03*
X1338D03*
X1285Y3742D03*
X1259D03*
X1108Y3826D03*
Y3856D03*
Y3885D03*
X1031Y3755D03*
X1007D03*
X1293Y3992D03*
X1318D03*
X1344D03*
X1370D03*
X1361Y4078D03*
X1338Y4133D03*
X1361Y4189D03*
X1417Y4212D03*
X1473Y4189D03*
X1496Y4133D03*
X1473Y4078D03*
X1417Y4055D03*
X5338Y3845D03*
X5393Y3868D03*
X5449Y3845D03*
X5472Y3789D03*
X5449Y3733D03*
X5393Y3710D03*
X5338Y3733D03*
X5315Y3789D03*
G54D9503*
X2225Y2418D03*
X2330D03*
Y2523D03*
X2225D03*
Y2628D03*
X2330D03*
X2435D03*
Y2523D03*
Y2418D03*
G54D9504*
X1742Y3899D03*
X1811D03*
X1909D03*
X2007D03*
X2076D03*
G54D9505*
X2362Y925D03*
Y1023D03*
Y1102D03*
Y1200D03*
X2456Y1220D03*
Y1141D03*
Y1063D03*
Y984D03*
Y905D03*
X2952Y925D03*
Y1023D03*
Y1102D03*
Y1200D03*
X3047Y1220D03*
Y1141D03*
Y1063D03*
Y984D03*
Y905D03*
X3543Y925D03*
Y1023D03*
Y1102D03*
Y1200D03*
X3637Y1220D03*
Y1141D03*
Y1063D03*
Y984D03*
Y905D03*
X4133Y925D03*
Y1023D03*
Y1102D03*
Y1200D03*
X4228Y1220D03*
Y1141D03*
Y1063D03*
Y984D03*
Y905D03*
X4724Y925D03*
Y1023D03*
Y1102D03*
Y1200D03*
X4818Y1220D03*
Y1141D03*
Y1063D03*
Y984D03*
Y905D03*
G54D9506*
X6385Y881D03*
Y960D03*
Y1039D03*
X6464D03*
Y1118D03*
Y1196D03*
Y1275D03*
Y1354D03*
Y1433D03*
Y1511D03*
X6385D03*
Y1433D03*
Y1354D03*
Y1275D03*
Y1196D03*
Y1118D03*
X6464Y960D03*
Y881D03*
Y1590D03*
X6385D03*
Y1669D03*
X6464D03*
Y1748D03*
X6385D03*
G54D9507*
X2467Y4188D03*
X2567Y4248D03*
X2865Y4188D03*
X2965Y4248D03*
G54D9508*
X1131Y1023D03*
X1230D03*
Y1122D03*
X1131D03*
Y1220D03*
X1230D03*
X2541Y3705D03*
X2641D03*
X2741D03*
X2841D03*
X2891Y3805D03*
X2791D03*
X2691D03*
X2591D03*
G54D9509*
X5433Y1008D03*
X5531D03*
X5610D03*
X5708D03*
Y1111D03*
X5610D03*
X5531D03*
X5433D03*
X1958Y3978D03*
Y4057D03*
X1860D03*
Y3978D03*
G54D9510*
X3277Y4145D03*
X3376D03*
X3474D03*
X3572D03*
X3671D03*
X3769D03*
X3868D03*
X3966D03*
X4065D03*
X4163D03*
G54D9511*
X1683Y905D03*
X1860D03*
X6325Y1980D03*
Y2080D03*
X6505Y2557D03*
Y2657D03*
X6225Y2080D03*
X6125D03*
Y1980D03*
X6225D03*
X6025D03*
X5925D03*
X5825D03*
Y2080D03*
X5925D03*
X6025D03*
X5665Y1647D03*
X5565D03*
X5413Y1683D03*
X1935Y1671D03*
X1835D03*
G54D9512*
X892Y4167D03*
X992D03*
X1092D03*
X1192D03*
G54D9513*
X1633Y1003D03*
X1909D03*
G54D9514*
X4866Y3545D03*
Y3710D03*
Y3876D03*
Y4041D03*
X5082D03*
Y3876D03*
Y3710D03*
Y3545D03*
X6220Y4015D03*
Y4181D03*
X6437D03*
Y4015D03*
G54D9515*
X2283Y853D03*
X2511D03*
X2874D03*
X3102D03*
Y1274D03*
X2874D03*
X2511D03*
X2283D03*
X3464D03*
X3692D03*
X4055D03*
X4283D03*
X4645D03*
Y853D03*
X4283D03*
X4055D03*
X3692D03*
X3464D03*
X4874D03*
Y1274D03*
G54D9516*
X2410Y3935D03*
X3022D03*
G54D9517*
X5312Y901D03*
Y1125D03*
X5829D03*
Y901D03*
X2146Y4163D03*
X1672D03*
G54D9518*
X889Y1023D03*
X1466D03*
X2102D03*
X2692Y905D03*
X3303D03*
X3881D03*
X4464D03*
X5019D03*
X6082Y1192D03*
X1397Y1692D03*
X1417Y4133D03*
X5393Y3789D03*
G54D9519*
X938Y2827D03*
Y3095D03*
G54D9520*
X4239Y3616D03*
X4539Y3656D03*
Y3576D03*
G54D9521*
X1092Y4252D03*
G54D9522*
X4239Y3516D03*
Y3716D03*
X4464D03*
Y3516D03*
G54D9523*
X5064Y3360D03*
Y4226D03*
G54D9524*
X2491Y4055D03*
X2941D03*
M02*