%FSLAX23Y23*%
%MOIN*%
%SFA1B1*%

%IPPOS*%
%AMD23*
4,1,8,0.022200,-0.017400,0.022200,0.017400,0.017400,0.022200,-0.017400,0.022200,-0.022200,0.017400,-0.022200,-0.017400,-0.017400,-0.022200,0.017400,-0.022200,0.022200,-0.017400,0.0*
1,1,0.009780,0.017400,-0.017400*
1,1,0.009780,0.017400,0.017400*
1,1,0.009780,-0.017400,0.017400*
1,1,0.009780,-0.017400,-0.017400*
%
%AMD31*
4,1,8,0.004900,-0.015000,0.004900,0.015000,0.003700,0.016200,-0.003700,0.016200,-0.004900,0.015000,-0.004900,-0.015000,-0.003700,-0.016200,0.003700,-0.016200,0.004900,-0.015000,0.0*
1,1,0.002460,0.003700,-0.015000*
1,1,0.002460,0.003700,0.015000*
1,1,0.002460,-0.003700,0.015000*
1,1,0.002460,-0.003700,-0.015000*
%
%AMD32*
4,1,8,0.016200,-0.003700,0.016200,0.003700,0.015000,0.004900,-0.015000,0.004900,-0.016200,0.003700,-0.016200,-0.003700,-0.015000,-0.004900,0.015000,-0.004900,0.016200,-0.003700,0.0*
1,1,0.002460,0.015000,-0.003700*
1,1,0.002460,0.015000,0.003700*
1,1,0.002460,-0.015000,0.003700*
1,1,0.002460,-0.015000,-0.003700*
%
%AMD72*
4,1,8,-0.011800,0.023100,-0.011800,-0.023100,-0.008900,-0.026100,0.008900,-0.026100,0.011800,-0.023100,0.011800,0.023100,0.008900,0.026100,-0.008900,0.026100,-0.011800,0.023100,0.0*
1,1,0.005900,-0.008900,0.023100*
1,1,0.005900,-0.008900,-0.023100*
1,1,0.005900,0.008900,-0.023100*
1,1,0.005900,0.008900,0.023100*
%
%AMD80*
4,1,8,-0.007900,0.027100,-0.007900,-0.027100,-0.005900,-0.029000,0.005900,-0.029000,0.007900,-0.027100,0.007900,0.027100,0.005900,0.029000,-0.005900,0.029000,-0.007900,0.027100,0.0*
1,1,0.003940,-0.005900,0.027100*
1,1,0.003940,-0.005900,-0.027100*
1,1,0.003940,0.005900,-0.027100*
1,1,0.003940,0.005900,0.027100*
%
%AMD292*
4,1,8,-0.015000,-0.004900,0.015000,-0.004900,0.016200,-0.003700,0.016200,0.003700,0.015000,0.004900,-0.015000,0.004900,-0.016200,0.003700,-0.016200,-0.003700,-0.015000,-0.004900,0.0*
1,1,0.002460,-0.015000,-0.003700*
1,1,0.002460,0.015000,-0.003700*
1,1,0.002460,0.015000,0.003700*
1,1,0.002460,-0.015000,0.003700*
%
%AMD293*
4,1,8,-0.003700,-0.016200,0.003700,-0.016200,0.004900,-0.015000,0.004900,0.015000,0.003700,0.016200,-0.003700,0.016200,-0.004900,0.015000,-0.004900,-0.015000,-0.003700,-0.016200,0.0*
1,1,0.002460,-0.003700,-0.015000*
1,1,0.002460,0.003700,-0.015000*
1,1,0.002460,0.003700,0.015000*
1,1,0.002460,-0.003700,0.015000*
%
%AMD296*
4,1,8,-0.003900,0.012400,-0.003900,-0.012400,-0.002600,-0.013800,0.002600,-0.013800,0.003900,-0.012400,0.003900,0.012400,0.002600,0.013800,-0.002600,0.013800,-0.003900,0.012400,0.0*
1,1,0.002760,-0.002600,0.012400*
1,1,0.002760,-0.002600,-0.012400*
1,1,0.002760,0.002600,-0.012400*
1,1,0.002760,0.002600,0.012400*
%
%AMD297*
4,1,8,-0.007900,0.011000,-0.007900,-0.011000,-0.005100,-0.013800,0.005100,-0.013800,0.007900,-0.011000,0.007900,0.011000,0.005100,0.013800,-0.005100,0.013800,-0.007900,0.011000,0.0*
1,1,0.005520,-0.005100,0.011000*
1,1,0.005520,-0.005100,-0.011000*
1,1,0.005520,0.005100,-0.011000*
1,1,0.005520,0.005100,0.011000*
%
%AMD300*
4,1,4,0.000300,-0.014100,0.014100,-0.000300,-0.000300,0.014100,-0.014100,0.000300,0.000300,-0.014100,0.0*
%
%AMD301*
4,1,4,-0.000700,0.014800,-0.014800,0.000700,0.000700,-0.014800,0.014800,-0.000700,-0.000700,0.014800,0.0*
%
%AMD304*
4,1,8,0.011800,-0.031500,0.011800,0.031500,0.008900,0.034400,-0.008900,0.034400,-0.011800,0.031500,-0.011800,-0.031500,-0.008900,-0.034400,0.008900,-0.034400,0.011800,-0.031500,0.0*
1,1,0.005900,0.008900,-0.031500*
1,1,0.005900,0.008900,0.031500*
1,1,0.005900,-0.008900,0.031500*
1,1,0.005900,-0.008900,-0.031500*
%
%AMD320*
4,1,8,-0.010000,-0.013400,0.010000,-0.013400,0.013400,-0.010000,0.013400,0.010000,0.010000,0.013400,-0.010000,0.013400,-0.013400,0.010000,-0.013400,-0.010000,-0.010000,-0.013400,0.0*
1,1,0.006700,-0.010000,-0.010000*
1,1,0.006700,0.010000,-0.010000*
1,1,0.006700,0.010000,0.010000*
1,1,0.006700,-0.010000,0.010000*
%
G04~CAMADD=23~8~0.0~0.0~444.9~444.9~48.9~0.0~15~0.0~0.0~0.0~0.0~0~0.0~0.0~0.0~0.0~0~0.0~0.0~0.0~270.0~444.0~444.0*
%ADD23D23*%
%ADD26R,0.011810X0.023620*%
%ADD29R,0.020000X0.022000*%
G04~CAMADD=31~8~0.0~0.0~324.8~98.4~12.3~0.0~15~0.0~0.0~0.0~0.0~0~0.0~0.0~0.0~0.0~0~0.0~0.0~0.0~270.0~98.0~324.0*
%ADD31D31*%
G04~CAMADD=32~8~0.0~0.0~98.4~324.8~12.3~0.0~15~0.0~0.0~0.0~0.0~0~0.0~0.0~0.0~0.0~0~0.0~0.0~0.0~270.0~324.0~98.0*
%ADD32D32*%
%ADD40R,0.023620X0.011810*%
%ADD43R,0.045000X0.105000*%
%ADD46R,0.105000X0.045000*%
%ADD47R,0.022000X0.020000*%
%ADD48R,0.019680X0.020470*%
%ADD49C,0.029530*%
%ADD50R,0.015750X0.012210*%
%ADD51C,0.019680*%
%ADD56R,0.020470X0.019680*%
%ADD60R,0.040000X0.056000*%
%ADD62R,0.032280X0.035000*%
%ADD65R,0.202760X0.202760*%
%ADD67R,0.017720X0.012600*%
%ADD68R,0.015750X0.025590*%
%ADD69R,0.102360X0.102360*%
G04~CAMADD=72~8~0.0~0.0~521.7~236.2~29.5~0.0~15~0.0~0.0~0.0~0.0~0~0.0~0.0~0.0~0.0~0~0.0~0.0~0.0~90.0~236.0~522.0*
%ADD72D72*%
%ADD77R,0.025590X0.015750*%
G04~CAMADD=80~8~0.0~0.0~580.7~157.5~19.7~0.0~15~0.0~0.0~0.0~0.0~0~0.0~0.0~0.0~0.0~0~0.0~0.0~0.0~90.0~158.0~582.0*
%ADD80D80*%
%ADD83R,0.056000X0.040000*%
%ADD84R,0.012600X0.017720*%
%ADD95R,0.012210X0.015750*%
G04~CAMADD=292~8~0.0~0.0~324.8~98.4~12.3~0.0~15~0.0~0.0~0.0~0.0~0~0.0~0.0~0.0~0.0~0~0.0~0.0~0.0~180.0~324.0~98.0*
%ADD292D292*%
G04~CAMADD=293~8~0.0~0.0~98.4~324.8~12.3~0.0~15~0.0~0.0~0.0~0.0~0~0.0~0.0~0.0~0.0~0~0.0~0.0~0.0~180.0~98.0~324.0*
%ADD293D293*%
%ADD294R,0.066140X0.066140*%
%ADD295R,0.037400X0.031500*%
G04~CAMADD=296~8~0.0~0.0~275.6~78.7~13.8~0.0~15~0.0~0.0~0.0~0.0~0~0.0~0.0~0.0~0.0~0~0.0~0.0~0.0~90.0~80.0~276.0*
%ADD296D296*%
G04~CAMADD=297~8~0.0~0.0~275.6~157.5~27.6~0.0~15~0.0~0.0~0.0~0.0~0~0.0~0.0~0.0~0.0~0~0.0~0.0~0.0~90.0~158.0~276.0*
%ADD297D297*%
%ADD298R,0.047240X0.055120*%
%ADD299R,0.031500X0.037400*%
G04~CAMADD=300~9~0.0~0.0~196.8~204.7~0.0~0.0~0~0.0~0.0~0.0~0.0~0~0.0~0.0~0.0~0.0~0~0.0~0.0~0.0~225.0~282.0~281.0*
%ADD300D300*%
G04~CAMADD=301~9~0.0~0.0~200.0~220.0~0.0~0.0~0~0.0~0.0~0.0~0.0~0~0.0~0.0~0.0~0.0~0~0.0~0.0~0.0~45.0~296.0~295.0*
%ADD301D301*%
%ADD302R,0.052170X0.092520*%
%ADD303R,0.092520X0.052170*%
G04~CAMADD=304~8~0.0~0.0~689.0~236.2~29.5~0.0~15~0.0~0.0~0.0~0.0~0~0.0~0.0~0.0~0.0~0~0.0~0.0~0.0~270.0~236.0~689.0*
%ADD304D304*%
G04~CAMADD=320~8~0.0~0.0~267.7~267.7~33.5~0.0~15~0.0~0.0~0.0~0.0~0~0.0~0.0~0.0~0.0~0~0.0~0.0~0.0~180.0~268.0~268.0*
%ADD320D320*%
%LNbenchy-mb-pcb-changes-1*%
%LPD*%
G54D23*
X2734Y3437D03*
X2785D03*
X2734Y3385D03*
X2785D03*
G54D26*
X1976Y3731D03*
X1940D03*
X1909D03*
X1877D03*
X1842D03*
X1858Y3768D03*
X1893D03*
X1925D03*
X1960D03*
X4696Y1534D03*
X4732D03*
X4763D03*
X4795D03*
X4830D03*
X4814Y1497D03*
X4779D03*
X4748D03*
X4712D03*
X4106Y1534D03*
X4141D03*
X4173D03*
X4204D03*
X4240D03*
X4224Y1497D03*
X4188D03*
X4157D03*
X4122D03*
X3515Y1534D03*
X3551D03*
X3582D03*
X3614D03*
X3649D03*
X3633Y1497D03*
X3598D03*
X3566D03*
X3531D03*
X2925Y1534D03*
X2960D03*
X2992D03*
X3023D03*
X3059D03*
X3043Y1497D03*
X3007D03*
X2976D03*
X2940D03*
X2354Y1534D03*
X2389D03*
X2421D03*
X2452D03*
X2488D03*
X2472Y1497D03*
X2437D03*
X2405D03*
X2370D03*
G54D29*
X6302Y3045D03*
X6342D03*
X6302Y3013D03*
X6342D03*
Y2982D03*
X6302D03*
X5791Y2864D03*
X5831D03*
X3976Y3387D03*
X4016D03*
X2708Y3261D03*
X2748D03*
X2787Y3230D03*
X2827D03*
X2948Y3360D03*
X2988D03*
X2586Y3596D03*
X2546D03*
X2610Y3446D03*
X2570D03*
X1714Y4037D03*
X1754D03*
X1714Y3990D03*
X1754D03*
X1094Y4084D03*
X1134D03*
X1653Y3147D03*
X1693D03*
X1653Y3116D03*
X1693D03*
X1653Y3084D03*
X1693D03*
Y3053D03*
X1653D03*
Y3021D03*
X1693D03*
X1653Y2990D03*
X1693D03*
X1653Y2958D03*
X1693D03*
X1794Y1001D03*
X1834D03*
X5373Y2474D03*
X5413D03*
X5373Y2407D03*
X5413D03*
X6440Y1860D03*
X6480D03*
G54D31*
X2710Y3335D03*
X2730D03*
X2750D03*
X2769D03*
X2789D03*
X2809D03*
Y3487D03*
X2789D03*
X2769D03*
X2750D03*
X2730D03*
X2710D03*
G54D32*
X2683Y3460D03*
Y3440D03*
Y3421D03*
Y3401D03*
Y3381D03*
Y3362D03*
X2836D03*
Y3381D03*
Y3401D03*
Y3421D03*
Y3440D03*
Y3460D03*
G54D40*
X6516Y1328D03*
Y1364D03*
Y1395D03*
Y1427D03*
Y1462D03*
X6554Y1446D03*
Y1411D03*
Y1379D03*
Y1344D03*
G54D43*
X1280Y2974D03*
X1396D03*
X6176Y3366D03*
X6060D03*
X6176Y3248D03*
X6060D03*
X4030Y1438D03*
X3914D03*
X3725D03*
X3841D03*
X2733D03*
X2849D03*
X2660D03*
X2544D03*
G54D46*
X6118Y2802D03*
Y2686D03*
X3277Y3936D03*
Y4052D03*
G54D47*
X3818Y3367D03*
Y3407D03*
X2677Y3249D03*
Y3289D03*
X1299Y1082D03*
Y1122D03*
X5625Y2100D03*
Y2140D03*
X5594Y2100D03*
Y2140D03*
X5523Y2111D03*
Y2151D03*
X5559Y2111D03*
Y2151D03*
X5673Y2100D03*
Y2140D03*
X5708Y2100D03*
Y2140D03*
X5629Y1764D03*
Y1724D03*
X5598Y1764D03*
Y1724D03*
X5677Y1764D03*
Y1724D03*
X5708Y1764D03*
Y1724D03*
X5161Y1939D03*
Y1899D03*
X6393Y1927D03*
Y1887D03*
X3204Y2502D03*
Y2462D03*
X3236Y2435D03*
Y2395D03*
G54D48*
X6024Y2242D03*
X6062D03*
X1530Y2797D03*
X1492D03*
X5953Y2931D03*
X5991D03*
X3892Y3454D03*
X3855D03*
X3518Y2435D03*
X3481D03*
X3518Y2462D03*
X3481D03*
X3518Y2490D03*
X3481D03*
X3546Y2529D03*
X3508D03*
X3613Y2411D03*
X3575D03*
X3613Y2383D03*
X3575D03*
X3701Y2399D03*
X3739D03*
X3790Y3242D03*
X3752D03*
X3670Y3279D03*
X3707D03*
X3670Y3307D03*
X3707D03*
X3684Y3350D03*
X3646D03*
X3684Y3377D03*
X3646D03*
X4315Y3561D03*
X4353D03*
X5200Y1116D03*
X5162D03*
X3803Y2785D03*
X3841D03*
G54D49*
X3204Y2537D03*
X3236Y2368D03*
G54D50*
X4881Y2505D03*
X4905D03*
X4086Y2671D03*
X4062D03*
X4779Y2769D03*
X4755D03*
X3885Y2246D03*
X3909D03*
G54D51*
X4007Y2549D03*
G54D56*
X2157Y2408D03*
Y2446D03*
Y2532D03*
Y2494D03*
Y2561D03*
Y2599D03*
X2511Y2485D03*
Y2522D03*
Y2455D03*
Y2418D03*
X1440Y3056D03*
Y3018D03*
X4862Y4203D03*
Y4241D03*
X4830Y4203D03*
Y4241D03*
X5637Y3656D03*
Y3694D03*
X3578Y2561D03*
Y2599D03*
X3641Y2410D03*
Y2372D03*
X3708Y2427D03*
Y2465D03*
X3673Y2410D03*
Y2372D03*
X3736Y2427D03*
Y2465D03*
X3692Y3185D03*
Y3223D03*
X3665Y3185D03*
Y3223D03*
X3696Y3499D03*
Y3461D03*
X3724Y3499D03*
Y3461D03*
X3751Y3499D03*
Y3461D03*
X3779Y3499D03*
Y3461D03*
X2937Y3443D03*
Y3481D03*
Y3548D03*
Y3510D03*
X2657Y3560D03*
Y3522D03*
X2688Y3560D03*
Y3522D03*
X2692Y3906D03*
Y3868D03*
X2740Y3906D03*
Y3868D03*
X1850Y3648D03*
Y3686D03*
X1881Y3648D03*
Y3686D03*
X970Y3646D03*
Y3684D03*
X5346Y1223D03*
Y1261D03*
X2405Y1593D03*
Y1631D03*
X2437Y1593D03*
Y1631D03*
X2976Y1593D03*
Y1631D03*
X3007Y1593D03*
Y1631D03*
X5204Y2427D03*
Y2465D03*
X5507Y1833D03*
Y1871D03*
X6529Y1946D03*
Y1908D03*
X4779Y1593D03*
Y1631D03*
X4748Y1593D03*
Y1631D03*
X4157Y1593D03*
Y1631D03*
X4188Y1593D03*
Y1631D03*
X3566Y1577D03*
Y1615D03*
X3598Y1577D03*
Y1615D03*
X3901Y2196D03*
Y2158D03*
X3744Y2194D03*
Y2156D03*
X3807Y2194D03*
Y2156D03*
X3775Y2194D03*
Y2156D03*
X3893Y2904D03*
Y2942D03*
X3921Y2904D03*
Y2942D03*
G54D60*
X1482Y2750D03*
X1557D03*
G54D62*
X1797Y4052D03*
Y3991D03*
X1299Y1170D03*
Y1231D03*
X5472Y1825D03*
Y1886D03*
G54D65*
X6118Y3019D03*
G54D67*
X3733Y2690D03*
X3707D03*
X3759D03*
X3784D03*
X3759Y2710D03*
X3784D03*
X3810Y2690D03*
X3835D03*
X3890Y2442D03*
X3865D03*
X3890Y2462D03*
X3865D03*
X3890Y2501D03*
X3865D03*
X3890Y2521D03*
X3865D03*
X3894Y2564D03*
X3869D03*
X3894Y2584D03*
X3869D03*
X3886Y2627D03*
X3861D03*
X3886Y2647D03*
X3861D03*
X3886Y2667D03*
X3861D03*
X3835Y2710D03*
X3810D03*
X3886Y2706D03*
X3861D03*
X3886Y2687D03*
X3861D03*
X3520Y2639D03*
X3495D03*
X5209Y2718D03*
X5235D03*
X5209Y2694D03*
X5235D03*
X5209Y2671D03*
X5235D03*
X5209Y2647D03*
X5235D03*
X5209Y2624D03*
X5235D03*
G54D68*
X2562Y3559D03*
X2588D03*
X2614D03*
Y3484D03*
X2562D03*
X6437Y1968D03*
X6462D03*
X6488D03*
Y1893D03*
X6437D03*
G54D69*
X6104Y1527D03*
X1465Y1385D03*
X2759Y3411D03*
G54D72*
X1454Y2843D03*
X1492D03*
X1529D03*
Y2932D03*
X1492D03*
X1454D03*
X5570Y1267D03*
X5533Y1177D03*
X5608D03*
X5570Y850D03*
X5608Y940D03*
X5533D03*
X5324Y2402D03*
X5287D03*
X5250D03*
Y2491D03*
X5287D03*
X5324D03*
G54D77*
X3856Y3413D03*
Y3362D03*
X3931D03*
Y3387D03*
Y3413D03*
G54D80*
X5650Y2041D03*
X5573D03*
X5548D03*
Y1816D03*
X5573D03*
X5599D03*
Y2041D03*
X5625D03*
X5701D03*
X5727D03*
X5676D03*
Y1816D03*
X5625D03*
X5650D03*
X5701D03*
X5727D03*
G54D83*
X1019Y3722D03*
Y3647D03*
X2228Y996D03*
Y921D03*
G54D84*
X4838Y2455D03*
Y2430D03*
X3566Y2463D03*
Y2438D03*
X3586Y2463D03*
Y2438D03*
X3606Y2463D03*
Y2438D03*
X3582Y2501D03*
Y2526D03*
X3602Y2501D03*
Y2526D03*
Y2589D03*
Y2564D03*
X3622Y2589D03*
Y2564D03*
X3625Y2463D03*
Y2438D03*
X3645Y2463D03*
Y2438D03*
X3622Y2501D03*
Y2526D03*
X3641Y2501D03*
Y2526D03*
X3661Y2501D03*
Y2526D03*
X3641Y2589D03*
Y2564D03*
X3669Y2589D03*
Y2564D03*
X3582Y2627D03*
Y2652D03*
X3602Y2627D03*
Y2652D03*
X3622Y2627D03*
Y2652D03*
X3641Y2627D03*
Y2652D03*
X3661Y2627D03*
Y2652D03*
X3681Y2526D03*
Y2501D03*
X3665Y2463D03*
Y2438D03*
X3685Y2463D03*
Y2438D03*
X3681Y2627D03*
Y2652D03*
X3700Y2589D03*
Y2564D03*
X3720Y2589D03*
Y2564D03*
Y2501D03*
Y2526D03*
X3740Y2589D03*
Y2564D03*
X3700Y2627D03*
Y2652D03*
X3720Y2627D03*
Y2652D03*
X3759Y2589D03*
Y2564D03*
X3740Y2627D03*
Y2652D03*
Y2501D03*
Y2526D03*
X3759Y2501D03*
Y2526D03*
Y2438D03*
Y2463D03*
X3779Y2438D03*
Y2463D03*
Y2501D03*
Y2526D03*
Y2589D03*
Y2564D03*
X3799Y2589D03*
Y2564D03*
X3779Y2627D03*
Y2652D03*
X3759Y2627D03*
Y2652D03*
X3799Y2501D03*
Y2526D03*
Y2438D03*
Y2463D03*
X3822Y2438D03*
Y2463D03*
Y2501D03*
Y2526D03*
X3799Y2627D03*
Y2652D03*
X3818Y2627D03*
Y2652D03*
X3842Y2438D03*
Y2463D03*
Y2501D03*
Y2526D03*
X3818Y2589D03*
Y2564D03*
X3838Y2589D03*
Y2564D03*
Y2652D03*
Y2627D03*
X4783Y2721D03*
Y2746D03*
X4893Y2713D03*
Y2738D03*
X4917Y2713D03*
Y2738D03*
X4940Y2713D03*
Y2738D03*
X4728Y2384D03*
Y2359D03*
X4791Y2392D03*
Y2367D03*
X4893Y2392D03*
Y2367D03*
X4917Y2392D03*
Y2367D03*
X4940Y2392D03*
Y2367D03*
X4964Y2392D03*
Y2367D03*
X5035Y2392D03*
Y2367D03*
X5059Y2392D03*
Y2367D03*
X5106Y2392D03*
Y2367D03*
X5129Y2392D03*
Y2367D03*
X3956Y2242D03*
Y2217D03*
G54D95*
X4862Y2431D03*
Y2407D03*
X4814Y2430D03*
Y2454D03*
X4791D03*
Y2430D03*
X3763Y3317D03*
Y3293D03*
X2870Y3246D03*
Y3222D03*
X2905Y3246D03*
Y3222D03*
X3933Y2242D03*
Y2218D03*
G54D292*
X5805Y3724D03*
Y3704D03*
Y3685D03*
Y3665D03*
X5690D03*
Y3685D03*
Y3704D03*
Y3724D03*
G54D293*
X5777Y3637D03*
X5757D03*
X5738D03*
X5718D03*
Y3752D03*
X5738D03*
X5757D03*
X5777D03*
G54D294*
X5748Y3694D03*
G54D295*
X4901Y4189D03*
Y4254D03*
G54D296*
X2755Y3540D03*
X2736D03*
X2795D03*
X2814D03*
X2736Y3581D03*
X2755D03*
X2814D03*
X2795D03*
G54D297*
X2775Y3540D03*
Y3581D03*
G54D298*
X3001Y3541D03*
X3076D03*
Y3446D03*
X3001D03*
G54D299*
X1075Y3645D03*
X1140D03*
G54D300*
X2068Y2214D03*
X2041Y2187D03*
G54D301*
X2100Y2181D03*
X2072Y2153D03*
G54D302*
X2144Y1161D03*
X2265D03*
X2734D03*
X2855D03*
X3325D03*
X3446D03*
X5093Y1033D03*
X5214D03*
X4506Y1161D03*
X4627D03*
X4036D03*
X3915D03*
G54D303*
X5433Y1330D03*
Y1209D03*
G54D304*
X5141Y1534D03*
Y1331D03*
X5241Y1534D03*
X5191D03*
X5291D03*
X5241Y1331D03*
X5191D03*
X5291D03*
G54D320*
X5764Y3678D03*
Y3711D03*
X5731D03*
Y3678D03*
M02*