%FSLAX23Y23*%
%MOIN*%
%SFA1B1*%

%IPPOS*%
%ADD10C,0.000000*%
%ADD11C,0.004720*%
%ADD12C,0.010000*%
%ADD13C,0.003940*%
%ADD14C,0.006000*%
%ADD15C,0.007090*%
%ADD16C,0.005000*%
%ADD17C,0.005910*%
%ADD18C,0.007870*%
%ADD19C,0.008660*%
%LNbenchy-mb-pcb-changes-1*%
%LPD*%
G36*
X2636Y1494D02*
X2640Y1477D01*
X2624Y1481*
X2636Y1494*
G37*
G36*
X1811Y3970D02*
X1809Y3972D01*
X1807Y3975*
X1806Y3978*
X1807Y3981*
X1809Y3984*
X1811Y3985*
X1814Y3986*
X1818Y3985*
X1820Y3984*
X1822Y3981*
X1822Y3978*
X1822Y3975*
X1820Y3972*
X1818Y3970*
X1814Y3970*
X1811Y3970*
G37*
G36*
X3817Y1494D02*
X3821Y1477D01*
X3805Y1481*
X3817Y1494*
G37*
G36*
X4408D02*
X4412Y1477D01*
X4395Y1481*
X4408Y1494*
G37*
G36*
X4557Y2705D02*
X4557Y2410D01*
X4262Y2411*
Y2689*
Y2690*
X4262Y2706*
X4557Y2705*
G37*
G36*
X4901Y3007D02*
X4902D01*
X4903Y3007*
X4904Y3006*
X4905Y3006*
X4908Y3006*
X4911Y3005*
X4913Y3004*
X4915Y3004*
X4916Y3003*
X4916*
X4916Y3003*
X4917Y3003*
X4917Y3003*
X4918Y3002*
X4918Y3002*
X4920Y3001*
X4922Y2999*
X4924Y2998*
X4925Y2996*
X4927Y2993*
X4927Y2993*
X4927Y2993*
X4927Y2993*
X4928Y2992*
X4928Y2992*
X4928Y2991*
X4929Y2990*
X4929Y2989*
X4929Y2988*
X4930Y2987*
X4931Y2985*
X4931Y2982*
X4931Y2980*
X4931Y2979*
Y2979*
Y2979*
Y2979*
X4931Y2978*
Y2977*
X4932Y2976*
Y2975*
X4932Y2974*
Y2973*
Y2972*
Y2972*
Y2972*
Y2972*
Y2971*
Y2970*
X4932Y2969*
Y2968*
X4931Y2967*
Y2967*
Y2966*
X4931Y2965*
Y2965*
Y2964*
X4931Y2964*
Y2963*
X4931Y2963*
X4931Y2962*
X4931Y2961*
X4931Y2960*
X4930Y2958*
X4929Y2955*
X4928Y2953*
X4928Y2952*
X4927Y2950*
X4927Y2950*
X4927Y2950*
X4927Y2950*
X4926Y2949*
X4926Y2949*
X4926Y2948*
X4925Y2948*
X4924Y2947*
X4923Y2945*
X4921Y2944*
X4919Y2942*
X4916Y2941*
X4916*
X4916Y2940*
X4916Y2940*
X4915Y2940*
X4914Y2940*
X4914Y2939*
X4913Y2939*
X4912Y2939*
X4911Y2939*
X4909Y2938*
X4908Y2938*
X4907Y2938*
X4904Y2937*
X4902Y2937*
X4900Y2937*
X4873*
X4873Y2937*
X4872Y2937*
X4872Y2938*
X4871Y2938*
X4871Y2938*
X4871Y2939*
X4871Y2940*
Y3004*
Y3004*
Y3004*
X4871Y3005*
X4871Y3005*
X4872Y3006*
X4872Y3006*
X4872Y3006*
X4873Y3007*
X4873Y3007*
X4901*
X4901Y3007*
G37*
G36*
X4857Y3007D02*
X4857Y3006D01*
X4858Y3006*
X4858Y3006*
X4858Y3005*
X4858Y3005*
X4859Y3004*
Y3004*
Y3004*
Y2994*
X4858Y2993*
X4858Y2992*
X4858Y2992*
X4858Y2992*
X4857Y2991*
X4857Y2991*
X4856Y2991*
X4825*
Y2980*
X4854*
X4854Y2980*
X4855Y2980*
X4855Y2979*
X4856Y2979*
X4856Y2979*
X4856Y2978*
X4856Y2978*
Y2978*
Y2977*
Y2967*
X4856Y2966*
X4856Y2965*
X4856Y2965*
X4856Y2965*
X4855Y2964*
X4854Y2964*
X4854Y2964*
X4825*
Y2953*
X4857*
X4857Y2953*
X4858Y2953*
X4858Y2952*
X4859Y2952*
X4859Y2952*
X4859Y2951*
X4859Y2950*
Y2950*
Y2950*
Y2940*
X4859Y2939*
X4859Y2938*
X4859Y2938*
X4859Y2938*
X4858Y2937*
X4857Y2937*
X4857Y2937*
X4809*
X4809Y2937*
X4808Y2938*
X4808Y2938*
X4808Y2938*
X4807Y2938*
X4807Y2939*
X4807Y2940*
Y2940*
Y2940*
Y3004*
X4807Y3005*
X4807Y3005*
X4807Y3006*
X4808Y3006*
X4808Y3006*
X4809Y3007*
X4809Y3007*
X4856*
X4857Y3007*
G37*
G36*
X4765Y3007D02*
X4766D01*
X4767Y3007*
X4768Y3006*
X4769Y3006*
X4772Y3006*
X4774Y3005*
X4777Y3004*
X4779Y3004*
X4780Y3003*
X4780*
X4780Y3003*
X4780Y3003*
X4781Y3003*
X4782Y3002*
X4782Y3002*
X4784Y3001*
X4786Y2999*
X4787Y2998*
X4789Y2996*
X4791Y2993*
X4791Y2993*
X4791Y2993*
X4791Y2993*
X4792Y2992*
X4792Y2992*
X4792Y2991*
X4793Y2990*
X4793Y2989*
X4793Y2988*
X4794Y2987*
X4794Y2985*
X4795Y2982*
X4795Y2980*
X4795Y2979*
Y2979*
Y2979*
Y2979*
X4795Y2978*
Y2977*
X4795Y2976*
Y2975*
X4795Y2974*
Y2973*
Y2972*
Y2972*
Y2972*
Y2972*
Y2971*
Y2970*
X4795Y2969*
Y2968*
X4795Y2967*
Y2967*
Y2966*
X4795Y2965*
Y2965*
Y2964*
X4795Y2964*
Y2963*
X4795Y2963*
X4795Y2962*
X4795Y2961*
X4795Y2960*
X4794Y2958*
X4793Y2955*
X4792Y2953*
X4792Y2952*
X4791Y2950*
X4791Y2950*
X4791Y2950*
X4791Y2950*
X4790Y2949*
X4790Y2949*
X4789Y2948*
X4789Y2948*
X4788Y2947*
X4787Y2945*
X4785Y2944*
X4783Y2942*
X4780Y2941*
X4780*
X4780Y2940*
X4780Y2940*
X4779Y2940*
X4778Y2940*
X4778Y2939*
X4777Y2939*
X4776Y2939*
X4774Y2939*
X4773Y2938*
X4772Y2938*
X4771Y2938*
X4768Y2937*
X4766Y2937*
X4764Y2937*
X4737*
X4737Y2937*
X4736Y2937*
X4735Y2938*
X4735Y2938*
X4735Y2938*
X4735Y2939*
X4735Y2940*
Y3004*
Y3004*
Y3004*
X4735Y3005*
X4735Y3005*
X4735Y3006*
X4736Y3006*
X4736Y3006*
X4737Y3007*
X4737Y3007*
X4765*
X4765Y3007*
G37*
G36*
X4701D02*
X4701D01*
X4702Y3006*
X4702Y3006*
X4703Y3006*
X4703*
X4703Y3006*
X4703Y3005*
X4704Y3005*
X4704Y3004*
X4726Y2941*
X4726Y2941*
X4726Y2940*
X4727Y2940*
X4727Y2939*
Y2939*
X4727Y2939*
X4726Y2938*
X4726Y2938*
X4726Y2938*
X4726Y2937*
X4725Y2937*
X4724Y2937*
X4712*
X4711Y2937*
X4711*
X4710Y2937*
X4709Y2938*
X4709Y2938*
X4709Y2938*
X4708Y2939*
X4708Y2940*
X4705Y2948*
X4679*
X4676Y2940*
Y2939*
X4676Y2939*
X4676Y2939*
X4675Y2938*
X4675Y2938*
X4674Y2938*
X4674Y2938*
X4673Y2937*
X4672Y2937*
X4659*
X4659Y2937*
X4658Y2937*
X4658Y2938*
X4658Y2938*
X4658Y2938*
X4657Y2939*
X4657Y2939*
Y2939*
X4657Y2940*
X4657Y2940*
X4658Y2941*
X4679Y3004*
Y3004*
X4679Y3004*
X4680Y3004*
X4680Y3004*
X4680Y3005*
X4681Y3006*
X4681Y3006*
X4681Y3006*
X4681Y3006*
X4682Y3006*
X4682Y3006*
X4683Y3007*
X4683Y3007*
X4700*
X4701Y3007*
G37*
G36*
X4548D02*
X4548Y3006D01*
X4549Y3006*
X4549Y3006*
X4549Y3005*
X4550Y3005*
X4550Y3004*
Y2953*
X4580*
X4581Y2953*
X4581Y2953*
X4582Y2952*
X4582Y2952*
X4583Y2952*
X4583Y2951*
X4583Y2950*
Y2940*
Y2940*
Y2940*
X4583Y2939*
X4583Y2938*
X4582Y2938*
X4582Y2938*
X4582Y2938*
X4581Y2937*
X4580Y2937*
X4534*
X4533Y2937*
X4533Y2937*
X4532Y2938*
X4532Y2938*
X4532Y2938*
X4532Y2939*
X4531Y2940*
Y3004*
Y3004*
Y3004*
X4532Y3005*
X4532Y3005*
X4532Y3006*
X4532Y3006*
X4533Y3006*
X4533Y3007*
X4534Y3007*
X4547*
X4548Y3007*
G37*
G36*
X4517Y3007D02*
X4518Y3006D01*
X4518Y3006*
X4518Y3006*
X4519Y3005*
X4519Y3005*
X4519Y3004*
Y3004*
Y3004*
Y2994*
X4519Y2993*
X4519Y2992*
X4518Y2992*
X4518Y2992*
X4518Y2991*
X4517Y2991*
X4517Y2991*
X4486*
Y2980*
X4514*
X4515Y2980*
X4516Y2980*
X4516Y2979*
X4516Y2979*
X4517Y2979*
X4517Y2978*
X4517Y2978*
Y2978*
Y2977*
Y2967*
X4517Y2966*
X4517Y2965*
X4516Y2965*
X4516Y2965*
X4516Y2964*
X4515Y2964*
X4514Y2964*
X4486*
Y2953*
X4517*
X4518Y2953*
X4519Y2953*
X4519Y2952*
X4519Y2952*
X4520Y2952*
X4520Y2951*
X4520Y2950*
Y2950*
Y2950*
Y2940*
X4520Y2939*
X4520Y2938*
X4519Y2938*
X4519Y2938*
X4519Y2937*
X4518Y2937*
X4517Y2937*
X4470*
X4469Y2937*
X4469Y2938*
X4468Y2938*
X4468Y2938*
X4468Y2938*
X4467Y2939*
X4467Y2940*
Y2940*
Y2940*
Y3004*
X4467Y3005*
X4468Y3005*
X4468Y3006*
X4468Y3006*
X4469Y3006*
X4469Y3007*
X4470Y3007*
X4517*
X4517Y3007*
G37*
G36*
X4430Y3007D02*
X4431Y3007D01*
X4432Y3006*
X4434Y3006*
X4435Y3006*
X4437Y3006*
X4439Y3005*
X4440Y3005*
X4442Y3004*
X4444Y3004*
X4445Y3003*
X4447Y3002*
X4448Y3001*
X4449Y3001*
X4449Y3001*
X4449Y3000*
X4450Y3000*
X4450Y2999*
X4451Y2999*
X4451Y2998*
X4452Y2997*
X4453Y2996*
X4454Y2994*
X4454Y2993*
X4455Y2991*
X4455Y2990*
X4456Y2988*
X4456Y2986*
X4456Y2984*
Y2984*
Y2983*
X4456Y2983*
X4456Y2982*
X4456Y2980*
X4455Y2979*
X4455Y2978*
X4454Y2976*
X4454Y2974*
X4453Y2973*
X4452Y2971*
X4451Y2969*
X4450Y2968*
X4448Y2967*
X4446Y2965*
X4444Y2964*
X4456Y2940*
X4456Y2940*
X4456Y2940*
X4457Y2940*
X4457Y2939*
Y2939*
X4457Y2939*
X4456Y2938*
X4456Y2938*
X4456Y2938*
X4456Y2937*
X4455Y2937*
X4454Y2937*
X4441*
X4440Y2937*
X4440*
X4439Y2937*
X4439Y2938*
X4438Y2938*
X4438Y2938*
X4438Y2938*
X4437Y2939*
X4437Y2940*
X4426Y2961*
X4416*
Y2940*
Y2940*
Y2940*
X4416Y2939*
X4416Y2938*
X4416Y2938*
X4415Y2938*
X4415Y2938*
X4415Y2937*
X4414Y2937*
X4401*
X4400Y2937*
X4400Y2937*
X4399Y2938*
X4399Y2938*
X4399Y2938*
X4398Y2939*
X4398Y2940*
Y3004*
Y3004*
Y3004*
X4398Y3005*
X4398Y3005*
X4399Y3006*
X4399Y3006*
X4399Y3006*
X4400Y3007*
X4401Y3007*
X4429*
X4430Y3007*
G37*
G36*
X4622Y3008D02*
X4623D01*
X4624Y3008*
X4625Y3007*
X4626Y3007*
X4628Y3007*
X4631Y3006*
X4634Y3005*
X4635Y3005*
X4637Y3004*
X4637*
X4637Y3004*
X4637Y3004*
X4638Y3004*
X4638Y3003*
X4639Y3003*
X4641Y3002*
X4642Y3000*
X4644Y2999*
X4646Y2997*
X4647Y2994*
X4647Y2994*
X4647Y2994*
X4648Y2994*
X4648Y2993*
X4648Y2993*
X4648Y2992*
X4649Y2991*
X4649Y2990*
X4650Y2989*
X4650Y2988*
X4651Y2986*
X4651Y2984*
X4651Y2981*
Y2981*
Y2980*
X4651Y2980*
Y2979*
Y2977*
X4652Y2976*
Y2974*
Y2972*
Y2972*
Y2972*
Y2971*
Y2971*
Y2970*
Y2970*
Y2969*
Y2967*
X4651Y2966*
Y2964*
X4651Y2964*
Y2963*
Y2963*
Y2963*
X4651Y2962*
Y2962*
X4651Y2961*
X4651Y2960*
X4651Y2959*
X4651Y2958*
X4650Y2956*
X4649Y2954*
X4648Y2952*
X4647Y2949*
Y2949*
X4647Y2949*
X4647Y2949*
X4647Y2948*
X4646Y2948*
X4646Y2947*
X4645Y2947*
X4645Y2946*
X4643Y2944*
X4641Y2943*
X4639Y2941*
X4637Y2940*
X4637*
X4636Y2939*
X4636Y2939*
X4635Y2939*
X4635Y2939*
X4634Y2938*
X4633Y2938*
X4632Y2938*
X4631Y2938*
X4630Y2937*
X4628Y2937*
X4627Y2937*
X4625Y2936*
X4624Y2936*
X4622Y2936*
X4620Y2936*
X4619*
X4619Y2936*
X4618*
X4617Y2936*
X4616Y2936*
X4615Y2937*
X4612Y2937*
X4609Y2938*
X4607Y2938*
X4605Y2939*
X4604Y2940*
X4604Y2940*
X4604Y2940*
X4603Y2940*
X4603Y2940*
X4602Y2941*
X4602Y2941*
X4600Y2942*
X4598Y2944*
X4597Y2945*
X4595Y2947*
X4593Y2949*
Y2949*
X4593Y2950*
X4593Y2950*
X4593Y2950*
X4592Y2951*
X4592Y2952*
X4592Y2952*
X4591Y2953*
X4591Y2954*
X4591Y2955*
X4590Y2958*
X4590Y2960*
X4589Y2963*
Y2963*
Y2963*
Y2964*
Y2964*
X4589Y2964*
Y2965*
Y2966*
X4589Y2968*
Y2969*
X4589Y2970*
Y2972*
Y2972*
Y2973*
Y2973*
Y2974*
X4589Y2976*
Y2977*
X4589Y2979*
X4589Y2981*
Y2981*
Y2981*
X4589Y2982*
Y2982*
X4589Y2983*
X4590Y2984*
X4590Y2984*
X4590Y2985*
X4590Y2987*
X4591Y2990*
X4592Y2992*
X4593Y2994*
X4593Y2995*
X4594Y2995*
X4594Y2995*
X4594Y2995*
X4594Y2996*
X4595Y2997*
X4596Y2998*
X4598Y3000*
X4599Y3001*
X4602Y3003*
X4604Y3004*
X4604Y3004*
X4604Y3004*
X4605Y3005*
X4605Y3005*
X4606Y3005*
X4607Y3005*
X4608Y3006*
X4609Y3006*
X4610Y3006*
X4611Y3007*
X4612Y3007*
X4614Y3007*
X4615Y3007*
X4617Y3008*
X4619Y3008*
X4621*
X4622Y3008*
G37*
G36*
X4719Y3152D02*
X4720D01*
X4721Y3151*
X4723Y3151*
X4725Y3151*
X4727Y3151*
X4729Y3150*
X4733Y3149*
X4738Y3148*
X4742Y3146*
X4742*
X4743Y3146*
X4743Y3146*
X4744Y3145*
X4745Y3145*
X4746Y3144*
X4749Y3142*
X4752Y3140*
X4755Y3138*
X4758Y3135*
X4761Y3131*
X4761Y3131*
X4761Y3131*
X4762Y3130*
X4762Y3130*
X4763Y3129*
X4763Y3128*
X4764Y3127*
X4764Y3125*
X4766Y3122*
X4767Y3119*
X4768Y3115*
X4768Y3113*
X4768Y3111*
Y3111*
X4768Y3110*
X4768Y3109*
X4767Y3108*
X4767Y3108*
X4766Y3108*
X4765Y3107*
X4764Y3107*
X4742*
X4741Y3107*
X4740Y3108*
X4739Y3108*
X4739Y3108*
X4739Y3108*
X4738Y3109*
X4738Y3110*
X4738Y3110*
X4737Y3111*
X4737Y3112*
X4737Y3112*
X4737Y3113*
X4736Y3114*
X4735Y3115*
X4735Y3117*
X4734Y3118*
X4732Y3120*
X4731Y3121*
X4730Y3122*
X4730Y3122*
X4729Y3123*
X4727Y3123*
X4725Y3124*
X4723Y3125*
X4720Y3125*
X4716Y3125*
X4715*
X4715Y3125*
X4714*
X4713Y3125*
X4710Y3125*
X4708Y3124*
X4705Y3123*
X4703Y3122*
X4701Y3120*
X4701Y3120*
X4700Y3119*
X4699Y3118*
X4698Y3116*
X4697Y3114*
X4697Y3112*
X4696Y3109*
X4695Y3106*
Y3106*
Y3105*
X4695Y3104*
Y3102*
Y3100*
X4695Y3098*
Y3095*
Y3092*
Y3092*
Y3092*
Y3091*
Y3091*
Y3089*
Y3087*
X4695Y3085*
Y3083*
Y3080*
X4695Y3078*
Y3078*
Y3078*
X4695Y3077*
Y3077*
X4696Y3075*
X4696Y3073*
X4697Y3071*
X4698Y3069*
X4699Y3066*
X4701Y3064*
X4701Y3064*
X4702Y3063*
X4703Y3062*
X4705Y3062*
X4707Y3060*
X4709Y3060*
X4712Y3059*
X4716Y3059*
X4718*
X4719Y3059*
X4720Y3059*
X4722Y3059*
X4724Y3060*
X4727Y3060*
X4729Y3061*
X4731Y3063*
X4731Y3063*
X4731Y3063*
X4732Y3064*
X4733Y3065*
X4734Y3067*
X4735Y3068*
X4736Y3070*
X4737Y3072*
Y3072*
X4737Y3072*
X4737Y3073*
X4738Y3073*
X4738Y3075*
X4738Y3075*
X4739Y3076*
X4739Y3076*
X4740Y3076*
X4741Y3077*
X4742Y3077*
X4765*
X4765Y3077*
X4766Y3076*
X4767Y3076*
X4767Y3075*
X4767Y3075*
X4768Y3074*
X4768Y3073*
Y3073*
Y3072*
Y3072*
X4768Y3071*
X4768Y3070*
X4768Y3069*
X4767Y3068*
X4767Y3066*
X4766Y3063*
X4765Y3060*
X4764Y3058*
X4763Y3056*
X4762Y3054*
X4761Y3053*
X4761Y3052*
X4761Y3052*
X4760Y3052*
X4760Y3051*
X4759Y3050*
X4758Y3049*
X4757Y3048*
X4756Y3047*
X4755Y3046*
X4753Y3045*
X4750Y3042*
X4747Y3040*
X4742Y3038*
X4742*
X4742Y3037*
X4741Y3037*
X4740Y3037*
X4739Y3037*
X4738Y3036*
X4736Y3036*
X4735Y3035*
X4733Y3034*
X4731Y3034*
X4729Y3034*
X4726Y3033*
X4721Y3033*
X4716Y3032*
X4715*
X4714Y3032*
X4712*
X4711Y3033*
X4709Y3033*
X4707Y3033*
X4703Y3034*
X4698Y3035*
X4694Y3036*
X4691Y3037*
X4689Y3038*
X4689Y3038*
X4689Y3039*
X4688Y3039*
X4687Y3039*
X4686Y3040*
X4685Y3041*
X4683Y3043*
X4680Y3045*
X4677Y3048*
X4674Y3051*
X4671Y3054*
Y3055*
X4671Y3055*
X4671Y3056*
X4671Y3056*
X4670Y3057*
X4669Y3058*
X4669Y3060*
X4668Y3061*
X4668Y3063*
X4667Y3065*
X4666Y3068*
X4665Y3073*
X4665Y3077*
Y3077*
Y3078*
Y3078*
Y3079*
X4664Y3080*
Y3082*
Y3084*
X4664Y3086*
Y3088*
Y3090*
Y3091*
Y3091*
Y3091*
Y3091*
Y3093*
Y3095*
X4664Y3097*
Y3100*
Y3103*
X4665Y3107*
Y3107*
Y3107*
X4665Y3108*
Y3109*
X4665Y3110*
X4665Y3111*
X4665Y3113*
X4666Y3114*
X4666Y3118*
X4668Y3122*
X4669Y3126*
X4671Y3129*
X4671Y3129*
X4672Y3130*
X4672Y3130*
X4673Y3131*
X4673Y3132*
X4674Y3133*
X4675Y3134*
X4676Y3135*
X4678Y3138*
X4681Y3141*
X4685Y3143*
X4689Y3146*
X4689Y3146*
X4690Y3146*
X4690Y3146*
X4691Y3147*
X4692Y3147*
X4694Y3148*
X4695Y3148*
X4697Y3149*
X4699Y3149*
X4701Y3150*
X4703Y3150*
X4705Y3151*
X4711Y3151*
X4713Y3152*
X4718*
X4719Y3152*
G37*
G36*
X4880Y3150D02*
X4881Y3150D01*
X4882Y3149*
X4882Y3148*
X4883Y3148*
X4883Y3147*
X4884Y3146*
Y3038*
Y3038*
Y3038*
X4883Y3037*
X4883Y3036*
X4882Y3035*
X4882Y3035*
X4881Y3035*
X4880Y3034*
X4879Y3034*
X4857*
X4856Y3034*
X4855Y3034*
X4854Y3035*
X4854Y3035*
X4853Y3036*
X4853Y3037*
X4853Y3038*
Y3079*
X4816*
Y3038*
Y3038*
Y3038*
X4816Y3037*
X4815Y3036*
X4814Y3035*
X4814Y3035*
X4814Y3035*
X4813Y3034*
X4811Y3034*
X4789*
X4789Y3034*
X4788Y3034*
X4786Y3035*
X4786Y3035*
X4786Y3036*
X4785Y3037*
X4785Y3038*
Y3146*
Y3146*
Y3146*
X4785Y3147*
X4786Y3148*
X4786Y3149*
X4787Y3149*
X4787Y3149*
X4788Y3150*
X4790Y3150*
X4812*
X4813Y3150*
X4814Y3150*
X4814Y3149*
X4815Y3148*
X4815Y3148*
X4816Y3147*
X4816Y3146*
Y3106*
X4853*
Y3146*
Y3146*
Y3146*
X4853Y3147*
X4853Y3148*
X4854Y3149*
X4854Y3149*
X4855Y3149*
X4856Y3150*
X4857Y3150*
X4879*
X4880Y3150*
G37*
G36*
X5004D02*
X5005Y3150D01*
X5006Y3149*
X5006Y3149*
X5006Y3148*
X5007Y3148*
X5007Y3146*
Y3146*
X5007Y3146*
X5006Y3145*
X5006Y3144*
X4968Y3074*
Y3038*
Y3038*
Y3038*
X4967Y3037*
X4967Y3036*
X4966Y3035*
X4966Y3035*
X4965Y3035*
X4964Y3034*
X4963Y3034*
X4941*
X4940Y3034*
X4939Y3034*
X4938Y3035*
X4938Y3035*
X4938Y3036*
X4937Y3037*
X4937Y3038*
Y3074*
X4899Y3144*
X4898Y3145*
X4898Y3145*
X4898Y3146*
X4898Y3146*
Y3147*
Y3147*
X4898Y3147*
X4898Y3148*
X4899Y3149*
X4899Y3149*
X4900Y3150*
X4900Y3150*
X4902Y3150*
X4925*
X4925Y3150*
X4926*
X4927Y3149*
X4928Y3149*
X4929Y3149*
X4929*
X4929Y3148*
X4930Y3148*
X4931Y3147*
X4931Y3146*
X4952Y3105*
X4973Y3146*
X4973Y3146*
X4974Y3147*
X4975Y3148*
X4976Y3149*
X4976Y3149*
X4976Y3149*
X4976Y3149*
X4977Y3149*
X4978Y3150*
X4979Y3150*
X5003*
X5004Y3150*
G37*
G36*
X4642D02*
X4643Y3150D01*
X4644Y3149*
X4644Y3148*
X4645Y3148*
X4645Y3147*
X4645Y3146*
Y3038*
Y3038*
Y3038*
X4645Y3037*
X4645Y3036*
X4644Y3035*
X4644Y3035*
X4643Y3035*
X4642Y3034*
X4641Y3034*
X4623*
X4623Y3034*
X4622*
X4621Y3034*
X4619Y3035*
X4619*
X4619Y3035*
X4618Y3036*
X4617Y3037*
X4617Y3038*
X4579Y3094*
Y3038*
Y3038*
Y3038*
X4579Y3037*
X4578Y3036*
X4577Y3035*
X4577Y3035*
X4576Y3035*
X4576Y3034*
X4574Y3034*
X4552*
X4551Y3034*
X4550Y3034*
X4549Y3035*
X4549Y3035*
X4549Y3036*
X4548Y3037*
X4548Y3038*
Y3146*
Y3146*
Y3146*
X4548Y3147*
X4549Y3148*
X4549Y3149*
X4550Y3149*
X4550Y3149*
X4551Y3150*
X4552Y3150*
X4571*
X4571Y3150*
X4573Y3150*
X4574Y3149*
X4574*
X4574Y3149*
X4575Y3148*
X4576Y3147*
X4577Y3146*
X4615Y3090*
Y3146*
Y3146*
Y3146*
X4615Y3147*
X4615Y3148*
X4616Y3149*
X4616Y3149*
X4617Y3149*
X4618Y3150*
X4619Y3150*
X4641*
X4642Y3150*
G37*
G36*
X4524Y3150D02*
X4525Y3149D01*
X4526Y3149*
X4526Y3149*
X4527Y3148*
X4527Y3147*
X4528Y3146*
Y3146*
Y3146*
Y3128*
X4527Y3127*
X4527Y3126*
X4526Y3125*
X4526Y3125*
X4525Y3124*
X4524Y3124*
X4523Y3124*
X4472*
Y3106*
X4519*
X4521Y3105*
X4522Y3105*
X4522Y3104*
X4523Y3104*
X4523Y3103*
X4524Y3102*
X4524Y3101*
Y3101*
Y3101*
Y3084*
X4524Y3082*
X4523Y3081*
X4523Y3081*
X4523Y3080*
X4522Y3080*
X4521Y3079*
X4520Y3079*
X4472*
Y3060*
X4524*
X4526Y3060*
X4527Y3060*
X4527Y3059*
X4528Y3059*
X4528Y3058*
X4529Y3057*
X4529Y3056*
Y3056*
Y3056*
Y3038*
X4529Y3037*
X4528Y3036*
X4528Y3035*
X4528Y3035*
X4527Y3034*
X4525Y3034*
X4525Y3034*
X4446*
X4444Y3034*
X4443Y3035*
X4443Y3035*
X4443Y3035*
X4442Y3036*
X4441Y3037*
X4441Y3038*
Y3038*
Y3038*
Y3146*
X4441Y3147*
X4442Y3148*
X4442Y3148*
X4443Y3149*
X4444Y3150*
X4445Y3150*
X4445Y3150*
X4523*
X4524Y3150*
G37*
G36*
X4383Y3150D02*
X4385D01*
X4386Y3150*
X4387Y3150*
X4389Y3149*
X4393Y3149*
X4397Y3148*
X4400Y3147*
X4404Y3145*
X4404*
X4404Y3145*
X4405Y3145*
X4405Y3144*
X4407Y3143*
X4409Y3142*
X4411Y3140*
X4413Y3138*
X4415Y3135*
X4417Y3132*
Y3132*
X4417Y3132*
X4417Y3132*
X4417Y3131*
X4418Y3130*
X4418Y3129*
X4419Y3127*
X4419Y3125*
X4420Y3122*
X4420Y3119*
X4421Y3116*
Y3115*
Y3115*
Y3115*
Y3114*
X4420Y3113*
X4420Y3111*
X4420Y3109*
X4419Y3106*
X4418Y3104*
X4418Y3102*
X4417Y3102*
X4417Y3101*
X4416Y3100*
X4416Y3099*
X4415Y3098*
X4414Y3097*
X4412Y3096*
X4411Y3094*
X4411*
X4411Y3094*
X4412Y3094*
X4413Y3093*
X4415Y3092*
X4416Y3090*
X4418Y3088*
X4419Y3086*
X4420Y3084*
X4420Y3084*
X4421Y3083*
X4421Y3082*
X4421Y3080*
X4422Y3078*
X4422Y3076*
X4423Y3073*
X4423Y3070*
Y3070*
Y3069*
Y3068*
X4423Y3067*
X4423Y3066*
X4422Y3064*
X4422Y3063*
X4422Y3061*
X4421Y3057*
X4420Y3055*
X4419Y3053*
X4418Y3050*
X4417Y3048*
X4415Y3046*
X4414Y3044*
X4413Y3044*
X4413Y3044*
X4413Y3043*
X4412Y3043*
X4411Y3042*
X4410Y3041*
X4408Y3040*
X4406Y3039*
X4405Y3038*
X4402Y3037*
X4400Y3036*
X4397Y3036*
X4395Y3035*
X4391Y3034*
X4388Y3034*
X4384Y3034*
X4327*
X4326Y3034*
X4325Y3034*
X4324Y3035*
X4324Y3035*
X4324Y3036*
X4323Y3037*
X4323Y3038*
Y3146*
Y3146*
Y3146*
X4323Y3147*
X4324Y3148*
X4324Y3149*
X4325Y3149*
X4325Y3149*
X4326Y3150*
X4327Y3150*
X4382*
X4383Y3150*
G37*
G36*
X4555Y2918D02*
X4556Y2918D01*
X4557Y2917*
X4557Y2917*
X4557Y2917*
X4557Y2916*
X4557Y2916*
Y2851*
Y2851*
Y2851*
X4557Y2850*
X4557Y2850*
X4557Y2849*
X4556Y2849*
X4556Y2849*
X4556Y2849*
X4555Y2849*
X4542*
X4541Y2849*
X4541Y2849*
X4540Y2849*
X4540Y2849*
X4539Y2850*
X4539Y2850*
X4539Y2851*
Y2876*
X4517*
Y2851*
Y2851*
Y2851*
X4517Y2850*
X4517Y2850*
X4516Y2849*
X4516Y2849*
X4516Y2849*
X4515Y2849*
X4514Y2849*
X4501*
X4500Y2849*
X4500Y2849*
X4499Y2849*
X4499Y2849*
X4499Y2850*
X4499Y2850*
X4499Y2851*
Y2916*
Y2916*
Y2916*
X4499Y2916*
X4499Y2917*
X4499Y2917*
X4499Y2918*
X4500Y2918*
X4500Y2918*
X4501Y2918*
X4514*
X4515Y2918*
X4515Y2918*
X4516Y2917*
X4516Y2917*
X4516Y2917*
X4517Y2916*
X4517Y2916*
Y2891*
X4539*
Y2916*
Y2916*
Y2916*
X4539Y2916*
X4539Y2917*
X4540Y2917*
X4540Y2918*
X4540Y2918*
X4541Y2918*
X4542Y2918*
X4555*
X4555Y2918*
G37*
G36*
X4348D02*
X4349Y2918D01*
X4349Y2917*
X4349Y2917*
X4350Y2917*
X4350Y2916*
X4350Y2916*
Y2851*
Y2851*
Y2851*
X4350Y2850*
X4350Y2850*
X4349Y2849*
X4349Y2849*
X4349Y2849*
X4348Y2849*
X4347Y2849*
X4334*
X4334Y2849*
X4333Y2849*
X4332Y2849*
X4332Y2849*
X4332Y2850*
X4332Y2850*
X4332Y2851*
Y2884*
X4322Y2868*
Y2868*
X4322Y2868*
X4322Y2867*
X4321Y2866*
X4321Y2866*
X4320Y2866*
X4320Y2866*
X4319Y2865*
X4319Y2865*
X4312*
X4311Y2865*
X4311Y2865*
X4310Y2866*
X4310Y2866*
X4310Y2866*
X4309Y2867*
X4309Y2868*
X4299Y2884*
Y2851*
Y2851*
Y2851*
X4299Y2850*
X4299Y2850*
X4298Y2849*
X4298Y2849*
X4298Y2849*
X4297Y2849*
X4296Y2849*
X4283*
X4283Y2849*
X4282Y2849*
X4281Y2849*
X4281Y2849*
X4281Y2850*
X4281Y2850*
X4281Y2851*
Y2916*
Y2916*
Y2916*
X4281Y2916*
X4281Y2917*
X4281Y2917*
X4282Y2918*
X4282Y2918*
X4283Y2918*
X4283Y2918*
X4295*
X4296Y2918*
X4296Y2918*
X4297Y2918*
X4298Y2917*
X4299Y2916*
X4299Y2916*
X4315Y2888*
X4331Y2916*
X4332Y2916*
X4332Y2916*
X4332Y2916*
X4333Y2917*
X4333Y2917*
X4334Y2918*
X4335Y2918*
X4336Y2918*
X4347*
X4348Y2918*
G37*
G36*
X5019D02*
X5020D01*
X5021Y2918*
X5022Y2918*
X5023Y2918*
X5025Y2917*
X5028Y2917*
X5031Y2916*
X5032Y2915*
X5033Y2915*
X5033*
X5034Y2915*
X5034Y2914*
X5034Y2914*
X5035Y2914*
X5036Y2913*
X5037Y2912*
X5039Y2911*
X5041Y2909*
X5043Y2907*
X5044Y2905*
X5044Y2905*
X5045Y2905*
X5045Y2904*
X5045Y2904*
X5045Y2903*
X5046Y2902*
X5046Y2902*
X5046Y2901*
X5047Y2900*
X5047Y2898*
X5048Y2896*
X5048Y2893*
X5049Y2892*
X5049Y2890*
Y2890*
Y2890*
Y2890*
X5049Y2890*
Y2889*
X5049Y2887*
Y2886*
X5049Y2885*
Y2884*
Y2884*
Y2883*
Y2883*
Y2883*
Y2882*
Y2882*
X5049Y2881*
Y2880*
X5049Y2879*
Y2878*
Y2877*
X5049Y2876*
Y2876*
Y2876*
X5049Y2875*
Y2875*
X5049Y2874*
X5048Y2873*
X5048Y2872*
X5048Y2871*
X5048Y2869*
X5047Y2867*
X5046Y2864*
X5045Y2863*
X5045Y2862*
X5044Y2862*
X5044Y2862*
X5044Y2861*
X5044Y2861*
X5043Y2860*
X5043Y2860*
X5042Y2859*
X5042Y2858*
X5040Y2857*
X5038Y2855*
X5036Y2853*
X5034Y2852*
X5034*
X5033Y2852*
X5033Y2852*
X5033Y2851*
X5032Y2851*
X5031Y2851*
X5030Y2851*
X5029Y2850*
X5028Y2850*
X5027Y2850*
X5025Y2849*
X5024Y2849*
X5021Y2849*
X5019Y2849*
X5018Y2849*
X4991*
X4990Y2849*
X4990Y2849*
X4989Y2849*
X4989Y2849*
X4989Y2850*
X4988Y2850*
X4988Y2851*
Y2916*
Y2916*
Y2916*
X4988Y2916*
X4989Y2917*
X4989Y2917*
X4989Y2918*
X4990Y2918*
X4990Y2918*
X4991Y2918*
X5018*
X5019Y2918*
G37*
G36*
X4951D02*
X4952Y2918D01*
X4953Y2918*
X4955Y2918*
X4956Y2917*
X4958Y2917*
X4960Y2917*
X4961Y2916*
X4963Y2916*
X4965Y2915*
X4966Y2914*
X4968Y2913*
X4969Y2912*
X4969Y2912*
X4970Y2912*
X4970Y2912*
X4970Y2911*
X4971Y2911*
X4972Y2910*
X4972Y2909*
X4973Y2908*
X4974Y2907*
X4974Y2906*
X4975Y2904*
X4976Y2903*
X4976Y2901*
X4976Y2899*
X4977Y2897*
X4977Y2895*
Y2895*
Y2895*
X4977Y2894*
X4976Y2893*
X4976Y2892*
X4976Y2891*
X4976Y2889*
X4975Y2888*
X4975Y2886*
X4974Y2884*
X4973Y2883*
X4972Y2881*
X4970Y2879*
X4969Y2878*
X4967Y2877*
X4965Y2875*
X4977Y2852*
X4977Y2852*
X4977Y2851*
X4977Y2851*
X4977Y2851*
Y2850*
X4977Y2850*
X4977Y2850*
X4977Y2849*
X4977Y2849*
X4976Y2849*
X4976Y2849*
X4975Y2849*
X4961*
X4961Y2849*
X4961*
X4960Y2849*
X4959Y2849*
X4959Y2849*
X4959Y2849*
X4959Y2850*
X4958Y2850*
X4958Y2851*
X4946Y2872*
X4937*
Y2851*
Y2851*
Y2851*
X4937Y2850*
X4937Y2850*
X4936Y2849*
X4936Y2849*
X4936Y2849*
X4935Y2849*
X4935Y2849*
X4921*
X4921Y2849*
X4920Y2849*
X4920Y2849*
X4920Y2849*
X4919Y2850*
X4919Y2850*
X4919Y2851*
Y2916*
Y2916*
Y2916*
X4919Y2916*
X4919Y2917*
X4920Y2917*
X4920Y2918*
X4920Y2918*
X4921Y2918*
X4922Y2918*
X4950*
X4951Y2918*
G37*
G36*
X4885D02*
X4885D01*
X4886Y2918*
X4887Y2918*
X4887Y2917*
X4887*
X4887Y2917*
X4888Y2917*
X4888Y2916*
X4889Y2915*
X4910Y2852*
X4910Y2852*
X4911Y2852*
X4911Y2851*
X4911Y2851*
Y2850*
X4911Y2850*
X4911Y2850*
X4910Y2849*
X4910Y2849*
X4910Y2849*
X4909Y2849*
X4909Y2849*
X4896*
X4895Y2849*
X4895*
X4894Y2849*
X4893Y2849*
X4893Y2849*
X4893Y2850*
X4892Y2850*
X4892Y2851*
X4889Y2859*
X4863*
X4860Y2851*
Y2851*
X4860Y2851*
X4860Y2850*
X4859Y2850*
X4859Y2849*
X4859Y2849*
X4858Y2849*
X4857Y2849*
X4856Y2849*
X4843*
X4843Y2849*
X4843Y2849*
X4842Y2849*
X4842Y2849*
X4842Y2849*
X4842Y2850*
X4841Y2851*
Y2851*
X4842Y2851*
X4842Y2851*
X4842Y2852*
X4864Y2915*
Y2915*
X4864Y2915*
X4864Y2915*
X4864Y2916*
X4864Y2916*
X4865Y2917*
X4865Y2917*
X4865Y2917*
X4866Y2918*
X4866Y2918*
X4866Y2918*
X4867Y2918*
X4867Y2918*
X4884*
X4885Y2918*
G37*
G36*
X4741D02*
X4742D01*
X4743Y2918*
X4743Y2918*
X4745Y2918*
X4747Y2917*
X4749Y2917*
X4751Y2916*
X4753Y2915*
X4753*
X4754Y2915*
X4754Y2915*
X4754Y2915*
X4755Y2914*
X4756Y2913*
X4757Y2912*
X4759Y2911*
X4760Y2909*
X4761Y2908*
Y2907*
X4761Y2907*
X4761Y2907*
X4761Y2907*
X4761Y2906*
X4762Y2906*
X4762Y2905*
X4763Y2903*
X4763Y2901*
X4763Y2900*
X4763Y2897*
Y2897*
Y2897*
Y2897*
Y2897*
X4763Y2896*
X4763Y2895*
X4763Y2893*
X4763Y2892*
X4762Y2891*
X4761Y2889*
X4761Y2889*
X4761Y2889*
X4761Y2888*
X4760Y2888*
X4760Y2887*
X4759Y2886*
X4758Y2885*
X4758Y2885*
X4758*
X4758Y2885*
X4758Y2884*
X4759Y2884*
X4760Y2883*
X4761Y2882*
X4762Y2881*
X4762Y2880*
X4763Y2879*
X4763Y2879*
X4763Y2878*
X4764Y2877*
X4764Y2876*
X4764Y2875*
X4764Y2874*
X4765Y2872*
X4765Y2870*
Y2870*
Y2870*
Y2869*
X4765Y2869*
X4765Y2868*
X4764Y2867*
X4764Y2866*
X4764Y2865*
X4763Y2862*
X4763Y2861*
X4762Y2860*
X4762Y2858*
X4761Y2857*
X4760Y2856*
X4759Y2855*
X4759Y2855*
X4759Y2854*
X4759Y2854*
X4758Y2854*
X4757Y2853*
X4757Y2853*
X4756Y2852*
X4755Y2852*
X4754Y2851*
X4752Y2850*
X4751Y2850*
X4749Y2849*
X4748Y2849*
X4746Y2849*
X4744Y2849*
X4742Y2849*
X4707*
X4707Y2849*
X4706Y2849*
X4706Y2849*
X4705Y2849*
X4705Y2850*
X4705Y2850*
X4705Y2851*
Y2916*
Y2916*
Y2916*
X4705Y2916*
X4705Y2917*
X4706Y2917*
X4706Y2918*
X4706Y2918*
X4707Y2918*
X4707Y2918*
X4740*
X4741Y2918*
G37*
G36*
X4667D02*
X4669Y2918D01*
X4670Y2918*
X4671Y2918*
X4673Y2917*
X4674Y2917*
X4676Y2917*
X4678Y2916*
X4680Y2916*
X4681Y2915*
X4683Y2914*
X4684Y2913*
X4686Y2912*
X4686Y2912*
X4686Y2912*
X4687Y2912*
X4687Y2911*
X4688Y2911*
X4688Y2910*
X4689Y2909*
X4690Y2908*
X4690Y2907*
X4691Y2906*
X4692Y2904*
X4692Y2903*
X4693Y2901*
X4693Y2899*
X4693Y2897*
X4693Y2895*
Y2895*
Y2895*
X4693Y2894*
X4693Y2893*
X4693Y2892*
X4693Y2891*
X4692Y2889*
X4692Y2888*
X4691Y2886*
X4690Y2884*
X4689Y2883*
X4688Y2881*
X4687Y2879*
X4685Y2878*
X4684Y2877*
X4681Y2875*
X4694Y2852*
X4694Y2852*
X4694Y2851*
X4694Y2851*
X4694Y2851*
Y2850*
X4694Y2850*
X4694Y2850*
X4693Y2849*
X4693Y2849*
X4693Y2849*
X4693Y2849*
X4692Y2849*
X4678*
X4678Y2849*
X4677*
X4676Y2849*
X4676Y2849*
X4676Y2849*
X4675Y2849*
X4675Y2850*
X4675Y2850*
X4674Y2851*
X4663Y2872*
X4654*
Y2851*
Y2851*
Y2851*
X4654Y2850*
X4654Y2850*
X4653Y2849*
X4653Y2849*
X4653Y2849*
X4652Y2849*
X4651Y2849*
X4638*
X4638Y2849*
X4637Y2849*
X4636Y2849*
X4636Y2849*
X4636Y2850*
X4636Y2850*
X4636Y2851*
Y2916*
Y2916*
Y2916*
X4636Y2916*
X4636Y2917*
X4636Y2917*
X4636Y2918*
X4637Y2918*
X4637Y2918*
X4638Y2918*
X4667*
X4667Y2918*
G37*
G36*
X4621Y2918D02*
X4622Y2918D01*
X4622Y2918*
X4622Y2917*
X4623Y2917*
X4623Y2916*
X4623Y2916*
Y2916*
Y2916*
Y2905*
X4623Y2904*
X4623Y2904*
X4623Y2903*
X4622Y2903*
X4622Y2903*
X4621Y2902*
X4621Y2902*
X4590*
Y2891*
X4618*
X4619Y2891*
X4620Y2891*
X4620Y2891*
X4620Y2891*
X4621Y2890*
X4621Y2890*
X4621Y2889*
Y2889*
Y2889*
Y2878*
X4621Y2877*
X4621Y2877*
X4620Y2876*
X4620Y2876*
X4620Y2876*
X4619Y2876*
X4619Y2876*
X4590*
Y2864*
X4621*
X4622Y2864*
X4623Y2864*
X4623Y2864*
X4623Y2864*
X4624Y2863*
X4624Y2862*
X4624Y2862*
Y2862*
Y2862*
Y2851*
X4624Y2850*
X4624Y2850*
X4623Y2849*
X4623Y2849*
X4623Y2849*
X4622Y2849*
X4622Y2849*
X4574*
X4573Y2849*
X4573Y2849*
X4572Y2849*
X4572Y2849*
X4572Y2850*
X4572Y2850*
X4572Y2851*
Y2851*
Y2851*
Y2916*
X4572Y2916*
X4572Y2917*
X4572Y2917*
X4572Y2917*
X4573Y2918*
X4573Y2918*
X4574Y2918*
X4621*
X4621Y2918*
G37*
G36*
X4487Y2918D02*
X4488Y2918D01*
X4489Y2917*
X4489Y2917*
X4489Y2917*
X4489Y2916*
X4490Y2916*
Y2905*
Y2905*
Y2905*
X4489Y2904*
X4489Y2904*
X4489Y2903*
X4489Y2903*
X4488Y2903*
X4488Y2902*
X4487Y2902*
X4469*
Y2851*
Y2851*
Y2851*
X4469Y2850*
X4469Y2850*
X4468Y2849*
X4468Y2849*
X4468Y2849*
X4467Y2849*
X4467Y2849*
X4453*
X4453Y2849*
X4452Y2849*
X4452Y2849*
X4451Y2849*
X4451Y2850*
X4451Y2850*
X4451Y2851*
Y2902*
X4433*
X4433Y2902*
X4432Y2903*
X4431Y2903*
X4431Y2903*
X4431Y2904*
X4431Y2904*
X4431Y2905*
Y2916*
Y2916*
Y2916*
X4431Y2916*
X4431Y2917*
X4431Y2917*
X4432Y2918*
X4432Y2918*
X4433Y2918*
X4433Y2918*
X4487*
X4487Y2918*
G37*
G36*
X4806Y2919D02*
X4807D01*
X4808Y2919*
X4809Y2919*
X4810Y2919*
X4813Y2918*
X4815Y2918*
X4818Y2917*
X4820Y2916*
X4821Y2916*
X4821*
X4821Y2915*
X4822Y2915*
X4822Y2915*
X4823Y2915*
X4823Y2914*
X4825Y2913*
X4826Y2912*
X4828Y2910*
X4830Y2908*
X4831Y2906*
X4832Y2906*
X4832Y2906*
X4832Y2905*
X4832Y2905*
X4832Y2904*
X4833Y2904*
X4833Y2903*
X4833Y2902*
X4834Y2901*
X4834Y2900*
X4835Y2898*
X4835Y2895*
X4836Y2892*
Y2892*
Y2892*
X4836Y2891*
Y2890*
Y2889*
X4836Y2887*
Y2885*
Y2883*
Y2883*
Y2883*
Y2883*
Y2882*
Y2882*
Y2881*
Y2880*
Y2878*
X4836Y2877*
Y2876*
X4836Y2875*
Y2875*
Y2874*
Y2874*
X4836Y2874*
Y2873*
X4835Y2873*
X4835Y2872*
X4835Y2871*
X4835Y2870*
X4834Y2868*
X4834Y2865*
X4833Y2863*
X4831Y2861*
Y2861*
X4831Y2860*
X4831Y2860*
X4831Y2860*
X4830Y2859*
X4830Y2859*
X4829Y2858*
X4829Y2857*
X4827Y2856*
X4825Y2854*
X4823Y2853*
X4821Y2851*
X4821*
X4821Y2851*
X4820Y2851*
X4820Y2850*
X4819Y2850*
X4818Y2850*
X4817Y2850*
X4816Y2849*
X4815Y2849*
X4814Y2849*
X4812Y2848*
X4811Y2848*
X4810Y2848*
X4808Y2848*
X4806Y2848*
X4805Y2848*
X4804*
X4803Y2848*
X4802*
X4801Y2848*
X4800Y2848*
X4799Y2848*
X4796Y2848*
X4794Y2849*
X4791Y2850*
X4789Y2850*
X4788Y2851*
X4788Y2851*
X4788Y2851*
X4787Y2851*
X4787Y2852*
X4786Y2852*
X4786Y2853*
X4784Y2854*
X4783Y2855*
X4781Y2857*
X4779Y2859*
X4778Y2861*
Y2861*
X4777Y2861*
X4777Y2861*
X4777Y2862*
X4777Y2862*
X4776Y2863*
X4776Y2864*
X4776Y2865*
X4775Y2866*
X4775Y2867*
X4774Y2869*
X4774Y2872*
X4773Y2875*
Y2875*
Y2875*
Y2875*
Y2875*
X4773Y2876*
Y2876*
Y2878*
X4773Y2879*
Y2880*
X4773Y2882*
Y2883*
Y2883*
Y2884*
Y2885*
Y2886*
X4773Y2887*
Y2888*
X4773Y2890*
X4773Y2892*
Y2892*
Y2893*
X4774Y2893*
Y2894*
X4774Y2894*
X4774Y2895*
X4774Y2896*
X4774Y2897*
X4775Y2899*
X4775Y2901*
X4776Y2904*
X4778Y2906*
X4778Y2906*
X4778Y2906*
X4778Y2906*
X4778Y2907*
X4779Y2907*
X4779Y2908*
X4780Y2909*
X4782Y2911*
X4784Y2913*
X4786Y2914*
X4788Y2916*
X4788Y2916*
X4788Y2916*
X4789Y2916*
X4789Y2916*
X4790Y2916*
X4791Y2917*
X4792Y2917*
X4793Y2917*
X4794Y2918*
X4795Y2918*
X4797Y2918*
X4798Y2919*
X4799Y2919*
X4801Y2919*
X4803Y2919*
X4805*
X4806Y2919*
G37*
G36*
X4394D02*
X4395D01*
X4396Y2919*
X4397Y2919*
X4398Y2919*
X4401Y2918*
X4404Y2918*
X4406Y2917*
X4408Y2916*
X4409Y2916*
X4409*
X4409Y2915*
X4410Y2915*
X4410Y2915*
X4411Y2915*
X4412Y2914*
X4413Y2913*
X4415Y2912*
X4417Y2910*
X4418Y2908*
X4420Y2906*
X4420Y2906*
X4420Y2906*
X4420Y2905*
X4420Y2905*
X4421Y2904*
X4421Y2904*
X4421Y2903*
X4422Y2902*
X4422Y2901*
X4422Y2900*
X4423Y2898*
X4424Y2895*
X4424Y2892*
Y2892*
Y2892*
X4424Y2891*
Y2890*
Y2889*
X4424Y2887*
Y2885*
Y2883*
Y2883*
Y2883*
Y2883*
Y2882*
Y2882*
Y2881*
Y2880*
Y2878*
X4424Y2877*
Y2876*
X4424Y2875*
Y2875*
Y2874*
Y2874*
X4424Y2874*
Y2873*
X4424Y2873*
X4424Y2872*
X4423Y2871*
X4423Y2870*
X4423Y2868*
X4422Y2865*
X4421Y2863*
X4420Y2861*
Y2861*
X4420Y2860*
X4419Y2860*
X4419Y2860*
X4419Y2859*
X4418Y2859*
X4418Y2858*
X4417Y2857*
X4416Y2856*
X4414Y2854*
X4412Y2853*
X4409Y2851*
X4409*
X4409Y2851*
X4408Y2851*
X4408Y2850*
X4407Y2850*
X4406Y2850*
X4406Y2850*
X4405Y2849*
X4403Y2849*
X4402Y2849*
X4401Y2848*
X4399Y2848*
X4398Y2848*
X4396Y2848*
X4395Y2848*
X4393Y2848*
X4392*
X4391Y2848*
X4390*
X4389Y2848*
X4388Y2848*
X4387Y2848*
X4385Y2848*
X4382Y2849*
X4379Y2850*
X4378Y2850*
X4376Y2851*
X4376Y2851*
X4376Y2851*
X4376Y2851*
X4375Y2852*
X4375Y2852*
X4374Y2853*
X4373Y2854*
X4371Y2855*
X4369Y2857*
X4367Y2859*
X4366Y2861*
Y2861*
X4366Y2861*
X4366Y2861*
X4365Y2862*
X4365Y2862*
X4365Y2863*
X4364Y2864*
X4364Y2865*
X4364Y2866*
X4363Y2867*
X4363Y2869*
X4362Y2872*
X4362Y2875*
Y2875*
Y2875*
Y2875*
Y2875*
X4362Y2876*
Y2876*
Y2878*
X4362Y2879*
Y2880*
X4362Y2882*
Y2883*
Y2883*
Y2884*
Y2885*
Y2886*
X4362Y2887*
Y2888*
X4362Y2890*
X4362Y2892*
Y2892*
Y2893*
X4362Y2893*
Y2894*
X4362Y2894*
X4362Y2895*
X4362Y2896*
X4362Y2897*
X4363Y2899*
X4364Y2901*
X4365Y2904*
X4366Y2906*
X4366Y2906*
X4366Y2906*
X4366Y2906*
X4367Y2907*
X4367Y2907*
X4367Y2908*
X4369Y2909*
X4370Y2911*
X4372Y2913*
X4374Y2914*
X4376Y2916*
X4377Y2916*
X4377Y2916*
X4377Y2916*
X4378Y2916*
X4378Y2916*
X4379Y2917*
X4380Y2917*
X4381Y2917*
X4382Y2918*
X4383Y2918*
X4385Y2918*
X4386Y2919*
X4388Y2919*
X4389Y2919*
X4391Y2919*
X4394*
X4394Y2919*
G37*
G36*
X4696Y2833D02*
X4697Y2833D01*
X4697Y2832*
X4697Y2832*
X4697Y2832*
X4697Y2832*
X4697Y2832*
Y2831*
Y2831*
X4697Y2831*
X4697Y2831*
X4687Y2800*
Y2800*
X4687Y2800*
X4687Y2799*
X4687Y2799*
X4686Y2799*
X4686Y2798*
X4685Y2798*
X4685Y2798*
X4685Y2798*
X4684Y2798*
X4678*
X4677Y2798*
X4677Y2798*
X4677Y2798*
X4676Y2798*
X4676Y2799*
X4675Y2799*
X4675Y2799*
X4675Y2800*
X4665Y2831*
Y2831*
X4665Y2831*
X4665Y2831*
X4665Y2831*
X4665Y2832*
Y2832*
Y2832*
X4665Y2832*
X4665Y2832*
X4665Y2832*
X4665Y2832*
X4665Y2832*
X4665Y2833*
X4666Y2833*
X4672*
X4673Y2833*
X4673Y2832*
X4673Y2832*
X4673*
X4673Y2832*
X4674Y2832*
X4674Y2832*
X4674Y2831*
X4681Y2809*
X4688Y2831*
Y2831*
X4688Y2831*
X4688Y2832*
X4688Y2832*
X4688Y2832*
X4689*
X4689Y2832*
X4689Y2832*
X4689Y2832*
X4689Y2833*
X4690Y2833*
X4696*
X4696Y2833*
G37*
G36*
X4716Y2833D02*
X4716D01*
X4717Y2833*
X4717Y2833*
X4718Y2833*
X4719Y2833*
X4720Y2832*
X4721Y2832*
X4722Y2831*
X4722*
X4722Y2831*
X4723Y2831*
X4723Y2831*
X4723Y2831*
X4723Y2831*
X4724Y2830*
X4725Y2830*
X4726Y2829*
X4726Y2828*
X4727Y2827*
Y2827*
X4727Y2827*
X4727Y2827*
X4727Y2827*
X4727Y2827*
X4727Y2826*
X4728Y2826*
X4728Y2825*
X4728Y2825*
X4728Y2824*
X4728Y2823*
X4728Y2821*
Y2821*
Y2821*
Y2821*
Y2821*
X4728Y2821*
X4728Y2820*
X4728Y2820*
X4728Y2819*
X4728Y2818*
X4728Y2817*
X4727Y2816*
Y2816*
X4727Y2816*
X4727Y2816*
X4727Y2815*
X4727Y2815*
X4726Y2815*
X4726Y2814*
X4725Y2814*
X4725Y2813*
X4725Y2813*
X4724Y2812*
X4724Y2812*
X4723Y2811*
X4722Y2811*
X4715Y2806*
X4728*
X4728Y2806*
X4729Y2806*
X4729Y2805*
X4729Y2805*
X4729Y2805*
X4729Y2805*
X4729Y2804*
Y2799*
Y2799*
Y2799*
X4729Y2799*
X4729Y2798*
X4729Y2798*
X4729Y2798*
X4729Y2798*
X4728Y2798*
X4728Y2798*
X4702*
X4701Y2798*
X4701Y2798*
X4701Y2798*
X4701Y2798*
X4700Y2798*
X4700Y2799*
X4700Y2799*
Y2803*
Y2803*
Y2803*
X4700Y2804*
X4700Y2804*
X4700Y2804*
X4701Y2805*
X4701Y2805*
X4701Y2806*
X4702Y2806*
X4717Y2817*
X4717Y2817*
X4717Y2817*
X4717Y2817*
X4718Y2818*
X4718Y2818*
X4718Y2818*
X4718Y2819*
X4719Y2819*
X4719Y2819*
X4719Y2819*
X4719Y2820*
X4719Y2820*
X4719Y2820*
X4719Y2821*
X4719Y2821*
X4719Y2821*
Y2821*
Y2822*
X4719Y2822*
X4719Y2822*
X4719Y2823*
X4719Y2823*
X4719Y2823*
X4718Y2824*
X4718Y2824*
X4718Y2824*
X4718Y2824*
X4718Y2825*
X4717Y2825*
X4717Y2825*
X4716Y2825*
X4715Y2825*
X4715*
X4715Y2825*
X4714Y2825*
X4714Y2825*
X4713Y2825*
X4713Y2825*
X4712Y2824*
X4712Y2824*
X4712Y2824*
X4712Y2824*
X4712Y2824*
X4711Y2824*
X4711Y2823*
X4711Y2823*
Y2823*
X4711Y2823*
X4711Y2823*
X4711Y2823*
X4711Y2823*
X4711Y2822*
X4711Y2822*
X4710Y2821*
Y2821*
X4710Y2821*
X4710Y2821*
X4710Y2821*
X4710Y2821*
X4710*
X4710Y2821*
X4710Y2820*
X4709Y2820*
X4709Y2820*
X4708Y2820*
X4702*
X4702Y2820*
X4702Y2820*
X4702Y2821*
X4702Y2821*
X4701Y2821*
X4701Y2821*
X4701Y2821*
Y2821*
Y2822*
X4701Y2822*
Y2822*
X4701Y2822*
X4701Y2822*
X4701Y2823*
X4702Y2824*
X4702Y2825*
X4702Y2826*
X4703Y2827*
Y2827*
X4703Y2827*
X4703Y2827*
X4703Y2827*
X4703Y2828*
X4704Y2828*
X4704Y2829*
X4705Y2829*
X4705Y2830*
X4706Y2831*
X4707Y2831*
X4708Y2831*
X4708Y2831*
X4708Y2832*
X4708Y2832*
X4708Y2832*
X4709Y2832*
X4709Y2832*
X4710Y2832*
X4710Y2832*
X4711Y2833*
X4711Y2833*
X4712Y2833*
X4713Y2833*
X4713Y2833*
X4715Y2833*
X4715*
X4716Y2833*
G37*
G36*
X4660Y2833D02*
X4660Y2832D01*
X4660Y2832*
X4661Y2832*
X4661Y2832*
X4661Y2832*
X4661Y2831*
Y2831*
Y2831*
Y2826*
X4661Y2826*
X4661Y2825*
X4661Y2825*
X4661Y2825*
X4660Y2825*
X4660Y2825*
X4660Y2825*
X4644*
Y2819*
X4659*
X4659Y2819*
X4659Y2819*
X4659Y2819*
X4659Y2819*
X4660Y2819*
X4660Y2818*
X4660Y2818*
Y2818*
Y2818*
Y2813*
X4660Y2812*
X4660Y2812*
X4660Y2812*
X4659Y2812*
X4659Y2811*
X4659Y2811*
X4659Y2811*
X4644*
Y2806*
X4660*
X4660Y2806*
X4661Y2806*
X4661Y2805*
X4661Y2805*
X4661Y2805*
X4661Y2805*
X4661Y2804*
Y2804*
Y2804*
Y2799*
X4661Y2799*
X4661Y2798*
X4661Y2798*
X4661Y2798*
X4661Y2798*
X4660Y2798*
X4660Y2798*
X4636*
X4636Y2798*
X4636Y2798*
X4636Y2798*
X4635Y2798*
X4635Y2798*
X4635Y2799*
X4635Y2799*
Y2799*
Y2799*
Y2831*
X4635Y2832*
X4635Y2832*
X4635Y2832*
X4635Y2832*
X4636Y2832*
X4636Y2833*
X4636Y2833*
X4660*
X4660Y2833*
G37*
G36*
X4616Y2833D02*
X4617Y2833D01*
X4618Y2832*
X4618Y2832*
X4619Y2832*
X4620Y2832*
X4621Y2832*
X4622Y2832*
X4622Y2831*
X4623Y2831*
X4624Y2831*
X4625Y2830*
X4626Y2830*
X4626Y2830*
X4626Y2830*
X4626Y2829*
X4626Y2829*
X4626Y2829*
X4627Y2829*
X4627Y2828*
X4627Y2828*
X4628Y2827*
X4628Y2826*
X4628Y2826*
X4629Y2825*
X4629Y2824*
X4629Y2823*
X4629Y2822*
X4629Y2821*
Y2821*
Y2821*
X4629Y2821*
X4629Y2820*
X4629Y2819*
X4629Y2819*
X4629Y2818*
X4629Y2817*
X4628Y2816*
X4628Y2816*
X4627Y2815*
X4627Y2814*
X4626Y2813*
X4625Y2812*
X4624Y2812*
X4623Y2811*
X4630Y2799*
X4630Y2799*
X4630Y2799*
X4630Y2799*
X4630Y2799*
Y2799*
X4630Y2799*
X4630Y2798*
X4629Y2798*
X4629Y2798*
X4629Y2798*
X4629Y2798*
X4629Y2798*
X4622*
X4622Y2798*
X4621*
X4621Y2798*
X4621Y2798*
X4620Y2798*
X4620Y2798*
X4620Y2798*
X4620Y2799*
X4620Y2799*
X4614Y2810*
X4610*
Y2799*
Y2799*
Y2799*
X4610Y2799*
X4609Y2798*
X4609Y2798*
X4609Y2798*
X4609Y2798*
X4609Y2798*
X4608Y2798*
X4602*
X4601Y2798*
X4601Y2798*
X4601Y2798*
X4601Y2798*
X4601Y2798*
X4600Y2799*
X4600Y2799*
Y2831*
Y2831*
Y2831*
X4600Y2832*
X4601Y2832*
X4601Y2832*
X4601Y2832*
X4601Y2832*
X4601Y2833*
X4602Y2833*
X4616*
X4616Y2833*
G37*
%LNbenchy-mb-pcb-changes-2*%
%LPC*%
G36*
X4298Y2590D02*
X4290Y2589D01*
X4287Y2587*
Y2586*
X4285Y2581*
X4289Y2574*
X4294Y2572*
X4298Y2573*
X4302Y2576*
X4303Y2580*
X4302Y2586*
X4298Y2590*
G37*
G36*
X4476Y2633D02*
X4395Y2633D01*
X4395Y2487*
X4478Y2488*
X4485Y2492*
X4487Y2494*
X4486Y2496*
X4481Y2504*
X4480Y2507*
X4472Y2518*
X4471Y2520*
X4469Y2523*
X4457Y2502*
X4457Y2502*
X4455Y2500*
X4452Y2495*
X4434Y2494*
X4434Y2495*
X4436Y2497*
X4437Y2499*
X4448Y2514*
X4449Y2516*
X4454Y2524*
X4455Y2526*
X4457Y2528*
X4460Y2534*
X4455Y2542*
X4454Y2544*
X4443Y2559*
X4442Y2561*
X4437Y2568*
X4438Y2570*
X4455Y2569*
X4456Y2567*
X4462Y2559*
X4463Y2556*
X4468Y2548*
X4469Y2544*
X4482Y2565*
X4484Y2570*
X4503Y2569*
X4501Y2567*
X4500Y2565*
X4498Y2563*
X4497Y2561*
X4491Y2553*
X4490Y2551*
X4480Y2536*
X4479Y2533*
X4481Y2531*
X4482Y2529*
X4487Y2521*
X4488Y2519*
X4490Y2517*
X4491Y2515*
X4497Y2508*
X4497Y2506*
X4503Y2520*
X4505Y2528*
X4506Y2532*
X4508Y2542*
X4509Y2563*
X4508Y2578*
X4506Y2591*
X4503Y2599*
X4499Y2610*
X4494Y2619*
X4492Y2621*
X4491Y2623*
X4485Y2629*
X4483Y2630*
X4476Y2633*
G37*
G36*
X4546Y2695D02*
X4441D01*
X4305Y2695*
X4306Y2647*
X4323Y2630*
X4333Y2631*
X4334Y2635*
X4340Y2637*
X4364Y2637*
X4365Y2653*
X4369Y2661*
X4378Y2664*
X4483Y2663*
X4486Y2662*
X4492Y2660*
X4501Y2655*
X4507Y2650*
X4510Y2648*
X4511Y2646*
X4517Y2640*
X4518Y2638*
X4520Y2636*
X4521Y2634*
X4532Y2612*
X4533Y2606*
X4535Y2597*
X4536Y2592*
X4537Y2586*
X4539Y2571*
X4538Y2535*
X4537Y2532*
X4535Y2523*
X4533Y2514*
X4529Y2503*
X4527Y2497*
X4518Y2482*
X4516Y2480*
X4515Y2478*
X4506Y2469*
X4503Y2468*
X4501Y2466*
X4488Y2459*
X4479Y2457*
X4465Y2456*
X4375Y2457*
X4368Y2461*
X4365Y2467*
X4364Y2473*
X4363Y2483*
X4335Y2484*
X4333Y2485*
X4332Y2488*
X4324Y2487*
X4310Y2473*
X4310Y2460*
X4318Y2456*
X4321Y2452*
X4323Y2447*
X4325Y2440*
X4323Y2436*
X4319Y2429*
X4315Y2425*
X4310Y2423*
X4306Y2422*
X4298Y2423*
X4291Y2428*
X4287Y2432*
X4285Y2440*
X4286Y2449*
X4291Y2455*
X4294Y2458*
X4299Y2461*
X4300Y2477*
X4302Y2479*
X4303Y2481*
X4319Y2496*
X4324Y2499*
X4333Y2499*
X4334Y2503*
X4364Y2504*
X4363Y2526*
X4335Y2527*
X4333Y2529*
X4332Y2532*
X4319Y2533*
X4313Y2528*
X4303Y2518*
X4295Y2516*
X4272Y2515*
X4273Y2421*
X4547Y2422*
X4546Y2695*
G37*
G36*
X4305Y2451D02*
X4300Y2450D01*
X4297Y2447*
X4296Y2443*
Y2442*
X4297Y2436*
X4298Y2435*
X4304Y2433*
X4309Y2434*
X4313Y2437*
X4314Y2442*
X4313Y2446*
X4309Y2450*
X4305Y2451*
G37*
G36*
X4294Y2695D02*
X4272Y2695D01*
X4273Y2526*
X4297Y2527*
X4310Y2540*
X4312Y2541*
X4315Y2542*
X4332Y2543*
X4334Y2547*
X4339Y2548*
X4364Y2549*
X4363Y2571*
X4334Y2572*
X4332Y2576*
X4313Y2576*
X4312Y2571*
X4305Y2564*
X4300Y2562*
X4287Y2563*
X4280Y2568*
X4279Y2570*
X4276Y2578*
X4277Y2589*
X4281Y2595*
X4285Y2598*
X4292Y2601*
X4302Y2599*
X4309Y2594*
X4311Y2593*
X4313Y2587*
X4333Y2587*
X4334Y2590*
X4336Y2592*
X4364Y2593*
X4363Y2614*
X4335Y2615*
X4333Y2617*
X4332Y2620*
X4319Y2621*
X4296Y2644*
X4295Y2651*
Y2685*
Y2686*
X4294Y2695*
G37*
G36*
X4899Y2991D02*
X4889D01*
Y2953*
X4900*
X4901Y2953*
X4902Y2953*
X4903Y2953*
X4904Y2954*
X4905Y2954*
X4906Y2954*
X4907Y2955*
X4909Y2956*
X4910Y2957*
X4911Y2958*
X4912Y2959*
X4912Y2961*
X4913Y2962*
X4913Y2964*
Y2965*
Y2965*
Y2965*
Y2965*
X4913Y2966*
Y2968*
Y2969*
X4913Y2970*
Y2971*
Y2972*
Y2972*
Y2972*
Y2972*
Y2973*
Y2974*
Y2975*
X4913Y2976*
Y2978*
X4913Y2979*
Y2979*
Y2980*
X4913Y2980*
Y2980*
X4913Y2981*
X4913Y2981*
X4912Y2983*
X4912Y2984*
X4911Y2985*
X4910Y2987*
X4909Y2988*
X4909Y2988*
X4909Y2988*
X4908Y2989*
X4907Y2989*
X4905Y2990*
X4904Y2990*
X4902Y2991*
X4899Y2991*
G37*
G36*
X4763D02*
X4753D01*
Y2953*
X4764*
X4765Y2953*
X4766Y2953*
X4767Y2953*
X4768Y2954*
X4769Y2954*
X4770Y2954*
X4771Y2955*
X4772Y2956*
X4774Y2957*
X4775Y2958*
X4775Y2959*
X4776Y2961*
X4777Y2962*
X4777Y2964*
Y2965*
Y2965*
Y2965*
Y2965*
X4777Y2966*
Y2968*
Y2969*
X4777Y2970*
Y2971*
Y2972*
Y2972*
Y2972*
Y2972*
Y2973*
Y2974*
Y2975*
X4777Y2976*
Y2978*
X4777Y2979*
Y2979*
Y2980*
X4777Y2980*
Y2980*
X4777Y2981*
X4777Y2981*
X4776Y2983*
X4776Y2984*
X4775Y2985*
X4774Y2987*
X4773Y2988*
X4773Y2988*
X4772Y2988*
X4772Y2989*
X4771Y2989*
X4769Y2990*
X4768Y2990*
X4766Y2991*
X4763Y2991*
G37*
G36*
X4692Y2987D02*
X4684Y2963D01*
X4700*
X4692Y2987*
G37*
G36*
X4428Y2991D02*
X4416D01*
Y2977*
X4428*
X4429Y2977*
X4429*
X4430Y2977*
X4431Y2977*
X4432Y2977*
X4433Y2978*
X4433Y2978*
X4434Y2978*
X4435Y2979*
X4436Y2980*
X4436Y2981*
X4437Y2982*
X4437Y2983*
X4437Y2984*
Y2984*
Y2984*
X4437Y2985*
X4437Y2985*
X4437Y2986*
X4437Y2986*
X4437Y2987*
X4436Y2988*
X4436Y2988*
X4435Y2989*
X4434Y2990*
X4433Y2990*
X4432Y2991*
X4431Y2991*
X4430Y2991*
X4428Y2991*
G37*
G36*
X4620Y2992D02*
X4620D01*
X4619Y2992*
X4619*
X4618Y2992*
X4617Y2991*
X4615Y2991*
X4614Y2991*
X4613Y2990*
X4611Y2989*
X4611Y2989*
X4611Y2988*
X4610Y2987*
X4610Y2986*
X4609Y2985*
X4608Y2984*
X4608Y2982*
X4608Y2980*
Y2980*
Y2980*
X4608Y2979*
Y2978*
X4607Y2977*
Y2975*
X4607Y2974*
Y2972*
Y2972*
Y2972*
Y2972*
Y2971*
Y2970*
Y2969*
X4607Y2968*
Y2966*
X4608Y2965*
X4608Y2964*
Y2963*
Y2963*
X4608Y2963*
X4608Y2963*
X4608Y2962*
X4608Y2961*
X4609Y2959*
X4609Y2958*
X4610Y2956*
X4611Y2955*
X4611Y2955*
X4612Y2955*
X4613Y2954*
X4614Y2954*
X4615Y2953*
X4616Y2953*
X4618Y2952*
X4620Y2952*
X4621*
X4621Y2952*
X4622*
X4622Y2952*
X4624Y2952*
X4625Y2953*
X4627Y2953*
X4628Y2954*
X4629Y2955*
X4629Y2955*
X4630Y2956*
X4630Y2956*
X4631Y2957*
X4632Y2959*
X4632Y2960*
X4633Y2962*
X4633Y2964*
Y2964*
Y2964*
X4633Y2964*
Y2965*
X4633Y2966*
X4633Y2967*
Y2969*
X4633Y2970*
Y2972*
Y2972*
Y2972*
Y2973*
Y2973*
Y2974*
Y2975*
X4633Y2976*
X4633Y2978*
X4633Y2979*
X4633Y2980*
Y2980*
Y2981*
X4633Y2981*
X4633Y2981*
X4633Y2982*
X4632Y2983*
X4632Y2985*
X4631Y2986*
X4630Y2987*
X4629Y2989*
X4629Y2989*
X4629Y2989*
X4628Y2990*
X4627Y2990*
X4626Y2991*
X4624Y2991*
X4622Y2992*
X4620Y2992*
G37*
G36*
X4379Y3124D02*
X4354D01*
Y3105*
X4380*
X4381Y3106*
X4382Y3106*
X4383Y3106*
X4385Y3107*
X4386Y3107*
X4387Y3108*
X4387Y3108*
X4387Y3108*
X4388Y3109*
X4388Y3110*
X4389Y3111*
X4389Y3112*
X4389Y3113*
X4390Y3115*
Y3115*
Y3116*
X4389Y3116*
X4389Y3117*
X4389Y3119*
X4389Y3120*
X4388Y3121*
X4387Y3122*
X4387Y3122*
X4387Y3122*
X4386Y3123*
X4385Y3123*
X4384Y3124*
X4383Y3124*
X4381Y3124*
X4379Y3124*
G37*
G36*
X4381Y3080D02*
X4354D01*
Y3060*
X4382*
X4383Y3060*
X4384Y3060*
X4385Y3060*
X4387Y3061*
X4388Y3061*
X4389Y3062*
X4389Y3062*
X4389Y3063*
X4390Y3063*
X4391Y3064*
X4391Y3065*
X4392Y3067*
X4392Y3068*
X4392Y3070*
Y3070*
Y3071*
X4392Y3071*
X4392Y3072*
X4391Y3073*
X4391Y3075*
X4390Y3076*
X4389Y3077*
X4389Y3077*
X4389Y3077*
X4388Y3078*
X4387Y3078*
X4386Y3079*
X4384Y3079*
X4383Y3080*
X4381Y3080*
G37*
G36*
X5017Y2902D02*
X5007D01*
Y2864*
X5018*
X5018Y2864*
X5019Y2865*
X5020Y2865*
X5021Y2865*
X5022Y2865*
X5024Y2866*
X5025Y2866*
X5026Y2867*
X5027Y2868*
X5028Y2869*
X5029Y2871*
X5030Y2872*
X5030Y2874*
X5030Y2876*
Y2876*
Y2876*
Y2876*
Y2877*
X5030Y2878*
Y2879*
Y2880*
X5031Y2881*
Y2883*
Y2883*
Y2883*
Y2884*
Y2884*
Y2884*
Y2885*
Y2886*
X5030Y2887*
Y2889*
X5030Y2891*
Y2891*
Y2891*
X5030Y2891*
Y2892*
X5030Y2892*
X5030Y2893*
X5030Y2894*
X5029Y2895*
X5029Y2897*
X5028Y2898*
X5027Y2899*
X5026Y2900*
X5026Y2900*
X5025Y2900*
X5024Y2901*
X5023Y2901*
X5021Y2902*
X5019Y2902*
X5017Y2902*
G37*
G36*
X4949Y2903D02*
X4937D01*
Y2888*
X4949*
X4950Y2888*
X4950*
X4951Y2888*
X4952Y2888*
X4953Y2889*
X4953Y2889*
X4954Y2889*
X4955Y2890*
X4956Y2890*
X4957Y2891*
X4957Y2892*
X4958Y2893*
X4958Y2894*
X4958Y2895*
Y2895*
Y2896*
X4958Y2896*
X4958Y2897*
X4958Y2897*
X4958Y2898*
X4957Y2898*
X4957Y2899*
X4956Y2900*
X4956Y2900*
X4955Y2901*
X4954Y2902*
X4953Y2902*
X4952Y2902*
X4950Y2903*
X4949Y2903*
G37*
G36*
X4876Y2899D02*
X4868Y2875D01*
X4884*
X4876Y2899*
G37*
G36*
X4739Y2903D02*
X4723D01*
Y2891*
X4739*
X4740Y2891*
X4740Y2892*
X4741Y2892*
X4742Y2892*
X4743Y2892*
X4743Y2893*
X4743Y2893*
X4743Y2893*
X4744Y2894*
X4744Y2894*
X4744Y2895*
X4745Y2895*
X4745Y2896*
X4745Y2897*
Y2897*
Y2897*
X4745Y2898*
X4745Y2899*
X4744Y2899*
X4744Y2900*
X4744Y2901*
X4743Y2901*
X4743Y2901*
X4743Y2901*
X4743Y2902*
X4742Y2902*
X4741Y2902*
X4741Y2903*
X4740Y2903*
X4739Y2903*
G37*
G36*
X4740Y2876D02*
X4723D01*
Y2864*
X4740*
X4741Y2864*
X4741Y2864*
X4742Y2864*
X4743Y2865*
X4744Y2865*
X4744Y2866*
X4745Y2866*
X4745Y2866*
X4745Y2866*
X4745Y2867*
X4746Y2867*
X4746Y2868*
X4746Y2869*
X4746Y2870*
Y2870*
Y2870*
X4746Y2871*
X4746Y2872*
X4746Y2872*
X4746Y2873*
X4745Y2874*
X4744Y2874*
X4744Y2874*
X4744Y2875*
X4744Y2875*
X4743Y2875*
X4742Y2875*
X4742Y2876*
X4741Y2876*
X4740Y2876*
G37*
G36*
X4665Y2903D02*
X4654D01*
Y2888*
X4666*
X4666Y2888*
X4667*
X4667Y2888*
X4668Y2888*
X4669Y2889*
X4670Y2889*
X4671Y2889*
X4672Y2890*
X4673Y2890*
X4673Y2891*
X4674Y2892*
X4674Y2893*
X4675Y2894*
X4675Y2895*
Y2895*
Y2896*
X4675Y2896*
X4675Y2897*
X4674Y2897*
X4674Y2898*
X4674Y2898*
X4674Y2899*
X4673Y2900*
X4672Y2900*
X4672Y2901*
X4671Y2902*
X4670Y2902*
X4668Y2902*
X4667Y2903*
X4665Y2903*
G37*
G36*
X4805Y2903D02*
X4804D01*
X4804Y2903*
X4803*
X4802Y2903*
X4801Y2903*
X4800Y2903*
X4798Y2902*
X4797Y2901*
X4795Y2900*
X4795Y2900*
X4795Y2900*
X4794Y2899*
X4794Y2898*
X4793Y2897*
X4793Y2895*
X4792Y2894*
X4792Y2892*
Y2892*
Y2891*
X4792Y2890*
Y2889*
X4792Y2888*
Y2887*
X4792Y2885*
Y2883*
Y2883*
Y2883*
Y2883*
Y2883*
Y2882*
Y2881*
X4792Y2879*
Y2878*
X4792Y2876*
X4792Y2875*
Y2875*
Y2875*
X4792Y2875*
X4792Y2874*
X4792Y2873*
X4792Y2872*
X4793Y2871*
X4794Y2869*
X4794Y2868*
X4795Y2867*
X4796Y2866*
X4796Y2866*
X4797Y2866*
X4798Y2865*
X4799Y2864*
X4801Y2864*
X4802Y2864*
X4805Y2863*
X4805*
X4806Y2864*
X4806*
X4807Y2864*
X4808Y2864*
X4809Y2864*
X4811Y2865*
X4812Y2865*
X4813Y2867*
X4814Y2867*
X4814Y2867*
X4815Y2868*
X4815Y2869*
X4816Y2870*
X4816Y2871*
X4817Y2873*
X4817Y2875*
Y2875*
Y2875*
X4817Y2876*
Y2876*
X4817Y2877*
X4817Y2879*
Y2880*
X4818Y2882*
Y2883*
Y2884*
Y2884*
Y2884*
Y2884*
Y2885*
Y2886*
X4817Y2888*
X4817Y2889*
X4817Y2890*
X4817Y2892*
Y2892*
Y2892*
X4817Y2892*
X4817Y2893*
X4817Y2894*
X4817Y2895*
X4816Y2896*
X4815Y2897*
X4815Y2899*
X4813Y2900*
X4813Y2900*
X4813Y2901*
X4812Y2901*
X4811Y2902*
X4810Y2902*
X4808Y2903*
X4807Y2903*
X4805Y2903*
G37*
G36*
X4393D02*
X4392D01*
X4392Y2903*
X4391*
X4391Y2903*
X4389Y2903*
X4388Y2903*
X4387Y2902*
X4385Y2901*
X4384Y2900*
X4384Y2900*
X4383Y2900*
X4383Y2899*
X4382Y2898*
X4382Y2897*
X4381Y2895*
X4380Y2894*
X4380Y2892*
Y2892*
Y2891*
X4380Y2890*
Y2889*
X4380Y2888*
Y2887*
X4380Y2885*
Y2883*
Y2883*
Y2883*
Y2883*
Y2883*
Y2882*
Y2881*
X4380Y2879*
Y2878*
X4380Y2876*
X4380Y2875*
Y2875*
Y2875*
X4380Y2875*
X4380Y2874*
X4380Y2873*
X4381Y2872*
X4381Y2871*
X4382Y2869*
X4383Y2868*
X4384Y2867*
X4384Y2866*
X4384Y2866*
X4385Y2866*
X4386Y2865*
X4387Y2864*
X4389Y2864*
X4391Y2864*
X4393Y2863*
X4393*
X4394Y2864*
X4394*
X4395Y2864*
X4396Y2864*
X4398Y2864*
X4399Y2865*
X4400Y2865*
X4402Y2867*
X4402Y2867*
X4402Y2867*
X4403Y2868*
X4403Y2869*
X4404Y2870*
X4405Y2871*
X4405Y2873*
X4405Y2875*
Y2875*
Y2875*
X4406Y2876*
Y2876*
X4406Y2877*
X4406Y2879*
Y2880*
X4406Y2882*
Y2883*
Y2884*
Y2884*
Y2884*
Y2884*
Y2885*
Y2886*
X4406Y2888*
X4406Y2889*
X4406Y2890*
X4405Y2892*
Y2892*
Y2892*
X4405Y2892*
X4405Y2893*
X4405Y2894*
X4405Y2895*
X4404Y2896*
X4404Y2897*
X4403Y2899*
X4402Y2900*
X4402Y2900*
X4401Y2901*
X4400Y2901*
X4399Y2902*
X4398Y2902*
X4397Y2903*
X4395Y2903*
X4393Y2903*
G37*
G36*
X4615Y2825D02*
X4610D01*
Y2818*
X4615*
X4616Y2818*
X4616*
X4616Y2818*
X4617Y2818*
X4617Y2818*
X4618Y2818*
X4618Y2818*
X4619Y2818*
X4619Y2819*
X4619Y2819*
X4620Y2820*
X4620Y2820*
X4620Y2821*
X4620Y2821*
Y2821*
Y2821*
X4620Y2822*
X4620Y2822*
X4620Y2822*
X4620Y2822*
X4620Y2823*
X4619Y2823*
X4619Y2823*
X4619Y2824*
X4619Y2824*
X4618Y2824*
X4618Y2825*
X4617Y2825*
X4616Y2825*
X4615Y2825*
G37*
%LNbenchy-mb-pcb-changes-3*%
%LPD*%
G54D10*
X1822Y3978D02*
D01*
X1822Y3978*
X1822Y3979*
X1822Y3979*
X1822Y3980*
X1822Y3981*
X1822Y3981*
X1821Y3982*
X1821Y3982*
X1821Y3982*
X1820Y3983*
X1820Y3983*
X1820Y3984*
X1819Y3984*
X1819Y3984*
X1818Y3985*
X1818Y3985*
X1817Y3985*
X1817Y3985*
X1816Y3985*
X1816Y3986*
X1815Y3986*
X1815Y3986*
X1814*
X1814Y3986*
X1813Y3986*
X1813Y3985*
X1812Y3985*
X1812Y3985*
X1811Y3985*
X1811Y3985*
X1810Y3984*
X1810Y3984*
X1809Y3984*
X1809Y3983*
X1808Y3983*
X1808Y3982*
X1808Y3982*
X1808Y3982*
X1807Y3981*
X1807Y3981*
X1807Y3980*
X1807Y3979*
X1807Y3979*
X1807Y3978*
X1807Y3978*
X1807Y3977*
X1807Y3977*
X1807Y3976*
X1807Y3976*
X1807Y3975*
X1807Y3975*
X1808Y3974*
X1808Y3974*
X1808Y3973*
X1808Y3973*
X1809Y3972*
X1809Y3972*
X1810Y3972*
X1810Y3971*
X1811Y3971*
X1811Y3971*
X1812Y3971*
X1812Y3970*
X1813Y3970*
X1813Y3970*
X1814Y3970*
X1814Y3970*
X1815*
X1815Y3970*
X1816Y3970*
X1816Y3970*
X1817Y3970*
X1817Y3971*
X1818Y3971*
X1818Y3971*
X1819Y3971*
X1819Y3972*
X1820Y3972*
X1820Y3972*
X1820Y3973*
X1821Y3973*
X1821Y3974*
X1821Y3974*
X1822Y3975*
X1822Y3975*
X1822Y3976*
X1822Y3976*
X1822Y3977*
X1822Y3977*
X1822Y3978*
G54D11*
X4995Y3360D02*
D01*
X4995Y3355*
X4995Y3350*
X4996Y3345*
X4997Y3341*
X4999Y3336*
X5001Y3332*
X5003Y3327*
X5005Y3323*
X5008Y3319*
X5011Y3315*
X5014Y3312*
X5018Y3308*
X5021Y3305*
X5025Y3302*
X5029Y3300*
X5034Y3297*
X5038Y3295*
X5043Y3294*
X5047Y3293*
X5052Y3292*
X5057Y3291*
X5062Y3290*
X5066*
X5071Y3291*
X5076Y3292*
X5081Y3293*
X5085Y3294*
X5090Y3295*
X5094Y3297*
X5099Y3300*
X5103Y3302*
X5107Y3305*
X5110Y3308*
X5114Y3312*
X5117Y3315*
X5120Y3319*
X5123Y3323*
X5125Y3327*
X5127Y3332*
X5129Y3336*
X5131Y3341*
X5132Y3345*
X5133Y3350*
X5133Y3355*
X5133Y3360*
Y4226D02*
D01*
X5133Y4231*
X5133Y4236*
X5132Y4240*
X5131Y4245*
X5129Y4250*
X5127Y4254*
X5125Y4258*
X5123Y4263*
X5120Y4267*
X5117Y4270*
X5114Y4274*
X5110Y4277*
X5107Y4280*
X5103Y4283*
X5099Y4286*
X5094Y4288*
X5090Y4290*
X5085Y4292*
X5081Y4293*
X5076Y4294*
X5071Y4295*
X5066Y4295*
X5062*
X5057Y4295*
X5052Y4294*
X5047Y4293*
X5043Y4292*
X5038Y4290*
X5034Y4288*
X5029Y4286*
X5025Y4283*
X5021Y4280*
X5018Y4277*
X5014Y4274*
X5011Y4270*
X5008Y4267*
X5005Y4263*
X5003Y4258*
X5001Y4254*
X4999Y4250*
X4997Y4245*
X4996Y4240*
X4995Y4236*
X4995Y4231*
X4995Y4226*
X4448Y1230D02*
Y1281D01*
X4590Y1230D02*
Y1281D01*
X4347Y1230D02*
Y1281D01*
X3756Y1230D02*
Y1281D01*
X4000Y1230D02*
Y1281D01*
X3898Y1230D02*
Y1281D01*
X4489Y1230D02*
Y1281D01*
X3858Y1230D02*
Y1281D01*
X5781Y2890D02*
X5797D01*
X1149Y3600D02*
X1204D01*
X1782Y1618D02*
X1885D01*
X1782D02*
Y1723D01*
X1935D02*
X1987D01*
X2057Y2156D02*
X2099Y2198D01*
X2010Y2203D02*
X2011Y2214D01*
X5781Y3073D02*
X5797D01*
X1118Y1925D02*
Y1932D01*
X1406Y812D02*
X1530D01*
X2010Y2203D02*
X2052Y2245D01*
X5714Y3746D02*
X5718D01*
X2044Y812D02*
X2168D01*
X2045Y932D02*
X2168D01*
X1983Y1791D02*
Y1842D01*
X2159Y804D02*
X2168Y812D01*
X2154D02*
X2159Y804D01*
X1588Y1720D02*
Y1775D01*
X1987Y1671D02*
Y1723D01*
X1679Y1720D02*
Y1775D01*
X1580Y1729D02*
X1588Y1720D01*
X2011Y2214D02*
X2020Y2213D01*
X1580Y1729D02*
X1588Y1734D01*
X1086Y2398D02*
Y2404D01*
Y1709D02*
Y1715D01*
X1800Y1828D02*
Y1844D01*
X1817D02*
Y1828D01*
X1407Y932D02*
X1530D01*
X1118Y1709D02*
Y1715D01*
X1750Y1828D02*
Y1844D01*
X1867D02*
Y1828D01*
X5729Y2497D02*
Y2549D01*
X5830Y2497D02*
Y2549D01*
X5714Y3872D02*
X5718D01*
X1086Y1925D02*
Y1932D01*
X1521Y804D02*
X1530Y812D01*
X1516D02*
X1521Y804D01*
X1118Y2398D02*
Y2404D01*
X2383Y3499D02*
X2391Y3490D01*
Y3553*
X5781Y2939D02*
X5797D01*
X1529Y1302D02*
X1548D01*
Y1320*
X6320Y2371D02*
X6372D01*
X6291Y2305D02*
Y2309D01*
X6165Y2305D02*
Y2309D01*
X5781Y3024D02*
X5797D01*
X2383Y3499D02*
X2391Y3503D01*
X5781Y2957D02*
X5797D01*
X5781Y3006D02*
X5797D01*
X2514Y3490D02*
Y3553D01*
X1382Y1302D02*
X1400D01*
X6320Y2586D02*
X6372D01*
X6320Y2485D02*
X6372D01*
X5847Y2549D02*
Y2497D01*
X6168Y1610D02*
X6177Y1618D01*
X6168Y1444D02*
X6187D01*
X6177Y1618D02*
X6182Y1610D01*
X6187Y1444D02*
Y1463D01*
X6021Y1610D02*
X6039D01*
X1382Y1302D02*
Y1320D01*
Y1449D02*
Y1468D01*
X5948Y2549D02*
Y2497D01*
X6320Y2472D02*
X6372D01*
X6066Y2497D02*
Y2549D01*
X5965Y2497D02*
Y2549D01*
X1529Y1468D02*
X1548D01*
X1387Y1302D02*
X1391Y1294D01*
X1548Y1449D02*
Y1468D01*
X2818Y1230D02*
Y1281D01*
X2717D02*
Y1230D01*
X2575D02*
Y1281D01*
X1321Y2111D02*
X1329Y2116D01*
X2677Y1230D02*
Y1281D01*
X1544Y2244D02*
Y2330D01*
X1149Y3691D02*
X1204D01*
X1195Y3592D02*
X1204Y3600D01*
X1321Y2111D02*
X1329Y2102D01*
X1382Y1468D02*
X1400D01*
X1391Y1294D02*
X1400Y1302D01*
X1329Y2102D02*
Y2244D01*
X1546Y3129D02*
X1603D01*
X1329Y2244D02*
Y2330D01*
X1692Y2324D02*
X1705Y2311D01*
X1544Y2157D02*
Y2244D01*
X1692Y2467D02*
X1818D01*
X1692Y2324D02*
X1818D01*
X1705Y2311D02*
X1714Y2319D01*
X1594Y2984D02*
X1603Y2992D01*
X1546D02*
X1603D01*
X1589D02*
X1594Y2984D01*
X1118Y4267D02*
X1244D01*
X1653Y3840D02*
Y3889D01*
X839Y4269D02*
X1065D01*
X1244Y4033D02*
Y4267D01*
X839Y4033D02*
Y4269D01*
Y4033D02*
X1244D01*
X892Y4037D02*
Y4077D01*
X1092*
X5436Y4248D02*
Y4297D01*
X5159Y3864D02*
X5214D01*
X5737Y4202D02*
Y4218D01*
X6127Y4098D02*
Y3905D01*
X1092Y4037D02*
Y4077D01*
X6514Y4169D02*
Y4291D01*
Y3905D02*
Y4027D01*
X2125Y3840D02*
X2165D01*
X1653D02*
X1692D01*
X2165D02*
Y3889D01*
X4246Y3354D02*
X4277D01*
X6118Y3895D02*
Y4007D01*
X6127Y4098D02*
Y4291D01*
X5863Y4179D02*
X5950D01*
X6127Y3905D02*
X6514D01*
X6127Y4291D02*
X6514D01*
Y4169D02*
X6564D01*
X5664Y4021D02*
X5673Y4029D01*
X5687Y4218D02*
Y4202D01*
X5436Y4029D02*
Y4078D01*
X5903Y3886D02*
X5934D01*
X5899Y3911D02*
X5950D01*
X5486Y3922D02*
X5541D01*
X5919Y3901D02*
Y3870D01*
X5659Y4029D02*
X5664Y4021D01*
X5857Y3952D02*
Y4133D01*
X6084Y3911D02*
X6126Y3952D01*
X5159Y3722D02*
X5214D01*
X4995Y4226D02*
Y4151D01*
X4773Y3434D02*
Y3793D01*
X5159Y3864D02*
Y4151D01*
Y3434D02*
Y3722D01*
X6118Y3895D02*
X6230D01*
X5214Y3722D02*
Y3793D01*
X5133Y4226D02*
Y4151D01*
X5214Y3793D02*
Y3864D01*
X4773Y3793D02*
Y4151D01*
X6514Y4027D02*
X6564D01*
X4773Y4151D02*
X5159D01*
X5436Y4297D02*
X5584D01*
X5436Y4029D02*
X5673D01*
X4763Y3425D02*
X4875D01*
X4995Y3360D02*
Y3434D01*
X4773D02*
X5159D01*
X5133Y3360D02*
Y3434D01*
X4763Y3425D02*
Y3537D01*
X4324Y3388D02*
X4447D01*
X3176Y4007D02*
X4264D01*
X3720Y4037D02*
X4234D01*
X3176Y4007D02*
Y4242D01*
X4264*
X3177Y4212D02*
X3248D01*
X3177Y4242D02*
X3248D01*
X3165Y4253D02*
X3214D01*
X4192Y4242D02*
X4263D01*
X3307D02*
X4133D01*
X4264Y4007D02*
Y4242D01*
X4234Y4037D02*
Y4153D01*
X3206Y4037D02*
Y4153D01*
X3165Y4204D02*
Y4253D01*
X4263Y4212D02*
Y4242D01*
X4192Y4212D02*
X4263D01*
X4192D02*
Y4242D01*
X3177Y4212D02*
Y4242D01*
X4133Y4212D02*
Y4242D01*
X3206Y4037D02*
X3720D01*
X3177Y4153D02*
X3206D01*
X3307Y4212D02*
Y4242D01*
Y4212D02*
X4133D01*
X4234Y4153D02*
X4263D01*
X3248Y4212D02*
Y4242D01*
X1086Y1492D02*
Y1499D01*
X1118Y1492D02*
Y1499D01*
X4264Y3566D02*
Y3591D01*
X4246Y3354D02*
X4254Y3361D01*
X4324Y3198D02*
X4447D01*
X4254Y3361D02*
X4259Y3354D01*
X4264Y3566D02*
X4289D01*
X5752Y4196D02*
Y4248D01*
X5432Y1913D02*
Y1964D01*
X5330Y1913D02*
Y1964D01*
X5043Y1979D02*
X5161D01*
X5266Y1915D02*
Y1930D01*
X5315Y1915D02*
Y1930D01*
X5586Y1496D02*
X5614D01*
X4900Y1962D02*
Y1947D01*
X3316Y2396D02*
X3321Y2385D01*
X5147Y1858D02*
X5152Y1851D01*
X3321Y2385D02*
X3331Y2396D01*
X3274Y2528D02*
X3332D01*
X3635Y2141D02*
X3644Y2149D01*
X4949Y1947D02*
Y1962D01*
X6126Y3952D02*
Y4179D01*
X5043Y1858D02*
X5161D01*
X5422Y1458D02*
Y1450D01*
X5586Y1467D02*
Y1496D01*
Y1290D02*
Y1319D01*
X5763Y1496D02*
X5786D01*
X1885Y1618D02*
Y1723D01*
X1782D02*
X1885D01*
X6260Y3161D02*
Y3143D01*
X5586Y1290D02*
X5614D01*
X1881Y1791D02*
Y1842D01*
X3272Y2639D02*
Y2683D01*
X5973Y3678D02*
Y3730D01*
X5791Y1467D02*
Y1495D01*
X5605Y1283D02*
X5614Y1290D01*
X5763D02*
X5791D01*
Y1319*
X5487Y1450D02*
Y1458D01*
X5600Y1290D02*
X5605Y1283D01*
X6291Y3267D02*
X6358D01*
X6322Y3527D02*
X6358D01*
X6165Y3252D02*
X6180Y3267D01*
X6161Y3257D02*
Y3267D01*
X6114D02*
X6180D01*
X6304Y3700D02*
X6356D01*
X6304Y3676D02*
X6356D01*
X6304Y3574D02*
X6356D01*
X6358Y3267D02*
Y3527D01*
X6161Y3257D02*
X6165Y3252D01*
X6558Y2504D02*
Y2557D01*
X6156Y2158D02*
X6479D01*
X6114Y3527D02*
X6149D01*
X6114Y3267D02*
Y3527D01*
X6033Y4179D02*
X6126D01*
X5857Y3952D02*
X5899Y3911D01*
X6033D02*
X6084D01*
X5854Y4196D02*
Y4248D01*
X5527Y3922D02*
X5532Y3915D01*
X6304Y3802D02*
X6356D01*
X5948Y3678D02*
Y3730D01*
X5847Y3678D02*
Y3730D01*
X6074Y3678D02*
Y3730D01*
X5486Y4014D02*
X5541D01*
X5532Y3915D02*
X5541Y3922D01*
X5295Y4020D02*
X5310D01*
X5295Y4069D02*
X5310D01*
X6453Y2709D02*
X6558D01*
X3208Y2925D02*
X3271D01*
X5671Y2158D02*
X5994D01*
X3211Y2639D02*
Y2683D01*
X3299Y3051D02*
X3362D01*
X3308Y3059D02*
X3312Y3051D01*
X3263Y2796D02*
X3271Y2802D01*
X3208D02*
X3271D01*
X3257D02*
X3262Y2796D01*
X3635Y1897D02*
X3950D01*
X3644Y2149D02*
X3649Y2141D01*
X5152Y1851D02*
X5161Y1858D01*
X3274Y2396D02*
X3331D01*
X3299Y3051D02*
X3308Y3059D01*
X3635Y2141D02*
X3950D01*
X6325Y2225D02*
X6339Y2252D01*
X6453Y2607D02*
Y2709D01*
X5620Y2209D02*
X6530D01*
X6156Y2158D02*
Y2209D01*
X6530Y1850D02*
Y2209D01*
X6558Y2607D02*
Y2709D01*
X6505Y2504D02*
X6558D01*
X6453Y2607D02*
X6558D01*
X5671Y1902D02*
X6479D01*
X5671Y2158D02*
Y1902D01*
X5620Y1850D02*
X6530D01*
X5620Y2209D02*
Y1850D01*
X6479Y1902D02*
Y2158D01*
X5994D02*
Y2209D01*
X3299Y2928D02*
X3362D01*
X6316Y2243D02*
X6325Y2225D01*
X6168Y1610D02*
X6187D01*
X5975Y2896D02*
Y2877D01*
Y3161D02*
X5994D01*
X6241D02*
X6250Y3169D01*
X5975Y3143D02*
Y3161D01*
Y2877D02*
X5994D01*
X902Y1776D02*
X987D01*
X902Y1647D02*
X987D01*
X902Y2209D02*
X911Y2217D01*
X855Y2154D02*
Y2137D01*
X1034Y1487D02*
Y1504D01*
X6241Y2877D02*
X6260D01*
X902Y2209D02*
X987D01*
X902Y2080D02*
X987D01*
X902Y2465D02*
X987D01*
X902Y2336D02*
X987D01*
X902Y1560D02*
X911Y1567D01*
X916Y1560*
X6260Y2877D02*
Y2896D01*
X6143Y2448D02*
X6195D01*
X6241Y3161D02*
X6260D01*
X6250Y3169D02*
X6255Y3161D01*
X6143Y2550D02*
X6195D01*
X1086Y2142D02*
Y2148D01*
X1034Y2137D02*
Y2154D01*
X902Y1864D02*
X987D01*
X1034Y2393D02*
Y2409D01*
X855Y2393D02*
Y2409D01*
X1728Y2166D02*
X1743D01*
X855Y1487D02*
Y1504D01*
X911Y1784D02*
X916Y1776D01*
X911Y2217D02*
X916Y2209D01*
X911Y2473D02*
X916Y2465D01*
X2088Y2282D02*
X2124D01*
X2088D02*
Y2317D01*
X6073Y3482D02*
Y3533D01*
X6055Y2410D02*
X6068Y2397D01*
X902Y2465D02*
X911Y2473D01*
X2536Y2281D02*
X2572D01*
X855Y1721D02*
Y1704D01*
X902Y1993D02*
X911Y2000D01*
X1034Y1704D02*
Y1721D01*
X1118Y2142D02*
Y2148D01*
X911Y2000D02*
X916Y1993D01*
X1034Y1920D02*
Y1937D01*
X902Y1993D02*
X987D01*
X902Y1776D02*
X911Y1784D01*
X2116Y2275D02*
X2124Y2282D01*
X902Y1560D02*
X987D01*
X902Y1431D02*
X987D01*
X1728Y2215D02*
X1743D01*
X855Y1920D02*
Y1937D01*
X6021Y1444D02*
X6039D01*
X5190Y1363D02*
X5242D01*
X5825Y1672D02*
X5830Y1676D01*
X6021Y1444D02*
Y1463D01*
Y1591D02*
Y1610D01*
X5823Y1685D02*
X5830Y1676D01*
X5361Y1735D02*
X5413D01*
X6464Y1837D02*
X6476Y1860D01*
X5190Y1464D02*
X5242D01*
X6322Y1690D02*
X6342D01*
X6322Y1749D02*
X6342D01*
Y834D02*
Y1795D01*
X6507Y1690D02*
X6527D01*
X6322Y939D02*
X6342D01*
X6389Y800D02*
Y834D01*
X6322Y880D02*
X6342D01*
X6187Y1591D02*
Y1610D01*
X6507Y1727D02*
X6527D01*
X6452Y1860D02*
X6476D01*
X6322Y800D02*
Y1829D01*
X5731Y1629D02*
Y1685D01*
X5361Y1683D02*
Y1735D01*
X6421Y834D02*
Y800D01*
X5823Y1685D02*
Y1629D01*
X6322Y1829D02*
X6527D01*
X5361Y1630D02*
X5465D01*
X5512Y1595D02*
X5565D01*
X5615D02*
Y1700D01*
Y1595D02*
X5717D01*
X6342Y1795D02*
X6507D01*
X5717Y1595D02*
Y1700D01*
X5361Y1633D02*
X5465D01*
X5512Y1595D02*
Y1647D01*
X5615Y1700D02*
X5717D01*
X6131Y2334D02*
X6144Y2320D01*
X6041Y2397D02*
X6055Y2410D01*
X6389Y1795D02*
Y1829D01*
X2111Y2282D02*
X2116Y2275D01*
X6421Y1829D02*
Y1795D01*
X6452Y1860D02*
X6464Y1837D01*
X6041Y2397D02*
X6042Y2408D01*
X6041Y2244D02*
X6055Y2231D01*
X6131Y2307D02*
X6144Y2320D01*
X6322Y800D02*
X6527D01*
X6507Y939D02*
X6527D01*
X6507Y902D02*
X6527D01*
X6507Y834D02*
Y1795D01*
X5965Y2320D02*
X5978Y2334D01*
X6342Y834D02*
X6507D01*
X6527Y1829D02*
Y800D01*
X2572Y2281D02*
Y2317D01*
X1052Y3405D02*
Y3419D01*
X1174Y4014D02*
X1223D01*
X5706Y3963D02*
X5733Y3936D01*
X5711Y3911D02*
X5726D01*
X6042Y2408D02*
X6051Y2407D01*
X5706Y3963D02*
Y4067D01*
X1019Y3580D02*
X1024Y3572D01*
X1010Y3405D02*
X1052D01*
X1010Y3572D02*
X1019Y3580D01*
X5929Y3278D02*
X5940Y3283D01*
Y3268D02*
Y3384D01*
X5535Y3548D02*
Y3566D01*
X5516Y3674D02*
X5535D01*
X5933Y2646D02*
Y2762D01*
X1647Y1891D02*
Y1962D01*
X5408Y3656D02*
Y3674D01*
X5929Y3278D02*
X5940Y3268D01*
X6303Y2762D02*
X6314Y2752D01*
X1052Y3557D02*
Y3572D01*
X1010D02*
X1052D01*
X2053Y2911D02*
X2167D01*
X1174Y3915D02*
X1223D01*
X6303Y2646D02*
Y2762D01*
X6137Y2646D02*
Y2762D01*
X2062Y2918D02*
X2066Y2911D01*
X5965Y2320D02*
X5978Y2307D01*
X5719Y3904D02*
Y3919D01*
X5844Y3963D02*
Y4067D01*
X6055Y2231D02*
X6068Y2244D01*
X5817Y3936D02*
X5844Y3963D01*
X2054Y2912D02*
X2062Y2918D01*
X5706Y4067D02*
X5733D01*
X5817D02*
X5844D01*
X5408Y3548D02*
X5426D01*
X5516Y3674D02*
X5525Y3682D01*
X5408Y3548D02*
Y3566D01*
X955Y855D02*
X1011D01*
X3805Y3949D02*
X3812Y3954D01*
X997Y855D02*
X1002Y862D01*
X6098Y2646D02*
Y2762D01*
X5408Y3674D02*
X5426D01*
X5516Y3548D02*
X5535D01*
X6098Y2747D02*
X6109Y2752D01*
X1002Y862D02*
X1011Y855D01*
X5720Y3482D02*
Y3533D01*
X5519Y3385D02*
X5523D01*
X1744Y1967D02*
Y2083D01*
X1733Y1977D02*
X1744Y1982D01*
X6106Y3268D02*
Y3384D01*
X5535Y3656D02*
Y3674D01*
X1733Y1977D02*
X1744Y1967D01*
X993Y3806D02*
X1045D01*
X1909Y1967D02*
Y2083D01*
X6303Y2747D02*
X6314Y2752D01*
X3805Y3922D02*
Y3963D01*
X3637Y3922D02*
Y3963D01*
X6098Y2762D02*
X6109Y2752D01*
X3789Y3922D02*
X3805D01*
X5525Y3682D02*
X5530Y3674D01*
X3805Y3963D02*
X3812Y3954D01*
X3637Y3922D02*
X3651D01*
X5972Y3482D02*
Y3533D01*
X5947Y3482D02*
Y3533D01*
X5695Y3482D02*
Y3533D01*
X5519Y3511D02*
X5523D01*
X1190Y3711D02*
X1202D01*
X2572Y2729D02*
Y2765D01*
X2088D02*
X2124D01*
X2088D02*
Y2729D01*
X5821Y3482D02*
Y3533D01*
X5594Y3482D02*
Y3533D01*
X5846Y3482D02*
Y3533D01*
X2536Y2765D02*
X2572D01*
X1172Y3903D02*
X1176Y3907D01*
X1167Y3900D02*
X1171Y3903D01*
X1395Y3871D02*
Y3923D01*
X964Y3933D02*
Y4000D01*
X1734Y1891D02*
Y1962D01*
X964Y4000D02*
X1068D01*
X964Y3933D02*
X1068D01*
X2053Y2820D02*
X2167D01*
X1294Y3871D02*
Y3923D01*
X1640Y1900D02*
X1647Y1891D01*
X1640Y1900D02*
X1647Y1905D01*
X1190Y3763D02*
X1202D01*
X993Y3907D02*
X1045D01*
X1176D02*
X1181Y3900D01*
X1167D02*
X1230D01*
X1167Y3777D02*
X1230D01*
G54D12*
X2544Y1315D02*
Y1347D01*
Y894D02*
Y1232D01*
X2831Y1192D02*
X2841Y1185D01*
X2251Y1315D02*
Y1347D01*
X4012Y1218D02*
X4022Y1232D01*
X4315Y1315D02*
Y1347D01*
X2228Y1200D02*
X2251Y1232D01*
Y800D02*
Y811D01*
X2228Y1200D02*
X2251Y1185D01*
X4613Y1315D02*
Y1347D01*
X1956Y1034D02*
Y1051D01*
X1586D02*
X1603D01*
X1956Y905D02*
Y973D01*
X2251Y894D02*
Y1232D01*
X1939Y1051D02*
X1956D01*
X4602Y1218D02*
X4613Y1232D01*
X3134Y1315D02*
Y1347D01*
X2841Y800D02*
Y811D01*
X4022Y800D02*
Y811D01*
X3409Y1200D02*
X3432Y1185D01*
X4022Y1347D02*
X4315D01*
X3725Y1315D02*
Y1347D01*
X4012Y1192D02*
X4022Y1185D01*
X4022Y1315D02*
Y1347D01*
Y894D02*
Y1232D01*
X1586Y1034D02*
Y1051D01*
X4906Y894D02*
Y1232D01*
Y800D02*
Y811D01*
X4613Y1347D02*
X4906D01*
X4613Y894D02*
Y1232D01*
X4315Y800D02*
Y811D01*
Y894D02*
Y1232D01*
X4906Y1315D02*
Y1347D01*
X800Y3271D02*
X892D01*
X4613Y800D02*
Y811D01*
X1371Y2614D02*
X1399D01*
X2544Y800D02*
Y811D01*
X4602Y1192D02*
X4613Y1185D01*
X1586Y905D02*
Y973D01*
X2841Y894D02*
Y1232D01*
X3134Y800D02*
Y811D01*
X2831Y1218D02*
X2841Y1232D01*
X2251Y1347D02*
X2544D01*
X3134Y894D02*
Y1232D01*
X2841Y1347D02*
X3134D01*
X2841Y1315D02*
Y1347D01*
X3432D02*
X3725D01*
X1371Y3271D02*
X1399D01*
Y3233D02*
Y3271D01*
X1016D02*
X1246D01*
X1399Y2614D02*
Y2833D01*
X1016Y2614D02*
X1246D01*
X800D02*
X892D01*
X3846Y3041D02*
X3925D01*
Y3120*
X3725Y894D02*
Y1232D01*
Y800D02*
Y811D01*
X3409Y1200D02*
X3432Y1232D01*
Y1315D02*
Y1347D01*
Y800D02*
Y811D01*
Y894D02*
Y1232D01*
X3417Y2828D02*
Y2887D01*
X3476*
X5189Y2715D02*
Y2747D01*
X5158D02*
X5189D01*
G54D13*
X3784Y1440D02*
Y1444D01*
X3807Y1546D02*
X3811D01*
X3944Y1516D02*
X3948D01*
X1268Y3624D02*
Y3627D01*
X1651Y1540D02*
X1655D01*
X1651Y1500D02*
X1655D01*
X1625Y1657D02*
Y1661D01*
X1656Y1657D02*
Y1661D01*
X1682Y1657D02*
Y1661D01*
X3944Y1546D02*
X3948D01*
X3758Y1440D02*
Y1444D01*
X3944Y1542D02*
X3948D01*
X3944Y1571D02*
X3948D01*
X3807D02*
X3811D01*
X1650Y1657D02*
Y1661D01*
X3807Y1516D02*
X3811D01*
X3807Y1542D02*
X3811D01*
X2113Y2252D02*
X2116Y2249D01*
X1635Y1829D02*
X1639Y1829D01*
X2554Y2175D02*
X2557Y2172D01*
X2572Y2193D02*
X2575Y2191D01*
X2509Y2131D02*
X2512Y2128D01*
X5932Y3133D02*
Y3137D01*
X1159Y1878D02*
X1163D01*
X5957Y3133D02*
Y3137D01*
X1159Y2376D02*
X1163D01*
X1159Y2095D02*
X1163D01*
X1635Y1804D02*
X1639D01*
X1159Y2351D02*
X1163D01*
X4394Y1531D02*
Y1535D01*
X1634Y1944D02*
Y1948D01*
X1159Y1662D02*
X1163D01*
X2966Y3404D02*
X2970D01*
X2851Y3401D02*
Y3405D01*
X5712Y3837D02*
X5720D01*
X5768*
X5685D02*
X5712D01*
X5671D02*
X5685D01*
X1516Y2023D02*
Y2027D01*
X1674Y2015D02*
Y2019D01*
X5664Y3837D02*
X5671D01*
X1491Y2023D02*
Y2027D01*
X1243Y3624D02*
Y3627D01*
X2592Y3394D02*
X2596D01*
X2592Y3426D02*
X2596D01*
X2592Y3420D02*
X2596D01*
X1575Y2425D02*
Y2429D01*
X1550Y2425D02*
Y2429D01*
X2763Y1506D02*
X2767D01*
X2763Y1532D02*
X2767D01*
X6152Y1385D02*
Y1389D01*
X6062Y1708D02*
Y1712D01*
X6250Y1406D02*
X6253D01*
X2435Y3412D02*
X2438D01*
X6030Y1712D02*
Y1708D01*
X6250Y1437D02*
X6253D01*
X5967Y1712D02*
Y1708D01*
X6150D02*
Y1712D01*
X2435Y3386D02*
X2438D01*
X2825Y3401D02*
Y3405D01*
X2581Y1440D02*
Y1444D01*
X1435Y1489D02*
X1438D01*
X6250Y1593D02*
X6253D01*
X1435Y1514D02*
X1438D01*
X2625Y1562D02*
X2629D01*
X2607Y1440D02*
Y1444D01*
X6245Y1708D02*
Y1712D01*
X4533Y1562D02*
X4537D01*
X4533Y1530D02*
X4537D01*
X2625Y1506D02*
X2629D01*
X2625Y1536D02*
X2629D01*
X2763Y1562D02*
X2767D01*
X4533Y1536D02*
X4537D01*
X2625Y1532D02*
X2629D01*
X6199Y2303D02*
Y2311D01*
X6250Y1528D02*
X6253D01*
X2763Y1536D02*
X2767D01*
X6250Y1562D02*
X6253D01*
X1280Y3773D02*
Y3777D01*
X4404Y1531D02*
Y1535D01*
X1518Y2425D02*
Y2429D01*
X4382Y1440D02*
Y1444D01*
X4369Y1531D02*
Y1535D01*
X4533Y1504D02*
X4537D01*
X4430Y1531D02*
Y1535D01*
X4357Y1440D02*
Y1444D01*
X2435Y3443D02*
X2438D01*
X6025Y1646D02*
X6029D01*
X2435Y3418D02*
X2438D01*
X2592Y3451D02*
X2596D01*
X6175Y1672D02*
X6179D01*
X6175Y1646D02*
X6179D01*
X6100D02*
X6104D01*
X1111Y3643D02*
Y3647D01*
X2060Y2289D02*
Y2293D01*
X2315Y4129D02*
Y4133D01*
X4246Y3394D02*
X4250D01*
X4246Y3426D02*
X4250D01*
X4246Y3420D02*
X4250D01*
X3117Y4129D02*
Y4133D01*
X3780Y3868D02*
Y3872D01*
X3142Y4129D02*
Y4133D01*
X2290Y4129D02*
Y4133D01*
X1159Y1445D02*
X1163D01*
X4564Y3280D02*
X4568D01*
X4564Y3306D02*
X4568D01*
X4564Y3319D02*
X4568D01*
X4564Y3345D02*
X4568D01*
X4564Y3241D02*
X4568D01*
X4599Y3590D02*
Y3594D01*
X4564Y3266D02*
X4568D01*
X4573Y3590D02*
Y3594D01*
X4202Y3319D02*
X4206D01*
X4202Y3345D02*
X4206D01*
X4202Y3241D02*
X4206D01*
X4202Y3266D02*
X4206D01*
X4202Y3280D02*
X4206D01*
X4202Y3306D02*
X4206D01*
X3717Y3868D02*
Y3872D01*
X3660Y3868D02*
Y3872D01*
X3749Y3868D02*
Y3872D01*
X3691Y3868D02*
Y3872D01*
X3686Y3868D02*
Y3872D01*
X3597Y3868D02*
Y3872D01*
X3623Y3868D02*
Y3872D01*
X3628Y3868D02*
Y3872D01*
X3654Y3868D02*
Y3872D01*
X3817Y3868D02*
Y3872D01*
X3843Y3868D02*
Y3872D01*
X4151Y3668D02*
X4155D01*
X4151Y3642D02*
X4155D01*
X3786Y3868D02*
Y3872D01*
X3754Y3868D02*
Y3872D01*
X5932Y925D02*
Y929D01*
X6237Y968D02*
Y972D01*
X5957Y925D02*
Y929D01*
X3936Y2185D02*
Y2188D01*
X3961Y2185D02*
Y2188D01*
X3812Y3868D02*
Y3872D01*
X5227Y1940D02*
Y1944D01*
X3723Y3868D02*
Y3872D01*
X5252Y1944D02*
Y1940D01*
X5179Y2014D02*
X5183D01*
X5221Y1944D02*
Y1940D01*
X6036Y925D02*
Y929D01*
X2512Y2133D02*
X2515Y2131D01*
X3402Y2559D02*
Y2562D01*
X2533Y2154D02*
X2536Y2152D01*
X3376Y2559D02*
Y2562D01*
X6010Y925D02*
Y929D01*
X6211Y968D02*
Y972D01*
X6304Y3133D02*
Y3137D01*
X6518Y2748D02*
Y2751D01*
X6493Y2748D02*
Y2751D01*
X5597Y3982D02*
Y3986D01*
X5635Y3949D02*
X5639D01*
X5453Y3970D02*
Y3966D01*
X5635Y3975D02*
X5639D01*
X3218Y2937D02*
X3222D01*
X3312Y2569D02*
X3316D01*
X3312Y2544D02*
X3316D01*
X3218Y2963D02*
X3222D01*
X5998Y2827D02*
X6001D01*
X6320Y2900D02*
X6324D01*
X5900Y3133D02*
Y3137D01*
X6234Y2802D02*
X6238D01*
X6320Y2963D02*
X6324D01*
X6320Y2937D02*
X6324D01*
X6345Y3114D02*
Y3118D01*
X6320Y3026D02*
X6324D01*
X6320Y3000D02*
X6324D01*
X5926Y3133D02*
Y3137D01*
X6234Y2833D02*
X6238D01*
X2020Y2868D02*
Y2872D01*
X5217Y917D02*
Y921D01*
X5997Y1527D02*
Y1531D01*
X2013Y2721D02*
X2017D01*
X2013Y2747D02*
X2017D01*
X6182Y1708D02*
Y1712D01*
X5201Y1503D02*
Y1507D01*
X5176Y1503D02*
Y1507D01*
X5501Y1361D02*
X5505D01*
X5501Y1335D02*
X5505D01*
X5152Y917D02*
Y921D01*
X5211Y1503D02*
Y1507D01*
X5854Y1430D02*
X5858D01*
X5854Y1455D02*
X5858D01*
X5237Y1503D02*
Y1507D01*
X5178Y917D02*
Y921D01*
X6371Y3114D02*
Y3118D01*
X5998Y2859D02*
X6001D01*
X5998Y2833D02*
X6001D01*
X6310Y3133D02*
Y3137D01*
X6335Y3133D02*
Y3137D01*
X5191Y917D02*
Y921D01*
X946Y900D02*
X950D01*
X5525Y3477D02*
X5573D01*
X2048Y2948D02*
Y2952D01*
X5931Y1375D02*
X5935D01*
X2363Y2852D02*
Y2856D01*
X2237Y2852D02*
Y2856D01*
X2394Y2852D02*
Y2856D01*
X2331Y2852D02*
Y2856D01*
X2337Y2852D02*
Y2856D01*
X2306Y2852D02*
Y2856D01*
X5490Y3477D02*
X5517D01*
X5476D02*
X5490D01*
X5469D02*
X5476D01*
X5517D02*
X5525D01*
X2369Y2852D02*
Y2856D01*
X5997Y1437D02*
Y1433D01*
X2022Y2948D02*
Y2952D01*
X2211Y2852D02*
Y2856D01*
X5931Y1652D02*
X5935D01*
X1995Y2868D02*
Y2872D01*
G54D14*
X850Y3334D02*
X925D01*
Y3362*
X952Y1142D02*
Y1219D01*
Y1376D02*
Y1300D01*
X846D02*
X952D01*
X951Y3753D02*
X967Y3761D01*
Y3746D02*
Y3761D01*
X951Y3753D02*
X967Y3746D01*
X850Y3799D02*
X925D01*
Y3771D02*
Y3799D01*
X5302Y826D02*
X5302Y798D01*
X5300Y1050D02*
X5301Y976D01*
X5370Y1174D02*
X5771D01*
X5917Y800D02*
X6023D01*
X5917Y876D02*
X6023D01*
X5838Y798D02*
Y826D01*
Y976D02*
Y1049D01*
X5917Y800D02*
Y876D01*
X846Y1219D02*
X952D01*
X846Y1376D02*
X952D01*
X846Y1142D02*
X952D01*
X6067Y821D02*
Y927D01*
X6144Y821D02*
Y927D01*
X6067D02*
X6144D01*
X6186D02*
X6262D01*
X6186D02*
Y821D01*
X6262D02*
Y927D01*
X5406Y1408D02*
Y1414D01*
X5102Y800D02*
X5208D01*
X5102D02*
Y876D01*
X5208*
G54D15*
X3070Y2799D02*
X3129D01*
X3070Y2706D02*
Y2799D01*
X3305Y2677D02*
Y2724D01*
X3285Y2580D02*
X3295Y2590D01*
X3129Y2661D02*
X3198D01*
X3129D02*
Y2799D01*
X3198Y2574D02*
Y2750D01*
X3279*
X3285Y2744D02*
X3305Y2724D01*
X3279Y2750D02*
X3283Y2745D01*
X1803Y1482D02*
X2021D01*
X1803D02*
Y1598D01*
X2021Y1482D02*
Y1598D01*
X3295Y2590D02*
X3305Y2600D01*
Y2645*
X3009Y2627D02*
Y2704D01*
X3011Y2706D02*
X3070D01*
X3198Y2574D02*
X3275D01*
X3070Y2525D02*
X3129D01*
Y2661*
X3070Y2525D02*
Y2627D01*
X3009D02*
X3070D01*
X3432Y2181D02*
Y2212D01*
X3448*
X3453Y2207*
Y2196*
X3448Y2191*
X3432*
X3442D02*
X3453Y2181D01*
X3463D02*
X3474D01*
X3469*
Y2212*
X3463Y2207*
X3511Y2212D02*
X3500Y2207D01*
X3490Y2196*
Y2186*
X3495Y2181*
X3505*
X3511Y2186*
Y2191*
X3505Y2196*
X3490*
X3521Y2207D02*
X3526Y2212D01*
X3537*
X3542Y2207*
Y2186*
X3537Y2181*
X3526*
X3521Y2186*
Y2207*
X2503Y3256D02*
X2472D01*
Y3272*
X2477Y3277*
X2488*
X2493Y3272*
Y3256*
Y3266D02*
X2503Y3277D01*
Y3308D02*
Y3287D01*
X2482Y3308*
X2477*
X2472Y3303*
Y3293*
X2477Y3287*
X2503Y3319D02*
Y3329D01*
Y3324*
X2472*
X2477Y3319*
X2503Y3366D02*
Y3345D01*
X2482Y3366*
X2477*
X2472Y3361*
Y3350*
X2477Y3345*
X2284Y3429D02*
Y3460D01*
X2300*
X2305Y3455*
Y3444*
X2300Y3439*
X2284*
X2295D02*
X2305Y3429D01*
X2337D02*
X2316D01*
X2337Y3450*
Y3455*
X2332Y3460*
X2321*
X2316Y3455*
X2347Y3429D02*
X2358D01*
X2353*
Y3460*
X2347Y3455*
X2374Y3429D02*
X2384D01*
X2379*
Y3460*
X2374Y3455*
X2274Y3375D02*
Y3407D01*
X2290*
X2295Y3402*
Y3391*
X2290Y3386*
X2274*
X2284D02*
X2295Y3375D01*
X2326D02*
X2305D01*
X2326Y3396*
Y3402*
X2321Y3407*
X2311*
X2305Y3402*
X2337Y3375D02*
X2347D01*
X2342*
Y3407*
X2337Y3402*
X2363D02*
X2368Y3407D01*
X2379*
X2384Y3402*
Y3381*
X2379Y3375*
X2368*
X2363Y3381*
Y3402*
X2364Y3523D02*
X2343D01*
X2338Y3518*
Y3507*
X2343Y3502*
X2364*
X2370Y3507*
Y3518*
X2359Y3513D02*
X2370Y3523D01*
Y3518D02*
X2364Y3523D01*
X2370Y3534D02*
Y3544D01*
Y3539*
X2338*
X2343Y3534*
X5656Y2261D02*
X5646D01*
X5651*
Y2235*
X5646Y2230*
X5641*
X5635Y2235*
X5667Y2230D02*
X5677D01*
X5672*
Y2261*
X5667Y2256*
X5714Y2261D02*
X5704Y2256D01*
X5693Y2246*
Y2235*
X5698Y2230*
X5709*
X5714Y2235*
Y2240*
X5709Y2246*
X5693*
X941Y2508D02*
X936Y2513D01*
X925*
X920Y2508*
Y2503*
X925Y2498*
X936*
X941Y2492*
Y2487*
X936Y2482*
X925*
X920Y2487*
X952Y2513D02*
Y2482D01*
X962Y2492*
X973Y2482*
Y2513*
X983D02*
X1004D01*
Y2508*
X983Y2487*
Y2482*
X1580Y2501D02*
X1549D01*
Y2516*
X1554Y2522*
X1564*
X1570Y2516*
Y2501*
Y2511D02*
X1580Y2522D01*
Y2553D02*
Y2532D01*
X1559Y2553*
X1554*
X1549Y2548*
Y2537*
X1554Y2532*
Y2564D02*
X1549Y2569D01*
Y2579*
X1554Y2585*
X1575*
X1580Y2579*
Y2569*
X1575Y2564*
X1554*
X1549Y2616D02*
X1554Y2606D01*
X1564Y2595*
X1575*
X1580Y2600*
Y2611*
X1575Y2616*
X1570*
X1564Y2611*
Y2595*
X1531Y2501D02*
X1500D01*
Y2516*
X1505Y2522*
X1515*
X1521Y2516*
Y2501*
Y2511D02*
X1531Y2522D01*
Y2553D02*
Y2532D01*
X1510Y2553*
X1505*
X1500Y2548*
Y2537*
X1505Y2532*
Y2564D02*
X1500Y2569D01*
Y2579*
X1505Y2585*
X1526*
X1531Y2579*
Y2569*
X1526Y2564*
X1505*
X1500Y2616D02*
Y2595D01*
X1515*
X1510Y2606*
Y2611*
X1515Y2616*
X1526*
X1531Y2611*
Y2600*
X1526Y2595*
X1110Y2490D02*
X1105Y2496D01*
X1095*
X1089Y2490*
Y2469*
X1095Y2464*
X1105*
X1110Y2469*
X1121Y2490D02*
X1126Y2496D01*
X1136*
X1142Y2490*
Y2485*
X1136Y2480*
X1131*
X1136*
X1142Y2475*
Y2469*
X1136Y2464*
X1126*
X1121Y2469*
X1152Y2464D02*
X1163D01*
X1157*
Y2496*
X1152Y2490*
X1199Y2496D02*
X1178D01*
Y2480*
X1189Y2485*
X1194*
X1199Y2480*
Y2469*
X1194Y2464*
X1184*
X1178Y2469*
X1424Y1275D02*
Y1249D01*
X1429Y1244*
X1440*
X1445Y1249*
Y1275*
X1471Y1244D02*
Y1275D01*
X1456Y1259*
X1477*
X1487Y1270D02*
X1492Y1275D01*
X1503*
X1508Y1270*
Y1249*
X1503Y1244*
X1492*
X1487Y1249*
Y1270*
X6200Y1304D02*
X6169D01*
Y1320*
X6174Y1325*
X6185*
X6190Y1320*
Y1304*
Y1314D02*
X6200Y1325D01*
Y1356D02*
Y1335D01*
X6179Y1356*
X6174*
X6169Y1351*
Y1341*
X6174Y1335*
Y1367D02*
X6169Y1372D01*
Y1383*
X6174Y1388*
X6195*
X6200Y1383*
Y1372*
X6195Y1367*
X6174*
Y1398D02*
X6169Y1404D01*
Y1414*
X6174Y1419*
X6179*
X6185Y1414*
Y1409*
Y1414*
X6190Y1419*
X6195*
X6200Y1414*
Y1404*
X6195Y1398*
X6072Y1332D02*
X6066Y1326D01*
Y1316*
X6072Y1311*
X6093*
X6098Y1316*
Y1326*
X6093Y1332*
X6072Y1342D02*
X6066Y1347D01*
Y1358*
X6072Y1363*
X6077*
X6082Y1358*
Y1353*
Y1358*
X6087Y1363*
X6093*
X6098Y1358*
Y1347*
X6093Y1342*
X6098Y1374D02*
Y1384D01*
Y1379*
X6066*
X6072Y1374*
X6098Y1416D02*
X6066D01*
X6082Y1400*
Y1421*
X3025Y2642D02*
X3057Y2663D01*
X3025D02*
X3057Y2642D01*
Y2673D02*
Y2684D01*
Y2679*
X3025*
X3030Y2673*
X965Y3356D02*
X954D01*
X959*
Y3330*
X954Y3324*
X949*
X944Y3330*
X975Y3324D02*
X986D01*
X980*
Y3356*
X975Y3351*
X1001D02*
X1007Y3356D01*
X1017*
X1022Y3351*
Y3345*
X1017Y3340*
X1022Y3335*
Y3330*
X1017Y3324*
X1007*
X1001Y3330*
Y3335*
X1007Y3340*
X1001Y3345*
Y3351*
X1007Y3340D02*
X1017D01*
X3403Y3012D02*
Y3033D01*
Y3023*
X3435*
Y3044D02*
X3403D01*
Y3060*
X3408Y3065*
X3419*
X3424Y3060*
Y3044*
X3403Y3096D02*
Y3075D01*
X3419*
X3414Y3086*
Y3091*
X3419Y3096*
X3429*
X3435Y3091*
Y3081*
X3429Y3075*
Y3107D02*
X3435Y3112D01*
Y3123*
X3429Y3128*
X3408*
X3403Y3123*
Y3112*
X3408Y3107*
X3414*
X3419Y3112*
Y3128*
X3944Y2942D02*
X3965D01*
X3954*
Y2911*
X3975D02*
Y2942D01*
X3991*
X3996Y2937*
Y2927*
X3991Y2921*
X3975*
X4028Y2942D02*
X4007D01*
Y2927*
X4017Y2932*
X4022*
X4028Y2927*
Y2916*
X4022Y2911*
X4012*
X4007Y2916*
X4038Y2937D02*
X4043Y2942D01*
X4054*
X4059Y2937*
Y2932*
X4054Y2927*
X4059Y2921*
Y2916*
X4054Y2911*
X4043*
X4038Y2916*
Y2921*
X4043Y2927*
X4038Y2932*
Y2937*
X4043Y2927D02*
X4054D01*
X4150Y2171D02*
X4171D01*
X4161*
Y2139*
X4182D02*
Y2171D01*
X4198*
X4203Y2166*
Y2155*
X4198Y2150*
X4182*
X4234Y2171D02*
X4213D01*
Y2155*
X4224Y2160*
X4229*
X4234Y2155*
Y2145*
X4229Y2139*
X4219*
X4213Y2145*
X4245Y2171D02*
X4266D01*
Y2166*
X4245Y2145*
Y2139*
X1588Y2484D02*
X1603Y2499D01*
X1595Y2492*
X1618Y2469*
X1632Y2484D02*
X1610Y2506D01*
X1621Y2518*
X1629*
X1636Y2510*
Y2503*
X1625Y2492*
X1647Y2544D02*
X1632Y2529D01*
X1644Y2518*
X1647Y2529*
X1651Y2532*
X1658*
X1666Y2525*
Y2518*
X1658Y2510*
X1651*
X1670Y2566D02*
X1666Y2555D01*
Y2540*
X1673Y2532*
X1681*
X1688Y2540*
Y2547*
X1684Y2551*
X1677*
X1666Y2540*
X6432Y2252D02*
X6451D01*
X6441*
Y2223*
X6461D02*
Y2252D01*
X6476*
X6481Y2248*
Y2238*
X6476Y2233*
X6461*
X6510Y2252D02*
X6491D01*
Y2238*
X6500Y2243*
X6505*
X6510Y2238*
Y2228*
X6505Y2223*
X6496*
X6491Y2228*
X6540Y2252D02*
X6520D01*
Y2238*
X6530Y2243*
X6535*
X6540Y2238*
Y2228*
X6535Y2223*
X6525*
X6520Y2228*
X5559Y1887D02*
Y1908D01*
Y1897*
X5590*
Y1918D02*
X5559D01*
Y1934*
X5564Y1939*
X5574*
X5580Y1934*
Y1918*
X5590Y1965D02*
X5559D01*
X5574Y1950*
Y1971*
X5564Y1981D02*
X5559Y1986D01*
Y1997*
X5564Y2002*
X5569*
X5574Y1997*
Y1992*
Y1997*
X5580Y2002*
X5585*
X5590Y1997*
Y1986*
X5585Y1981*
X5440Y2118D02*
X5461D01*
X5450*
Y2086*
X5471D02*
Y2118D01*
X5487*
X5492Y2112*
Y2102*
X5487Y2097*
X5471*
X5519Y2086D02*
Y2118D01*
X5503Y2102*
X5524*
X5555Y2086D02*
X5534D01*
X5555Y2107*
Y2112*
X5550Y2118*
X5540*
X5534Y2112*
X1507Y1638D02*
X1522Y1623D01*
X1514Y1631*
X1492Y1609*
X1507Y1594D02*
X1529Y1616D01*
X1540Y1605*
Y1597*
X1533Y1590*
X1526*
X1514Y1601*
X1540Y1560D02*
X1563Y1583D01*
X1540*
X1555Y1568*
X1552Y1549D02*
X1559Y1542D01*
X1555Y1546*
X1577Y1568*
X1570*
X1582Y1369D02*
Y1390D01*
Y1380*
X1614*
Y1401D02*
X1582D01*
Y1416*
X1587Y1422*
X1598*
X1603Y1416*
Y1401*
X1614Y1448D02*
X1582D01*
X1598Y1432*
Y1453*
X1587Y1464D02*
X1582Y1469D01*
Y1479*
X1587Y1485*
X1608*
X1614Y1479*
Y1469*
X1608Y1464*
X1587*
X5365Y2564D02*
X5386D01*
X5376*
Y2533*
X5396D02*
Y2564D01*
X5412*
X5417Y2559*
Y2549*
X5412Y2543*
X5396*
X5428Y2559D02*
X5433Y2564D01*
X5444*
X5449Y2559*
Y2554*
X5444Y2549*
X5438*
X5444*
X5449Y2543*
Y2538*
X5444Y2533*
X5433*
X5428Y2538*
X5459D02*
X5465Y2533D01*
X5475*
X5480Y2538*
Y2559*
X5475Y2564*
X5465*
X5459Y2559*
Y2554*
X5465Y2549*
X5480*
X5367Y2352D02*
X5388D01*
X5377*
Y2320*
X5398D02*
Y2352D01*
X5414*
X5419Y2347*
Y2336*
X5414Y2331*
X5398*
X5430Y2347D02*
X5435Y2352D01*
X5446*
X5451Y2347*
Y2341*
X5446Y2336*
X5440*
X5446*
X5451Y2331*
Y2326*
X5446Y2320*
X5435*
X5430Y2326*
X5461Y2347D02*
X5467Y2352D01*
X5477*
X5482Y2347*
Y2341*
X5477Y2336*
X5482Y2331*
Y2326*
X5477Y2320*
X5467*
X5461Y2326*
Y2331*
X5467Y2336*
X5461Y2341*
Y2347*
X5467Y2336D02*
X5477D01*
X1401Y2448D02*
Y2469D01*
Y2458*
X1433*
Y2479D02*
X1401D01*
Y2495*
X1406Y2500*
X1417*
X1422Y2495*
Y2479*
X1406Y2511D02*
X1401Y2516D01*
Y2526*
X1406Y2531*
X1412*
X1417Y2526*
Y2521*
Y2526*
X1422Y2531*
X1427*
X1433Y2526*
Y2516*
X1427Y2511*
X1401Y2542D02*
Y2563D01*
X1406*
X1427Y2542*
X1433*
X1450Y2448D02*
Y2469D01*
Y2458*
X1482*
Y2479D02*
X1450D01*
Y2495*
X1456Y2500*
X1466*
X1471Y2495*
Y2479*
X1456Y2511D02*
X1450Y2516D01*
Y2526*
X1456Y2531*
X1461*
X1466Y2526*
Y2521*
Y2526*
X1471Y2531*
X1477*
X1482Y2526*
Y2516*
X1477Y2511*
X1450Y2563D02*
X1456Y2552D01*
X1466Y2542*
X1477*
X1482Y2547*
Y2558*
X1477Y2563*
X1471*
X1466Y2558*
Y2542*
X1266Y1994D02*
X1281Y2009D01*
X1274Y2002*
X1296Y1980*
X1311Y1994D02*
X1289Y2017D01*
X1300Y2028*
X1307*
X1315Y2020*
Y2013*
X1303Y2002*
X1315Y2035D02*
Y2043D01*
X1322Y2050*
X1329*
X1333Y2046*
Y2039*
X1329Y2035*
X1333Y2039*
X1341*
X1344Y2035*
Y2028*
X1337Y2020*
X1329*
X1348Y2076D02*
X1333Y2061D01*
X1344Y2050*
X1348Y2061*
X1352Y2065*
X1359*
X1366Y2058*
Y2050*
X1359Y2043*
X1352*
X1316Y1961D02*
X1330Y1976D01*
X1323Y1968*
X1345Y1946*
X1360Y1961D02*
X1338Y1983D01*
X1349Y1994*
X1356*
X1364Y1987*
Y1980*
X1353Y1968*
X1364Y2002D02*
Y2009D01*
X1371Y2017*
X1379*
X1382Y2013*
Y2006*
X1379Y2002*
X1382Y2006*
X1390*
X1393Y2002*
Y1994*
X1386Y1987*
X1379*
X1416Y2017D02*
X1393Y2039D01*
Y2017*
X1408Y2032*
X1375Y1945D02*
X1389Y1960D01*
X1382Y1953*
X1404Y1930*
X1419Y1945D02*
X1397Y1968D01*
X1408Y1979*
X1415*
X1423Y1971*
Y1964*
X1412Y1953*
X1423Y1986D02*
Y1993D01*
X1430Y2001*
X1438*
X1441Y1997*
Y1990*
X1438Y1986*
X1441Y1990*
X1449*
X1452Y1986*
Y1979*
X1445Y1971*
X1438*
X1445Y2008D02*
Y2016D01*
X1452Y2023*
X1460*
X1464Y2019*
Y2012*
X1460Y2008*
X1464Y2012*
X1471*
X1475Y2008*
Y2001*
X1467Y1993*
X1460*
X4001Y3263D02*
X4022D01*
X4011*
Y3232*
X4032D02*
Y3263D01*
X4048*
X4053Y3258*
Y3248*
X4048Y3242*
X4032*
X4064Y3258D02*
X4069Y3263D01*
X4080*
X4085Y3258*
Y3253*
X4080Y3248*
X4074*
X4080*
X4085Y3242*
Y3237*
X4080Y3232*
X4069*
X4064Y3237*
X4116Y3232D02*
X4095D01*
X4116Y3253*
Y3258*
X4111Y3263*
X4101*
X4095Y3258*
X4011Y3312D02*
X4032D01*
X4022*
Y3281*
X4043D02*
Y3312D01*
X4059*
X4064Y3307*
Y3297*
X4059Y3292*
X4043*
X4074Y3307D02*
X4080Y3312D01*
X4090*
X4095Y3307*
Y3302*
X4090Y3297*
X4085*
X4090*
X4095Y3292*
Y3286*
X4090Y3281*
X4080*
X4074Y3286*
X4106Y3281D02*
X4116D01*
X4111*
Y3312*
X4106Y3307*
X4001Y3362D02*
X4022D01*
X4011*
Y3330*
X4032D02*
Y3362D01*
X4048*
X4053Y3356*
Y3346*
X4048Y3341*
X4032*
X4064Y3356D02*
X4069Y3362D01*
X4080*
X4085Y3356*
Y3351*
X4080Y3346*
X4074*
X4080*
X4085Y3341*
Y3335*
X4080Y3330*
X4069*
X4064Y3335*
X4095Y3356D02*
X4101Y3362D01*
X4111*
X4116Y3356*
Y3335*
X4111Y3330*
X4101*
X4095Y3335*
Y3356*
X5594Y2755D02*
Y2776D01*
Y2765*
X5625*
Y2786D02*
X5594D01*
Y2802*
X5599Y2807*
X5610*
X5615Y2802*
Y2786*
X5625Y2839D02*
Y2818D01*
X5604Y2839*
X5599*
X5594Y2833*
Y2823*
X5599Y2818*
X5594Y2870D02*
Y2849D01*
X5610*
X5604Y2860*
Y2865*
X5610Y2870*
X5620*
X5625Y2865*
Y2854*
X5620Y2849*
X3379Y2684D02*
Y2705D01*
Y2694*
X3411*
Y2715D02*
X3379D01*
Y2731*
X3385Y2736*
X3395*
X3400Y2731*
Y2715*
X3411Y2768D02*
Y2747D01*
X3390Y2768*
X3385*
X3379Y2763*
Y2752*
X3385Y2747*
X3411Y2794D02*
X3379D01*
X3395Y2778*
Y2799*
X4028Y3716D02*
X4049D01*
X4039*
Y3685*
X4060D02*
Y3716D01*
X4076*
X4081Y3711*
Y3700*
X4076Y3695*
X4060*
X4112Y3685D02*
X4091D01*
X4112Y3706*
Y3711*
X4107Y3716*
X4097*
X4091Y3711*
X4123D02*
X4128Y3716D01*
X4139*
X4144Y3711*
Y3706*
X4139Y3700*
X4133*
X4139*
X4144Y3695*
Y3690*
X4139Y3685*
X4128*
X4123Y3690*
X4981Y2801D02*
X5002D01*
X4992*
Y2769*
X5013D02*
Y2801D01*
X5028*
X5034Y2795*
Y2785*
X5028Y2780*
X5013*
X5065Y2769D02*
X5044D01*
X5065Y2790*
Y2795*
X5060Y2801*
X5049*
X5044Y2795*
X5097Y2769D02*
X5076D01*
X5097Y2790*
Y2795*
X5091Y2801*
X5081*
X5076Y2795*
X4141Y2618D02*
Y2639D01*
Y2629*
X4173*
Y2650D02*
X4141D01*
Y2666*
X4146Y2671*
X4157*
X4162Y2666*
Y2650*
X4173Y2702D02*
Y2681D01*
X4152Y2702*
X4146*
X4141Y2697*
Y2687*
X4146Y2681*
X4173Y2713D02*
Y2723D01*
Y2718*
X4141*
X4146Y2713*
X4171Y2403D02*
Y2424D01*
Y2414*
X4202*
Y2435D02*
X4171D01*
Y2450*
X4176Y2456*
X4187*
X4192Y2450*
Y2435*
X4202Y2466D02*
Y2477D01*
Y2471*
X4171*
X4176Y2466*
X4197Y2492D02*
X4202Y2498D01*
Y2508*
X4197Y2513*
X4176*
X4171Y2508*
Y2498*
X4176Y2492*
X4181*
X4187Y2498*
Y2513*
X4101Y2257D02*
X4122D01*
X4112*
Y2226*
X4133D02*
Y2257D01*
X4148*
X4154Y2252*
Y2242*
X4148Y2236*
X4133*
X4164Y2226D02*
X4175D01*
X4169*
Y2257*
X4164Y2252*
X4190D02*
X4196Y2257D01*
X4206*
X4211Y2252*
Y2247*
X4206Y2242*
X4211Y2236*
Y2231*
X4206Y2226*
X4196*
X4190Y2231*
Y2236*
X4196Y2242*
X4190Y2247*
Y2252*
X4196Y2242D02*
X4206D01*
X6210Y1073D02*
X6225Y1088D01*
X6217Y1080*
X6240Y1058*
X6254Y1073D02*
X6232Y1095D01*
X6243Y1106*
X6251*
X6258Y1099*
Y1091*
X6247Y1080*
X6277Y1095D02*
X6284Y1102D01*
X6280Y1099*
X6258Y1121*
Y1114*
X6273Y1136D02*
X6288Y1151D01*
X6292Y1147*
Y1117*
X6295Y1114*
X6110Y1053D02*
X6124Y1068D01*
X6117Y1060*
X6139Y1038*
X6154Y1053D02*
X6132Y1075D01*
X6143Y1086*
X6150*
X6158Y1079*
Y1072*
X6147Y1060*
X6176Y1075D02*
X6184Y1083D01*
X6180Y1079*
X6158Y1101*
Y1094*
X6187Y1131D02*
X6184Y1120D01*
Y1105*
X6191Y1098*
X6199*
X6206Y1105*
Y1112*
X6202Y1116*
X6195*
X6184Y1105*
X6351Y2249D02*
X6366Y2264D01*
X6358Y2257*
X6381Y2234*
X6396Y2249D02*
X6373Y2271D01*
X6384Y2283*
X6392*
X6399Y2275*
Y2268*
X6388Y2257*
X6418Y2271D02*
X6425Y2279D01*
X6421Y2275*
X6399Y2297*
Y2290*
X6447Y2301D02*
X6425Y2323D01*
Y2301*
X6440Y2316*
X6109Y2405D02*
X6127D01*
X6118*
Y2377*
X6136D02*
Y2405D01*
X6150*
X6155Y2400*
Y2391*
X6150Y2387*
X6136*
X6164Y2377D02*
X6173D01*
X6168*
Y2405*
X6164Y2400*
X6187D02*
X6191Y2405D01*
X6201*
X6205Y2400*
Y2396*
X6201Y2391*
X6196*
X6201*
X6205Y2387*
Y2382*
X6201Y2377*
X6191*
X6187Y2382*
X1818Y2153D02*
X1832Y2168D01*
X1825Y2160*
X1847Y2138*
X1862Y2153D02*
X1840Y2175D01*
X1851Y2186*
X1858*
X1866Y2179*
Y2171*
X1855Y2160*
X1884Y2175D02*
X1892Y2182D01*
X1888Y2179*
X1866Y2201*
Y2194*
X1918Y2208D02*
X1903Y2194D01*
Y2223*
X1899Y2227*
X1892*
X1884Y2220*
Y2212*
X4150Y2122D02*
X4171D01*
X4161*
Y2090*
X4182D02*
Y2122D01*
X4198*
X4203Y2116*
Y2106*
X4198Y2101*
X4182*
X4213Y2090D02*
X4224D01*
X4219*
Y2122*
X4213Y2116*
X4240Y2090D02*
X4250D01*
X4245*
Y2122*
X4240Y2116*
X5374Y3372D02*
Y3393D01*
Y3382*
X5405*
Y3403D02*
X5374D01*
Y3419*
X5379Y3424*
X5389*
X5395Y3419*
Y3403*
X5405Y3435D02*
Y3445D01*
Y3440*
X5374*
X5379Y3435*
Y3461D02*
X5374Y3466D01*
Y3477*
X5379Y3482*
X5400*
X5405Y3477*
Y3466*
X5400Y3461*
X5379*
X5592Y3278D02*
Y3299D01*
Y3289*
X5624*
Y3310D02*
X5592D01*
Y3326*
X5597Y3331*
X5608*
X5613Y3326*
Y3310*
X5618Y3341D02*
X5624Y3347D01*
Y3357*
X5618Y3362*
X5597*
X5592Y3357*
Y3347*
X5597Y3341*
X5603*
X5608Y3347*
Y3362*
X4101Y2302D02*
X4122D01*
X4112*
Y2270*
X4133D02*
Y2302D01*
X4148*
X4154Y2297*
Y2286*
X4148Y2281*
X4133*
X4164Y2297D02*
X4169Y2302D01*
X4180*
X4185Y2297*
Y2291*
X4180Y2286*
X4185Y2281*
Y2276*
X4180Y2270*
X4169*
X4164Y2276*
Y2281*
X4169Y2286*
X4164Y2291*
Y2297*
X4169Y2286D02*
X4180D01*
X5007Y1749D02*
Y1770D01*
Y1759*
X5039*
Y1780D02*
X5007D01*
Y1796*
X5013Y1801*
X5023*
X5028Y1796*
Y1780*
X5007Y1812D02*
Y1833D01*
X5013*
X5034Y1812*
X5039*
X1552Y1885D02*
X1573D01*
X1563*
Y1854*
X1583D02*
Y1885D01*
X1599*
X1604Y1880*
Y1870*
X1599Y1864*
X1583*
X1636Y1885D02*
X1625Y1880D01*
X1615Y1870*
Y1859*
X1620Y1854*
X1631*
X1636Y1859*
Y1864*
X1631Y1870*
X1615*
X6507Y2361D02*
Y2382D01*
Y2372*
X6539*
Y2393D02*
X6507D01*
Y2408*
X6513Y2414*
X6523*
X6528Y2408*
Y2393*
X6507Y2445D02*
Y2424D01*
X6523*
X6518Y2435*
Y2440*
X6523Y2445*
X6534*
X6539Y2440*
Y2429*
X6534Y2424*
X5521Y3801D02*
X5542D01*
X5531*
Y3769*
X5552D02*
Y3801D01*
X5568*
X5573Y3795*
Y3785*
X5568Y3780*
X5552*
X5599Y3769D02*
Y3801D01*
X5583Y3785*
X5604*
X6236Y3793D02*
Y3772D01*
Y3783*
X6204*
Y3762D02*
X6236D01*
Y3746*
X6230Y3741*
X6220*
X6215Y3746*
Y3762*
X6230Y3730D02*
X6236Y3725D01*
Y3715*
X6230Y3709*
X6225*
X6220Y3715*
Y3720*
Y3715*
X6215Y3709*
X6209*
X6204Y3715*
Y3725*
X6209Y3730*
X5292Y4001D02*
X5313D01*
X5303*
Y3970*
X5324D02*
Y4001D01*
X5339*
X5345Y3996*
Y3986*
X5339Y3980*
X5324*
X5376Y3970D02*
X5355D01*
X5376Y3991*
Y3996*
X5371Y4001*
X5360*
X5355Y3996*
X5736Y2651D02*
X5757D01*
X5747*
Y2620*
X5768D02*
Y2651D01*
X5784*
X5789Y2646*
Y2635*
X5784Y2630*
X5768*
X5799Y2620D02*
X5810D01*
X5805*
Y2651*
X5799Y2646*
X1750Y984D02*
X1745Y990D01*
X1734*
X1729Y984*
Y979*
X1734Y974*
X1745*
X1750Y969*
Y963*
X1745Y958*
X1734*
X1729Y963*
X1761Y990D02*
Y958D01*
X1771Y969*
X1782Y958*
Y990*
X1813D02*
X1803Y984D01*
X1792Y974*
Y963*
X1797Y958*
X1808*
X1813Y963*
Y969*
X1808Y974*
X1792*
X941Y2252D02*
X936Y2257D01*
X925*
X920Y2252*
Y2247*
X925Y2242*
X936*
X941Y2236*
Y2231*
X936Y2226*
X925*
X920Y2231*
X952Y2257D02*
Y2226D01*
X962Y2236*
X973Y2226*
Y2257*
X1004D02*
X983D01*
Y2242*
X994Y2247*
X999*
X1004Y2242*
Y2231*
X999Y2226*
X988*
X983Y2231*
X941Y2036D02*
X936Y2041D01*
X925*
X920Y2036*
Y2030*
X925Y2025*
X936*
X941Y2020*
Y2015*
X936Y2009*
X925*
X920Y2015*
X952Y2041D02*
Y2009D01*
X962Y2020*
X973Y2009*
Y2041*
X999Y2009D02*
Y2041D01*
X983Y2025*
X1004*
X941Y1819D02*
X936Y1824D01*
X925*
X920Y1819*
Y1814*
X925Y1809*
X936*
X941Y1803*
Y1798*
X936Y1793*
X925*
X920Y1798*
X952Y1824D02*
Y1793D01*
X962Y1803*
X973Y1793*
Y1824*
X983Y1819D02*
X988Y1824D01*
X999*
X1004Y1819*
Y1814*
X999Y1809*
X994*
X999*
X1004Y1803*
Y1798*
X999Y1793*
X988*
X983Y1798*
X941Y1603D02*
X936Y1608D01*
X925*
X920Y1603*
Y1597*
X925Y1592*
X936*
X941Y1587*
Y1582*
X936Y1576*
X925*
X920Y1582*
X952Y1608D02*
Y1576D01*
X962Y1587*
X973Y1576*
Y1608*
X1004Y1576D02*
X983D01*
X1004Y1597*
Y1603*
X999Y1608*
X988*
X983Y1603*
X1349Y1155D02*
X1344Y1150D01*
Y1139*
X1349Y1134*
X1354*
X1360Y1139*
Y1150*
X1365Y1155*
X1370*
X1375Y1150*
Y1139*
X1370Y1134*
X1344Y1166D02*
X1375D01*
X1365Y1176*
X1375Y1187*
X1344*
X1375Y1197D02*
Y1207D01*
Y1202*
X1344*
X1349Y1197*
X6306Y2320D02*
Y2352D01*
X6322*
X6327Y2347*
Y2336*
X6322Y2331*
X6306*
X6316D02*
X6327Y2320D01*
X6358Y2347D02*
X6353Y2352D01*
X6343*
X6337Y2347*
Y2341*
X6343Y2336*
X6353*
X6358Y2331*
Y2326*
X6353Y2320*
X6343*
X6337Y2326*
X6369Y2347D02*
X6374Y2352D01*
X6385*
X6390Y2347*
Y2341*
X6385Y2336*
X6379*
X6385*
X6390Y2331*
Y2326*
X6385Y2320*
X6374*
X6369Y2326*
X5479Y3334D02*
Y3366D01*
X5495*
X5500Y3360*
Y3350*
X5495Y3345*
X5479*
X5490D02*
X5500Y3334D01*
X5532Y3360D02*
X5526Y3366D01*
X5516*
X5511Y3360*
Y3355*
X5516Y3350*
X5526*
X5532Y3345*
Y3339*
X5526Y3334*
X5516*
X5511Y3339*
X5563Y3334D02*
X5542D01*
X5563Y3355*
Y3360*
X5558Y3366*
X5547*
X5542Y3360*
X5679Y3698D02*
Y3730D01*
X5695*
X5700Y3725*
Y3714*
X5695Y3709*
X5679*
X5690D02*
X5700Y3698D01*
X5732Y3725D02*
X5727Y3730D01*
X5716*
X5711Y3725*
Y3719*
X5716Y3714*
X5727*
X5732Y3709*
Y3704*
X5727Y3698*
X5716*
X5711Y3704*
X5742Y3698D02*
X5753D01*
X5748*
Y3730*
X5742Y3725*
X1387Y1529D02*
Y1561D01*
X1402*
X1408Y1555*
Y1545*
X1402Y1540*
X1387*
X1397D02*
X1408Y1529D01*
X1418D02*
X1429D01*
X1423*
Y1561*
X1418Y1555*
X1444D02*
X1450Y1561D01*
X1460*
X1465Y1555*
Y1550*
X1460Y1545*
X1465Y1540*
Y1534*
X1460Y1529*
X1450*
X1444Y1534*
Y1540*
X1450Y1545*
X1444Y1550*
Y1555*
X1450Y1545D02*
X1460D01*
X1476Y1529D02*
X1486D01*
X1481*
Y1561*
X1476Y1555*
X3909Y3717D02*
X3877D01*
Y3733*
X3883Y3738*
X3893*
X3898Y3733*
Y3717*
Y3727D02*
X3909Y3738D01*
Y3748D02*
Y3759D01*
Y3754*
X3877*
X3883Y3748*
Y3775D02*
X3877Y3780D01*
Y3790*
X3883Y3796*
X3888*
X3893Y3790*
X3898Y3796*
X3904*
X3909Y3790*
Y3780*
X3904Y3775*
X3898*
X3893Y3780*
X3888Y3775*
X3883*
X3893Y3780D02*
Y3790D01*
X3883Y3806D02*
X3877Y3811D01*
Y3822*
X3883Y3827*
X3904*
X3909Y3822*
Y3811*
X3904Y3806*
X3883*
X3860Y3717D02*
X3828D01*
Y3733*
X3833Y3738*
X3844*
X3849Y3733*
Y3717*
Y3727D02*
X3860Y3738D01*
Y3748D02*
Y3759D01*
Y3754*
X3828*
X3833Y3748*
X3828Y3775D02*
Y3796D01*
X3833*
X3854Y3775*
X3860*
X3854Y3806D02*
X3860Y3811D01*
Y3822*
X3854Y3827*
X3833*
X3828Y3822*
Y3811*
X3833Y3806*
X3839*
X3844Y3811*
Y3827*
X3811Y3717D02*
X3779D01*
Y3733*
X3784Y3738*
X3795*
X3800Y3733*
Y3717*
Y3727D02*
X3811Y3738D01*
Y3748D02*
Y3759D01*
Y3754*
X3779*
X3784Y3748*
X3779Y3775D02*
Y3796D01*
X3784*
X3805Y3775*
X3811*
X3784Y3806D02*
X3779Y3811D01*
Y3822*
X3784Y3827*
X3790*
X3795Y3822*
X3800Y3827*
X3805*
X3811Y3822*
Y3811*
X3805Y3806*
X3800*
X3795Y3811*
X3790Y3806*
X3784*
X3795Y3811D02*
Y3822D01*
X3761Y3717D02*
X3730D01*
Y3733*
X3735Y3738*
X3746*
X3751Y3733*
Y3717*
Y3727D02*
X3761Y3738D01*
Y3748D02*
Y3759D01*
Y3754*
X3730*
X3735Y3748*
X3730Y3775D02*
Y3796D01*
X3735*
X3756Y3775*
X3761*
X3730Y3806D02*
Y3827D01*
X3735*
X3756Y3806*
X3761*
X3712Y3717D02*
X3681D01*
Y3733*
X3686Y3738*
X3696*
X3702Y3733*
Y3717*
Y3727D02*
X3712Y3738D01*
Y3748D02*
Y3759D01*
Y3754*
X3681*
X3686Y3748*
X3681Y3775D02*
Y3796D01*
X3686*
X3707Y3775*
X3712*
X3681Y3827D02*
X3686Y3817D01*
X3696Y3806*
X3707*
X3712Y3811*
Y3822*
X3707Y3827*
X3702*
X3696Y3822*
Y3806*
X3663Y3717D02*
X3631D01*
Y3733*
X3637Y3738*
X3647*
X3652Y3733*
Y3717*
Y3727D02*
X3663Y3738D01*
Y3748D02*
Y3759D01*
Y3754*
X3631*
X3637Y3748*
X3631Y3775D02*
Y3796D01*
X3637*
X3658Y3775*
X3663*
X3631Y3827D02*
Y3806D01*
X3647*
X3642Y3817*
Y3822*
X3647Y3827*
X3658*
X3663Y3822*
Y3811*
X3658Y3806*
X3614Y3717D02*
X3582D01*
Y3733*
X3587Y3738*
X3598*
X3603Y3733*
Y3717*
Y3727D02*
X3614Y3738D01*
Y3748D02*
Y3759D01*
Y3754*
X3582*
X3587Y3748*
X3582Y3796D02*
X3587Y3785D01*
X3598Y3775*
X3608*
X3614Y3780*
Y3790*
X3608Y3796*
X3603*
X3598Y3790*
Y3775*
X3582Y3827D02*
X3587Y3817D01*
X3598Y3806*
X3608*
X3614Y3811*
Y3822*
X3608Y3827*
X3603*
X3598Y3822*
Y3806*
X3564Y3717D02*
X3533D01*
Y3733*
X3538Y3738*
X3549*
X3554Y3733*
Y3717*
Y3727D02*
X3564Y3738D01*
Y3748D02*
Y3759D01*
Y3754*
X3533*
X3538Y3748*
X3533Y3796D02*
X3538Y3785D01*
X3549Y3775*
X3559*
X3564Y3780*
Y3790*
X3559Y3796*
X3554*
X3549Y3790*
Y3775*
X3533Y3827D02*
Y3806D01*
X3549*
X3543Y3817*
Y3822*
X3549Y3827*
X3559*
X3564Y3822*
Y3811*
X3559Y3806*
X3581Y2169D02*
Y2200D01*
X3597*
X3602Y2195*
Y2185*
X3597Y2179*
X3581*
X3592D02*
X3602Y2169D01*
X3613D02*
X3623D01*
X3618*
Y2200*
X3613Y2195*
X3660Y2200D02*
X3639D01*
Y2185*
X3649Y2190*
X3655*
X3660Y2185*
Y2174*
X3655Y2169*
X3644*
X3639Y2174*
X3670D02*
X3675Y2169D01*
X3686*
X3691Y2174*
Y2195*
X3686Y2200*
X3675*
X3670Y2195*
Y2190*
X3675Y2185*
X3691*
X1138Y2393D02*
Y2425D01*
X1154*
X1159Y2419*
Y2409*
X1154Y2404*
X1138*
X1149D02*
X1159Y2393D01*
X1170D02*
X1180D01*
X1175*
Y2425*
X1170Y2419*
X1217Y2425D02*
X1196D01*
Y2409*
X1207Y2414*
X1212*
X1217Y2409*
Y2398*
X1212Y2393*
X1201*
X1196Y2398*
X1228Y2419D02*
X1233Y2425D01*
X1243*
X1249Y2419*
Y2414*
X1243Y2409*
X1249Y2404*
Y2398*
X1243Y2393*
X1233*
X1228Y2398*
Y2404*
X1233Y2409*
X1228Y2414*
Y2419*
X1233Y2409D02*
X1243D01*
X3589Y2976D02*
Y3007D01*
X3605*
X3610Y3002*
Y2992*
X3605Y2986*
X3589*
X3600D02*
X3610Y2976D01*
X3621D02*
X3631D01*
X3626*
Y3007*
X3621Y3002*
X3668Y3007D02*
X3647D01*
Y2992*
X3657Y2997*
X3663*
X3668Y2992*
Y2981*
X3663Y2976*
X3652*
X3647Y2981*
X3699Y3007D02*
X3689Y3002D01*
X3678Y2992*
Y2981*
X3684Y2976*
X3694*
X3699Y2981*
Y2986*
X3694Y2992*
X3678*
X3011Y3375D02*
Y3407D01*
X3026*
X3032Y3402*
Y3391*
X3026Y3386*
X3011*
X3021D02*
X3032Y3375D01*
X3042D02*
X3053D01*
X3047*
Y3407*
X3042Y3402*
X3084Y3375D02*
Y3407D01*
X3068Y3391*
X3089*
X3121Y3407D02*
X3100D01*
Y3391*
X3110Y3396*
X3115*
X3121Y3391*
Y3381*
X3115Y3375*
X3105*
X3100Y3381*
X2539Y3350D02*
Y3381D01*
X2555*
X2560Y3376*
Y3366*
X2555Y3360*
X2539*
X2549D02*
X2560Y3350D01*
X2570D02*
X2581D01*
X2576*
Y3381*
X2570Y3376*
X2612Y3350D02*
Y3381D01*
X2597Y3366*
X2618*
X2649Y3350D02*
X2628D01*
X2649Y3371*
Y3376*
X2644Y3381*
X2633*
X2628Y3376*
X2897Y3353D02*
X2866D01*
Y3369*
X2871Y3374*
X2881*
X2887Y3369*
Y3353*
Y3364D02*
X2897Y3374D01*
Y3385D02*
Y3395D01*
Y3390*
X2866*
X2871Y3385*
X2897Y3427D02*
X2866D01*
X2881Y3411*
Y3432*
X2897Y3442D02*
Y3453D01*
Y3448*
X2866*
X2871Y3442*
X3104Y4076D02*
X3072D01*
Y4092*
X3078Y4097*
X3088*
X3093Y4092*
Y4076*
Y4087D02*
X3104Y4097D01*
Y4108D02*
Y4118D01*
Y4113*
X3072*
X3078Y4108*
X3104Y4150D02*
X3072D01*
X3088Y4134*
Y4155*
X3078Y4166D02*
X3072Y4171D01*
Y4181*
X3078Y4186*
X3099*
X3104Y4181*
Y4171*
X3099Y4166*
X3078*
X2539Y3297D02*
Y3328D01*
X2555*
X2560Y3323*
Y3312*
X2555Y3307*
X2539*
X2549D02*
X2560Y3297D01*
X2570D02*
X2581D01*
X2576*
Y3328*
X2570Y3323*
X2597D02*
X2602Y3328D01*
X2612*
X2618Y3323*
Y3318*
X2612Y3312*
X2607*
X2612*
X2618Y3307*
Y3302*
X2612Y3297*
X2602*
X2597Y3302*
X2628Y3328D02*
X2649D01*
Y3323*
X2628Y3302*
Y3297*
X2366Y4076D02*
X2334D01*
Y4092*
X2339Y4097*
X2350*
X2355Y4092*
Y4076*
Y4087D02*
X2366Y4097D01*
Y4108D02*
Y4118D01*
Y4113*
X2334*
X2339Y4108*
Y4134D02*
X2334Y4139D01*
Y4150*
X2339Y4155*
X2345*
X2350Y4150*
Y4145*
Y4150*
X2355Y4155*
X2360*
X2366Y4150*
Y4139*
X2360Y4134*
X2339Y4166D02*
X2334Y4171D01*
Y4181*
X2339Y4186*
X2345*
X2350Y4181*
Y4176*
Y4181*
X2355Y4186*
X2360*
X2366Y4181*
Y4171*
X2360Y4166*
X962Y3629D02*
Y3661D01*
X978*
X983Y3656*
Y3645*
X978Y3640*
X962*
X973D02*
X983Y3629D01*
X994D02*
X1004D01*
X999*
Y3661*
X994Y3656*
X1020D02*
X1025Y3661D01*
X1036*
X1041Y3656*
Y3650*
X1036Y3645*
X1030*
X1036*
X1041Y3640*
Y3635*
X1036Y3629*
X1025*
X1020Y3635*
X1072Y3629D02*
X1051D01*
X1072Y3650*
Y3656*
X1067Y3661*
X1057*
X1051Y3656*
X1292Y3606D02*
Y3637D01*
X1308*
X1313Y3632*
Y3622*
X1308Y3616*
X1292*
X1303D02*
X1313Y3606D01*
X1324D02*
X1334D01*
X1329*
Y3637*
X1324Y3632*
X1350D02*
X1355Y3637D01*
X1366*
X1371Y3632*
Y3627*
X1366Y3622*
X1360*
X1366*
X1371Y3616*
Y3611*
X1366Y3606*
X1355*
X1350Y3611*
X1381Y3606D02*
X1392D01*
X1387*
Y3637*
X1381Y3632*
X1017Y3722D02*
Y3753D01*
X1033*
X1038Y3748*
Y3738*
X1033Y3732*
X1017*
X1028D02*
X1038Y3722D01*
X1049D02*
X1059D01*
X1054*
Y3753*
X1049Y3748*
X1096Y3722D02*
X1075D01*
X1096Y3743*
Y3748*
X1091Y3753*
X1080*
X1075Y3748*
X1106Y3753D02*
X1127D01*
Y3748*
X1106Y3727*
Y3722*
X1322Y3755D02*
Y3787D01*
X1338*
X1343Y3782*
Y3771*
X1338Y3766*
X1322*
X1333D02*
X1343Y3755D01*
X1354D02*
X1364D01*
X1359*
Y3787*
X1354Y3782*
X1401Y3755D02*
X1380D01*
X1401Y3776*
Y3782*
X1396Y3787*
X1385*
X1380Y3782*
X1433Y3787D02*
X1422Y3782D01*
X1412Y3771*
Y3761*
X1417Y3755*
X1427*
X1433Y3761*
Y3766*
X1427Y3771*
X1412*
X4780Y2305D02*
Y2336D01*
X4796*
X4801Y2331*
Y2320*
X4796Y2315*
X4780*
X4791D02*
X4801Y2305D01*
X4812Y2331D02*
X4817Y2336D01*
X4828*
X4833Y2331*
Y2326*
X4828Y2320*
X4833Y2315*
Y2310*
X4828Y2305*
X4817*
X4812Y2310*
Y2315*
X4817Y2320*
X4812Y2326*
Y2331*
X4817Y2320D02*
X4828D01*
X4843Y2331D02*
X4849Y2336D01*
X4859*
X4864Y2331*
Y2326*
X4859Y2320*
X4854*
X4859*
X4864Y2315*
Y2310*
X4859Y2305*
X4849*
X4843Y2310*
X1696Y1543D02*
Y1574D01*
X1711*
X1717Y1569*
Y1559*
X1711Y1553*
X1696*
X1706D02*
X1717Y1543D01*
X1727Y1574D02*
X1748D01*
Y1569*
X1727Y1548*
Y1543*
X1774D02*
Y1574D01*
X1759Y1559*
X1780*
X1696Y1484D02*
Y1515D01*
X1711*
X1717Y1510*
Y1500*
X1711Y1494*
X1696*
X1706D02*
X1717Y1484D01*
X1727Y1515D02*
X1748D01*
Y1510*
X1727Y1489*
Y1484*
X1759Y1510D02*
X1764Y1515D01*
X1774*
X1780Y1510*
Y1505*
X1774Y1500*
X1769*
X1774*
X1780Y1494*
Y1489*
X1774Y1484*
X1764*
X1759Y1489*
X1138Y2137D02*
Y2169D01*
X1154*
X1159Y2164*
Y2153*
X1154Y2148*
X1138*
X1149D02*
X1159Y2137D01*
X1170Y2169D02*
X1191D01*
Y2164*
X1170Y2143*
Y2137*
X1201Y2164D02*
X1207Y2169D01*
X1217*
X1222Y2164*
Y2143*
X1217Y2137*
X1207*
X1201Y2143*
Y2164*
X1138Y1921D02*
Y1952D01*
X1154*
X1159Y1947*
Y1937*
X1154Y1931*
X1138*
X1149D02*
X1159Y1921D01*
X1191Y1952D02*
X1180Y1947D01*
X1170Y1937*
Y1926*
X1175Y1921*
X1186*
X1191Y1926*
Y1931*
X1186Y1937*
X1170*
X1201Y1947D02*
X1207Y1952D01*
X1217*
X1222Y1947*
Y1942*
X1217Y1937*
X1222Y1931*
Y1926*
X1217Y1921*
X1207*
X1201Y1926*
Y1931*
X1207Y1937*
X1201Y1942*
Y1947*
X1207Y1937D02*
X1217D01*
X5224Y1812D02*
X5192D01*
Y1828*
X5198Y1833*
X5208*
X5213Y1828*
Y1812*
Y1822D02*
X5224Y1833D01*
X5192Y1864D02*
X5198Y1854D01*
X5208Y1843*
X5219*
X5224Y1849*
Y1859*
X5219Y1864*
X5213*
X5208Y1859*
Y1843*
X5192Y1875D02*
Y1896D01*
X5198*
X5219Y1875*
X5224*
X3231Y2267D02*
Y2299D01*
X3247*
X3252Y2293*
Y2283*
X3247Y2278*
X3231*
X3242D02*
X3252Y2267D01*
X3284Y2299D02*
X3273Y2293D01*
X3263Y2283*
Y2272*
X3268Y2267*
X3279*
X3284Y2272*
Y2278*
X3279Y2283*
X3263*
X3315Y2299D02*
X3305Y2293D01*
X3294Y2283*
Y2272*
X3300Y2267*
X3310*
X3315Y2272*
Y2278*
X3310Y2283*
X3294*
X3741Y2940D02*
Y2972D01*
X3757*
X3762Y2967*
Y2956*
X3757Y2951*
X3741*
X3751D02*
X3762Y2940D01*
X3793Y2972D02*
X3783Y2967D01*
X3772Y2956*
Y2946*
X3778Y2940*
X3788*
X3793Y2946*
Y2951*
X3788Y2956*
X3772*
X3825Y2972D02*
X3804D01*
Y2956*
X3814Y2961*
X3820*
X3825Y2956*
Y2946*
X3820Y2940*
X3809*
X3804Y2946*
X1138Y1704D02*
Y1736D01*
X1154*
X1159Y1730*
Y1720*
X1154Y1715*
X1138*
X1149D02*
X1159Y1704D01*
X1191Y1736D02*
X1180Y1730D01*
X1170Y1720*
Y1709*
X1175Y1704*
X1186*
X1191Y1709*
Y1715*
X1186Y1720*
X1170*
X1217Y1704D02*
Y1736D01*
X1201Y1720*
X1222*
X3609Y2925D02*
Y2956D01*
X3625*
X3630Y2951*
Y2940*
X3625Y2935*
X3609*
X3619D02*
X3630Y2925D01*
X3661Y2956D02*
X3651Y2951D01*
X3640Y2940*
Y2930*
X3646Y2925*
X3656*
X3661Y2930*
Y2935*
X3656Y2940*
X3640*
X3672Y2951D02*
X3677Y2956D01*
X3688*
X3693Y2951*
Y2946*
X3688Y2940*
X3682*
X3688*
X3693Y2935*
Y2930*
X3688Y2925*
X3677*
X3672Y2930*
X1137Y1501D02*
Y1532D01*
X1152*
X1157Y1527*
Y1516*
X1152Y1511*
X1137*
X1147D02*
X1157Y1501D01*
X1189Y1532D02*
X1178Y1527D01*
X1168Y1516*
Y1506*
X1173Y1501*
X1184*
X1189Y1506*
Y1511*
X1184Y1516*
X1168*
X1220Y1501D02*
X1199D01*
X1220Y1521*
Y1527*
X1215Y1532*
X1205*
X1199Y1527*
X3242Y2169D02*
Y2200D01*
X3258*
X3263Y2195*
Y2185*
X3258Y2179*
X3242*
X3252D02*
X3263Y2169D01*
X3294Y2200D02*
X3284Y2195D01*
X3273Y2185*
Y2174*
X3279Y2169*
X3289*
X3294Y2174*
Y2179*
X3289Y2185*
X3273*
X3305Y2169D02*
X3315D01*
X3310*
Y2200*
X3305Y2195*
X924Y913D02*
Y944D01*
X940*
X945Y939*
Y929*
X940Y923*
X924*
X935D02*
X945Y913D01*
X977Y944D02*
X966Y939D01*
X956Y929*
Y918*
X961Y913*
X971*
X977Y918*
Y923*
X971Y929*
X956*
X987Y939D02*
X992Y944D01*
X1003*
X1008Y939*
Y918*
X1003Y913*
X992*
X987Y918*
Y939*
X3231Y2316D02*
Y2348D01*
X3247*
X3252Y2343*
Y2332*
X3247Y2327*
X3231*
X3242D02*
X3252Y2316D01*
X3284Y2348D02*
X3263D01*
Y2332*
X3273Y2337*
X3279*
X3284Y2332*
Y2322*
X3279Y2316*
X3268*
X3263Y2322*
X3294D02*
X3300Y2316D01*
X3310*
X3315Y2322*
Y2343*
X3310Y2348*
X3300*
X3294Y2343*
Y2337*
X3300Y2332*
X3315*
X3231Y2218D02*
Y2249D01*
X3247*
X3252Y2244*
Y2234*
X3247Y2229*
X3231*
X3242D02*
X3252Y2218D01*
X3284Y2249D02*
X3263D01*
Y2234*
X3273Y2239*
X3279*
X3284Y2234*
Y2223*
X3279Y2218*
X3268*
X3263Y2223*
X3294Y2244D02*
X3300Y2249D01*
X3310*
X3315Y2244*
Y2239*
X3310Y2234*
X3315Y2229*
Y2223*
X3310Y2218*
X3300*
X3294Y2223*
Y2229*
X3300Y2234*
X3294Y2239*
Y2244*
X3300Y2234D02*
X3310D01*
X1519Y1893D02*
X1488D01*
Y1908*
X1493Y1914*
X1503*
X1509Y1908*
Y1893*
Y1903D02*
X1519Y1914D01*
X1488Y1945D02*
Y1924D01*
X1503*
X1498Y1935*
Y1940*
X1503Y1945*
X1514*
X1519Y1940*
Y1929*
X1514Y1924*
X1488Y1977D02*
Y1956D01*
X1503*
X1498Y1966*
Y1971*
X1503Y1977*
X1514*
X1519Y1971*
Y1961*
X1514Y1956*
X4609Y3228D02*
Y3259D01*
X4625*
X4630Y3254*
Y3244*
X4625Y3238*
X4609*
X4619D02*
X4630Y3228D01*
X4661Y3259D02*
X4640D01*
Y3244*
X4651Y3249*
X4656*
X4661Y3244*
Y3233*
X4656Y3228*
X4646*
X4640Y3233*
X4672Y3254D02*
X4677Y3259D01*
X4688*
X4693Y3254*
Y3249*
X4688Y3244*
X4682*
X4688*
X4693Y3238*
Y3233*
X4688Y3228*
X4677*
X4672Y3233*
X4151Y3094D02*
Y3125D01*
X4166*
X4172Y3120*
Y3110*
X4166Y3104*
X4151*
X4161D02*
X4172Y3094D01*
X4203Y3125D02*
X4182D01*
Y3110*
X4193Y3115*
X4198*
X4203Y3110*
Y3099*
X4198Y3094*
X4187*
X4182Y3099*
X4235Y3094D02*
X4214D01*
X4235Y3115*
Y3120*
X4229Y3125*
X4219*
X4214Y3120*
X4609Y3277D02*
Y3309D01*
X4625*
X4630Y3303*
Y3293*
X4625Y3288*
X4609*
X4619D02*
X4630Y3277D01*
X4661Y3309D02*
X4640D01*
Y3293*
X4651Y3298*
X4656*
X4661Y3293*
Y3282*
X4656Y3277*
X4646*
X4640Y3282*
X4672Y3277D02*
X4682D01*
X4677*
Y3309*
X4672Y3303*
X4151Y3143D02*
Y3175D01*
X4166*
X4172Y3169*
Y3159*
X4166Y3154*
X4151*
X4161D02*
X4172Y3143D01*
X4203Y3175D02*
X4182D01*
Y3159*
X4193Y3164*
X4198*
X4203Y3159*
Y3148*
X4198Y3143*
X4187*
X4182Y3148*
X4214Y3169D02*
X4219Y3175D01*
X4229*
X4235Y3169*
Y3148*
X4229Y3143*
X4219*
X4214Y3148*
Y3169*
X4609Y3326D02*
Y3358D01*
X4625*
X4630Y3353*
Y3342*
X4625Y3337*
X4609*
X4619D02*
X4630Y3326D01*
X4656D02*
Y3358D01*
X4640Y3342*
X4661*
X4672Y3332D02*
X4677Y3326D01*
X4688*
X4693Y3332*
Y3353*
X4688Y3358*
X4677*
X4672Y3353*
Y3347*
X4677Y3342*
X4693*
X4151Y3192D02*
Y3224D01*
X4166*
X4172Y3219*
Y3208*
X4166Y3203*
X4151*
X4161D02*
X4172Y3192D01*
X4198D02*
Y3224D01*
X4182Y3208*
X4203*
X4214Y3219D02*
X4219Y3224D01*
X4229*
X4235Y3219*
Y3213*
X4229Y3208*
X4235Y3203*
Y3198*
X4229Y3192*
X4219*
X4214Y3198*
Y3203*
X4219Y3208*
X4214Y3213*
Y3219*
X4219Y3208D02*
X4229D01*
X3405Y2432D02*
X3374D01*
Y2448*
X3379Y2453*
X3389*
X3395Y2448*
Y2432*
Y2443D02*
X3405Y2453D01*
Y2479D02*
X3374D01*
X3389Y2464*
Y2485*
X3405Y2516D02*
Y2495D01*
X3384Y2516*
X3379*
X3374Y2511*
Y2500*
X3379Y2495*
X4616Y3576D02*
Y3608D01*
X4632*
X4637Y3603*
Y3592*
X4632Y3587*
X4616*
X4627D02*
X4637Y3576D01*
X4664D02*
Y3608D01*
X4648Y3592*
X4669*
X4679Y3576D02*
X4690D01*
X4685*
Y3608*
X4679Y3603*
X4121Y3429D02*
Y3460D01*
X4137*
X4142Y3455*
Y3444*
X4137Y3439*
X4121*
X4132D02*
X4142Y3429D01*
X4168D02*
Y3460D01*
X4153Y3444*
X4174*
X4184Y3455D02*
X4189Y3460D01*
X4200*
X4205Y3455*
Y3434*
X4200Y3429*
X4189*
X4184Y3434*
Y3455*
X4121Y3379D02*
Y3411D01*
X4137*
X4142Y3406*
Y3395*
X4137Y3390*
X4121*
X4132D02*
X4142Y3379D01*
X4153Y3406D02*
X4158Y3411D01*
X4168*
X4174Y3406*
Y3400*
X4168Y3395*
X4163*
X4168*
X4174Y3390*
Y3385*
X4168Y3379*
X4158*
X4153Y3385*
X4184D02*
X4189Y3379D01*
X4200*
X4205Y3385*
Y3406*
X4200Y3411*
X4189*
X4184Y3406*
Y3400*
X4189Y3395*
X4205*
X3117Y2480D02*
Y2511D01*
X3133*
X3138Y2506*
Y2496*
X3133Y2490*
X3117*
X3127D02*
X3138Y2480D01*
X3148Y2506D02*
X3154Y2511D01*
X3164*
X3169Y2506*
Y2501*
X3164Y2496*
X3159*
X3164*
X3169Y2490*
Y2485*
X3164Y2480*
X3154*
X3148Y2485*
X3180Y2506D02*
X3185Y2511D01*
X3196*
X3201Y2506*
Y2501*
X3196Y2496*
X3201Y2490*
Y2485*
X3196Y2480*
X3185*
X3180Y2485*
Y2490*
X3185Y2496*
X3180Y2501*
Y2506*
X3185Y2496D02*
X3196D01*
X4111Y3594D02*
Y3625D01*
X4127*
X4132Y3620*
Y3610*
X4127Y3604*
X4111*
X4122D02*
X4132Y3594D01*
X4143Y3620D02*
X4148Y3625D01*
X4158*
X4164Y3620*
Y3615*
X4158Y3610*
X4153*
X4158*
X4164Y3604*
Y3599*
X4158Y3594*
X4148*
X4143Y3599*
X4174Y3625D02*
X4195D01*
Y3620*
X4174Y3599*
Y3594*
X1592Y1904D02*
X1561D01*
Y1920*
X1566Y1925*
X1576*
X1582Y1920*
Y1904*
Y1915D02*
X1592Y1925D01*
X1566Y1936D02*
X1561Y1941D01*
Y1952*
X1566Y1957*
X1571*
X1576Y1952*
Y1946*
Y1952*
X1582Y1957*
X1587*
X1592Y1952*
Y1941*
X1587Y1936*
X1592Y1983D02*
X1561D01*
X1576Y1967*
Y1988*
X1608Y2009D02*
X1576D01*
Y2024*
X1582Y2030*
X1592*
X1597Y2024*
Y2009*
Y2019D02*
X1608Y2030D01*
X1582Y2040D02*
X1576Y2045D01*
Y2056*
X1582Y2061*
X1587*
X1592Y2056*
Y2051*
Y2056*
X1597Y2061*
X1603*
X1608Y2056*
Y2045*
X1603Y2040*
X1582Y2072D02*
X1576Y2077D01*
Y2087*
X1582Y2093*
X1587*
X1592Y2087*
Y2082*
Y2087*
X1597Y2093*
X1603*
X1608Y2087*
Y2077*
X1603Y2072*
X5190Y2044D02*
X5159D01*
Y2060*
X5164Y2065*
X5175*
X5180Y2060*
Y2044*
Y2055D02*
X5190Y2065D01*
X5164Y2076D02*
X5159Y2081D01*
Y2091*
X5164Y2097*
X5169*
X5175Y2091*
Y2086*
Y2091*
X5180Y2097*
X5185*
X5190Y2091*
Y2081*
X5185Y2076*
X5190Y2128D02*
Y2107D01*
X5169Y2128*
X5164*
X5159Y2123*
Y2112*
X5164Y2107*
X5039Y2024D02*
X5007D01*
Y2040*
X5013Y2045*
X5023*
X5028Y2040*
Y2024*
Y2035D02*
X5039Y2045D01*
X5013Y2056D02*
X5007Y2061D01*
Y2072*
X5013Y2077*
X5018*
X5023Y2072*
Y2066*
Y2072*
X5028Y2077*
X5034*
X5039Y2072*
Y2061*
X5034Y2056*
X5039Y2087D02*
Y2098D01*
Y2093*
X5007*
X5013Y2087*
X3166Y2980D02*
Y3011D01*
X3182*
X3187Y3006*
Y2996*
X3182Y2990*
X3166*
X3177D02*
X3187Y2980D01*
X3198Y3006D02*
X3203Y3011D01*
X3213*
X3219Y3006*
Y3001*
X3213Y2996*
X3208*
X3213*
X3219Y2990*
Y2985*
X3213Y2980*
X3203*
X3198Y2985*
X3229Y3006D02*
X3234Y3011D01*
X3245*
X3250Y3006*
Y2985*
X3245Y2980*
X3234*
X3229Y2985*
Y3006*
X5124Y2042D02*
X5092D01*
Y2058*
X5097Y2063*
X5108*
X5113Y2058*
Y2042*
Y2053D02*
X5124Y2063D01*
Y2095D02*
Y2074D01*
X5103Y2095*
X5097*
X5092Y2089*
Y2079*
X5097Y2074*
X5118Y2105D02*
X5124Y2110D01*
Y2121*
X5118Y2126*
X5097*
X5092Y2121*
Y2110*
X5097Y2105*
X5103*
X5108Y2110*
Y2126*
X5257Y2026D02*
X5226D01*
Y2042*
X5231Y2047*
X5242*
X5247Y2042*
Y2026*
Y2037D02*
X5257Y2047D01*
Y2079D02*
Y2058D01*
X5236Y2079*
X5231*
X5226Y2074*
Y2063*
X5231Y2058*
X5226Y2089D02*
Y2110D01*
X5231*
X5252Y2089*
X5257*
X1976Y1579D02*
X2007D01*
Y1563*
X2002Y1558*
X1992*
X1986Y1563*
Y1579*
Y1569D02*
X1976Y1558D01*
Y1527D02*
Y1548D01*
X1997Y1527*
X2002*
X2007Y1532*
Y1542*
X2002Y1548*
X2007Y1495D02*
X2002Y1506D01*
X1992Y1516*
X1981*
X1976Y1511*
Y1500*
X1981Y1495*
X1986*
X1992Y1500*
Y1516*
X1511Y1809D02*
Y1840D01*
X1526*
X1532Y1835*
Y1824*
X1526Y1819*
X1511*
X1521D02*
X1532Y1809D01*
X1563D02*
X1542D01*
X1563Y1830*
Y1835*
X1558Y1840*
X1547*
X1542Y1835*
X1595Y1840D02*
X1574D01*
Y1824*
X1584Y1830*
X1589*
X1595Y1824*
Y1814*
X1589Y1809*
X1579*
X1574Y1814*
X1923Y1579D02*
X1954D01*
Y1563*
X1949Y1558*
X1938*
X1933Y1563*
Y1579*
Y1569D02*
X1923Y1558D01*
Y1527D02*
Y1548D01*
X1944Y1527*
X1949*
X1954Y1532*
Y1542*
X1949Y1548*
X1923Y1500D02*
X1954D01*
X1938Y1516*
Y1495*
X1816Y1579D02*
X1848D01*
Y1563*
X1843Y1558*
X1832*
X1827Y1563*
Y1579*
Y1569D02*
X1816Y1558D01*
Y1527D02*
Y1548D01*
X1837Y1527*
X1843*
X1848Y1532*
Y1542*
X1843Y1548*
Y1516D02*
X1848Y1511D01*
Y1500*
X1843Y1495*
X1837*
X1832Y1500*
Y1506*
Y1500*
X1827Y1495*
X1822*
X1816Y1500*
Y1511*
X1822Y1516*
X6467Y2992D02*
Y3023D01*
X6483*
X6488Y3018*
Y3007*
X6483Y3002*
X6467*
X6478D02*
X6488Y2992D01*
X6520D02*
X6499D01*
X6520Y3013*
Y3018*
X6514Y3023*
X6504*
X6499Y3018*
X6530Y2992D02*
X6541D01*
X6535*
Y3023*
X6530Y3018*
X6467Y3098D02*
Y3129D01*
X6483*
X6488Y3124*
Y3114*
X6483Y3108*
X6467*
X6478D02*
X6488Y3098D01*
X6520D02*
X6499D01*
X6520Y3119*
Y3124*
X6514Y3129*
X6504*
X6499Y3124*
X6530D02*
X6535Y3129D01*
X6546*
X6551Y3124*
Y3103*
X6546Y3098*
X6535*
X6530Y3103*
Y3124*
X5574Y3905D02*
Y3937D01*
X5590*
X5595Y3931*
Y3921*
X5590Y3916*
X5574*
X5585D02*
X5595Y3905D01*
X5606D02*
X5616D01*
X5611*
Y3937*
X5606Y3931*
X5632Y3937D02*
X5653D01*
Y3931*
X5632Y3910*
Y3905*
X5336Y3919D02*
Y3950D01*
X5352*
X5357Y3945*
Y3935*
X5352Y3929*
X5336*
X5347D02*
X5357Y3919D01*
X5368D02*
X5378D01*
X5373*
Y3950*
X5368Y3945*
X5415Y3950D02*
X5404Y3945D01*
X5394Y3935*
Y3924*
X5399Y3919*
X5410*
X5415Y3924*
Y3929*
X5410Y3935*
X5394*
X5570Y3860D02*
Y3891D01*
X5586*
X5591Y3886*
Y3875*
X5586Y3870*
X5570*
X5581D02*
X5591Y3860D01*
X5602D02*
X5612D01*
X5607*
Y3891*
X5602Y3886*
X5649Y3891D02*
X5628D01*
Y3875*
X5639Y3881*
X5644*
X5649Y3875*
Y3865*
X5644Y3860*
X5633*
X5628Y3865*
X6467Y2885D02*
Y2917D01*
X6483*
X6488Y2912*
Y2901*
X6483Y2896*
X6467*
X6478D02*
X6488Y2885D01*
X6499D02*
X6509D01*
X6504*
Y2917*
X6499Y2912*
X6525D02*
X6530Y2917D01*
X6541*
X6546Y2912*
Y2891*
X6541Y2885*
X6530*
X6525Y2891*
Y2912*
X5755Y2836D02*
Y2868D01*
X5771*
X5776Y2862*
Y2852*
X5771Y2847*
X5755*
X5765D02*
X5776Y2836D01*
X5786Y2841D02*
X5791Y2836D01*
X5802*
X5807Y2841*
Y2862*
X5802Y2868*
X5791*
X5786Y2862*
Y2857*
X5791Y2852*
X5807*
X5755Y2787D02*
Y2818D01*
X5771*
X5776Y2813*
Y2803*
X5771Y2797*
X5755*
X5765D02*
X5776Y2787D01*
X5786Y2813D02*
X5791Y2818D01*
X5802*
X5807Y2813*
Y2808*
X5802Y2803*
X5807Y2797*
Y2792*
X5802Y2787*
X5791*
X5786Y2792*
Y2797*
X5791Y2803*
X5786Y2808*
Y2813*
X5791Y2803D02*
X5802D01*
X5593Y2889D02*
Y2921D01*
X5609*
X5614Y2916*
Y2905*
X5609Y2900*
X5593*
X5604D02*
X5614Y2889D01*
X5625Y2921D02*
X5646D01*
Y2916*
X5625Y2895*
Y2889*
X5976Y3180D02*
X5944D01*
Y3196*
X5950Y3201*
X5960*
X5965Y3196*
Y3180*
Y3190D02*
X5976Y3201D01*
X5944Y3232D02*
X5950Y3222D01*
X5960Y3211*
X5971*
X5976Y3217*
Y3227*
X5971Y3232*
X5965*
X5960Y3227*
Y3211*
X5923Y3180D02*
X5891D01*
Y3196*
X5896Y3201*
X5907*
X5912Y3196*
Y3180*
Y3190D02*
X5923Y3201D01*
X5891Y3232D02*
Y3211D01*
X5907*
X5902Y3222*
Y3227*
X5907Y3232*
X5917*
X5923Y3227*
Y3217*
X5917Y3211*
X5870Y3166D02*
X5838D01*
Y3182*
X5843Y3187*
X5854*
X5859Y3182*
Y3166*
Y3177D02*
X5870Y3187D01*
Y3213D02*
X5838D01*
X5854Y3198*
Y3219*
X6328Y3194D02*
X6297D01*
Y3209*
X6302Y3215*
X6312*
X6318Y3209*
Y3194*
Y3204D02*
X6328Y3215D01*
X6302Y3225D02*
X6297Y3230D01*
Y3241*
X6302Y3246*
X6307*
X6312Y3241*
Y3236*
Y3241*
X6318Y3246*
X6323*
X6328Y3241*
Y3230*
X6323Y3225*
X6374Y3194D02*
X6342D01*
Y3209*
X6347Y3215*
X6358*
X6363Y3209*
Y3194*
Y3204D02*
X6374Y3215D01*
Y3246D02*
Y3225D01*
X6353Y3246*
X6347*
X6342Y3241*
Y3230*
X6347Y3225*
X6419Y3194D02*
X6387D01*
Y3209*
X6393Y3215*
X6403*
X6408Y3209*
Y3194*
Y3204D02*
X6419Y3215D01*
Y3225D02*
Y3236D01*
Y3230*
X6387*
X6393Y3225*
X1859Y1944D02*
Y1913D01*
X1880*
X1912Y1944D02*
X1891D01*
Y1929*
X1901Y1934*
X1906*
X1912Y1929*
Y1918*
X1906Y1913*
X1896*
X1891Y1918*
X6318Y2797D02*
Y2765D01*
X6339*
X6365D02*
Y2797D01*
X6349Y2781*
X6370*
X5863Y2781D02*
Y2750D01*
X5884*
X5895Y2776D02*
X5900Y2781D01*
X5910*
X5916Y2776*
Y2771*
X5910Y2765*
X5905*
X5910*
X5916Y2760*
Y2755*
X5910Y2750*
X5900*
X5895Y2755*
X5869Y3301D02*
Y3269D01*
X5890*
X5921D02*
X5900D01*
X5921Y3290*
Y3295*
X5916Y3301*
X5906*
X5900Y3295*
X6379Y3374D02*
X6411D01*
Y3395*
Y3406D02*
Y3416D01*
Y3411*
X6379*
X6385Y3406*
X6269Y1753D02*
Y1742D01*
Y1748*
X6295*
X6301Y1742*
Y1737*
X6295Y1732*
X6301Y1763D02*
Y1774D01*
Y1769*
X6269*
X6274Y1763*
X6269Y1811D02*
Y1790D01*
X6285*
X6280Y1800*
Y1805*
X6285Y1811*
X6295*
X6301Y1805*
Y1795*
X6295Y1790*
X3259Y4291D02*
X3248D01*
X3253*
Y4265*
X3248Y4259*
X3243*
X3238Y4265*
X3269Y4259D02*
X3280D01*
X3274*
Y4291*
X3269Y4286*
X3311Y4259D02*
Y4291D01*
X3295Y4275*
X3316*
X6480Y3891D02*
X6470D01*
X6475*
Y3865*
X6470Y3860*
X6465*
X6459Y3865*
X6512Y3860D02*
X6491D01*
X6512Y3881*
Y3886*
X6507Y3891*
X6496*
X6491Y3886*
X4807Y4206D02*
X4796D01*
X4801*
Y4180*
X4796Y4175*
X4791*
X4786Y4180*
X4817Y4175D02*
X4828D01*
X4822*
Y4206*
X4817Y4201*
X830Y895D02*
Y864D01*
X845*
X851Y869*
Y890*
X845Y895*
X830*
X861Y890D02*
X866Y895D01*
X877*
X882Y890*
Y885*
X877Y879*
X872*
X877*
X882Y874*
Y869*
X877Y864*
X866*
X861Y869*
X859Y1282D02*
Y1250D01*
X875*
X880Y1256*
Y1277*
X875Y1282*
X859*
X912Y1250D02*
X891D01*
X912Y1271*
Y1277*
X906Y1282*
X896*
X891Y1277*
X803Y1128D02*
Y1097D01*
X819*
X824Y1102*
Y1123*
X819Y1128*
X803*
X835Y1097D02*
X845D01*
X840*
Y1128*
X835Y1123*
X1330Y1419D02*
X1324Y1414D01*
Y1404*
X1330Y1398*
X1351*
X1356Y1404*
Y1414*
X1351Y1419*
X1356Y1451D02*
Y1430D01*
X1335Y1451*
X1330*
X1324Y1446*
Y1435*
X1330Y1430*
X1356Y1477D02*
X1324D01*
X1340Y1461*
Y1482*
X1324Y1514D02*
X1330Y1503D01*
X1340Y1493*
X1351*
X1356Y1498*
Y1509*
X1351Y1514*
X1345*
X1340Y1509*
Y1493*
X4123Y1955D02*
X4118Y1950D01*
Y1939*
X4123Y1934*
X4144*
X4149Y1939*
Y1950*
X4144Y1955*
X4149Y1986D02*
Y1965D01*
X4128Y1986*
X4123*
X4118Y1981*
Y1971*
X4123Y1965*
X4149Y2013D02*
X4118D01*
X4133Y1997*
Y2018*
X4123Y2028D02*
X4118Y2034D01*
Y2044*
X4123Y2049*
X4144*
X4149Y2044*
Y2034*
X4144Y2028*
X4123*
X4066Y1955D02*
X4061Y1950D01*
Y1939*
X4066Y1934*
X4087*
X4092Y1939*
Y1950*
X4087Y1955*
X4092Y1986D02*
Y1965D01*
X4071Y1986*
X4066*
X4061Y1981*
Y1971*
X4066Y1965*
Y1997D02*
X4061Y2002D01*
Y2013*
X4066Y2018*
X4071*
X4076Y2013*
Y2007*
Y2013*
X4082Y2018*
X4087*
X4092Y2013*
Y2002*
X4087Y1997*
Y2028D02*
X4092Y2034D01*
Y2044*
X4087Y2049*
X4066*
X4061Y2044*
Y2034*
X4066Y2028*
X4071*
X4076Y2034*
Y2049*
X2617Y3487D02*
X2612Y3482D01*
Y3471*
X2617Y3466*
X2638*
X2643Y3471*
Y3482*
X2638Y3487*
X2643Y3519D02*
Y3498D01*
X2622Y3519*
X2617*
X2612Y3513*
Y3503*
X2617Y3498*
X2643Y3529D02*
Y3540D01*
Y3534*
X2612*
X2617Y3529*
X2612Y3555D02*
Y3576D01*
X2617*
X2638Y3555*
X2643*
X2702Y3530D02*
X2696Y3535D01*
X2686*
X2681Y3530*
Y3509*
X2686Y3503*
X2696*
X2702Y3509*
X2733Y3503D02*
X2712D01*
X2733Y3524*
Y3530*
X2728Y3535*
X2717*
X2712Y3530*
X2744Y3503D02*
X2754D01*
X2749*
Y3535*
X2744Y3530*
X2791Y3535D02*
X2770D01*
Y3519*
X2780Y3524*
X2786*
X2791Y3519*
Y3509*
X2786Y3503*
X2775*
X2770Y3509*
X2737Y3309D02*
X2732Y3314D01*
X2721*
X2716Y3309*
Y3288*
X2721Y3283*
X2732*
X2737Y3288*
X2769Y3283D02*
X2748D01*
X2769Y3304*
Y3309*
X2763Y3314*
X2753*
X2748Y3309*
X2779Y3283D02*
X2790D01*
X2784*
Y3314*
X2779Y3309*
X2821Y3283D02*
Y3314D01*
X2805Y3299*
X2826*
X1110Y2234D02*
X1105Y2240D01*
X1095*
X1089Y2234*
Y2213*
X1095Y2208*
X1105*
X1110Y2213*
X1121Y2208D02*
X1131D01*
X1126*
Y2240*
X1121Y2234*
X1147Y2208D02*
X1157D01*
X1152*
Y2240*
X1147Y2234*
X1194Y2240D02*
X1184Y2234D01*
X1173Y2224*
Y2213*
X1178Y2208*
X1189*
X1194Y2213*
Y2219*
X1189Y2224*
X1173*
X1110Y2018D02*
X1105Y2023D01*
X1095*
X1089Y2018*
Y1997*
X1095Y1992*
X1105*
X1110Y1997*
X1121Y1992D02*
X1131D01*
X1126*
Y2023*
X1121Y2018*
X1147Y1992D02*
X1157D01*
X1152*
Y2023*
X1147Y2018*
X1173D02*
X1178Y2023D01*
X1189*
X1194Y2018*
Y2013*
X1189Y2007*
X1184*
X1189*
X1194Y2002*
Y1997*
X1189Y1992*
X1178*
X1173Y1997*
X1110Y1801D02*
X1105Y1807D01*
X1095*
X1089Y1801*
Y1780*
X1095Y1775*
X1105*
X1110Y1780*
X1121Y1775D02*
X1131D01*
X1126*
Y1807*
X1121Y1801*
X1147Y1775D02*
X1157D01*
X1152*
Y1807*
X1147Y1801*
X1194Y1775D02*
X1173D01*
X1194Y1796*
Y1801*
X1189Y1807*
X1178*
X1173Y1801*
X1111Y1599D02*
X1106Y1604D01*
X1096*
X1091Y1599*
Y1578*
X1096Y1573*
X1106*
X1111Y1578*
X1122Y1573D02*
X1132D01*
X1127*
Y1604*
X1122Y1599*
X1148Y1573D02*
X1159D01*
X1153*
Y1604*
X1148Y1599*
X1174Y1573D02*
X1185D01*
X1180*
Y1604*
X1174Y1599*
X3333Y2708D02*
X3328Y2702D01*
Y2692*
X3333Y2687*
X3354*
X3360Y2692*
Y2702*
X3354Y2708*
X3360Y2718D02*
Y2729D01*
Y2723*
X3328*
X3333Y2718*
Y2744D02*
X3328Y2750D01*
Y2760*
X3333Y2765*
X3354*
X3360Y2760*
Y2750*
X3354Y2744*
X3333*
X3328Y2797D02*
X3333Y2786D01*
X3344Y2776*
X3354*
X3360Y2781*
Y2791*
X3354Y2797*
X3349*
X3344Y2791*
Y2776*
X3184Y2554D02*
X3179Y2559D01*
X3170*
X3166Y2554*
Y2536*
X3170Y2531*
X3179*
X3184Y2536*
X3193Y2531D02*
X3202D01*
X3198*
Y2559*
X3193Y2554*
X3216D02*
X3221Y2559D01*
X3230*
X3235Y2554*
Y2536*
X3230Y2531*
X3221*
X3216Y2536*
Y2554*
X3262Y2559D02*
X3244D01*
Y2545*
X3253Y2549*
X3258*
X3262Y2545*
Y2536*
X3258Y2531*
X3248*
X3244Y2536*
X1720Y2258D02*
X1715Y2263D01*
X1704*
X1699Y2258*
Y2237*
X1704Y2232*
X1715*
X1720Y2237*
X1730D02*
X1736Y2232D01*
X1746*
X1751Y2237*
Y2258*
X1746Y2263*
X1736*
X1730Y2258*
Y2253*
X1736Y2248*
X1751*
X1762Y2232D02*
X1772D01*
X1767*
Y2263*
X1762Y2258*
X2062Y1829D02*
X2057Y1824D01*
Y1813*
X2062Y1808*
X2083*
X2088Y1813*
Y1824*
X2083Y1829*
X2062Y1840D02*
X2057Y1845D01*
Y1855*
X2062Y1861*
X2067*
X2072Y1855*
X2078Y1861*
X2083*
X2088Y1855*
Y1845*
X2083Y1840*
X2078*
X2072Y1845*
X2067Y1840*
X2062*
X2072Y1845D02*
Y1855D01*
X2062Y1871D02*
X2057Y1876D01*
Y1887*
X2062Y1892*
X2067*
X2072Y1887*
X2078Y1892*
X2083*
X2088Y1887*
Y1876*
X2083Y1871*
X2078*
X2072Y1876*
X2067Y1871*
X2062*
X2072Y1876D02*
Y1887D01*
X2111Y1829D02*
X2106Y1824D01*
Y1813*
X2111Y1808*
X2132*
X2137Y1813*
Y1824*
X2132Y1829*
X2111Y1840D02*
X2106Y1845D01*
Y1855*
X2111Y1861*
X2116*
X2122Y1855*
X2127Y1861*
X2132*
X2137Y1855*
Y1845*
X2132Y1840*
X2127*
X2122Y1845*
X2116Y1840*
X2111*
X2122Y1845D02*
Y1855D01*
X2106Y1871D02*
Y1892D01*
X2111*
X2132Y1871*
X2137*
X2160Y1829D02*
X2155Y1824D01*
Y1813*
X2160Y1808*
X2181*
X2187Y1813*
Y1824*
X2181Y1829*
X2160Y1840D02*
X2155Y1845D01*
Y1855*
X2160Y1861*
X2166*
X2171Y1855*
X2176Y1861*
X2181*
X2187Y1855*
Y1845*
X2181Y1840*
X2176*
X2171Y1845*
X2166Y1840*
X2160*
X2171Y1845D02*
Y1855D01*
X2155Y1892D02*
X2160Y1882D01*
X2171Y1871*
X2181*
X2187Y1876*
Y1887*
X2181Y1892*
X2176*
X2171Y1887*
Y1871*
X5369Y2067D02*
X5364Y2062D01*
Y2051*
X5369Y2046*
X5390*
X5395Y2051*
Y2062*
X5390Y2067*
X5364Y2078D02*
Y2099D01*
X5369*
X5390Y2078*
X5395*
X5364Y2109D02*
Y2130D01*
X5369*
X5390Y2109*
X5395*
X6002Y4295D02*
X5997Y4301D01*
X5986*
X5981Y4295*
Y4274*
X5986Y4269*
X5997*
X6002Y4274*
X6034Y4301D02*
X6023Y4295D01*
X6013Y4285*
Y4274*
X6018Y4269*
X6028*
X6034Y4274*
Y4280*
X6028Y4285*
X6013*
X6044Y4274D02*
X6049Y4269D01*
X6060*
X6065Y4274*
Y4295*
X6060Y4301*
X6049*
X6044Y4295*
Y4290*
X6049Y4285*
X6065*
X5688Y2505D02*
X5683Y2500D01*
Y2490*
X5688Y2484*
X5709*
X5714Y2490*
Y2500*
X5709Y2505*
X5714Y2532D02*
X5683D01*
X5698Y2516*
Y2537*
X5714Y2547D02*
Y2558D01*
Y2553*
X5683*
X5688Y2547*
X5624Y3626D02*
X5619Y3631D01*
X5608*
X5603Y3626*
Y3605*
X5608Y3600*
X5619*
X5624Y3605*
X5656Y3600D02*
X5635D01*
X5656Y3621*
Y3626*
X5650Y3631*
X5640*
X5635Y3626*
X5666Y3631D02*
X5687D01*
Y3626*
X5666Y3605*
Y3600*
X6005Y3829D02*
X6000Y3834D01*
X5989*
X5984Y3829*
Y3808*
X5989Y3803*
X6000*
X6005Y3808*
X6015Y3803D02*
X6026D01*
X6021*
Y3834*
X6015Y3829*
X6057Y3803D02*
Y3834D01*
X6041Y3818*
X6062*
X6444Y3607D02*
X6438Y3602D01*
Y3591*
X6444Y3586*
X6465*
X6470Y3591*
Y3602*
X6465Y3607*
X6470Y3618D02*
Y3628D01*
Y3623*
X6438*
X6444Y3618*
Y3644D02*
X6438Y3649D01*
Y3660*
X6444Y3665*
X6449*
X6454Y3660*
Y3654*
Y3660*
X6459Y3665*
X6465*
X6470Y3660*
Y3649*
X6465Y3644*
X6310Y3849D02*
X6305Y3854D01*
X6294*
X6289Y3849*
Y3828*
X6294Y3822*
X6305*
X6310Y3828*
X6320Y3822D02*
X6331D01*
X6326*
Y3854*
X6320Y3849*
X6368Y3822D02*
X6347D01*
X6368Y3843*
Y3849*
X6362Y3854*
X6352*
X6347Y3849*
X5882Y3829D02*
X5877Y3834D01*
X5866*
X5861Y3829*
Y3808*
X5866Y3803*
X5877*
X5882Y3808*
X5893Y3803D02*
X5903D01*
X5898*
Y3834*
X5893Y3829*
X5919Y3803D02*
X5929D01*
X5924*
Y3834*
X5919Y3829*
X5685Y2923D02*
X5680Y2929D01*
X5670*
X5664Y2923*
Y2902*
X5670Y2897*
X5680*
X5685Y2902*
X5696Y2929D02*
X5717D01*
Y2923*
X5696Y2902*
Y2897*
X6077Y4223D02*
X6072Y4228D01*
X6061*
X6056Y4223*
Y4202*
X6061Y4196*
X6072*
X6077Y4202*
X6087Y4223D02*
X6093Y4228D01*
X6103*
X6108Y4223*
Y4217*
X6103Y4212*
X6098*
X6103*
X6108Y4207*
Y4202*
X6103Y4196*
X6093*
X6087Y4202*
X5683Y2992D02*
X5678Y2998D01*
X5668*
X5662Y2992*
Y2971*
X5668Y2966*
X5678*
X5683Y2971*
X5715Y2966D02*
X5694D01*
X5715Y2987*
Y2992*
X5710Y2998*
X5699*
X5694Y2992*
Y3061D02*
X5689Y3066D01*
X5678*
X5673Y3061*
Y3040*
X5678Y3035*
X5689*
X5694Y3040*
X5704Y3035D02*
X5715D01*
X5710*
Y3066*
X5704Y3061*
X3220Y2441D02*
X3225D01*
X3236Y2452*
X3225Y2462*
X3220*
X3236Y2452D02*
X3251D01*
Y2473D02*
Y2483D01*
Y2478*
X3220*
X3225Y2473*
X5366Y1428D02*
X5397Y1449D01*
X5366D02*
X5397Y1428D01*
X5371Y1459D02*
X5366Y1465D01*
Y1475*
X5371Y1480*
X5376*
X5381Y1475*
Y1470*
Y1475*
X5387Y1480*
X5392*
X5397Y1475*
Y1465*
X5392Y1459*
X1731Y2515D02*
X1752Y2484D01*
Y2515D02*
X1731Y2484D01*
X1784D02*
X1763D01*
X1784Y2505*
Y2510*
X1778Y2515*
X1768*
X1763Y2510*
X6395Y2709D02*
X6421D01*
X6427Y2715*
Y2725*
X6421Y2730*
X6395*
Y2762D02*
Y2741D01*
X6411*
X6406Y2751*
Y2757*
X6411Y2762*
X6421*
X6427Y2757*
Y2746*
X6421Y2741*
X6395Y2772D02*
Y2793D01*
X6400*
X6421Y2772*
X6427*
X1278Y4261D02*
X1268D01*
X1273*
Y4235*
X1268Y4230*
X1263*
X1257Y4235*
X1289Y4230D02*
X1299D01*
X1294*
Y4261*
X1289Y4256*
X1315Y4235D02*
X1320Y4230D01*
X1331*
X1336Y4235*
Y4256*
X1331Y4261*
X1320*
X1315Y4256*
Y4251*
X1320Y4246*
X1336*
X3825Y3952D02*
Y3926D01*
X3831Y3921*
X3841*
X3846Y3926*
Y3952*
X3878D02*
X3857D01*
Y3937*
X3867Y3942*
X3873*
X3878Y3937*
Y3926*
X3873Y3921*
X3862*
X3857Y3926*
X3888Y3947D02*
X3894Y3952D01*
X3904*
X3909Y3947*
Y3942*
X3904Y3937*
X3899*
X3904*
X3909Y3931*
Y3926*
X3904Y3921*
X3894*
X3888Y3926*
X3751Y1879D02*
Y1853D01*
X3756Y1848*
X3767*
X3772Y1853*
Y1879*
X3803D02*
X3782D01*
Y1864*
X3793Y1869*
X3798*
X3803Y1864*
Y1853*
X3798Y1848*
X3788*
X3782Y1853*
X3814Y1874D02*
X3819Y1879D01*
X3830*
X3835Y1874*
Y1853*
X3830Y1848*
X3819*
X3814Y1853*
Y1874*
X1532Y2968D02*
Y2942D01*
X1538Y2937*
X1548*
X1553Y2942*
Y2968*
X1580Y2937D02*
Y2968D01*
X1564Y2952*
X1585*
X1595Y2942D02*
X1601Y2937D01*
X1611*
X1616Y2942*
Y2963*
X1611Y2968*
X1601*
X1595Y2963*
Y2958*
X1601Y2952*
X1616*
X3461Y3620D02*
Y3593D01*
X3467Y3588*
X3477*
X3482Y3593*
Y3620*
X3509Y3588D02*
Y3620D01*
X3493Y3604*
X3514*
X3524Y3614D02*
X3530Y3620D01*
X3540*
X3545Y3614*
Y3609*
X3540Y3604*
X3545Y3599*
Y3593*
X3540Y3588*
X3530*
X3524Y3593*
Y3599*
X3530Y3604*
X3524Y3609*
Y3614*
X3530Y3604D02*
X3540D01*
X1198Y3576D02*
Y3550D01*
X1203Y3545*
X1213*
X1219Y3550*
Y3576*
X1245Y3545D02*
Y3576D01*
X1229Y3561*
X1250*
X1282Y3545D02*
X1261D01*
X1282Y3566*
Y3571*
X1276Y3576*
X1266*
X1261Y3571*
X1070Y3388D02*
X1097D01*
X1102Y3393*
Y3404*
X1097Y3409*
X1070*
X1102Y3435D02*
X1070D01*
X1086Y3419*
Y3440*
X1102Y3451D02*
Y3461D01*
Y3456*
X1070*
X1076Y3451*
X1985Y2186D02*
X1966Y2167D01*
Y2160*
X1974Y2153*
X1981*
X2000Y2171*
X2003Y2160D02*
X2011D01*
X2018Y2153*
Y2145*
X2015Y2141*
X2007*
X2003Y2145*
X2007Y2141*
Y2134*
X2003Y2130*
X1996*
X1989Y2138*
Y2145*
X2029Y2141D02*
X2044Y2127D01*
X2041Y2123*
X2011*
X2007Y2119*
X5820Y1736D02*
Y1709D01*
X5825Y1704*
X5835*
X5841Y1709*
Y1736*
X5851Y1730D02*
X5856Y1736D01*
X5867*
X5872Y1730*
Y1725*
X5867Y1720*
X5862*
X5867*
X5872Y1715*
Y1709*
X5867Y1704*
X5856*
X5851Y1709*
X5904Y1736D02*
X5883D01*
Y1720*
X5893Y1725*
X5898*
X5904Y1720*
Y1709*
X5898Y1704*
X5888*
X5883Y1709*
X5548Y1269D02*
Y1243D01*
X5553Y1238*
X5564*
X5569Y1243*
Y1269*
X5580Y1264D02*
X5585Y1269D01*
X5595*
X5601Y1264*
Y1259*
X5595Y1253*
X5590*
X5595*
X5601Y1248*
Y1243*
X5595Y1238*
X5585*
X5580Y1243*
X5611Y1264D02*
X5616Y1269D01*
X5627*
X5632Y1264*
Y1259*
X5627Y1253*
X5622*
X5627*
X5632Y1248*
Y1243*
X5627Y1238*
X5616*
X5611Y1243*
X1922Y2960D02*
Y2934D01*
X1927Y2929*
X1938*
X1943Y2934*
Y2960*
X1975Y2929D02*
X1954D01*
X1975Y2950*
Y2955*
X1969Y2960*
X1959*
X1954Y2955*
X1985Y2934D02*
X1990Y2929D01*
X2001*
X2006Y2934*
Y2955*
X2001Y2960*
X1990*
X1985Y2955*
Y2950*
X1990Y2944*
X2006*
X4452Y1503D02*
X4479D01*
X4484Y1508*
Y1518*
X4479Y1524*
X4452*
X4484Y1555D02*
Y1534D01*
X4463Y1555*
X4458*
X4452Y1550*
Y1539*
X4458Y1534*
Y1566D02*
X4452Y1571D01*
Y1581*
X4458Y1587*
X4463*
X4468Y1581*
X4473Y1587*
X4479*
X4484Y1581*
Y1571*
X4479Y1566*
X4473*
X4468Y1571*
X4463Y1566*
X4458*
X4468Y1571D02*
Y1581D01*
X3862Y1503D02*
X3888D01*
X3893Y1508*
Y1518*
X3888Y1524*
X3862*
X3893Y1555D02*
Y1534D01*
X3872Y1555*
X3867*
X3862Y1550*
Y1539*
X3867Y1534*
X3862Y1587D02*
Y1566D01*
X3877*
X3872Y1576*
Y1581*
X3877Y1587*
X3888*
X3893Y1581*
Y1571*
X3888Y1566*
X2513Y2824D02*
Y2798D01*
X2518Y2793*
X2528*
X2534Y2798*
Y2824*
X2565Y2793D02*
X2544D01*
X2565Y2814*
Y2819*
X2560Y2824*
X2549*
X2544Y2819*
X2597Y2793D02*
X2576D01*
X2597Y2814*
Y2819*
X2591Y2824*
X2581*
X2576Y2819*
X2681Y1503D02*
X2707D01*
X2712Y1508*
Y1518*
X2707Y1524*
X2681*
X2712Y1555D02*
Y1534D01*
X2691Y1555*
X2686*
X2681Y1550*
Y1539*
X2686Y1534*
X2712Y1566D02*
Y1576D01*
Y1571*
X2681*
X2686Y1566*
X5202Y2621D02*
X5229D01*
X5234Y2626*
Y2637*
X5229Y2642*
X5202*
X5234Y2673D02*
Y2652D01*
X5213Y2673*
X5208*
X5202Y2668*
Y2658*
X5208Y2652*
Y2684D02*
X5202Y2689D01*
Y2700*
X5208Y2705*
X5229*
X5234Y2700*
Y2689*
X5229Y2684*
X5208*
X6204Y1637D02*
Y1611D01*
X6209Y1606*
X6220*
X6225Y1611*
Y1637*
X6236Y1606D02*
X6246D01*
X6241*
Y1637*
X6236Y1632*
X6262Y1637D02*
X6283D01*
Y1632*
X6262Y1611*
Y1606*
X1277Y2135D02*
X1303D01*
X1309Y2141*
Y2151*
X1303Y2156*
X1277*
X1309Y2167D02*
Y2177D01*
Y2172*
X1277*
X1282Y2167*
X1277Y2214D02*
Y2193D01*
X1293*
X1288Y2204*
Y2209*
X1293Y2214*
X1303*
X1309Y2209*
Y2198*
X1303Y2193*
X5950Y2358D02*
X5924D01*
X5919Y2353*
Y2342*
X5924Y2337*
X5950*
X5919Y2326D02*
Y2316D01*
Y2321*
X5950*
X5945Y2326*
Y2300D02*
X5950Y2295D01*
Y2284*
X5945Y2279*
X5940*
X5935Y2284*
Y2290*
Y2284*
X5929Y2279*
X5924*
X5919Y2284*
Y2295*
X5924Y2300*
X1690Y1989D02*
X1717D01*
X1722Y1994*
Y2005*
X1717Y2010*
X1690*
X1722Y2020D02*
Y2031D01*
Y2026*
X1690*
X1696Y2020*
X1722Y2068D02*
Y2047D01*
X1701Y2068*
X1696*
X1690Y2062*
Y2052*
X1696Y2047*
X5501Y3728D02*
Y3702D01*
X5506Y3696*
X5517*
X5522Y3702*
Y3728*
X5532Y3696D02*
X5543D01*
X5538*
Y3728*
X5532Y3723*
X5559Y3696D02*
X5569D01*
X5564*
Y3728*
X5559Y3723*
X3287Y3108D02*
Y3082D01*
X3292Y3076*
X3303*
X3308Y3082*
Y3108*
X3318Y3076D02*
X3329D01*
X3324*
Y3108*
X3318Y3103*
X3345D02*
X3350Y3108D01*
X3360*
X3366Y3103*
Y3082*
X3360Y3076*
X3350*
X3345Y3082*
Y3103*
X3328Y2837D02*
X3354D01*
X3360Y2843*
Y2853*
X3354Y2858*
X3328*
X3354Y2869D02*
X3360Y2874D01*
Y2885*
X3354Y2890*
X3333*
X3328Y2885*
Y2874*
X3333Y2869*
X3339*
X3344Y2874*
Y2890*
X5076Y1836D02*
Y1810D01*
X5081Y1805*
X5091*
X5097Y1810*
Y1836*
X5107Y1831D02*
X5112Y1836D01*
X5123*
X5128Y1831*
Y1826*
X5123Y1820*
X5128Y1815*
Y1810*
X5123Y1805*
X5112*
X5107Y1810*
Y1815*
X5112Y1820*
X5107Y1826*
Y1831*
X5112Y1820D02*
X5123D01*
X2005Y1688D02*
Y1662D01*
X2010Y1657*
X2021*
X2026Y1662*
Y1688*
X2057D02*
X2047Y1683D01*
X2036Y1673*
Y1662*
X2041Y1657*
X2052*
X2057Y1662*
Y1667*
X2052Y1673*
X2036*
X1696Y1721D02*
X1723D01*
X1728Y1727*
Y1737*
X1723Y1742*
X1696*
Y1774D02*
Y1753D01*
X1712*
X1707Y1763*
Y1769*
X1712Y1774*
X1723*
X1728Y1769*
Y1758*
X1723Y1753*
X5361Y4289D02*
Y4263D01*
X5366Y4257*
X5377*
X5382Y4263*
Y4289*
X5408Y4257D02*
Y4289D01*
X5393Y4273*
X5414*
X5485Y3897D02*
Y3871D01*
X5490Y3866*
X5501*
X5506Y3871*
Y3897*
X5517Y3892D02*
X5522Y3897D01*
X5532*
X5538Y3892*
Y3887*
X5532Y3881*
X5527*
X5532*
X5538Y3876*
Y3871*
X5532Y3866*
X5522*
X5517Y3871*
X3420Y2938D02*
Y2912D01*
X3425Y2907*
X3436*
X3441Y2912*
Y2938*
X3473Y2907D02*
X3452D01*
X3473Y2928*
Y2933*
X3467Y2938*
X3457*
X3452Y2933*
X6156Y3222D02*
Y3196D01*
X6161Y3190*
X6171*
X6177Y3196*
Y3222*
X6187Y3190D02*
X6198D01*
X6192*
Y3222*
X6187Y3217*
X5767Y1273D02*
X5788D01*
X5777*
Y1242*
X5798D02*
Y1273D01*
X5814*
X5819Y1268*
Y1257*
X5814Y1252*
X5798*
X5851Y1273D02*
X5830D01*
Y1257*
X5840Y1263*
X5845*
X5851Y1257*
Y1247*
X5845Y1242*
X5835*
X5830Y1247*
X5882Y1242D02*
X5861D01*
X5882Y1263*
Y1268*
X5877Y1273*
X5866*
X5861Y1268*
X5275Y1615D02*
Y1636D01*
Y1625*
X5307*
Y1646D02*
X5275D01*
Y1662*
X5280Y1667*
X5291*
X5296Y1662*
Y1646*
X5275Y1699D02*
Y1678D01*
X5291*
X5286Y1688*
Y1694*
X5291Y1699*
X5301*
X5307Y1694*
Y1683*
X5301Y1678*
X5307Y1709D02*
Y1720D01*
Y1715*
X5275*
X5280Y1709*
X5120Y1615D02*
Y1636D01*
Y1625*
X5151*
Y1646D02*
X5120D01*
Y1662*
X5125Y1667*
X5135*
X5141Y1662*
Y1646*
X5120Y1699D02*
Y1678D01*
X5135*
X5130Y1688*
Y1694*
X5135Y1699*
X5146*
X5151Y1694*
Y1683*
X5146Y1678*
X5125Y1709D02*
X5120Y1715D01*
Y1725*
X5125Y1730*
X5146*
X5151Y1725*
Y1715*
X5146Y1709*
X5125*
X5731Y1563D02*
X5751D01*
X5741*
Y1534*
X5760D02*
Y1563D01*
X5775*
X5780Y1559*
Y1549*
X5775Y1544*
X5760*
X5805Y1534D02*
Y1563D01*
X5790Y1549*
X5810*
X5819Y1539D02*
X5824Y1534D01*
X5834*
X5839Y1539*
Y1559*
X5834Y1563*
X5824*
X5819Y1559*
Y1554*
X5824Y1549*
X5839*
X4631Y1531D02*
X4652D01*
X4641*
Y1500*
X4662D02*
Y1531D01*
X4678*
X4683Y1526*
Y1515*
X4678Y1510*
X4662*
X4709Y1500D02*
Y1531D01*
X4694Y1515*
X4715*
X4725Y1526D02*
X4730Y1531D01*
X4741*
X4746Y1526*
Y1521*
X4741Y1515*
X4746Y1510*
Y1505*
X4741Y1500*
X4730*
X4725Y1505*
Y1510*
X4730Y1515*
X4725Y1521*
Y1526*
X4730Y1515D02*
X4741D01*
X4042Y1512D02*
Y1533D01*
Y1523*
X4074*
Y1544D02*
X4042D01*
Y1560*
X4047Y1565*
X4058*
X4063Y1560*
Y1544*
X4074Y1591D02*
X4042D01*
X4058Y1575*
Y1596*
X4042Y1607D02*
Y1628D01*
X4047*
X4068Y1607*
X4074*
X3681Y1522D02*
Y1543D01*
Y1533*
X3713*
Y1554D02*
X3681D01*
Y1570*
X3687Y1575*
X3697*
X3702Y1570*
Y1554*
X3713Y1601D02*
X3681D01*
X3697Y1585*
Y1606*
X3681Y1638D02*
X3687Y1627D01*
X3697Y1617*
X3708*
X3713Y1622*
Y1633*
X3708Y1638*
X3702*
X3697Y1633*
Y1617*
X2867Y1512D02*
Y1533D01*
Y1523*
X2898*
Y1544D02*
X2867D01*
Y1560*
X2872Y1565*
X2883*
X2888Y1560*
Y1544*
X2898Y1591D02*
X2867D01*
X2883Y1575*
Y1596*
X2867Y1628D02*
Y1607D01*
X2883*
X2877Y1617*
Y1623*
X2883Y1628*
X2893*
X2898Y1623*
Y1612*
X2893Y1607*
X2502Y1522D02*
Y1543D01*
Y1533*
X2534*
Y1554D02*
X2502D01*
Y1570*
X2508Y1575*
X2518*
X2523Y1570*
Y1554*
X2534Y1601D02*
X2502D01*
X2518Y1585*
Y1606*
X2534Y1633D02*
X2502D01*
X2518Y1617*
Y1638*
X4385Y3427D02*
X4380Y3433D01*
X4370*
X4364Y3427*
Y3422*
X4370Y3417*
X4380*
X4385Y3412*
Y3406*
X4380Y3401*
X4370*
X4364Y3406*
X4396Y3401D02*
X4406D01*
X4401*
Y3433*
X4396Y3427*
X5179Y965D02*
X5147D01*
Y981*
X5152Y986*
X5163*
X5168Y981*
Y965*
Y976D02*
X5179Y986D01*
Y997D02*
Y1007D01*
Y1002*
X5147*
X5152Y997*
X5179Y1044D02*
Y1023D01*
X5158Y1044*
X5152*
X5147Y1039*
Y1028*
X5152Y1023*
X5147Y1075D02*
Y1054D01*
X5163*
X5158Y1065*
Y1070*
X5163Y1075*
X5173*
X5179Y1070*
Y1060*
X5173Y1054*
X5232Y965D02*
X5200D01*
Y981*
X5206Y986*
X5216*
X5221Y981*
Y965*
Y976D02*
X5232Y986D01*
Y997D02*
Y1007D01*
Y1002*
X5200*
X5206Y997*
X5232Y1044D02*
Y1023D01*
X5211Y1044*
X5206*
X5200Y1039*
Y1028*
X5206Y1023*
X5232Y1070D02*
X5200D01*
X5216Y1054*
Y1075*
X5351Y1307D02*
Y1338D01*
X5366*
X5372Y1333*
Y1322*
X5366Y1317*
X5351*
X5361D02*
X5372Y1307D01*
X5382D02*
X5393D01*
X5387*
Y1338*
X5382Y1333*
X5429Y1307D02*
X5408D01*
X5429Y1328*
Y1333*
X5424Y1338*
X5414*
X5408Y1333*
X5440D02*
X5445Y1338D01*
X5456*
X5461Y1333*
Y1328*
X5456Y1322*
X5450*
X5456*
X5461Y1317*
Y1312*
X5456Y1307*
X5445*
X5440Y1312*
X2125Y2200D02*
X2148Y2222D01*
X2159Y2211*
Y2204*
X2151Y2196*
X2144*
X2133Y2207*
X2140Y2200D02*
Y2185D01*
X2148Y2178D02*
X2155Y2170D01*
X2151Y2174*
X2174Y2196*
X2166*
X2181Y2144D02*
X2166Y2159D01*
X2196*
X2199Y2163*
Y2170*
X2192Y2178*
X2185*
X2203Y2122D02*
X2188Y2137D01*
X2218*
X2222Y2141*
Y2148*
X2214Y2155*
X2207*
X6039Y971D02*
X6007D01*
Y987*
X6013Y992*
X6023*
X6028Y987*
Y971*
Y982D02*
X6039Y992D01*
Y1003D02*
Y1013D01*
Y1008*
X6007*
X6013Y1003*
X6039Y1050D02*
Y1029D01*
X6018Y1050*
X6013*
X6007Y1045*
Y1034*
X6013Y1029*
Y1060D02*
X6007Y1066D01*
Y1076*
X6013Y1081*
X6034*
X6039Y1076*
Y1066*
X6034Y1060*
X6013*
X5960Y971D02*
X5929D01*
Y987*
X5934Y992*
X5944*
X5950Y987*
Y971*
Y982D02*
X5960Y992D01*
Y1003D02*
Y1013D01*
Y1008*
X5929*
X5934Y1003*
X5960Y1029D02*
Y1039D01*
Y1034*
X5929*
X5934Y1029*
Y1055D02*
X5929Y1060D01*
Y1071*
X5934Y1076*
X5939*
X5944Y1071*
X5950Y1076*
X5955*
X5960Y1071*
Y1060*
X5955Y1055*
X5950*
X5944Y1060*
X5939Y1055*
X5934*
X5944Y1060D02*
Y1071D01*
X5811Y1765D02*
Y1797D01*
X5827*
X5832Y1791*
Y1781*
X5827Y1776*
X5811*
X5822D02*
X5832Y1765D01*
X5843D02*
X5853D01*
X5848*
Y1797*
X5843Y1791*
X5869Y1765D02*
X5879D01*
X5874*
Y1797*
X5869Y1791*
X5895Y1797D02*
X5916D01*
Y1791*
X5895Y1771*
Y1765*
X5675Y1753D02*
Y1785D01*
X5691*
X5696Y1780*
Y1769*
X5691Y1764*
X5675*
X5686D02*
X5696Y1753D01*
X5707D02*
X5717D01*
X5712*
Y1785*
X5707Y1780*
X5733Y1753D02*
X5744D01*
X5738*
Y1785*
X5733Y1780*
X5780Y1785D02*
X5770Y1780D01*
X5759Y1769*
Y1759*
X5765Y1753*
X5775*
X5780Y1759*
Y1764*
X5775Y1769*
X5759*
X3973Y2165D02*
Y2196D01*
X3989*
X3994Y2191*
Y2181*
X3989Y2175*
X3973*
X3984D02*
X3994Y2165D01*
X4005D02*
X4015D01*
X4010*
Y2196*
X4005Y2191*
X4031Y2165D02*
X4041D01*
X4036*
Y2196*
X4031Y2191*
X4078Y2196D02*
X4057D01*
Y2181*
X4068Y2186*
X4073*
X4078Y2181*
Y2170*
X4073Y2165*
X4062*
X4057Y2170*
X5251Y1550D02*
X5220D01*
Y1566*
X5225Y1571*
X5236*
X5241Y1566*
Y1550*
Y1560D02*
X5251Y1571D01*
Y1581D02*
Y1592D01*
Y1587*
X5220*
X5225Y1581*
X5251Y1608D02*
Y1618D01*
Y1613*
X5220*
X5225Y1608*
X5251Y1650D02*
X5220D01*
X5236Y1634*
Y1655*
X5200Y1550D02*
X5169D01*
Y1566*
X5174Y1571*
X5185*
X5190Y1566*
Y1550*
Y1560D02*
X5200Y1571D01*
Y1581D02*
Y1592D01*
Y1587*
X5169*
X5174Y1581*
X5200Y1608D02*
Y1618D01*
Y1613*
X5169*
X5174Y1608*
Y1634D02*
X5169Y1639D01*
Y1650*
X5174Y1655*
X5179*
X5185Y1650*
Y1644*
Y1650*
X5190Y1655*
X5195*
X5200Y1650*
Y1639*
X5195Y1634*
X1978Y2807D02*
X1946D01*
Y2823*
X1952Y2828*
X1962*
X1967Y2823*
Y2807*
Y2818D02*
X1978Y2828D01*
Y2839D02*
Y2849D01*
Y2844*
X1946*
X1952Y2839*
X1978Y2865D02*
Y2875D01*
Y2870*
X1946*
X1952Y2865*
X1978Y2912D02*
Y2891D01*
X1957Y2912*
X1952*
X1946Y2907*
Y2896*
X1952Y2891*
X2222Y2900D02*
X2190D01*
Y2916*
X2196Y2921*
X2206*
X2211Y2916*
Y2900*
Y2911D02*
X2222Y2921D01*
Y2932D02*
Y2942D01*
Y2937*
X2190*
X2196Y2932*
X2222Y2958D02*
Y2969D01*
Y2963*
X2190*
X2196Y2958*
X2222Y2984D02*
Y2995D01*
Y2990*
X2190*
X2196Y2984*
X2608Y2161D02*
X2630Y2183D01*
X2641Y2172*
Y2164*
X2634Y2157*
X2626*
X2615Y2168*
X2622Y2161D02*
Y2146D01*
X2630Y2138D02*
X2637Y2131D01*
X2634Y2135*
X2656Y2157*
X2648*
Y2120D02*
X2656Y2112D01*
X2652Y2116*
X2674Y2138*
X2667*
X2685Y2120D02*
X2693D01*
X2700Y2112*
Y2105*
X2685Y2090*
X2678*
X2671Y2097*
Y2105*
X2685Y2120*
X2501Y2054D02*
X2524Y2076D01*
X2535Y2065*
Y2058*
X2527Y2051*
X2520*
X2509Y2062*
X2516Y2054D02*
Y2039D01*
X2524Y2032D02*
X2531Y2025D01*
X2527Y2028*
X2549Y2051*
X2542*
X2561Y2032D02*
X2568D01*
X2575Y2025*
Y2017*
X2561Y2002*
X2553*
X2546Y2010*
Y2017*
X2561Y2032*
X2568Y1995D02*
Y1987D01*
X2575Y1980*
X2583*
X2598Y1995*
Y2002*
X2590Y2010*
X2583*
X2579Y2006*
Y1999*
X2590Y1987*
X2537Y2090D02*
X2559Y2112D01*
X2570Y2101*
Y2093*
X2563Y2086*
X2555*
X2544Y2097*
X2552Y2090D02*
Y2075D01*
X2559Y2067D02*
X2566Y2060D01*
X2563Y2064*
X2585Y2086*
X2578*
X2596Y2067D02*
X2603D01*
X2611Y2060*
Y2053*
X2596Y2038*
X2589*
X2581Y2045*
Y2053*
X2596Y2067*
X2618Y2045D02*
X2626D01*
X2633Y2038*
Y2030*
X2629Y2027*
X2622*
Y2019*
X2618Y2015*
X2611*
X2603Y2023*
Y2030*
X2607Y2034*
X2615*
Y2041*
X2618Y2045*
X2615Y2034D02*
X2622Y2027D01*
X2572Y2125D02*
X2594Y2147D01*
X2606Y2136*
Y2129*
X2598Y2121*
X2591*
X2580Y2133*
X2587Y2125D02*
Y2110D01*
X2594Y2103D02*
X2602Y2095D01*
X2598Y2099*
X2620Y2121*
X2613*
X2631Y2103D02*
X2639D01*
X2646Y2095*
Y2088*
X2631Y2073*
X2624*
X2617Y2081*
Y2088*
X2631Y2103*
X2657Y2084D02*
X2672Y2069D01*
X2669Y2066*
X2639*
X2635Y2062*
X1908Y2275D02*
Y2307D01*
X1924*
X1929Y2301*
Y2291*
X1924Y2286*
X1908*
X1918D02*
X1929Y2275D01*
X1939D02*
X1950D01*
X1945*
Y2307*
X1939Y2301*
X1966D02*
X1971Y2307D01*
X1981*
X1987Y2301*
Y2280*
X1981Y2275*
X1971*
X1966Y2280*
Y2301*
X2018Y2307D02*
X2008Y2301D01*
X1997Y2291*
Y2280*
X2002Y2275*
X2013*
X2018Y2280*
Y2286*
X2013Y2291*
X1997*
X2051Y2993D02*
X2019D01*
Y3009*
X2024Y3014*
X2035*
X2040Y3009*
Y2993*
Y3003D02*
X2051Y3014D01*
Y3024D02*
Y3035D01*
Y3030*
X2019*
X2024Y3024*
Y3051D02*
X2019Y3056D01*
Y3066*
X2024Y3072*
X2045*
X2051Y3066*
Y3056*
X2045Y3051*
X2024*
X2019Y3103D02*
Y3082D01*
X2035*
X2030Y3093*
Y3098*
X2035Y3103*
X2045*
X2051Y3098*
Y3087*
X2045Y3082*
X1861Y2755D02*
Y2787D01*
X1876*
X1882Y2782*
Y2771*
X1876Y2766*
X1861*
X1871D02*
X1882Y2755D01*
X1892D02*
X1903D01*
X1897*
Y2787*
X1892Y2782*
X1918D02*
X1924Y2787D01*
X1934*
X1939Y2782*
Y2761*
X1934Y2755*
X1924*
X1918Y2761*
Y2782*
X1966Y2755D02*
Y2787D01*
X1950Y2771*
X1971*
X4366Y1575D02*
X4334D01*
Y1591*
X4339Y1596*
X4350*
X4355Y1591*
Y1575*
Y1586D02*
X4366Y1596D01*
Y1607D02*
Y1617D01*
Y1612*
X4334*
X4339Y1607*
Y1633D02*
X4334Y1638D01*
Y1649*
X4339Y1654*
X4360*
X4366Y1649*
Y1638*
X4360Y1633*
X4339*
Y1665D02*
X4334Y1670D01*
Y1680*
X4339Y1686*
X4345*
X4350Y1680*
Y1675*
Y1680*
X4355Y1686*
X4360*
X4366Y1680*
Y1670*
X4360Y1665*
X2320Y2900D02*
X2289D01*
Y2916*
X2294Y2921*
X2305*
X2310Y2916*
Y2900*
Y2911D02*
X2320Y2921D01*
Y2932D02*
Y2942D01*
Y2937*
X2289*
X2294Y2932*
Y2958D02*
X2289Y2963D01*
Y2974*
X2294Y2979*
X2315*
X2320Y2974*
Y2963*
X2315Y2958*
X2294*
X2320Y3010D02*
Y2990D01*
X2299Y3010*
X2294*
X2289Y3005*
Y2995*
X2294Y2990*
X2370Y2900D02*
X2338D01*
Y2916*
X2343Y2921*
X2354*
X2359Y2916*
Y2900*
Y2911D02*
X2370Y2921D01*
Y2932D02*
Y2942D01*
Y2937*
X2338*
X2343Y2932*
Y2958D02*
X2338Y2963D01*
Y2974*
X2343Y2979*
X2364*
X2370Y2974*
Y2963*
X2364Y2958*
X2343*
X2370Y2990D02*
Y3000D01*
Y2995*
X2338*
X2343Y2990*
X2419Y2900D02*
X2387D01*
Y2916*
X2393Y2921*
X2403*
X2408Y2916*
Y2900*
Y2911D02*
X2419Y2921D01*
Y2932D02*
Y2942D01*
Y2937*
X2387*
X2393Y2932*
Y2958D02*
X2387Y2963D01*
Y2974*
X2393Y2979*
X2414*
X2419Y2974*
Y2963*
X2414Y2958*
X2393*
Y2990D02*
X2387Y2995D01*
Y3005*
X2393Y3010*
X2414*
X2419Y3005*
Y2995*
X2414Y2990*
X2393*
X4425Y1575D02*
X4393D01*
Y1591*
X4398Y1596*
X4409*
X4414Y1591*
Y1575*
Y1586D02*
X4425Y1596D01*
X4419Y1607D02*
X4425Y1612D01*
Y1623*
X4419Y1628*
X4398*
X4393Y1623*
Y1612*
X4398Y1607*
X4404*
X4409Y1612*
Y1628*
X4419Y1638D02*
X4425Y1644D01*
Y1654*
X4419Y1659*
X4398*
X4393Y1654*
Y1644*
X4398Y1638*
X4404*
X4409Y1644*
Y1659*
X4507Y1578D02*
Y1610D01*
X4522*
X4528Y1604*
Y1594*
X4522Y1589*
X4507*
X4517D02*
X4528Y1578D01*
X4538Y1583D02*
X4543Y1578D01*
X4554*
X4559Y1583*
Y1604*
X4554Y1610*
X4543*
X4538Y1604*
Y1599*
X4543Y1594*
X4559*
X4570Y1604D02*
X4575Y1610D01*
X4585*
X4591Y1604*
Y1599*
X4585Y1594*
X4591Y1589*
Y1583*
X4585Y1578*
X4575*
X4570Y1583*
Y1589*
X4575Y1594*
X4570Y1599*
Y1604*
X4575Y1594D02*
X4585D01*
X4505Y1641D02*
Y1673D01*
X4520*
X4526Y1667*
Y1657*
X4520Y1652*
X4505*
X4515D02*
X4526Y1641D01*
X4536Y1646D02*
X4541Y1641D01*
X4552*
X4557Y1646*
Y1667*
X4552Y1673*
X4541*
X4536Y1667*
Y1662*
X4541Y1657*
X4557*
X4568Y1673D02*
X4589D01*
Y1667*
X4568Y1646*
Y1641*
X4334Y1422D02*
X4303D01*
Y1438*
X4308Y1443*
X4318*
X4324Y1438*
Y1422*
Y1433D02*
X4334Y1443D01*
X4329Y1454D02*
X4334Y1459D01*
Y1469*
X4329Y1475*
X4308*
X4303Y1469*
Y1459*
X4308Y1454*
X4313*
X4318Y1459*
Y1475*
X4303Y1506D02*
X4308Y1496D01*
X4318Y1485*
X4329*
X4334Y1490*
Y1501*
X4329Y1506*
X4324*
X4318Y1501*
Y1485*
X3916Y1592D02*
Y1624D01*
X3932*
X3937Y1618*
Y1608*
X3932Y1603*
X3916*
X3927D02*
X3937Y1592D01*
X3948Y1597D02*
X3953Y1592D01*
X3963*
X3969Y1597*
Y1618*
X3963Y1624*
X3953*
X3948Y1618*
Y1613*
X3953Y1608*
X3969*
X4000Y1624D02*
X3979D01*
Y1608*
X3990Y1613*
X3995*
X4000Y1608*
Y1597*
X3995Y1592*
X3984*
X3979Y1597*
X3755Y1592D02*
Y1624D01*
X3771*
X3776Y1618*
Y1608*
X3771Y1603*
X3755*
X3765D02*
X3776Y1592D01*
X3786Y1597D02*
X3792Y1592D01*
X3802*
X3807Y1597*
Y1618*
X3802Y1624*
X3792*
X3786Y1618*
Y1613*
X3792Y1608*
X3807*
X3834Y1592D02*
Y1624D01*
X3818Y1608*
X3839*
X3916Y1651D02*
Y1683D01*
X3932*
X3937Y1677*
Y1667*
X3932Y1662*
X3916*
X3927D02*
X3937Y1651D01*
X3948Y1656D02*
X3953Y1651D01*
X3963*
X3969Y1656*
Y1677*
X3963Y1683*
X3953*
X3948Y1677*
Y1672*
X3953Y1667*
X3969*
X3979Y1677D02*
X3984Y1683D01*
X3995*
X4000Y1677*
Y1672*
X3995Y1667*
X3990*
X3995*
X4000Y1662*
Y1656*
X3995Y1651*
X3984*
X3979Y1656*
X3755Y1651D02*
Y1683D01*
X3771*
X3776Y1677*
Y1667*
X3771Y1662*
X3755*
X3765D02*
X3776Y1651D01*
X3786Y1656D02*
X3792Y1651D01*
X3802*
X3807Y1656*
Y1677*
X3802Y1683*
X3792*
X3786Y1677*
Y1672*
X3792Y1667*
X3807*
X3839Y1651D02*
X3818D01*
X3839Y1672*
Y1677*
X3834Y1683*
X3823*
X3818Y1677*
X3740Y1398D02*
X3708D01*
Y1414*
X3713Y1419*
X3724*
X3729Y1414*
Y1398*
Y1408D02*
X3740Y1419D01*
X3734Y1429D02*
X3740Y1435D01*
Y1445*
X3734Y1450*
X3713*
X3708Y1445*
Y1435*
X3713Y1429*
X3719*
X3724Y1435*
Y1450*
X3740Y1461D02*
Y1471D01*
Y1466*
X3708*
X3713Y1461*
X2739Y1582D02*
Y1614D01*
X2755*
X2760Y1608*
Y1598*
X2755Y1593*
X2739*
X2749D02*
X2760Y1582D01*
X2770Y1587D02*
X2776Y1582D01*
X2786*
X2791Y1587*
Y1608*
X2786Y1614*
X2776*
X2770Y1608*
Y1603*
X2776Y1598*
X2791*
X2802Y1608D02*
X2807Y1614D01*
X2818*
X2823Y1608*
Y1587*
X2818Y1582*
X2807*
X2802Y1587*
Y1608*
X2574Y1580D02*
Y1612D01*
X2590*
X2595Y1606*
Y1596*
X2590Y1591*
X2574*
X2584D02*
X2595Y1580D01*
X2605Y1606D02*
X2611Y1612D01*
X2621*
X2626Y1606*
Y1601*
X2621Y1596*
X2626Y1591*
Y1585*
X2621Y1580*
X2611*
X2605Y1585*
Y1591*
X2611Y1596*
X2605Y1601*
Y1606*
X2611Y1596D02*
X2621D01*
X2637Y1585D02*
X2642Y1580D01*
X2653*
X2658Y1585*
Y1606*
X2653Y1612*
X2642*
X2637Y1606*
Y1601*
X2642Y1596*
X2658*
X2739Y1641D02*
Y1673D01*
X2755*
X2760Y1667*
Y1657*
X2755Y1652*
X2739*
X2749D02*
X2760Y1641D01*
X2770Y1667D02*
X2776Y1673D01*
X2786*
X2791Y1667*
Y1662*
X2786Y1657*
X2791Y1652*
Y1646*
X2786Y1641*
X2776*
X2770Y1646*
Y1652*
X2776Y1657*
X2770Y1662*
Y1667*
X2776Y1657D02*
X2786D01*
X2802Y1667D02*
X2807Y1673D01*
X2818*
X2823Y1667*
Y1662*
X2818Y1657*
X2823Y1652*
Y1646*
X2818Y1641*
X2807*
X2802Y1646*
Y1652*
X2807Y1657*
X2802Y1662*
Y1667*
X2807Y1657D02*
X2818D01*
X2574Y1639D02*
Y1671D01*
X2590*
X2595Y1666*
Y1655*
X2590Y1650*
X2574*
X2584D02*
X2595Y1639D01*
X2605Y1666D02*
X2611Y1671D01*
X2621*
X2626Y1666*
Y1660*
X2621Y1655*
X2626Y1650*
Y1645*
X2621Y1639*
X2611*
X2605Y1645*
Y1650*
X2611Y1655*
X2605Y1660*
Y1666*
X2611Y1655D02*
X2621D01*
X2637Y1671D02*
X2658D01*
Y1666*
X2637Y1645*
Y1639*
X2562Y1385D02*
X2531D01*
Y1400*
X2536Y1406*
X2547*
X2552Y1400*
Y1385*
Y1395D02*
X2562Y1406D01*
X2536Y1416D02*
X2531Y1421D01*
Y1432*
X2536Y1437*
X2542*
X2547Y1432*
X2552Y1437*
X2557*
X2562Y1432*
Y1421*
X2557Y1416*
X2552*
X2547Y1421*
X2542Y1416*
X2536*
X2547Y1421D02*
Y1432D01*
X2531Y1469D02*
X2536Y1458D01*
X2547Y1448*
X2557*
X2562Y1453*
Y1463*
X2557Y1469*
X2552*
X2547Y1463*
Y1448*
X5545Y1746D02*
X5534D01*
X5540*
Y1719*
X5534Y1714*
X5529*
X5524Y1719*
X5555Y1714D02*
Y1746D01*
X5571*
X5576Y1740*
Y1730*
X5571Y1725*
X5555*
X5587Y1714D02*
X5597D01*
X5592*
Y1746*
X5587Y1740*
X5369Y1783D02*
X5358D01*
X5364*
Y1757*
X5358Y1751*
X5353*
X5348Y1757*
X5379Y1751D02*
X5390D01*
X5385*
Y1783*
X5379Y1778*
X5406Y1783D02*
X5427D01*
Y1778*
X5406Y1757*
Y1751*
X1421Y2639D02*
Y2628D01*
Y2633*
X1447*
X1452Y2628*
Y2623*
X1447Y2618*
X1452Y2649D02*
Y2660D01*
Y2654*
X1421*
X1426Y2649*
X1452Y2696D02*
Y2675D01*
X1431Y2696*
X1426*
X1421Y2691*
Y2681*
X1426Y2675*
X2329Y4301D02*
X2318D01*
X2324*
Y4274*
X2318Y4269*
X2313*
X2308Y4274*
X2339Y4269D02*
X2350D01*
X2345*
Y4301*
X2339Y4295*
X2366Y4269D02*
X2376D01*
X2371*
Y4301*
X2366Y4295*
X5412Y1230D02*
X5402D01*
X5407*
Y1204*
X5402Y1198*
X5396*
X5391Y1204*
X5423Y1198D02*
X5433D01*
X5428*
Y1230*
X5423Y1225*
X5449D02*
X5454Y1230D01*
X5465*
X5470Y1225*
Y1204*
X5465Y1198*
X5454*
X5449Y1204*
Y1225*
X4928Y1008D02*
Y998D01*
Y1003*
X4954*
X4959Y998*
Y992*
X4954Y987*
Y1019D02*
X4959Y1024D01*
Y1034*
X4954Y1040*
X4933*
X4928Y1034*
Y1024*
X4933Y1019*
X4938*
X4944Y1024*
Y1040*
X4337Y831D02*
Y820D01*
Y826*
X4364*
X4369Y820*
Y815*
X4364Y810*
X4343Y841D02*
X4337Y847D01*
Y857*
X4343Y862*
X4348*
X4353Y857*
X4358Y862*
X4364*
X4369Y857*
Y847*
X4364Y841*
X4358*
X4353Y847*
X4348Y841*
X4343*
X4353Y847D02*
Y857D01*
X3747Y831D02*
Y820D01*
Y826*
X3773*
X3778Y820*
Y815*
X3773Y810*
X3747Y841D02*
Y862D01*
X3752*
X3773Y841*
X3778*
X3156Y831D02*
Y820D01*
Y826*
X3182*
X3188Y820*
Y815*
X3182Y810*
X3156Y862D02*
X3161Y852D01*
X3172Y841*
X3182*
X3188Y847*
Y857*
X3182Y862*
X3177*
X3172Y857*
Y841*
X1608Y4297D02*
X1598D01*
X1603*
Y4271*
X1598Y4265*
X1593*
X1587Y4271*
X1640Y4297D02*
X1619D01*
Y4281*
X1629Y4286*
X1635*
X1640Y4281*
Y4271*
X1635Y4265*
X1624*
X1619Y4271*
X2566Y831D02*
Y820D01*
Y826*
X2592*
X2597Y820*
Y815*
X2592Y810*
X2597Y857D02*
X2566D01*
X2581Y841*
Y862*
X4345Y3746D02*
X4334D01*
X4339*
Y3719*
X4334Y3714*
X4329*
X4324Y3719*
X4355Y3740D02*
X4360Y3746D01*
X4371*
X4376Y3740*
Y3735*
X4371Y3730*
X4366*
X4371*
X4376Y3725*
Y3719*
X4371Y3714*
X4360*
X4355Y3719*
X1146Y3477D02*
X1141Y3471D01*
Y3461*
X1146Y3456*
X1167*
X1173Y3461*
Y3471*
X1167Y3477*
X1173Y3508D02*
Y3487D01*
X1152Y3508*
X1146*
X1141Y3503*
Y3492*
X1146Y3487*
X1173Y3519D02*
Y3529D01*
Y3524*
X1141*
X1146Y3519*
X1173Y3545D02*
Y3555D01*
Y3550*
X1141*
X1146Y3545*
X5917Y1307D02*
X5912Y1312D01*
X5902*
X5896Y1307*
Y1286*
X5902Y1281*
X5912*
X5917Y1286*
X5949Y1281D02*
X5928D01*
X5949Y1302*
Y1307*
X5944Y1312*
X5933*
X5928Y1307*
X5959D02*
X5965Y1312D01*
X5975*
X5980Y1307*
Y1286*
X5975Y1281*
X5965*
X5959Y1286*
Y1307*
X5991D02*
X5996Y1312D01*
X6007*
X6012Y1307*
Y1302*
X6007Y1297*
X6012Y1292*
Y1286*
X6007Y1281*
X5996*
X5991Y1286*
Y1292*
X5996Y1297*
X5991Y1302*
Y1307*
X5996Y1297D02*
X6007D01*
X5366Y1386D02*
X5361Y1391D01*
X5351*
X5345Y1386*
Y1365*
X5351Y1360*
X5361*
X5366Y1365*
X5398Y1360D02*
X5377D01*
X5398Y1381*
Y1386*
X5393Y1391*
X5382*
X5377Y1386*
X5408D02*
X5414Y1391D01*
X5424*
X5429Y1386*
Y1365*
X5424Y1360*
X5414*
X5408Y1365*
Y1386*
X5440Y1391D02*
X5461D01*
Y1386*
X5440Y1365*
Y1360*
X5402Y1595D02*
X5397Y1600D01*
X5386*
X5381Y1595*
Y1574*
X5386Y1568*
X5397*
X5402Y1574*
X5433Y1568D02*
X5412D01*
X5433Y1589*
Y1595*
X5428Y1600*
X5417*
X5412Y1595*
X5444D02*
X5449Y1600D01*
X5459*
X5465Y1595*
Y1574*
X5459Y1568*
X5449*
X5444Y1574*
Y1595*
X5496Y1600D02*
X5475D01*
Y1584*
X5486Y1589*
X5491*
X5496Y1584*
Y1574*
X5491Y1568*
X5480*
X5475Y1574*
X5406Y1545D02*
X5400Y1551D01*
X5390*
X5385Y1545*
Y1524*
X5390Y1519*
X5400*
X5406Y1524*
X5437Y1519D02*
X5416D01*
X5437Y1540*
Y1545*
X5432Y1551*
X5421*
X5416Y1545*
X5448D02*
X5453Y1551D01*
X5463*
X5469Y1545*
Y1524*
X5463Y1519*
X5453*
X5448Y1524*
Y1545*
X5495Y1519D02*
Y1551D01*
X5479Y1535*
X5500*
X5866Y1603D02*
X5862Y1599D01*
Y1589*
X5866Y1585*
X5885*
X5889Y1589*
Y1599*
X5885Y1603*
X5889Y1631D02*
Y1612D01*
X5871Y1631*
X5866*
X5862Y1626*
Y1617*
X5866Y1612*
Y1640D02*
X5862Y1645D01*
Y1654*
X5866Y1658*
X5885*
X5889Y1654*
Y1645*
X5885Y1640*
X5866*
Y1667D02*
X5862Y1672D01*
Y1681*
X5866Y1686*
X5871*
X5875Y1681*
Y1677*
Y1681*
X5880Y1686*
X5885*
X5889Y1681*
Y1672*
X5885Y1667*
X5675Y1223D02*
X5670Y1228D01*
X5660*
X5654Y1223*
Y1202*
X5660Y1196*
X5670*
X5675Y1202*
X5707Y1196D02*
X5686D01*
X5707Y1217*
Y1223*
X5702Y1228*
X5691*
X5686Y1223*
X5717D02*
X5723Y1228D01*
X5733*
X5738Y1223*
Y1202*
X5733Y1196*
X5723*
X5717Y1202*
Y1223*
X5770Y1196D02*
X5749D01*
X5770Y1217*
Y1223*
X5765Y1228*
X5754*
X5749Y1223*
X5919Y1354D02*
X5914Y1360D01*
X5904*
X5898Y1354*
Y1333*
X5904Y1328*
X5914*
X5919Y1333*
X5951Y1328D02*
X5930D01*
X5951Y1349*
Y1354*
X5946Y1360*
X5935*
X5930Y1354*
X5961D02*
X5967Y1360D01*
X5977*
X5982Y1354*
Y1333*
X5977Y1328*
X5967*
X5961Y1333*
Y1354*
X5993Y1328D02*
X6003D01*
X5998*
Y1360*
X5993Y1354*
X5539Y1518D02*
X5531D01*
X5524Y1511*
Y1503*
X5539Y1489*
X5546*
X5554Y1496*
Y1503*
X5565Y1507D02*
X5572Y1515D01*
X5569Y1511*
X5546Y1533*
Y1526*
X5580Y1529D02*
X5587D01*
X5594Y1537*
Y1544*
X5580Y1559*
X5572*
X5565Y1552*
Y1544*
X5569Y1541*
X5576*
X5587Y1552*
X5602D02*
X5609D01*
X5617Y1559*
Y1566*
X5602Y1581*
X5594*
X5587Y1574*
Y1566*
X5591Y1563*
X5598*
X5609Y1574*
X5182Y1232D02*
X5177Y1238D01*
X5166*
X5161Y1232*
Y1211*
X5166Y1206*
X5177*
X5182Y1211*
X5192Y1206D02*
X5203D01*
X5198*
Y1238*
X5192Y1232*
X5219Y1211D02*
X5224Y1206D01*
X5234*
X5240Y1211*
Y1232*
X5234Y1238*
X5224*
X5219Y1232*
Y1227*
X5224Y1222*
X5240*
X5266Y1206D02*
Y1238D01*
X5250Y1222*
X5271*
X5182Y1282D02*
X5177Y1287D01*
X5166*
X5161Y1282*
Y1261*
X5166Y1255*
X5177*
X5182Y1261*
X5192Y1255D02*
X5203D01*
X5198*
Y1287*
X5192Y1282*
X5219Y1261D02*
X5224Y1255D01*
X5234*
X5240Y1261*
Y1282*
X5234Y1287*
X5224*
X5219Y1282*
Y1276*
X5224Y1271*
X5240*
X5250Y1282D02*
X5255Y1287D01*
X5266*
X5271Y1282*
Y1276*
X5266Y1271*
X5261*
X5266*
X5271Y1266*
Y1261*
X5266Y1255*
X5255*
X5250Y1261*
X5093Y1379D02*
X5088Y1374D01*
Y1363*
X5093Y1358*
X5114*
X5120Y1363*
Y1374*
X5114Y1379*
X5120Y1389D02*
Y1400D01*
Y1395*
X5088*
X5093Y1389*
X5114Y1416D02*
X5120Y1421D01*
Y1431*
X5114Y1437*
X5093*
X5088Y1431*
Y1421*
X5093Y1416*
X5099*
X5104Y1421*
Y1437*
X5120Y1468D02*
Y1447D01*
X5099Y1468*
X5093*
X5088Y1463*
Y1452*
X5093Y1447*
X2131Y2976D02*
X2125Y2971D01*
Y2961*
X2131Y2955*
X2152*
X2157Y2961*
Y2971*
X2152Y2976*
X2157Y2987D02*
Y2997D01*
Y2992*
X2125*
X2131Y2987*
Y3013D02*
X2125Y3018D01*
Y3029*
X2131Y3034*
X2136*
X2141Y3029*
X2146Y3034*
X2152*
X2157Y3029*
Y3018*
X2152Y3013*
X2146*
X2141Y3018*
X2136Y3013*
X2131*
X2141Y3018D02*
Y3029D01*
X2131Y3045D02*
X2125Y3050D01*
Y3060*
X2131Y3066*
X2136*
X2141Y3060*
X2146Y3066*
X2152*
X2157Y3060*
Y3050*
X2152Y3045*
X2146*
X2141Y3050*
X2136Y3045*
X2131*
X2141Y3050D02*
Y3060D01*
X4387Y1065D02*
X4381Y1059D01*
Y1049*
X4387Y1044*
X4408*
X4413Y1049*
Y1059*
X4408Y1065*
X4413Y1075D02*
Y1086D01*
Y1080*
X4381*
X4387Y1075*
Y1101D02*
X4381Y1107D01*
Y1117*
X4387Y1122*
X4392*
X4397Y1117*
X4402Y1122*
X4408*
X4413Y1117*
Y1107*
X4408Y1101*
X4402*
X4397Y1107*
X4392Y1101*
X4387*
X4397Y1107D02*
Y1117D01*
X4387Y1133D02*
X4381Y1138D01*
Y1149*
X4387Y1154*
X4408*
X4413Y1149*
Y1138*
X4408Y1133*
X4387*
X4528Y1065D02*
X4523Y1059D01*
Y1049*
X4528Y1044*
X4549*
X4555Y1049*
Y1059*
X4549Y1065*
X4555Y1075D02*
Y1086D01*
Y1080*
X4523*
X4528Y1075*
X4523Y1101D02*
Y1122D01*
X4528*
X4549Y1101*
X4555*
X4549Y1133D02*
X4555Y1138D01*
Y1149*
X4549Y1154*
X4528*
X4523Y1149*
Y1138*
X4528Y1133*
X4534*
X4539Y1138*
Y1154*
X4458Y1065D02*
X4452Y1059D01*
Y1049*
X4458Y1044*
X4479*
X4484Y1049*
Y1059*
X4479Y1065*
X4484Y1075D02*
Y1086D01*
Y1080*
X4452*
X4458Y1075*
X4452Y1101D02*
Y1122D01*
X4458*
X4479Y1101*
X4484*
X4458Y1133D02*
X4452Y1138D01*
Y1149*
X4458Y1154*
X4463*
X4468Y1149*
X4473Y1154*
X4479*
X4484Y1149*
Y1138*
X4479Y1133*
X4473*
X4468Y1138*
X4463Y1133*
X4458*
X4468Y1138D02*
Y1149D01*
X1898Y2437D02*
X1903Y2442D01*
Y2453*
X1898Y2458*
X1877*
X1872Y2453*
Y2442*
X1877Y2437*
X1872Y2427D02*
Y2416D01*
Y2421*
X1903*
X1898Y2427*
X1903Y2400D02*
Y2379D01*
X1898*
X1877Y2400*
X1872*
X1903Y2369D02*
Y2348D01*
X1898*
X1877Y2369*
X1872*
X1587Y2313D02*
X1582Y2318D01*
X1572*
X1566Y2313*
Y2292*
X1572Y2287*
X1582*
X1587Y2292*
X1598Y2287D02*
X1608D01*
X1603*
Y2318*
X1598Y2313*
X1624Y2318D02*
X1645D01*
Y2313*
X1624Y2292*
Y2287*
X1677Y2318D02*
X1666Y2313D01*
X1656Y2303*
Y2292*
X1661Y2287*
X1671*
X1677Y2292*
Y2297*
X1671Y2303*
X1656*
X2626Y2256D02*
X2621Y2261D01*
X2610*
X2605Y2256*
Y2235*
X2610Y2230*
X2621*
X2626Y2235*
X2637Y2230D02*
X2647D01*
X2642*
Y2261*
X2637Y2256*
X2663Y2261D02*
X2684D01*
Y2256*
X2663Y2235*
Y2230*
X2694Y2256D02*
X2699Y2261D01*
X2710*
X2715Y2256*
Y2251*
X2710Y2246*
X2705*
X2710*
X2715Y2240*
Y2235*
X2710Y2230*
X2699*
X2694Y2235*
X2257Y2074D02*
X2251Y2069D01*
Y2059*
X2257Y2053*
X2278*
X2283Y2059*
Y2069*
X2278Y2074*
X2283Y2085D02*
Y2095D01*
Y2090*
X2251*
X2257Y2085*
X2251Y2111D02*
Y2132D01*
X2257*
X2278Y2111*
X2283*
Y2164D02*
Y2143D01*
X2262Y2164*
X2257*
X2251Y2158*
Y2148*
X2257Y2143*
X2398Y2085D02*
X2393Y2080D01*
Y2069*
X2398Y2064*
X2419*
X2425Y2069*
Y2080*
X2419Y2085*
X2425Y2095D02*
Y2106D01*
Y2101*
X2393*
X2398Y2095*
X2393Y2122D02*
Y2143D01*
X2398*
X2419Y2122*
X2425*
Y2153D02*
Y2164D01*
Y2158*
X2393*
X2398Y2153*
X1882Y2729D02*
X1876Y2734D01*
X1866*
X1861Y2729*
Y2708*
X1866Y2702*
X1876*
X1882Y2708*
X1892Y2702D02*
X1903D01*
X1897*
Y2734*
X1892Y2729*
X1939Y2734D02*
X1929Y2729D01*
X1918Y2718*
Y2708*
X1924Y2702*
X1934*
X1939Y2708*
Y2713*
X1934Y2718*
X1918*
X1950Y2734D02*
X1971D01*
Y2729*
X1950Y2708*
Y2702*
X2491Y2921D02*
X2486Y2916D01*
Y2906*
X2491Y2900*
X2512*
X2517Y2906*
Y2916*
X2512Y2921*
X2517Y2932D02*
Y2942D01*
Y2937*
X2486*
X2491Y2932*
X2486Y2979D02*
X2491Y2969D01*
X2501Y2958*
X2512*
X2517Y2963*
Y2974*
X2512Y2979*
X2507*
X2501Y2974*
Y2958*
X2486Y3010D02*
X2491Y3000D01*
X2501Y2990*
X2512*
X2517Y2995*
Y3005*
X2512Y3010*
X2507*
X2501Y3005*
Y2990*
X2624Y2675D02*
X2619Y2681D01*
X2608*
X2603Y2675*
Y2654*
X2608Y2649*
X2619*
X2624Y2654*
X2635Y2649D02*
X2645D01*
X2640*
Y2681*
X2635Y2675*
X2682Y2681D02*
X2671Y2675D01*
X2661Y2665*
Y2654*
X2666Y2649*
X2677*
X2682Y2654*
Y2660*
X2677Y2665*
X2661*
X2713Y2681D02*
X2692D01*
Y2665*
X2703Y2670*
X2708*
X2713Y2665*
Y2654*
X2708Y2649*
X2698*
X2692Y2654*
X2661Y2321D02*
X2656Y2326D01*
X2646*
X2640Y2321*
Y2300*
X2646Y2295*
X2656*
X2661Y2300*
X2672Y2295D02*
X2682D01*
X2677*
Y2326*
X2672Y2321*
X2719Y2326D02*
X2709Y2321D01*
X2698Y2311*
Y2300*
X2703Y2295*
X2714*
X2719Y2300*
Y2305*
X2714Y2311*
X2698*
X2745Y2295D02*
Y2326D01*
X2730Y2311*
X2751*
X1960Y2398D02*
X1955Y2403D01*
X1945*
X1939Y2398*
Y2377*
X1945Y2372*
X1955*
X1960Y2377*
X1971Y2372D02*
X1981D01*
X1976*
Y2403*
X1971Y2398*
X2018Y2403D02*
X2008Y2398D01*
X1997Y2387*
Y2377*
X2002Y2372*
X2013*
X2018Y2377*
Y2382*
X2013Y2387*
X1997*
X2028Y2398D02*
X2034Y2403D01*
X2044*
X2049Y2398*
Y2393*
X2044Y2387*
X2039*
X2044*
X2049Y2382*
Y2377*
X2044Y2372*
X2034*
X2028Y2377*
X1882Y2675D02*
X1876Y2681D01*
X1866*
X1861Y2675*
Y2654*
X1866Y2649*
X1876*
X1882Y2654*
X1892Y2649D02*
X1903D01*
X1897*
Y2681*
X1892Y2675*
X1939Y2681D02*
X1929Y2675D01*
X1918Y2665*
Y2654*
X1924Y2649*
X1934*
X1939Y2654*
Y2660*
X1934Y2665*
X1918*
X1971Y2649D02*
X1950D01*
X1971Y2670*
Y2675*
X1966Y2681*
X1955*
X1950Y2675*
X2245Y2921D02*
X2240Y2916D01*
Y2906*
X2245Y2900*
X2266*
X2271Y2906*
Y2916*
X2266Y2921*
X2271Y2932D02*
Y2942D01*
Y2937*
X2240*
X2245Y2932*
X2240Y2979D02*
X2245Y2969D01*
X2255Y2958*
X2266*
X2271Y2963*
Y2974*
X2266Y2979*
X2261*
X2255Y2974*
Y2958*
X2271Y2990D02*
Y3000D01*
Y2995*
X2240*
X2245Y2990*
X2540Y2921D02*
X2535Y2916D01*
Y2906*
X2540Y2900*
X2561*
X2566Y2906*
Y2916*
X2561Y2921*
X2566Y2932D02*
Y2942D01*
Y2937*
X2535*
X2540Y2932*
X2535Y2979D02*
X2540Y2969D01*
X2551Y2958*
X2561*
X2566Y2963*
Y2974*
X2561Y2979*
X2556*
X2551Y2974*
Y2958*
X2540Y2990D02*
X2535Y2995D01*
Y3005*
X2540Y3010*
X2561*
X2566Y3005*
Y2995*
X2561Y2990*
X2540*
X2442Y2921D02*
X2437Y2916D01*
Y2906*
X2442Y2900*
X2463*
X2468Y2906*
Y2916*
X2463Y2921*
X2468Y2932D02*
Y2942D01*
Y2937*
X2437*
X2442Y2932*
X2437Y2979D02*
Y2958D01*
X2452*
X2447Y2969*
Y2974*
X2452Y2979*
X2463*
X2468Y2974*
Y2963*
X2463Y2958*
Y2990D02*
X2468Y2995D01*
Y3005*
X2463Y3010*
X2442*
X2437Y3005*
Y2995*
X2442Y2990*
X2447*
X2452Y2995*
Y3010*
X3938Y1065D02*
X3933Y1059D01*
Y1049*
X3938Y1044*
X3959*
X3964Y1049*
Y1059*
X3959Y1065*
X3964Y1075D02*
Y1086D01*
Y1080*
X3933*
X3938Y1075*
X3933Y1122D02*
Y1101D01*
X3948*
X3943Y1112*
Y1117*
X3948Y1122*
X3959*
X3964Y1117*
Y1107*
X3959Y1101*
X3938Y1133D02*
X3933Y1138D01*
Y1149*
X3938Y1154*
X3943*
X3948Y1149*
Y1143*
Y1149*
X3954Y1154*
X3959*
X3964Y1149*
Y1138*
X3959Y1133*
X3796Y1065D02*
X3791Y1059D01*
Y1049*
X3796Y1044*
X3817*
X3822Y1049*
Y1059*
X3817Y1065*
X3822Y1075D02*
Y1086D01*
Y1080*
X3791*
X3796Y1075*
X3791Y1122D02*
Y1101D01*
X3807*
X3801Y1112*
Y1117*
X3807Y1122*
X3817*
X3822Y1117*
Y1107*
X3817Y1101*
X3822Y1154D02*
Y1133D01*
X3801Y1154*
X3796*
X3791Y1149*
Y1138*
X3796Y1133*
X3867Y1075D02*
X3862Y1070D01*
Y1059*
X3867Y1054*
X3888*
X3893Y1059*
Y1070*
X3888Y1075*
X3893Y1086D02*
Y1096D01*
Y1091*
X3862*
X3867Y1086*
X3862Y1133D02*
Y1112D01*
X3877*
X3872Y1122*
Y1128*
X3877Y1133*
X3888*
X3893Y1128*
Y1117*
X3888Y1112*
X3893Y1143D02*
Y1154D01*
Y1149*
X3862*
X3867Y1143*
X2615Y1065D02*
X2610Y1059D01*
Y1049*
X2615Y1044*
X2636*
X2641Y1049*
Y1059*
X2636Y1065*
X2641Y1075D02*
Y1086D01*
Y1080*
X2610*
X2615Y1075*
X2641Y1117D02*
X2610D01*
X2625Y1101*
Y1122*
X2610Y1154D02*
Y1133D01*
X2625*
X2620Y1143*
Y1149*
X2625Y1154*
X2636*
X2641Y1149*
Y1138*
X2636Y1133*
X2757Y1065D02*
X2751Y1059D01*
Y1049*
X2757Y1044*
X2778*
X2783Y1049*
Y1059*
X2778Y1065*
X2783Y1075D02*
Y1086D01*
Y1080*
X2751*
X2757Y1075*
X2783Y1117D02*
X2751D01*
X2767Y1101*
Y1122*
X2783Y1149D02*
X2751D01*
X2767Y1133*
Y1154*
X2686Y1075D02*
X2681Y1070D01*
Y1059*
X2686Y1054*
X2707*
X2712Y1059*
Y1070*
X2707Y1075*
X2712Y1086D02*
Y1096D01*
Y1091*
X2681*
X2686Y1086*
X2712Y1128D02*
X2681D01*
X2696Y1112*
Y1133*
X2712Y1143D02*
Y1154D01*
Y1149*
X2681*
X2686Y1143*
X6093Y3559D02*
X6088Y3554D01*
Y3545*
X6093Y3540*
X6111*
X6116Y3545*
Y3554*
X6111Y3559*
X6116Y3568D02*
Y3577D01*
Y3572*
X6088*
X6093Y3568*
X6116Y3591D02*
Y3600D01*
Y3595*
X6088*
X6093Y3591*
X6116Y3627D02*
X6088D01*
X6102Y3614*
Y3632*
X1347Y2459D02*
X1342Y2453D01*
Y2443*
X1347Y2438*
X1368*
X1374Y2443*
Y2453*
X1368Y2459*
X1374Y2469D02*
Y2480D01*
Y2474*
X1342*
X1347Y2469*
X1374Y2495D02*
Y2506D01*
Y2501*
X1342*
X1347Y2495*
Y2522D02*
X1342Y2527D01*
Y2537*
X1347Y2543*
X1368*
X1374Y2537*
Y2527*
X1368Y2522*
X1347*
X3089Y2561D02*
X3084Y2555D01*
Y2545*
X3089Y2540*
X3110*
X3116Y2545*
Y2555*
X3110Y2561*
X3116Y2571D02*
Y2582D01*
Y2576*
X3084*
X3089Y2571*
Y2597D02*
X3084Y2603D01*
Y2613*
X3089Y2618*
X3110*
X3116Y2613*
Y2603*
X3110Y2597*
X3089*
Y2629D02*
X3084Y2634D01*
Y2645*
X3089Y2650*
X3095*
X3100Y2645*
X3105Y2650*
X3110*
X3116Y2645*
Y2634*
X3110Y2629*
X3105*
X3100Y2634*
X3095Y2629*
X3089*
X3100Y2634D02*
Y2645D01*
X3089Y2695D02*
X3084Y2690D01*
Y2679*
X3089Y2674*
X3110*
X3116Y2679*
Y2690*
X3110Y2695*
X3116Y2705D02*
Y2716D01*
Y2711*
X3084*
X3089Y2705*
Y2732D02*
X3084Y2737D01*
Y2747*
X3089Y2753*
X3110*
X3116Y2747*
Y2737*
X3110Y2732*
X3089*
X3084Y2763D02*
Y2784D01*
X3089*
X3110Y2763*
X3116*
X1593Y2185D02*
X1587Y2190D01*
X1577*
X1572Y2185*
Y2164*
X1577Y2159*
X1587*
X1593Y2164*
X1603D02*
X1608Y2159D01*
X1619*
X1624Y2164*
Y2185*
X1619Y2190*
X1608*
X1603Y2185*
Y2180*
X1608Y2175*
X1624*
X1635Y2185D02*
X1640Y2190D01*
X1650*
X1656Y2185*
Y2180*
X1650Y2175*
X1645*
X1650*
X1656Y2169*
Y2164*
X1650Y2159*
X1640*
X1635Y2164*
X1593Y2136D02*
X1587Y2141D01*
X1577*
X1572Y2136*
Y2115*
X1577Y2110*
X1587*
X1593Y2115*
X1603D02*
X1608Y2110D01*
X1619*
X1624Y2115*
Y2136*
X1619Y2141*
X1608*
X1603Y2136*
Y2131*
X1608Y2125*
X1624*
X1656Y2110D02*
X1635D01*
X1656Y2131*
Y2136*
X1650Y2141*
X1640*
X1635Y2136*
X1536Y2030D02*
X1531Y2024D01*
Y2014*
X1536Y2009*
X1557*
X1562Y2014*
Y2024*
X1557Y2030*
Y2040D02*
X1562Y2045D01*
Y2056*
X1557Y2061*
X1536*
X1531Y2056*
Y2045*
X1536Y2040*
X1542*
X1547Y2045*
Y2061*
X1536Y2072D02*
X1531Y2077D01*
Y2087*
X1536Y2093*
X1557*
X1562Y2087*
Y2077*
X1557Y2072*
X1536*
X2005Y1825D02*
X2000Y1820D01*
Y1809*
X2005Y1804*
X2026*
X2031Y1809*
Y1820*
X2026Y1825*
X2005Y1836D02*
X2000Y1841D01*
Y1851*
X2005Y1857*
X2010*
X2015Y1851*
X2021Y1857*
X2026*
X2031Y1851*
Y1841*
X2026Y1836*
X2021*
X2015Y1841*
X2010Y1836*
X2005*
X2015Y1841D02*
Y1851D01*
X2026Y1867D02*
X2031Y1872D01*
Y1883*
X2026Y1888*
X2005*
X2000Y1883*
Y1872*
X2005Y1867*
X2010*
X2015Y1872*
Y1888*
X5305Y3534D02*
X5300Y3539D01*
X5290*
X5284Y3534*
Y3513*
X5290Y3507*
X5300*
X5305Y3513*
X5316Y3534D02*
X5321Y3539D01*
X5332*
X5337Y3534*
Y3528*
X5332Y3523*
X5337Y3518*
Y3513*
X5332Y3507*
X5321*
X5316Y3513*
Y3518*
X5321Y3523*
X5316Y3528*
Y3534*
X5321Y3523D02*
X5332D01*
X5368Y3539D02*
X5347D01*
Y3523*
X5358Y3528*
X5363*
X5368Y3523*
Y3513*
X5363Y3507*
X5353*
X5347Y3513*
X4950Y2045D02*
X4944Y2040D01*
Y2030*
X4950Y2024*
X4971*
X4976Y2030*
Y2040*
X4971Y2045*
X4950Y2056D02*
X4944Y2061D01*
Y2072*
X4950Y2077*
X4955*
X4960Y2072*
X4965Y2077*
X4971*
X4976Y2072*
Y2061*
X4971Y2056*
X4965*
X4960Y2061*
X4955Y2056*
X4950*
X4960Y2061D02*
Y2072D01*
X4976Y2103D02*
X4944D01*
X4960Y2087*
Y2108*
X4832Y1753D02*
X4826Y1748D01*
Y1737*
X4832Y1732*
X4853*
X4858Y1737*
Y1748*
X4853Y1753*
X4832Y1763D02*
X4826Y1769D01*
Y1779*
X4832Y1784*
X4837*
X4842Y1779*
X4847Y1784*
X4853*
X4858Y1779*
Y1769*
X4853Y1763*
X4847*
X4842Y1769*
X4837Y1763*
X4832*
X4842Y1769D02*
Y1779D01*
X4858Y1795D02*
Y1805D01*
Y1800*
X4826*
X4832Y1795*
X4891Y1742D02*
X4885Y1737D01*
Y1727*
X4891Y1721*
X4912*
X4917Y1727*
Y1737*
X4912Y1742*
X4891Y1753D02*
X4885Y1758D01*
Y1769*
X4891Y1774*
X4896*
X4901Y1769*
X4906Y1774*
X4912*
X4917Y1769*
Y1758*
X4912Y1753*
X4906*
X4901Y1758*
X4896Y1753*
X4891*
X4901Y1758D02*
Y1769D01*
X4891Y1784D02*
X4885Y1790D01*
Y1800*
X4891Y1805*
X4912*
X4917Y1800*
Y1790*
X4912Y1784*
X4891*
X4845Y1933D02*
X4840Y1928D01*
Y1917*
X4845Y1912*
X4866*
X4872Y1917*
Y1928*
X4866Y1933*
X4840Y1944D02*
Y1965D01*
X4845*
X4866Y1944*
X4872*
X4866Y1975D02*
X4872Y1980D01*
Y1991*
X4866Y1996*
X4845*
X4840Y1991*
Y1980*
X4845Y1975*
X4851*
X4856Y1980*
Y1996*
X5294Y2051D02*
X5289Y2046D01*
Y2036*
X5294Y2030*
X5315*
X5320Y2036*
Y2046*
X5315Y2051*
X5289Y2062D02*
Y2083D01*
X5294*
X5315Y2062*
X5320*
X5294Y2093D02*
X5289Y2099D01*
Y2109*
X5294Y2114*
X5299*
X5305Y2109*
X5310Y2114*
X5315*
X5320Y2109*
Y2099*
X5315Y2093*
X5310*
X5305Y2099*
X5299Y2093*
X5294*
X5305Y2099D02*
Y2109D01*
X3158Y2732D02*
X3153Y2727D01*
Y2717*
X3158Y2711*
X3179*
X3185Y2717*
Y2727*
X3179Y2732*
X3153Y2743D02*
Y2764D01*
X3158*
X3179Y2743*
X3185*
X3153Y2795D02*
X3158Y2785D01*
X3169Y2774*
X3179*
X3185Y2780*
Y2790*
X3179Y2795*
X3174*
X3169Y2790*
Y2774*
X1896Y1558D02*
X1901Y1563D01*
Y1574*
X1896Y1579*
X1875*
X1870Y1574*
Y1563*
X1875Y1558*
X1901Y1548D02*
Y1527D01*
X1896*
X1875Y1548*
X1870*
Y1500D02*
X1901D01*
X1885Y1516*
Y1495*
X5205Y4112D02*
X5200Y4118D01*
X5189*
X5184Y4112*
Y4091*
X5189Y4086*
X5200*
X5205Y4091*
X5216Y4118D02*
X5237D01*
Y4112*
X5216Y4091*
Y4086*
X5247Y4112D02*
X5252Y4118D01*
X5263*
X5268Y4112*
Y4107*
X5263Y4102*
X5258*
X5263*
X5268Y4097*
Y4091*
X5263Y4086*
X5252*
X5247Y4091*
X5205Y4158D02*
X5200Y4163D01*
X5189*
X5184Y4158*
Y4137*
X5189Y4131*
X5200*
X5205Y4137*
X5216Y4163D02*
X5237D01*
Y4158*
X5216Y4137*
Y4131*
X5268D02*
X5247D01*
X5268Y4152*
Y4158*
X5263Y4163*
X5252*
X5247Y4158*
X5206Y4015D02*
X5200Y4010D01*
Y4000*
X5206Y3994*
X5227*
X5232Y4000*
Y4010*
X5227Y4015*
X5200Y4026D02*
Y4047D01*
X5206*
X5227Y4026*
X5232*
Y4057D02*
Y4068D01*
Y4062*
X5200*
X5206Y4057*
X5892Y4295D02*
X5887Y4301D01*
X5876*
X5871Y4295*
Y4274*
X5876Y4269*
X5887*
X5892Y4274*
X5902Y4301D02*
X5923D01*
Y4295*
X5902Y4274*
Y4269*
X5934Y4295D02*
X5939Y4301D01*
X5950*
X5955Y4295*
Y4274*
X5950Y4269*
X5939*
X5934Y4274*
Y4295*
X1515Y1732D02*
X1509Y1727D01*
Y1717*
X1515Y1711*
X1536*
X1541Y1717*
Y1727*
X1536Y1732*
X1509Y1764D02*
X1515Y1753D01*
X1525Y1743*
X1536*
X1541Y1748*
Y1759*
X1536Y1764*
X1530*
X1525Y1759*
Y1743*
X1515Y1774D02*
X1509Y1780D01*
Y1790*
X1515Y1795*
X1520*
X1525Y1790*
Y1785*
Y1790*
X1530Y1795*
X1536*
X1541Y1790*
Y1780*
X1536Y1774*
X6488Y3071D02*
X6483Y3076D01*
X6472*
X6467Y3071*
Y3050*
X6472Y3045*
X6483*
X6488Y3050*
X6520Y3076D02*
X6509Y3071D01*
X6499Y3061*
Y3050*
X6504Y3045*
X6514*
X6520Y3050*
Y3055*
X6514Y3061*
X6499*
X6551Y3045D02*
X6530D01*
X6551Y3066*
Y3071*
X6546Y3076*
X6535*
X6530Y3071*
X5216Y4207D02*
X5210Y4212D01*
X5200*
X5195Y4207*
Y4186*
X5200Y4181*
X5210*
X5216Y4186*
X5247Y4212D02*
X5237Y4207D01*
X5226Y4196*
Y4186*
X5231Y4181*
X5242*
X5247Y4186*
Y4191*
X5242Y4196*
X5226*
X5258Y4181D02*
X5268D01*
X5263*
Y4212*
X5258Y4207*
X6528Y2809D02*
X6523Y2804D01*
Y2794*
X6528Y2788*
X6549*
X6555Y2794*
Y2804*
X6549Y2809*
X6523Y2841D02*
X6528Y2830D01*
X6539Y2820*
X6549*
X6555Y2825*
Y2836*
X6549Y2841*
X6544*
X6539Y2836*
Y2820*
X6528Y2851D02*
X6523Y2857D01*
Y2867*
X6528Y2872*
X6549*
X6555Y2867*
Y2857*
X6549Y2851*
X6528*
X6326Y2656D02*
X6320Y2650D01*
Y2640*
X6326Y2635*
X6347*
X6352Y2640*
Y2650*
X6347Y2656*
X6320Y2687D02*
Y2666D01*
X6336*
X6331Y2677*
Y2682*
X6336Y2687*
X6347*
X6352Y2682*
Y2671*
X6347Y2666*
X6326Y2698D02*
X6320Y2703D01*
Y2713*
X6326Y2719*
X6331*
X6336Y2713*
X6341Y2719*
X6347*
X6352Y2713*
Y2703*
X6347Y2698*
X6341*
X6336Y2703*
X6331Y2698*
X6326*
X6336Y2703D02*
Y2713D01*
X6201Y2612D02*
X6196Y2618D01*
X6185*
X6180Y2612*
Y2591*
X6185Y2586*
X6196*
X6201Y2591*
X6232Y2618D02*
X6211D01*
Y2602*
X6222Y2607*
X6227*
X6232Y2602*
Y2591*
X6227Y2586*
X6217*
X6211Y2591*
X6243Y2618D02*
X6264D01*
Y2612*
X6243Y2591*
Y2586*
X6448Y2400D02*
X6442Y2395D01*
Y2384*
X6448Y2379*
X6469*
X6474Y2384*
Y2395*
X6469Y2400*
X6442Y2431D02*
Y2410D01*
X6458*
X6453Y2421*
Y2426*
X6458Y2431*
X6469*
X6474Y2426*
Y2416*
X6469Y2410*
X6442Y2463D02*
Y2442D01*
X6458*
X6453Y2452*
Y2457*
X6458Y2463*
X6469*
X6474Y2457*
Y2447*
X6469Y2442*
X6395Y2618D02*
X6390Y2613D01*
Y2603*
X6395Y2598*
X6415*
X6420Y2603*
Y2613*
X6415Y2618*
X6390Y2647D02*
Y2627D01*
X6405*
X6400Y2637*
Y2642*
X6405Y2647*
X6415*
X6420Y2642*
Y2632*
X6415Y2627*
X6420Y2672D02*
X6390D01*
X6405Y2657*
Y2677*
X6454Y2746D02*
X6448Y2741D01*
Y2731*
X6454Y2725*
X6475*
X6480Y2731*
Y2741*
X6475Y2746*
X6448Y2778D02*
Y2757D01*
X6464*
X6459Y2767*
Y2773*
X6464Y2778*
X6475*
X6480Y2773*
Y2762*
X6475Y2757*
X6454Y2788D02*
X6448Y2794D01*
Y2804*
X6454Y2809*
X6459*
X6464Y2804*
Y2799*
Y2804*
X6469Y2809*
X6475*
X6480Y2804*
Y2794*
X6475Y2788*
X6488Y2965D02*
X6483Y2970D01*
X6472*
X6467Y2965*
Y2944*
X6472Y2938*
X6483*
X6488Y2944*
X6520Y2970D02*
X6499D01*
Y2954*
X6509Y2959*
X6514*
X6520Y2954*
Y2944*
X6514Y2938*
X6504*
X6499Y2944*
X6551Y2938D02*
X6530D01*
X6551Y2959*
Y2965*
X6546Y2970*
X6535*
X6530Y2965*
X5656Y2805D02*
X5651Y2800D01*
Y2790*
X5656Y2784*
X5677*
X5683Y2790*
Y2800*
X5677Y2805*
X5651Y2837D02*
Y2816D01*
X5667*
X5662Y2826*
Y2832*
X5667Y2837*
X5677*
X5683Y2832*
Y2821*
X5677Y2816*
X5656Y2847D02*
X5651Y2853D01*
Y2863*
X5656Y2868*
X5677*
X5683Y2863*
Y2853*
X5677Y2847*
X5656*
X5792Y2693D02*
X5787Y2688D01*
Y2677*
X5792Y2672*
X5813*
X5818Y2677*
Y2688*
X5813Y2693*
X5818Y2719D02*
X5787D01*
X5803Y2704*
Y2725*
X5818Y2751D02*
X5787D01*
X5803Y2735*
Y2756*
X5743Y2693D02*
X5738Y2688D01*
Y2677*
X5743Y2672*
X5764*
X5769Y2677*
Y2688*
X5764Y2693*
X5769Y2719D02*
X5738D01*
X5753Y2704*
Y2725*
X5743Y2735D02*
X5738Y2740D01*
Y2751*
X5743Y2756*
X5748*
X5753Y2751*
Y2746*
Y2751*
X5759Y2756*
X5764*
X5769Y2751*
Y2740*
X5764Y2735*
X5694Y2693D02*
X5688Y2688D01*
Y2677*
X5694Y2672*
X5715*
X5720Y2677*
Y2688*
X5715Y2693*
X5720Y2719D02*
X5688D01*
X5704Y2704*
Y2725*
X5720Y2756D02*
Y2735D01*
X5699Y2756*
X5694*
X5688Y2751*
Y2740*
X5694Y2735*
X5853Y2427D02*
X5847Y2433D01*
X5837*
X5832Y2427*
Y2406*
X5837Y2401*
X5847*
X5853Y2406*
X5879Y2401D02*
Y2433D01*
X5863Y2417*
X5884*
X5895Y2427D02*
X5900Y2433D01*
X5910*
X5916Y2427*
Y2406*
X5910Y2401*
X5900*
X5895Y2406*
Y2427*
X5957D02*
X5952Y2433D01*
X5941*
X5936Y2427*
Y2406*
X5941Y2401*
X5952*
X5957Y2406*
X5967Y2427D02*
X5973Y2433D01*
X5983*
X5988Y2427*
Y2422*
X5983Y2417*
X5978*
X5983*
X5988Y2412*
Y2406*
X5983Y2401*
X5973*
X5967Y2406*
X5999D02*
X6004Y2401D01*
X6015*
X6020Y2406*
Y2427*
X6015Y2433*
X6004*
X5999Y2427*
Y2422*
X6004Y2417*
X6020*
X5706Y2805D02*
X5700Y2800D01*
Y2790*
X5706Y2784*
X5727*
X5732Y2790*
Y2800*
X5727Y2805*
X5706Y2816D02*
X5700Y2821D01*
Y2832*
X5706Y2837*
X5711*
X5716Y2832*
Y2826*
Y2832*
X5721Y2837*
X5727*
X5732Y2832*
Y2821*
X5727Y2816*
X5706Y2847D02*
X5700Y2853D01*
Y2863*
X5706Y2868*
X5711*
X5716Y2863*
X5721Y2868*
X5727*
X5732Y2863*
Y2853*
X5727Y2847*
X5721*
X5716Y2853*
X5711Y2847*
X5706*
X5716Y2853D02*
Y2863D01*
X5888Y2963D02*
X5883Y2968D01*
X5872*
X5867Y2963*
Y2942*
X5872Y2937*
X5883*
X5888Y2942*
X5898Y2963D02*
X5904Y2968D01*
X5914*
X5919Y2963*
Y2958*
X5914Y2952*
X5909*
X5914*
X5919Y2947*
Y2942*
X5914Y2937*
X5904*
X5898Y2942*
X5930Y2968D02*
X5951D01*
Y2963*
X5930Y2942*
Y2937*
X5715Y3166D02*
X5710Y3171D01*
X5699*
X5694Y3166*
Y3145*
X5699Y3139*
X5710*
X5715Y3145*
X5725Y3166D02*
X5731Y3171D01*
X5741*
X5746Y3166*
Y3160*
X5741Y3155*
X5736*
X5741*
X5746Y3150*
Y3145*
X5741Y3139*
X5731*
X5725Y3145*
X5778Y3139D02*
X5757D01*
X5778Y3160*
Y3166*
X5773Y3171*
X5762*
X5757Y3166*
X5676Y3315D02*
X5671Y3310D01*
Y3300*
X5676Y3294*
X5697*
X5702Y3300*
Y3310*
X5697Y3315*
X5676Y3326D02*
X5671Y3331D01*
Y3342*
X5676Y3347*
X5681*
X5687Y3342*
Y3336*
Y3342*
X5692Y3347*
X5697*
X5702Y3342*
Y3331*
X5697Y3326*
X5676Y3357D02*
X5671Y3363D01*
Y3373*
X5676Y3378*
X5697*
X5702Y3373*
Y3363*
X5697Y3357*
X5676*
X5735Y3315D02*
X5730Y3310D01*
Y3300*
X5735Y3294*
X5756*
X5761Y3300*
Y3310*
X5756Y3315*
X5761Y3347D02*
Y3326D01*
X5740Y3347*
X5735*
X5730Y3342*
Y3331*
X5735Y3326*
X5756Y3357D02*
X5761Y3363D01*
Y3373*
X5756Y3378*
X5735*
X5730Y3373*
Y3363*
X5735Y3357*
X5740*
X5746Y3363*
Y3378*
X5794Y3315D02*
X5789Y3310D01*
Y3300*
X5794Y3294*
X5815*
X5820Y3300*
Y3310*
X5815Y3315*
X5820Y3347D02*
Y3326D01*
X5799Y3347*
X5794*
X5789Y3342*
Y3331*
X5794Y3326*
Y3357D02*
X5789Y3363D01*
Y3373*
X5794Y3378*
X5799*
X5805Y3373*
X5810Y3378*
X5815*
X5820Y3373*
Y3363*
X5815Y3357*
X5810*
X5805Y3363*
X5799Y3357*
X5794*
X5805Y3363D02*
Y3373D01*
X5750Y3626D02*
X5745Y3631D01*
X5734*
X5729Y3626*
Y3605*
X5734Y3600*
X5745*
X5750Y3605*
X5782Y3600D02*
X5761D01*
X5782Y3621*
Y3626*
X5776Y3631*
X5766*
X5761Y3626*
X5813Y3631D02*
X5803Y3626D01*
X5792Y3616*
Y3605*
X5797Y3600*
X5808*
X5813Y3605*
Y3610*
X5808Y3616*
X5792*
X5866Y3410D02*
X5861Y3415D01*
X5851*
X5845Y3410*
Y3389*
X5851Y3383*
X5861*
X5866Y3389*
X5898Y3383D02*
X5877D01*
X5898Y3404*
Y3410*
X5893Y3415*
X5882*
X5877Y3410*
X5929Y3415D02*
X5908D01*
Y3399*
X5919Y3404*
X5924*
X5929Y3399*
Y3389*
X5924Y3383*
X5914*
X5908Y3389*
X5715Y3116D02*
X5710Y3122D01*
X5699*
X5694Y3116*
Y3095*
X5699Y3090*
X5710*
X5715Y3095*
X5746Y3090D02*
X5725D01*
X5746Y3111*
Y3116*
X5741Y3122*
X5731*
X5725Y3116*
X5773Y3090D02*
Y3122D01*
X5757Y3106*
X5778*
X5884Y3034D02*
X5879Y3039D01*
X5868*
X5863Y3034*
Y3013*
X5868Y3007*
X5879*
X5884Y3013*
X5916Y3007D02*
X5895D01*
X5916Y3028*
Y3034*
X5910Y3039*
X5900*
X5895Y3034*
X5926D02*
X5931Y3039D01*
X5942*
X5947Y3034*
Y3028*
X5942Y3023*
X5937*
X5942*
X5947Y3018*
Y3013*
X5942Y3007*
X5931*
X5926Y3013*
X4950Y1748D02*
X4944Y1742D01*
Y1732*
X4950Y1727*
X4971*
X4976Y1732*
Y1742*
X4971Y1748*
X4976Y1758D02*
Y1769D01*
Y1763*
X4944*
X4950Y1758*
X4971Y1784D02*
X4976Y1790D01*
Y1800*
X4971Y1805*
X4950*
X4944Y1800*
Y1790*
X4950Y1784*
X4955*
X4960Y1790*
Y1805*
X6453Y3264D02*
X6448Y3269D01*
X6437*
X6432Y3264*
Y3243*
X6437Y3238*
X6448*
X6453Y3243*
X6463Y3238D02*
X6474D01*
X6469*
Y3269*
X6463Y3264*
X6490D02*
X6495Y3269D01*
X6505*
X6511Y3264*
Y3259*
X6505Y3253*
X6511Y3248*
Y3243*
X6505Y3238*
X6495*
X6490Y3243*
Y3248*
X6495Y3253*
X6490Y3259*
Y3264*
X6495Y3253D02*
X6505D01*
X6056Y3221D02*
X6051Y3226D01*
X6040*
X6035Y3221*
Y3200*
X6040Y3194*
X6051*
X6056Y3200*
X6066Y3194D02*
X6077D01*
X6072*
Y3226*
X6066Y3221*
X6093Y3226D02*
X6114D01*
Y3221*
X6093Y3200*
Y3194*
X6123Y3730D02*
X6118Y3736D01*
X6107*
X6102Y3730*
Y3709*
X6107Y3704*
X6118*
X6123Y3709*
X6133Y3704D02*
X6144D01*
X6139*
Y3736*
X6133Y3730*
X6181Y3736D02*
X6170Y3730D01*
X6160Y3720*
Y3709*
X6165Y3704*
X6175*
X6181Y3709*
Y3715*
X6175Y3720*
X6160*
X6123Y3681D02*
X6118Y3687D01*
X6107*
X6102Y3681*
Y3660*
X6107Y3655*
X6118*
X6123Y3660*
X6133Y3655D02*
X6144D01*
X6139*
Y3687*
X6133Y3681*
X6181Y3687D02*
X6160D01*
Y3671*
X6170Y3676*
X6175*
X6181Y3671*
Y3660*
X6175Y3655*
X6165*
X6160Y3660*
X6453Y3215D02*
X6448Y3220D01*
X6437*
X6432Y3215*
Y3194*
X6437Y3188*
X6448*
X6453Y3194*
X6463Y3188D02*
X6474D01*
X6469*
Y3220*
X6463Y3215*
X6490D02*
X6495Y3220D01*
X6505*
X6511Y3215*
Y3194*
X6505Y3188*
X6495*
X6490Y3194*
Y3215*
X6488Y3169D02*
X6483Y3175D01*
X6472*
X6467Y3169*
Y3148*
X6472Y3143*
X6483*
X6488Y3148*
X6499D02*
X6504Y3143D01*
X6514*
X6520Y3148*
Y3169*
X6514Y3175*
X6504*
X6499Y3169*
Y3164*
X6504Y3159*
X6520*
X6257Y3205D02*
X6251Y3200D01*
Y3189*
X6257Y3184*
X6278*
X6283Y3189*
Y3200*
X6278Y3205*
X6257Y3215D02*
X6251Y3221D01*
Y3231*
X6257Y3236*
X6262*
X6267Y3231*
X6272Y3236*
X6278*
X6283Y3231*
Y3221*
X6278Y3215*
X6272*
X6267Y3221*
X6262Y3215*
X6257*
X6267Y3221D02*
Y3231D01*
X5809Y3876D02*
X5804Y3881D01*
X5793*
X5788Y3876*
Y3855*
X5793Y3850*
X5804*
X5809Y3855*
X5835Y3850D02*
Y3881D01*
X5820Y3866*
X5841*
G54D16*
X2406Y3628D02*
Y3855D01*
X3026Y4305D02*
Y4310D01*
Y3628D02*
Y3855D01*
X2406Y3628D02*
X3026D01*
X2406Y4305D02*
Y4310D01*
G54D17*
X3453Y3050D02*
Y3178D01*
Y3443D02*
Y3571D01*
Y3050D02*
X3567D01*
X3453Y3571D02*
X3567D01*
X3916Y3050D02*
Y3163D01*
Y3443D02*
Y3571D01*
X3788Y3050D02*
X3916D01*
X3802Y3571D02*
X3916D01*
X3425Y2242D02*
Y2879D01*
Y2242D02*
X4062D01*
X3425Y2879D02*
X4062D01*
Y2242D02*
Y2879D01*
X4665Y2379D02*
X5185D01*
Y2742*
X4665Y2379D02*
Y2742D01*
X5185*
G54D18*
X1751Y1598D02*
X2021D01*
X4108Y2155D02*
X4139D01*
X4098Y2145D02*
X4108Y2155D01*
X1732Y1618D02*
X1751Y1598D01*
X3881Y2145D02*
X4098D01*
X3395Y2236D02*
Y2322D01*
X3874Y2125D02*
X4035D01*
X3797Y2206D02*
X3820D01*
X1568Y1618D02*
X1732D01*
X4055Y2106D02*
X4139D01*
X4035Y2125D02*
X4055Y2106D01*
X3415Y2179D02*
Y2216D01*
X3757Y2190D02*
X3767Y2181D01*
X3818*
X3874Y2125*
X3370Y2348D02*
X3395Y2322D01*
Y2236D02*
X3415Y2216D01*
X3820Y2206D02*
X3881Y2145D01*
X1342Y832D02*
X1336Y826D01*
Y814*
X1342Y809*
X1348*
X1354Y814*
Y826*
X1360Y832*
X1366*
X1372Y826*
Y814*
X1366Y809*
X1336Y844D02*
Y868D01*
Y856*
X1372*
Y879D02*
X1348D01*
X1336Y891*
X1348Y903*
X1372*
X1354*
Y879*
X1336Y915D02*
Y938D01*
Y927*
X1372*
Y950D02*
Y962D01*
Y956*
X1336*
X1342Y950*
X1980Y834D02*
X1974Y828D01*
Y816*
X1980Y811*
X1986*
X1992Y816*
Y828*
X1998Y834*
X2003*
X2009Y828*
Y816*
X2003Y811*
X1974Y846D02*
Y870D01*
Y858*
X2009*
Y881D02*
X1986D01*
X1974Y893*
X1986Y905*
X2009*
X1992*
Y881*
X1974Y917D02*
Y940D01*
Y929*
X2009*
Y976D02*
Y952D01*
X1986Y976*
X1980*
X1974Y970*
Y958*
X1980Y952*
X972Y1096D02*
X1007D01*
Y1120*
X972Y1155D02*
Y1131D01*
X1007*
Y1155*
X990Y1131D02*
Y1143D01*
X972Y1167D02*
X1007D01*
Y1185*
X1001Y1190*
X978*
X972Y1185*
Y1167*
X1007Y1226D02*
Y1202D01*
X984Y1226*
X978*
X972Y1220*
Y1208*
X978Y1202*
X972Y1289D02*
X1007D01*
Y1313*
X972Y1348D02*
Y1324D01*
X1007*
Y1348*
X990Y1324D02*
Y1336D01*
X972Y1360D02*
X1007D01*
Y1377*
X1001Y1383*
X978*
X972Y1377*
Y1360*
X1007Y1395D02*
Y1407D01*
Y1401*
X972*
X978Y1395*
X1305Y3734D02*
Y3701D01*
X1311Y3694*
X1324*
X1331Y3701*
Y3734*
X1344Y3694D02*
X1357D01*
X1351*
Y3734*
X1344Y3727*
X1396Y3694D02*
Y3734D01*
X1377Y3714*
X1403*
X1258Y4068D02*
Y4029D01*
X1284*
X1324Y4068D02*
X1311Y4062D01*
X1297Y4049*
Y4036*
X1304Y4029*
X1317*
X1324Y4036*
Y4042*
X1317Y4049*
X1297*
X846Y3996D02*
Y3956D01*
X866*
X872Y3963*
Y3989*
X866Y3996*
X846*
X885Y3956D02*
X898D01*
X892*
Y3996*
X885Y3989*
X918D02*
X925Y3996D01*
X938*
X944Y3989*
Y3963*
X938Y3956*
X925*
X918Y3963*
Y3989*
X1417Y3871D02*
X1411Y3864D01*
Y3851*
X1417Y3845*
X1444*
X1450Y3851*
Y3864*
X1444Y3871*
Y3884D02*
X1450Y3891D01*
Y3904*
X1444Y3910*
X1417*
X1411Y3904*
Y3891*
X1417Y3884*
X1424*
X1431Y3891*
Y3910*
X1411Y3950D02*
X1417Y3937D01*
X1431Y3923*
X1444*
X1450Y3930*
Y3943*
X1444Y3950*
X1437*
X1431Y3943*
Y3923*
X890Y3849D02*
X883Y3843D01*
Y3830*
X890Y3823*
X916*
X923Y3830*
Y3843*
X916Y3849*
Y3862D02*
X923Y3869D01*
Y3882*
X916Y3889*
X890*
X883Y3882*
Y3869*
X890Y3862*
X896*
X903Y3869*
Y3889*
X883Y3928D02*
Y3902D01*
X903*
X896Y3915*
Y3921*
X903Y3928*
X916*
X923Y3921*
Y3908*
X916Y3902*
G54D19*
X2842Y1366D02*
Y1414D01*
X2866*
X2874Y1406*
Y1390*
X2866Y1382*
X2842*
X2913Y1414D02*
X2897D01*
X2889Y1406*
Y1374*
X2897Y1366*
X2913*
X2921Y1374*
Y1406*
X2913Y1414*
X2937Y1366D02*
Y1414D01*
X2960*
X2968Y1406*
Y1390*
X2960Y1382*
X2937*
X2952D02*
X2968Y1366D01*
X2984Y1414D02*
X3015D01*
X2999*
Y1366*
X3062D02*
X3031D01*
X3062Y1398*
Y1406*
X3055Y1414*
X3039*
X3031Y1406*
X3433Y1366D02*
Y1414D01*
X3456*
X3464Y1406*
Y1390*
X3456Y1382*
X3433*
X3503Y1414D02*
X3488D01*
X3480Y1406*
Y1374*
X3488Y1366*
X3503*
X3511Y1374*
Y1406*
X3503Y1414*
X3527Y1366D02*
Y1414D01*
X3551*
X3559Y1406*
Y1390*
X3551Y1382*
X3527*
X3543D02*
X3559Y1366D01*
X3574Y1414D02*
X3606D01*
X3590*
Y1366*
X3622Y1406D02*
X3629Y1414D01*
X3645*
X3653Y1406*
Y1398*
X3645Y1390*
X3637*
X3645*
X3653Y1382*
Y1374*
X3645Y1366*
X3629*
X3622Y1374*
X2259Y1366D02*
Y1414D01*
X2283*
X2291Y1406*
Y1390*
X2283Y1382*
X2259*
X2330Y1414D02*
X2314D01*
X2307Y1406*
Y1374*
X2314Y1366*
X2330*
X2338Y1374*
Y1406*
X2330Y1414*
X2354Y1366D02*
Y1414D01*
X2377*
X2385Y1406*
Y1390*
X2377Y1382*
X2354*
X2370D02*
X2385Y1366D01*
X2401Y1414D02*
X2433D01*
X2417*
Y1366*
X2448D02*
X2464D01*
X2456*
Y1414*
X2448Y1406*
X1661Y1081D02*
Y1128D01*
X1685*
X1692Y1120*
Y1105*
X1685Y1097*
X1661*
X1677D02*
X1692Y1081D01*
X1740Y1128D02*
X1708D01*
Y1081*
X1740*
X1708Y1105D02*
X1724D01*
X1787Y1120D02*
X1779Y1128D01*
X1763*
X1755Y1120*
Y1112*
X1763Y1105*
X1779*
X1787Y1097*
Y1089*
X1779Y1081*
X1763*
X1755Y1089*
X1834Y1128D02*
X1803D01*
Y1081*
X1834*
X1803Y1105D02*
X1818D01*
X1850Y1128D02*
X1881D01*
X1866*
Y1081*
X1070Y1372D02*
Y1420D01*
X1094*
X1102Y1412*
Y1396*
X1094Y1388*
X1070*
X1141Y1420D02*
X1126D01*
X1118Y1412*
Y1380*
X1126Y1372*
X1141*
X1149Y1380*
Y1412*
X1141Y1420*
X1165D02*
Y1372D01*
X1181Y1388*
X1196Y1372*
Y1420*
X1244D02*
X1212D01*
Y1372*
X1244*
X1212Y1396D02*
X1228D01*
X1259Y1372D02*
Y1420D01*
X1283*
X1291Y1412*
Y1396*
X1283Y1388*
X1259*
X1275D02*
X1291Y1372D01*
X4023Y1366D02*
Y1414D01*
X4047*
X4055Y1406*
Y1390*
X4047Y1382*
X4023*
X4094Y1414D02*
X4078D01*
X4070Y1406*
Y1374*
X4078Y1366*
X4094*
X4102Y1374*
Y1406*
X4094Y1414*
X4118Y1366D02*
Y1414D01*
X4141*
X4149Y1406*
Y1390*
X4141Y1382*
X4118*
X4133D02*
X4149Y1366D01*
X4165Y1414D02*
X4196D01*
X4181*
Y1366*
X4236D02*
Y1414D01*
X4212Y1390*
X4244*
X4614Y1366D02*
Y1414D01*
X4637*
X4645Y1406*
Y1390*
X4637Y1382*
X4614*
X4685Y1414D02*
X4669D01*
X4661Y1406*
Y1374*
X4669Y1366*
X4685*
X4692Y1374*
Y1406*
X4685Y1414*
X4708Y1366D02*
Y1414D01*
X4732*
X4740Y1406*
Y1390*
X4732Y1382*
X4708*
X4724D02*
X4740Y1366D01*
X4755Y1414D02*
X4787D01*
X4771*
Y1366*
X4834Y1414D02*
X4803D01*
Y1390*
X4818Y1398*
X4826*
X4834Y1390*
Y1374*
X4826Y1366*
X4811*
X4803Y1374*
M02*