%FSLAX23Y23*%
%MOIN*%
%SFA1B1*%

%IPPOS*%
%ADD9500C,0.009800*%
%ADD9501C,0.011800*%
%ADD9502C,0.037400*%
%ADD9503C,0.039400*%
%ADD9504C,0.106300*%
%ADD9505C,0.039000*%
%ADD9506C,0.093500*%
%LNbenchy-voltmeter-pcb-1*%
%LPD*%
G54D9500*
X2519Y2740D03*
X2551Y2720D03*
Y2759D03*
X2582Y2740D03*
X2893D03*
X2925Y2720D03*
Y2759D03*
X2956Y2740D03*
G54D9501*
X935Y1181D03*
Y1230D03*
X984D03*
X1033D03*
X1082D03*
X1131D03*
Y1181D03*
Y1131D03*
Y1082D03*
Y1033D03*
X1181D03*
X1230D03*
X1279D03*
X1328D03*
X1378D03*
X1427D03*
X1476D03*
X1525D03*
Y1082D03*
X1476D03*
X1427D03*
X1378D03*
X1328D03*
X1279D03*
X1230D03*
X1181D03*
Y1131D03*
X1230D03*
Y1181D03*
Y1230D03*
Y1279D03*
Y1328D03*
Y1378D03*
Y1427D03*
X1279D03*
Y1476D03*
X1230D03*
X1181D03*
Y1427D03*
X1131D03*
Y1378D03*
X1181D03*
Y1328D03*
Y1279D03*
Y1230D03*
Y1181D03*
X1082D03*
Y1279D03*
X1131D03*
Y1328D03*
X1082D03*
X1033D03*
Y1279D03*
X984D03*
X935D03*
Y1328D03*
X984D03*
Y1378D03*
X1033D03*
X1082D03*
Y1427D03*
X1033D03*
X984D03*
X935D03*
Y1378D03*
X1033Y1476D03*
X1082D03*
X1131D03*
Y1525D03*
X1181D03*
X1230D03*
X1279D03*
X1328D03*
Y1476D03*
X1378Y1525D03*
X1385Y1358D03*
X1287D03*
X1488D03*
X1082Y1525D03*
X1033D03*
X1574D03*
Y1476D03*
X1624Y1427D03*
X1673Y1378D03*
Y1279D03*
Y1181D03*
X1771D03*
X1820D03*
X1870D03*
Y1131D03*
X1919D03*
Y1082D03*
Y1033D03*
X1968D03*
X1870D03*
Y1082D03*
X1820D03*
Y1033D03*
X1771D03*
X1722D03*
X1673D03*
X1624D03*
X1574D03*
Y1082D03*
X1624D03*
X1673D03*
X1722D03*
X1771D03*
Y1131D03*
X1820D03*
Y1230D03*
X1771D03*
Y1279D03*
X1722Y1328D03*
X2942Y1279D03*
Y1210D03*
X2968Y1192D03*
X3031D03*
X3094D03*
Y1114D03*
Y1055D03*
X3031D03*
Y1114D03*
X2968D03*
X2942Y1151D03*
Y1063D03*
X3157Y1114D03*
Y1192D03*
X3179Y1240D03*
Y1397D03*
X3185Y1031D03*
X3154Y1889D03*
X3149Y1980D03*
Y2145D03*
Y2293D03*
X3189Y2362D03*
Y2411D03*
X3149D03*
Y2460D03*
X3189D03*
Y2509D03*
Y2559D03*
Y2608D03*
X3149D03*
Y2657D03*
X3189D03*
Y2706D03*
X3149D03*
Y2755D03*
X3189D03*
Y2805D03*
X3149D03*
Y2850D03*
Y2878D03*
Y2905D03*
X3189Y2903D03*
Y2854D03*
Y2952D03*
X3141D03*
Y3002D03*
X3189D03*
X3133Y2566D03*
Y2539D03*
Y2511D03*
X3100Y2470D03*
X3051D03*
X3002D03*
X2903D03*
Y2509D03*
X2854D03*
Y2470D03*
X2805D03*
Y2509D03*
X2759Y2511D03*
Y2539D03*
Y2566D03*
X2755Y2608D03*
X2716Y2614D03*
Y2645D03*
X2755Y2657D03*
X2805D03*
X2822Y2614D03*
X2842Y2629D03*
X2870Y2681D03*
X2846Y2732D03*
X2807D03*
X2755Y2755D03*
X2706D03*
X2657D03*
X2689Y2712D03*
Y2681D03*
X2755Y2706D03*
X2775Y2850D03*
Y2878D03*
Y2905D03*
X2883Y2885D03*
X2913Y2928D03*
X3051Y2952D03*
X3090D03*
Y3002D03*
X3051D03*
X3066Y2811D03*
X3100Y2805D03*
Y2755D03*
Y2706D03*
X3063Y2712D03*
Y2681D03*
X3090Y2645D03*
Y2614D03*
X2937Y2598D03*
Y2574D03*
Y2551D03*
Y2653D03*
X3002Y2755D03*
X3051D03*
X3070Y2421D03*
X3051Y2391D03*
X3100Y2342D03*
Y2253D03*
X3002Y2263D03*
X2921Y2259D03*
Y2216D03*
X2928Y2185D03*
X2913Y2126D03*
X2881Y2098D03*
X2824Y2097D03*
Y2066D03*
X2787Y1972D03*
X2755Y1980D03*
X2718Y1972D03*
X2661Y1948D03*
X2656Y1889D03*
X2608Y1870D03*
Y1919D03*
X2590Y1972D03*
X2559Y1980D03*
X2521Y1972D03*
X2464Y1948D03*
X2459Y1889D03*
X2411Y1870D03*
Y1919D03*
X2393Y1972D03*
X2362Y1980D03*
X2324Y1972D03*
X2267Y1948D03*
X2262Y1889D03*
X2214Y1870D03*
Y1919D03*
X2196Y1972D03*
X2165Y1980D03*
X2128Y1972D03*
X2070Y1948D03*
X2065Y1889D03*
X2017Y1870D03*
Y1919D03*
X2000Y1972D03*
X1968Y1980D03*
X1931Y1972D03*
X1874Y1948D03*
X1869Y1889D03*
X1820Y1870D03*
Y1919D03*
X1803Y1972D03*
X1771Y1980D03*
X1734Y1972D03*
X1677Y1948D03*
X1672Y1889D03*
X1776D03*
X1973D03*
X2170D03*
X2367D03*
X2564D03*
X2760D03*
X2805Y1870D03*
Y1919D03*
X2853Y1889D03*
X2858Y1948D03*
X2915Y1972D03*
X2952Y1980D03*
X2984Y1972D03*
X3002Y1919D03*
Y1870D03*
X2957Y1889D03*
X3050D03*
X3055Y1948D03*
X3112Y1972D03*
X3078Y2098D03*
X3021Y2066D03*
X2952Y2313D03*
X2905Y2330D03*
X2881Y2354D03*
X2850D03*
X2826D03*
X2818Y2271D03*
X2787D03*
X2850D03*
X2881D03*
X2748Y2216D03*
X2706Y2214D03*
X2608D03*
X2559D03*
Y2165D03*
X2509D03*
Y2214D03*
X2411D03*
Y2165D03*
X2362D03*
Y2214D03*
X2313D03*
Y2165D03*
X2263D03*
Y2214D03*
X2214D03*
X2165D03*
Y2263D03*
X2137Y2295D03*
X2126Y2322D03*
X2094Y2346D03*
X2063D03*
X2031D03*
X2000D03*
Y2271D03*
X2031D03*
X2063D03*
X2094D03*
X2106Y2232D03*
X2133Y2194D03*
X2192Y2157D03*
X2234Y2066D03*
X2291Y2098D03*
X2431Y2066D03*
X2488Y2098D03*
X2628Y2066D03*
X2685Y2098D03*
X2748Y2155D03*
X2755Y2470D03*
X2706D03*
X2547Y2444D03*
X2563Y2555D03*
Y2578D03*
Y2602D03*
Y2653D03*
X2496Y2681D03*
X2472Y2732D03*
X2433D03*
Y2819D03*
X2468D03*
X2485Y2849D03*
X2509Y2889D03*
X2531Y2920D03*
X2485D03*
X2411Y2903D03*
Y2854D03*
X2368Y2826D03*
X2338Y2842D03*
Y2811D03*
X2249Y2791D03*
X2261Y2765D03*
X2273Y2739D03*
X2249Y2711D03*
X2244Y2657D03*
Y2608D03*
Y2559D03*
Y2519D03*
X2291Y2559D03*
X2322D03*
Y2608D03*
Y2509D03*
Y2480D03*
X2313Y2332D03*
X2263D03*
Y2263D03*
X2313D03*
X2362D03*
X2411D03*
X2460D03*
X2411Y2332D03*
X2362D03*
X2214Y2381D03*
X2192Y2401D03*
X2141Y2472D03*
Y2503D03*
X2129Y2523D03*
X2086D03*
X2070Y2503D03*
Y2472D03*
X2066Y2622D03*
X2027Y2637D03*
X1984Y2640D03*
X1960Y2622D03*
X1937Y2640D03*
X1913Y2622D03*
X1879Y2628D03*
X1889Y2515D03*
X1858Y2527D03*
X1799Y2503D03*
Y2472D03*
X1763Y2460D03*
X1722Y2411D03*
X1673D03*
Y2362D03*
Y2313D03*
X1722D03*
X1771D03*
Y2263D03*
Y2214D03*
Y2165D03*
X1820D03*
X1870D03*
Y2214D03*
X1897Y2194D03*
X1948Y2214D03*
X1988Y2232D03*
X1919Y2263D03*
X1870D03*
X1820D03*
Y2214D03*
X1722D03*
Y2165D03*
X1673D03*
Y2214D03*
Y2263D03*
X1722D03*
X1624D03*
X1574D03*
Y2313D03*
X1624D03*
Y2362D03*
X1771D03*
X1820Y2411D03*
X1870D03*
Y2313D03*
X1820D03*
X1840Y2066D03*
X1700Y2098D03*
X1673Y2017D03*
X1624D03*
X1574D03*
Y2066D03*
X1624D03*
Y2165D03*
X1574D03*
Y2214D03*
X1624D03*
X1574Y1939D03*
Y1860D03*
Y1820D03*
Y1771D03*
Y1722D03*
Y1673D03*
Y1624D03*
Y1574D03*
Y2509D03*
Y2559D03*
X1624D03*
X1606Y2598D03*
X1653Y2645D03*
X1685D03*
X1787Y2724D03*
X1822Y2870D03*
X1860Y2844D03*
X1919Y2903D03*
X1952Y2940D03*
X1933Y2964D03*
X1988Y2929D03*
X2027D03*
X2063Y2921D03*
X2114Y2889D03*
X2088Y2863D03*
X2106Y2838D03*
X2118Y2811D03*
X2129Y2783D03*
X2116Y2716D03*
Y2647D03*
Y2952D03*
X2185Y2972D03*
X2250Y2967D03*
X2283Y2968D03*
X2315D03*
X2362Y2952D03*
Y2903D03*
X2313D03*
X2283Y2889D03*
X2252D03*
X2232Y2944D03*
X2214Y3051D03*
Y3100D03*
X2263D03*
X2313D03*
X2362D03*
X2411D03*
X2460D03*
X2509D03*
X2559D03*
Y3051D03*
X2608D03*
X2657D03*
Y3100D03*
X2608D03*
X2509Y3051D03*
X2460D03*
X2411D03*
X2362D03*
X2313D03*
X2263D03*
X2165D03*
Y3100D03*
X2141Y3078D03*
X2094D03*
X2055Y3082D03*
X1996Y3090D03*
X1968Y3094D03*
X1940Y3102D03*
X1885Y3098D03*
X1846Y3064D03*
X1815Y3059D03*
X1740Y3007D03*
X1720Y2956D03*
X1669Y2976D03*
X1565Y2952D03*
Y3002D03*
Y3051D03*
X1574Y2815D03*
X1661D03*
X1960Y2153D03*
X2037Y2097D03*
Y2066D03*
X2090Y2126D03*
X2448Y2614D03*
X2468Y2629D03*
X2460Y3002D03*
X2509D03*
X2692Y2811D03*
X1535D03*
Y2834D03*
Y2858D03*
X1525Y2952D03*
X1476D03*
X1525Y3002D03*
X1378Y3051D03*
X1328D03*
X1279D03*
X1230D03*
X1181D03*
X1131D03*
X1082D03*
Y2982D03*
X1131D03*
X1181D03*
X1230D03*
X1279D03*
X1328D03*
Y3100D03*
X1378D03*
X1427D03*
X1279D03*
X1230D03*
X1181D03*
Y2903D03*
X1131D03*
X1082D03*
X935D03*
Y2755D03*
X984D03*
X1033D03*
X1082D03*
X1131D03*
X1181D03*
X1230D03*
X1181Y2706D03*
X1131D03*
X1082D03*
X1033D03*
X984D03*
X935D03*
Y2657D03*
Y2608D03*
X984D03*
X1033D03*
Y2559D03*
X984D03*
X935D03*
Y2509D03*
Y2460D03*
X984Y2509D03*
Y2657D03*
X1033D03*
X1082D03*
Y2608D03*
X1131Y2657D03*
X1149Y2488D03*
X1177Y2437D03*
X1240Y2389D03*
X1220Y2307D03*
Y2283D03*
X1230Y2214D03*
Y2165D03*
Y2116D03*
Y2066D03*
Y2017D03*
X1279D03*
Y1980D03*
Y2066D03*
Y2116D03*
Y2165D03*
Y2214D03*
X1318Y2267D03*
X1328Y2362D03*
Y2411D03*
Y2460D03*
Y2509D03*
X1378D03*
Y2460D03*
Y2411D03*
Y2362D03*
X1427D03*
Y2411D03*
Y2509D03*
Y2559D03*
Y2608D03*
X1476D03*
X1480Y2578D03*
X1507Y2570D03*
X1535Y2547D03*
X1525Y2657D03*
X1476D03*
X1460Y2708D03*
X1433D03*
X1427Y2755D03*
X1476D03*
X1525D03*
X1378Y2706D03*
X1328Y2657D03*
X1279Y2608D03*
X1230Y2559D03*
X1378D03*
Y2116D03*
Y2066D03*
X1328D03*
Y2017D03*
X1378D03*
Y1939D03*
X1328D03*
Y1860D03*
Y1820D03*
X1378D03*
Y1860D03*
Y1771D03*
Y1722D03*
Y1673D03*
Y1624D03*
Y1574D03*
X1328D03*
Y1624D03*
X1279D03*
Y1584D03*
X1230Y1574D03*
X1181D03*
X1131D03*
X1082D03*
X1033D03*
X1230Y1624D03*
X1279Y1673D03*
X1328D03*
Y1722D03*
Y1771D03*
X1181Y1748D03*
X1145Y1830D03*
X1078D03*
X1033Y1820D03*
X984D03*
X935D03*
Y1870D03*
Y1919D03*
Y1968D03*
X937Y2003D03*
X984Y1919D03*
Y1870D03*
X1033D03*
X1082Y1968D03*
X1181Y1948D03*
X1204Y1968D03*
Y1889D03*
X1190Y2126D03*
X1157D03*
X1116Y2129D03*
X1045D03*
X1007D03*
X970D03*
X944Y2224D03*
X1118Y2232D03*
X1169D03*
X1098Y2311D03*
Y2334D03*
X1328Y2165D03*
Y2116D03*
X1279Y2903D03*
X1230D03*
Y3149D03*
Y3198D03*
Y3248D03*
Y3297D03*
Y3346D03*
X1181D03*
Y3395D03*
X1230D03*
Y3444D03*
X1181D03*
X1131D03*
Y3395D03*
Y3346D03*
Y3297D03*
X1082D03*
Y3248D03*
X1033D03*
X984D03*
X935D03*
X1131D03*
X1181D03*
Y3297D03*
Y3198D03*
Y3149D03*
X1279D03*
Y3198D03*
X1328D03*
X1338Y3238D03*
X1378Y3198D03*
X1427D03*
X1476D03*
Y3149D03*
X1427D03*
X1378D03*
X1328D03*
X1525Y3179D03*
Y3248D03*
Y3297D03*
X1468Y3251D03*
X1476Y3444D03*
X1427D03*
X1338Y3454D03*
X1296Y3346D03*
X1525Y3444D03*
X1102Y3129D03*
X1078D03*
X1574Y3179D03*
X1624D03*
X1673D03*
X1722Y3198D03*
Y3248D03*
Y3297D03*
X1771D03*
X1673D03*
X1624D03*
X1673Y3248D03*
X1573Y3231D03*
X1574Y3444D03*
X1624D03*
X1673D03*
X1722D03*
X1919D03*
X1968D03*
Y3395D03*
X1918Y3362D03*
X1893Y3385D03*
X1889Y3244D03*
X1952Y3252D03*
X2082Y3259D03*
X2141Y3307D03*
X2185Y3326D03*
X2208D03*
X2232D03*
X2255D03*
X2279D03*
X2303D03*
Y3350D03*
Y3378D03*
Y3446D03*
X2224D03*
X2165Y3444D03*
Y3395D03*
X2116D03*
Y3444D03*
X2303Y3303D03*
Y3279D03*
X2313Y3149D03*
X2362D03*
X2411D03*
X2460Y3151D03*
X2509D03*
X2559D03*
X2608D03*
X2657D03*
X2704Y3232D03*
X2732D03*
X2759D03*
X2805Y3250D03*
Y3200D03*
X2509D03*
X2460D03*
Y3250D03*
X2509D03*
X2252Y3126D03*
X2224D03*
X2196D03*
G54D9502*
X1023Y2834D03*
Y2933D03*
Y3031D03*
Y3129D03*
X3080Y3159D03*
Y3257D03*
Y3356D03*
G54D9503*
X1317Y1141D03*
Y1241D03*
X1417D03*
Y1141D03*
X1517D03*
Y1241D03*
X964Y1514D03*
X1617Y1241D03*
Y1141D03*
X1717D03*
Y1241D03*
X2074Y1161D03*
X2174D03*
X2274D03*
X2374D03*
X2474D03*
X2574D03*
X2674D03*
X2774D03*
X2874D03*
Y1061D03*
X2774D03*
X2674D03*
X2574D03*
X2474D03*
X2374D03*
X2274D03*
X2174D03*
X2074D03*
X964Y1614D03*
Y1714D03*
X1473Y3366D03*
X1573D03*
X1673D03*
G54D9504*
X1003Y1102D03*
X3102Y1318D03*
X2755Y3106D03*
X1003Y3385D03*
G54D9505*
X1818Y3307D03*
X2118Y3347D03*
Y3267D03*
G54D9506*
X1818Y3207D03*
Y3407D03*
X2043D03*
Y3207D03*
M02*