%FSLAX23Y23*%
%MOIN*%
%SFA1B1*%

%IPPOS*%
%AMD96*
4,1,8,0.038400,0.000000,0.038400,0.000000,0.004900,0.033500,-0.004900,0.033500,-0.038400,0.000000,-0.038400,0.000000,-0.004900,-0.033500,0.004900,-0.033500,0.038400,0.000000,0.0*
1,1,0.066940,0.004900,0.000000*
1,1,0.066940,0.004900,0.000000*
1,1,0.066940,-0.004900,0.000000*
1,1,0.066940,-0.004900,0.000000*
%
%AMD97*
4,1,8,0.038400,-0.028400,0.038400,0.028400,0.033400,0.033500,-0.033400,0.033500,-0.038400,0.028400,-0.038400,-0.028400,-0.033400,-0.033500,0.033400,-0.033500,0.038400,-0.028400,0.0*
1,1,0.010040,0.033400,-0.028400*
1,1,0.010040,0.033400,0.028400*
1,1,0.010040,-0.033400,0.028400*
1,1,0.010040,-0.033400,-0.028400*
%
%AMD99*
4,1,8,-0.033500,0.028400,-0.033500,-0.028400,-0.028400,-0.033500,0.028400,-0.033500,0.033500,-0.028400,0.033500,0.028400,0.028400,0.033500,-0.028400,0.033500,-0.033500,0.028400,0.0*
1,1,0.010040,-0.028400,0.028400*
1,1,0.010040,-0.028400,-0.028400*
1,1,0.010040,0.028400,-0.028400*
1,1,0.010040,0.028400,0.028400*
%
%AMD102*
4,1,8,0.000000,0.033500,0.000000,0.033500,-0.033500,0.000000,-0.033500,0.000000,0.000000,-0.033500,0.000000,-0.033500,0.033500,0.000000,0.033500,0.000000,0.000000,0.033500,0.0*
1,1,0.066940,0.000000,0.000000*
1,1,0.066940,0.000000,0.000000*
1,1,0.066940,0.000000,0.000000*
1,1,0.066940,0.000000,0.000000*
%
%AMD105*
4,1,8,-0.033500,0.000000,-0.033500,0.000000,0.000000,-0.033500,0.000000,-0.033500,0.033500,0.000000,0.033500,0.000000,0.000000,0.033500,0.000000,0.033500,-0.033500,0.000000,0.0*
1,1,0.066940,0.000000,0.000000*
1,1,0.066940,0.000000,0.000000*
1,1,0.066940,0.000000,0.000000*
1,1,0.066940,0.000000,0.000000*
%
%AMD109*
4,1,8,-0.015000,-0.004900,0.015000,-0.004900,0.016200,-0.003700,0.016200,0.003700,0.015000,0.004900,-0.015000,0.004900,-0.016200,0.003700,-0.016200,-0.003700,-0.015000,-0.004900,0.0*
1,1,0.002460,-0.015000,-0.003700*
1,1,0.002460,0.015000,-0.003700*
1,1,0.002460,0.015000,0.003700*
1,1,0.002460,-0.015000,0.003700*
%
%AMD110*
4,1,8,-0.003700,-0.016200,0.003700,-0.016200,0.004900,-0.015000,0.004900,0.015000,0.003700,0.016200,-0.003700,0.016200,-0.004900,0.015000,-0.004900,-0.015000,-0.003700,-0.016200,0.0*
1,1,0.002460,-0.003700,-0.015000*
1,1,0.002460,0.003700,-0.015000*
1,1,0.002460,0.003700,0.015000*
1,1,0.002460,-0.003700,0.015000*
%
%ADD18R,0.019680X0.020470*%
%ADD20R,0.022000X0.020000*%
%ADD23R,0.020470X0.019680*%
%ADD87C,0.008660*%
%ADD88C,0.011810*%
%ADD89C,0.007870*%
%ADD90C,0.009840*%
%ADD91C,0.017720*%
%ADD93C,0.015750*%
%ADD94C,0.013780*%
G04~CAMADD=96~8~0.0~0.0~669.3~767.7~334.7~0.0~15~0.0~0.0~0.0~0.0~0~0.0~0.0~0.0~0.0~0~0.0~0.0~0.0~270.0~768.0~670.0*
%ADD96D96*%
G04~CAMADD=97~8~0.0~0.0~669.3~767.7~50.2~0.0~15~0.0~0.0~0.0~0.0~0~0.0~0.0~0.0~0.0~0~0.0~0.0~0.0~270.0~768.0~670.0*
%ADD97D97*%
%ADD98C,0.177170*%
G04~CAMADD=99~8~0.0~0.0~669.3~669.3~50.2~0.0~15~0.0~0.0~0.0~0.0~0~0.0~0.0~0.0~0.0~0~0.0~0.0~0.0~90.0~670.0~670.0*
%ADD99D99*%
%ADD100C,0.066930*%
%ADD101R,0.066930X0.066930*%
G04~CAMADD=102~8~0.0~0.0~669.3~669.3~334.7~0.0~15~0.0~0.0~0.0~0.0~0~0.0~0.0~0.0~0.0~0~0.0~0.0~0.0~0.0~669.3~669.3*
%ADD102D102*%
%ADD103C,0.039000*%
%ADD104C,0.093500*%
G04~CAMADD=105~8~0.0~0.0~669.3~669.3~334.7~0.0~15~0.0~0.0~0.0~0.0~0~0.0~0.0~0.0~0.0~0~0.0~0.0~0.0~90.0~670.0~669.0*
%ADD105D105*%
%ADD106R,0.066930X0.066930*%
%ADD107C,0.021650*%
%ADD108C,0.017720*%
G04~CAMADD=109~8~0.0~0.0~324.8~98.4~12.3~0.0~15~0.0~0.0~0.0~0.0~0~0.0~0.0~0.0~0.0~0~0.0~0.0~0.0~180.0~324.0~98.0*
%ADD109D109*%
G04~CAMADD=110~8~0.0~0.0~98.4~324.8~12.3~0.0~15~0.0~0.0~0.0~0.0~0~0.0~0.0~0.0~0.0~0~0.0~0.0~0.0~180.0~98.0~324.0*
%ADD110D110*%
%LNbenchy-voltmeter-pcb-1*%
%LPD*%
G36*
X2400Y2695D02*
X2400Y2694D01*
X2398Y2693*
X2395Y2693*
X2317Y2771*
X2316Y2772*
X2315Y2773*
X2314Y2773*
X2313Y2773*
X2312Y2774*
X2271*
X2271Y2774*
X2270Y2775*
X2268Y2776*
X2267Y2777*
X2265Y2777*
X2264Y2778*
X2263Y2778*
X2262Y2779*
X2260Y2782*
X2261Y2782*
X2261Y2783*
X2312*
X2400Y2695*
G37*
G36*
X3200Y2159D02*
X3196Y2159D01*
X3196Y2160*
X3195Y2161*
X3194Y2163*
X3135Y2222*
X3134Y2223*
X3132Y2223*
X3131Y2224*
X3129Y2224*
X2955*
Y2235*
X2926*
Y2232*
X2926Y2232*
X2925Y2230*
X2922Y2229*
X2922Y2229*
X2920*
X2918Y2229*
X2917Y2228*
X2915Y2228*
X2914Y2227*
X2912Y2226*
X2911Y2224*
X2910Y2223*
X2910Y2223*
X2893*
X2893Y2223*
X2877*
X2876Y2223*
X2875Y2223*
X2874Y2224*
X2872Y2226*
X2872Y2226*
X2873Y2227*
Y2251*
X2880Y2258*
X2881Y2258*
X2882*
X2884Y2259*
X2886Y2259*
X2887Y2260*
X2889Y2260*
X2890Y2262*
X2891Y2263*
X2892Y2264*
X2893Y2265*
X2894Y2267*
X2894Y2269*
X2894Y2270*
Y2272*
X2894Y2274*
X2894Y2275*
X2893Y2277*
X2892Y2278*
X2891Y2280*
X2890Y2281*
X2889Y2282*
X2887Y2283*
X2886Y2283*
X2884Y2284*
X2882Y2284*
X2881*
X2880Y2284*
X2827Y2337*
X2827Y2338*
X2829Y2341*
X2829Y2341*
X2830Y2342*
X2832Y2342*
X2833Y2343*
X2835Y2344*
X2836Y2345*
X2836Y2345*
X2840*
X2841Y2345*
X2841Y2344*
X2843Y2343*
X2844Y2342*
X2846Y2342*
X2847Y2341*
X2849Y2341*
X2851*
X2852Y2341*
X2854Y2342*
X2856Y2342*
X2857Y2343*
X2858Y2344*
X2860Y2345*
X2861Y2347*
X2861Y2348*
X2862Y2350*
X2862Y2351*
X2863Y2353*
Y2355*
X2862Y2356*
X2862Y2358*
X2861Y2360*
X2861Y2361*
X2860Y2362*
X2858Y2363*
X2857Y2364*
X2856Y2365*
X2854Y2366*
X2852Y2366*
X2851Y2367*
X2849*
X2847Y2366*
X2846Y2366*
X2844Y2365*
X2843Y2364*
X2841Y2363*
X2841Y2363*
X2840Y2362*
X2836*
X2836Y2363*
X2835Y2363*
X2833Y2364*
X2832Y2365*
X2830Y2366*
X2829Y2366*
X2827Y2367*
X2825*
X2824Y2366*
X2822Y2366*
X2821Y2365*
X2819Y2364*
X2818Y2363*
X2817Y2362*
X2816Y2361*
X2815Y2360*
X2814Y2358*
X2814Y2356*
X2813Y2355*
Y2353*
X2814Y2351*
X2814Y2350*
X2815Y2348*
X2816Y2347*
X2816Y2346*
X2815Y2343*
X2814Y2342*
X2558*
X2418Y2482*
Y2696*
X2418Y2698*
X2418Y2699*
X2417Y2700*
X2417Y2701*
X2416Y2702*
X2321Y2797*
X2320Y2798*
X2319Y2798*
X2318Y2799*
X2317Y2799*
X2315Y2799*
X2258*
X2258Y2799*
X2257Y2800*
X2256Y2802*
X2254Y2802*
X2253Y2803*
X2251Y2803*
X2249Y2804*
X2248*
X2246Y2803*
X2244Y2803*
X2243Y2802*
X2241Y2802*
X2240Y2800*
X2239Y2799*
X2238Y2798*
X2237Y2797*
X2236Y2795*
X2236Y2793*
X2236Y2792*
Y2790*
X2236Y2788*
X2236Y2787*
X2237Y2785*
X2238Y2784*
X2239Y2782*
X2240Y2781*
X2241Y2780*
X2243Y2779*
X2244Y2779*
X2246Y2778*
X2248Y2778*
X2249*
X2250Y2778*
X2252Y2776*
X2252Y2774*
X2252Y2774*
X2251Y2772*
X2250Y2771*
X2249Y2769*
X2249Y2768*
X2249Y2766*
Y2764*
X2249Y2763*
X2249Y2761*
X2250Y2760*
X2251Y2758*
X2252Y2757*
X2253Y2756*
X2254Y2755*
X2256Y2754*
X2257Y2753*
X2259Y2753*
X2260Y2752*
X2262*
X2264Y2753*
X2264Y2753*
X2266Y2749*
X2265Y2748*
X2263Y2747*
X2262Y2746*
X2262Y2744*
X2261Y2743*
X2261Y2741*
X2260Y2740*
Y2738*
X2261Y2736*
X2261Y2735*
X2262Y2733*
X2262Y2732*
X2263Y2730*
X2265Y2729*
X2266Y2728*
X2267Y2727*
X2269Y2727*
X2271Y2726*
X2272Y2726*
X2274*
X2276Y2726*
X2277Y2727*
X2279Y2727*
X2280Y2728*
X2282Y2729*
X2283Y2730*
X2284Y2731*
X2303*
X2361Y2673*
Y2455*
X2361Y2454*
X2362Y2453*
X2362Y2451*
X2363Y2450*
X2364Y2449*
X2524Y2289*
X2525Y2288*
X2526Y2287*
X2527Y2287*
X2529Y2287*
X2530Y2286*
X2780*
X2781Y2283*
X2780Y2282*
X2778Y2281*
X2777Y2280*
X2777Y2279*
X2525*
X2357Y2447*
Y2666*
X2357Y2667*
X2357Y2668*
X2356Y2670*
X2356Y2671*
X2355Y2672*
X2310Y2717*
X2309Y2718*
X2307Y2719*
X2306Y2719*
X2305Y2719*
X2304Y2719*
X2258*
X2258Y2720*
X2257Y2721*
X2256Y2722*
X2254Y2723*
X2253Y2723*
X2251Y2724*
X2249Y2724*
X2248*
X2246Y2724*
X2244Y2723*
X2243Y2723*
X2241Y2722*
X2240Y2721*
X2239Y2720*
X2238Y2718*
X2237Y2717*
X2236Y2715*
X2236Y2714*
X2236Y2712*
Y2710*
X2236Y2709*
X2236Y2707*
X2237Y2705*
X2238Y2704*
X2239Y2703*
X2240Y2701*
X2241Y2700*
X2243Y2700*
X2244Y2699*
X2246Y2699*
X2248Y2698*
X2249*
X2251Y2699*
X2253Y2699*
X2254Y2700*
X2256Y2700*
X2257Y2701*
X2258Y2703*
X2258Y2703*
X2300*
X2341Y2662*
Y2443*
X2341Y2442*
X2341Y2441*
X2342Y2440*
X2342Y2439*
X2343Y2438*
X2515Y2265*
X2516Y2264*
X2517Y2264*
X2519Y2263*
X2520Y2263*
X2521Y2263*
X2777*
X2777Y2263*
X2778Y2262*
X2780Y2260*
X2781Y2260*
X2783Y2259*
X2784Y2259*
X2786Y2258*
X2788*
X2788Y2258*
X2796Y2251*
Y2227*
X2796Y2226*
X2796Y2225*
X2797Y2224*
X2797Y2223*
X2798Y2223*
X2799Y2222*
X2800Y2222*
X2801Y2222*
X2808*
X2809Y2222*
X2810Y2222*
X2811Y2223*
X2812Y2223*
X2812Y2224*
X2812Y2224*
X2814Y2224*
X2816Y2224*
X2817Y2224*
X2817Y2223*
X2818Y2223*
X2819Y2222*
X2820Y2222*
X2821Y2222*
X2828*
X2829Y2222*
X2830Y2222*
X2831Y2223*
X2832Y2223*
X2832Y2224*
X2832Y2224*
X2834Y2224*
X2836Y2224*
X2836Y2224*
X2837Y2223*
X2837Y2223*
X2838Y2222*
X2839Y2222*
X2840Y2222*
X2848*
X2849Y2222*
X2850Y2222*
X2851Y2223*
X2851Y2223*
X2852Y2224*
X2852Y2224*
X2854Y2224*
X2856Y2224*
X2856Y2224*
X2856Y2223*
X2857Y2223*
X2858Y2222*
X2859Y2222*
X2860Y2222*
X2867*
X2868Y2222*
X2869Y2222*
X2870Y2221*
X2872Y2219*
X2872Y2219*
X2872Y2218*
Y2210*
X2872Y2209*
X2872Y2208*
X2872Y2207*
X2873Y2207*
X2873Y2206*
X2873Y2206*
X2874Y2204*
X2873Y2202*
X2873Y2202*
X2873Y2202*
X2872Y2201*
X2872Y2200*
X2872Y2199*
X2872Y2198*
Y2191*
X2872Y2190*
X2872Y2189*
X2872Y2188*
X2873Y2187*
X2873Y2187*
X2873Y2187*
X2874Y2185*
X2873Y2183*
X2873Y2182*
X2873Y2182*
X2872Y2181*
X2872Y2180*
X2872Y2179*
X2872Y2178*
Y2171*
X2872Y2170*
X2872Y2169*
X2872Y2168*
X2873Y2167*
X2873Y2167*
X2873Y2167*
X2874Y2165*
X2873Y2163*
X2873Y2163*
X2873Y2162*
X2872Y2162*
X2872Y2161*
X2872Y2160*
X2872Y2159*
Y2151*
X2872Y2150*
X2872Y2150*
X2870Y2148*
X2869Y2147*
X2868Y2147*
X2867Y2147*
X2860*
X2859Y2147*
X2858Y2147*
X2857Y2146*
X2856Y2146*
X2856Y2145*
X2856Y2145*
X2854Y2145*
X2852Y2145*
X2852Y2145*
X2851Y2146*
X2851Y2146*
X2850Y2147*
X2849Y2147*
X2848Y2147*
X2840*
X2839Y2147*
X2838Y2147*
X2837Y2146*
X2837Y2146*
X2836Y2145*
X2836Y2145*
X2834Y2145*
X2832Y2145*
X2832Y2145*
X2832Y2146*
X2831Y2146*
X2830Y2147*
X2829Y2147*
X2828Y2147*
X2821*
X2820Y2147*
X2819Y2147*
X2818Y2146*
X2817Y2146*
X2817Y2145*
X2816Y2145*
X2814Y2145*
X2812Y2145*
X2812Y2145*
X2812Y2146*
X2811Y2146*
X2810Y2147*
X2809Y2147*
X2808Y2147*
X2801*
X2800Y2147*
X2800Y2147*
X2798Y2148*
X2797Y2150*
X2797Y2150*
X2797Y2151*
Y2159*
X2797Y2160*
X2796Y2161*
X2796Y2162*
X2795Y2162*
X2795Y2163*
X2795Y2163*
X2795Y2165*
X2795Y2167*
X2795Y2167*
X2795Y2167*
X2796Y2168*
X2796Y2169*
X2797Y2170*
X2797Y2171*
Y2178*
X2797Y2179*
X2796Y2180*
X2796Y2181*
X2795Y2182*
X2795Y2182*
X2795Y2183*
X2795Y2185*
X2795Y2187*
X2795Y2187*
X2795Y2187*
X2796Y2188*
X2796Y2189*
X2797Y2190*
X2797Y2191*
Y2198*
X2797Y2199*
X2796Y2200*
X2796Y2201*
X2795Y2202*
X2794Y2202*
X2794Y2203*
X2793Y2203*
X2792Y2203*
X2762*
X2761Y2203*
X2760Y2203*
X2759Y2202*
X2759Y2202*
X2639*
X2638Y2202*
X2636Y2202*
X2635Y2201*
X2634Y2200*
X2540Y2106*
X2498*
X2497Y2106*
X2496Y2108*
X2495Y2109*
X2493Y2109*
X2492Y2110*
X2490Y2111*
X2489Y2111*
X2487*
X2485Y2111*
X2484Y2110*
X2482Y2109*
X2481Y2109*
X2479Y2108*
X2478Y2106*
X2477Y2105*
X2476Y2104*
X2476Y2102*
X2475Y2100*
X2475Y2099*
Y2097*
X2475Y2095*
X2476Y2094*
X2476Y2092*
X2477Y2091*
X2478Y2089*
X2479Y2088*
X2481Y2087*
X2482Y2086*
X2484Y2086*
X2485Y2085*
X2487Y2085*
X2489*
X2490Y2085*
X2492Y2086*
X2493Y2086*
X2495Y2087*
X2496Y2088*
X2497Y2089*
X2498Y2090*
X2543*
X2544Y2090*
X2546Y2091*
X2547Y2091*
X2548Y2092*
X2643Y2186*
X2756*
X2758Y2183*
X2758Y2183*
X2758Y2182*
X2758Y2182*
X2757Y2181*
X2757Y2180*
X2756Y2179*
X2756Y2178*
Y2171*
X2756Y2170*
X2757Y2169*
X2757Y2169*
X2756Y2168*
X2754Y2166*
X2754Y2166*
X2753Y2167*
X2752Y2167*
X2750Y2168*
X2748Y2168*
X2747*
X2745Y2168*
X2743Y2167*
X2742Y2167*
X2740Y2166*
X2739Y2165*
X2738Y2163*
X2737Y2162*
X2736Y2161*
X2735Y2159*
X2735Y2158*
X2735Y2156*
Y2154*
X2735Y2153*
X2735Y2151*
X2736Y2149*
X2737Y2148*
X2738Y2147*
X2739Y2145*
X2740Y2144*
X2742Y2144*
X2743Y2143*
X2745Y2142*
X2747Y2142*
X2748*
X2750Y2142*
X2752Y2143*
X2753Y2144*
X2755Y2144*
X2756Y2145*
X2757Y2146*
X2777*
X2777*
X2792*
X2793Y2146*
X2793Y2146*
X2795Y2145*
X2796Y2143*
X2796Y2143*
X2796Y2142*
Y2135*
X2775*
X2773Y2135*
X2772Y2134*
X2770Y2134*
X2769Y2133*
X2742Y2106*
X2695*
X2694Y2106*
X2693Y2108*
X2692Y2109*
X2690Y2109*
X2689Y2110*
X2687Y2111*
X2685Y2111*
X2684*
X2682Y2111*
X2680Y2110*
X2679Y2109*
X2677Y2109*
X2676Y2108*
X2675Y2106*
X2674Y2105*
X2673Y2104*
X2672Y2102*
X2672Y2100*
X2672Y2099*
Y2097*
X2672Y2095*
X2672Y2094*
X2673Y2092*
X2674Y2091*
X2675Y2089*
X2676Y2088*
X2677Y2087*
X2679Y2086*
X2680Y2086*
X2682Y2085*
X2684Y2085*
X2685*
X2687Y2085*
X2689Y2086*
X2690Y2086*
X2692Y2087*
X2693Y2088*
X2694Y2089*
X2695Y2090*
X2746*
X2747Y2090*
X2749Y2091*
X2750Y2091*
X2751Y2092*
X2778Y2119*
X2796*
Y2112*
X2796Y2111*
X2796Y2110*
X2797Y2109*
X2797Y2108*
X2798Y2108*
X2799Y2107*
X2800Y2107*
X2801Y2107*
X2808*
X2809Y2107*
X2810Y2107*
X2812Y2105*
X2813Y2104*
X2813Y2104*
X2813Y2103*
X2812Y2101*
X2812Y2099*
X2812Y2098*
Y2096*
X2812Y2094*
X2812Y2093*
X2813Y2091*
X2814Y2090*
X2815Y2088*
X2816Y2087*
X2817Y2086*
X2819Y2085*
X2820Y2085*
X2822Y2084*
X2823Y2084*
X2825*
X2827Y2084*
X2828Y2085*
X2830Y2085*
X2831Y2086*
X2833Y2087*
X2834Y2088*
X2835Y2090*
X2836Y2091*
X2836Y2093*
X2837Y2094*
X2837Y2095*
X2841Y2096*
X2844Y2092*
X2846Y2091*
X2847Y2091*
X2848Y2090*
X2850Y2090*
X2871*
X2872Y2089*
X2873Y2088*
X2874Y2087*
X2876Y2086*
X2877Y2086*
X2879Y2085*
X2881Y2085*
X2882*
X2884Y2085*
X2886Y2086*
X2887Y2086*
X2889Y2087*
X2890Y2088*
X2891Y2089*
X2892Y2091*
X2893Y2092*
X2894Y2094*
X2894Y2095*
X2894Y2097*
Y2099*
X2894Y2100*
X2894Y2102*
X2893Y2104*
X2892Y2105*
X2891Y2106*
X2890Y2108*
X2889Y2109*
X2887Y2109*
X2886Y2110*
X2884Y2111*
X2882Y2111*
X2881*
X2879Y2111*
X2877Y2110*
X2876Y2110*
X2875Y2110*
X2873Y2111*
X2873Y2112*
Y2117*
X2904*
X2904Y2116*
X2906Y2115*
X2907Y2114*
X2909Y2113*
X2910Y2113*
X2912Y2113*
X2914*
X2915Y2113*
X2917Y2113*
X2919Y2114*
X2920Y2115*
X2921Y2116*
X2923Y2117*
X2924Y2118*
X2924Y2120*
X2925Y2121*
X2925Y2123*
X2926Y2125*
Y2126*
X2925Y2128*
X2925Y2130*
X2924Y2131*
X2924Y2133*
X2923Y2134*
X2921Y2135*
X2920Y2136*
X2919Y2137*
X2917Y2138*
X2915Y2138*
X2914Y2138*
X2912*
X2910Y2138*
X2909Y2138*
X2907Y2137*
X2906Y2136*
X2904Y2135*
X2904Y2134*
X2873*
Y2142*
X2872Y2143*
X2872Y2143*
X2874Y2145*
X2875Y2146*
X2876Y2146*
X2877Y2146*
X2907*
X2908Y2146*
X2909Y2147*
X2910Y2147*
X2910Y2147*
X2967*
X3021Y2092*
X3023Y2091*
X3024Y2091*
X3026Y2090*
X3027Y2090*
X3068*
X3069Y2089*
X3070Y2088*
X3071Y2087*
X3073Y2086*
X3074Y2086*
X3076Y2085*
X3077Y2085*
X3079*
X3081Y2085*
X3082Y2086*
X3084Y2086*
X3085Y2087*
X3087Y2088*
X3088Y2089*
X3089Y2091*
X3090Y2092*
X3090Y2094*
X3091Y2095*
X3091Y2097*
Y2099*
X3091Y2100*
X3090Y2102*
X3090Y2104*
X3089Y2105*
X3088Y2106*
X3087Y2108*
X3085Y2109*
X3084Y2109*
X3082Y2110*
X3081Y2111*
X3079Y2111*
X3077*
X3076Y2111*
X3074Y2110*
X3073Y2109*
X3071Y2109*
X3070Y2108*
X3069Y2106*
X3068Y2106*
X3030*
X2976Y2161*
X2974Y2162*
X2973Y2162*
X2972Y2163*
X2970Y2163*
X2912*
X2910Y2166*
X2910Y2167*
X2910Y2167*
X2910Y2167*
X2911Y2168*
X2912Y2169*
X2912Y2170*
X2912Y2171*
Y2178*
X2912Y2179*
X2916Y2180*
X2916Y2179*
X2917Y2177*
X2918Y2176*
X2919Y2175*
X2921Y2174*
X2922Y2173*
X2924Y2172*
X2925Y2172*
X2927Y2172*
X2928*
X2930Y2172*
X2932Y2172*
X2933Y2173*
X2935Y2174*
X2936Y2175*
X2937Y2176*
X2938Y2177*
X2939Y2179*
X2940Y2180*
X2940Y2182*
X2940Y2184*
Y2185*
X2940Y2187*
X2940Y2189*
X2939Y2190*
X2938Y2192*
X2937Y2193*
X2936Y2194*
X2935Y2195*
X2933Y2196*
X2932Y2197*
X2930Y2197*
X2928Y2197*
X2927*
X2925Y2200*
X2925Y2202*
X2925Y2202*
X2926Y2204*
X2926Y2205*
X2928Y2205*
X2929Y2206*
X2930Y2207*
X2955*
Y2208*
X3126*
X3181Y2154*
Y2131*
X3178Y2130*
X3177Y2129*
X3162Y2144*
X3162Y2144*
Y2146*
X3162Y2148*
X3161Y2149*
X3161Y2151*
X3160Y2152*
X3159Y2154*
X3158Y2155*
X3156Y2156*
X3155Y2157*
X3153Y2157*
X3152Y2158*
X3150Y2158*
X3148*
X3147Y2158*
X3145Y2157*
X3143Y2157*
X3142Y2156*
X3141Y2155*
X3139Y2154*
X3138Y2152*
X3138Y2151*
X3137Y2149*
X3137Y2148*
X3136Y2146*
Y2144*
X3137Y2143*
X3137Y2141*
X3138Y2140*
X3138Y2138*
X3139Y2137*
X3141Y2136*
X3142Y2135*
X3143Y2134*
X3145Y2133*
X3147Y2133*
X3148Y2132*
X3150*
X3150Y2132*
X3163Y2120*
Y1592*
X2966Y1395*
X2965Y1394*
X2965Y1393*
X2964Y1392*
X2964Y1391*
X2964Y1389*
Y1228*
X2964Y1227*
X2964Y1225*
X2965Y1224*
X2965Y1223*
X2966Y1222*
X2991Y1197*
Y1086*
X2991Y1085*
X2992Y1084*
X2992Y1082*
X2993Y1081*
X2994Y1080*
X3018Y1056*
X3018Y1055*
Y1054*
X3018Y1052*
X3019Y1051*
X3020Y1049*
X3020Y1047*
X3021Y1046*
X3023Y1045*
X3024Y1044*
X3025Y1043*
X3027Y1042*
X3028Y1042*
X3030Y1042*
X3032*
X3034Y1042*
X3035Y1042*
X3037Y1043*
X3038Y1044*
X3039Y1045*
X3041Y1046*
X3042Y1047*
X3043Y1049*
X3043Y1051*
X3044Y1052*
X3044Y1054*
Y1055*
X3044Y1057*
X3043Y1059*
X3043Y1060*
X3042Y1062*
X3041Y1063*
X3039Y1064*
X3038Y1065*
X3037Y1066*
X3035Y1067*
X3034Y1067*
X3032Y1067*
X3030*
X3030Y1067*
X3008Y1090*
Y1200*
X3008Y1202*
X3007Y1203*
X3007Y1204*
X3006Y1205*
X3005Y1206*
X2980Y1231*
Y1386*
X3177Y1582*
X3178Y1582*
X3181Y1581*
Y1574*
X2990Y1383*
X2989Y1382*
X2988Y1380*
X2988Y1379*
X2988Y1377*
Y1255*
X2988Y1254*
X2988Y1252*
X2989Y1251*
X2990Y1250*
X3059Y1181*
Y1082*
X3059Y1081*
X3059Y1079*
X3060Y1078*
X3061Y1077*
X3081Y1056*
X3081Y1055*
Y1054*
X3081Y1052*
X3082Y1051*
X3082Y1049*
X3083Y1047*
X3084Y1046*
X3086Y1045*
X3087Y1044*
X3088Y1043*
X3090Y1042*
X3091Y1042*
X3093Y1042*
X3095*
X3096Y1042*
X3098Y1042*
X3100Y1043*
X3101Y1044*
X3102Y1045*
X3104Y1046*
X3105Y1047*
X3105Y1049*
X3106Y1051*
X3107Y1052*
X3107Y1054*
Y1055*
X3107Y1057*
X3106Y1059*
X3105Y1060*
X3105Y1062*
X3104Y1063*
X3102Y1064*
X3101Y1065*
X3100Y1066*
X3098Y1067*
X3096Y1067*
X3095Y1067*
X3093*
X3092Y1067*
X3074Y1085*
Y1185*
X3074Y1186*
X3074Y1188*
X3073Y1189*
X3072Y1190*
X3003Y1259*
Y1374*
X3194Y1565*
X3195Y1566*
X3196Y1567*
X3196Y1569*
X3200Y1568*
Y1037*
X3196Y1036*
X3196Y1037*
X3195Y1038*
X3194Y1039*
X3193Y1041*
X3192Y1042*
X3190Y1043*
X3189Y1043*
X3187Y1044*
X3185Y1044*
X3184*
X3182Y1044*
X3180Y1043*
X3179Y1043*
X3177Y1042*
X3176Y1041*
X3175Y1039*
X3174Y1038*
X3173Y1037*
X3172Y1035*
X3172Y1034*
X3172Y1032*
Y1030*
X3172Y1029*
X3172Y1027*
X3173Y1025*
X3174Y1024*
X3175Y1023*
X3176Y1021*
X3177Y1020*
X3179Y1020*
X3180Y1019*
X3182Y1018*
X3184Y1018*
X3185*
X3187Y1018*
X3189Y1019*
X3190Y1020*
X3192Y1020*
X3193Y1021*
X3194Y1023*
X3195Y1024*
X3196Y1025*
X3196Y1026*
X3200Y1025*
Y1008*
X2913*
Y1181*
X2913Y1183*
X2913Y1186*
X2912Y1190*
X2911Y1194*
X2911Y1196*
Y1198*
X2910*
X2909Y1201*
X2908Y1205*
X2906Y1208*
X2904Y1212*
X2902Y1215*
X2899Y1218*
X2897Y1221*
X2894Y1224*
X2891Y1226*
X2888Y1229*
X2885Y1231*
X2882Y1233*
X2878Y1234*
X2875Y1236*
X2871Y1237*
X2867Y1238*
X2863Y1239*
X2860Y1239*
X2856Y1240*
X2854Y1240*
X2066*
X2065Y1240*
X2061Y1239*
X2057Y1239*
X2053Y1238*
X2049Y1237*
X2046Y1236*
X2042Y1234*
X2039Y1233*
X2035Y1231*
X2032Y1229*
X2029Y1226*
X2026Y1224*
X2023Y1221*
X2021Y1218*
X2018Y1215*
X2016Y1212*
X2014Y1208*
X2013Y1205*
X2011Y1201*
X2010Y1198*
X2009Y1194*
X2008Y1190*
X2008Y1186*
X2007Y1183*
X2007Y1181*
Y1008*
X913*
Y3476*
X3200*
Y2159*
G37*
G36*
X2403Y2475D02*
X2403Y2474D01*
X2404Y2473*
X2549Y2328*
X2550Y2327*
X2551Y2327*
X2551Y2327*
X2550Y2323*
X2545*
X2399Y2469*
Y2474*
X2402Y2475*
X2403Y2475*
G37*
G36*
X2382Y2683D02*
Y2466D01*
X2382Y2465*
X2382Y2463*
X2383Y2462*
X2384Y2461*
X2384Y2460*
X2536Y2309*
X2537Y2308*
X2538Y2307*
X2538Y2307*
X2537Y2303*
X2533*
X2378Y2459*
Y2677*
X2378Y2678*
X2377Y2679*
X2377Y2680*
X2376Y2682*
X2375Y2683*
X2312Y2746*
X2311Y2746*
X2310Y2747*
X2309Y2748*
X2308Y2748*
X2307Y2748*
X2282*
X2282Y2748*
X2280Y2749*
X2279Y2750*
X2277Y2751*
X2276Y2751*
X2274Y2751*
X2272*
X2272Y2751*
X2270Y2754*
X2270Y2755*
X2271Y2757*
X2308*
X2382Y2683*
G37*
G36*
X2817Y2290D02*
X2816Y2285D01*
X2814Y2285*
X2814Y2285*
X2798Y2301*
X2797Y2301*
X2796Y2302*
X2796Y2302*
X2797Y2306*
X2801*
X2817Y2290*
G37*
G36*
X2853Y2288D02*
X2853Y2286D01*
X2851Y2284*
X2851Y2284*
X2849*
X2847Y2284*
X2847Y2284*
X2810Y2320*
X2809Y2321*
X2808Y2322*
X2808Y2322*
X2809Y2326*
X2815*
X2853Y2288*
G37*
%LNbenchy-voltmeter-pcb-2*%
%LPC*%
G36*
X1894Y3398D02*
X1892D01*
X1891Y3398*
X1889Y3397*
X1888Y3397*
X1886Y3396*
X1885Y3395*
X1884Y3394*
X1883Y3392*
X1882Y3391*
X1881Y3389*
X1881Y3388*
X1880Y3386*
Y3384*
X1881Y3383*
X1881Y3381*
X1882Y3380*
X1883Y3378*
X1884Y3377*
X1885Y3376*
X1886Y3375*
X1888Y3374*
X1889Y3373*
X1891Y3373*
X1892Y3373*
X1894*
X1896Y3373*
X1897Y3373*
X1899Y3374*
X1900Y3375*
X1902Y3376*
X1903Y3377*
X1904Y3378*
X1905Y3380*
X1905Y3381*
X1906Y3383*
X1906Y3384*
Y3386*
X1906Y3388*
X1905Y3389*
X1905Y3391*
X1904Y3392*
X1903Y3394*
X1902Y3395*
X1900Y3396*
X1899Y3397*
X1897Y3397*
X1896Y3398*
X1894Y3398*
G37*
G36*
X2045Y3457D02*
X2041D01*
X2037Y3457*
X2033Y3456*
X2029Y3455*
X2025Y3454*
X2022Y3453*
X2018Y3451*
X2015Y3449*
X2012Y3446*
X2009Y3444*
X2006Y3441*
X2003Y3438*
X2001Y3435*
X1999Y3431*
X1997Y3428*
X1995Y3424*
X1994Y3420*
X1993Y3416*
X1993Y3413*
X1992Y3409*
Y3405*
X1993Y3401*
X1993Y3397*
X1994Y3393*
X1995Y3389*
X1997Y3385*
X1999Y3382*
X2001Y3378*
X2003Y3375*
X2006Y3372*
X2009Y3369*
X2012Y3367*
X2015Y3364*
X2018Y3362*
X2022Y3361*
X2025Y3359*
X2029Y3358*
X2033Y3357*
X2037Y3356*
X2041Y3356*
X2045*
X2049Y3356*
X2053Y3357*
X2057Y3358*
X2061Y3359*
X2064Y3361*
X2068Y3362*
X2071Y3364*
X2074Y3367*
X2077Y3369*
X2080Y3372*
X2083Y3375*
X2085Y3378*
X2087Y3382*
X2089Y3385*
X2091Y3389*
X2092Y3393*
X2093Y3397*
X2093Y3401*
X2094Y3405*
Y3409*
X2093Y3413*
X2093Y3416*
X2092Y3420*
X2091Y3424*
X2089Y3428*
X2087Y3431*
X2085Y3435*
X2083Y3438*
X2080Y3441*
X2077Y3444*
X2074Y3446*
X2071Y3449*
X2068Y3451*
X2064Y3453*
X2061Y3454*
X2057Y3455*
X2053Y3456*
X2049Y3457*
X2045Y3457*
G37*
G36*
X1820D02*
X1816D01*
X1812Y3457*
X1808Y3456*
X1804Y3455*
X1800Y3454*
X1797Y3453*
X1793Y3451*
X1790Y3449*
X1787Y3446*
X1784Y3444*
X1781Y3441*
X1778Y3438*
X1776Y3435*
X1774Y3431*
X1772Y3428*
X1770Y3424*
X1769Y3420*
X1768Y3416*
X1768Y3413*
X1767Y3409*
Y3405*
X1768Y3401*
X1768Y3397*
X1769Y3393*
X1770Y3389*
X1772Y3385*
X1774Y3382*
X1776Y3378*
X1778Y3375*
X1781Y3372*
X1784Y3369*
X1787Y3367*
X1790Y3364*
X1793Y3362*
X1797Y3361*
X1800Y3359*
X1804Y3358*
X1808Y3357*
X1812Y3356*
X1816Y3356*
X1820*
X1824Y3356*
X1828Y3357*
X1832Y3358*
X1836Y3359*
X1839Y3361*
X1843Y3362*
X1846Y3364*
X1849Y3367*
X1852Y3369*
X1855Y3372*
X1858Y3375*
X1860Y3378*
X1862Y3382*
X1864Y3385*
X1866Y3389*
X1867Y3393*
X1868Y3397*
X1868Y3401*
X1869Y3405*
Y3409*
X1868Y3413*
X1868Y3416*
X1867Y3420*
X1866Y3424*
X1864Y3428*
X1862Y3431*
X1860Y3435*
X1858Y3438*
X1855Y3441*
X1852Y3444*
X1849Y3446*
X1846Y3449*
X1843Y3451*
X1839Y3453*
X1836Y3454*
X1832Y3455*
X1828Y3456*
X1824Y3457*
X1820Y3457*
G37*
G36*
X2303Y3390D02*
X2302D01*
X2300Y3390*
X2299Y3390*
X2297Y3389*
X2296Y3388*
X2294Y3387*
X2293Y3386*
X2292Y3385*
X2291Y3383*
X2291Y3382*
X2290Y3380*
X2290Y3378*
Y3377*
X2290Y3375*
X2291Y3373*
X2291Y3372*
X2292Y3370*
X2293Y3369*
X2294Y3368*
X2296Y3367*
X2297Y3366*
X2297Y3366*
X2298Y3365*
Y3362*
X2297Y3362*
X2297Y3361*
X2296Y3361*
X2294Y3360*
X2293Y3358*
X2292Y3357*
X2291Y3356*
X2291Y3354*
X2290Y3352*
X2290Y3351*
Y3349*
X2290Y3347*
X2291Y3346*
X2291Y3344*
X2292Y3343*
X2293Y3341*
X2294Y3341*
X2294Y3340*
Y3336*
X2294Y3336*
X2293Y3335*
X2293Y3335*
X2289*
X2288Y3335*
X2287Y3336*
X2286Y3337*
X2285Y3338*
X2283Y3338*
X2282Y3339*
X2280Y3339*
X2278*
X2277Y3339*
X2275Y3338*
X2273Y3338*
X2272Y3337*
X2271Y3336*
X2270Y3335*
X2269Y3335*
X2265*
X2265Y3335*
X2264Y3336*
X2263Y3337*
X2261Y3338*
X2260Y3338*
X2258Y3339*
X2256Y3339*
X2255*
X2253Y3339*
X2251Y3338*
X2250Y3338*
X2248Y3337*
X2247Y3336*
X2246Y3335*
X2245Y3335*
X2242*
X2241Y3335*
X2240Y3336*
X2239Y3337*
X2237Y3338*
X2236Y3338*
X2234Y3339*
X2233Y3339*
X2231*
X2229Y3339*
X2228Y3338*
X2226Y3338*
X2225Y3337*
X2223Y3336*
X2222Y3335*
X2222Y3335*
X2218*
X2218Y3335*
X2217Y3336*
X2215Y3337*
X2214Y3338*
X2212Y3338*
X2211Y3339*
X2209Y3339*
X2207*
X2206Y3339*
X2204Y3338*
X2202Y3338*
X2201Y3337*
X2200Y3336*
X2199Y3335*
X2198Y3335*
X2195*
X2194Y3335*
X2193Y3336*
X2192Y3337*
X2190Y3338*
X2189Y3338*
X2187Y3339*
X2185Y3339*
X2184*
X2182Y3339*
X2180Y3338*
X2179Y3338*
X2177Y3337*
X2176Y3336*
X2175Y3335*
X2174Y3333*
X2173Y3332*
X2172Y3330*
X2172Y3329*
X2172Y3327*
Y3325*
X2172Y3324*
X2172Y3322*
X2173Y3321*
X2174Y3319*
X2175Y3318*
X2176Y3317*
X2177Y3316*
X2179Y3315*
X2180Y3314*
X2182Y3314*
X2184Y3313*
X2185*
X2187Y3314*
X2189Y3314*
X2190Y3315*
X2192Y3316*
X2193Y3317*
X2194Y3318*
X2195Y3318*
X2198*
X2199Y3318*
X2200Y3317*
X2201Y3316*
X2202Y3315*
X2204Y3314*
X2206Y3314*
X2207Y3313*
X2209*
X2211Y3314*
X2212Y3314*
X2214Y3315*
X2215Y3316*
X2217Y3317*
X2218Y3318*
X2218Y3318*
X2222*
X2222Y3318*
X2223Y3317*
X2225Y3316*
X2226Y3315*
X2228Y3314*
X2229Y3314*
X2231Y3313*
X2233*
X2234Y3314*
X2236Y3314*
X2237Y3315*
X2239Y3316*
X2240Y3317*
X2241Y3318*
X2242Y3318*
X2245*
X2246Y3318*
X2247Y3317*
X2248Y3316*
X2250Y3315*
X2251Y3314*
X2253Y3314*
X2255Y3313*
X2256*
X2258Y3314*
X2260Y3314*
X2261Y3315*
X2263Y3316*
X2264Y3317*
X2265Y3318*
X2265Y3318*
X2269*
X2270Y3318*
X2271Y3317*
X2272Y3316*
X2273Y3315*
X2275Y3314*
X2277Y3314*
X2278Y3313*
X2280*
X2282Y3314*
X2283Y3314*
X2285Y3315*
X2286Y3316*
X2287Y3317*
X2288Y3318*
X2289Y3318*
X2291*
X2293Y3316*
X2293Y3311*
X2292Y3310*
X2291Y3308*
X2291Y3307*
X2290Y3305*
X2290Y3303*
Y3302*
X2290Y3300*
X2291Y3299*
X2291Y3297*
X2292Y3296*
X2293Y3294*
X2294Y3293*
X2294Y3293*
Y3289*
X2294Y3288*
X2293Y3287*
X2292Y3286*
X2291Y3285*
X2291Y3283*
X2290Y3282*
X2290Y3280*
Y3278*
X2290Y3277*
X2291Y3275*
X2291Y3273*
X2292Y3272*
X2293Y3271*
X2294Y3269*
X2296Y3268*
X2297Y3268*
X2299Y3267*
X2300Y3266*
X2302Y3266*
X2303*
X2305Y3266*
X2307Y3267*
X2308Y3268*
X2310Y3268*
X2311Y3269*
X2312Y3271*
X2313Y3272*
X2314Y3273*
X2315Y3275*
X2315Y3277*
X2315Y3278*
Y3280*
X2315Y3282*
X2315Y3283*
X2314Y3285*
X2313Y3286*
X2312Y3287*
X2311Y3288*
X2311Y3289*
Y3293*
X2311Y3293*
X2312Y3294*
X2313Y3296*
X2314Y3297*
X2315Y3299*
X2315Y3300*
X2315Y3302*
Y3303*
X2315Y3305*
X2315Y3307*
X2314Y3308*
X2313Y3310*
X2312Y3311*
X2311Y3312*
X2311Y3313*
Y3316*
X2311Y3317*
X2312Y3318*
X2313Y3319*
X2314Y3321*
X2315Y3322*
X2315Y3324*
X2315Y3325*
Y3327*
X2315Y3329*
X2315Y3330*
X2314Y3332*
X2313Y3333*
X2312Y3335*
X2311Y3336*
X2311Y3336*
Y3340*
X2311Y3341*
X2312Y3341*
X2313Y3343*
X2314Y3344*
X2315Y3346*
X2315Y3347*
X2315Y3349*
Y3351*
X2315Y3352*
X2315Y3354*
X2314Y3356*
X2313Y3357*
X2312Y3358*
X2311Y3360*
X2310Y3361*
X2308Y3361*
X2308Y3362*
X2308Y3362*
Y3365*
X2308Y3366*
X2308Y3366*
X2310Y3367*
X2311Y3368*
X2312Y3369*
X2313Y3370*
X2314Y3372*
X2315Y3373*
X2315Y3375*
X2315Y3377*
Y3378*
X2315Y3380*
X2315Y3382*
X2314Y3383*
X2313Y3385*
X2312Y3386*
X2311Y3387*
X2310Y3388*
X2308Y3389*
X2307Y3390*
X2305Y3390*
X2303Y3390*
G37*
G36*
X1574Y3403D02*
X1571D01*
X1568Y3403*
X1565Y3402*
X1561Y3401*
X1558Y3400*
X1555Y3399*
X1553Y3397*
X1550Y3395*
X1547Y3393*
X1545Y3391*
X1543Y3388*
X1541Y3386*
X1540Y3383*
X1538Y3380*
X1537Y3377*
X1536Y3374*
X1536Y3371*
X1535Y3367*
Y3364*
X1536Y3361*
X1536Y3358*
X1537Y3354*
X1538Y3351*
X1540Y3348*
X1541Y3346*
X1543Y3343*
X1545Y3340*
X1547Y3338*
X1550Y3336*
X1553Y3334*
X1555Y3332*
X1558Y3331*
X1561Y3330*
X1565Y3329*
X1568Y3329*
X1571Y3328*
X1574*
X1578Y3329*
X1581Y3329*
X1584Y3330*
X1587Y3331*
X1590Y3332*
X1593Y3334*
X1596Y3336*
X1598Y3338*
X1600Y3340*
X1602Y3343*
X1604Y3346*
X1606Y3348*
X1607Y3351*
X1608Y3354*
X1609Y3358*
X1610Y3361*
X1610Y3364*
Y3367*
X1610Y3371*
X1609Y3374*
X1608Y3377*
X1607Y3380*
X1606Y3383*
X1604Y3386*
X1602Y3388*
X1600Y3391*
X1598Y3393*
X1596Y3395*
X1593Y3397*
X1590Y3399*
X1587Y3400*
X1584Y3401*
X1581Y3402*
X1578Y3403*
X1574Y3403*
G37*
G36*
X1510D02*
X1435D01*
Y3328*
X1510*
Y3403*
G37*
G36*
X2119Y3370D02*
X2117D01*
X2114Y3370*
X2112Y3369*
X2109Y3368*
X2107Y3367*
X2104Y3366*
X2102Y3364*
X2101Y3362*
X2099Y3360*
X2097Y3358*
X2096Y3356*
X2095Y3353*
X2095Y3351*
X2095Y3348*
Y3345*
X2095Y3343*
X2095Y3340*
X2096Y3338*
X2097Y3335*
X2099Y3333*
X2101Y3331*
X2102Y3329*
X2104Y3327*
X2107Y3326*
X2109Y3325*
X2112Y3324*
X2114Y3323*
X2117Y3323*
X2119*
X2122Y3323*
X2125Y3324*
X2127Y3325*
X2129Y3326*
X2132Y3327*
X2134Y3329*
X2136Y3331*
X2137Y3333*
X2139Y3335*
X2140Y3338*
X2141Y3340*
X2141Y3343*
X2141Y3345*
Y3348*
X2141Y3351*
X2141Y3353*
X2140Y3356*
X2139Y3358*
X2137Y3360*
X2136Y3362*
X2134Y3364*
X2132Y3366*
X2129Y3367*
X2127Y3368*
X2125Y3369*
X2122Y3370*
X2119Y3370*
G37*
G36*
X3114Y3393D02*
X3047D01*
X3045Y3393*
X3044Y3393*
X3043Y3392*
X3042Y3392*
X3040Y3391*
X3040Y3390*
X3039Y3388*
X3038Y3387*
X3038Y3386*
X3038Y3384*
Y3327*
X3038Y3326*
X3038Y3325*
X3039Y3323*
X3040Y3322*
X3040Y3321*
X3042Y3320*
X3043Y3319*
X3044Y3319*
X3045Y3318*
X3047Y3318*
X3114*
X3115Y3318*
X3116Y3319*
X3118Y3319*
X3119Y3320*
X3120Y3321*
X3121Y3322*
X3122Y3323*
X3122Y3325*
X3122Y3326*
X3123Y3327*
Y3384*
X3122Y3386*
X3122Y3387*
X3122Y3388*
X3121Y3390*
X3120Y3391*
X3119Y3392*
X3118Y3392*
X3116Y3393*
X3115Y3393*
X3114Y3393*
G37*
G36*
X1819Y3330D02*
X1817D01*
X1814Y3330*
X1812Y3329*
X1809Y3328*
X1807Y3327*
X1804Y3326*
X1802Y3324*
X1801Y3322*
X1799Y3320*
X1797Y3318*
X1796Y3316*
X1795Y3313*
X1795Y3311*
X1795Y3308*
Y3305*
X1795Y3303*
X1795Y3300*
X1796Y3298*
X1797Y3295*
X1799Y3293*
X1801Y3291*
X1802Y3289*
X1804Y3287*
X1807Y3286*
X1809Y3285*
X1812Y3284*
X1814Y3283*
X1817Y3283*
X1819*
X1822Y3283*
X1825Y3284*
X1827Y3285*
X1829Y3286*
X1832Y3287*
X1834Y3289*
X1836Y3291*
X1837Y3293*
X1839Y3295*
X1840Y3298*
X1841Y3300*
X1841Y3303*
X1841Y3305*
Y3308*
X1841Y3311*
X1841Y3313*
X1840Y3316*
X1839Y3318*
X1837Y3320*
X1836Y3322*
X1834Y3324*
X1832Y3326*
X1829Y3327*
X1827Y3328*
X1825Y3329*
X1822Y3330*
X1819Y3330*
G37*
G36*
X2142Y3319D02*
X2140D01*
X2139Y3319*
X2137Y3319*
X2136Y3318*
X2134Y3317*
X2133Y3316*
X2132Y3315*
X2131Y3314*
X2130Y3312*
X2129Y3311*
X2129Y3309*
X2128Y3307*
Y3306*
X2129Y3304*
X2129Y3302*
X2130Y3301*
X2131Y3299*
X2132Y3298*
X2133Y3297*
X2134Y3296*
X2136Y3295*
X2137Y3294*
X2139Y3294*
X2140Y3294*
X2141*
X2144Y3291*
Y3275*
X2140Y3274*
X2140Y3276*
X2139Y3278*
X2137Y3280*
X2136Y3282*
X2134Y3284*
X2132Y3286*
X2129Y3287*
X2127Y3288*
X2125Y3289*
X2122Y3290*
X2119Y3290*
X2117*
X2114Y3290*
X2112Y3289*
X2109Y3288*
X2107Y3287*
X2104Y3286*
X2102Y3284*
X2101Y3282*
X2099Y3280*
X2097Y3278*
X2096Y3276*
X2095Y3273*
X2095Y3271*
X2095Y3268*
Y3265*
X2095Y3263*
X2095Y3260*
X2096Y3258*
X2097Y3255*
X2099Y3253*
X2101Y3251*
X2102Y3249*
X2104Y3247*
X2107Y3246*
X2109Y3245*
X2112Y3244*
X2114Y3243*
X2117Y3243*
X2119*
X2122Y3243*
X2125Y3244*
X2127Y3245*
X2129Y3246*
X2132Y3247*
X2134Y3249*
X2136Y3251*
X2137Y3253*
X2139Y3255*
X2140Y3258*
X2140Y3259*
X2144Y3258*
Y3184*
X2055Y3095*
X2054*
X2052Y3095*
X2051Y3094*
X2049Y3094*
X2047Y3093*
X2046Y3092*
X2045Y3091*
X2044Y3089*
X2043Y3088*
X2042Y3086*
X2042Y3085*
X2042Y3083*
Y3081*
X2042Y3080*
X2042Y3078*
X2043Y3077*
X2044Y3075*
X2045Y3074*
X2046Y3073*
X2047Y3072*
X2049Y3071*
X2051Y3070*
X2052Y3070*
X2054Y3069*
X2055*
X2057Y3070*
X2059Y3070*
X2060Y3071*
X2062Y3072*
X2063Y3073*
X2064Y3074*
X2065Y3075*
X2066Y3077*
X2067Y3078*
X2067Y3080*
X2067Y3081*
Y3082*
X2159Y3174*
X2160Y3175*
X2161Y3177*
X2161Y3178*
X2162Y3179*
X2162Y3181*
Y3295*
Y3295*
X2162Y3296*
X2161Y3298*
X2161Y3299*
X2160Y3300*
X2159Y3301*
X2154Y3306*
Y3307*
X2154Y3309*
X2153Y3311*
X2153Y3312*
X2152Y3314*
X2151Y3315*
X2150Y3316*
X2148Y3317*
X2147Y3318*
X2145Y3319*
X2144Y3319*
X2142Y3319*
G37*
G36*
X1637Y3252D02*
X1612D01*
X1611Y3251*
X1609Y3251*
X1608Y3250*
X1607Y3249*
X1596Y3239*
X1583*
X1582Y3239*
X1581Y3240*
X1580Y3241*
X1578Y3242*
X1577Y3243*
X1575Y3243*
X1574Y3244*
X1572*
X1570Y3243*
X1569Y3243*
X1567Y3242*
X1566Y3241*
X1564Y3240*
X1563Y3239*
X1562Y3238*
X1561Y3236*
X1561Y3235*
X1560Y3233*
X1560Y3232*
Y3230*
X1560Y3228*
X1561Y3227*
X1561Y3225*
X1562Y3224*
X1563Y3222*
X1564Y3221*
X1566Y3220*
X1567Y3219*
X1569Y3219*
X1570Y3218*
X1572Y3218*
X1574*
X1575Y3218*
X1577Y3219*
X1578Y3219*
X1580Y3220*
X1581Y3221*
X1582Y3222*
X1583Y3223*
X1600*
X1601Y3223*
X1603Y3223*
X1604Y3224*
X1605Y3225*
X1616Y3236*
X1634*
X1777Y3092*
X1779Y3091*
X1780Y3091*
X1781Y3090*
X1783Y3090*
X1875*
X1876Y3089*
X1877Y3088*
X1878Y3087*
X1880Y3086*
X1881Y3086*
X1883Y3085*
X1884Y3085*
X1886*
X1888Y3085*
X1889Y3086*
X1891Y3086*
X1892Y3087*
X1894Y3088*
X1895Y3089*
X1896Y3091*
X1897Y3092*
X1897Y3094*
X1898Y3095*
X1898Y3097*
Y3099*
X1898Y3100*
X1897Y3102*
X1897Y3104*
X1896Y3105*
X1895Y3106*
X1894Y3108*
X1892Y3109*
X1891Y3109*
X1889Y3110*
X1888Y3111*
X1886Y3111*
X1884*
X1883Y3111*
X1881Y3110*
X1880Y3109*
X1878Y3109*
X1877Y3108*
X1876Y3106*
X1875Y3106*
X1786*
X1643Y3249*
X1642Y3250*
X1640Y3251*
X1639Y3251*
X1637Y3252*
G37*
G36*
X1469Y3264D02*
X1467D01*
X1465Y3264*
X1464Y3263*
X1462Y3263*
X1461Y3262*
X1459Y3261*
X1458Y3260*
X1457Y3258*
X1456Y3257*
X1456Y3255*
X1455Y3254*
X1455Y3252*
Y3250*
X1455Y3249*
X1456Y3247*
X1456Y3245*
X1457Y3244*
X1458Y3243*
X1459Y3242*
X1461Y3240*
X1462Y3240*
X1464Y3239*
X1465Y3239*
X1467Y3238*
X1469*
X1470Y3239*
X1472Y3239*
X1473Y3240*
X1475Y3240*
X1476Y3242*
X1477Y3243*
X1478Y3244*
X1479Y3245*
X1480Y3247*
X1480Y3249*
X1481Y3250*
Y3252*
X1480Y3254*
X1480Y3255*
X1479Y3257*
X1478Y3258*
X1477Y3260*
X1476Y3261*
X1475Y3262*
X1473Y3263*
X1472Y3263*
X1470Y3264*
X1469Y3264*
G37*
G36*
X1890Y3256D02*
X1888D01*
X1887Y3256*
X1885Y3256*
X1884Y3255*
X1882Y3254*
X1881Y3253*
X1880Y3252*
X1879Y3251*
X1878Y3249*
X1877Y3248*
X1877Y3246*
X1876Y3244*
Y3243*
X1877Y3241*
X1877Y3239*
X1878Y3238*
X1879Y3236*
X1880Y3235*
X1881Y3234*
X1882Y3233*
X1884Y3232*
X1885Y3231*
X1887Y3231*
X1888Y3231*
X1890*
X1892Y3231*
X1893Y3231*
X1895Y3232*
X1896Y3233*
X1898Y3234*
X1899Y3235*
X1900Y3236*
X1901Y3238*
X1901Y3239*
X1902Y3241*
X1902Y3243*
Y3244*
X1902Y3246*
X1901Y3248*
X1901Y3249*
X1900Y3251*
X1899Y3252*
X1898Y3253*
X1896Y3254*
X1895Y3255*
X1893Y3256*
X1892Y3256*
X1890Y3256*
G37*
G36*
X3085Y3295D02*
X3075D01*
X3072Y3295*
X3069Y3294*
X3066Y3294*
X3062Y3293*
X3059Y3291*
X3057Y3290*
X3054Y3288*
X3051Y3286*
X3049Y3284*
X3047Y3281*
X3045Y3279*
X3043Y3276*
X3041Y3273*
X3040Y3270*
X3039Y3267*
X3038Y3264*
X3038Y3261*
X3038Y3257*
X3038Y3254*
X3038Y3251*
X3039Y3248*
X3040Y3245*
X3041Y3242*
X3043Y3239*
X3045Y3236*
X3047Y3233*
X3049Y3231*
X3051Y3229*
X3054Y3227*
X3057Y3225*
X3059Y3223*
X3062Y3222*
X3066Y3221*
X3069Y3221*
X3072Y3220*
X3075Y3220*
X3085*
X3088Y3220*
X3092Y3221*
X3095Y3221*
X3098Y3222*
X3101Y3223*
X3104Y3225*
X3107Y3227*
X3109Y3229*
X3112Y3231*
X3114Y3233*
X3116Y3236*
X3118Y3239*
X3119Y3242*
X3120Y3245*
X3121Y3248*
X3122Y3251*
X3122Y3254*
X3123Y3257*
X3122Y3261*
X3122Y3264*
X3121Y3267*
X3120Y3270*
X3119Y3273*
X3118Y3276*
X3116Y3279*
X3114Y3281*
X3112Y3284*
X3109Y3286*
X3107Y3288*
X3104Y3290*
X3101Y3291*
X3098Y3293*
X3095Y3294*
X3092Y3294*
X3088Y3295*
X3085Y3295*
G37*
G36*
X2045Y3257D02*
X2041D01*
X2037Y3257*
X2033Y3256*
X2029Y3255*
X2025Y3254*
X2022Y3253*
X2018Y3251*
X2015Y3249*
X2012Y3246*
X2009Y3244*
X2006Y3241*
X2003Y3238*
X2001Y3235*
X1999Y3231*
X1997Y3228*
X1995Y3224*
X1994Y3220*
X1993Y3216*
X1993Y3213*
X1992Y3209*
Y3205*
X1993Y3201*
X1993Y3197*
X1994Y3193*
X1995Y3189*
X1997Y3185*
X1999Y3182*
X2001Y3178*
X2003Y3175*
X2006Y3172*
X2009Y3169*
X2012Y3167*
X2015Y3164*
X2018Y3162*
X2022Y3161*
X2025Y3159*
X2029Y3158*
X2033Y3157*
X2037Y3156*
X2041Y3156*
X2045*
X2049Y3156*
X2053Y3157*
X2057Y3158*
X2061Y3159*
X2064Y3161*
X2068Y3162*
X2071Y3164*
X2074Y3167*
X2077Y3169*
X2080Y3172*
X2083Y3175*
X2085Y3178*
X2087Y3182*
X2089Y3185*
X2091Y3189*
X2092Y3193*
X2093Y3197*
X2093Y3201*
X2094Y3205*
Y3209*
X2093Y3213*
X2093Y3216*
X2092Y3220*
X2091Y3224*
X2089Y3228*
X2087Y3231*
X2085Y3235*
X2083Y3238*
X2080Y3241*
X2077Y3244*
X2074Y3246*
X2071Y3249*
X2068Y3251*
X2064Y3253*
X2061Y3254*
X2057Y3255*
X2053Y3256*
X2049Y3257*
X2045Y3257*
G37*
G36*
X1820D02*
X1816D01*
X1812Y3257*
X1808Y3256*
X1804Y3255*
X1800Y3254*
X1797Y3253*
X1793Y3251*
X1790Y3249*
X1787Y3246*
X1784Y3244*
X1781Y3241*
X1778Y3238*
X1776Y3235*
X1774Y3231*
X1772Y3228*
X1770Y3224*
X1769Y3220*
X1768Y3216*
X1768Y3213*
X1767Y3209*
Y3205*
X1768Y3201*
X1768Y3197*
X1769Y3193*
X1770Y3189*
X1772Y3185*
X1774Y3182*
X1776Y3178*
X1778Y3175*
X1781Y3172*
X1784Y3169*
X1787Y3167*
X1790Y3164*
X1793Y3162*
X1797Y3161*
X1800Y3159*
X1804Y3158*
X1808Y3157*
X1812Y3156*
X1816Y3156*
X1820*
X1824Y3156*
X1828Y3157*
X1832Y3158*
X1836Y3159*
X1839Y3161*
X1843Y3162*
X1846Y3164*
X1849Y3167*
X1852Y3169*
X1855Y3172*
X1858Y3175*
X1860Y3178*
X1862Y3182*
X1864Y3185*
X1866Y3189*
X1867Y3193*
X1868Y3197*
X1868Y3201*
X1869Y3205*
Y3209*
X1868Y3213*
X1868Y3216*
X1867Y3220*
X1866Y3224*
X1864Y3228*
X1862Y3231*
X1860Y3235*
X1858Y3238*
X1855Y3241*
X1852Y3244*
X1849Y3246*
X1846Y3249*
X1843Y3251*
X1839Y3253*
X1836Y3254*
X1832Y3255*
X1828Y3256*
X1824Y3257*
X1820Y3257*
G37*
G36*
X2142Y3091D02*
X2140D01*
X2139Y3091*
X2137Y3090*
X2136Y3090*
X2134Y3089*
X2133Y3088*
X2132Y3087*
X2131Y3086*
X2104*
X2104Y3087*
X2102Y3088*
X2101Y3089*
X2100Y3090*
X2098Y3090*
X2096Y3091*
X2095Y3091*
X2093*
X2091Y3091*
X2090Y3090*
X2088Y3090*
X2087Y3089*
X2086Y3088*
X2084Y3087*
X2083Y3085*
X2082Y3084*
X2082Y3082*
X2081Y3081*
X2081Y3079*
Y3077*
X2081Y3076*
X2082Y3074*
X2082Y3073*
X2083Y3071*
X2084Y3070*
X2086Y3069*
X2087Y3068*
X2088Y3067*
X2090Y3066*
X2091Y3066*
X2093Y3065*
X2095*
X2096Y3066*
X2098Y3066*
X2100Y3067*
X2101Y3068*
X2102Y3069*
X2104Y3070*
X2104Y3070*
X2131*
X2132Y3070*
X2133Y3069*
X2134Y3068*
X2136Y3067*
X2137Y3066*
X2139Y3066*
X2140Y3065*
X2142*
X2144Y3066*
X2145Y3066*
X2147Y3067*
X2148Y3068*
X2150Y3069*
X2151Y3070*
X2152Y3071*
X2153Y3073*
X2153Y3074*
X2154Y3076*
X2154Y3077*
Y3079*
X2154Y3081*
X2153Y3082*
X2153Y3084*
X2152Y3085*
X2151Y3087*
X2150Y3088*
X2148Y3089*
X2147Y3090*
X2145Y3090*
X2144Y3091*
X2142Y3091*
G37*
G36*
X1815Y3071D02*
X1814D01*
X1812Y3071*
X1810Y3071*
X1809Y3070*
X1807Y3069*
X1806Y3068*
X1805Y3067*
X1804Y3066*
X1803Y3064*
X1802Y3063*
X1802Y3061*
X1802Y3059*
Y3058*
X1802Y3056*
X1802Y3054*
X1803Y3053*
X1804Y3051*
X1805Y3050*
X1806Y3049*
X1807Y3048*
X1809Y3047*
X1810Y3046*
X1812Y3046*
X1814Y3046*
X1815*
X1817Y3046*
X1819Y3046*
X1820Y3047*
X1822Y3048*
X1823Y3049*
X1824Y3050*
X1825Y3051*
X1826Y3053*
X1827Y3054*
X1827Y3056*
X1827Y3058*
Y3059*
X1827Y3061*
X1827Y3063*
X1826Y3064*
X1825Y3066*
X1824Y3067*
X1823Y3068*
X1822Y3069*
X1820Y3070*
X1819Y3071*
X1817Y3071*
X1815Y3071*
G37*
G36*
X1028Y3068D02*
X1018D01*
X1015Y3068*
X1012Y3068*
X1009Y3067*
X1005Y3066*
X1002Y3065*
X999Y3063*
X997Y3062*
X994Y3060*
X992Y3057*
X990Y3055*
X988Y3052*
X986Y3050*
X984Y3047*
X983Y3044*
X982Y3041*
X981Y3038*
X981Y3034*
X981Y3031*
X981Y3028*
X981Y3025*
X982Y3021*
X983Y3018*
X984Y3015*
X986Y3012*
X988Y3010*
X990Y3007*
X992Y3005*
X994Y3002*
X997Y3000*
X999Y2999*
X1002Y2997*
X1005Y2996*
X1009Y2995*
X1012Y2994*
X1015Y2994*
X1018Y2994*
X1028*
X1031Y2994*
X1035Y2994*
X1038Y2995*
X1041Y2996*
X1044Y2997*
X1047Y2999*
X1050Y3000*
X1052Y3002*
X1055Y3005*
X1057Y3007*
X1059Y3010*
X1060Y3012*
X1062Y3015*
X1063Y3018*
X1064Y3021*
X1065Y3025*
X1065Y3028*
X1065Y3031*
X1065Y3034*
X1065Y3038*
X1064Y3041*
X1063Y3044*
X1062Y3047*
X1060Y3050*
X1059Y3052*
X1057Y3055*
X1055Y3057*
X1052Y3060*
X1050Y3062*
X1047Y3063*
X1044Y3065*
X1041Y3066*
X1038Y3067*
X1035Y3068*
X1031Y3068*
X1028Y3068*
G37*
G36*
X1708Y3134D02*
X1543D01*
X1542Y3134*
X1540Y3133*
X1539Y3133*
X1538Y3132*
X1537Y3131*
X1320Y2915*
X1320Y2914*
X1319Y2913*
X1318Y2912*
X1318Y2910*
X1318Y2909*
Y2798*
X939Y2419*
X938Y2418*
X937Y2417*
X937Y2415*
X936Y2414*
X936Y2413*
Y2234*
X936Y2234*
X935Y2232*
X934Y2231*
X933Y2230*
X932Y2228*
X932Y2226*
X932Y2225*
Y2223*
X932Y2221*
X932Y2220*
X933Y2218*
X934Y2217*
X935Y2215*
X936Y2214*
X937Y2213*
X939Y2212*
X940Y2212*
X942Y2211*
X944Y2211*
X945*
X947Y2211*
X949Y2212*
X950Y2212*
X952Y2213*
X953Y2214*
X954Y2215*
X955Y2217*
X956Y2218*
X957Y2220*
X957Y2221*
X957Y2223*
Y2225*
X957Y2226*
X957Y2228*
X956Y2230*
X955Y2231*
X954Y2232*
X953Y2234*
X953Y2234*
Y2409*
X1332Y2789*
X1333Y2790*
X1334Y2791*
X1334Y2792*
X1334Y2793*
X1335Y2795*
Y2906*
X1338Y2909*
X1342Y2908*
X1342Y2907*
X1342Y2906*
X1342Y2905*
Y2786*
X974Y2419*
X973Y2418*
X972Y2417*
X972Y2415*
X972Y2414*
X972Y2413*
Y2212*
X931Y2171*
X930Y2170*
X929Y2169*
X929Y2167*
X928Y2166*
X928Y2165*
Y2013*
X928Y2013*
X927Y2012*
X926Y2011*
X925Y2009*
X924Y2008*
X924Y2006*
X924Y2004*
Y2003*
X924Y2001*
X924Y1999*
X925Y1998*
X926Y1996*
X927Y1995*
X928Y1994*
X929Y1993*
X931Y1992*
X932Y1991*
X934Y1991*
X936Y1991*
X937*
X939Y1991*
X941Y1991*
X942Y1992*
X944Y1993*
X945Y1994*
X946Y1995*
X947Y1996*
X948Y1998*
X949Y1999*
X949Y2001*
X949Y2003*
Y2004*
X949Y2006*
X949Y2008*
X948Y2009*
X947Y2011*
X946Y2012*
X945Y2013*
X945Y2013*
Y2161*
X986Y2202*
X987Y2203*
X987Y2204*
X988Y2206*
X988Y2207*
X988Y2208*
Y2409*
X1356Y2777*
X1357Y2778*
X1357Y2779*
X1358Y2780*
X1358Y2782*
X1358Y2783*
Y2902*
X1554Y3098*
X1558*
X1559Y3094*
X1559Y3094*
X1558Y3093*
X1557Y3092*
X1368Y2903*
X1367Y2902*
X1366Y2901*
X1366Y2900*
X1365Y2898*
X1365Y2897*
Y2775*
X998Y2407*
X997Y2406*
X996Y2405*
X996Y2404*
X995Y2402*
X995Y2401*
Y2196*
X964Y2165*
X963Y2164*
X963Y2163*
X962Y2162*
X962Y2160*
X962Y2159*
Y2139*
X962Y2139*
X960Y2138*
X959Y2137*
X958Y2135*
X958Y2134*
X957Y2132*
X957Y2130*
Y2129*
X957Y2127*
X958Y2125*
X958Y2124*
X959Y2122*
X960Y2121*
X962Y2120*
X963Y2119*
X964Y2118*
X966Y2117*
X967Y2117*
X969Y2117*
X971*
X972Y2117*
X974Y2117*
X976Y2118*
X977Y2119*
X978Y2120*
X980Y2121*
X981Y2122*
X981Y2124*
X982Y2125*
X983Y2127*
X983Y2129*
Y2130*
X983Y2132*
X982Y2134*
X981Y2135*
X981Y2137*
X980Y2138*
X978Y2139*
X978Y2139*
Y2156*
X1009Y2187*
X1010Y2188*
X1011Y2189*
X1011Y2190*
X1012Y2191*
X1012Y2192*
Y2398*
X1379Y2765*
X1380Y2766*
X1381Y2767*
X1381Y2769*
X1382Y2770*
X1382Y2771*
Y2894*
X1566Y3078*
X1693*
X1789Y2982*
X1790Y2981*
X1791Y2980*
X1792Y2980*
X1793Y2980*
X1795Y2979*
X1921*
X1922Y2980*
X1923Y2980*
X1925Y2980*
X1926Y2981*
X1927Y2982*
X2001Y3057*
X2002Y3058*
X2003Y3059*
X2003Y3060*
X2004Y3061*
X2004Y3062*
Y3080*
X2004Y3080*
X2005Y3082*
X2006Y3083*
X2007Y3084*
X2008Y3086*
X2008Y3088*
X2008Y3089*
Y3091*
X2008Y3093*
X2008Y3094*
X2007Y3096*
X2006Y3097*
X2005Y3099*
X2004Y3100*
X2003Y3101*
X2001Y3102*
X2000Y3102*
X1998Y3103*
X1996Y3103*
X1995*
X1993Y3103*
X1991Y3102*
X1990Y3102*
X1988Y3101*
X1987Y3100*
X1986Y3099*
X1985Y3097*
X1985Y3097*
X1982Y3097*
X1980Y3097*
X1980Y3098*
X1980Y3100*
X1979Y3101*
X1978Y3102*
X1976Y3104*
X1975Y3105*
X1974Y3105*
X1972Y3106*
X1971Y3107*
X1969Y3107*
X1967*
X1966Y3107*
X1964Y3106*
X1962Y3105*
X1961Y3105*
X1960Y3104*
X1958Y3102*
X1957Y3101*
X1957Y3101*
X1956Y3101*
X1953Y3102*
Y3103*
X1953Y3104*
X1953Y3106*
X1952Y3108*
X1951Y3109*
X1950Y3110*
X1949Y3112*
X1948Y3113*
X1946Y3113*
X1945Y3114*
X1943Y3114*
X1941Y3115*
X1940*
X1938Y3114*
X1936Y3114*
X1935Y3113*
X1933Y3113*
X1932Y3112*
X1931Y3110*
X1930Y3109*
X1929Y3108*
X1928Y3106*
X1928Y3104*
X1928Y3103*
Y3101*
X1928Y3099*
X1928Y3098*
X1929Y3096*
X1930Y3095*
X1931Y3093*
X1932Y3092*
X1932Y3092*
Y3078*
X1890Y3035*
X1810*
X1714Y3131*
X1713Y3132*
X1712Y3133*
X1711Y3133*
X1709Y3134*
X1708Y3134*
G37*
G36*
X2251Y2980D02*
X2249D01*
X2248Y2980*
X2246Y2979*
X2244Y2979*
X2243Y2978*
X2242Y2977*
X2240Y2976*
X2239Y2974*
X2239Y2973*
X2238Y2971*
X2238Y2970*
X2237Y2968*
Y2966*
X2238Y2965*
X2238Y2963*
X2239Y2962*
X2239Y2960*
X2240Y2959*
X2241Y2959*
X2238Y2955*
X2237Y2956*
X2236Y2957*
X2234Y2957*
X2233Y2957*
X2231*
X2229Y2957*
X2228Y2957*
X2226Y2956*
X2225Y2955*
X2223Y2954*
X2222Y2953*
X2221Y2952*
X2220Y2950*
X2220Y2949*
X2219Y2947*
X2219Y2945*
Y2944*
X2219Y2942*
X2220Y2940*
X2220Y2939*
X2221Y2937*
X2222Y2936*
X2223Y2935*
X2225Y2934*
X2226Y2933*
X2228Y2932*
X2229Y2932*
X2231Y2932*
X2233*
X2234Y2932*
X2236Y2932*
X2237Y2933*
X2239Y2934*
X2240Y2935*
X2241Y2936*
X2242Y2937*
X2243Y2939*
X2244Y2940*
X2244Y2942*
X2245Y2944*
Y2945*
X2244Y2947*
X2244Y2949*
X2243Y2950*
X2242Y2952*
X2241Y2953*
X2241Y2953*
X2244Y2956*
X2244Y2956*
X2246Y2955*
X2248Y2955*
X2249Y2954*
X2251*
X2253Y2955*
X2254Y2955*
X2256Y2956*
X2257Y2957*
X2259Y2958*
X2260Y2959*
X2261Y2960*
X2262Y2962*
X2262Y2963*
X2263Y2965*
X2263Y2966*
Y2968*
X2263Y2970*
X2262Y2971*
X2262Y2973*
X2261Y2974*
X2260Y2976*
X2259Y2977*
X2257Y2978*
X2256Y2979*
X2254Y2979*
X2253Y2980*
X2251Y2980*
G37*
G36*
X2315Y2981D02*
X2314D01*
X2312Y2981*
X2310Y2980*
X2309Y2980*
X2307Y2979*
X2306Y2978*
X2305Y2976*
X2304Y2975*
X2303Y2974*
X2302Y2972*
X2302Y2971*
X2302Y2969*
Y2967*
X2302Y2966*
X2302Y2964*
X2303Y2962*
X2304Y2961*
X2305Y2960*
X2306Y2958*
X2307Y2957*
X2309Y2957*
X2310Y2956*
X2312Y2955*
X2314Y2955*
X2315*
X2317Y2955*
X2319Y2956*
X2320Y2957*
X2322Y2957*
X2323Y2958*
X2324Y2960*
X2325Y2961*
X2326Y2962*
X2327Y2964*
X2327Y2966*
X2327Y2967*
Y2969*
X2327Y2971*
X2327Y2972*
X2326Y2974*
X2325Y2975*
X2324Y2976*
X2323Y2978*
X2322Y2979*
X2320Y2980*
X2319Y2980*
X2317Y2981*
X2315Y2981*
G37*
G36*
X2284D02*
X2282D01*
X2280Y2981*
X2279Y2980*
X2277Y2980*
X2276Y2979*
X2275Y2978*
X2273Y2976*
X2272Y2975*
X2271Y2974*
X2271Y2972*
X2270Y2971*
X2270Y2969*
Y2967*
X2270Y2966*
X2271Y2964*
X2271Y2962*
X2272Y2961*
X2273Y2960*
X2275Y2958*
X2276Y2957*
X2277Y2957*
X2279Y2956*
X2280Y2955*
X2282Y2955*
X2284*
X2285Y2955*
X2287Y2956*
X2289Y2957*
X2290Y2957*
X2291Y2958*
X2293Y2960*
X2294Y2961*
X2294Y2962*
X2295Y2964*
X2296Y2966*
X2296Y2967*
Y2969*
X2296Y2971*
X2295Y2972*
X2294Y2974*
X2294Y2975*
X2293Y2976*
X2291Y2978*
X2290Y2979*
X2289Y2980*
X2287Y2980*
X2285Y2981*
X2284Y2981*
G37*
G36*
X1721Y2969D02*
X1719D01*
X1717Y2969*
X1716Y2968*
X1714Y2968*
X1713Y2967*
X1712Y2966*
X1710Y2965*
X1709Y2963*
X1708Y2962*
X1708Y2960*
X1707Y2959*
X1707Y2957*
Y2955*
X1707Y2954*
X1708Y2952*
X1708Y2951*
X1709Y2949*
X1710Y2948*
X1712Y2947*
X1713Y2946*
X1714Y2945*
X1716Y2944*
X1717Y2944*
X1719Y2943*
X1721*
X1722Y2944*
X1724Y2944*
X1726Y2945*
X1727Y2946*
X1728Y2947*
X1730Y2948*
X1731Y2949*
X1731Y2951*
X1732Y2952*
X1733Y2954*
X1733Y2955*
Y2957*
X1733Y2959*
X1732Y2960*
X1731Y2962*
X1731Y2963*
X1730Y2965*
X1728Y2966*
X1727Y2967*
X1726Y2968*
X1724Y2968*
X1722Y2969*
X1721Y2969*
G37*
G36*
X2028Y2941D02*
X2026D01*
X2025Y2941*
X2023Y2941*
X2021Y2940*
X2020Y2939*
X2019Y2938*
X2017Y2937*
X2016Y2936*
X2016Y2934*
X2015Y2933*
X2014Y2931*
X2014Y2929*
Y2928*
X2014Y2927*
X1886Y2799*
X1875*
X1873Y2803*
X1986Y2916*
X1987Y2916*
X1989*
X1990Y2916*
X1992Y2916*
X1993Y2917*
X1995Y2918*
X1996Y2919*
X1997Y2920*
X1998Y2922*
X1999Y2923*
X2000Y2925*
X2000Y2926*
X2000Y2928*
Y2929*
X2000Y2931*
X2000Y2933*
X1999Y2934*
X1998Y2936*
X1997Y2937*
X1996Y2938*
X1995Y2939*
X1993Y2940*
X1992Y2941*
X1990Y2941*
X1989Y2941*
X1987*
X1985Y2941*
X1984Y2941*
X1982Y2940*
X1981Y2939*
X1979Y2938*
X1978Y2937*
X1977Y2936*
X1976Y2934*
X1976Y2933*
X1975Y2931*
X1975Y2929*
Y2928*
X1975Y2927*
X1862Y2815*
X1708*
X1707Y2814*
X1705Y2814*
X1704Y2813*
X1703Y2812*
X1481Y2591*
X1481Y2591*
X1479*
X1477Y2591*
X1476Y2590*
X1474Y2590*
X1473Y2589*
X1471Y2588*
X1470Y2587*
X1469Y2585*
X1468Y2584*
X1468Y2582*
X1467Y2581*
X1467Y2579*
Y2577*
X1467Y2576*
X1468Y2574*
X1468Y2573*
X1469Y2571*
X1470Y2570*
X1471Y2569*
X1473Y2568*
X1474Y2567*
X1476Y2566*
X1477Y2566*
X1479Y2565*
X1481*
X1482Y2566*
X1484Y2566*
X1485Y2567*
X1487Y2568*
X1488Y2569*
X1489Y2570*
X1490Y2571*
X1491Y2572*
X1492Y2571*
X1495Y2570*
Y2570*
X1495Y2568*
X1495Y2566*
X1496Y2565*
X1497Y2563*
X1498Y2562*
X1499Y2561*
X1500Y2560*
X1502Y2559*
X1503Y2558*
X1505Y2558*
X1507Y2558*
X1508*
X1510Y2558*
X1512Y2558*
X1513Y2559*
X1515Y2560*
X1516Y2561*
X1517Y2562*
X1518Y2563*
X1519Y2565*
X1520Y2566*
X1520Y2568*
X1520Y2570*
Y2571*
X1520Y2572*
X1731Y2783*
X1739*
X1739Y2779*
X1738Y2779*
X1737Y2778*
X1735Y2778*
X1734Y2777*
X1541Y2584*
X1540Y2583*
X1539Y2581*
X1539Y2580*
X1539Y2578*
Y2562*
X1536Y2560*
X1536Y2560*
X1534*
X1532Y2559*
X1531Y2559*
X1529Y2558*
X1528Y2557*
X1526Y2556*
X1525Y2555*
X1524Y2554*
X1523Y2552*
X1523Y2551*
X1522Y2549*
X1522Y2548*
Y2546*
X1522Y2544*
X1523Y2543*
X1523Y2541*
X1524Y2540*
X1525Y2538*
X1526Y2537*
X1528Y2536*
X1529Y2535*
X1531Y2535*
X1532Y2534*
X1534Y2534*
X1536*
X1537Y2534*
X1539Y2535*
X1541Y2535*
X1542Y2536*
X1543Y2537*
X1545Y2538*
X1546Y2540*
X1546Y2541*
X1547Y2543*
X1548Y2544*
X1548Y2546*
Y2548*
X1548Y2548*
X1552Y2553*
X1553Y2554*
X1554Y2556*
X1555Y2557*
X1555Y2559*
Y2575*
X1743Y2763*
X1913*
X1914Y2763*
X1916Y2764*
X1917Y2765*
X1918Y2766*
X2061Y2908*
X2062Y2908*
X2063*
X2065Y2908*
X2067Y2909*
X2068Y2909*
X2070Y2910*
X2071Y2911*
X2072Y2912*
X2073Y2914*
X2074Y2915*
X2075Y2917*
X2075Y2918*
X2075Y2920*
Y2922*
X2075Y2923*
X2075Y2925*
X2074Y2926*
X2073Y2928*
X2072Y2929*
X2071Y2930*
X2070Y2931*
X2068Y2932*
X2067Y2933*
X2065Y2933*
X2063Y2934*
X2062*
X2060Y2933*
X2058Y2933*
X2057Y2932*
X2055Y2931*
X2054Y2930*
X2053Y2929*
X2052Y2928*
X2051Y2926*
X2050Y2925*
X2050Y2923*
X2050Y2922*
Y2920*
X2050Y2919*
X1910Y2779*
X1890*
X1890Y2783*
X1891Y2783*
X1892Y2784*
X1894Y2784*
X1895Y2785*
X2026Y2916*
X2026Y2916*
X2028*
X2030Y2916*
X2031Y2916*
X2033Y2917*
X2034Y2918*
X2036Y2919*
X2037Y2920*
X2038Y2922*
X2039Y2923*
X2039Y2925*
X2040Y2926*
X2040Y2928*
Y2929*
X2040Y2931*
X2039Y2933*
X2039Y2934*
X2038Y2936*
X2037Y2937*
X2036Y2938*
X2034Y2939*
X2033Y2940*
X2031Y2941*
X2030Y2941*
X2028Y2941*
G37*
G36*
X1028Y2970D02*
X1018D01*
X1015Y2970*
X1012Y2969*
X1009Y2969*
X1005Y2968*
X1002Y2967*
X999Y2965*
X997Y2963*
X994Y2961*
X992Y2959*
X990Y2957*
X988Y2954*
X986Y2951*
X984Y2948*
X983Y2945*
X982Y2942*
X981Y2939*
X981Y2936*
X981Y2933*
X981Y2929*
X981Y2926*
X982Y2923*
X983Y2920*
X984Y2917*
X986Y2914*
X988Y2911*
X990Y2909*
X992Y2906*
X994Y2904*
X997Y2902*
X999Y2900*
X1002Y2899*
X1005Y2897*
X1009Y2896*
X1012Y2896*
X1015Y2895*
X1018Y2895*
X1028*
X1031Y2895*
X1035Y2896*
X1038Y2896*
X1041Y2897*
X1044Y2899*
X1047Y2900*
X1050Y2902*
X1052Y2904*
X1055Y2906*
X1057Y2909*
X1059Y2911*
X1060Y2914*
X1062Y2917*
X1063Y2920*
X1064Y2923*
X1065Y2926*
X1065Y2929*
X1065Y2933*
X1065Y2936*
X1065Y2939*
X1064Y2942*
X1063Y2945*
X1062Y2948*
X1060Y2951*
X1059Y2954*
X1057Y2957*
X1055Y2959*
X1052Y2961*
X1050Y2963*
X1047Y2965*
X1044Y2967*
X1041Y2968*
X1038Y2969*
X1035Y2969*
X1031Y2970*
X1028Y2970*
G37*
G36*
X2363Y3007D02*
X2011D01*
X2010Y3007*
X2008Y3007*
X2007Y3006*
X2006Y3005*
X1954Y2953*
X1953Y2953*
X1951*
X1950Y2953*
X1948Y2953*
X1947Y2952*
X1945Y2951*
X1944Y2950*
X1943Y2949*
X1942Y2948*
X1941Y2946*
X1940Y2945*
X1940Y2943*
X1939Y2941*
Y2940*
X1940Y2938*
X1940Y2936*
X1941Y2935*
X1942Y2933*
X1943Y2932*
X1944Y2931*
X1945Y2930*
X1947Y2929*
X1948Y2928*
X1950Y2928*
X1951Y2928*
X1953*
X1955Y2928*
X1956Y2928*
X1958Y2929*
X1959Y2930*
X1961Y2931*
X1962Y2932*
X1963Y2933*
X1964Y2935*
X1964Y2936*
X1965Y2938*
X1965Y2940*
Y2941*
X1965Y2942*
X2015Y2992*
X2359*
X2467Y2884*
X2469Y2883*
X2470Y2882*
X2471Y2882*
X2473Y2881*
X2499*
X2500Y2881*
X2501Y2880*
X2502Y2879*
X2504Y2878*
X2505Y2877*
X2507Y2877*
X2509Y2876*
X2510*
X2512Y2877*
X2513Y2877*
X2515Y2878*
X2516Y2879*
X2518Y2880*
X2519Y2881*
X2520Y2882*
X2521Y2884*
X2521Y2885*
X2522Y2887*
X2522Y2888*
Y2890*
X2522Y2892*
X2521Y2893*
X2521Y2895*
X2520Y2896*
X2519Y2898*
X2518Y2899*
X2516Y2900*
X2515Y2901*
X2513Y2901*
X2512Y2902*
X2510Y2902*
X2509*
X2507Y2902*
X2505Y2901*
X2504Y2901*
X2502Y2900*
X2501Y2899*
X2500Y2898*
X2499Y2897*
X2476*
X2368Y3005*
X2367Y3006*
X2366Y3007*
X2364Y3007*
X2363Y3007*
G37*
G36*
X2115Y2902D02*
X2113D01*
X2111Y2902*
X2110Y2901*
X2108Y2901*
X2107Y2900*
X2105Y2899*
X2104Y2898*
X2104Y2897*
X2090*
X2089Y2897*
X2087Y2897*
X2086Y2896*
X2084Y2895*
X1941Y2752*
X1846*
X1844Y2751*
X1843Y2751*
X1842Y2750*
X1840Y2749*
X1392Y2300*
X1391Y2299*
X1390Y2298*
X1389Y2296*
X1389Y2295*
Y1487*
X1311Y1409*
X1310Y1408*
X1310Y1406*
X1309Y1405*
X1309Y1403*
Y1278*
X1309Y1278*
X1306Y1277*
X1303Y1276*
X1300Y1274*
X1298Y1274*
X1295Y1276*
Y1281*
X1302*
Y1308*
X1272*
Y1281*
X1279*
Y1272*
X1279Y1271*
X1280Y1269*
X1280Y1268*
X1281Y1266*
X1286Y1262*
X1285Y1261*
X1284Y1259*
X1282Y1256*
X1281Y1252*
X1280Y1249*
X1280Y1246*
X1279Y1243*
Y1240*
X1280Y1236*
X1280Y1233*
X1281Y1230*
X1282Y1227*
X1284Y1224*
X1285Y1221*
X1287Y1218*
X1289Y1216*
X1292Y1214*
X1294Y1212*
X1297Y1210*
X1300Y1208*
X1303Y1207*
X1306Y1206*
X1309Y1205*
X1312Y1204*
X1315Y1204*
X1318*
X1322Y1204*
X1325Y1205*
X1328Y1206*
X1331Y1207*
X1334Y1208*
X1337Y1210*
X1340Y1212*
X1342Y1214*
X1344Y1216*
X1347Y1218*
X1348Y1221*
X1350Y1224*
X1351Y1227*
X1353Y1230*
X1353Y1233*
X1354Y1236*
X1354Y1240*
Y1243*
X1354Y1246*
X1353Y1249*
X1353Y1252*
X1351Y1256*
X1350Y1259*
X1348Y1261*
X1347Y1264*
X1344Y1267*
X1342Y1269*
X1340Y1271*
X1337Y1273*
X1334Y1274*
X1331Y1276*
X1328Y1277*
X1325Y1278*
X1325Y1278*
Y1400*
X1403Y1478*
X1404Y1479*
X1404Y1481*
X1405Y1482*
X1405Y1484*
Y2292*
X1849Y2736*
X1857*
X1857Y2732*
X1856Y2732*
X1855Y2731*
X1853Y2730*
X1852Y2730*
X1431Y2308*
X1430Y2307*
X1429Y2306*
X1429Y2304*
X1429Y2303*
Y1424*
X1411Y1407*
X1410Y1405*
X1410Y1404*
X1409Y1403*
X1409Y1401*
Y1278*
X1409Y1278*
X1406Y1277*
X1403Y1276*
X1400Y1274*
X1397Y1273*
X1397Y1273*
X1393Y1276*
Y1281*
X1400*
Y1308*
X1370*
Y1281*
X1377*
Y1273*
X1378Y1271*
X1378Y1270*
X1379Y1268*
X1380Y1267*
X1385Y1262*
X1385Y1261*
X1384Y1259*
X1382Y1256*
X1381Y1252*
X1380Y1249*
X1380Y1246*
X1379Y1243*
Y1240*
X1380Y1236*
X1380Y1233*
X1381Y1230*
X1382Y1227*
X1384Y1224*
X1385Y1221*
X1387Y1218*
X1389Y1216*
X1392Y1214*
X1394Y1212*
X1397Y1210*
X1400Y1208*
X1403Y1207*
X1406Y1206*
X1409Y1205*
X1412Y1204*
X1415Y1204*
X1418*
X1422Y1204*
X1425Y1205*
X1428Y1206*
X1431Y1207*
X1434Y1208*
X1437Y1210*
X1440Y1212*
X1442Y1214*
X1444Y1216*
X1447Y1218*
X1448Y1221*
X1450Y1224*
X1451Y1227*
X1453Y1230*
X1453Y1233*
X1454Y1236*
X1454Y1240*
Y1243*
X1454Y1246*
X1453Y1249*
X1453Y1252*
X1451Y1256*
X1450Y1259*
X1448Y1261*
X1447Y1264*
X1444Y1267*
X1442Y1269*
X1440Y1271*
X1437Y1273*
X1434Y1274*
X1431Y1276*
X1428Y1277*
X1425Y1278*
X1425Y1278*
Y1398*
X1442Y1415*
X1443Y1416*
X1444Y1418*
X1444Y1419*
X1444Y1421*
Y2299*
X1466Y2321*
X1469Y2319*
X1469Y2317*
X1468Y2316*
X1468Y2314*
Y1417*
X1468Y1415*
X1469Y1414*
X1469Y1412*
X1470Y1411*
X1509Y1373*
Y1278*
X1509Y1278*
X1506Y1277*
X1503Y1276*
X1500Y1274*
X1499Y1274*
X1496Y1276*
Y1281*
X1503*
Y1308*
X1473*
Y1281*
X1480*
Y1273*
X1480Y1271*
X1480Y1270*
X1481Y1268*
X1482Y1267*
X1486Y1263*
X1485Y1261*
X1484Y1259*
X1482Y1256*
X1481Y1252*
X1480Y1249*
X1480Y1246*
X1479Y1243*
Y1240*
X1480Y1236*
X1480Y1233*
X1481Y1230*
X1482Y1227*
X1484Y1224*
X1485Y1221*
X1487Y1218*
X1489Y1216*
X1492Y1214*
X1494Y1212*
X1497Y1210*
X1500Y1208*
X1503Y1207*
X1506Y1206*
X1509Y1205*
X1512Y1204*
X1515Y1204*
X1518*
X1522Y1204*
X1525Y1205*
X1528Y1206*
X1531Y1207*
X1534Y1208*
X1537Y1210*
X1540Y1212*
X1542Y1214*
X1544Y1216*
X1547Y1218*
X1548Y1221*
X1550Y1224*
X1551Y1227*
X1553Y1230*
X1553Y1233*
X1554Y1236*
X1554Y1240*
Y1243*
X1554Y1246*
X1553Y1249*
X1553Y1252*
X1551Y1256*
X1550Y1259*
X1548Y1261*
X1547Y1264*
X1544Y1267*
X1542Y1269*
X1540Y1271*
X1537Y1273*
X1534Y1274*
X1531Y1276*
X1528Y1277*
X1525Y1278*
X1525Y1278*
Y1376*
X1525Y1377*
X1524Y1379*
X1523Y1380*
X1522Y1381*
X1484Y1420*
Y2311*
X1869Y2696*
X1874*
X1875Y2692*
X1874Y2692*
X1873Y2691*
X1872Y2690*
X1509Y2328*
X1509Y2327*
X1508Y2326*
X1507Y2325*
X1507Y2324*
X1507Y2322*
Y1417*
X1507Y1416*
X1507Y1414*
X1508Y1413*
X1509Y1412*
X1509Y1411*
X1609Y1312*
Y1278*
X1606Y1277*
X1603Y1276*
X1600Y1274*
X1597Y1273*
X1594Y1271*
X1592Y1269*
X1589Y1267*
X1587Y1264*
X1585Y1261*
X1584Y1259*
X1582Y1256*
X1581Y1252*
X1580Y1249*
X1580Y1246*
X1579Y1243*
Y1240*
X1580Y1236*
X1580Y1233*
X1581Y1230*
X1582Y1227*
X1584Y1224*
X1585Y1221*
X1587Y1218*
X1589Y1216*
X1592Y1214*
X1594Y1212*
X1597Y1210*
X1600Y1208*
X1603Y1207*
X1606Y1206*
X1609Y1205*
X1612Y1204*
X1615Y1204*
X1618*
X1622Y1204*
X1625Y1205*
X1628Y1206*
X1631Y1207*
X1634Y1208*
X1637Y1210*
X1640Y1212*
X1642Y1214*
X1644Y1216*
X1647Y1218*
X1648Y1221*
X1650Y1224*
X1651Y1227*
X1653Y1230*
X1653Y1233*
X1654Y1236*
X1654Y1240*
Y1243*
X1654Y1246*
X1653Y1249*
X1653Y1252*
X1651Y1256*
X1650Y1259*
X1648Y1261*
X1647Y1264*
X1644Y1267*
X1642Y1269*
X1640Y1271*
X1637Y1273*
X1634Y1274*
X1631Y1276*
X1628Y1277*
X1625Y1278*
Y1315*
X1625Y1317*
X1625Y1318*
X1624Y1319*
X1624Y1320*
X1623Y1321*
X1524Y1420*
Y2319*
X1881Y2676*
X1886*
X1887Y2672*
X1886Y2672*
X1885Y2671*
X1884Y2670*
X1549Y2336*
X1548Y2335*
X1547Y2333*
X1547Y2332*
X1547Y2330*
Y1448*
X1547Y1447*
X1547Y1445*
X1548Y1444*
X1549Y1443*
X1709Y1283*
Y1278*
X1709Y1278*
X1706Y1277*
X1703Y1276*
X1700Y1274*
X1697Y1273*
X1694Y1271*
X1692Y1269*
X1689Y1267*
X1687Y1264*
X1685Y1261*
X1684Y1259*
X1682Y1256*
X1681Y1252*
X1680Y1249*
X1680Y1246*
X1679Y1243*
Y1240*
X1680Y1236*
X1680Y1233*
X1681Y1230*
X1682Y1227*
X1684Y1224*
X1685Y1221*
X1687Y1218*
X1689Y1216*
X1692Y1214*
X1694Y1212*
X1697Y1210*
X1700Y1208*
X1703Y1207*
X1706Y1206*
X1709Y1205*
X1712Y1204*
X1715Y1204*
X1718*
X1722Y1204*
X1725Y1205*
X1728Y1206*
X1731Y1207*
X1734Y1208*
X1737Y1210*
X1740Y1212*
X1742Y1214*
X1744Y1216*
X1747Y1218*
X1748Y1221*
X1750Y1224*
X1751Y1227*
X1753Y1230*
X1753Y1233*
X1754Y1236*
X1754Y1240*
Y1243*
X1754Y1246*
X1753Y1249*
X1753Y1252*
X1751Y1256*
X1750Y1259*
X1748Y1261*
X1747Y1264*
X1744Y1267*
X1742Y1269*
X1740Y1271*
X1737Y1273*
X1734Y1274*
X1731Y1276*
X1728Y1277*
X1725Y1278*
X1725Y1278*
Y1286*
X1725Y1288*
X1724Y1289*
X1723Y1291*
X1722Y1292*
X1563Y1452*
Y2327*
X1893Y2657*
X1934*
X1934*
X1934Y2654*
X1933Y2653*
X1932Y2652*
X1931Y2652*
X1929Y2651*
X1928Y2650*
X1927Y2649*
X1926Y2647*
X1925Y2646*
X1924Y2644*
X1924Y2643*
X1924Y2641*
Y2639*
X1924Y2638*
X1924Y2636*
X1925Y2635*
X1926Y2633*
X1927Y2632*
X1928Y2631*
X1927Y2630*
X1924Y2629*
X1923Y2629*
X1923Y2630*
X1921Y2631*
X1920Y2632*
X1919Y2633*
X1917Y2634*
X1915Y2634*
X1914Y2634*
X1912*
X1910Y2634*
X1909Y2634*
X1907Y2633*
X1906Y2632*
X1904Y2631*
X1903Y2630*
X1902Y2629*
X1901Y2627*
X1901Y2626*
X1900Y2624*
X1900Y2622*
Y2621*
X1900Y2619*
X1901Y2617*
X1901Y2616*
X1902Y2614*
X1903Y2613*
X1904Y2612*
X1905Y2612*
Y2522*
X1901Y2521*
X1900Y2522*
X1899Y2524*
X1898Y2525*
X1896Y2526*
X1895Y2527*
X1893Y2527*
X1892Y2528*
X1890Y2528*
X1888*
X1887Y2528*
X1885Y2527*
X1884Y2527*
X1882Y2526*
X1881Y2525*
X1880Y2524*
X1879Y2522*
X1878Y2521*
X1877Y2519*
X1877Y2518*
X1876Y2516*
Y2514*
X1877Y2513*
X1877Y2511*
X1878Y2510*
X1879Y2508*
X1880Y2507*
X1881Y2506*
X1881Y2505*
Y2236*
X1882Y2234*
X1882Y2233*
X1883Y2231*
X1884Y2230*
X1890Y2224*
Y2205*
X1890Y2205*
X1889Y2204*
X1888Y2203*
X1886Y2202*
X1886Y2200*
X1885Y2199*
X1885Y2197*
X1884Y2195*
Y2194*
X1885Y2192*
X1885Y2190*
X1886Y2189*
X1886Y2187*
X1888Y2186*
X1889Y2185*
X1890Y2184*
X1891Y2183*
X1893Y2182*
X1895Y2182*
X1896Y2182*
X1898*
X1900Y2182*
X1901Y2182*
X1903Y2183*
X1904Y2184*
X1906Y2185*
X1907Y2186*
X1907Y2186*
X1968*
X1971Y2183*
X1971Y2183*
X1971Y2182*
X1970Y2182*
X1970Y2181*
X1969Y2180*
X1969Y2179*
X1969Y2178*
Y2171*
X1969Y2170*
X1969Y2169*
X1970Y2168*
X1968Y2165*
X1966Y2164*
X1966Y2165*
X1964Y2165*
X1963Y2166*
X1961Y2166*
X1959*
X1958Y2166*
X1956Y2165*
X1954Y2165*
X1953Y2164*
X1952Y2163*
X1950Y2162*
X1949Y2160*
X1949Y2159*
X1948Y2157*
X1948Y2156*
X1947Y2154*
Y2152*
X1948Y2151*
X1948Y2149*
X1949Y2147*
X1949Y2146*
X1950Y2145*
X1952Y2143*
X1953Y2142*
X1954Y2142*
X1956Y2141*
X1958Y2140*
X1959Y2140*
X1961*
X1963Y2140*
X1964Y2141*
X1966Y2142*
X1967Y2142*
X1969Y2143*
X1970Y2145*
X1971Y2146*
X1971Y2146*
X1989*
X1989*
X2004*
X2005Y2146*
X2006Y2146*
X2007Y2145*
X2009Y2143*
X2008Y2143*
X2008Y2142*
Y2135*
X1871*
X1870Y2135*
X1868Y2134*
X1867Y2134*
X1865Y2133*
X1839Y2106*
X1710*
X1710Y2106*
X1709Y2108*
X1708Y2108*
Y2343*
X1769Y2403*
X1770Y2405*
X1771Y2406*
X1771Y2407*
X1771Y2409*
Y2450*
X1772Y2450*
X1773Y2452*
X1774Y2453*
X1775Y2454*
X1775Y2456*
X1776Y2458*
X1776Y2459*
Y2461*
X1776Y2463*
X1775Y2464*
X1775Y2466*
X1774Y2467*
X1773Y2469*
X1772Y2470*
X1770Y2471*
X1769Y2472*
X1767Y2472*
X1766Y2473*
X1764Y2473*
X1762*
X1761Y2473*
X1759Y2472*
X1758Y2472*
X1756Y2471*
X1755Y2470*
X1754Y2469*
X1753Y2467*
X1752Y2466*
X1751Y2464*
X1751Y2463*
X1750Y2461*
Y2459*
X1751Y2458*
X1751Y2456*
X1752Y2454*
X1753Y2453*
X1754Y2452*
X1755Y2450*
X1755Y2450*
Y2412*
X1695Y2352*
X1694Y2350*
X1693Y2349*
X1693Y2348*
X1692Y2346*
Y2108*
X1692Y2108*
X1691Y2106*
X1690Y2105*
X1689Y2104*
X1688Y2102*
X1688Y2100*
X1687Y2099*
Y2097*
X1688Y2095*
X1688Y2094*
X1689Y2092*
X1690Y2091*
X1691Y2089*
X1692Y2088*
X1693Y2087*
X1695Y2086*
X1696Y2086*
X1698Y2085*
X1699Y2085*
X1701*
X1703Y2085*
X1704Y2086*
X1706Y2086*
X1707Y2087*
X1709Y2088*
X1710Y2089*
X1710Y2090*
X1842*
X1844Y2090*
X1845Y2091*
X1846Y2091*
X1848Y2092*
X1874Y2119*
X2008*
Y2112*
X2008Y2111*
X2009Y2110*
X2009Y2109*
X2010Y2108*
X2011Y2108*
X2012Y2107*
X2013Y2107*
X2014Y2107*
X2021*
X2022Y2107*
X2022Y2107*
X2025Y2105*
X2026Y2104*
X2026Y2104*
X2025Y2103*
X2025Y2101*
X2024Y2099*
X2024Y2098*
Y2096*
X2024Y2094*
X2025Y2093*
X2025Y2091*
X2026Y2090*
X2027Y2088*
X2028Y2087*
X2030Y2086*
X2031Y2085*
X2033Y2085*
X2034Y2084*
X2036Y2084*
X2038*
X2039Y2084*
X2041Y2085*
X2043Y2085*
X2044Y2086*
X2045Y2087*
X2047Y2088*
X2048Y2090*
X2048Y2091*
X2049Y2093*
X2049Y2094*
X2050Y2095*
X2054Y2096*
X2057Y2092*
X2058Y2091*
X2059Y2091*
X2061Y2090*
X2062Y2090*
X2281*
X2281Y2089*
X2282Y2088*
X2284Y2087*
X2285Y2086*
X2287Y2086*
X2288Y2085*
X2290Y2085*
X2292*
X2293Y2085*
X2295Y2086*
X2297Y2086*
X2298Y2087*
X2299Y2088*
X2300Y2089*
X2302Y2091*
X2302Y2092*
X2303Y2094*
X2303Y2095*
X2304Y2097*
Y2099*
X2303Y2100*
X2303Y2102*
X2302Y2104*
X2302Y2105*
X2300Y2106*
X2299Y2108*
X2299Y2108*
Y2549*
X2299Y2549*
X2300Y2550*
X2302Y2551*
X2302Y2553*
X2303Y2554*
X2303Y2556*
X2304Y2558*
Y2559*
X2303Y2561*
X2303Y2563*
X2302Y2564*
X2302Y2566*
X2300Y2567*
X2299Y2568*
X2298Y2569*
X2297Y2570*
X2295Y2571*
X2293Y2571*
X2292Y2571*
X2290*
X2288Y2571*
X2287Y2571*
X2285Y2570*
X2284Y2569*
X2282Y2568*
X2281Y2567*
X2280Y2566*
X2279Y2564*
X2279Y2563*
X2278Y2561*
X2278Y2559*
Y2558*
X2278Y2556*
X2279Y2554*
X2279Y2553*
X2280Y2551*
X2281Y2550*
X2282Y2549*
X2283Y2549*
Y2108*
X2282Y2108*
X2281Y2106*
X2281Y2106*
X2089*
X2086Y2109*
X2086Y2111*
X2089Y2113*
X2089Y2113*
X2091*
X2093Y2113*
X2094Y2113*
X2096Y2114*
X2097Y2115*
X2099Y2116*
X2100Y2117*
X2101Y2118*
X2102Y2120*
X2102Y2121*
X2103Y2123*
X2103Y2125*
Y2126*
X2103Y2128*
X2102Y2130*
X2102Y2131*
X2101Y2133*
X2100Y2134*
X2099Y2135*
X2097Y2136*
X2096Y2137*
X2094Y2138*
X2093Y2138*
X2091Y2138*
X2089*
X2089Y2138*
X2086Y2140*
X2086Y2143*
X2086Y2144*
X2089Y2146*
X2089Y2146*
X2119*
X2120Y2146*
X2121Y2147*
X2122Y2147*
X2122Y2147*
X2143*
X2145Y2147*
X2146Y2148*
X2148Y2148*
X2148Y2149*
X2182*
X2183Y2149*
X2184Y2147*
X2185Y2146*
X2187Y2145*
X2188Y2145*
X2190Y2144*
X2192Y2144*
X2193*
X2195Y2144*
X2197Y2145*
X2198Y2145*
X2200Y2146*
X2201Y2147*
X2202Y2149*
X2203Y2150*
X2204Y2151*
X2205Y2153*
X2205Y2154*
X2205Y2156*
Y2158*
X2205Y2159*
X2205Y2161*
X2204Y2163*
X2203Y2164*
X2202Y2165*
X2201Y2167*
X2200Y2167*
Y2391*
X2201Y2391*
X2202Y2393*
X2203Y2394*
X2204Y2395*
X2205Y2397*
X2205Y2399*
X2205Y2400*
Y2402*
X2205Y2404*
X2205Y2405*
X2204Y2407*
X2203Y2408*
X2202Y2410*
X2201Y2411*
X2200Y2412*
X2198Y2413*
X2197Y2413*
X2195Y2414*
X2193Y2414*
X2192*
X2190Y2414*
X2188Y2413*
X2187Y2413*
X2185Y2412*
X2184Y2411*
X2183Y2410*
X2182Y2408*
X2181Y2407*
X2180Y2405*
X2180Y2404*
X2180Y2402*
Y2400*
X2180Y2399*
X2180Y2397*
X2181Y2395*
X2182Y2394*
X2183Y2393*
X2184Y2391*
X2185Y2391*
Y2167*
X2184Y2167*
X2183Y2165*
X2182Y2165*
X2145*
X2144Y2165*
X2142Y2164*
X2141Y2164*
X2140Y2163*
X2125*
X2123Y2166*
X2123Y2167*
X2123Y2167*
X2123Y2167*
X2124Y2168*
X2124Y2169*
X2124Y2170*
X2125Y2171*
Y2178*
X2124Y2179*
X2124Y2180*
X2124Y2181*
X2125Y2181*
X2127Y2183*
X2127Y2183*
X2128Y2183*
X2129Y2182*
X2131Y2182*
X2133Y2182*
X2134*
X2136Y2182*
X2137Y2182*
X2139Y2183*
X2140Y2184*
X2142Y2185*
X2143Y2186*
X2144Y2187*
X2145Y2189*
X2146Y2190*
X2146Y2192*
X2146Y2194*
Y2195*
X2146Y2197*
X2146Y2199*
X2145Y2200*
X2144Y2202*
X2143Y2203*
X2142Y2204*
X2140Y2205*
X2139Y2206*
X2137Y2207*
X2136Y2207*
X2134Y2207*
X2133*
X2131Y2207*
X2129Y2207*
X2128Y2206*
X2127Y2205*
X2127Y2205*
X2125Y2207*
X2124Y2208*
X2124Y2208*
X2124Y2209*
X2125Y2210*
Y2218*
X2124Y2219*
X2124Y2220*
X2124Y2221*
X2123Y2221*
X2122Y2222*
X2121Y2223*
X2120Y2223*
X2120Y2223*
X2119Y2225*
X2118Y2227*
X2118Y2228*
X2118Y2229*
X2118Y2229*
X2119Y2230*
X2123Y2230*
Y2227*
X2151*
Y2254*
X2123*
Y2250*
X2115*
X2114Y2250*
X2112Y2250*
X2111Y2249*
X2110Y2248*
X2108Y2247*
X2106Y2245*
X2105*
X2103Y2244*
X2102Y2244*
X2100Y2243*
X2099Y2242*
X2097Y2241*
X2096Y2240*
X2095Y2239*
X2094Y2237*
X2094Y2236*
X2093Y2234*
X2093Y2233*
Y2231*
X2093Y2229*
X2094Y2228*
X2094Y2227*
X2093Y2225*
X2092Y2223*
X2089*
X2088Y2223*
X2088Y2223*
X2086Y2224*
X2085Y2226*
X2085Y2226*
X2085Y2227*
Y2251*
X2093Y2258*
X2093Y2258*
X2095*
X2096Y2259*
X2098Y2259*
X2100Y2260*
X2101Y2260*
X2102Y2262*
X2104Y2263*
X2105Y2264*
X2105Y2265*
X2106Y2267*
X2107Y2269*
X2107Y2270*
Y2272*
X2107Y2274*
X2106Y2275*
X2105Y2277*
X2105Y2278*
X2104Y2280*
X2102Y2281*
X2102Y2281*
Y2287*
X2102Y2288*
X2102Y2289*
X2101Y2291*
X2101Y2292*
X2100Y2293*
X2064Y2328*
X2063Y2329*
X2063Y2329*
X2063Y2332*
X2064Y2333*
X2065Y2333*
X2067Y2334*
X2068Y2334*
X2070Y2335*
X2071Y2336*
X2072Y2338*
X2073Y2339*
X2074Y2340*
X2075Y2342*
X2075Y2343*
X2075Y2345*
Y2347*
X2075Y2348*
X2075Y2350*
X2074Y2352*
X2073Y2353*
X2072Y2354*
X2071Y2356*
X2070Y2357*
X2068Y2357*
X2067Y2358*
X2065Y2359*
X2063Y2359*
X2062*
X2060Y2359*
X2058Y2358*
X2057Y2357*
X2055Y2357*
X2054Y2356*
X2053Y2354*
X2052Y2353*
X2051Y2352*
X2050Y2350*
X2050Y2348*
X2050Y2347*
Y2345*
X2050Y2343*
X2050Y2342*
X2051Y2340*
X2052Y2339*
X2053Y2338*
X2054Y2336*
X2055Y2335*
X2057Y2334*
X2056Y2331*
X2038*
X2037Y2334*
X2038Y2335*
X2039Y2336*
X2041Y2338*
X2042Y2339*
X2043Y2340*
X2043Y2342*
X2044Y2343*
X2044Y2345*
Y2347*
X2044Y2348*
X2043Y2350*
X2043Y2352*
X2042Y2353*
X2041Y2354*
X2039Y2356*
X2038Y2357*
X2037Y2357*
X2035Y2358*
X2034Y2359*
X2032Y2359*
X2030*
X2029Y2359*
X2027Y2358*
X2025Y2357*
X2024Y2357*
X2023Y2356*
X2021Y2354*
X2020Y2353*
X2020Y2352*
X2019Y2350*
X2018Y2348*
X2018Y2347*
Y2345*
X2018Y2343*
X2019Y2342*
X2020Y2340*
X2020Y2339*
X2021Y2338*
X2023Y2336*
X2024Y2335*
X2025Y2334*
X2024Y2331*
X2006*
X2005Y2334*
X2007Y2335*
X2008Y2336*
X2009Y2338*
X2010Y2339*
X2011Y2340*
X2012Y2342*
X2012Y2343*
X2012Y2345*
Y2347*
X2012Y2348*
X2012Y2350*
X2011Y2352*
X2010Y2353*
X2009Y2354*
X2008Y2356*
X2007Y2357*
X2005Y2357*
X2004Y2358*
X2002Y2359*
X2000Y2359*
X1999*
X1997Y2359*
X1995Y2358*
X1994Y2357*
X1992Y2357*
X1991Y2356*
X1990Y2354*
X1989Y2353*
X1988Y2352*
X1984Y2353*
Y2453*
X1990Y2458*
X1990Y2459*
X1991Y2460*
X1992Y2462*
X1992Y2463*
X1992Y2464*
Y2630*
X1992Y2631*
X1993Y2632*
X1994Y2633*
X1995Y2635*
X1996Y2636*
X1996Y2638*
X1997Y2639*
Y2641*
X1996Y2643*
X1996Y2644*
X1995Y2646*
X1994Y2647*
X1993Y2649*
X1992Y2650*
X1991Y2651*
X1989Y2652*
X1988Y2652*
X1987Y2653*
X1986Y2654*
X1986Y2657*
X1986*
X2011*
X2013Y2657*
X2014Y2658*
X2016Y2658*
X2017Y2659*
X2128Y2770*
X2129Y2770*
X2130*
X2132Y2770*
X2134Y2771*
X2135Y2771*
X2137Y2772*
X2138Y2773*
X2139Y2775*
X2140Y2776*
X2141Y2777*
X2142Y2779*
X2142Y2780*
X2142Y2782*
Y2784*
X2142Y2785*
X2142Y2787*
X2141Y2789*
X2140Y2790*
X2139Y2791*
X2138Y2793*
X2137Y2794*
X2135Y2794*
X2134Y2795*
X2132Y2796*
X2130Y2796*
X2129*
X2127Y2796*
X2125Y2795*
X2124Y2794*
X2122Y2794*
X2121Y2793*
X2120Y2791*
X2119Y2790*
X2118Y2789*
X2117Y2787*
X2117Y2785*
X2117Y2784*
Y2782*
X2117Y2781*
X2008Y2673*
X1995*
X1994Y2677*
X1995Y2677*
X1997Y2678*
X1997Y2679*
X2117Y2798*
X2117Y2798*
X2118*
X2120Y2798*
X2122Y2798*
X2123Y2799*
X2125Y2800*
X2126Y2801*
X2127Y2802*
X2128Y2803*
X2129Y2805*
X2130Y2806*
X2130Y2808*
X2130Y2810*
Y2811*
X2130Y2813*
X2130Y2815*
X2129Y2816*
X2128Y2818*
X2127Y2819*
X2126Y2820*
X2125Y2821*
X2123Y2822*
X2122Y2823*
X2120Y2823*
X2118Y2823*
X2117*
X2115Y2823*
X2113Y2823*
X2112Y2822*
X2110Y2821*
X2109Y2820*
X2108Y2819*
X2107Y2818*
X2106Y2816*
X2105Y2815*
X2105Y2813*
X2105Y2811*
Y2810*
X2105Y2809*
X1988Y2693*
X1975*
X1974Y2697*
X1975Y2697*
X1976Y2698*
X1978Y2699*
X2104Y2825*
X2105Y2825*
X2107*
X2108Y2826*
X2110Y2826*
X2111Y2827*
X2113Y2827*
X2114Y2828*
X2115Y2830*
X2116Y2831*
X2117Y2832*
X2118Y2834*
X2118Y2836*
X2119Y2837*
Y2839*
X2118Y2841*
X2118Y2842*
X2117Y2844*
X2116Y2845*
X2115Y2847*
X2114Y2848*
X2113Y2849*
X2111Y2850*
X2110Y2850*
X2108Y2851*
X2107Y2851*
X2105*
X2103Y2851*
X2102Y2850*
X2100Y2850*
X2099Y2849*
X2097Y2848*
X2096Y2847*
X2095Y2845*
X2094Y2844*
X2094Y2842*
X2093Y2841*
X2093Y2839*
Y2837*
X2093Y2837*
X1969Y2712*
X1957*
X1957Y2716*
X1958Y2716*
X1959Y2717*
X1961Y2717*
X1962Y2718*
X2027Y2783*
X2028Y2785*
X2029Y2786*
X2029Y2787*
X2029Y2789*
Y2793*
X2087Y2850*
X2087Y2850*
X2089*
X2091Y2850*
X2092Y2851*
X2094Y2851*
X2095Y2852*
X2097Y2853*
X2098Y2854*
X2099Y2856*
X2100Y2857*
X2100Y2859*
X2101Y2860*
X2101Y2862*
Y2864*
X2101Y2865*
X2100Y2867*
X2100Y2868*
X2099Y2870*
X2098Y2871*
X2097Y2872*
X2095Y2873*
X2094Y2874*
X2092Y2875*
X2091Y2878*
X2094Y2881*
X2104*
X2104Y2881*
X2105Y2880*
X2107Y2879*
X2108Y2878*
X2110Y2877*
X2111Y2877*
X2113Y2876*
X2115*
X2116Y2877*
X2118Y2877*
X2119Y2878*
X2121Y2879*
X2122Y2880*
X2123Y2881*
X2124Y2882*
X2125Y2884*
X2126Y2885*
X2126Y2887*
X2126Y2888*
Y2890*
X2126Y2892*
X2126Y2893*
X2125Y2895*
X2124Y2896*
X2123Y2898*
X2122Y2899*
X2121Y2900*
X2119Y2901*
X2118Y2901*
X2116Y2902*
X2115Y2902*
G37*
G36*
X2370Y3031D02*
X1992D01*
X1990Y3031*
X1989Y3030*
X1987Y3030*
X1986Y3029*
X1934Y2977*
X1933Y2977*
X1932*
X1930Y2977*
X1928Y2976*
X1927Y2976*
X1925Y2975*
X1924Y2974*
X1923Y2973*
X1922Y2971*
X1921Y2970*
X1920Y2968*
X1920Y2967*
X1920Y2965*
Y2963*
X1920Y2962*
X1920Y2960*
X1921Y2958*
X1922Y2957*
X1923Y2956*
X1924Y2954*
X1925Y2953*
X1927Y2953*
X1928Y2952*
X1930Y2951*
X1932Y2951*
X1933*
X1935Y2951*
X1937Y2952*
X1938Y2953*
X1940Y2953*
X1941Y2954*
X1942Y2956*
X1943Y2957*
X1944Y2958*
X1945Y2960*
X1945Y2962*
X1945Y2963*
Y2965*
X1945Y2966*
X1995Y3015*
X2366*
X2427Y2955*
X2428Y2954*
X2430Y2953*
X2431Y2952*
X2433Y2952*
X2791*
X2834Y2909*
X2835Y2908*
X2837Y2907*
X2838Y2907*
X2840Y2906*
X2851*
X2871Y2887*
X2871Y2886*
Y2884*
X2871Y2883*
X2871Y2881*
X2872Y2880*
X2873Y2878*
X2874Y2877*
X2875Y2876*
X2876Y2875*
X2878Y2874*
X2879Y2873*
X2881Y2873*
X2883Y2873*
X2884*
X2886Y2873*
X2887Y2873*
X2889Y2874*
X2890Y2875*
X2892Y2876*
X2893Y2877*
X2894Y2878*
X2895Y2880*
X2896Y2881*
X2896Y2883*
X2896Y2884*
Y2886*
X2896Y2888*
X2896Y2889*
X2895Y2891*
X2894Y2892*
X2893Y2894*
X2892Y2895*
X2890Y2896*
X2889Y2897*
X2887Y2897*
X2886Y2898*
X2884Y2898*
X2883*
X2882Y2898*
X2860Y2920*
X2859Y2921*
X2857Y2922*
X2856Y2922*
X2854Y2922*
X2843*
X2799Y2966*
X2798Y2967*
X2797Y2967*
X2795Y2968*
X2794Y2968*
X2436*
X2375Y3029*
X2374Y3030*
X2373Y3030*
X2371Y3031*
X2370Y3031*
G37*
G36*
X1823Y2882D02*
X1822D01*
X1820Y2882*
X1818Y2882*
X1817Y2881*
X1815Y2880*
X1814Y2879*
X1813Y2878*
X1812Y2877*
X1811Y2875*
X1810Y2874*
X1810Y2872*
X1810Y2870*
Y2869*
X1810Y2867*
X1810Y2865*
X1811Y2864*
X1812Y2862*
X1813Y2861*
X1814Y2860*
X1815Y2859*
X1817Y2858*
X1818Y2857*
X1820Y2857*
X1822Y2857*
X1823*
X1825Y2857*
X1826Y2857*
X1828Y2858*
X1829Y2859*
X1831Y2860*
X1832Y2861*
X1833Y2862*
X1834Y2864*
X1834Y2865*
X1835Y2867*
X1835Y2869*
Y2870*
X1835Y2872*
X1834Y2874*
X1834Y2875*
X1833Y2877*
X1832Y2878*
X1831Y2879*
X1829Y2880*
X1828Y2881*
X1826Y2882*
X1825Y2882*
X1823Y2882*
G37*
G36*
X2339Y2855D02*
X2337D01*
X2336Y2855*
X2334Y2854*
X2332Y2854*
X2331Y2853*
X2330Y2852*
X2328Y2850*
X2327Y2849*
X2327Y2848*
X2326Y2846*
X2326Y2845*
X2325Y2843*
Y2841*
X2326Y2840*
X2326Y2838*
X2327Y2836*
X2327Y2835*
X2328Y2834*
X2330Y2832*
X2331Y2831*
X2332Y2831*
X2334Y2830*
X2336Y2829*
X2337Y2829*
X2339*
X2341Y2829*
X2342Y2830*
X2344Y2831*
X2345Y2831*
X2347Y2832*
X2348Y2834*
X2349Y2835*
X2350Y2836*
X2350Y2838*
X2351Y2840*
X2351Y2841*
Y2843*
X2351Y2845*
X2350Y2846*
X2350Y2848*
X2349Y2849*
X2348Y2850*
X2347Y2852*
X2345Y2853*
X2344Y2854*
X2342Y2854*
X2341Y2855*
X2339Y2855*
G37*
G36*
Y2823D02*
X2337D01*
X2336Y2823*
X2334Y2823*
X2332Y2822*
X2331Y2821*
X2330Y2820*
X2328Y2819*
X2327Y2818*
X2327Y2816*
X2326Y2815*
X2326Y2813*
X2325Y2811*
Y2810*
X2326Y2808*
X2326Y2806*
X2327Y2805*
X2327Y2803*
X2328Y2802*
X2330Y2801*
X2331Y2800*
X2332Y2799*
X2334Y2798*
X2336Y2798*
X2337Y2798*
X2339*
X2341Y2798*
X2342Y2798*
X2344Y2799*
X2345Y2800*
X2347Y2801*
X2348Y2802*
X2349Y2803*
X2350Y2805*
X2350Y2806*
X2351Y2808*
X2351Y2810*
Y2811*
X2351Y2813*
X2350Y2815*
X2350Y2816*
X2349Y2818*
X2348Y2819*
X2347Y2820*
X2345Y2821*
X2344Y2822*
X2342Y2823*
X2341Y2823*
X2339Y2823*
G37*
G36*
X1536Y2871D02*
X1534D01*
X1532Y2870*
X1531Y2870*
X1529Y2869*
X1528Y2868*
X1526Y2867*
X1525Y2866*
X1524Y2865*
X1523Y2863*
X1523Y2862*
X1522Y2860*
X1522Y2859*
Y2857*
X1522Y2855*
X1523Y2854*
X1523Y2852*
X1524Y2851*
X1525Y2849*
X1526Y2848*
X1526Y2848*
Y2844*
X1526Y2844*
X1525Y2843*
X1524Y2841*
X1523Y2840*
X1523Y2838*
X1522Y2837*
X1522Y2835*
Y2833*
X1522Y2832*
X1523Y2830*
X1523Y2828*
X1524Y2827*
X1525Y2826*
X1526Y2825*
X1526Y2824*
Y2821*
X1526Y2820*
X1525Y2819*
X1524Y2818*
X1523Y2816*
X1523Y2815*
X1522Y2813*
X1522Y2811*
Y2810*
X1522Y2808*
X1523Y2806*
X1523Y2805*
X1524Y2803*
X1525Y2802*
X1526Y2801*
X1528Y2800*
X1529Y2799*
X1531Y2798*
X1532Y2798*
X1534Y2798*
X1536*
X1537Y2798*
X1539Y2798*
X1541Y2799*
X1542Y2800*
X1543Y2801*
X1545Y2802*
X1546Y2803*
X1546Y2805*
X1547Y2806*
X1548Y2808*
X1548Y2810*
Y2811*
X1548Y2813*
X1547Y2815*
X1546Y2816*
X1546Y2818*
X1545Y2819*
X1544Y2820*
X1543Y2821*
Y2824*
X1544Y2825*
X1545Y2826*
X1546Y2827*
X1546Y2828*
X1547Y2830*
X1548Y2832*
X1548Y2833*
Y2835*
X1548Y2837*
X1547Y2838*
X1546Y2840*
X1546Y2841*
X1545Y2843*
X1544Y2844*
X1543Y2844*
Y2848*
X1544Y2848*
X1545Y2849*
X1546Y2851*
X1546Y2852*
X1547Y2854*
X1548Y2855*
X1548Y2857*
Y2859*
X1548Y2860*
X1547Y2862*
X1546Y2863*
X1546Y2865*
X1545Y2866*
X1543Y2867*
X1542Y2868*
X1541Y2869*
X1539Y2870*
X1537Y2870*
X1536Y2871*
G37*
G36*
X1056Y2872D02*
X990D01*
X988Y2871*
X987Y2871*
X986Y2871*
X984Y2870*
X983Y2869*
X982Y2868*
X982Y2867*
X981Y2865*
X981Y2864*
X981Y2863*
Y2806*
X981Y2804*
X981Y2803*
X982Y2802*
X982Y2800*
X983Y2799*
X984Y2798*
X986Y2798*
X987Y2797*
X988Y2797*
X990Y2797*
X1056*
X1058Y2797*
X1059Y2797*
X1061Y2798*
X1062Y2798*
X1063Y2799*
X1064Y2800*
X1064Y2802*
X1065Y2803*
X1065Y2804*
X1065Y2806*
Y2863*
X1065Y2864*
X1065Y2865*
X1064Y2867*
X1064Y2868*
X1063Y2869*
X1062Y2870*
X1061Y2871*
X1059Y2871*
X1058Y2871*
X1056Y2872*
G37*
G36*
X2807Y2745D02*
X2806D01*
X2804Y2744*
X2802Y2744*
X2801Y2743*
X2799Y2742*
X2798Y2741*
X2797Y2740*
X2796Y2739*
X2795Y2737*
X2794Y2736*
X2794Y2734*
X2794Y2733*
Y2731*
X2794Y2729*
X2794Y2728*
X2795Y2726*
X2796Y2725*
X2797Y2723*
X2798Y2722*
X2799Y2721*
X2801Y2720*
X2802Y2720*
X2804Y2719*
X2806Y2719*
X2807*
X2809Y2719*
X2811Y2720*
X2812Y2720*
X2814Y2721*
X2815Y2722*
X2816Y2723*
X2817Y2725*
X2818Y2726*
X2819Y2728*
X2819Y2729*
X2819Y2731*
Y2733*
X2819Y2734*
X2819Y2736*
X2818Y2737*
X2817Y2739*
X2816Y2740*
X2815Y2741*
X2814Y2742*
X2812Y2743*
X2811Y2744*
X2809Y2744*
X2807Y2745*
G37*
G36*
X2433D02*
X2432D01*
X2430Y2744*
X2428Y2744*
X2427Y2743*
X2425Y2742*
X2424Y2741*
X2423Y2740*
X2422Y2739*
X2421Y2737*
X2420Y2736*
X2420Y2734*
X2420Y2733*
Y2731*
X2420Y2729*
X2420Y2728*
X2421Y2726*
X2422Y2725*
X2423Y2723*
X2424Y2722*
X2425Y2721*
X2427Y2720*
X2428Y2720*
X2430Y2719*
X2432Y2719*
X2433*
X2435Y2719*
X2437Y2720*
X2438Y2720*
X2440Y2721*
X2441Y2722*
X2442Y2723*
X2443Y2725*
X2444Y2726*
X2445Y2728*
X2445Y2729*
X2445Y2731*
Y2733*
X2445Y2734*
X2445Y2736*
X2444Y2737*
X2443Y2739*
X2442Y2740*
X2441Y2741*
X2440Y2742*
X2438Y2743*
X2437Y2744*
X2435Y2744*
X2433Y2745*
G37*
G36*
X1461Y2721D02*
X1459D01*
X1458Y2721*
X1456Y2720*
X1454Y2720*
X1453Y2719*
X1452Y2718*
X1450Y2717*
X1449Y2715*
X1449Y2714*
X1448Y2713*
X1448Y2713*
X1445*
X1444Y2713*
X1444Y2714*
X1443Y2715*
X1442Y2717*
X1441Y2718*
X1440Y2719*
X1438Y2720*
X1437Y2720*
X1435Y2721*
X1433Y2721*
X1432*
X1430Y2721*
X1428Y2720*
X1427Y2720*
X1425Y2719*
X1424Y2718*
X1423Y2717*
X1422Y2715*
X1421Y2714*
X1420Y2712*
X1420Y2711*
X1420Y2709*
Y2707*
X1420Y2706*
X1420Y2704*
X1421Y2702*
X1422Y2701*
X1423Y2700*
X1424Y2699*
X1425Y2698*
X1427Y2697*
X1428Y2696*
X1430Y2696*
X1432Y2695*
X1433*
X1435Y2696*
X1437Y2696*
X1438Y2697*
X1440Y2698*
X1441Y2699*
X1442Y2700*
X1443Y2701*
X1444Y2702*
X1444Y2703*
X1445Y2703*
X1448*
X1448Y2703*
X1449Y2702*
X1449Y2701*
X1450Y2700*
X1452Y2699*
X1453Y2698*
X1454Y2697*
X1456Y2696*
X1458Y2696*
X1459Y2695*
X1461*
X1463Y2696*
X1464Y2696*
X1466Y2697*
X1467Y2698*
X1469Y2699*
X1470Y2700*
X1471Y2701*
X1472Y2702*
X1472Y2704*
X1473Y2706*
X1473Y2707*
Y2709*
X1473Y2711*
X1472Y2712*
X1472Y2714*
X1471Y2715*
X1470Y2717*
X1469Y2718*
X1467Y2719*
X1466Y2720*
X1464Y2720*
X1463Y2721*
X1461Y2721*
G37*
G36*
X2937Y2666D02*
X2936D01*
X2934Y2666*
X2932Y2665*
X2931Y2665*
X2929Y2664*
X2928Y2663*
X2927Y2662*
X2926Y2660*
X2925Y2659*
X2924Y2657*
X2924Y2656*
X2924Y2654*
Y2652*
X2924Y2651*
X2924Y2649*
X2925Y2647*
X2926Y2646*
X2927Y2645*
X2928Y2643*
X2929Y2642*
X2931Y2642*
X2932Y2641*
X2934Y2640*
X2936Y2640*
X2937*
X2939Y2640*
X2941Y2641*
X2942Y2642*
X2944Y2642*
X2945Y2643*
X2946Y2645*
X2947Y2646*
X2948Y2647*
X2949Y2649*
X2949Y2651*
X2949Y2652*
Y2654*
X2949Y2656*
X2949Y2657*
X2948Y2659*
X2947Y2660*
X2946Y2662*
X2945Y2663*
X2944Y2664*
X2942Y2665*
X2941Y2665*
X2939Y2666*
X2937Y2666*
G37*
G36*
X2563D02*
X2562D01*
X2560Y2666*
X2558Y2665*
X2557Y2665*
X2555Y2664*
X2554Y2663*
X2553Y2662*
X2552Y2660*
X2551Y2659*
X2550Y2657*
X2550Y2656*
X2550Y2654*
Y2652*
X2550Y2651*
X2550Y2649*
X2551Y2647*
X2552Y2646*
X2553Y2645*
X2554Y2643*
X2555Y2642*
X2557Y2642*
X2558Y2641*
X2560Y2640*
X2562Y2640*
X2563*
X2565Y2640*
X2567Y2641*
X2568Y2642*
X2570Y2642*
X2571Y2643*
X2572Y2645*
X2573Y2646*
X2574Y2647*
X2575Y2649*
X2575Y2651*
X2575Y2652*
Y2654*
X2575Y2656*
X2575Y2657*
X2574Y2659*
X2573Y2660*
X2572Y2662*
X2571Y2663*
X2570Y2664*
X2568Y2665*
X2567Y2665*
X2565Y2666*
X2563Y2666*
G37*
G36*
X1607Y2611D02*
X1605D01*
X1603Y2611*
X1602Y2610*
X1600Y2609*
X1599Y2609*
X1597Y2608*
X1596Y2606*
X1595Y2605*
X1594Y2604*
X1594Y2602*
X1593Y2600*
X1593Y2599*
Y2597*
X1593Y2595*
X1594Y2594*
X1594Y2592*
X1595Y2591*
X1596Y2589*
X1597Y2588*
X1599Y2587*
X1600Y2586*
X1602Y2586*
X1603Y2585*
X1605Y2585*
X1607*
X1608Y2585*
X1610Y2586*
X1611Y2586*
X1613Y2587*
X1614Y2588*
X1615Y2589*
X1616Y2591*
X1617Y2592*
X1618Y2594*
X1618Y2595*
X1619Y2597*
Y2599*
X1618Y2600*
X1618Y2602*
X1617Y2604*
X1616Y2605*
X1615Y2606*
X1614Y2608*
X1613Y2609*
X1611Y2609*
X1610Y2610*
X1608Y2611*
X1607Y2611*
G37*
G36*
X2563Y2615D02*
X2562D01*
X2560Y2614*
X2558Y2614*
X2557Y2613*
X2555Y2613*
X2554Y2612*
X2553Y2610*
X2552Y2609*
X2551Y2608*
X2550Y2606*
X2550Y2604*
X2550Y2603*
Y2601*
X2550Y2599*
X2550Y2598*
X2551Y2596*
X2552Y2595*
X2553Y2593*
X2554Y2593*
X2554Y2592*
Y2588*
X2554Y2588*
X2553Y2587*
X2552Y2585*
X2551Y2584*
X2550Y2582*
X2550Y2581*
X2550Y2579*
Y2577*
X2550Y2576*
X2550Y2574*
X2551Y2573*
X2552Y2571*
X2553Y2570*
X2554Y2569*
X2554Y2568*
Y2565*
X2554Y2564*
X2553Y2563*
X2552Y2562*
X2551Y2560*
X2550Y2559*
X2550Y2557*
X2550Y2555*
Y2554*
X2550Y2552*
X2550Y2551*
X2551Y2549*
X2552Y2547*
X2553Y2546*
X2554Y2545*
X2555Y2544*
X2557Y2543*
X2558Y2542*
X2560Y2542*
X2562Y2542*
X2563*
X2565Y2542*
X2567Y2542*
X2568Y2543*
X2570Y2544*
X2571Y2545*
X2572Y2546*
X2573Y2547*
X2574Y2549*
X2575Y2551*
X2575Y2552*
X2575Y2554*
Y2555*
X2575Y2557*
X2575Y2559*
X2574Y2560*
X2573Y2562*
X2572Y2563*
X2571Y2564*
X2571Y2565*
Y2568*
X2571Y2569*
X2572Y2570*
X2573Y2571*
X2574Y2573*
X2575Y2574*
X2575Y2576*
X2575Y2577*
Y2579*
X2575Y2581*
X2575Y2582*
X2574Y2584*
X2573Y2585*
X2572Y2587*
X2571Y2588*
X2571Y2588*
Y2592*
X2571Y2593*
X2572Y2593*
X2573Y2595*
X2574Y2596*
X2575Y2598*
X2575Y2599*
X2575Y2601*
Y2603*
X2575Y2604*
X2575Y2606*
X2574Y2608*
X2573Y2609*
X2572Y2610*
X2571Y2612*
X2570Y2613*
X2568Y2613*
X2567Y2614*
X2565Y2614*
X2563Y2615*
G37*
G36*
X2937Y2611D02*
X2936D01*
X2934Y2611*
X2932Y2610*
X2931Y2609*
X2929Y2609*
X2928Y2608*
X2927Y2606*
X2926Y2605*
X2925Y2604*
X2924Y2602*
X2924Y2600*
X2924Y2599*
Y2597*
X2924Y2595*
X2924Y2594*
X2925Y2592*
X2926Y2591*
X2927Y2589*
X2928Y2589*
X2928Y2588*
Y2584*
X2928Y2584*
X2927Y2583*
X2926Y2581*
X2925Y2580*
X2924Y2578*
X2924Y2577*
X2924Y2575*
Y2573*
X2924Y2572*
X2924Y2570*
X2925Y2569*
X2926Y2567*
X2927Y2566*
X2928Y2565*
X2928Y2564*
Y2561*
X2928Y2560*
X2927Y2559*
X2926Y2558*
X2925Y2556*
X2924Y2555*
X2924Y2553*
X2924Y2552*
Y2550*
X2924Y2548*
X2924Y2547*
X2925Y2545*
X2926Y2544*
X2927Y2542*
X2928Y2541*
X2929Y2540*
X2931Y2539*
X2932Y2539*
X2934Y2538*
X2936Y2538*
X2937*
X2939Y2538*
X2941Y2539*
X2942Y2539*
X2944Y2540*
X2945Y2541*
X2946Y2542*
X2947Y2544*
X2948Y2545*
X2949Y2547*
X2949Y2548*
X2949Y2550*
Y2552*
X2949Y2553*
X2949Y2555*
X2948Y2556*
X2947Y2558*
X2946Y2559*
X2945Y2560*
X2945Y2561*
Y2564*
X2945Y2565*
X2946Y2566*
X2947Y2567*
X2948Y2569*
X2949Y2570*
X2949Y2572*
X2949Y2573*
Y2575*
X2949Y2577*
X2949Y2578*
X2948Y2580*
X2947Y2581*
X2946Y2583*
X2945Y2584*
X2945Y2584*
Y2588*
X2945Y2589*
X2946Y2589*
X2947Y2591*
X2948Y2592*
X2949Y2594*
X2949Y2595*
X2949Y2597*
Y2599*
X2949Y2600*
X2949Y2602*
X2948Y2604*
X2947Y2605*
X2946Y2606*
X2945Y2608*
X2944Y2609*
X2942Y2609*
X2941Y2610*
X2939Y2611*
X2937Y2611*
G37*
G36*
X1859Y2540D02*
X1857D01*
X1855Y2540*
X1854Y2539*
X1852Y2539*
X1851Y2538*
X1849Y2537*
X1848Y2536*
X1847Y2534*
X1846Y2533*
X1846Y2531*
X1845Y2530*
X1845Y2528*
Y2526*
X1845Y2525*
X1846Y2523*
X1846Y2521*
X1847Y2520*
X1848Y2519*
X1849Y2517*
X1851Y2516*
X1852Y2516*
X1854Y2515*
X1855Y2514*
X1857Y2514*
X1859*
X1860Y2514*
X1862Y2515*
X1863Y2516*
X1865Y2516*
X1866Y2517*
X1867Y2519*
X1868Y2520*
X1869Y2521*
X1870Y2523*
X1870Y2525*
X1871Y2526*
Y2528*
X1870Y2530*
X1870Y2531*
X1869Y2533*
X1868Y2534*
X1867Y2536*
X1866Y2537*
X1865Y2538*
X1863Y2539*
X1862Y2539*
X1860Y2540*
X1859Y2540*
G37*
G36*
X2067Y2634D02*
X2066D01*
X2064Y2634*
X2062Y2634*
X2061Y2633*
X2059Y2632*
X2058Y2631*
X2057Y2630*
X2056Y2629*
X2055Y2627*
X2054Y2626*
X2054Y2624*
X2054Y2622*
Y2621*
X2054Y2619*
X2054Y2617*
X2055Y2616*
X2056Y2614*
X2057Y2613*
X2058Y2612*
X2059Y2611*
X2061Y2610*
X2062Y2609*
X2064Y2609*
X2066Y2609*
X2067*
X2069Y2609*
X2071Y2609*
X2072Y2610*
X2074Y2611*
X2075Y2612*
X2076Y2613*
X2076Y2613*
X2138*
X2231Y2520*
X2231Y2520*
Y2518*
X2231Y2517*
X2231Y2515*
X2232Y2514*
X2233Y2512*
X2234Y2511*
X2235Y2510*
X2236Y2509*
X2238Y2508*
X2239Y2507*
X2241Y2507*
X2243Y2506*
X2244*
X2246Y2507*
X2248Y2507*
X2249Y2508*
X2251Y2509*
X2252Y2510*
X2253Y2511*
X2254Y2512*
X2255Y2514*
X2256Y2515*
X2256Y2517*
X2256Y2518*
Y2520*
X2256Y2522*
X2256Y2523*
X2255Y2525*
X2254Y2526*
X2253Y2528*
X2252Y2529*
X2251Y2530*
X2249Y2531*
X2248Y2531*
X2246Y2532*
X2244Y2532*
X2243*
X2243Y2532*
X2147Y2627*
X2146Y2628*
X2145Y2629*
X2144Y2629*
X2143Y2630*
X2141Y2630*
X2076*
X2076Y2630*
X2075Y2631*
X2074Y2632*
X2072Y2633*
X2071Y2634*
X2069Y2634*
X2067Y2634*
G37*
G36*
X2130Y2536D02*
X2129D01*
X2127Y2536*
X2125Y2535*
X2124Y2535*
X2122Y2534*
X2121Y2533*
X2120Y2532*
X2119Y2530*
X2118Y2529*
X2117Y2527*
X2117Y2526*
X2117Y2524*
Y2522*
X2117Y2521*
X2117Y2519*
X2118Y2517*
X2119Y2516*
X2120Y2515*
X2121Y2513*
X2122Y2512*
X2124Y2512*
X2125Y2511*
X2126Y2511*
X2128Y2509*
X2129Y2507*
X2129Y2506*
X2129Y2506*
X2128Y2504*
Y2503*
X2129Y2501*
X2129Y2499*
X2130Y2498*
X2131Y2496*
X2132Y2495*
X2133Y2494*
X2134Y2493*
X2136Y2492*
X2137Y2491*
X2139Y2491*
X2140Y2491*
X2142*
X2144Y2491*
X2145Y2491*
X2147Y2492*
X2148Y2493*
X2150Y2494*
X2151Y2495*
X2152Y2496*
X2153Y2498*
X2153Y2499*
X2154Y2501*
X2154Y2503*
Y2504*
X2154Y2506*
X2153Y2508*
X2153Y2509*
X2152Y2511*
X2151Y2512*
X2150Y2513*
X2148Y2514*
X2147Y2515*
X2145Y2516*
X2144Y2516*
X2143Y2517*
X2142Y2520*
X2142Y2520*
X2142Y2521*
X2142Y2522*
Y2524*
X2142Y2526*
X2142Y2527*
X2141Y2529*
X2140Y2530*
X2139Y2532*
X2138Y2533*
X2137Y2534*
X2135Y2535*
X2134Y2535*
X2132Y2536*
X2130Y2536*
G37*
G36*
X2142Y2485D02*
X2140D01*
X2139Y2485*
X2137Y2484*
X2136Y2483*
X2134Y2483*
X2133Y2482*
X2132Y2480*
X2131Y2479*
X2130Y2478*
X2129Y2476*
X2129Y2474*
X2128Y2473*
Y2471*
X2129Y2469*
X2129Y2468*
X2130Y2466*
X2131Y2465*
X2132Y2463*
X2133Y2462*
X2134Y2461*
X2136Y2460*
X2137Y2460*
X2139Y2459*
X2140Y2459*
X2142*
X2144Y2459*
X2145Y2460*
X2147Y2460*
X2148Y2461*
X2150Y2462*
X2151Y2463*
X2152Y2465*
X2153Y2466*
X2153Y2468*
X2154Y2469*
X2154Y2471*
Y2473*
X2154Y2474*
X2153Y2476*
X2153Y2478*
X2152Y2479*
X2151Y2480*
X2150Y2482*
X2148Y2483*
X2147Y2483*
X2145Y2484*
X2144Y2485*
X2142Y2485*
G37*
G36*
X2548Y2457D02*
X2546D01*
X2544Y2457*
X2543Y2457*
X2541Y2456*
X2540Y2455*
X2538Y2454*
X2537Y2453*
X2536Y2452*
X2535Y2450*
X2535Y2449*
X2534Y2447*
X2534Y2445*
Y2444*
X2534Y2442*
X2535Y2440*
X2535Y2439*
X2536Y2437*
X2537Y2436*
X2538Y2435*
X2540Y2434*
X2541Y2433*
X2543Y2432*
X2544Y2432*
X2546Y2432*
X2548*
X2549Y2432*
X2551Y2432*
X2552Y2433*
X2554Y2434*
X2555Y2435*
X2556Y2436*
X2557Y2436*
X3043*
X3058Y2422*
X3058Y2422*
Y2420*
X3058Y2418*
X3058Y2417*
X3059Y2415*
X3060Y2414*
X3061Y2412*
X3062Y2411*
X3063Y2410*
X3065Y2409*
X3066Y2409*
X3068Y2408*
X3070Y2408*
X3071*
X3073Y2408*
X3074Y2409*
X3076Y2409*
X3077Y2410*
X3079Y2411*
X3080Y2412*
X3081Y2414*
X3082Y2415*
X3083Y2417*
X3083Y2418*
X3083Y2420*
Y2422*
X3083Y2423*
X3083Y2425*
X3082Y2426*
X3081Y2428*
X3080Y2429*
X3079Y2430*
X3077Y2431*
X3076Y2432*
X3074Y2433*
X3073Y2433*
X3071Y2434*
X3070*
X3069Y2434*
X3053Y2450*
X3052Y2451*
X3051Y2452*
X3049Y2452*
X3048Y2453*
X3047Y2453*
X2557*
X2556Y2453*
X2555Y2454*
X2554Y2455*
X2552Y2456*
X2551Y2457*
X2549Y2457*
X2548Y2457*
G37*
G36*
X2882Y2367D02*
X2881D01*
X2879Y2366*
X2877Y2366*
X2876Y2365*
X2874Y2364*
X2873Y2363*
X2872Y2362*
X2871Y2361*
X2870Y2360*
X2869Y2358*
X2869Y2356*
X2869Y2355*
Y2353*
X2869Y2351*
X2869Y2350*
X2870Y2348*
X2871Y2347*
X2872Y2345*
X2873Y2344*
X2874Y2343*
X2876Y2342*
X2877Y2342*
X2879Y2341*
X2881Y2341*
X2882*
X2884Y2341*
X2886Y2342*
X2887Y2342*
X2889Y2343*
X2890Y2344*
X2891Y2345*
X2892Y2347*
X2893Y2348*
X2894Y2350*
X2894Y2351*
X2894Y2353*
Y2355*
X2894Y2356*
X2894Y2358*
X2893Y2360*
X2892Y2361*
X2891Y2362*
X2890Y2363*
X2889Y2364*
X2887Y2365*
X2886Y2366*
X2884Y2366*
X2882Y2367*
G37*
G36*
X2095Y2359D02*
X2093D01*
X2091Y2359*
X2090Y2358*
X2088Y2357*
X2087Y2357*
X2086Y2356*
X2084Y2354*
X2083Y2353*
X2082Y2352*
X2082Y2350*
X2081Y2348*
X2081Y2347*
Y2345*
X2081Y2343*
X2082Y2342*
X2082Y2340*
X2083Y2339*
X2084Y2338*
X2086Y2336*
X2087Y2335*
X2088Y2334*
X2090Y2334*
X2091Y2333*
X2093Y2333*
X2095*
X2096Y2333*
X2098Y2334*
X2100Y2334*
X2101Y2335*
X2102Y2336*
X2104Y2338*
X2105Y2339*
X2105Y2340*
X2106Y2342*
X2107Y2343*
X2107Y2345*
Y2347*
X2107Y2348*
X2106Y2350*
X2105Y2352*
X2105Y2353*
X2104Y2354*
X2102Y2356*
X2101Y2357*
X2100Y2357*
X2098Y2358*
X2096Y2359*
X2095Y2359*
G37*
G36*
X2906Y2343D02*
X2904D01*
X2903Y2343*
X2901Y2342*
X2899Y2342*
X2898Y2341*
X2897Y2340*
X2895Y2339*
X2894Y2337*
X2894Y2336*
X2893Y2334*
X2892Y2333*
X2892Y2331*
Y2329*
X2892Y2328*
X2893Y2326*
X2894Y2325*
X2894Y2323*
X2895Y2322*
X2897Y2321*
X2898Y2320*
X2899Y2319*
X2901Y2318*
X2903Y2318*
X2904Y2317*
X2906*
X2908Y2318*
X2909Y2318*
X2911Y2319*
X2912Y2320*
X2913Y2321*
X2915Y2322*
X2916Y2323*
X2917Y2325*
X2917Y2326*
X2918Y2328*
X2918Y2329*
Y2331*
X2918Y2333*
X2917Y2334*
X2917Y2336*
X2916Y2337*
X2915Y2339*
X2913Y2340*
X2912Y2341*
X2911Y2342*
X2909Y2342*
X2908Y2343*
X2906Y2343*
G37*
G36*
X1319Y2280D02*
X1318D01*
X1316Y2280*
X1314Y2279*
X1313Y2279*
X1311Y2278*
X1310Y2277*
X1309Y2276*
X1308Y2274*
X1307Y2273*
X1306Y2271*
X1306Y2270*
X1306Y2268*
Y2266*
X1306Y2265*
X1306Y2263*
X1307Y2262*
X1308Y2260*
X1309Y2259*
X1310Y2258*
X1311Y2257*
X1313Y2256*
X1314Y2255*
X1316Y2255*
X1318Y2254*
X1319*
X1321Y2255*
X1323Y2255*
X1324Y2256*
X1326Y2257*
X1327Y2258*
X1328Y2259*
X1329Y2260*
X1330Y2262*
X1331Y2263*
X1331Y2265*
X1331Y2266*
Y2268*
X1331Y2270*
X1331Y2271*
X1330Y2273*
X1329Y2274*
X1328Y2276*
X1327Y2277*
X1326Y2278*
X1324Y2279*
X1323Y2279*
X1321Y2280*
X1319Y2280*
G37*
G36*
X1170Y2245D02*
X1168D01*
X1166Y2244*
X1165Y2244*
X1163Y2243*
X1162Y2243*
X1124*
X1123Y2243*
X1122Y2244*
X1120Y2244*
X1118Y2245*
X1117*
X1115Y2244*
X1113Y2244*
X1112Y2243*
X1110Y2242*
X1109Y2241*
X1108Y2240*
X1107Y2239*
X1106Y2237*
X1105Y2236*
X1105Y2234*
X1105Y2233*
Y2231*
X1105Y2229*
X1105Y2228*
X1106Y2226*
X1107Y2225*
Y2139*
X1106Y2138*
X1105Y2137*
X1104Y2135*
X1104Y2134*
X1103Y2132*
X1103Y2130*
Y2129*
X1103Y2127*
X1104Y2125*
X1104Y2124*
X1105Y2122*
X1106Y2121*
X1107Y2120*
X1109Y2119*
X1110Y2118*
X1112Y2117*
X1113Y2117*
X1115Y2117*
X1116*
X1118Y2117*
X1120Y2117*
X1121Y2118*
X1123Y2119*
X1124Y2120*
X1125Y2121*
X1126Y2122*
X1127Y2124*
X1128Y2125*
X1128Y2127*
X1128Y2129*
Y2130*
X1128Y2131*
X1128Y2132*
Y2221*
X1162*
X1163Y2220*
X1165Y2220*
X1166Y2219*
X1168Y2219*
X1170*
X1171Y2219*
X1173Y2220*
X1174Y2220*
X1176Y2221*
X1177Y2222*
X1178Y2223*
X1179Y2225*
X1180Y2226*
X1181Y2228*
X1181Y2229*
X1182Y2231*
Y2233*
X1181Y2234*
X1181Y2236*
X1180Y2237*
X1179Y2239*
X1178Y2240*
X1177Y2241*
X1176Y2242*
X1174Y2243*
X1173Y2244*
X1171Y2244*
X1170Y2245*
G37*
G36*
X1177Y2449D02*
X1110D01*
X1108Y2449*
X1106Y2449*
X1105Y2448*
X1103Y2448*
X1102Y2447*
X1101Y2446*
X1061Y2406*
X1060Y2405*
X1059Y2404*
X1059Y2402*
X1058Y2400*
X1058Y2399*
X1058Y2397*
Y2140*
X1057Y2140*
X1054Y2139*
X1053Y2139*
X1052Y2140*
X1050Y2141*
X1049Y2142*
X1047Y2142*
X1046Y2142*
X1044*
X1042Y2142*
X1041Y2142*
X1039Y2141*
X1038Y2140*
X1036Y2139*
X1035Y2138*
X1034Y2137*
X1033Y2135*
X1033Y2134*
X1032Y2132*
X1032Y2130*
Y2129*
X1032Y2127*
X1033Y2125*
X1033Y2124*
X1034Y2122*
X1035Y2121*
X1036Y2120*
X1038Y2119*
X1039Y2118*
X1041Y2117*
X1042Y2117*
X1044Y2117*
X1046*
X1047Y2117*
X1049Y2117*
X1050Y2118*
X1052Y2119*
X1053Y2120*
X1054Y2120*
X1057Y2119*
X1058Y2119*
Y2070*
X1058Y2069*
X1058Y2067*
X1059Y2065*
X1059Y2064*
X1060Y2063*
X1061Y2061*
X1101Y2022*
Y1944*
X1101Y1943*
X1101Y1941*
X1102Y1939*
X1103Y1938*
X1104Y1937*
X1105Y1935*
X1160Y1880*
X1161Y1879*
X1162Y1878*
X1164Y1877*
X1165Y1877*
X1167Y1877*
X1169Y1876*
X1204*
X1205Y1876*
X1205*
X1205Y1877*
X1206Y1877*
X1206Y1877*
X1207Y1877*
X1207Y1877*
X1208Y1877*
X1208Y1877*
X1208Y1877*
X1209Y1877*
X1209Y1877*
X1210Y1878*
X1210Y1878*
X1210Y1878*
X1211Y1878*
X1211Y1878*
X1211Y1879*
X1212Y1879*
X1212Y1879*
X1212Y1879*
X1213Y1880*
X1213Y1880*
X1213Y1880*
X1214Y1881*
X1214Y1881*
X1214Y1881*
X1214Y1881*
X1215Y1882*
X1215Y1882*
X1215Y1883*
X1215Y1883*
X1216Y1883*
X1216Y1884*
X1216Y1884*
X1216Y1884*
X1216Y1885*
X1216Y1885*
X1216Y1886*
X1217Y1886*
X1217Y1886*
X1217Y1887*
X1217Y1887*
X1217Y1888*
X1217Y1888*
X1217Y1888*
Y1889*
X1217Y1889*
X1217Y1890*
Y1890*
X1217Y1891*
X1217Y1891*
X1217Y1891*
X1217Y1892*
X1217Y1892*
X1217Y1893*
X1216Y1893*
X1216Y1893*
X1216Y1894*
X1216Y1894*
X1216Y1895*
X1216Y1895*
X1216Y1895*
X1215Y1896*
X1215Y1896*
X1215Y1896*
X1215Y1897*
X1214Y1897*
X1214Y1897*
X1214Y1898*
X1214Y1898*
X1213Y1898*
X1213Y1899*
X1213Y1899*
X1212Y1899*
X1212Y1899*
X1212Y1900*
X1211Y1900*
X1211Y1900*
X1211Y1900*
X1210Y1901*
X1210Y1901*
X1210Y1901*
X1209Y1901*
X1209Y1901*
X1208Y1901*
X1208Y1902*
X1208Y1902*
X1207Y1902*
X1207Y1902*
X1206Y1902*
X1206Y1902*
X1205Y1902*
X1205Y1902*
X1205*
X1204Y1902*
X1174*
X1127Y1950*
Y2027*
X1126Y2029*
X1126Y2030*
X1126Y2032*
X1125Y2033*
X1124Y2035*
X1123Y2036*
X1083Y2076*
Y2392*
X1115Y2424*
X1177*
X1177Y2424*
X1178*
X1178Y2424*
X1178Y2424*
X1179Y2424*
X1179Y2424*
X1180Y2424*
X1180Y2424*
X1180Y2424*
X1181Y2424*
X1181Y2425*
X1182Y2425*
X1182Y2425*
X1182Y2425*
X1183Y2425*
X1183Y2425*
X1183Y2426*
X1184Y2426*
X1184Y2426*
X1184Y2426*
X1185Y2427*
X1185Y2427*
X1185Y2427*
X1186Y2427*
X1186Y2428*
X1186Y2428*
X1187Y2428*
X1187Y2429*
X1187Y2429*
X1187Y2429*
X1188Y2430*
X1188Y2430*
X1188Y2430*
X1188Y2431*
X1188Y2431*
X1189Y2432*
X1189Y2432*
X1189Y2432*
X1189Y2433*
X1189Y2433*
X1189Y2434*
X1189Y2434*
X1189Y2434*
X1189Y2435*
X1189Y2435*
X1189Y2436*
Y2436*
X1189Y2437*
X1189Y2437*
Y2437*
X1189Y2438*
X1189Y2438*
X1189Y2439*
X1189Y2439*
X1189Y2439*
X1189Y2440*
X1189Y2440*
X1189Y2441*
X1189Y2441*
X1189Y2441*
X1188Y2442*
X1188Y2442*
X1188Y2443*
X1188Y2443*
X1188Y2443*
X1187Y2444*
X1187Y2444*
X1187Y2444*
X1187Y2445*
X1186Y2445*
X1186Y2445*
X1186Y2446*
X1185Y2446*
X1185Y2446*
X1185Y2446*
X1184Y2447*
X1184Y2447*
X1184Y2447*
X1183Y2447*
X1183Y2448*
X1183Y2448*
X1182Y2448*
X1182Y2448*
X1182Y2448*
X1181Y2448*
X1181Y2449*
X1180Y2449*
X1180Y2449*
X1180Y2449*
X1179Y2449*
X1179Y2449*
X1178Y2449*
X1178Y2449*
X1178Y2449*
X1177*
X1177Y2449*
G37*
G36*
X1191Y2138D02*
X1190D01*
X1188Y2138*
X1186Y2138*
X1185Y2137*
X1183Y2136*
X1182Y2135*
X1181Y2134*
X1180Y2133*
X1179Y2131*
X1178Y2130*
X1178Y2128*
X1178Y2126*
Y2125*
X1178Y2123*
X1178Y2121*
X1179Y2120*
X1180Y2118*
X1181Y2117*
X1182Y2116*
X1183Y2115*
X1185Y2114*
X1186Y2113*
X1188Y2113*
X1190Y2113*
X1191*
X1193Y2113*
X1195Y2113*
X1196Y2114*
X1198Y2115*
X1199Y2116*
X1200Y2117*
X1201Y2118*
X1202Y2120*
X1203Y2121*
X1203Y2123*
X1203Y2125*
Y2126*
X1203Y2128*
X1203Y2130*
X1202Y2131*
X1201Y2133*
X1200Y2134*
X1199Y2135*
X1198Y2136*
X1196Y2137*
X1195Y2138*
X1193Y2138*
X1191Y2138*
G37*
G36*
X1158D02*
X1156D01*
X1154Y2138*
X1153Y2138*
X1151Y2137*
X1150Y2136*
X1149Y2135*
X1147Y2134*
X1146Y2133*
X1145Y2131*
X1145Y2130*
X1144Y2128*
X1144Y2126*
Y2125*
X1144Y2123*
X1145Y2121*
X1145Y2120*
X1146Y2118*
X1147Y2117*
X1149Y2116*
X1150Y2115*
X1151Y2114*
X1153Y2113*
X1154Y2113*
X1156Y2113*
X1158*
X1159Y2113*
X1161Y2113*
X1163Y2114*
X1164Y2115*
X1165Y2116*
X1167Y2117*
X1168Y2118*
X1168Y2120*
X1169Y2121*
X1170Y2123*
X1170Y2125*
Y2126*
X1170Y2128*
X1169Y2130*
X1168Y2131*
X1168Y2133*
X1167Y2134*
X1165Y2135*
X1164Y2136*
X1163Y2137*
X1161Y2138*
X1159Y2138*
X1158Y2138*
G37*
G36*
X1280Y1993D02*
X1278D01*
X1277Y1992*
X1275Y1992*
X1273Y1991*
X1272Y1990*
X1271Y1989*
X1269Y1988*
X1268Y1987*
X1268Y1985*
X1267Y1984*
X1266Y1982*
X1266Y1981*
Y1979*
X1266Y1977*
X1267Y1976*
X1268Y1974*
X1268Y1973*
X1269Y1971*
X1271Y1970*
X1272Y1969*
X1273Y1968*
X1275Y1968*
X1277Y1967*
X1278Y1967*
X1280*
X1282Y1967*
X1283Y1968*
X1285Y1968*
X1286Y1969*
X1287Y1970*
X1289Y1971*
X1290Y1973*
X1291Y1974*
X1291Y1976*
X1292Y1977*
X1292Y1979*
Y1981*
X1292Y1982*
X1291Y1984*
X1291Y1985*
X1290Y1987*
X1289Y1988*
X1287Y1989*
X1286Y1990*
X1285Y1991*
X1283Y1992*
X1282Y1992*
X1280Y1993*
G37*
G36*
X3080Y2015D02*
X1765D01*
X1763Y2015*
X1762Y2015*
X1760Y2014*
X1758Y2013*
X1757Y2012*
X1729Y1984*
X1728Y1983*
X1727Y1983*
X1725Y1982*
X1724Y1980*
X1723Y1979*
X1722Y1978*
X1722Y1976*
X1721Y1974*
X1721Y1973*
Y1971*
X1721Y1969*
X1722Y1968*
X1722Y1966*
X1723Y1965*
X1724Y1963*
X1725Y1962*
X1727Y1961*
X1728Y1960*
X1730Y1960*
X1731Y1959*
X1733Y1959*
X1735*
X1736Y1959*
X1738Y1960*
X1739Y1960*
X1741Y1961*
X1742Y1962*
X1743Y1963*
X1744Y1965*
X1745Y1966*
X1746Y1967*
X1770Y1992*
X1919*
Y1977*
X1918Y1976*
X1918Y1974*
X1918Y1973*
Y1971*
X1918Y1969*
X1918Y1968*
X1919Y1966*
X1920Y1965*
X1921Y1963*
X1922Y1962*
X1923Y1961*
X1925Y1960*
X1926Y1960*
X1928Y1959*
X1930Y1959*
X1931*
X1933Y1959*
X1935Y1960*
X1936Y1960*
X1938Y1961*
X1939Y1962*
X1940Y1963*
X1941Y1965*
X1942Y1966*
X1943Y1968*
X1943Y1969*
X1943Y1971*
Y1973*
X1943Y1974*
X1943Y1976*
X1942Y1977*
Y1992*
X2116*
Y1977*
X2115Y1976*
X2115Y1974*
X2115Y1973*
Y1971*
X2115Y1969*
X2115Y1968*
X2116Y1966*
X2117Y1965*
X2118Y1963*
X2119Y1962*
X2120Y1961*
X2122Y1960*
X2123Y1960*
X2125Y1959*
X2127Y1959*
X2128*
X2130Y1959*
X2132Y1960*
X2133Y1960*
X2135Y1961*
X2136Y1962*
X2137Y1963*
X2138Y1965*
X2139Y1966*
X2140Y1968*
X2140Y1969*
X2140Y1971*
Y1973*
X2140Y1974*
X2140Y1976*
X2139Y1977*
Y1992*
X2312*
Y1977*
X2312Y1976*
X2312Y1974*
X2312Y1973*
Y1971*
X2312Y1969*
X2312Y1968*
X2313Y1966*
X2314Y1965*
X2315Y1963*
X2316Y1962*
X2317Y1961*
X2319Y1960*
X2320Y1960*
X2322Y1959*
X2323Y1959*
X2325*
X2327Y1959*
X2328Y1960*
X2330Y1960*
X2331Y1961*
X2333Y1962*
X2334Y1963*
X2335Y1965*
X2336Y1966*
X2336Y1968*
X2337Y1969*
X2337Y1971*
Y1973*
X2337Y1974*
X2336Y1976*
X2336Y1977*
Y1992*
X2509*
Y1977*
X2509Y1976*
X2509Y1974*
X2508Y1973*
Y1971*
X2509Y1969*
X2509Y1968*
X2510Y1966*
X2510Y1965*
X2512Y1963*
X2513Y1962*
X2514Y1961*
X2515Y1960*
X2517Y1960*
X2519Y1959*
X2520Y1959*
X2522*
X2524Y1959*
X2525Y1960*
X2527Y1960*
X2528Y1961*
X2530Y1962*
X2531Y1963*
X2532Y1965*
X2533Y1966*
X2533Y1968*
X2534Y1969*
X2534Y1971*
Y1973*
X2534Y1974*
X2533Y1976*
X2533Y1977*
Y1992*
X2706*
Y1977*
X2706Y1976*
X2705Y1974*
X2705Y1973*
Y1971*
X2705Y1969*
X2706Y1968*
X2707Y1966*
X2707Y1965*
X2708Y1963*
X2710Y1962*
X2711Y1961*
X2712Y1960*
X2714Y1960*
X2716Y1959*
X2717Y1959*
X2719*
X2721Y1959*
X2722Y1960*
X2724Y1960*
X2725Y1961*
X2726Y1962*
X2728Y1963*
X2729Y1965*
X2730Y1966*
X2730Y1968*
X2731Y1969*
X2731Y1971*
Y1973*
X2731Y1974*
X2730Y1976*
X2730Y1977*
Y1992*
X2903*
Y1977*
X2903Y1976*
X2902Y1974*
X2902Y1973*
Y1971*
X2902Y1969*
X2903Y1968*
X2903Y1966*
X2904Y1965*
X2905Y1963*
X2906Y1962*
X2908Y1961*
X2909Y1960*
X2911Y1960*
X2912Y1959*
X2914Y1959*
X2916*
X2917Y1959*
X2919Y1960*
X2921Y1960*
X2922Y1961*
X2923Y1962*
X2924Y1963*
X2926Y1965*
X2926Y1966*
X2927Y1968*
X2927Y1969*
X2928Y1971*
Y1973*
X2927Y1974*
X2927Y1976*
X2927Y1977*
Y1992*
X3075*
X3100Y1967*
X3100Y1966*
X3101Y1965*
X3102Y1963*
X3103Y1962*
X3105Y1961*
X3106Y1960*
X3108Y1960*
X3109Y1959*
X3111Y1959*
X3113*
X3114Y1959*
X3116Y1960*
X3117Y1960*
X3119Y1961*
X3120Y1962*
X3121Y1963*
X3122Y1965*
X3123Y1966*
X3124Y1968*
X3124Y1969*
X3125Y1971*
Y1973*
X3124Y1974*
X3124Y1976*
X3123Y1978*
X3122Y1979*
X3121Y1980*
X3120Y1982*
X3119Y1983*
X3117Y1983*
X3117Y1984*
X3089Y2012*
X3087Y2013*
X3086Y2014*
X3084Y2015*
X3082Y2015*
X3080Y2015*
G37*
G36*
X3055Y1961D02*
X3054Y1961D01*
X3054*
X3053Y1961*
X3053Y1961*
X3053Y1961*
X3052Y1961*
X3052Y1961*
X3051Y1961*
X3051Y1961*
X3051Y1960*
X3050Y1960*
X3050Y1960*
X3049Y1960*
X3049Y1960*
X3049Y1960*
X3048Y1959*
X3048Y1959*
X3047Y1959*
X3047Y1959*
X3047Y1958*
X3047Y1958*
X3046Y1958*
X3046Y1958*
X3046Y1957*
X3045Y1957*
X3045Y1957*
X3045Y1956*
X3044Y1956*
X3044Y1956*
X3044Y1955*
X3044Y1955*
X3044Y1955*
X3043Y1954*
X3043Y1954*
X3043Y1954*
X3043Y1953*
X3043Y1953*
X3042Y1952*
X3042Y1952*
X3042Y1952*
X3042Y1951*
X3042Y1951*
X3042Y1950*
X3042Y1950*
X3042Y1950*
X3042Y1949*
Y1949*
X3042Y1948*
X3042Y1948*
Y1947*
X3042Y1947*
X3042Y1947*
X3042Y1946*
X3042Y1946*
X3042Y1945*
X3042Y1945*
X3042Y1945*
X3042Y1944*
X3043Y1944*
X3043Y1943*
X3043Y1943*
X3043Y1943*
X3043Y1942*
X3044Y1942*
X3044Y1942*
X3044Y1941*
X3044Y1941*
X3044Y1941*
X3045Y1940*
X3045Y1940*
X3045Y1940*
X3046Y1939*
X3049Y1935*
X3051Y1934*
X3052Y1933*
X3054Y1933*
X3055Y1932*
X3057Y1932*
X3059Y1932*
X3069*
Y1930*
X3097*
Y1959*
X3069*
Y1957*
X3064*
X3064Y1957*
X3063Y1958*
X3063Y1958*
X3063Y1958*
X3062Y1958*
X3062Y1959*
X3062Y1959*
X3061Y1959*
X3061Y1959*
X3061Y1960*
X3060Y1960*
X3060Y1960*
X3060Y1960*
X3059Y1960*
X3059Y1960*
X3058Y1961*
X3058Y1961*
X3058Y1961*
X3057Y1961*
X3057Y1961*
X3056Y1961*
X3056Y1961*
X3055Y1961*
X3055*
X3055Y1961*
G37*
G36*
X2858D02*
X2857Y1961D01*
X2857*
X2857Y1961*
X2856Y1961*
X2856Y1961*
X2855Y1961*
X2855Y1961*
X2854Y1961*
X2854Y1961*
X2854Y1960*
X2853Y1960*
X2853Y1960*
X2852Y1960*
X2852Y1960*
X2852Y1960*
X2851Y1959*
X2851Y1959*
X2851Y1959*
X2850Y1959*
X2850Y1958*
X2850Y1958*
X2849Y1958*
X2849Y1958*
X2849Y1957*
X2848Y1957*
X2848Y1957*
X2848Y1956*
X2848Y1956*
X2847Y1956*
X2847Y1955*
X2847Y1955*
X2847Y1955*
X2846Y1954*
X2846Y1954*
X2846Y1954*
X2846Y1953*
X2846Y1953*
X2846Y1952*
X2846Y1952*
X2845Y1952*
X2845Y1951*
X2845Y1951*
X2845Y1950*
X2845Y1950*
X2845Y1950*
X2845Y1949*
Y1949*
X2845Y1948*
X2845Y1948*
Y1947*
X2845Y1947*
X2845Y1947*
X2845Y1946*
X2845Y1946*
X2845Y1945*
X2845Y1945*
X2846Y1945*
X2846Y1944*
X2846Y1944*
X2846Y1943*
X2846Y1943*
X2846Y1943*
X2846Y1942*
X2847Y1942*
X2847Y1942*
X2847Y1941*
X2847Y1941*
X2848Y1941*
X2848Y1940*
X2848Y1940*
X2848Y1940*
X2849Y1939*
X2853Y1935*
X2854Y1934*
X2855Y1933*
X2857Y1933*
X2858Y1932*
X2860Y1932*
X2862Y1932*
X2872*
Y1930*
X2900*
Y1959*
X2872*
Y1957*
X2867*
X2867Y1957*
X2867Y1958*
X2866Y1958*
X2866Y1958*
X2866Y1958*
X2865Y1959*
X2865Y1959*
X2865Y1959*
X2864Y1959*
X2864Y1960*
X2863Y1960*
X2863Y1960*
X2863Y1960*
X2862Y1960*
X2862Y1960*
X2861Y1961*
X2861Y1961*
X2861Y1961*
X2860Y1961*
X2860Y1961*
X2859Y1961*
X2859Y1961*
X2859Y1961*
X2858*
X2858Y1961*
G37*
G36*
X2661D02*
X2661Y1961D01*
X2660*
X2660Y1961*
X2659Y1961*
X2659Y1961*
X2658Y1961*
X2658Y1961*
X2658Y1961*
X2657Y1961*
X2657Y1960*
X2656Y1960*
X2656Y1960*
X2656Y1960*
X2655Y1960*
X2655Y1960*
X2655Y1959*
X2654Y1959*
X2654Y1959*
X2653Y1959*
X2653Y1958*
X2653Y1958*
X2652Y1958*
X2652Y1958*
X2652Y1957*
X2652Y1957*
X2651Y1957*
X2651Y1956*
X2651Y1956*
X2651Y1956*
X2650Y1955*
X2650Y1955*
X2650Y1955*
X2650Y1954*
X2649Y1954*
X2649Y1954*
X2649Y1953*
X2649Y1953*
X2649Y1952*
X2649Y1952*
X2649Y1952*
X2648Y1951*
X2648Y1951*
X2648Y1950*
X2648Y1950*
X2648Y1950*
X2648Y1949*
Y1949*
X2648Y1948*
X2648Y1948*
Y1947*
X2648Y1947*
X2648Y1947*
X2648Y1946*
X2648Y1946*
X2648Y1945*
X2649Y1945*
X2649Y1945*
X2649Y1944*
X2649Y1944*
X2649Y1943*
X2649Y1943*
X2649Y1943*
X2650Y1942*
X2650Y1942*
X2650Y1942*
X2650Y1941*
X2651Y1941*
X2651Y1941*
X2651Y1940*
X2651Y1940*
X2652Y1940*
X2652Y1939*
X2656Y1935*
X2657Y1934*
X2658Y1933*
X2660Y1933*
X2662Y1932*
X2663Y1932*
X2665Y1932*
X2675*
Y1930*
X2703*
Y1959*
X2675*
Y1957*
X2670*
X2670Y1957*
X2670Y1958*
X2669Y1958*
X2669Y1958*
X2669Y1958*
X2668Y1959*
X2668Y1959*
X2668Y1959*
X2667Y1959*
X2667Y1960*
X2667Y1960*
X2666Y1960*
X2666Y1960*
X2665Y1960*
X2665Y1960*
X2665Y1961*
X2664Y1961*
X2664Y1961*
X2663Y1961*
X2663Y1961*
X2663Y1961*
X2662Y1961*
X2662Y1961*
X2661*
X2661Y1961*
G37*
G36*
X2464D02*
X2464Y1961D01*
X2463*
X2463Y1961*
X2462Y1961*
X2462Y1961*
X2462Y1961*
X2461Y1961*
X2461Y1961*
X2460Y1961*
X2460Y1960*
X2460Y1960*
X2459Y1960*
X2459Y1960*
X2458Y1960*
X2458Y1960*
X2458Y1959*
X2457Y1959*
X2457Y1959*
X2457Y1959*
X2456Y1958*
X2456Y1958*
X2456Y1958*
X2455Y1958*
X2455Y1957*
X2455Y1957*
X2454Y1957*
X2454Y1956*
X2454Y1956*
X2454Y1956*
X2453Y1955*
X2453Y1955*
X2453Y1955*
X2453Y1954*
X2453Y1954*
X2452Y1954*
X2452Y1953*
X2452Y1953*
X2452Y1952*
X2452Y1952*
X2452Y1952*
X2452Y1951*
X2451Y1951*
X2451Y1950*
X2451Y1950*
X2451Y1950*
X2451Y1949*
Y1949*
X2451Y1948*
X2451Y1948*
Y1947*
X2451Y1947*
X2451Y1947*
X2451Y1946*
X2451Y1946*
X2452Y1945*
X2452Y1945*
X2452Y1945*
X2452Y1944*
X2452Y1944*
X2452Y1943*
X2452Y1943*
X2453Y1943*
X2453Y1942*
X2453Y1942*
X2453Y1942*
X2453Y1941*
X2454Y1941*
X2454Y1941*
X2454Y1940*
X2454Y1940*
X2455Y1940*
X2455Y1939*
X2459Y1935*
X2460Y1934*
X2462Y1933*
X2463Y1933*
X2465Y1932*
X2466Y1932*
X2468Y1932*
X2479*
Y1930*
X2506*
Y1959*
X2479*
Y1957*
X2473*
X2473Y1957*
X2473Y1958*
X2473Y1958*
X2472Y1958*
X2472Y1958*
X2472Y1959*
X2471Y1959*
X2471Y1959*
X2470Y1959*
X2470Y1960*
X2470Y1960*
X2469Y1960*
X2469Y1960*
X2469Y1960*
X2468Y1960*
X2468Y1961*
X2467Y1961*
X2467Y1961*
X2467Y1961*
X2466Y1961*
X2466Y1961*
X2465Y1961*
X2465Y1961*
X2464*
X2464Y1961*
G37*
G36*
X2267D02*
X2267Y1961D01*
X2266*
X2266Y1961*
X2266Y1961*
X2265Y1961*
X2265Y1961*
X2264Y1961*
X2264Y1961*
X2264Y1961*
X2263Y1960*
X2263Y1960*
X2262Y1960*
X2262Y1960*
X2262Y1960*
X2261Y1960*
X2261Y1959*
X2260Y1959*
X2260Y1959*
X2260Y1959*
X2259Y1958*
X2259Y1958*
X2259Y1958*
X2258Y1958*
X2258Y1957*
X2258Y1957*
X2258Y1957*
X2257Y1956*
X2257Y1956*
X2257Y1956*
X2257Y1955*
X2256Y1955*
X2256Y1955*
X2256Y1954*
X2256Y1954*
X2256Y1954*
X2255Y1953*
X2255Y1953*
X2255Y1952*
X2255Y1952*
X2255Y1952*
X2255Y1951*
X2255Y1951*
X2255Y1950*
X2255Y1950*
X2254Y1950*
X2254Y1949*
Y1949*
X2254Y1948*
X2254Y1948*
Y1947*
X2254Y1947*
X2255Y1947*
X2255Y1946*
X2255Y1946*
X2255Y1945*
X2255Y1945*
X2255Y1945*
X2255Y1944*
X2255Y1944*
X2255Y1943*
X2256Y1943*
X2256Y1943*
X2256Y1942*
X2256Y1942*
X2256Y1942*
X2257Y1941*
X2257Y1941*
X2257Y1941*
X2257Y1940*
X2258Y1940*
X2258Y1940*
X2258Y1939*
X2262Y1935*
X2263Y1934*
X2265Y1933*
X2266Y1933*
X2268Y1932*
X2269Y1932*
X2271Y1932*
X2282*
Y1930*
X2309*
Y1959*
X2282*
Y1957*
X2276*
X2276Y1957*
X2276Y1958*
X2276Y1958*
X2275Y1958*
X2275Y1958*
X2275Y1959*
X2274Y1959*
X2274Y1959*
X2274Y1959*
X2273Y1960*
X2273Y1960*
X2273Y1960*
X2272Y1960*
X2272Y1960*
X2271Y1960*
X2271Y1961*
X2271Y1961*
X2270Y1961*
X2270Y1961*
X2269Y1961*
X2269Y1961*
X2268Y1961*
X2268Y1961*
X2268*
X2267Y1961*
G37*
G36*
X2070D02*
X2070Y1961D01*
X2070*
X2069Y1961*
X2069Y1961*
X2068Y1961*
X2068Y1961*
X2067Y1961*
X2067Y1961*
X2067Y1961*
X2066Y1960*
X2066Y1960*
X2065Y1960*
X2065Y1960*
X2065Y1960*
X2064Y1960*
X2064Y1959*
X2064Y1959*
X2063Y1959*
X2063Y1959*
X2063Y1958*
X2062Y1958*
X2062Y1958*
X2062Y1958*
X2061Y1957*
X2061Y1957*
X2061Y1957*
X2060Y1956*
X2060Y1956*
X2060Y1956*
X2060Y1955*
X2059Y1955*
X2059Y1955*
X2059Y1954*
X2059Y1954*
X2059Y1954*
X2059Y1953*
X2058Y1953*
X2058Y1952*
X2058Y1952*
X2058Y1952*
X2058Y1951*
X2058Y1951*
X2058Y1950*
X2058Y1950*
X2058Y1950*
X2058Y1949*
Y1949*
X2058Y1948*
X2058Y1948*
Y1947*
X2058Y1947*
X2058Y1947*
X2058Y1946*
X2058Y1946*
X2058Y1945*
X2058Y1945*
X2058Y1945*
X2058Y1944*
X2058Y1944*
X2059Y1943*
X2059Y1943*
X2059Y1943*
X2059Y1942*
X2059Y1942*
X2059Y1942*
X2060Y1941*
X2060Y1941*
X2060Y1941*
X2060Y1940*
X2061Y1940*
X2061Y1940*
X2061Y1939*
X2065Y1935*
X2067Y1934*
X2068Y1933*
X2069Y1933*
X2071Y1932*
X2073Y1932*
X2074Y1932*
X2085*
Y1930*
X2112*
Y1959*
X2085*
Y1957*
X2080*
X2079Y1957*
X2079Y1958*
X2079Y1958*
X2078Y1958*
X2078Y1958*
X2078Y1959*
X2077Y1959*
X2077Y1959*
X2077Y1959*
X2076Y1960*
X2076Y1960*
X2076Y1960*
X2075Y1960*
X2075Y1960*
X2074Y1960*
X2074Y1961*
X2074Y1961*
X2073Y1961*
X2073Y1961*
X2072Y1961*
X2072Y1961*
X2072Y1961*
X2071Y1961*
X2071*
X2070Y1961*
G37*
G36*
X1874D02*
X1873Y1961D01*
X1873*
X1872Y1961*
X1872Y1961*
X1871Y1961*
X1871Y1961*
X1871Y1961*
X1870Y1961*
X1870Y1961*
X1869Y1960*
X1869Y1960*
X1869Y1960*
X1868Y1960*
X1868Y1960*
X1867Y1960*
X1867Y1959*
X1867Y1959*
X1866Y1959*
X1866Y1959*
X1866Y1958*
X1865Y1958*
X1865Y1958*
X1865Y1958*
X1864Y1957*
X1864Y1957*
X1864Y1957*
X1864Y1956*
X1863Y1956*
X1863Y1956*
X1863Y1955*
X1863Y1955*
X1862Y1955*
X1862Y1954*
X1862Y1954*
X1862Y1954*
X1862Y1953*
X1862Y1953*
X1861Y1952*
X1861Y1952*
X1861Y1952*
X1861Y1951*
X1861Y1951*
X1861Y1950*
X1861Y1950*
X1861Y1950*
X1861Y1949*
Y1949*
X1861Y1948*
X1861Y1948*
Y1947*
X1861Y1947*
X1861Y1947*
X1861Y1946*
X1861Y1946*
X1861Y1945*
X1861Y1945*
X1861Y1945*
X1861Y1944*
X1862Y1944*
X1862Y1943*
X1862Y1943*
X1862Y1943*
X1862Y1942*
X1862Y1942*
X1863Y1942*
X1863Y1941*
X1863Y1941*
X1863Y1941*
X1864Y1940*
X1864Y1940*
X1864Y1940*
X1864Y1939*
X1868Y1935*
X1870Y1934*
X1871Y1933*
X1873Y1933*
X1874Y1932*
X1876Y1932*
X1877Y1932*
X1888*
Y1930*
X1916*
Y1959*
X1888*
Y1957*
X1883*
X1883Y1957*
X1882Y1958*
X1882Y1958*
X1882Y1958*
X1881Y1958*
X1881Y1959*
X1881Y1959*
X1880Y1959*
X1880Y1959*
X1880Y1960*
X1879Y1960*
X1879Y1960*
X1878Y1960*
X1878Y1960*
X1878Y1960*
X1877Y1961*
X1877Y1961*
X1876Y1961*
X1876Y1961*
X1876Y1961*
X1875Y1961*
X1875Y1961*
X1874Y1961*
X1874*
X1874Y1961*
G37*
G36*
X1677D02*
X1676Y1961D01*
X1676*
X1675Y1961*
X1675Y1961*
X1675Y1961*
X1674Y1961*
X1674Y1961*
X1673Y1961*
X1673Y1961*
X1673Y1960*
X1672Y1960*
X1672Y1960*
X1671Y1960*
X1671Y1960*
X1671Y1960*
X1670Y1959*
X1670Y1959*
X1670Y1959*
X1669Y1959*
X1669Y1958*
X1669Y1958*
X1668Y1958*
X1668Y1958*
X1668Y1957*
X1667Y1957*
X1667Y1957*
X1667Y1956*
X1666Y1956*
X1666Y1956*
X1666Y1955*
X1666Y1955*
X1666Y1955*
X1665Y1954*
X1665Y1954*
X1665Y1954*
X1665Y1953*
X1665Y1953*
X1665Y1952*
X1664Y1952*
X1664Y1952*
X1664Y1951*
X1664Y1951*
X1664Y1950*
X1664Y1950*
X1664Y1950*
X1664Y1949*
Y1949*
X1664Y1948*
X1664Y1948*
Y1947*
X1664Y1947*
X1664Y1947*
X1664Y1946*
X1664Y1946*
X1664Y1945*
X1664Y1945*
X1664Y1945*
X1665Y1944*
X1665Y1944*
X1665Y1943*
X1665Y1943*
X1665Y1943*
X1665Y1942*
X1666Y1942*
X1666Y1942*
X1666Y1941*
X1666Y1941*
X1666Y1941*
X1667Y1940*
X1667Y1940*
X1667Y1940*
X1668Y1939*
X1672Y1935*
X1673Y1934*
X1674Y1933*
X1676Y1933*
X1677Y1932*
X1679Y1932*
X1681Y1932*
X1691*
Y1930*
X1719*
Y1959*
X1691*
Y1957*
X1686*
X1686Y1957*
X1685Y1958*
X1685Y1958*
X1685Y1958*
X1684Y1958*
X1684Y1959*
X1684Y1959*
X1683Y1959*
X1683Y1959*
X1683Y1960*
X1682Y1960*
X1682Y1960*
X1682Y1960*
X1681Y1960*
X1681Y1960*
X1680Y1961*
X1680Y1961*
X1680Y1961*
X1679Y1961*
X1679Y1961*
X1678Y1961*
X1678Y1961*
X1678Y1961*
X1677*
X1677Y1961*
G37*
G36*
X1001Y1751D02*
X927D01*
Y1676*
X1001*
Y1751*
G37*
G36*
X966Y1651D02*
X962D01*
X959Y1651*
X956Y1650*
X953Y1649*
X950Y1648*
X947Y1647*
X944Y1645*
X941Y1643*
X939Y1641*
X936Y1639*
X934Y1636*
X932Y1634*
X931Y1631*
X929Y1628*
X928Y1625*
X928Y1622*
X927Y1619*
X927Y1615*
Y1612*
X927Y1609*
X928Y1606*
X928Y1602*
X929Y1599*
X931Y1596*
X932Y1594*
X934Y1591*
X936Y1588*
X939Y1586*
X941Y1584*
X944Y1582*
X947Y1580*
X950Y1579*
X953Y1578*
X956Y1577*
X959Y1577*
X962Y1576*
X966*
X969Y1577*
X972Y1577*
X975Y1578*
X978Y1579*
X981Y1580*
X984Y1582*
X987Y1584*
X989Y1586*
X992Y1588*
X994Y1591*
X996Y1594*
X997Y1596*
X999Y1599*
X1000Y1602*
X1001Y1606*
X1001Y1609*
X1001Y1612*
Y1615*
X1001Y1619*
X1001Y1622*
X1000Y1625*
X999Y1628*
X997Y1631*
X996Y1634*
X994Y1636*
X992Y1639*
X989Y1641*
X987Y1643*
X984Y1645*
X981Y1647*
X978Y1648*
X975Y1649*
X972Y1650*
X969Y1651*
X966Y1651*
G37*
G36*
X1489Y1371D02*
X1487D01*
X1485Y1370*
X1484Y1370*
X1482Y1369*
X1481Y1368*
X1479Y1367*
X1478Y1366*
X1477Y1365*
X1476Y1363*
X1476Y1362*
X1475Y1360*
X1475Y1359*
Y1357*
X1475Y1355*
X1476Y1354*
X1476Y1353*
Y1348*
X1473*
Y1321*
X1503*
Y1348*
X1500*
Y1353*
X1500Y1354*
X1500Y1355*
X1500Y1357*
Y1359*
X1500Y1360*
X1500Y1362*
X1499Y1363*
X1498Y1365*
X1497Y1366*
X1496Y1367*
X1495Y1368*
X1493Y1369*
X1492Y1370*
X1490Y1370*
X1489Y1371*
G37*
G36*
X1386D02*
X1384D01*
X1383Y1370*
X1381Y1370*
X1380Y1369*
X1378Y1368*
X1377Y1367*
X1376Y1366*
X1375Y1365*
X1374Y1363*
X1373Y1362*
X1373Y1360*
X1373Y1359*
Y1357*
X1373Y1355*
X1373Y1354*
X1373Y1353*
Y1348*
X1370*
Y1321*
X1400*
Y1348*
X1397*
Y1353*
X1397Y1354*
X1398Y1355*
X1398Y1357*
Y1359*
X1398Y1360*
X1397Y1362*
X1397Y1363*
X1396Y1365*
X1395Y1366*
X1394Y1367*
X1392Y1368*
X1391Y1369*
X1389Y1370*
X1388Y1370*
X1386Y1371*
G37*
G36*
X1288D02*
X1286D01*
X1284Y1370*
X1283Y1370*
X1281Y1369*
X1280Y1368*
X1278Y1367*
X1277Y1366*
X1276Y1365*
X1275Y1363*
X1275Y1362*
X1274Y1360*
X1274Y1359*
Y1357*
X1274Y1355*
X1275Y1354*
X1275Y1353*
Y1348*
X1272*
Y1321*
X1302*
Y1348*
X1299*
Y1353*
X1299Y1354*
X1299Y1355*
X1300Y1357*
Y1359*
X1299Y1360*
X1299Y1362*
X1298Y1363*
X1298Y1365*
X1297Y1366*
X1295Y1367*
X1294Y1368*
X1293Y1369*
X1291Y1370*
X1289Y1370*
X1288Y1371*
G37*
G36*
X1618Y1179D02*
X1615D01*
X1612Y1178*
X1609Y1178*
X1606Y1177*
X1603Y1176*
X1600Y1174*
X1597Y1173*
X1594Y1171*
X1592Y1169*
X1589Y1167*
X1587Y1164*
X1585Y1161*
X1584Y1159*
X1582Y1156*
X1581Y1152*
X1580Y1149*
X1580Y1146*
X1579Y1143*
Y1140*
X1580Y1136*
X1580Y1133*
X1581Y1130*
X1582Y1127*
X1584Y1124*
X1585Y1121*
X1587Y1118*
X1589Y1116*
X1592Y1114*
X1594Y1112*
X1597Y1110*
X1600Y1108*
X1603Y1107*
X1606Y1106*
X1609Y1105*
X1612Y1104*
X1615Y1104*
X1618*
X1622Y1104*
X1625Y1105*
X1628Y1106*
X1631Y1107*
X1634Y1108*
X1637Y1110*
X1640Y1112*
X1642Y1114*
X1644Y1116*
X1647Y1118*
X1648Y1121*
X1650Y1124*
X1651Y1127*
X1653Y1130*
X1653Y1133*
X1654Y1136*
X1654Y1140*
Y1143*
X1654Y1146*
X1653Y1149*
X1653Y1152*
X1651Y1156*
X1650Y1159*
X1648Y1161*
X1647Y1164*
X1644Y1167*
X1642Y1169*
X1640Y1171*
X1637Y1173*
X1634Y1174*
X1631Y1176*
X1628Y1177*
X1625Y1178*
X1622Y1178*
X1618Y1179*
G37*
G36*
X1518D02*
X1515D01*
X1512Y1178*
X1509Y1178*
X1506Y1177*
X1503Y1176*
X1500Y1174*
X1497Y1173*
X1494Y1171*
X1492Y1169*
X1489Y1167*
X1487Y1164*
X1485Y1161*
X1484Y1159*
X1482Y1156*
X1481Y1152*
X1480Y1149*
X1480Y1146*
X1479Y1143*
Y1140*
X1480Y1136*
X1480Y1133*
X1481Y1130*
X1482Y1127*
X1484Y1124*
X1485Y1121*
X1487Y1118*
X1489Y1116*
X1492Y1114*
X1494Y1112*
X1497Y1110*
X1500Y1108*
X1503Y1107*
X1506Y1106*
X1509Y1105*
X1512Y1104*
X1515Y1104*
X1518*
X1522Y1104*
X1525Y1105*
X1528Y1106*
X1531Y1107*
X1534Y1108*
X1537Y1110*
X1540Y1112*
X1542Y1114*
X1544Y1116*
X1547Y1118*
X1548Y1121*
X1550Y1124*
X1551Y1127*
X1553Y1130*
X1553Y1133*
X1554Y1136*
X1554Y1140*
Y1143*
X1554Y1146*
X1553Y1149*
X1553Y1152*
X1551Y1156*
X1550Y1159*
X1548Y1161*
X1547Y1164*
X1544Y1167*
X1542Y1169*
X1540Y1171*
X1537Y1173*
X1534Y1174*
X1531Y1176*
X1528Y1177*
X1525Y1178*
X1522Y1178*
X1518Y1179*
G37*
G36*
X1418D02*
X1415D01*
X1412Y1178*
X1409Y1178*
X1406Y1177*
X1403Y1176*
X1400Y1174*
X1397Y1173*
X1394Y1171*
X1392Y1169*
X1389Y1167*
X1387Y1164*
X1385Y1161*
X1384Y1159*
X1382Y1156*
X1381Y1152*
X1380Y1149*
X1380Y1146*
X1379Y1143*
Y1140*
X1380Y1136*
X1380Y1133*
X1381Y1130*
X1382Y1127*
X1384Y1124*
X1385Y1121*
X1387Y1118*
X1389Y1116*
X1392Y1114*
X1394Y1112*
X1397Y1110*
X1400Y1108*
X1403Y1107*
X1406Y1106*
X1409Y1105*
X1412Y1104*
X1415Y1104*
X1418*
X1422Y1104*
X1425Y1105*
X1428Y1106*
X1431Y1107*
X1434Y1108*
X1437Y1110*
X1440Y1112*
X1442Y1114*
X1444Y1116*
X1447Y1118*
X1448Y1121*
X1450Y1124*
X1451Y1127*
X1453Y1130*
X1453Y1133*
X1454Y1136*
X1454Y1140*
Y1143*
X1454Y1146*
X1453Y1149*
X1453Y1152*
X1451Y1156*
X1450Y1159*
X1448Y1161*
X1447Y1164*
X1444Y1167*
X1442Y1169*
X1440Y1171*
X1437Y1173*
X1434Y1174*
X1431Y1176*
X1428Y1177*
X1425Y1178*
X1422Y1178*
X1418Y1179*
G37*
G36*
X1345Y1179D02*
X1288D01*
X1287Y1179*
X1286Y1178*
X1284Y1178*
X1283Y1177*
X1282Y1176*
X1281Y1175*
X1280Y1174*
X1280Y1172*
X1280Y1171*
X1279Y1170*
Y1113*
X1280Y1111*
X1280Y1110*
X1280Y1109*
X1281Y1108*
X1282Y1106*
X1283Y1106*
X1284Y1105*
X1286Y1104*
X1287Y1104*
X1288Y1104*
X1345*
X1347Y1104*
X1348Y1104*
X1349Y1105*
X1351Y1106*
X1352Y1106*
X1353Y1108*
X1353Y1109*
X1354Y1110*
X1354Y1111*
X1354Y1113*
Y1170*
X1354Y1171*
X1354Y1172*
X1353Y1174*
X1353Y1175*
X1352Y1176*
X1351Y1177*
X1349Y1178*
X1348Y1178*
X1347Y1179*
X1345Y1179*
G37*
G36*
X3172Y1147D02*
X3142D01*
Y1119*
X3144Y1115*
X3144Y1115*
Y1113*
X3144Y1111*
X3145Y1110*
X3145Y1108*
X3146Y1107*
X3147Y1105*
X3149Y1104*
X3150Y1103*
X3151Y1102*
X3153Y1102*
X3154Y1101*
X3156Y1101*
X3158*
X3159Y1101*
X3161Y1102*
X3163Y1102*
X3164Y1103*
X3165Y1104*
X3167Y1105*
X3168Y1107*
X3168Y1108*
X3169Y1110*
X3170Y1111*
X3170Y1113*
Y1115*
X3170Y1115*
X3172Y1119*
Y1147*
G37*
G36*
X3109D02*
X3079D01*
Y1119*
X3081Y1115*
X3081Y1115*
Y1113*
X3081Y1111*
X3082Y1110*
X3082Y1108*
X3083Y1107*
X3084Y1105*
X3086Y1104*
X3087Y1103*
X3088Y1102*
X3090Y1102*
X3091Y1101*
X3093Y1101*
X3095*
X3096Y1101*
X3098Y1102*
X3100Y1102*
X3101Y1103*
X3102Y1104*
X3104Y1105*
X3105Y1107*
X3105Y1108*
X3106Y1110*
X3107Y1111*
X3107Y1113*
Y1115*
X3107Y1115*
X3109Y1119*
Y1147*
G37*
G36*
X3046D02*
X3016D01*
Y1119*
X3018Y1115*
X3018Y1115*
Y1113*
X3018Y1111*
X3019Y1110*
X3020Y1108*
X3020Y1107*
X3021Y1105*
X3023Y1104*
X3024Y1103*
X3025Y1102*
X3027Y1102*
X3028Y1101*
X3030Y1101*
X3032*
X3034Y1101*
X3035Y1102*
X3037Y1102*
X3038Y1103*
X3039Y1104*
X3041Y1105*
X3042Y1107*
X3043Y1108*
X3043Y1110*
X3044Y1111*
X3044Y1113*
Y1115*
X3044Y1115*
X3046Y1119*
Y1147*
G37*
G36*
X2983D02*
X2953D01*
Y1119*
X2955Y1115*
X2955Y1115*
Y1113*
X2955Y1111*
X2956Y1110*
X2957Y1108*
X2957Y1107*
X2958Y1105*
X2960Y1104*
X2961Y1103*
X2962Y1102*
X2964Y1102*
X2966Y1101*
X2967Y1101*
X2969*
X2971Y1101*
X2972Y1102*
X2974Y1102*
X2975Y1103*
X2976Y1104*
X2978Y1105*
X2979Y1107*
X2980Y1108*
X2980Y1110*
X2981Y1111*
X2981Y1113*
Y1115*
X2981Y1115*
X2983Y1119*
Y1147*
G37*
%LNbenchy-voltmeter-pcb-3*%
%LPD*%
G36*
X1953Y3095D02*
X1955Y3094D01*
Y3093*
X1955Y3091*
X1956Y3090*
X1957Y3088*
X1957Y3087*
X1958Y3086*
X1960Y3084*
X1960Y3084*
Y3074*
X1902Y3016*
X1898*
X1897Y3020*
X1897Y3020*
X1898Y3020*
X1899Y3021*
X1946Y3068*
X1947Y3069*
X1948Y3071*
X1948Y3072*
X1949Y3073*
X1949Y3074*
Y3092*
X1949Y3092*
X1950Y3093*
X1951Y3095*
X1951Y3095*
X1953Y3095*
G37*
G36*
X1983Y3087D02*
X1983Y3086D01*
X1984Y3084*
X1985Y3083*
X1986Y3082*
X1987Y3080*
X1987Y3080*
Y3066*
X1917Y2996*
X1909*
X1909Y3000*
X1909Y3000*
X1910Y3001*
X1911Y3002*
X1974Y3065*
X1975Y3065*
X1975Y3067*
X1976Y3068*
X1976Y3069*
X1976Y3070*
Y3084*
X1976Y3084*
X1978Y3086*
X1979Y3087*
X1979Y3087*
X1982Y3088*
X1983Y3087*
G37*
G36*
X1721Y2795D02*
X1509Y2583D01*
X1508Y2583*
X1507*
X1505Y2583*
X1503Y2583*
X1502Y2582*
X1500Y2581*
X1499Y2580*
X1499Y2580*
X1495Y2581*
X1495Y2581*
X1495Y2582*
X1711Y2799*
X1719*
X1721Y2795*
G37*
G36*
X2013Y2796D02*
X2013Y2792D01*
X1953Y2732*
X1945*
X1945Y2736*
X1946Y2736*
X1947Y2736*
X1949Y2737*
X1950Y2738*
X2010Y2798*
X2013Y2796*
G37*
G36*
X1981Y2657D02*
X1981Y2654D01*
X1981Y2653*
X1980Y2652*
X1978Y2652*
X1977Y2651*
X1975Y2650*
X1974Y2649*
X1973Y2647*
X1972Y2646*
X1972Y2644*
X1971Y2643*
X1971Y2641*
Y2639*
X1971Y2638*
X1972Y2636*
X1972Y2635*
X1973Y2633*
X1974Y2632*
X1974Y2631*
X1970Y2630*
X1970Y2630*
X1969Y2631*
X1967Y2632*
X1966Y2633*
X1964Y2634*
X1963Y2634*
X1961Y2634*
X1959*
X1958Y2634*
X1956Y2634*
X1954Y2633*
X1953Y2632*
X1952Y2631*
X1950Y2630*
X1950Y2629*
X1949Y2629*
X1946Y2630*
X1946Y2631*
X1946Y2632*
X1947Y2633*
X1948Y2635*
X1949Y2636*
X1949Y2638*
X1949Y2639*
Y2641*
X1949Y2643*
X1949Y2644*
X1948Y2646*
X1947Y2647*
X1946Y2649*
X1945Y2650*
X1944Y2651*
X1942Y2652*
X1941Y2652*
X1940Y2653*
X1939Y2654*
X1939Y2657*
X1939*
X1981*
X1981*
G37*
G36*
X1949Y2616D02*
X1949Y2614D01*
X1950Y2613*
X1952Y2612*
X1952Y2612*
Y2481*
X1948Y2477*
X1946Y2478*
X1944Y2479*
Y2616*
X1948Y2617*
X1949Y2616*
G37*
G36*
X1975Y2615D02*
Y2468D01*
X1970Y2462*
X1969Y2461*
X1968Y2460*
X1968Y2459*
X1968Y2457*
X1968Y2456*
Y2334*
X1968Y2333*
X1968Y2332*
X1968Y2331*
X1965Y2330*
X1962Y2333*
Y2467*
X1966Y2471*
X1967Y2472*
X1968Y2473*
X1968Y2475*
X1968Y2476*
X1968Y2477*
Y2612*
X1969Y2612*
X1970Y2613*
X1971Y2614*
X1972Y2616*
X1975Y2615*
G37*
G36*
X1929Y2616D02*
Y2318D01*
X1929Y2317*
X1929Y2315*
X1926Y2313*
X1921Y2318*
Y2612*
X1921Y2612*
X1923Y2613*
X1924Y2614*
X1924Y2616*
X1925Y2617*
X1929Y2616*
G37*
G36*
X2085Y2284D02*
X2086Y2281D01*
X2084Y2280*
X2083Y2278*
X2082Y2277*
X2082Y2275*
X2081Y2274*
X2081Y2272*
Y2271*
X2079Y2268*
X2075Y2270*
X2075Y2270*
Y2272*
X2075Y2274*
X2075Y2275*
X2074Y2277*
X2073Y2278*
X2072Y2280*
X2071Y2281*
X2070Y2282*
Y2284*
X2070Y2285*
X2070Y2286*
X2069Y2288*
X2068Y2289*
X2067Y2290*
X2047Y2310*
X2049Y2314*
X2055*
X2085Y2284*
G37*
G36*
X2021Y2280D02*
X2021Y2280D01*
X2020Y2278*
X2020Y2277*
X2019Y2275*
X2018Y2274*
X2018Y2272*
Y2270*
X2018Y2270*
X2015Y2268*
X2012Y2271*
Y2272*
X2012Y2274*
X2012Y2275*
X2011Y2277*
X2010Y2278*
X2010Y2279*
X2010Y2281*
X2011Y2283*
X2019*
X2021Y2280*
G37*
G36*
X2053Y2280D02*
Y2280D01*
X2053Y2280*
X2052Y2278*
X2051Y2277*
X2050Y2275*
X2050Y2274*
X2050Y2272*
Y2270*
X2050Y2269*
X2050Y2268*
X2050Y2268*
X2049Y2267*
X2049Y2266*
X2048Y2265*
X2045Y2265*
X2043Y2267*
X2044Y2269*
X2044Y2270*
Y2272*
X2044Y2274*
X2043Y2275*
X2043Y2277*
X2042Y2278*
X2041Y2280*
X2039Y2281*
X2038Y2282*
X2038Y2282*
Y2284*
X2038Y2285*
X2037Y2287*
X2037Y2288*
X2036Y2289*
X2032Y2293*
X2033Y2297*
X2036Y2298*
X2053Y2280*
G37*
G36*
X1905Y2509D02*
Y2314D01*
X1905Y2313*
X1905Y2312*
X1906Y2311*
X1906Y2310*
X1907Y2309*
X1950Y2265*
X1951Y2264*
X1952Y2264*
X1954Y2263*
X1955Y2263*
X1956Y2263*
X1990*
X1990Y2263*
X1991Y2262*
X1992Y2260*
X1994Y2260*
X1995Y2259*
X1997Y2259*
X1999Y2258*
X2000*
X2001Y2258*
X2008Y2251*
Y2227*
X2008Y2226*
X2009Y2225*
X2009Y2224*
X2010Y2223*
X2011Y2223*
X2012Y2222*
X2013Y2222*
X2014Y2222*
X2021*
X2022Y2222*
X2023Y2222*
X2024Y2223*
X2025Y2223*
X2025Y2224*
X2025Y2224*
X2027Y2224*
X2029Y2224*
X2029Y2224*
X2030Y2223*
X2030Y2223*
X2031Y2222*
X2032Y2222*
X2033Y2222*
X2041*
X2042Y2222*
X2043Y2222*
X2043Y2223*
X2044Y2223*
X2045Y2224*
X2045Y2224*
X2047Y2224*
X2049Y2224*
X2049Y2224*
X2049Y2223*
X2050Y2223*
X2051Y2222*
X2052Y2222*
X2053Y2222*
X2060*
X2061Y2222*
X2062Y2222*
X2063Y2223*
X2064Y2223*
X2064Y2224*
X2064Y2224*
X2066Y2224*
X2068Y2224*
X2069Y2224*
X2069Y2223*
X2070Y2223*
X2071Y2222*
X2072Y2222*
X2073Y2222*
X2080*
X2081Y2222*
X2081Y2222*
X2083Y2221*
X2084Y2219*
X2084Y2219*
X2084Y2218*
Y2210*
X2084Y2209*
X2085Y2208*
X2085Y2207*
X2086Y2207*
X2086Y2206*
X2086Y2206*
X2086Y2204*
X2086Y2202*
X2086Y2202*
X2086Y2202*
X2085Y2201*
X2085Y2200*
X2084Y2199*
X2084Y2198*
Y2191*
X2084Y2190*
X2085Y2189*
X2085Y2188*
X2086Y2187*
X2086Y2187*
X2086Y2187*
X2086Y2185*
X2086Y2183*
X2086Y2182*
X2086Y2182*
X2085Y2181*
X2085Y2180*
X2084Y2179*
X2084Y2178*
Y2171*
X2084Y2170*
X2085Y2169*
X2085Y2168*
X2086Y2167*
X2086Y2167*
X2086Y2167*
X2086Y2165*
X2086Y2163*
X2086Y2163*
X2086Y2162*
X2085Y2162*
X2085Y2161*
X2084Y2160*
X2084Y2159*
Y2151*
X2084Y2150*
X2084Y2150*
X2083Y2148*
X2081Y2147*
X2081Y2147*
X2080Y2147*
X2073*
X2072Y2147*
X2071Y2147*
X2070Y2146*
X2069Y2146*
X2069Y2145*
X2068Y2145*
X2066Y2145*
X2064Y2145*
X2064Y2145*
X2064Y2146*
X2063Y2146*
X2062Y2147*
X2061Y2147*
X2060Y2147*
X2053*
X2052Y2147*
X2051Y2147*
X2050Y2146*
X2049Y2146*
X2049Y2145*
X2049Y2145*
X2047Y2145*
X2045Y2145*
X2045Y2145*
X2044Y2146*
X2043Y2146*
X2043Y2147*
X2042Y2147*
X2041Y2147*
X2033*
X2032Y2147*
X2031Y2147*
X2030Y2146*
X2030Y2146*
X2029Y2145*
X2029Y2145*
X2027Y2145*
X2025Y2145*
X2025Y2145*
X2025Y2146*
X2024Y2146*
X2023Y2147*
X2022Y2147*
X2021Y2147*
X2014*
X2013Y2147*
X2012Y2147*
X2010Y2148*
X2009Y2150*
X2009Y2150*
X2009Y2151*
Y2159*
X2009Y2160*
X2009Y2161*
X2008Y2162*
X2008Y2162*
X2008Y2163*
X2007Y2163*
X2007Y2165*
X2007Y2167*
X2008Y2167*
X2008Y2167*
X2008Y2168*
X2009Y2169*
X2009Y2170*
X2009Y2171*
Y2178*
X2009Y2179*
X2009Y2180*
X2008Y2181*
X2008Y2182*
X2008Y2182*
X2007Y2183*
X2007Y2185*
X2007Y2187*
X2008Y2187*
X2008Y2187*
X2008Y2188*
X2009Y2189*
X2009Y2190*
X2009Y2191*
Y2198*
X2009Y2199*
X2009Y2200*
X2008Y2201*
X2008Y2202*
X2007Y2202*
X2006Y2203*
X2005Y2203*
X2004Y2203*
X1974*
X1973Y2203*
X1972Y2203*
X1971Y2202*
X1971Y2202*
X1907*
X1907Y2203*
X1906Y2204*
Y2227*
X1906Y2228*
X1905Y2230*
X1905Y2231*
X1904Y2232*
X1897Y2239*
Y2505*
X1898Y2506*
X1899Y2507*
X1900Y2508*
X1901Y2510*
X1905Y2509*
G37*
G54D18*
X1705Y1944D03*
X1743D03*
X1902D03*
X1940D03*
X2099D03*
X2137D03*
X2296D03*
X2333D03*
X2492D03*
X2530D03*
X2689D03*
X2727D03*
X2886D03*
X2924D03*
X3083D03*
X3121D03*
G54D20*
X1488Y1294D03*
Y1334D03*
X1385Y1294D03*
Y1334D03*
X1287Y1294D03*
Y1334D03*
X3157Y1173D03*
Y1133D03*
X2968Y1173D03*
Y1133D03*
X3031Y1173D03*
Y1133D03*
X3094Y1173D03*
Y1133D03*
G54D23*
X2137Y2278D03*
Y2240D03*
X2940Y2221D03*
Y2259D03*
G54D87*
X1984Y2464D02*
Y2640D01*
X1976Y2456D02*
X1984Y2464D01*
X2410Y2479D02*
Y2696D01*
X2555Y2334D02*
X2818D01*
X2410Y2479D02*
X2555Y2334D01*
X2542Y2314D02*
X2804D01*
X2390Y2466D02*
Y2687D01*
Y2466D02*
X2542Y2314D01*
X2370Y2455D02*
Y2677D01*
X2530Y2295D02*
X2792D01*
X2370Y2455D02*
X2530Y2295D01*
X2315Y2791D02*
X2410Y2696D01*
X2312Y2765D02*
X2390Y2687D01*
X2307Y2740D02*
X2370Y2677D01*
X2304Y2711D02*
X2349Y2666D01*
Y2443D02*
X2521Y2271D01*
X2349Y2443D02*
Y2666D01*
X2249Y2791D02*
X2315D01*
X2261Y2765D02*
X2312D01*
X2274Y2740D02*
X2307D01*
X2273Y2739D02*
X2274Y2740D01*
X2249Y2711D02*
X2304D01*
X1562Y3086D02*
X1696D01*
X1795Y2988D02*
X1921D01*
X1696Y3086D02*
X1795Y2988D01*
X2521Y2271D02*
X2787D01*
X1515Y1417D02*
X1617Y1315D01*
X1515Y2322D02*
X1877Y2685D01*
X1515Y1417D02*
Y2322D01*
X3047Y2444D02*
X3070Y2421D01*
X2547Y2444D02*
X3047D01*
X2066Y2622D02*
X2141D01*
X2244Y2519*
X1617Y1241D02*
Y1315D01*
X2818Y2334D02*
X2881Y2271D01*
X2804Y2314D02*
X2850Y2269D01*
X2792Y2295D02*
X2817Y2270D01*
X2824Y2263*
X1326Y2795D02*
Y2909D01*
X944Y2413D02*
X1326Y2795D01*
Y2909D02*
X1543Y3125D01*
X1708*
X1350Y2783D02*
Y2905D01*
X1551Y3106D02*
X1700D01*
X1350Y2905D02*
X1551Y3106D01*
X1374Y2771D02*
Y2897D01*
X1562Y3086*
X1708Y3125D02*
X1807Y3027D01*
X1700Y3106D02*
X1799Y3007D01*
X1905*
X1807Y3027D02*
X1893D01*
X1996Y3062D02*
Y3090D01*
X1921Y2988D02*
X1996Y3062D01*
X1003Y2401D02*
X1374Y2771D01*
X1968Y3070D02*
Y3094D01*
X1905Y3007D02*
X1968Y3070D01*
X980Y2413D02*
X1350Y2783D01*
X1940Y3074D02*
Y3102D01*
X1893Y3027D02*
X1940Y3074D01*
X1940Y3101D02*
X1940Y3102D01*
X1992Y2685D02*
X2118Y2811D01*
X1877Y2685D02*
X1992D01*
X944Y2224D02*
Y2413D01*
X937Y2165D02*
X980Y2208D01*
Y2413*
X937Y2003D02*
Y2165D01*
X970Y2129D02*
Y2159D01*
X1003Y2192D02*
Y2401D01*
X970Y2159D02*
X1003Y2192D01*
X1976Y2334D02*
Y2456D01*
Y2334D02*
X1988Y2322D01*
X1954Y2329D02*
Y2471D01*
X1960Y2477D02*
Y2622D01*
X1954Y2471D02*
X1960Y2477D01*
X1954Y2329D02*
X1976Y2307D01*
X1913Y2314D02*
X1956Y2271D01*
X1913Y2314D02*
Y2622D01*
X2972Y1228D02*
Y1389D01*
X3171Y1588D02*
Y2123D01*
X2972Y1389D02*
X3171Y1588D01*
X3149Y2145D02*
X3171Y2123D01*
X2972Y1228D02*
X3000Y1200D01*
Y1086D02*
Y1200D01*
Y1086D02*
X3031Y1055D01*
X1976Y2307D02*
X2039D01*
X1988Y2322D02*
X2059D01*
X2062Y2272D02*
X2062Y2271D01*
X2039Y2307D02*
X2062Y2284D01*
Y2272D02*
Y2284D01*
X2094Y2271D02*
Y2287D01*
X2059Y2322D02*
X2094Y2287D01*
X1956Y2271D02*
X2000D01*
X2881D02*
D01*
X2787D02*
D01*
X2017Y2242D02*
Y2253D01*
X2000Y2271D02*
X2017Y2253D01*
X2057Y2242D02*
Y2263D01*
X2062Y2269*
Y2271*
X2076Y2242D02*
Y2253D01*
X2094Y2271*
X2805Y2242D02*
Y2253D01*
X2787Y2271D02*
X2805Y2253D01*
X2824Y2242D02*
Y2263D01*
X2864Y2242D02*
Y2253D01*
X2881Y2271*
X2844Y2242D02*
Y2263D01*
X2850Y2269*
X3157Y1173D02*
Y1192D01*
X3094Y1173D02*
Y1192D01*
X3031Y1173D02*
Y1192D01*
X2968Y1173D02*
Y1192D01*
X3031Y1114D02*
Y1133D01*
Y1114D02*
D01*
X3157D02*
Y1133D01*
Y1114D02*
D01*
X3094D02*
Y1133D01*
Y1114D02*
D01*
X2968D02*
Y1133D01*
Y1114D02*
D01*
G54D88*
X2115Y2240D02*
X2129D01*
X2107Y2232D02*
X2115Y2240D01*
X2106Y2232D02*
X2107D01*
X2106Y2215D02*
Y2232D01*
X1988Y2215D02*
Y2232D01*
G54D89*
X2021Y2789D02*
Y2796D01*
X2088Y2863*
X1956Y2724D02*
X2021Y2789D01*
X1937Y2318D02*
Y2640D01*
X2854Y2914D02*
X2883Y2885D01*
X2840Y2914D02*
X2854D01*
X2794Y2960D02*
X2840Y2914D01*
X2433Y2960D02*
X2794D01*
X2473Y2889D02*
X2509D01*
X2011Y3000D02*
X2363D01*
X2473Y2889*
X1573Y3231D02*
X1600D01*
X1572D02*
X1573D01*
X1600D02*
X1612Y3244D01*
X1637*
X1535Y2547D02*
X1547Y2559D01*
Y2578*
X1507Y2570D02*
X1728Y2791D01*
X1547Y2578D02*
X1740Y2771D01*
X1913*
X1728Y2791D02*
X1889D01*
X1708Y2807D02*
X1866D01*
X1480Y2578D02*
X1708Y2807D01*
X2923Y2216D02*
X3129D01*
X1317Y1403D02*
X1397Y1484D01*
Y2295*
X1846Y2744*
X1476Y1417D02*
X1517Y1376D01*
X1476Y2314D02*
X1866Y2704D01*
X1476Y1417D02*
Y2314D01*
X1555Y1448D02*
X1717Y1286D01*
X1555Y2330D02*
X1889Y2665D01*
X1555Y1448D02*
Y2330D01*
X2291Y2098D02*
Y2559D01*
X1717Y1241D02*
Y1286D01*
X1866Y2704D02*
X1972D01*
X1517Y1244D02*
Y1376D01*
X1437Y1421D02*
Y2303D01*
X1858Y2724*
X1417Y1401D02*
X1437Y1421D01*
X1992Y3023D02*
X2370D01*
X2433Y2960*
X1952Y2940D02*
X2011Y3000D01*
X1933Y2964D02*
X1992Y3023D01*
X1317Y1242D02*
Y1403D01*
X1417Y1241D02*
Y1401D01*
X1488Y1273D02*
Y1294D01*
Y1273D02*
X1517Y1244D01*
X1385Y1273D02*
Y1294D01*
Y1273D02*
X1417Y1241D01*
X1287Y1272D02*
Y1294D01*
Y1272D02*
X1317Y1242D01*
Y1241D02*
Y1242D01*
X1517Y1241D02*
Y1244D01*
X1913Y2771D02*
X2062Y2921D01*
X1889Y2791D02*
X2027Y2929D01*
X1866Y2807D02*
X1988Y2929D01*
X1783Y3098D02*
X1885D01*
X1637Y3244D02*
X1783Y3098D01*
X1944Y2744D02*
X2090Y2889D01*
X1846Y2744D02*
X1944D01*
X1858Y2724D02*
X1956D01*
X1972Y2704D02*
X2106Y2838D01*
X2011Y2665D02*
X2129Y2783D01*
X1889Y2665D02*
X2011D01*
X2090Y2889D02*
X2114D01*
X1700Y2098D02*
Y2346D01*
X1763Y2409D02*
Y2460D01*
X1700Y2346D02*
X1763Y2409D01*
X3188Y1570D02*
Y2157D01*
X2996Y1255D02*
Y1377D01*
X3188Y1570*
X2094Y3078D02*
X2141D01*
X1989Y2194D02*
D01*
X1897D02*
X1898Y2195D01*
Y2227*
X1897Y2194D02*
X1989D01*
X1889Y2236D02*
X1898Y2227D01*
X1842Y2098D02*
X1871Y2127D01*
X1700Y2098D02*
X1842D01*
X1871Y2127D02*
X2017D01*
X2685Y2098D02*
X2746D01*
X2775Y2127D02*
X2805D01*
X2746Y2098D02*
X2775Y2127D01*
X3129Y2216D02*
X3188Y2157D01*
X2996Y1255D02*
X3066Y1185D01*
Y1082D02*
Y1185D01*
Y1082D02*
X3094Y1055D01*
X2940Y2259D02*
X2940Y2259D01*
X2921Y2259D02*
X2921Y2259D01*
X2928Y2221D02*
X2940D01*
X2923Y2216D02*
X2928Y2221D01*
X2921Y2216D02*
X2923D01*
X2892Y2214D02*
X2893Y2215D01*
X2920*
X2921Y2216*
X1964Y2291D02*
X2023D01*
X2030Y2272D02*
X2031Y2271D01*
X2030Y2272D02*
Y2284D01*
X2023Y2291D02*
X2030Y2284D01*
X2031Y2268D02*
Y2271D01*
X1937Y2318D02*
X1964Y2291D01*
X1889Y2236D02*
Y2515D01*
X2037Y2242D02*
Y2263D01*
X2031Y2268D02*
X2037Y2263D01*
X2192Y2157D02*
Y2401D01*
X2892Y2155D02*
X2970D01*
X3027Y2098D02*
X3078D01*
X2970Y2155D02*
X3027Y2098D01*
X2488D02*
X2543D01*
X2639Y2194D02*
X2777D01*
X2543Y2098D02*
X2639Y2194D01*
X2143Y2155D02*
X2145Y2157D01*
X2192*
X2104Y2155D02*
X2143D01*
X2062Y2098D02*
X2291D01*
X2057Y2104D02*
Y2127D01*
Y2104D02*
X2062Y2098D01*
X2850D02*
X2881D01*
X2844Y2104D02*
Y2127D01*
Y2104D02*
X2850Y2098D01*
G54D90*
X2824Y2097D02*
D01*
Y2127*
X2006Y2214D02*
X2007Y2213D01*
X2018D02*
X2047Y2185D01*
X1989Y2214D02*
X2006D01*
X2007Y2213D02*
X2018D01*
X2892Y2194D02*
X2918D01*
X2928Y2185*
X2794Y2214D02*
X2795Y2213D01*
X2806*
X2752Y2214D02*
X2794D01*
X2806Y2213D02*
X2834Y2185D01*
X2864Y2125D02*
X2913D01*
X2076D02*
Y2127D01*
Y2125D02*
X2090D01*
X2141Y3307D02*
X2153Y3295D01*
Y3181D02*
Y3295D01*
X2055Y3082D02*
X2153Y3181D01*
X2037Y2097D02*
Y2127D01*
X2104Y2194D02*
X2133D01*
X2750Y2216D02*
X2752Y2214D01*
X2748Y2216D02*
X2750D01*
X2748Y2155D02*
X2777D01*
X2748D02*
D01*
X2864Y2125D02*
Y2127D01*
X1964Y2155D02*
X1989D01*
X1962Y2153D02*
X1964Y2155D01*
X1960Y2153D02*
X1962D01*
X1988Y2215D02*
X1989Y2214D01*
X2104D02*
X2105D01*
X2106Y2215*
G54D91*
X1070Y2070D02*
X1114Y2027D01*
X1070Y2397D02*
X1110Y2437D01*
X1070Y2070D02*
Y2397D01*
X1114Y1944D02*
Y2027D01*
X1169Y1889D02*
X1204D01*
X1114Y1944D02*
X1169Y1889D01*
X1110Y2437D02*
X1177D01*
X3121Y1923D02*
Y1944D01*
Y1923D02*
X3154Y1889D01*
X2924Y1923D02*
Y1944D01*
Y1923D02*
X2957Y1889D01*
X2727Y1923D02*
Y1944D01*
Y1923D02*
X2760Y1889D01*
X2530Y1923D02*
Y1944D01*
Y1923D02*
X2563Y1889D01*
X2333Y1923D02*
Y1944D01*
Y1923D02*
X2367Y1889D01*
X2137Y1923D02*
Y1944D01*
Y1923D02*
X2170Y1889D01*
X1940Y1923D02*
Y1944D01*
Y1923D02*
X1973Y1889D01*
X1743Y1923D02*
Y1944D01*
Y1923D02*
X1776Y1889D01*
X1681Y1944D02*
X1705D01*
X1677Y1948D02*
X1681Y1944D01*
X1877D02*
X1902D01*
X1874Y1948D02*
X1877Y1944D01*
X2074D02*
X2099D01*
X2070Y1948D02*
X2074Y1944D01*
X2271D02*
X2296D01*
X2267Y1948D02*
X2271Y1944D01*
X2468D02*
X2492D01*
X2464Y1948D02*
X2468Y1944D01*
X2665D02*
X2689D01*
X2661Y1948D02*
X2665Y1944D01*
X2862D02*
X2886D01*
X2858Y1948D02*
X2862Y1944D01*
X3059D02*
X3083D01*
X3055Y1948D02*
X3059Y1944D01*
G54D93*
X1287Y1334D02*
Y1358D01*
X1385Y1334D02*
Y1358D01*
X1488Y1334D02*
Y1358D01*
X1929Y2003D02*
X2125D01*
X1765D02*
X1929D01*
X1931Y1972D02*
Y2001D01*
X1929Y2003D02*
X1931Y2001D01*
X2125Y2003D02*
X2322D01*
X2127Y1972D02*
Y2001D01*
X2125Y2003D02*
X2127Y2001D01*
X2322Y2003D02*
X2523D01*
X2324Y1972D02*
Y2001D01*
X2322Y2003D02*
X2324Y2001D01*
X2523Y2003D02*
X2716D01*
X2521Y1972D02*
Y2001D01*
X2523Y2003*
X2716D02*
X2913D01*
X2718Y1972D02*
Y2001D01*
X2716Y2003D02*
X2718Y2001D01*
X2913Y2003D02*
X3080D01*
X2915Y1972D02*
Y2001D01*
X2913Y2003D02*
X2915Y2001D01*
X3080Y2003D02*
X3112Y1972D01*
X1734D02*
X1765Y2003D01*
X2921Y2259D02*
X2940D01*
G54D94*
X1118Y2232D02*
X1169D01*
X1118Y2132D02*
Y2232D01*
X1116Y2130D02*
X1118Y2132D01*
X1116Y2129D02*
Y2130D01*
G54D96*
X3080Y3159D03*
Y3257D03*
X1023Y2933D03*
Y3031D03*
Y3129D03*
G54D97*
X3080Y3356D03*
X1023Y2834D03*
G54D98*
X1003Y3385D03*
X2755Y3106D03*
X3102Y1318D03*
X1003Y1102D03*
G54D99*
X1317Y1141D03*
G54D100*
X1317Y1241D03*
X1417Y1141D03*
Y1241D03*
X1517Y1141D03*
Y1241D03*
X1617Y1141D03*
Y1241D03*
X1717Y1141D03*
Y1241D03*
G54D101*
X2834Y2185D03*
X2047D03*
X964Y1714D03*
G54D102*
X964Y1614D03*
Y1514D03*
G54D103*
X2118Y3267D03*
Y3347D03*
X1818Y3307D03*
G54D104*
X1818Y3407D03*
X2043Y3207D03*
Y3407D03*
X1818Y3207D03*
G54D105*
X1673Y3366D03*
X1573D03*
X2874Y1061D03*
X2774Y1161D03*
Y1061D03*
X2674Y1161D03*
Y1061D03*
X2574Y1161D03*
Y1061D03*
X2474Y1161D03*
Y1061D03*
X2374Y1161D03*
Y1061D03*
X2274Y1161D03*
Y1061D03*
X2174Y1161D03*
Y1061D03*
X2074Y1161D03*
Y1061D03*
G54D106*
X1473Y3366D03*
X2874Y1161D03*
G54D107*
X2551Y2720D03*
X2519Y2740D03*
X2582D03*
X2551Y2759D03*
X2925Y2720D03*
X2893Y2740D03*
X2956D03*
X2925Y2759D03*
G54D108*
X2824Y2097D03*
Y2066D03*
X1846Y3063D03*
X2088Y2863D03*
X1984Y2640D03*
X1937D03*
X2883Y2885D03*
X2928Y2185D03*
X2261Y2765D03*
X2249Y2791D03*
X2273Y2739D03*
X2249Y2711D03*
X2485Y2920D03*
X2468Y2819D03*
X2433D03*
X2485Y2849D03*
X2509Y2889D03*
X2251D03*
X1573Y3231D03*
X1468Y3251D03*
X2137Y2295D03*
X1181Y1748D03*
X1574Y2814D03*
X1661D03*
X1740Y3007D03*
X2433Y2732D03*
X2807D03*
X2657Y3051D03*
X2608D03*
X2559D03*
X2608Y3100D03*
X2657D03*
X2608Y3151D03*
X2657D03*
X1433Y2708D03*
X1460D03*
X1535Y2547D03*
X1507Y2570D03*
X1606Y2598D03*
X1220Y2283D03*
X3141Y2952D03*
Y3001D03*
X3090D03*
Y2952D03*
X2704Y3232D03*
X2805Y3200D03*
Y3250D03*
X2559Y3151D03*
X2509D03*
X2460D03*
Y3200D03*
X2509D03*
Y3250D03*
X2460D03*
X2165Y2214D03*
Y2263D03*
X2125Y2322D03*
X1870Y2411D03*
X1820D03*
X1879Y2627D03*
X2027Y2637D03*
X2116Y2647D03*
Y2716D03*
Y2952D03*
X2185Y2972D03*
X1919Y2903D03*
X1860Y2844D03*
X3001Y1870D03*
X2805D03*
X2608D03*
X2411D03*
X2214D03*
X2017D03*
X1820D03*
Y1919D03*
X2017D03*
X2214D03*
X2411D03*
X2608D03*
X3001D03*
X2805D03*
X1840Y2066D03*
X2037D03*
X2234D03*
X2431D03*
X2627D03*
X3021D03*
X3100Y2253D03*
X1564Y3051D03*
Y3001D03*
Y2952D03*
X1525D03*
X1476D03*
X1525Y3001D03*
X1968Y3444D03*
X1919D03*
X1968Y3395D03*
X2165D03*
Y3444D03*
X2116D03*
Y3395D03*
X2531Y2920D03*
X2657Y2755D03*
X2706D03*
X3188Y2362D03*
Y2411D03*
Y2460D03*
Y2509D03*
Y2559D03*
Y2608D03*
Y2657D03*
Y2706D03*
Y2755D03*
X3100Y2805D03*
X3149D03*
X3188D03*
Y2854D03*
Y2903D03*
Y2952D03*
Y3001D03*
X3100Y2706D03*
X3149D03*
Y2657D03*
Y2608D03*
X3001Y2263D03*
X2952Y2312D03*
X3051Y2391D03*
X3149Y2293D03*
X3100Y2342D03*
X3149Y2411D03*
Y2460D03*
X3051Y2470D03*
X3001D03*
X3100D03*
X2706D03*
X2755D03*
X2805D03*
X2854D03*
X2903D03*
Y2509D03*
X2854D03*
X2805D03*
X2755Y2608D03*
Y2657D03*
X2805D03*
X2755Y2706D03*
Y2755D03*
X3001D03*
X3051D03*
X3100D03*
X3149D03*
X3051Y3001D03*
Y2952D03*
X2913Y2928D03*
X2312Y3149D03*
X2362D03*
X2411D03*
X2559Y3100D03*
X2509D03*
X2460D03*
X2411D03*
X2362D03*
X2312D03*
X2263D03*
X2214D03*
X2165D03*
Y3051D03*
X2214D03*
X2263D03*
X2312D03*
X2362D03*
X2411D03*
X2460D03*
X2509D03*
Y3001D03*
X2460D03*
X2362Y2952D03*
X2312Y2903D03*
X2368Y2826D03*
X2411Y2854D03*
Y2903D03*
X2362D03*
X2244Y2657D03*
Y2559D03*
Y2608D03*
X2322D03*
Y2559D03*
Y2509D03*
Y2480D03*
X2214Y2381D03*
X2263Y2332D03*
X2312D03*
X2362D03*
X2411D03*
X2706Y2214D03*
X2509Y2165D03*
X2559D03*
X2608Y2214D03*
X2559D03*
X2509D03*
X2411D03*
Y2165D03*
X2362D03*
Y2214D03*
X2312D03*
Y2165D03*
X2263D03*
X2214Y2214D03*
X2263D03*
Y2263D03*
X2312D03*
X2362D03*
X2460D03*
X2411D03*
X2942Y1062D03*
Y1151D03*
Y1279D03*
Y1210D03*
X3179Y1240D03*
Y1397D03*
X1870Y1181D03*
X1919Y1131D03*
Y1082D03*
Y1033D03*
X1968D03*
X1328Y1820D03*
X1377D03*
X1574Y1938D03*
Y1860D03*
Y1820D03*
Y1771D03*
Y1722D03*
Y1673D03*
Y1624D03*
Y1574D03*
Y1525D03*
Y1476D03*
X1624Y1427D03*
X1673Y1279D03*
Y1181D03*
Y1377D03*
X1722Y1328D03*
X1771Y1279D03*
X1820Y1230D03*
Y1181D03*
X1771D03*
Y1230D03*
X1870Y1131D03*
Y1082D03*
Y1033D03*
X1820D03*
X1131D03*
X1181D03*
X1230D03*
X1279D03*
X1328D03*
X1377D03*
X1427D03*
X1476D03*
X1525D03*
X1574D03*
X1624D03*
X1673D03*
X1722D03*
X1771D03*
Y1082D03*
X1820D03*
Y1131D03*
X1771D03*
X1722Y1082D03*
X1673D03*
X1624D03*
X1574D03*
X1525D03*
X1476D03*
X1427D03*
X1377D03*
X1328D03*
X1279D03*
X1230D03*
X1181D03*
X1131D03*
Y1131D03*
X1181D03*
X1230D03*
X1279Y1427D03*
X1230D03*
X1131D03*
X1181D03*
X1131Y1377D03*
X1181D03*
X1230D03*
Y1328D03*
Y1279D03*
Y1181D03*
Y1230D03*
X1181Y1181D03*
X1131D03*
Y1230D03*
X1181D03*
X1131Y1279D03*
X1181D03*
Y1328D03*
X1131D03*
X935Y1181D03*
X1082D03*
X935Y1230D03*
X984D03*
X1033D03*
X1082D03*
Y1279D03*
X1033D03*
X984D03*
X935D03*
Y1328D03*
X984D03*
X1033D03*
X1082D03*
Y1377D03*
X1033D03*
X984D03*
X935D03*
Y1427D03*
X984D03*
X1082D03*
X1033D03*
Y1476D03*
X1082D03*
X1131D03*
X1181D03*
X1230D03*
X1279D03*
X1328D03*
X1377Y1525D03*
X1328D03*
X1279D03*
X1230D03*
X1181D03*
X1131D03*
X1082D03*
X1033D03*
Y1574D03*
X1082D03*
X1131D03*
X1181D03*
X1230Y1624D03*
Y1574D03*
X1279Y1584D03*
X1328Y1574D03*
X1377D03*
Y1624D03*
X1328D03*
X1279D03*
Y1673D03*
X1082Y1968D03*
X935D03*
X984Y1919D03*
X935D03*
Y1870D03*
Y1820D03*
X984D03*
Y1870D03*
X1033D03*
Y1820D03*
X1377Y1673D03*
X1328D03*
Y1722D03*
X1377D03*
Y1771D03*
X1328D03*
X1377Y1860D03*
X1328D03*
X1377Y1938D03*
X1328D03*
X1230Y2017D03*
Y2066D03*
Y2116D03*
Y2165D03*
Y2214D03*
X1279D03*
Y2165D03*
Y2116D03*
Y2017D03*
Y2066D03*
X1328D03*
Y2017D03*
X1377D03*
Y2066D03*
Y2116D03*
X1328Y2165D03*
Y2116D03*
X1574Y2066D03*
Y2017D03*
X1673D03*
X1624D03*
Y2066D03*
X1948Y2214D03*
X1870Y2165D03*
X1820D03*
X1771D03*
X1722D03*
Y2214D03*
X1870D03*
X1820D03*
X1771D03*
Y2263D03*
X1820D03*
X1919D03*
X1870D03*
Y2312D03*
X1820D03*
X1771Y2362D03*
Y2312D03*
X1722D03*
Y2263D03*
X1673Y2165D03*
Y2214D03*
Y2263D03*
Y2312D03*
Y2362D03*
X1722Y2411D03*
X1673D03*
X1624Y2362D03*
X1574Y2312D03*
Y2263D03*
Y2214D03*
Y2165D03*
X1624D03*
Y2214D03*
Y2263D03*
Y2312D03*
X1082Y3051D03*
X1131D03*
X1181D03*
X1230D03*
X1279D03*
X1328D03*
X1377D03*
X1338Y3238D03*
Y3454D03*
X1427Y3444D03*
X1476D03*
X1525D03*
X1574D03*
X1624D03*
X1673D03*
X1722D03*
X1525Y3297D03*
Y3248D03*
X1722Y3198D03*
X1673Y3179D03*
X1574D03*
X1525D03*
X1624D03*
X1771Y3297D03*
X1722Y3248D03*
Y3297D03*
X1624D03*
X1673D03*
Y3248D03*
X1230Y3346D03*
X1181D03*
Y3395D03*
X1230D03*
Y3444D03*
X1181D03*
X1131D03*
Y3395D03*
Y3346D03*
Y3297D03*
X1082D03*
X984Y3248D03*
X935D03*
X1033D03*
X1082D03*
X1131D03*
X1181Y3297D03*
X1230D03*
Y3248D03*
X1181D03*
X1476Y3149D03*
Y3198D03*
X1427D03*
X1377D03*
X1328D03*
X1279D03*
X1230D03*
X1181D03*
Y3149D03*
X1230D03*
X1279D03*
X1328D03*
X1377D03*
X1427D03*
Y3100D03*
X1377D03*
X1328D03*
X1279D03*
X1230D03*
X1181D03*
X1082Y2982D03*
X1131D03*
X1328D03*
X1279D03*
X1230D03*
X1181D03*
X935Y2903D03*
X1082D03*
X1131D03*
X1279D03*
X1230D03*
X1181D03*
X1525Y2755D03*
X1476D03*
X1427D03*
X1377Y2706D03*
X1328Y2509D03*
Y2362D03*
Y2411D03*
Y2460D03*
X1377D03*
Y2362D03*
Y2411D03*
X1427Y2362D03*
Y2411D03*
X1624Y2559D03*
X1574Y2509D03*
Y2559D03*
X1525Y2657D03*
X1476D03*
Y2608D03*
X1427D03*
Y2559D03*
Y2509D03*
X1377D03*
Y2559D03*
X1230D03*
X1279Y2608D03*
X1328Y2657D03*
X935Y2755D03*
X984D03*
X1033D03*
X1082D03*
X1131D03*
X1230D03*
X1181D03*
Y2706D03*
X935D03*
X984D03*
X1033D03*
X1082D03*
X1131D03*
X1033Y2608D03*
X984Y2559D03*
Y2608D03*
X935D03*
Y2559D03*
Y2509D03*
Y2460D03*
X984Y2509D03*
X1033Y2559D03*
X1082Y2608D03*
X1131Y2657D03*
X1082D03*
X1033D03*
X984D03*
X935D03*
X1102Y3129D03*
X1078D03*
X3090Y2614D03*
Y2645D03*
X2716D03*
Y2614D03*
X2066Y2622D03*
X2244Y2519D03*
X2291Y2559D03*
X2547Y2444D03*
X3070Y2421D03*
X1822Y2870D03*
X1157Y2125D03*
X1190D03*
X1116Y2129D03*
X1287Y1358D03*
X1385D03*
X1488D03*
X2062Y2921D03*
X2027Y2929D03*
X1988D03*
X1952Y2940D03*
X1933Y2964D03*
X1480Y2578D03*
X1940Y3102D03*
X1968Y3094D03*
X1996Y3090D03*
X1885Y3098D03*
X1763Y2460D03*
X1787Y2724D03*
X2114Y2889D03*
X2106Y2838D03*
X2118Y2811D03*
X2129Y2783D03*
X944Y2224D03*
X1960Y2622D03*
X1913D03*
X1279Y1980D03*
X1181Y1948D03*
X1045Y2129D03*
X1007D03*
X937Y2003D03*
X970Y2129D03*
X2106Y2232D03*
X2303Y3377D03*
Y3279D03*
X2185Y3326D03*
X2208D03*
X2232D03*
X2255D03*
X2279D03*
X2303Y3303D03*
Y3350D03*
Y3326D03*
X1204Y1968D03*
X1118Y2232D03*
X1296Y3346D03*
X1889Y3244D03*
X2055Y3082D03*
X2094Y3078D03*
X2141D03*
X1177Y2437D03*
X1078Y1830D03*
X1145D03*
X2037Y2097D03*
X2133Y2194D03*
X1897D03*
X2748Y2155D03*
X2090Y2125D03*
X1960Y2153D03*
X2913Y2125D03*
X1318Y2267D03*
X1220Y2307D03*
X1240Y2389D03*
X1169Y2232D03*
X1098Y2311D03*
Y2334D03*
X1204Y1889D03*
X3149Y2145D03*
X2748Y2216D03*
X3031Y1055D03*
X3185Y1031D03*
X3094Y1055D03*
X2562Y2602D03*
Y2578D03*
Y2555D03*
X2937Y2598D03*
Y2574D03*
Y2551D03*
X2905Y2330D03*
X2881Y2354D03*
X2850D03*
X2826D03*
X2094Y2346D03*
X2062D03*
X2031D03*
X2000D03*
X1988Y2232D03*
X2094Y2271D03*
X2062D03*
X2031D03*
X2000D03*
X2192Y2401D03*
X2881Y2271D03*
X2850D03*
X2818D03*
X2787D03*
X1799Y2472D03*
Y2503D03*
X2086Y2523D03*
X2129D03*
X2291Y2098D03*
X2192Y2157D03*
X1889Y2515D03*
X1814Y3059D03*
X1720Y2956D03*
X1669Y2976D03*
X2070Y2472D03*
X2141D03*
Y2503D03*
X2070D03*
X2232Y2944D03*
X1149Y2488D03*
X1700Y2098D03*
X2488D03*
X2685D03*
X2881D03*
X3078D03*
X2559Y1980D03*
X1734Y1972D03*
X1931D03*
X2127D03*
X2324D03*
X2521D03*
X2718D03*
X3112D03*
X2915D03*
X3149Y1980D03*
X2952D03*
X2755D03*
X2362D03*
X2165D03*
X1968D03*
X1771D03*
X1677Y1948D03*
X1874D03*
X2070D03*
X2267D03*
X2464D03*
X2661D03*
X2858D03*
X3055D03*
X1803Y1972D03*
X2000D03*
X2196D03*
X2393D03*
X2590D03*
X2787D03*
X2984D03*
X3154Y1889D03*
X3050D03*
X2957D03*
X2853D03*
X2760D03*
X2656D03*
X2563D03*
X2459D03*
X2367D03*
X2262D03*
X2170D03*
X2065D03*
X1973D03*
X1869D03*
X1672D03*
X1776D03*
X2562Y2653D03*
X2937D03*
X2141Y3307D03*
X1893Y3385D03*
X2082Y3259D03*
X2303Y3446D03*
X2224D03*
X2921Y2259D03*
Y2216D03*
X2870Y2681D03*
X2496D03*
X2692Y2811D03*
X2688Y2681D03*
Y2712D03*
X2472Y2732D03*
X2846D03*
X1535Y2811D03*
Y2858D03*
Y2834D03*
X1653Y2645D03*
X1685D03*
X1858Y2527D03*
X2250Y2967D03*
X2283Y2968D03*
X2338Y2811D03*
Y2842D03*
X2314Y2968D03*
X2283Y2889D03*
X2468Y2629D03*
X2448Y2614D03*
X2759Y2511D03*
Y2566D03*
Y2539D03*
X2842Y2629D03*
X2822Y2614D03*
X3133Y2511D03*
Y2566D03*
Y2539D03*
X3062Y2681D03*
Y2712D03*
X3149Y2850D03*
Y2905D03*
Y2877D03*
X3066Y2811D03*
X2775Y2850D03*
Y2905D03*
Y2877D03*
X1952Y3251D03*
X1918Y3362D03*
X2251Y3125D03*
X2196D03*
X2224D03*
X2759Y3232D03*
X2732D03*
X3157Y1192D03*
X3094D03*
X3031D03*
X2968D03*
X3157Y1114D03*
X3094D03*
X3031D03*
X2968D03*
G54D109*
X2892Y2214D03*
Y2194D03*
Y2175D03*
Y2155D03*
X2777D03*
Y2175D03*
Y2194D03*
Y2214D03*
X2104D03*
Y2194D03*
Y2175D03*
Y2155D03*
X1989D03*
Y2175D03*
Y2194D03*
Y2214D03*
G54D110*
X2864Y2127D03*
X2844D03*
X2824D03*
X2805D03*
Y2242D03*
X2824D03*
X2844D03*
X2864D03*
X2076Y2127D03*
X2057D03*
X2037D03*
X2017D03*
Y2242D03*
X2037D03*
X2057D03*
X2076D03*
M02*