%FSLAX23Y23*%
%MOIN*%
%SFA1B1*%

%IPPOS*%
%AMD109*
4,1,8,-0.015000,-0.004900,0.015000,-0.004900,0.016200,-0.003700,0.016200,0.003700,0.015000,0.004900,-0.015000,0.004900,-0.016200,0.003700,-0.016200,-0.003700,-0.015000,-0.004900,0.0*
1,1,0.002460,-0.015000,-0.003700*
1,1,0.002460,0.015000,-0.003700*
1,1,0.002460,0.015000,0.003700*
1,1,0.002460,-0.015000,0.003700*
%
%AMD110*
4,1,8,-0.003700,-0.016200,0.003700,-0.016200,0.004900,-0.015000,0.004900,0.015000,0.003700,0.016200,-0.003700,0.016200,-0.004900,0.015000,-0.004900,-0.015000,-0.003700,-0.016200,0.0*
1,1,0.002460,-0.003700,-0.015000*
1,1,0.002460,0.003700,-0.015000*
1,1,0.002460,0.003700,0.015000*
1,1,0.002460,-0.003700,0.015000*
%
%AMD113*
4,1,8,-0.010200,-0.013600,0.010200,-0.013600,0.013600,-0.010200,0.013600,0.010200,0.010200,0.013600,-0.010200,0.013600,-0.013600,0.010200,-0.013600,-0.010200,-0.010200,-0.013600,0.0*
1,1,0.006800,-0.010200,-0.010200*
1,1,0.006800,0.010200,-0.010200*
1,1,0.006800,0.010200,0.010200*
1,1,0.006800,-0.010200,0.010200*
%
%ADD18R,0.019680X0.020470*%
%ADD20R,0.022000X0.020000*%
%ADD23R,0.020470X0.019680*%
%ADD101R,0.066930X0.066930*%
G04~CAMADD=109~8~0.0~0.0~324.8~98.4~12.3~0.0~15~0.0~0.0~0.0~0.0~0~0.0~0.0~0.0~0.0~0~0.0~0.0~0.0~180.0~324.0~98.0*
%ADD109D109*%
G04~CAMADD=110~8~0.0~0.0~98.4~324.8~12.3~0.0~15~0.0~0.0~0.0~0.0~0~0.0~0.0~0.0~0.0~0~0.0~0.0~0.0~180.0~98.0~324.0*
%ADD110D110*%
G04~CAMADD=113~8~0.0~0.0~271.7~271.7~34.0~0.0~15~0.0~0.0~0.0~0.0~0~0.0~0.0~0.0~0.0~0~0.0~0.0~0.0~180.0~272.0~272.0*
%ADD113D113*%
%LNbenchy-voltmeter-pcb-1*%
%LPD*%
G54D18*
X1705Y1944D03*
X1743D03*
X1902D03*
X1940D03*
X2099D03*
X2137D03*
X2296D03*
X2333D03*
X2492D03*
X2530D03*
X2689D03*
X2727D03*
X2886D03*
X2924D03*
X3083D03*
X3121D03*
G54D20*
X1488Y1294D03*
Y1334D03*
X1385Y1294D03*
Y1334D03*
X1287Y1294D03*
Y1334D03*
X3157Y1173D03*
Y1133D03*
X2968Y1173D03*
Y1133D03*
X3031Y1173D03*
Y1133D03*
X3094Y1173D03*
Y1133D03*
G54D23*
X2137Y2278D03*
Y2240D03*
X2940Y2221D03*
Y2259D03*
G54D101*
X2834Y2185D03*
X2047D03*
G54D109*
X2892Y2214D03*
Y2194D03*
Y2175D03*
Y2155D03*
X2777D03*
Y2175D03*
Y2194D03*
Y2214D03*
X2104D03*
Y2194D03*
Y2175D03*
Y2155D03*
X1989D03*
Y2175D03*
Y2194D03*
Y2214D03*
G54D110*
X2864Y2127D03*
X2844D03*
X2824D03*
X2805D03*
Y2242D03*
X2824D03*
X2844D03*
X2864D03*
X2076Y2127D03*
X2057D03*
X2037D03*
X2017D03*
Y2242D03*
X2037D03*
X2057D03*
X2076D03*
G54D113*
X2817Y2168D03*
Y2201D03*
X2851Y2168D03*
Y2201D03*
X2030Y2168D03*
Y2201D03*
X2063Y2168D03*
Y2201D03*
M02*