%FSLAX23Y23*%
%MOIN*%
%SFA1B1*%

%IPPOS*%
%AMD13*
4,1,8,-0.037800,0.021200,-0.037800,-0.021200,-0.032800,-0.026200,0.032800,-0.026200,0.037800,-0.021200,0.037800,0.021200,0.032800,0.026200,-0.032800,0.026200,-0.037800,0.021200,0.0*
1,1,0.009940,-0.032800,0.021200*
1,1,0.009940,-0.032800,-0.021200*
1,1,0.009940,0.032800,-0.021200*
1,1,0.009940,0.032800,0.021200*
%
%AMD15*
4,1,8,0.029000,0.005900,-0.029000,0.005900,-0.030500,0.004400,-0.030500,-0.004400,-0.029000,-0.005900,0.029000,-0.005900,0.030500,-0.004400,0.030500,0.004400,0.029000,0.005900,0.0*
1,1,0.002960,0.029000,0.004400*
1,1,0.002960,-0.029000,0.004400*
1,1,0.002960,-0.029000,-0.004400*
1,1,0.002960,0.029000,-0.004400*
%
%AMD16*
4,1,8,0.004400,0.030500,-0.004400,0.030500,-0.005900,0.029000,-0.005900,-0.029000,-0.004400,-0.030500,0.004400,-0.030500,0.005900,-0.029000,0.005900,0.029000,0.004400,0.030500,0.0*
1,1,0.002960,0.004400,0.029000*
1,1,0.002960,-0.004400,0.029000*
1,1,0.002960,-0.004400,-0.029000*
1,1,0.002960,0.004400,-0.029000*
%
%AMD21*
4,1,8,0.011800,-0.023100,0.011800,0.023100,0.008900,0.026100,-0.008900,0.026100,-0.011800,0.023100,-0.011800,-0.023100,-0.008900,-0.026100,0.008900,-0.026100,0.011800,-0.023100,0.0*
1,1,0.005900,0.008900,-0.023100*
1,1,0.005900,0.008900,0.023100*
1,1,0.005900,-0.008900,0.023100*
1,1,0.005900,-0.008900,-0.023100*
%
%AMD27*
4,1,8,-0.004900,0.015500,-0.004900,-0.015500,-0.003700,-0.016700,0.003700,-0.016700,0.004900,-0.015500,0.004900,0.015500,0.003700,0.016700,-0.003700,0.016700,-0.004900,0.015500,0.0*
1,1,0.002460,-0.003700,0.015500*
1,1,0.002460,-0.003700,-0.015500*
1,1,0.002460,0.003700,-0.015500*
1,1,0.002460,0.003700,0.015500*
%
%AMD30*
4,1,8,-0.021700,0.031200,-0.021700,-0.031200,-0.018400,-0.034400,0.018400,-0.034400,0.021700,-0.031200,0.021700,0.031200,0.018400,0.034400,-0.018400,0.034400,-0.021700,0.031200,0.0*
1,1,0.006500,-0.018400,0.031200*
1,1,0.006500,-0.018400,-0.031200*
1,1,0.006500,0.018400,-0.031200*
1,1,0.006500,0.018400,0.031200*
%
%AMD34*
4,1,8,-0.044300,-0.035400,0.044300,-0.035400,0.049200,-0.030500,0.049200,0.030500,0.044300,0.035400,-0.044300,0.035400,-0.049200,0.030500,-0.049200,-0.030500,-0.044300,-0.035400,0.0*
1,1,0.009920,-0.044300,-0.030500*
1,1,0.009920,0.044300,-0.030500*
1,1,0.009920,0.044300,0.030500*
1,1,0.009920,-0.044300,0.030500*
%
%AMD36*
4,1,8,0.023100,0.011800,-0.023100,0.011800,-0.026100,0.008900,-0.026100,-0.008900,-0.023100,-0.011800,0.023100,-0.011800,0.026100,-0.008900,0.026100,0.008900,0.023100,0.011800,0.0*
1,1,0.005900,0.023100,0.008900*
1,1,0.005900,-0.023100,0.008900*
1,1,0.005900,-0.023100,-0.008900*
1,1,0.005900,0.023100,-0.008900*
%
G04~CAMADD=13~8~0.0~0.0~523.6~755.9~49.7~0.0~15~0.0~0.0~0.0~0.0~0~0.0~0.0~0.0~0.0~0~0.0~0.0~0.0~90.0~756.0~524.0*
%ADD13D13*%
%ADD14R,0.031500X0.023230*%
G04~CAMADD=15~8~0.0~0.0~610.2~118.1~14.8~0.0~15~0.0~0.0~0.0~0.0~0~0.0~0.0~0.0~0.0~0~0.0~0.0~0.0~0.0~610.2~118.1*
%ADD15D15*%
G04~CAMADD=16~8~0.0~0.0~118.1~610.2~14.8~0.0~15~0.0~0.0~0.0~0.0~0~0.0~0.0~0.0~0.0~0~0.0~0.0~0.0~0.0~118.1~610.2*
%ADD16D16*%
%ADD17R,0.035430X0.023620*%
%ADD18R,0.019680X0.020470*%
%ADD19R,0.040000X0.056000*%
%ADD20R,0.022000X0.020000*%
G04~CAMADD=21~8~0.0~0.0~521.7~236.2~29.5~0.0~15~0.0~0.0~0.0~0.0~0~0.0~0.0~0.0~0.0~0~0.0~0.0~0.0~270.0~236.0~522.0*
%ADD21D21*%
%ADD22R,0.035000X0.032280*%
%ADD23R,0.020470X0.019680*%
%ADD24R,0.020000X0.022000*%
%ADD25R,0.031500X0.037400*%
%ADD26R,0.078740X0.047240*%
G04~CAMADD=27~8~0.0~0.0~334.7~98.4~12.3~0.0~15~0.0~0.0~0.0~0.0~0~0.0~0.0~0.0~0.0~0~0.0~0.0~0.0~90.0~98.0~334.0*
%ADD27D27*%
%ADD28R,0.045000X0.105000*%
%ADD29C,0.031000*%
G04~CAMADD=30~8~0.0~0.0~689.0~433.1~32.5~0.0~15~0.0~0.0~0.0~0.0~0~0.0~0.0~0.0~0.0~0~0.0~0.0~0.0~90.0~434.0~689.0*
%ADD30D30*%
%ADD31R,0.068900X0.015750*%
%ADD32R,0.066930X0.043310*%
%ADD33R,0.017720X0.023620*%
G04~CAMADD=34~8~0.0~0.0~984.3~708.7~49.6~0.0~15~0.0~0.0~0.0~0.0~0~0.0~0.0~0.0~0.0~0~0.0~0.0~0.0~180.0~984.0~708.0*
%ADD34D34*%
%ADD35R,0.056000X0.040000*%
G04~CAMADD=36~8~0.0~0.0~521.7~236.2~29.5~0.0~15~0.0~0.0~0.0~0.0~0~0.0~0.0~0.0~0.0~0~0.0~0.0~0.0~0.0~521.7~236.2*
%ADD36D36*%
%ADD37R,0.044000X0.070000*%
%ADD38R,0.070000X0.044000*%
%ADD39R,0.023620X0.017720*%
%ADD40R,0.094490X0.064960*%
%ADD41R,0.011810X0.029530*%
%ADD42R,0.105000X0.045000*%
%ADD43R,0.078740X0.059060*%
%ADD44R,0.078740X0.149610*%
%LNbenchy-voltmeter-pcb-1*%
%LPD*%
G54D13*
X3102Y1889D03*
X1724D03*
X1921D03*
X2118D03*
X2314D03*
X2905D03*
X2708D03*
X2511D03*
G54D14*
X2531Y2724D03*
X2570D03*
X2531Y2756D03*
X2570D03*
X2905Y2724D03*
X2944D03*
X2905Y2756D03*
X2944D03*
G54D15*
X1745Y2942D03*
X2191D03*
Y2647D03*
X1745D03*
X2191Y2923D03*
Y2903D03*
Y2883D03*
Y2864D03*
Y2844D03*
Y2824D03*
Y2805D03*
Y2785D03*
Y2765D03*
Y2746D03*
Y2726D03*
Y2706D03*
Y2687D03*
Y2667D03*
X1745D03*
Y2687D03*
Y2706D03*
Y2726D03*
Y2746D03*
Y2765D03*
Y2785D03*
Y2805D03*
Y2824D03*
Y2844D03*
Y2864D03*
Y2883D03*
Y2903D03*
Y2923D03*
G54D16*
X1820Y3018D03*
X2116D03*
Y2571D03*
X1820D03*
X1840Y3018D03*
X1860D03*
X1879D03*
X1899D03*
X1919D03*
X1938D03*
X1958D03*
X1978D03*
X1998D03*
X2017D03*
X2037D03*
X2057D03*
X2076D03*
X2096D03*
Y2571D03*
X2076D03*
X2057D03*
X2037D03*
X2017D03*
X1998D03*
X1978D03*
X1958D03*
X1938D03*
X1919D03*
X1899D03*
X1879D03*
X1860D03*
X1840D03*
G54D17*
X3157Y1032D03*
Y1093D03*
X2968Y1032D03*
Y1093D03*
X3031Y1032D03*
Y1093D03*
X3094Y1032D03*
Y1093D03*
G54D18*
X3046Y2811D03*
X3008D03*
X1008Y2153D03*
X1046D03*
X1203Y2488D03*
X1166D03*
X1278Y2307D03*
X1240D03*
X1853Y2472D03*
X1815D03*
X1122Y1748D03*
X1160D03*
X2630Y2712D03*
X2668D03*
X2630Y2681D03*
X2668D03*
X1807Y3082D03*
X1845D03*
X1807Y3114D03*
X1845D03*
X2634Y2811D03*
X2672D03*
X3004Y2681D03*
X3042D03*
X3004Y2712D03*
X3042D03*
X2125Y2503D03*
X2087D03*
X2125Y2472D03*
X2087D03*
X1853Y2503D03*
X1815D03*
G54D19*
X2608Y2629D03*
X2683D03*
X2982D03*
X3057D03*
X2824Y2578D03*
X2899D03*
X2450D03*
X2525D03*
G54D20*
X1188Y2145D03*
Y2185D03*
X1157Y2145D03*
Y2185D03*
X2094Y2291D03*
Y2331D03*
X2062Y2291D03*
Y2331D03*
X2031Y2291D03*
Y2331D03*
X2000Y2291D03*
Y2331D03*
X2881D03*
Y2291D03*
X2850D03*
Y2331D03*
X2818Y2291D03*
Y2331D03*
X2787Y2291D03*
Y2331D03*
X1169Y2291D03*
Y2251D03*
X1700Y1991D03*
Y2031D03*
X1897Y1991D03*
Y2031D03*
X2094Y1991D03*
Y2031D03*
X2291Y1991D03*
Y2031D03*
X2488Y1991D03*
Y2031D03*
X3078Y1991D03*
Y2031D03*
X2881Y1991D03*
Y2031D03*
X1657Y1775D03*
Y1815D03*
X1791Y1775D03*
Y1815D03*
X1854Y1775D03*
Y1815D03*
X3035Y1775D03*
Y1815D03*
X2972Y1775D03*
Y1815D03*
X2838Y1775D03*
Y1815D03*
X2775Y1775D03*
Y1815D03*
X2641Y1775D03*
Y1815D03*
X2578Y1775D03*
Y1815D03*
X2444Y1775D03*
Y1815D03*
X2051Y1775D03*
Y1815D03*
X1988Y1775D03*
Y1815D03*
X2248Y1775D03*
Y1815D03*
X2185Y1775D03*
Y1815D03*
X2381Y1775D03*
Y1815D03*
X1433Y3291D03*
Y3251D03*
X1573Y3291D03*
Y3251D03*
X3169Y1775D03*
Y1815D03*
X2685Y1991D03*
Y2031D03*
X1803Y1991D03*
Y2031D03*
X2000Y1991D03*
Y2031D03*
X2196Y1991D03*
Y2031D03*
X2393D03*
Y1991D03*
X2590D03*
Y2031D03*
X2787D03*
Y1991D03*
X2984D03*
Y2031D03*
X3181Y1991D03*
Y2031D03*
X2842Y2791D03*
Y2751D03*
X2807D03*
Y2791D03*
X2468D03*
Y2751D03*
X2433D03*
Y2791D03*
G54D21*
X1045Y2092D03*
X1007D03*
X970D03*
Y2002D03*
X1007D03*
X1045D03*
X1153D03*
X1116Y2092D03*
X1190D03*
X1202Y2442D03*
X1277D03*
Y2352D03*
X1240D03*
X1202D03*
G54D22*
X1144Y2362D03*
X1083D03*
X1290Y2267D03*
X1229D03*
X1115Y1704D03*
X1176D03*
X1103Y1921D03*
X1164D03*
G54D23*
X1102Y2290D03*
Y2252D03*
X1133Y2290D03*
Y2252D03*
X1669Y2922D03*
Y2959D03*
Y3030D03*
Y2992D03*
X1653Y2703D03*
Y2666D03*
X1685Y2703D03*
Y2666D03*
X1204Y1910D03*
Y1948D03*
X1716Y2985D03*
Y3022D03*
X2251Y2948D03*
Y2910D03*
X2283Y2948D03*
Y2910D03*
G54D24*
X1121Y2322D03*
X1161D03*
X1731Y2003D03*
X1771D03*
X1928D03*
X1968D03*
X2125D03*
X2165D03*
X2322D03*
X2362D03*
X2519D03*
X2559D03*
X3109D03*
X3149D03*
X2913D03*
X2953D03*
X1704Y1783D03*
X1744D03*
X1901D03*
X1941D03*
X3082D03*
X3122D03*
X2885D03*
X2925D03*
X2688D03*
X2728D03*
X2491D03*
X2531D03*
X2098D03*
X2138D03*
X2294D03*
X2334D03*
X2527Y2629D03*
X2487D03*
X2716Y2003D03*
X2756D03*
X2946Y2849D03*
X2906D03*
X2946Y2885D03*
X2906D03*
X2901Y2629D03*
X2861D03*
X2319Y2811D03*
X2279D03*
X2319Y2842D03*
X2279D03*
X2572Y2849D03*
X2532D03*
X2572Y2889D03*
X2532D03*
G54D25*
X1487Y2708D03*
X1552D03*
G54D26*
X3102Y1889D03*
X1724D03*
X1921D03*
X2118D03*
X2314D03*
X2905D03*
X2708D03*
X2511D03*
G54D27*
X3072Y1946D03*
X3092D03*
X3112D03*
X3131D03*
Y1832D03*
X3112D03*
X3092D03*
X3072D03*
X1694Y1946D03*
X1714D03*
X1734D03*
X1753D03*
Y1832D03*
X1734D03*
X1714D03*
X1694D03*
X1891Y1946D03*
X1911D03*
X1931D03*
X1950D03*
Y1832D03*
X1931D03*
X1911D03*
X1891D03*
X2088Y1946D03*
X2108D03*
X2127D03*
X2147D03*
Y1832D03*
X2127D03*
X2108D03*
X2088D03*
X2285Y1946D03*
X2305D03*
X2324D03*
X2344D03*
Y1832D03*
X2324D03*
X2305D03*
X2285D03*
X2875Y1946D03*
X2895D03*
X2915D03*
X2935D03*
Y1832D03*
X2915D03*
X2895D03*
X2875D03*
X2679Y1946D03*
X2698D03*
X2718D03*
X2738D03*
Y1832D03*
X2718D03*
X2698D03*
X2679D03*
X2482Y1946D03*
X2501D03*
X2521D03*
X2541D03*
Y1832D03*
X2521D03*
X2501D03*
X2482D03*
G54D28*
X2607Y2539D03*
X2723D03*
X2997Y2885D03*
X3113D03*
X2981Y2539D03*
X3097D03*
X2623Y2885D03*
X2739D03*
G54D29*
X1868Y3282D03*
X1918D03*
X1968D03*
X2018D03*
X2068D03*
Y3332D03*
X2018D03*
X1968D03*
X1918D03*
X1868D03*
G54D30*
X1296Y3257D03*
Y3435D03*
X1380Y3257D03*
Y3435D03*
G54D31*
X1618Y2767D03*
Y2814D03*
Y2862D03*
G54D32*
X1618Y2923D03*
Y3029D03*
G54D33*
X1606Y2618D03*
Y2704D03*
G54D34*
X1318Y2834D03*
X1476D03*
G54D35*
X2263Y3446D03*
Y3372D03*
G54D36*
X1202Y1868D03*
Y1793D03*
X1112D03*
Y1830D03*
Y1868D03*
G54D37*
X3044Y1720D03*
X3159D03*
X2847D03*
X2963D03*
X2651D03*
X2766D03*
X2454D03*
X2569D03*
X2257D03*
X2372D03*
X2060D03*
X2175D03*
X1863D03*
X1978D03*
X1666D03*
X1781D03*
G54D38*
X1767Y1536D03*
Y1652D03*
X1964Y1536D03*
Y1652D03*
X2161Y1536D03*
Y1652D03*
X2358Y1536D03*
Y1652D03*
X2555Y1536D03*
Y1652D03*
X2751Y1536D03*
Y1652D03*
X3145Y1536D03*
Y1652D03*
X2948Y1536D03*
Y1652D03*
G54D39*
X1787Y2078D03*
X1700D03*
X1984D03*
X1897D03*
X2181D03*
X2094D03*
X2377D03*
X2291D03*
X2574D03*
X2488D03*
X2771D03*
X2685D03*
X2968D03*
X2881D03*
X3165D03*
X3078D03*
G54D40*
X2551Y2740D03*
X2925D03*
G54D41*
X2590Y2682D03*
X2570D03*
X2551D03*
X2531D03*
X2511D03*
Y2798D03*
X2531D03*
X2551D03*
X2570D03*
X2590D03*
X2964Y2682D03*
X2944D03*
X2925D03*
X2905D03*
X2885D03*
Y2798D03*
X2905D03*
X2925D03*
X2944D03*
X2964D03*
G54D42*
X2224Y3278D03*
Y3162D03*
X2732Y3384D03*
Y3268D03*
G54D43*
X2604Y3236D03*
Y3326D03*
Y3417D03*
G54D44*
X2356Y3326D03*
M02*