%FSLAX23Y23*%
%MOIN*%
%SFA1B1*%

%IPPOS*%
%AMD15*
4,1,8,0.029000,0.005900,-0.029000,0.005900,-0.030500,0.004400,-0.030500,-0.004400,-0.029000,-0.005900,0.029000,-0.005900,0.030500,-0.004400,0.030500,0.004400,0.029000,0.005900,0.0*
1,1,0.002960,0.029000,0.004400*
1,1,0.002960,-0.029000,0.004400*
1,1,0.002960,-0.029000,-0.004400*
1,1,0.002960,0.029000,-0.004400*
%
%AMD16*
4,1,8,0.004400,0.030500,-0.004400,0.030500,-0.005900,0.029000,-0.005900,-0.029000,-0.004400,-0.030500,0.004400,-0.030500,0.005900,-0.029000,0.005900,0.029000,0.004400,0.030500,0.0*
1,1,0.002960,0.004400,0.029000*
1,1,0.002960,-0.004400,0.029000*
1,1,0.002960,-0.004400,-0.029000*
1,1,0.002960,0.004400,-0.029000*
%
%AMD21*
4,1,8,0.011800,-0.023100,0.011800,0.023100,0.008900,0.026100,-0.008900,0.026100,-0.011800,0.023100,-0.011800,-0.023100,-0.008900,-0.026100,0.008900,-0.026100,0.011800,-0.023100,0.0*
1,1,0.005900,0.008900,-0.023100*
1,1,0.005900,0.008900,0.023100*
1,1,0.005900,-0.008900,0.023100*
1,1,0.005900,-0.008900,-0.023100*
%
%AMD27*
4,1,8,-0.004900,0.015500,-0.004900,-0.015500,-0.003700,-0.016700,0.003700,-0.016700,0.004900,-0.015500,0.004900,0.015500,0.003700,0.016700,-0.003700,0.016700,-0.004900,0.015500,0.0*
1,1,0.002460,-0.003700,0.015500*
1,1,0.002460,-0.003700,-0.015500*
1,1,0.002460,0.003700,-0.015500*
1,1,0.002460,0.003700,0.015500*
%
%AMD30*
4,1,8,-0.021700,0.031200,-0.021700,-0.031200,-0.018400,-0.034400,0.018400,-0.034400,0.021700,-0.031200,0.021700,0.031200,0.018400,0.034400,-0.018400,0.034400,-0.021700,0.031200,0.0*
1,1,0.006500,-0.018400,0.031200*
1,1,0.006500,-0.018400,-0.031200*
1,1,0.006500,0.018400,-0.031200*
1,1,0.006500,0.018400,0.031200*
%
%AMD34*
4,1,8,-0.044300,-0.035400,0.044300,-0.035400,0.049200,-0.030500,0.049200,0.030500,0.044300,0.035400,-0.044300,0.035400,-0.049200,0.030500,-0.049200,-0.030500,-0.044300,-0.035400,0.0*
1,1,0.009920,-0.044300,-0.030500*
1,1,0.009920,0.044300,-0.030500*
1,1,0.009920,0.044300,0.030500*
1,1,0.009920,-0.044300,0.030500*
%
%AMD36*
4,1,8,0.023100,0.011800,-0.023100,0.011800,-0.026100,0.008900,-0.026100,-0.008900,-0.023100,-0.011800,0.023100,-0.011800,0.026100,-0.008900,0.026100,0.008900,0.023100,0.011800,0.0*
1,1,0.005900,0.023100,0.008900*
1,1,0.005900,-0.023100,0.008900*
1,1,0.005900,-0.023100,-0.008900*
1,1,0.005900,0.023100,-0.008900*
%
%AMD96*
4,1,8,0.038400,0.000000,0.038400,0.000000,0.004900,0.033500,-0.004900,0.033500,-0.038400,0.000000,-0.038400,0.000000,-0.004900,-0.033500,0.004900,-0.033500,0.038400,0.000000,0.0*
1,1,0.066940,0.004900,0.000000*
1,1,0.066940,0.004900,0.000000*
1,1,0.066940,-0.004900,0.000000*
1,1,0.066940,-0.004900,0.000000*
%
%AMD97*
4,1,8,0.038400,-0.028400,0.038400,0.028400,0.033400,0.033500,-0.033400,0.033500,-0.038400,0.028400,-0.038400,-0.028400,-0.033400,-0.033500,0.033400,-0.033500,0.038400,-0.028400,0.0*
1,1,0.010040,0.033400,-0.028400*
1,1,0.010040,0.033400,0.028400*
1,1,0.010040,-0.033400,0.028400*
1,1,0.010040,-0.033400,-0.028400*
%
%AMD99*
4,1,8,-0.033500,0.028400,-0.033500,-0.028400,-0.028400,-0.033500,0.028400,-0.033500,0.033500,-0.028400,0.033500,0.028400,0.028400,0.033500,-0.028400,0.033500,-0.033500,0.028400,0.0*
1,1,0.010040,-0.028400,0.028400*
1,1,0.010040,-0.028400,-0.028400*
1,1,0.010040,0.028400,-0.028400*
1,1,0.010040,0.028400,0.028400*
%
%AMD102*
4,1,8,0.000000,0.033500,0.000000,0.033500,-0.033500,0.000000,-0.033500,0.000000,0.000000,-0.033500,0.000000,-0.033500,0.033500,0.000000,0.033500,0.000000,0.000000,0.033500,0.0*
1,1,0.066940,0.000000,0.000000*
1,1,0.066940,0.000000,0.000000*
1,1,0.066940,0.000000,0.000000*
1,1,0.066940,0.000000,0.000000*
%
%AMD105*
4,1,8,-0.033500,0.000000,-0.033500,0.000000,0.000000,-0.033500,0.000000,-0.033500,0.033500,0.000000,0.033500,0.000000,0.000000,0.033500,0.000000,0.033500,-0.033500,0.000000,0.0*
1,1,0.066940,0.000000,0.000000*
1,1,0.066940,0.000000,0.000000*
1,1,0.066940,0.000000,0.000000*
1,1,0.066940,0.000000,0.000000*
%
G04~CAMADD=15~8~0.0~0.0~610.2~118.1~14.8~0.0~15~0.0~0.0~0.0~0.0~0~0.0~0.0~0.0~0.0~0~0.0~0.0~0.0~0.0~610.2~118.1*
%ADD15D15*%
G04~CAMADD=16~8~0.0~0.0~118.1~610.2~14.8~0.0~15~0.0~0.0~0.0~0.0~0~0.0~0.0~0.0~0.0~0~0.0~0.0~0.0~0.0~118.1~610.2*
%ADD16D16*%
%ADD17R,0.035430X0.023620*%
%ADD18R,0.019680X0.020470*%
%ADD19R,0.040000X0.056000*%
%ADD20R,0.022000X0.020000*%
G04~CAMADD=21~8~0.0~0.0~521.7~236.2~29.5~0.0~15~0.0~0.0~0.0~0.0~0~0.0~0.0~0.0~0.0~0~0.0~0.0~0.0~270.0~236.0~522.0*
%ADD21D21*%
%ADD22R,0.035000X0.032280*%
%ADD23R,0.020470X0.019680*%
%ADD24R,0.020000X0.022000*%
%ADD25R,0.031500X0.037400*%
%ADD26R,0.078740X0.047240*%
G04~CAMADD=27~8~0.0~0.0~334.7~98.4~12.3~0.0~15~0.0~0.0~0.0~0.0~0~0.0~0.0~0.0~0.0~0~0.0~0.0~0.0~90.0~98.0~334.0*
%ADD27D27*%
%ADD28R,0.045000X0.105000*%
%ADD29C,0.031000*%
G04~CAMADD=30~8~0.0~0.0~689.0~433.1~32.5~0.0~15~0.0~0.0~0.0~0.0~0~0.0~0.0~0.0~0.0~0~0.0~0.0~0.0~90.0~434.0~689.0*
%ADD30D30*%
%ADD31R,0.068900X0.015750*%
%ADD32R,0.066930X0.043310*%
%ADD33R,0.017720X0.023620*%
G04~CAMADD=34~8~0.0~0.0~984.3~708.7~49.6~0.0~15~0.0~0.0~0.0~0.0~0~0.0~0.0~0.0~0.0~0~0.0~0.0~0.0~180.0~984.0~708.0*
%ADD34D34*%
%ADD35R,0.056000X0.040000*%
G04~CAMADD=36~8~0.0~0.0~521.7~236.2~29.5~0.0~15~0.0~0.0~0.0~0.0~0~0.0~0.0~0.0~0.0~0~0.0~0.0~0.0~0.0~521.7~236.2*
%ADD36D36*%
%ADD37R,0.044000X0.070000*%
%ADD38R,0.070000X0.044000*%
%ADD39R,0.023620X0.017720*%
%ADD40R,0.094490X0.064960*%
%ADD41R,0.011810X0.029530*%
%ADD42R,0.105000X0.045000*%
%ADD43R,0.078740X0.059060*%
%ADD44R,0.078740X0.149610*%
%ADD87C,0.008660*%
%ADD88C,0.011810*%
%ADD89C,0.007870*%
%ADD90C,0.009840*%
%ADD91C,0.017720*%
%ADD92C,0.019680*%
%ADD93C,0.015750*%
%ADD94C,0.013780*%
%ADD95C,0.059060*%
G04~CAMADD=96~8~0.0~0.0~669.3~767.7~334.7~0.0~15~0.0~0.0~0.0~0.0~0~0.0~0.0~0.0~0.0~0~0.0~0.0~0.0~270.0~768.0~670.0*
%ADD96D96*%
G04~CAMADD=97~8~0.0~0.0~669.3~767.7~50.2~0.0~15~0.0~0.0~0.0~0.0~0~0.0~0.0~0.0~0.0~0~0.0~0.0~0.0~270.0~768.0~670.0*
%ADD97D97*%
%ADD98C,0.177170*%
G04~CAMADD=99~8~0.0~0.0~669.3~669.3~50.2~0.0~15~0.0~0.0~0.0~0.0~0~0.0~0.0~0.0~0.0~0~0.0~0.0~0.0~90.0~670.0~670.0*
%ADD99D99*%
%ADD100C,0.066930*%
%ADD101R,0.066930X0.066930*%
G04~CAMADD=102~8~0.0~0.0~669.3~669.3~334.7~0.0~15~0.0~0.0~0.0~0.0~0~0.0~0.0~0.0~0.0~0~0.0~0.0~0.0~0.0~669.3~669.3*
%ADD102D102*%
%ADD103C,0.039000*%
%ADD104C,0.093500*%
G04~CAMADD=105~8~0.0~0.0~669.3~669.3~334.7~0.0~15~0.0~0.0~0.0~0.0~0~0.0~0.0~0.0~0.0~0~0.0~0.0~0.0~90.0~670.0~669.0*
%ADD105D105*%
%ADD106R,0.066930X0.066930*%
%ADD107C,0.021650*%
%ADD108C,0.017720*%
%LNbenchy-voltmeter-pcb-1*%
%LPD*%
G36*
X3200Y1854D02*
X1594D01*
Y1496*
X1948Y1141*
Y1082*
X2007Y1023*
Y1008*
X913*
Y3476*
X1357*
X1358Y3472*
X1358Y3472*
X1357Y3471*
X1356Y3470*
X1355Y3469*
X1355Y3467*
X1355Y3466*
Y3403*
X1355Y3402*
X1355Y3401*
X1356Y3399*
X1357Y3398*
X1358Y3397*
X1359Y3397*
X1361Y3396*
X1362Y3396*
X1372*
Y3296*
X1362*
X1361Y3296*
X1359Y3295*
X1358Y3295*
X1357Y3294*
X1356Y3293*
X1355Y3291*
X1355Y3290*
X1355Y3289*
Y3226*
X1355Y3225*
X1355Y3223*
X1356Y3222*
X1357Y3221*
X1358Y3220*
X1359Y3220*
X1361Y3219*
X1362Y3219*
X1399*
X1400Y3219*
X1402Y3220*
X1403Y3220*
X1404Y3221*
X1405Y3222*
X1405Y3223*
X1406Y3225*
X1406Y3226*
Y3242*
X1418*
Y3237*
X1448*
Y3242*
X1459*
X1459Y3242*
X1461Y3240*
X1462Y3240*
X1464Y3239*
X1465Y3239*
X1467Y3238*
X1469*
X1470Y3239*
X1472Y3239*
X1473Y3240*
X1475Y3240*
X1476Y3242*
X1477Y3243*
X1478Y3244*
X1479Y3245*
X1480Y3247*
X1480Y3249*
X1481Y3250*
Y3252*
X1480Y3254*
X1480Y3255*
X1479Y3257*
X1478Y3258*
X1477Y3260*
X1476Y3261*
X1475Y3262*
X1473Y3263*
X1472Y3263*
X1470Y3264*
X1469Y3264*
X1467*
X1465Y3264*
X1464Y3263*
X1462Y3263*
X1461Y3262*
X1459Y3261*
X1459Y3260*
X1448*
Y3265*
X1418*
Y3260*
X1406*
Y3289*
X1406Y3290*
X1405Y3291*
X1405Y3293*
X1404Y3294*
X1403Y3295*
X1402Y3295*
X1400Y3296*
X1399Y3296*
X1389*
Y3396*
X1399*
X1400Y3396*
X1402Y3397*
X1403Y3397*
X1404Y3398*
X1405Y3399*
X1405Y3401*
X1406Y3402*
X1406Y3403*
Y3466*
X1406Y3467*
X1405Y3469*
X1405Y3470*
X1404Y3471*
X1403Y3472*
X1403Y3472*
X1404Y3476*
X3200*
Y1854*
G37*
G36*
Y1037D02*
X3196Y1036D01*
X3196Y1037*
X3195Y1038*
X3194Y1039*
X3193Y1041*
X3192Y1042*
X3190Y1043*
X3189Y1043*
X3187Y1044*
X3185Y1044*
X3184*
X3183Y1044*
X3182Y1044*
X3179Y1046*
X3179Y1047*
Y1048*
X3135*
Y1016*
X3179*
X3181Y1018*
X3183Y1018*
X3184Y1018*
X3185*
X3187Y1018*
X3189Y1019*
X3190Y1020*
X3192Y1020*
X3193Y1021*
X3194Y1023*
X3195Y1024*
X3196Y1025*
X3196Y1026*
X3200Y1025*
Y1008*
X2933*
Y1024*
X2946*
Y1016*
X2990*
Y1048*
X2946*
Y1040*
X2933*
Y1291*
X3062Y1421*
X3200*
Y1037*
G37*
%LNbenchy-voltmeter-pcb-2*%
%LPC*%
G36*
X2399Y3405D02*
X2312D01*
Y3401*
X2234*
X2234Y3401*
X2233Y3401*
X2229Y3401*
X2229Y3401*
X2229*
X2225Y3400*
X2225Y3400*
X2225Y3400*
X2221Y3399*
X2221Y3399*
X2220Y3399*
X2216Y3398*
X2216Y3398*
X2216Y3398*
X2212Y3397*
X2212Y3397*
X2212Y3397*
X2208Y3395*
X2208Y3395*
X2208Y3395*
X2204Y3393*
X2204Y3393*
X2204Y3393*
X2200Y3391*
X2200Y3391*
X2200Y3391*
X2197Y3389*
X2197Y3389*
X2197Y3389*
X2193Y3386*
X2193Y3386*
X2193Y3386*
X2190Y3383*
X2190Y3383*
X2190Y3383*
X2187Y3380*
X2187Y3380*
X2187Y3380*
X2184Y3377*
X2184Y3377*
X2184Y3377*
X2181Y3373*
X2181Y3373*
X2181Y3373*
X2179Y3370*
X2179Y3370*
X2179Y3369*
X2177Y3366*
X2177Y3366*
X2177Y3366*
X2175Y3362*
X2175Y3362*
X2175Y3362*
X2173Y3358*
X2173Y3358*
X2173Y3358*
X2172Y3354*
X2172Y3354*
X2172Y3353*
X2171Y3349*
X2170Y3349*
X2170Y3349*
X2170Y3345*
X2170Y3345*
X2170Y3345*
X2169Y3341*
Y3341*
X2169Y3341*
X2169Y3336*
Y3336*
X2169Y3336*
Y3304*
X2167*
Y3252*
X2172*
X2172Y3252*
X2173Y3251*
X2312*
Y3248*
X2399*
Y3295*
X2561*
Y3293*
X2647*
Y3360*
X2561*
Y3358*
X2399*
Y3405*
G37*
G36*
X2045Y3457D02*
X2041D01*
X2037Y3457*
X2033Y3456*
X2029Y3455*
X2025Y3454*
X2022Y3453*
X2018Y3451*
X2015Y3449*
X2012Y3446*
X2009Y3444*
X2006Y3441*
X2003Y3438*
X2001Y3435*
X1999Y3431*
X1997Y3428*
X1995Y3424*
X1994Y3420*
X1993Y3416*
X1993Y3413*
X1992Y3409*
Y3405*
X1993Y3401*
X1993Y3397*
X1994Y3393*
X1995Y3389*
X1997Y3385*
X1999Y3382*
X2001Y3378*
X2003Y3375*
X2006Y3372*
X2009Y3369*
X2012Y3367*
X2015Y3364*
X2018Y3362*
X2022Y3361*
X2025Y3359*
X2029Y3358*
X2033Y3357*
X2037Y3356*
X2041Y3356*
X2045*
X2049Y3356*
X2053Y3357*
X2057Y3358*
X2061Y3359*
X2064Y3361*
X2068Y3362*
X2071Y3364*
X2074Y3367*
X2077Y3369*
X2080Y3372*
X2083Y3375*
X2085Y3378*
X2087Y3382*
X2089Y3385*
X2091Y3389*
X2092Y3393*
X2093Y3397*
X2093Y3401*
X2094Y3405*
Y3409*
X2093Y3413*
X2093Y3416*
X2092Y3420*
X2091Y3424*
X2089Y3428*
X2087Y3431*
X2085Y3435*
X2083Y3438*
X2080Y3441*
X2077Y3444*
X2074Y3446*
X2071Y3449*
X2068Y3451*
X2064Y3453*
X2061Y3454*
X2057Y3455*
X2053Y3456*
X2049Y3457*
X2045Y3457*
G37*
G36*
X1820D02*
X1816D01*
X1812Y3457*
X1808Y3456*
X1804Y3455*
X1800Y3454*
X1797Y3453*
X1793Y3451*
X1790Y3449*
X1787Y3446*
X1784Y3444*
X1781Y3441*
X1778Y3438*
X1776Y3435*
X1774Y3431*
X1772Y3428*
X1770Y3424*
X1769Y3420*
X1768Y3416*
X1768Y3413*
X1767Y3409*
Y3405*
X1768Y3401*
X1768Y3397*
X1769Y3393*
X1770Y3389*
X1772Y3385*
X1774Y3382*
X1776Y3378*
X1778Y3375*
X1781Y3372*
X1784Y3369*
X1787Y3367*
X1790Y3364*
X1793Y3362*
X1797Y3361*
X1800Y3359*
X1804Y3358*
X1808Y3357*
X1812Y3356*
X1816Y3356*
X1820*
X1824Y3356*
X1828Y3357*
X1832Y3358*
X1836Y3359*
X1839Y3361*
X1843Y3362*
X1846Y3364*
X1849Y3367*
X1852Y3369*
X1855Y3372*
X1858Y3375*
X1860Y3378*
X1862Y3382*
X1864Y3385*
X1866Y3389*
X1867Y3393*
X1868Y3397*
X1868Y3401*
X1869Y3405*
Y3409*
X1868Y3413*
X1868Y3416*
X1867Y3420*
X1866Y3424*
X1864Y3428*
X1862Y3431*
X1860Y3435*
X1858Y3438*
X1855Y3441*
X1852Y3444*
X1849Y3446*
X1846Y3449*
X1843Y3451*
X1839Y3453*
X1836Y3454*
X1832Y3455*
X1828Y3456*
X1824Y3457*
X1820Y3457*
G37*
G36*
X1894Y3398D02*
X1892D01*
X1891Y3398*
X1889Y3397*
X1888Y3397*
X1886Y3396*
X1885Y3395*
X1884Y3394*
X1883Y3392*
X1882Y3391*
X1881Y3389*
X1881Y3388*
X1880Y3386*
Y3384*
X1881Y3383*
X1881Y3381*
X1882Y3380*
X1883Y3378*
X1884Y3377*
X1885Y3376*
X1885Y3375*
Y3360*
X1875Y3350*
X1873Y3350*
X1871Y3351*
X1869Y3351*
X1867*
X1865Y3351*
X1863Y3350*
X1861Y3350*
X1859Y3349*
X1857Y3347*
X1855Y3346*
X1853Y3345*
X1852Y3343*
X1851Y3341*
X1850Y3339*
X1849Y3337*
X1849Y3335*
X1849Y3333*
Y3331*
X1849Y3328*
X1849Y3326*
X1850Y3324*
X1851Y3322*
X1852Y3320*
X1853Y3319*
X1855Y3317*
X1857Y3316*
X1859Y3315*
X1861Y3314*
X1863Y3313*
X1865Y3312*
X1867Y3312*
X1869*
X1871Y3312*
X1873Y3313*
X1875Y3314*
X1877Y3315*
X1879Y3316*
X1881Y3317*
X1883Y3319*
X1884Y3320*
X1885Y3322*
X1886Y3324*
X1887Y3326*
X1887Y3328*
X1887Y3331*
Y3333*
X1887Y3335*
X1887Y3337*
X1886Y3339*
X1899Y3351*
X1900Y3352*
X1901Y3354*
X1901Y3355*
X1901Y3357*
Y3375*
X1902Y3376*
X1903Y3377*
X1904Y3378*
X1905Y3380*
X1905Y3381*
X1906Y3383*
X1906Y3384*
Y3386*
X1906Y3388*
X1905Y3389*
X1905Y3391*
X1904Y3392*
X1903Y3394*
X1902Y3395*
X1900Y3396*
X1899Y3397*
X1897Y3397*
X1896Y3398*
X1894Y3398*
G37*
G36*
X2119Y3370D02*
X2117D01*
X2114Y3370*
X2112Y3369*
X2109Y3368*
X2107Y3367*
X2104Y3366*
X2102Y3364*
X2101Y3362*
X2099Y3360*
X2097Y3358*
X2096Y3356*
X2095Y3353*
X2095Y3351*
X2095Y3348*
Y3345*
X2095Y3343*
X2095Y3340*
X2096Y3338*
X2097Y3335*
X2099Y3333*
X2101Y3331*
X2102Y3329*
X2104Y3327*
X2107Y3326*
X2109Y3325*
X2112Y3324*
X2114Y3323*
X2117Y3323*
X2119*
X2122Y3323*
X2125Y3324*
X2127Y3325*
X2129Y3326*
X2132Y3327*
X2134Y3329*
X2136Y3331*
X2137Y3333*
X2139Y3335*
X2140Y3338*
X2141Y3340*
X2141Y3343*
X2141Y3345*
Y3348*
X2141Y3351*
X2141Y3353*
X2140Y3356*
X2139Y3358*
X2137Y3360*
X2136Y3362*
X2134Y3364*
X2132Y3366*
X2129Y3367*
X2127Y3368*
X2125Y3369*
X2122Y3370*
X2119Y3370*
G37*
G36*
X3082Y3458D02*
X2568D01*
X2567Y3458*
X2567*
X2566Y3458*
X2566Y3458*
X2565Y3458*
X2564Y3458*
X2564Y3457*
X2564Y3457*
X2563Y3457*
X2562Y3457*
X2562Y3457*
X2561Y3456*
X2561Y3456*
X2561Y3456*
X2559Y3455*
X2559Y3455*
X2559Y3455*
X2558Y3454*
X2558Y3453*
X2558Y3453*
X2557Y3452*
X2557Y3452*
X2557Y3452*
X2556Y3451*
X2556Y3450*
X2556Y3450*
X2555Y3449*
X2555Y3449*
X2555Y3449*
X2555Y3447*
X2555Y3447*
X2555Y3447*
X2555Y3446*
Y3445*
X2555Y3445*
Y3395*
X2555Y3394*
Y3394*
X2555Y3393*
X2555Y3392*
X2555Y3392*
X2555Y3391*
X2555Y3391*
X2555Y3390*
X2556Y3389*
X2556Y3389*
X2556Y3389*
X2557Y3388*
X2557Y3388*
X2557Y3387*
X2558Y3386*
X2558Y3386*
X2558Y3386*
X2559Y3385*
X2559Y3385*
X2559Y3385*
X2561Y3384*
X2561Y3384*
Y3383*
X2561*
X2562Y3383*
X2562Y3383*
X2563Y3383*
X2564Y3382*
X2564Y3382*
X2564Y3382*
X2565Y3382*
X2566Y3382*
X2566Y3382*
X2567Y3381*
X2567*
X2568Y3381*
X2633*
X2634Y3381*
X2636Y3381*
X2638Y3381*
X2640Y3381*
X2642Y3380*
X2644Y3379*
X2645Y3379*
X2647Y3378*
X2649Y3377*
X2650Y3376*
X2652Y3375*
X2654Y3373*
X2654Y3373*
X2667Y3360*
X2668Y3359*
X2668Y3359*
X2668Y3359*
X2670Y3357*
X2670Y3357*
X2670Y3357*
X2672Y3356*
X2672Y3356*
X2672Y3356*
X2674Y3355*
X2675Y3354*
X2675Y3354*
X2677Y3353*
X2677Y3353*
X2677Y3353*
X2680Y3353*
X2680Y3353*
X2680Y3353*
X2682Y3352*
X2682Y3352*
X2683Y3352*
X2685Y3352*
X2685*
X2685Y3352*
X2992*
X2992Y3352*
X2994Y3352*
X2995Y3351*
X2997Y3351*
X2998Y3350*
X3000Y3350*
X3001Y3349*
X3002Y3348*
X3003Y3347*
X3004Y3345*
X3005Y3344*
X3006Y3343*
X3006Y3341*
X3007Y3340*
X3007Y3338*
X3007Y3337*
X3007Y3336*
Y3335*
X3007Y3335*
Y3335*
X3008Y3333*
X3008Y3333*
X3008Y3332*
X3008Y3331*
X3008Y3330*
X3008Y3330*
X3009Y3328*
X3009Y3328*
X3009Y3328*
X3010Y3326*
X3010Y3326*
X3010Y3326*
X3011Y3324*
X3011Y3324*
X3011Y3324*
X3012Y3322*
X3012Y3322*
X3012Y3322*
X3013Y3320*
X3013Y3320*
X3014Y3320*
X3015Y3319*
X3015Y3319*
X3015Y3318*
X3017Y3317*
X3017Y3317*
X3017Y3317*
X3019Y3316*
X3019Y3316*
X3019Y3316*
X3021Y3315*
X3021Y3315*
X3021Y3315*
X3023Y3314*
X3023Y3314*
X3023Y3314*
X3025Y3313*
X3025Y3313*
X3025Y3313*
X3027Y3313*
X3028Y3313*
X3028Y3313*
X3030Y3312*
X3030*
X3030Y3312*
X3120*
X3120Y3312*
X3121*
X3122Y3313*
X3122Y3313*
X3123Y3313*
X3124Y3313*
X3124Y3313*
X3124Y3313*
X3125Y3314*
X3126Y3314*
X3126Y3314*
X3127Y3315*
X3127Y3315*
X3127Y3315*
X3129Y3316*
X3129Y3316*
X3129Y3316*
X3130Y3317*
X3130Y3317*
X3130Y3317*
X3131Y3318*
X3131Y3319*
X3131Y3319*
X3132Y3320*
X3132Y3320*
X3132Y3320*
X3133Y3322*
X3133Y3322*
X3133Y3322*
X3133Y3323*
X3133Y3324*
X3133Y3324*
X3133Y3325*
Y3325*
X3133Y3326*
Y3407*
X3133Y3407*
X3133Y3407*
X3133Y3411*
X3133Y3411*
Y3411*
X3132Y3415*
X3132Y3415*
X3132Y3416*
X3131Y3419*
X3131Y3419*
X3131Y3420*
X3130Y3423*
X3130Y3423*
X3130Y3424*
X3129Y3427*
X3129Y3427*
X3128Y3427*
X3127Y3431*
X3127Y3431*
X3127Y3431*
X3125Y3434*
X3124Y3435*
X3124Y3435*
X3122Y3438*
X3122Y3438*
X3122Y3438*
X3119Y3441*
X3119Y3441*
X3119Y3441*
X3116Y3444*
X3116Y3444*
X3116Y3444*
X3113Y3447*
X3113Y3447*
X3113Y3447*
X3110Y3449*
X3110Y3449*
X3110Y3449*
X3106Y3451*
X3106Y3451*
X3106Y3452*
X3103Y3453*
X3102Y3453*
X3102Y3453*
X3099Y3455*
X3099Y3455*
X3098Y3455*
X3095Y3456*
X3095Y3456*
X3095Y3456*
X3091Y3457*
X3091Y3457*
X3090Y3457*
X3087Y3458*
X3086Y3458*
X3086Y3458*
X3082Y3458*
X3082Y3458*
X3082Y3458*
G37*
G36*
X1969Y3351D02*
X1967D01*
X1965Y3351*
X1963Y3350*
X1961Y3350*
X1959Y3349*
X1957Y3347*
X1955Y3346*
X1953Y3345*
X1952Y3343*
X1951Y3341*
X1950Y3339*
X1949Y3337*
X1949Y3335*
X1949Y3333*
Y3331*
X1949Y3328*
X1949Y3326*
X1950Y3324*
X1951Y3322*
X1952Y3320*
X1953Y3319*
X1955Y3317*
X1957Y3316*
X1959Y3315*
X1961Y3314*
X1963Y3313*
X1965Y3312*
X1967Y3312*
X1969*
X1971Y3312*
X1973Y3313*
X1975Y3314*
X1977Y3315*
X1979Y3316*
X1981Y3317*
X1983Y3319*
X1984Y3320*
X1985Y3322*
X1986Y3324*
X1987Y3326*
X1987Y3328*
X1987Y3331*
Y3333*
X1987Y3335*
X1987Y3337*
X1986Y3339*
X1985Y3341*
X1984Y3343*
X1983Y3345*
X1981Y3346*
X1979Y3347*
X1977Y3349*
X1975Y3350*
X1973Y3350*
X1971Y3351*
X1969Y3351*
G37*
G36*
X2019D02*
X2017D01*
X2015Y3351*
X2013Y3350*
X2011Y3350*
X2009Y3349*
X2007Y3347*
X2005Y3346*
X2003Y3345*
X2002Y3343*
X2001Y3341*
X2000Y3339*
X1999Y3337*
X1999Y3335*
X1999Y3333*
Y3331*
X1999Y3328*
X1999Y3326*
X2000Y3324*
X2001Y3322*
X2002Y3320*
X2003Y3319*
X2005Y3317*
X2007Y3316*
X2009Y3315*
X2011Y3314*
X2013Y3313*
X2015Y3312*
X2017Y3312*
X2019*
X2021Y3312*
X2023Y3313*
X2025Y3314*
X2027Y3315*
X2029Y3316*
X2031Y3317*
X2033Y3319*
X2034Y3320*
X2035Y3322*
X2036Y3324*
X2037Y3326*
X2037Y3328*
X2037Y3331*
Y3333*
X2037Y3335*
X2037Y3337*
X2036Y3339*
X2035Y3341*
X2034Y3343*
X2033Y3345*
X2031Y3346*
X2029Y3347*
X2027Y3349*
X2025Y3350*
X2023Y3350*
X2021Y3351*
X2019Y3351*
G37*
G36*
X1510Y3403D02*
X1435D01*
Y3338*
X1435Y3338*
Y3323*
X1426Y3314*
X1425Y3312*
X1424Y3311*
X1423Y3310*
X1423Y3308*
X1423Y3307*
Y3305*
X1418*
Y3277*
X1448*
Y3305*
X1449Y3309*
X1452Y3312*
X1453Y3313*
X1454Y3315*
X1455Y3316*
X1455Y3318*
X1455Y3319*
Y3328*
X1510*
Y3403*
G37*
G36*
X2903Y3301D02*
D01*
X2901*
X2901Y3301*
X2901Y3301*
X2897Y3300*
X2897Y3300*
X2897*
X2894Y3300*
X2893Y3300*
X2893Y3300*
X2890Y3299*
X2890Y3299*
X2890Y3299*
X2886Y3298*
X2886Y3298*
X2886Y3298*
X2883Y3296*
X2882Y3296*
X2882Y3296*
X2879Y3295*
X2879Y3294*
X2879Y3294*
X2876Y3293*
X2876Y3292*
X2876Y3292*
X2873Y3290*
X2873Y3290*
X2872Y3290*
X2870Y3288*
X2870Y3288*
X2869Y3288*
X2867Y3285*
X2867Y3285*
X2867Y3285*
X2864Y3282*
X2864Y3282*
X2864Y3282*
X2862Y3279*
X2862Y3279*
X2862Y3279*
X2860Y3276*
X2860Y3276*
X2860Y3275*
X2858Y3272*
X2858Y3272*
X2858Y3272*
X2857Y3269*
X2857Y3269*
X2857Y3268*
X2856Y3265*
X2856Y3265*
X2856Y3265*
X2855Y3261*
X2855Y3261*
X2855Y3261*
X2854Y3257*
Y3257*
X2854Y3257*
X2854Y3254*
X2854Y3253*
X2854Y3253*
Y3031*
X2854Y3030*
X2854Y3029*
X2853Y3027*
X2853Y3026*
X2852Y3024*
X2852Y3023*
X2851Y3022*
X2850Y3020*
X2849Y3019*
X2847Y3018*
X2846Y3018*
X2845Y3017*
X2843Y3016*
X2842Y3016*
X2840Y3015*
X2839Y3015*
X2838Y3015*
X2582*
X2581*
X2581Y3015*
X2581*
X2578Y3015*
X2578Y3015*
X2578Y3015*
X2576Y3015*
X2575Y3014*
X2575Y3014*
X2573Y3014*
X2573Y3014*
X2573Y3014*
X2571Y3013*
X2570Y3013*
X2570Y3013*
X2568Y3011*
X2568Y3011*
X2568Y3011*
X2566Y3010*
X2566Y3010*
X2566Y3010*
X2564Y3008*
X2564Y3008*
X2563Y3008*
X2562Y3006*
X2562Y3006*
X2562Y3006*
X2560Y3004*
X2560Y3004*
X2560Y3004*
X2559Y3002*
X2559Y3002*
X2558Y3002*
X2557Y3000*
X2557Y2999*
X2557Y2999*
X2556Y2997*
X2556Y2997*
X2556Y2997*
X2555Y2995*
X2555Y2994*
X2555Y2994*
X2555Y2992*
X2555Y2992*
X2555Y2992*
X2555Y2989*
X2555Y2989*
X2555Y2989*
Y2988*
Y2833*
X2551Y2832*
X2546Y2837*
Y2864*
X2518*
X2517Y2868*
Y2871*
X2518Y2874*
X2546*
Y2904*
X2518*
Y2904*
X2517Y2903*
X2514Y2901*
X2513Y2901*
X2512Y2902*
X2510Y2902*
X2509*
X2507Y2902*
X2505Y2901*
X2504Y2901*
X2502Y2900*
X2501Y2899*
X2500Y2898*
X2499Y2896*
X2498Y2895*
X2497Y2893*
X2497Y2892*
X2497Y2890*
Y2888*
X2497Y2887*
X2497Y2885*
X2498Y2884*
X2499Y2882*
X2500Y2881*
X2501Y2880*
X2501Y2879*
Y2834*
X2502Y2832*
X2502Y2831*
X2503Y2829*
X2504Y2828*
X2511Y2821*
X2511Y2820*
X2510Y2816*
X2501*
Y2799*
X2483*
Y2805*
X2453*
Y2799*
X2448*
Y2805*
X2418*
Y2777*
X2448*
Y2783*
X2453*
Y2777*
X2483*
Y2783*
X2501*
Y2779*
X2521*
X2525*
X2566*
X2566Y2779*
X2637*
X2638*
X2638Y2779*
X2639Y2779*
X2640Y2779*
X2641Y2780*
X2641Y2780*
X2643Y2780*
X2643Y2780*
X2643Y2781*
X2645Y2781*
X2645Y2782*
X2645Y2782*
X2646Y2783*
X2646Y2783*
X2647Y2784*
X2648Y2785*
X2648Y2785*
X2648Y2786*
X2649Y2787*
X2649Y2787*
X2649Y2788*
X2649Y2789*
X2649Y2790*
X2649Y2790*
Y2791*
Y2925*
X2649Y2926*
X2649Y2928*
X2650Y2929*
X2650Y2931*
X2651Y2933*
X2652Y2935*
X2653Y2936*
X2654Y2938*
X2656Y2939*
X2657Y2940*
X2659Y2942*
X2660Y2942*
X2662Y2943*
X2664Y2944*
X2666Y2944*
X2668Y2944*
X2669Y2944*
X2913*
X2914Y2944*
X2915Y2944*
X2917Y2944*
X2918Y2943*
X2920Y2943*
X2921Y2942*
X2922Y2941*
X2923Y2940*
X2925Y2939*
X2926Y2938*
X2926Y2937*
X2927Y2935*
X2928Y2934*
X2928Y2932*
X2928Y2931*
X2929Y2929*
X2929Y2929*
Y2835*
X2925Y2834*
X2920Y2839*
Y2843*
X2920Y2843*
Y2864*
X2893*
X2892Y2867*
X2893Y2870*
X2920*
Y2900*
X2892*
Y2900*
X2891Y2899*
X2888Y2897*
X2887Y2897*
X2886Y2898*
X2884Y2898*
X2883*
X2881Y2898*
X2879Y2897*
X2878Y2897*
X2876Y2896*
X2875Y2895*
X2874Y2894*
X2873Y2892*
X2872Y2891*
X2871Y2889*
X2871Y2888*
X2871Y2886*
Y2884*
X2871Y2883*
X2871Y2881*
X2872Y2880*
X2873Y2878*
X2874Y2877*
X2875Y2876*
X2875Y2875*
Y2834*
X2876Y2832*
X2876Y2831*
X2877Y2829*
X2878Y2828*
X2885Y2820*
X2885Y2818*
X2884Y2816*
X2875*
Y2799*
X2857*
Y2805*
X2827*
Y2799*
X2822*
Y2805*
X2792*
Y2777*
X2822*
Y2783*
X2827*
Y2777*
X2857*
Y2783*
X2875*
Y2779*
X2891*
X2895*
X2899*
X2940*
X2940Y2779*
X3011*
X3012*
X3012Y2779*
X3013Y2779*
X3014Y2779*
X3015Y2780*
X3015Y2780*
X3017Y2780*
X3017Y2780*
X3017Y2781*
X3019Y2781*
X3019Y2782*
X3019Y2782*
X3020Y2783*
X3020Y2783*
X3021Y2784*
X3022Y2785*
X3022Y2785*
X3022Y2786*
X3023Y2787*
X3023Y2787*
X3023Y2788*
X3023Y2789*
X3023Y2790*
X3023Y2790*
Y2791*
Y2965*
X3023Y2965*
Y2966*
X3023Y2969*
X3023Y2969*
Y2969*
X3023Y2971*
X3023Y2971*
Y2971*
X3022Y2975*
X3022Y2975*
X3022Y2975*
X3022Y2978*
X3022Y2979*
X3022Y2979*
X3021Y2982*
X3021Y2982*
X3021Y2982*
X3020Y2986*
X3019Y2986*
X3019Y2986*
X3018Y2989*
X3018Y2989*
X3018Y2989*
X3016Y2993*
X3016Y2993*
X3016Y2993*
X3015Y2996*
X3014Y2996*
X3014Y2996*
X3012Y2999*
X3012Y2999*
X3012Y2999*
X3010Y3002*
X3010Y3002*
X3010Y3002*
X3008Y3005*
X3008Y3005*
X3007Y3005*
X3006Y3006*
X3005Y3007*
X3004Y3009*
X3002Y3011*
X3001Y3013*
X3000Y3015*
X2999Y3017*
X2998Y3019*
X2997Y3021*
X2997Y3024*
X2996Y3026*
X2996Y3028*
X2996Y3031*
X2996Y3032*
Y3169*
X2996Y3171*
X2996Y3174*
X2996Y3178*
X2997Y3181*
X2998Y3184*
X3000Y3188*
X3001Y3191*
X3003Y3194*
X3005Y3197*
X3008Y3200*
X3010Y3202*
X3013Y3204*
X3016Y3206*
X3019Y3208*
X3022Y3210*
X3025Y3211*
X3029Y3212*
X3032Y3213*
X3036Y3214*
X3039Y3214*
X3041Y3214*
X3110*
X3111*
X3111Y3214*
X3111Y3214*
X3113Y3214*
X3113Y3214*
X3113Y3214*
X3115Y3215*
X3115Y3215*
X3116Y3215*
X3118Y3215*
X3118Y3215*
X3118Y3215*
X3120Y3216*
X3120Y3216*
X3120Y3216*
X3122Y3217*
X3122Y3217*
X3122Y3217*
X3124Y3219*
X3124Y3219*
X3124Y3219*
X3125Y3220*
X3126Y3220*
X3126Y3220*
X3127Y3222*
X3127Y3222*
X3127Y3222*
X3129Y3223*
X3129Y3224*
X3129Y3224*
X3130Y3225*
X3130Y3226*
X3130Y3226*
X3131Y3227*
X3131Y3228*
X3131Y3228*
X3132Y3230*
X3132Y3230*
X3132Y3230*
X3133Y3232*
X3133Y3232*
X3133Y3232*
X3133Y3234*
X3133Y3234*
X3133Y3234*
X3133Y3236*
Y3237*
X3133Y3237*
Y3277*
Y3278*
X3133Y3278*
Y3278*
X3133Y3280*
X3133Y3281*
X3133Y3281*
X3133Y3283*
X3133Y3283*
X3133Y3283*
X3132Y3285*
X3132Y3285*
X3132Y3285*
X3131Y3287*
X3131Y3287*
X3131Y3287*
X3130Y3289*
X3130Y3289*
X3130Y3289*
X3129Y3291*
X3129Y3291*
X3129Y3291*
X3127Y3293*
X3127Y3293*
X3127Y3293*
X3126Y3294*
X3126Y3295*
X3125Y3295*
X3124Y3296*
X3124Y3296*
X3124Y3296*
X3122Y3297*
X3122Y3297*
X3122Y3297*
X3120Y3298*
X3120Y3298*
X3120Y3299*
X3118Y3299*
X3118Y3299*
X3118Y3299*
X3116Y3300*
X3115Y3300*
X3115Y3300*
X3113Y3300*
X3113Y3300*
X3113Y3301*
X3111Y3301*
X3111Y3301*
X3111Y3301*
X2903*
G37*
G36*
X2069Y3351D02*
X2067D01*
X2065Y3351*
X2063Y3350*
X2061Y3350*
X2059Y3349*
X2057Y3347*
X2055Y3346*
X2053Y3345*
X2052Y3343*
X2051Y3341*
X2050Y3339*
X2049Y3337*
X2049Y3335*
X2049Y3333*
Y3331*
X2049Y3328*
X2049Y3326*
X2050Y3324*
X2051Y3322*
X2052Y3320*
X2053Y3319*
X2055Y3317*
X2057Y3316*
X2059Y3315*
X2061Y3314*
X2063Y3313*
X2065Y3312*
X2067Y3312*
X2069*
X2071Y3312*
X2073Y3313*
X2075Y3313*
X2087Y3301*
X2089Y3300*
X2090Y3299*
X2091Y3299*
X2093Y3299*
X2131*
X2132Y3298*
X2133Y3297*
X2134Y3296*
X2136Y3295*
X2137Y3294*
X2139Y3294*
X2140Y3294*
X2142*
X2144Y3294*
X2145Y3294*
X2147Y3295*
X2148Y3296*
X2150Y3297*
X2151Y3298*
X2152Y3299*
X2153Y3301*
X2153Y3302*
X2154Y3304*
X2154Y3306*
Y3307*
X2154Y3309*
X2153Y3311*
X2153Y3312*
X2152Y3314*
X2151Y3315*
X2150Y3316*
X2148Y3317*
X2147Y3318*
X2145Y3319*
X2144Y3319*
X2142Y3319*
X2140*
X2139Y3319*
X2137Y3319*
X2136Y3318*
X2134Y3317*
X2133Y3316*
X2132Y3315*
X2131Y3315*
X2096*
X2086Y3325*
X2087Y3326*
X2087Y3328*
X2087Y3331*
Y3333*
X2087Y3335*
X2087Y3337*
X2086Y3339*
X2085Y3341*
X2084Y3343*
X2083Y3345*
X2081Y3346*
X2079Y3347*
X2077Y3349*
X2075Y3350*
X2073Y3350*
X2071Y3351*
X2069Y3351*
G37*
G36*
X1819Y3330D02*
X1817D01*
X1814Y3330*
X1812Y3329*
X1809Y3328*
X1807Y3327*
X1804Y3326*
X1802Y3324*
X1801Y3322*
X1799Y3320*
X1797Y3318*
X1796Y3316*
X1795Y3313*
X1795Y3311*
X1795Y3308*
Y3305*
X1795Y3303*
X1795Y3300*
X1796Y3298*
X1797Y3295*
X1799Y3293*
X1801Y3291*
X1802Y3289*
X1804Y3287*
X1807Y3286*
X1809Y3285*
X1812Y3284*
X1814Y3283*
X1817Y3283*
X1819*
X1822Y3283*
X1825Y3284*
X1827Y3285*
X1829Y3286*
X1832Y3287*
X1834Y3289*
X1836Y3291*
X1837Y3293*
X1839Y3295*
X1840Y3298*
X1841Y3300*
X1841Y3303*
X1841Y3305*
Y3308*
X1841Y3311*
X1841Y3313*
X1840Y3316*
X1839Y3318*
X1837Y3320*
X1836Y3322*
X1834Y3324*
X1832Y3326*
X1829Y3327*
X1827Y3328*
X1825Y3329*
X1822Y3330*
X1819Y3330*
G37*
G36*
X1574Y3403D02*
X1571D01*
X1568Y3403*
X1565Y3402*
X1561Y3401*
X1558Y3400*
X1555Y3399*
X1553Y3397*
X1550Y3395*
X1547Y3393*
X1545Y3391*
X1543Y3388*
X1541Y3386*
X1540Y3383*
X1538Y3380*
X1537Y3377*
X1536Y3374*
X1536Y3371*
X1535Y3367*
Y3364*
X1536Y3361*
X1536Y3358*
X1537Y3354*
X1538Y3351*
X1540Y3348*
X1541Y3346*
X1543Y3343*
X1545Y3340*
X1547Y3338*
X1550Y3336*
X1553Y3334*
X1555Y3332*
X1558Y3331*
X1561Y3330*
X1565Y3329*
X1565Y3329*
Y3305*
X1558*
Y3277*
X1588*
Y3305*
X1581*
Y3329*
X1581Y3329*
X1584Y3330*
X1587Y3331*
X1590Y3332*
X1593Y3334*
X1596Y3336*
X1598Y3338*
X1600Y3340*
X1602Y3343*
X1604Y3346*
X1606Y3348*
X1607Y3351*
X1608Y3354*
X1609Y3358*
X1610Y3361*
X1610Y3364*
Y3367*
X1610Y3371*
X1609Y3374*
X1608Y3377*
X1607Y3380*
X1606Y3383*
X1604Y3386*
X1602Y3388*
X1600Y3391*
X1598Y3393*
X1596Y3395*
X1593Y3397*
X1590Y3399*
X1587Y3400*
X1584Y3401*
X1581Y3402*
X1578Y3403*
X1574Y3403*
G37*
G36*
X2119Y3290D02*
X2117D01*
X2114Y3290*
X2112Y3289*
X2109Y3288*
X2107Y3287*
X2104Y3286*
X2102Y3284*
X2101Y3282*
X2099Y3280*
X2097Y3278*
X2096Y3276*
X2095Y3273*
X2095Y3271*
X2095Y3268*
Y3265*
X2095Y3263*
X2095Y3260*
X2096Y3258*
X2097Y3255*
X2099Y3253*
X2101Y3251*
X2102Y3249*
X2104Y3247*
X2107Y3246*
X2109Y3245*
X2112Y3244*
X2114Y3243*
X2117Y3243*
X2119*
X2122Y3243*
X2125Y3244*
X2127Y3245*
X2129Y3246*
X2132Y3247*
X2134Y3249*
X2136Y3251*
X2137Y3253*
X2139Y3255*
X2140Y3258*
X2141Y3260*
X2141Y3263*
X2141Y3265*
Y3268*
X2141Y3271*
X2141Y3273*
X2140Y3276*
X2139Y3278*
X2137Y3280*
X2136Y3282*
X2134Y3284*
X2132Y3286*
X2129Y3287*
X2127Y3288*
X2125Y3289*
X2122Y3290*
X2119Y3290*
G37*
G36*
X1869Y3301D02*
X1867D01*
X1865Y3301*
X1863Y3300*
X1861Y3300*
X1859Y3299*
X1857Y3297*
X1855Y3296*
X1853Y3295*
X1852Y3293*
X1851Y3291*
X1850Y3289*
X1849Y3287*
X1849Y3285*
X1849Y3283*
Y3280*
X1849Y3278*
X1849Y3276*
X1850Y3274*
X1851Y3272*
X1852Y3270*
X1853Y3269*
X1855Y3267*
X1857Y3266*
X1859Y3265*
X1861Y3264*
X1863Y3263*
X1865Y3262*
X1867Y3262*
X1869*
X1871Y3262*
X1877Y3255*
Y3248*
X1877Y3248*
X1877Y3246*
X1876Y3244*
Y3243*
X1877Y3241*
X1877Y3239*
X1878Y3238*
X1879Y3236*
X1880Y3235*
X1881Y3234*
X1882Y3233*
X1884Y3232*
X1885Y3231*
X1887Y3231*
X1888Y3231*
X1890*
X1892Y3231*
X1893Y3231*
X1895Y3232*
X1896Y3233*
X1898Y3234*
X1899Y3235*
X1900Y3236*
X1901Y3238*
X1901Y3239*
X1902Y3241*
X1902Y3243*
Y3244*
X1902Y3246*
X1901Y3248*
X1901Y3248*
Y3260*
X1901Y3262*
X1901Y3264*
X1900Y3266*
X1899Y3267*
X1898Y3269*
X1887Y3279*
X1887Y3280*
Y3283*
X1887Y3285*
X1887Y3287*
X1886Y3289*
X1885Y3291*
X1884Y3293*
X1883Y3295*
X1881Y3296*
X1879Y3297*
X1877Y3299*
X1875Y3300*
X1873Y3300*
X1871Y3301*
X1869Y3301*
G37*
G36*
X1588Y3265D02*
X1558D01*
Y3237*
X1560Y3233*
X1560Y3232*
Y3230*
X1560Y3228*
X1561Y3227*
X1561Y3225*
X1562Y3224*
X1563Y3222*
X1564Y3221*
X1566Y3220*
X1567Y3219*
X1569Y3219*
X1570Y3218*
X1572Y3218*
X1574*
X1575Y3218*
X1577Y3219*
X1578Y3219*
X1580Y3220*
X1581Y3221*
X1582Y3222*
X1583Y3224*
X1584Y3225*
X1585Y3227*
X1585Y3228*
X1586Y3230*
Y3232*
X1585Y3233*
X1588Y3237*
Y3265*
G37*
G36*
X2019Y3301D02*
X2017D01*
X2015Y3301*
X2013Y3300*
X2011Y3300*
X2009Y3299*
X2007Y3297*
X2005Y3296*
X2003Y3295*
X2002Y3293*
X2001Y3291*
X2000Y3289*
X1999Y3287*
X1999Y3285*
X1999Y3283*
Y3280*
X1999Y3278*
X1999Y3276*
X2000Y3275*
X1970Y3245*
X1969Y3244*
X1969Y3242*
X1968Y3241*
X1968Y3239*
Y3187*
X1968Y3186*
X1968Y3185*
X1968Y3183*
X1968Y3182*
X1968Y3181*
X1965Y3179*
X1956Y3188*
Y3216*
X1956Y3218*
X1956Y3219*
X1955Y3220*
X1954Y3222*
X1926Y3250*
Y3264*
X1927Y3265*
X1929Y3266*
X1931Y3267*
X1933Y3269*
X1934Y3270*
X1935Y3272*
X1936Y3274*
X1937Y3276*
X1937Y3278*
X1937Y3280*
Y3283*
X1937Y3285*
X1937Y3287*
X1936Y3289*
X1935Y3291*
X1934Y3293*
X1933Y3295*
X1931Y3296*
X1929Y3297*
X1927Y3299*
X1925Y3300*
X1923Y3300*
X1921Y3301*
X1919Y3301*
X1917*
X1915Y3301*
X1913Y3300*
X1911Y3300*
X1909Y3299*
X1907Y3297*
X1905Y3296*
X1903Y3295*
X1902Y3293*
X1901Y3291*
X1900Y3289*
X1899Y3287*
X1899Y3285*
X1899Y3283*
Y3280*
X1899Y3278*
X1899Y3276*
X1900Y3274*
X1901Y3272*
X1902Y3270*
X1903Y3269*
X1905Y3267*
X1907Y3266*
X1909Y3265*
X1910Y3264*
Y3246*
X1910Y3245*
X1911Y3243*
X1911Y3242*
X1912Y3241*
X1940Y3213*
Y3185*
X1941Y3183*
X1941Y3182*
X1942Y3180*
X1943Y3179*
X2021Y3100*
X2023Y3099*
X2024Y3098*
X2026Y3098*
X2027Y3098*
X2049*
X2050Y3094*
X2049Y3094*
X2047Y3093*
X2046Y3092*
X2045Y3091*
X2023*
X2022Y3091*
X2020Y3091*
X2019Y3090*
X2018Y3089*
X2017Y3088*
X2010Y3082*
X2007Y3084*
X2007Y3084*
X2008Y3086*
X2008Y3088*
X2008Y3089*
Y3091*
X2008Y3093*
X2008Y3094*
X2007Y3096*
X2006Y3097*
X2005Y3099*
X2004Y3100*
X2003Y3101*
X2001Y3102*
X2000Y3102*
X1998Y3103*
X1996Y3103*
X1995*
X1993Y3103*
X1991Y3102*
X1990Y3102*
X1988Y3101*
X1987Y3100*
X1986Y3099*
X1985Y3097*
X1985Y3097*
X1982Y3097*
X1980Y3097*
X1980Y3098*
X1980Y3100*
X1979Y3101*
X1978Y3102*
X1976Y3104*
X1975Y3105*
X1974Y3105*
X1972Y3106*
X1971Y3107*
X1969Y3107*
X1967*
X1966Y3107*
X1964Y3106*
X1962Y3105*
X1961Y3105*
X1960Y3104*
X1958Y3102*
X1957Y3101*
X1957Y3101*
X1956Y3101*
X1953Y3102*
Y3103*
X1953Y3104*
X1953Y3106*
X1952Y3108*
X1951Y3109*
X1950Y3110*
X1949Y3112*
X1948Y3113*
X1946Y3113*
X1945Y3114*
X1943Y3114*
X1941Y3115*
X1940*
X1938Y3114*
X1936Y3114*
X1935Y3113*
X1933Y3113*
X1932Y3112*
X1931Y3110*
X1931Y3110*
X1928Y3110*
X1927Y3111*
X1926Y3111*
X1926Y3112*
X1926Y3113*
X1925Y3114*
X1891Y3147*
X1890Y3148*
X1889Y3149*
X1888Y3149*
X1887Y3149*
X1885Y3150*
X1527*
X1526Y3149*
X1525Y3149*
X1523Y3149*
X1522Y3148*
X1521Y3147*
X1413Y3039*
X1065*
X1064Y3041*
X1063Y3044*
X1062Y3047*
X1060Y3050*
X1059Y3052*
X1057Y3055*
X1055Y3057*
X1052Y3060*
X1050Y3062*
X1047Y3063*
X1044Y3065*
X1041Y3066*
X1038Y3067*
X1035Y3068*
X1031Y3068*
X1028Y3068*
X1018*
X1015Y3068*
X1012Y3068*
X1009Y3067*
X1005Y3066*
X1002Y3065*
X999Y3063*
X997Y3062*
X994Y3060*
X992Y3057*
X990Y3055*
X988Y3052*
X986Y3050*
X984Y3047*
X983Y3044*
X982Y3041*
X981Y3038*
X981Y3034*
X981Y3031*
X981Y3028*
X981Y3025*
X982Y3021*
X983Y3018*
X984Y3015*
X986Y3012*
X988Y3010*
X990Y3007*
X992Y3005*
X994Y3002*
X997Y3000*
X999Y2999*
X1002Y2997*
X1005Y2996*
X1009Y2995*
X1012Y2994*
X1015Y2994*
X1018Y2994*
X1028*
X1031Y2994*
X1035Y2994*
X1038Y2995*
X1041Y2996*
X1044Y2997*
X1047Y2999*
X1050Y3000*
X1052Y3002*
X1055Y3005*
X1057Y3007*
X1059Y3010*
X1060Y3012*
X1062Y3015*
X1063Y3018*
X1064Y3021*
X1065Y3023*
X1417*
X1418Y3023*
X1419Y3023*
X1421Y3024*
X1422Y3024*
X1423Y3025*
X1530Y3133*
X1792*
X1793Y3129*
X1793Y3129*
X1792Y3128*
X1791Y3127*
X1791Y3127*
X1791Y3125*
Y3070*
X1791Y3069*
X1791Y3068*
X1792Y3068*
X1793Y3067*
X1794Y3067*
X1795Y3066*
X1799*
Y3066*
X1799Y3064*
X1799Y3063*
X1800Y3062*
X1801Y3060*
X1802Y3059*
X1802Y3059*
Y3058*
X1802Y3056*
X1802Y3054*
X1803Y3053*
X1804Y3051*
X1805Y3050*
X1806Y3049*
X1807Y3048*
X1809Y3047*
X1810Y3046*
X1810Y3046*
Y3018*
X1811Y3018*
Y2989*
X1811Y2988*
X1811Y2987*
X1811Y2986*
X1812Y2985*
X1813Y2985*
X1814Y2984*
X1815Y2984*
X1816Y2984*
X1825*
X1826Y2984*
X1827Y2984*
X1828Y2985*
X1829Y2985*
X1829Y2986*
X1830Y2987*
X1830Y2988*
X1830Y2989*
Y3018*
X1830Y3018*
Y3051*
X1830Y3053*
X1830Y3054*
X1829Y3056*
X1828Y3057*
X1827Y3058*
X1827Y3058*
Y3059*
X1827Y3061*
X1827Y3063*
X1826Y3064*
X1825Y3066*
X1824Y3067*
X1823Y3068*
X1822Y3069*
X1822Y3069*
X1822Y3070*
Y3125*
X1822Y3127*
X1822Y3127*
X1821Y3128*
X1820Y3129*
X1820Y3129*
X1821Y3133*
X1882*
X1911Y3104*
Y3087*
X1907Y3087*
X1906Y3087*
X1906Y3089*
X1905Y3090*
X1898Y3096*
X1898Y3097*
Y3099*
X1898Y3100*
X1897Y3102*
X1897Y3104*
X1896Y3105*
X1895Y3106*
X1894Y3108*
X1892Y3109*
X1891Y3109*
X1889Y3110*
X1888Y3111*
X1886Y3111*
X1884*
X1883Y3111*
X1881Y3110*
X1880Y3109*
X1878Y3109*
X1877Y3108*
X1876Y3106*
X1875Y3105*
X1874Y3104*
X1873Y3102*
X1873Y3100*
X1873Y3099*
Y3097*
X1873Y3095*
X1873Y3094*
X1874Y3092*
X1875Y3091*
X1876Y3089*
X1877Y3088*
X1878Y3087*
X1880Y3086*
X1881Y3086*
X1883Y3085*
X1884Y3085*
X1886*
X1887Y3085*
X1891Y3081*
Y3053*
X1889Y3052*
X1887Y3051*
X1887Y3052*
X1886Y3052*
X1885Y3053*
X1884Y3053*
X1875*
X1874Y3053*
X1873Y3052*
X1872Y3052*
X1870Y3051*
X1869*
X1867Y3052*
X1866Y3052*
X1865Y3053*
X1864Y3053*
X1855*
X1854Y3053*
X1853Y3052*
X1852Y3052*
X1851Y3051*
X1851Y3050*
X1850Y3049*
X1850Y3048*
X1850Y3047*
Y2989*
X1850Y2988*
X1850Y2987*
X1851Y2986*
X1851Y2985*
X1852Y2985*
Y2970*
X1852Y2968*
X1852Y2967*
X1853Y2966*
X1854Y2964*
X1884Y2935*
X1885Y2934*
X1886Y2933*
X1888Y2933*
X1889Y2933*
X1942*
X1943Y2932*
X1944Y2931*
X1945Y2930*
X1947Y2929*
X1948Y2928*
X1950Y2928*
X1951Y2928*
X1953*
X1955Y2928*
X1956Y2928*
X1958Y2929*
X1959Y2930*
X1961Y2931*
X1962Y2932*
X1963Y2933*
X1964Y2935*
X1964Y2936*
X1965Y2938*
X1965Y2940*
Y2941*
X1965Y2943*
X1964Y2945*
X1964Y2946*
X1963Y2948*
X1962Y2949*
X1961Y2950*
X1959Y2951*
X1958Y2952*
X1956Y2953*
X1955Y2953*
X1953Y2953*
X1951*
X1950Y2953*
X1948Y2953*
X1947Y2952*
X1945Y2951*
X1944Y2950*
X1943Y2949*
X1942Y2948*
X1938*
X1938Y2952*
X1938Y2953*
X1940Y2953*
X1941Y2954*
X1942Y2956*
X1943Y2957*
X1944Y2958*
X1945Y2960*
X1945Y2962*
X1945Y2963*
Y2965*
X1945Y2967*
X1945Y2968*
X1944Y2970*
X1943Y2971*
X1942Y2973*
X1941Y2974*
X1940Y2975*
X1938Y2976*
X1937Y2976*
X1935Y2977*
X1933Y2977*
X1932*
X1930Y2977*
X1928Y2976*
X1927Y2976*
X1925Y2975*
X1924Y2974*
X1923Y2973*
X1923Y2972*
X1896*
X1889Y2980*
X1889Y2982*
X1890Y2983*
X1892Y2984*
X1893Y2984*
X1894Y2984*
X1895Y2984*
X1904*
X1905Y2984*
X1906Y2984*
X1907Y2985*
X1908Y2985*
X1910*
X1911Y2985*
X1912Y2984*
X1913Y2984*
X1914Y2984*
X1923*
X1924Y2984*
X1925Y2984*
X1926Y2985*
X1928Y2985*
X1930*
X1931Y2985*
X1932Y2984*
X1933Y2984*
X1934Y2984*
X1943*
X1944Y2984*
X1945Y2984*
X1946Y2985*
X1947Y2985*
X1949*
X1951Y2985*
X1952Y2984*
X1953Y2984*
X1954Y2984*
X1963*
X1964Y2984*
X1965Y2984*
X1966Y2985*
X1967Y2985*
X1969*
X1970Y2985*
X1971Y2984*
X1972Y2984*
X1973Y2984*
X1982*
X1983Y2984*
X1984Y2984*
X1985Y2985*
X1987Y2985*
X1989*
X1990Y2985*
X1991Y2984*
X1992Y2984*
X1993Y2984*
X2002*
X2003Y2984*
X2004Y2984*
X2005Y2985*
X2006Y2985*
X2008*
X2010Y2985*
X2011Y2984*
X2012Y2984*
X2013Y2984*
X2022*
X2023Y2984*
X2023Y2984*
X2024Y2984*
X2027Y2983*
X2028Y2982*
X2028Y2980*
X1989Y2941*
X1989Y2941*
X1987*
X1985Y2941*
X1984Y2941*
X1982Y2940*
X1981Y2939*
X1979Y2938*
X1978Y2937*
X1977Y2936*
X1976Y2934*
X1976Y2933*
X1975Y2931*
X1975Y2929*
Y2928*
X1975Y2926*
X1976Y2925*
X1976Y2923*
X1977Y2922*
X1978Y2920*
X1979Y2919*
X1981Y2918*
X1982Y2917*
X1984Y2916*
X1985Y2916*
X1987Y2916*
X1989*
X1990Y2916*
X1992Y2916*
X1993Y2917*
X1995Y2918*
X1996Y2919*
X1997Y2920*
X1998Y2922*
X1999Y2923*
X2000Y2925*
X2000Y2926*
X2000Y2928*
Y2929*
X2000Y2930*
X2043Y2972*
X2043Y2973*
X2044Y2974*
X2048Y2973*
Y2960*
X2029Y2941*
X2028Y2941*
X2026*
X2025Y2941*
X2023Y2941*
X2021Y2940*
X2020Y2939*
X2019Y2938*
X2017Y2937*
X2016Y2936*
X2016Y2934*
X2015Y2933*
X2014Y2931*
X2014Y2929*
Y2928*
X2014Y2926*
X2015Y2925*
X2016Y2923*
X2016Y2922*
X2017Y2920*
X2019Y2919*
X2020Y2918*
X2021Y2917*
X2023Y2916*
X2025Y2916*
X2026Y2916*
X2028*
X2030Y2916*
X2031Y2916*
X2033Y2917*
X2034Y2918*
X2036Y2919*
X2037Y2920*
X2038Y2922*
X2039Y2923*
X2039Y2925*
X2040Y2926*
X2040Y2928*
Y2929*
X2040Y2930*
X2061Y2952*
X2062Y2953*
X2063Y2954*
X2063Y2956*
X2064Y2957*
Y2981*
X2064Y2982*
X2065Y2982*
X2068Y2980*
Y2938*
X2064Y2933*
X2063Y2934*
X2062*
X2060Y2933*
X2058Y2933*
X2057Y2932*
X2055Y2931*
X2054Y2930*
X2053Y2929*
X2052Y2928*
X2051Y2926*
X2050Y2925*
X2050Y2923*
X2050Y2922*
Y2920*
X2050Y2918*
X2050Y2917*
X2051Y2915*
X2052Y2914*
X2053Y2912*
X2054Y2911*
X2055Y2910*
X2057Y2909*
X2058Y2909*
X2060Y2908*
X2062Y2908*
X2063*
X2065Y2908*
X2067Y2909*
X2068Y2909*
X2070Y2910*
X2071Y2911*
X2072Y2912*
X2073Y2914*
X2074Y2915*
X2075Y2917*
X2075Y2918*
X2075Y2920*
Y2922*
X2075Y2922*
X2082Y2929*
X2083Y2930*
X2084Y2932*
X2084Y2932*
X2088Y2931*
Y2918*
X2047Y2878*
X1893*
X1783Y2987*
Y3031*
X1783Y3032*
X1783Y3034*
X1782Y3035*
X1782Y3036*
X1781Y3037*
X1718Y3100*
X1717Y3101*
X1716Y3101*
X1715Y3102*
X1713Y3102*
X1712Y3102*
X1547*
X1545Y3102*
X1544Y3102*
X1543Y3101*
X1542Y3101*
X1541Y3100*
X1382Y2941*
X1065*
X1064Y2942*
X1063Y2945*
X1062Y2948*
X1060Y2951*
X1059Y2954*
X1057Y2957*
X1055Y2959*
X1052Y2961*
X1050Y2963*
X1047Y2965*
X1044Y2967*
X1041Y2968*
X1038Y2969*
X1035Y2969*
X1031Y2970*
X1028Y2970*
X1018*
X1015Y2970*
X1012Y2969*
X1009Y2969*
X1005Y2968*
X1002Y2967*
X999Y2965*
X997Y2963*
X994Y2961*
X992Y2959*
X990Y2957*
X988Y2954*
X986Y2951*
X984Y2948*
X983Y2945*
X982Y2942*
X981Y2939*
X981Y2936*
X981Y2933*
X981Y2929*
X981Y2926*
X982Y2923*
X983Y2920*
X984Y2917*
X986Y2914*
X988Y2911*
X990Y2909*
X992Y2906*
X994Y2904*
X997Y2902*
X999Y2900*
X1002Y2899*
X1005Y2897*
X1009Y2896*
X1012Y2896*
X1015Y2895*
X1018Y2895*
X1028*
X1031Y2895*
X1035Y2896*
X1038Y2896*
X1041Y2897*
X1044Y2899*
X1047Y2900*
X1050Y2902*
X1052Y2904*
X1055Y2906*
X1057Y2909*
X1059Y2911*
X1060Y2914*
X1062Y2917*
X1063Y2920*
X1064Y2923*
X1065Y2924*
X1385*
X1387Y2924*
X1388Y2925*
X1389Y2925*
X1390Y2926*
X1391Y2927*
X1550Y3086*
X1709*
X1767Y3028*
Y2984*
X1767Y2982*
X1767Y2981*
X1768Y2980*
X1768Y2979*
X1769Y2978*
X1883Y2864*
X1884Y2863*
X1886Y2862*
X1887Y2862*
X1888Y2861*
X1889Y2861*
X2051*
X2052Y2861*
X2053Y2862*
X2054Y2862*
X2056Y2863*
X2057Y2864*
X2102Y2909*
X2103Y2910*
X2103Y2911*
X2104Y2912*
X2104Y2914*
X2104Y2915*
Y2983*
X2105Y2984*
X2108Y2985*
Y2985*
X2109Y2984*
X2110Y2984*
X2111Y2984*
X2120*
X2121Y2984*
X2122Y2984*
X2123Y2985*
X2124Y2985*
X2125Y2986*
X2125Y2987*
X2125Y2988*
X2126Y2989*
Y3047*
X2125Y3048*
X2125Y3049*
X2125Y3050*
X2124Y3051*
Y3096*
X2124Y3097*
X2124Y3099*
X2123Y3100*
X2122Y3101*
X2122Y3102*
X2088Y3135*
X2087Y3136*
X2086Y3137*
X2085Y3137*
X2083Y3138*
X2082Y3138*
X2034*
X1984Y3188*
Y3236*
X2011Y3263*
X2013Y3263*
X2015Y3262*
X2017Y3262*
X2019*
X2021Y3262*
X2023Y3263*
X2025Y3264*
X2027Y3265*
X2029Y3266*
X2031Y3267*
X2033Y3269*
X2034Y3270*
X2035Y3272*
X2036Y3274*
X2037Y3276*
X2037Y3278*
X2037Y3280*
Y3283*
X2037Y3285*
X2037Y3287*
X2036Y3289*
X2035Y3291*
X2034Y3293*
X2033Y3295*
X2031Y3296*
X2029Y3297*
X2027Y3299*
X2025Y3300*
X2023Y3300*
X2021Y3301*
X2019Y3301*
G37*
G36*
X2045Y3257D02*
X2041D01*
X2037Y3257*
X2033Y3256*
X2029Y3255*
X2025Y3254*
X2022Y3253*
X2018Y3251*
X2015Y3249*
X2012Y3246*
X2009Y3244*
X2006Y3241*
X2003Y3238*
X2001Y3235*
X1999Y3231*
X1997Y3228*
X1995Y3224*
X1994Y3220*
X1993Y3216*
X1993Y3213*
X1992Y3209*
Y3205*
X1993Y3201*
X1993Y3197*
X1994Y3193*
X1995Y3189*
X1997Y3185*
X1999Y3182*
X2001Y3178*
X2003Y3175*
X2006Y3172*
X2009Y3169*
X2012Y3167*
X2015Y3164*
X2018Y3162*
X2022Y3161*
X2025Y3159*
X2029Y3158*
X2033Y3157*
X2037Y3156*
X2041Y3156*
X2045*
X2049Y3156*
X2053Y3157*
X2057Y3158*
X2061Y3159*
X2064Y3161*
X2068Y3162*
X2071Y3164*
X2074Y3167*
X2077Y3169*
X2080Y3172*
X2083Y3175*
X2085Y3178*
X2087Y3182*
X2089Y3185*
X2091Y3189*
X2092Y3193*
X2093Y3197*
X2093Y3201*
X2094Y3205*
Y3209*
X2093Y3213*
X2093Y3216*
X2092Y3220*
X2091Y3224*
X2089Y3228*
X2087Y3231*
X2085Y3235*
X2083Y3238*
X2080Y3241*
X2077Y3244*
X2074Y3246*
X2071Y3249*
X2068Y3251*
X2064Y3253*
X2061Y3254*
X2057Y3255*
X2053Y3256*
X2049Y3257*
X2045Y3257*
G37*
G36*
X1820D02*
X1816D01*
X1812Y3257*
X1808Y3256*
X1804Y3255*
X1800Y3254*
X1797Y3253*
X1793Y3251*
X1790Y3249*
X1787Y3246*
X1784Y3244*
X1781Y3241*
X1778Y3238*
X1776Y3235*
X1774Y3231*
X1772Y3228*
X1770Y3224*
X1769Y3220*
X1768Y3216*
X1768Y3213*
X1767Y3209*
Y3205*
X1768Y3201*
X1768Y3197*
X1769Y3193*
X1770Y3189*
X1772Y3185*
X1774Y3182*
X1776Y3178*
X1778Y3175*
X1781Y3172*
X1784Y3169*
X1787Y3167*
X1790Y3164*
X1793Y3162*
X1797Y3161*
X1800Y3159*
X1804Y3158*
X1808Y3157*
X1812Y3156*
X1816Y3156*
X1820*
X1824Y3156*
X1828Y3157*
X1832Y3158*
X1836Y3159*
X1839Y3161*
X1843Y3162*
X1846Y3164*
X1849Y3167*
X1852Y3169*
X1855Y3172*
X1858Y3175*
X1860Y3178*
X1862Y3182*
X1864Y3185*
X1866Y3189*
X1867Y3193*
X1868Y3197*
X1868Y3201*
X1869Y3205*
Y3209*
X1868Y3213*
X1868Y3216*
X1867Y3220*
X1866Y3224*
X1864Y3228*
X1862Y3231*
X1860Y3235*
X1858Y3238*
X1855Y3241*
X1852Y3244*
X1849Y3246*
X1846Y3249*
X1843Y3251*
X1839Y3253*
X1836Y3254*
X1832Y3255*
X1828Y3256*
X1824Y3257*
X1820Y3257*
G37*
G36*
X1655Y3055D02*
X1580D01*
Y3003*
X1655*
Y3016*
X1672*
X1685Y3004*
Y2939*
X1683Y2935*
X1655*
Y2948*
X1580*
Y2897*
X1655*
Y2908*
X1672*
X1702Y2878*
X1703Y2877*
X1704Y2876*
X1706Y2876*
X1707Y2876*
X1706Y2872*
X1690*
X1686Y2875*
X1685Y2876*
X1684Y2877*
X1682Y2877*
X1681Y2877*
X1618*
X1616Y2877*
X1615Y2877*
X1613Y2876*
X1612Y2875*
X1611Y2874*
X1611Y2874*
X1579*
Y2850*
X1656*
Y2862*
X1677*
X1681Y2858*
X1682Y2857*
X1683Y2856*
X1685Y2856*
X1687Y2856*
X1701*
X1701Y2852*
X1701Y2852*
X1699Y2851*
X1698Y2851*
X1697Y2850*
X1683Y2836*
X1682Y2835*
X1681Y2833*
X1681Y2832*
X1681Y2830*
Y2794*
X1669Y2783*
X1618*
X1616Y2783*
X1615Y2782*
X1613Y2782*
X1612Y2781*
X1611Y2779*
X1611Y2779*
X1579*
Y2755*
X1656*
Y2767*
X1673*
X1674Y2767*
X1676Y2768*
X1677Y2769*
X1678Y2770*
X1694Y2785*
X1695Y2786*
X1696Y2788*
X1696Y2789*
X1696Y2791*
Y2827*
X1706Y2836*
X1710*
X1711Y2834*
X1711Y2832*
X1711Y2832*
X1711Y2831*
X1710Y2830*
X1710Y2829*
Y2820*
X1710Y2819*
X1711Y2818*
X1711Y2817*
X1712Y2815*
Y2814*
X1711Y2812*
X1711Y2811*
X1710Y2810*
X1710Y2809*
Y2800*
X1710Y2799*
X1711Y2798*
X1711Y2797*
X1712Y2796*
Y2794*
X1711Y2792*
X1711Y2791*
X1710Y2790*
X1710Y2789*
Y2781*
X1710Y2779*
X1711Y2778*
X1711Y2777*
X1712Y2776*
Y2774*
X1711Y2773*
X1711Y2772*
X1710Y2771*
X1710Y2770*
Y2761*
X1710Y2760*
X1711Y2759*
X1711Y2758*
X1712Y2756*
Y2754*
X1711Y2753*
X1711Y2752*
X1710Y2751*
X1710Y2750*
Y2741*
X1710Y2740*
X1711Y2739*
X1711Y2738*
X1712Y2737*
X1713Y2737*
X1713Y2736*
X1714Y2736*
X1716Y2736*
X1774*
X1775Y2736*
X1776Y2736*
X1777Y2737*
X1777Y2737*
X1829*
X1905Y2661*
Y2631*
X1904Y2631*
X1903Y2630*
X1902Y2629*
X1901Y2627*
X1901Y2626*
X1900Y2624*
X1900Y2622*
Y2621*
X1900Y2619*
X1901Y2617*
X1901Y2616*
X1902Y2614*
X1903Y2613*
X1904Y2612*
X1906Y2611*
X1907Y2610*
X1908Y2610*
X1909Y2607*
X1909Y2605*
X1909Y2605*
X1907Y2605*
X1907Y2605*
X1906Y2605*
X1905Y2606*
X1904Y2606*
X1895*
X1894Y2606*
X1893Y2605*
X1892Y2605*
X1890Y2604*
X1888*
X1887Y2605*
X1886Y2605*
X1885Y2606*
X1884Y2606*
X1875*
X1874Y2606*
X1873Y2605*
X1872Y2605*
X1870Y2604*
X1869*
X1867Y2605*
X1866Y2605*
X1865Y2606*
X1864Y2606*
X1855*
X1854Y2606*
X1853Y2605*
X1852Y2605*
X1851Y2604*
X1849*
X1848Y2605*
X1847Y2605*
X1846Y2606*
X1844Y2606*
X1836*
X1835Y2606*
X1834Y2605*
X1833Y2605*
X1831Y2604*
X1829*
X1828Y2605*
X1827Y2605*
X1826Y2606*
X1825Y2606*
X1816*
X1815Y2606*
X1814Y2605*
X1813Y2605*
X1812Y2604*
X1811Y2603*
X1811Y2602*
X1811Y2601*
X1811Y2600*
Y2542*
X1811Y2541*
X1811Y2540*
X1811Y2539*
X1812Y2538*
X1813Y2538*
X1814Y2537*
X1815Y2537*
X1816Y2537*
X1825*
X1826Y2537*
X1827Y2537*
X1828Y2538*
X1829Y2538*
X1831*
X1833Y2538*
X1834Y2537*
X1835Y2537*
X1836Y2537*
X1844*
X1845Y2536*
X1846Y2534*
X1847Y2533*
X1846Y2533*
X1846Y2531*
X1845Y2530*
X1845Y2528*
Y2526*
X1844Y2525*
X1844Y2524*
X1843Y2522*
X1843Y2521*
Y2518*
X1839*
Y2489*
Y2486*
Y2458*
X1867*
Y2486*
Y2489*
Y2518*
X1868Y2520*
X1869Y2521*
X1870Y2523*
X1870Y2525*
X1871Y2526*
Y2528*
X1870Y2530*
X1870Y2531*
X1870Y2532*
Y2535*
X1870Y2535*
X1871Y2536*
X1874Y2537*
X1874Y2537*
X1875Y2537*
X1884*
X1885Y2537*
X1886Y2537*
X1887Y2538*
X1887Y2538*
X1889Y2538*
X1891Y2537*
Y2532*
X1890Y2528*
X1888*
X1887Y2528*
X1885Y2527*
X1884Y2527*
X1882Y2526*
X1881Y2525*
X1880Y2524*
X1879Y2522*
X1878Y2521*
X1877Y2519*
X1877Y2518*
X1876Y2516*
Y2514*
X1877Y2513*
X1877Y2511*
X1878Y2510*
X1879Y2508*
X1880Y2507*
X1881Y2506*
X1882Y2505*
X1884Y2504*
X1885Y2503*
X1887Y2503*
X1888Y2502*
X1890*
X1892Y2503*
X1893Y2503*
X1895Y2504*
X1896Y2505*
X1898Y2506*
X1899Y2507*
X1900Y2508*
X1901Y2510*
X1901Y2511*
X1902Y2513*
X1902Y2514*
Y2516*
X1902Y2517*
X1905Y2520*
X1906Y2521*
X1906Y2522*
X1907Y2524*
X1907Y2524*
X1911Y2524*
Y2454*
X1911Y2453*
X1911Y2451*
X1912Y2450*
X1913Y2449*
X1974Y2388*
X1975Y2387*
X1977Y2386*
X1978Y2385*
X1980Y2385*
X2146*
X2234Y2297*
X2235Y2296*
X2237Y2295*
X2238Y2295*
X2240Y2295*
X2565*
X2677Y2183*
Y2108*
X2676Y2108*
X2675Y2106*
X2674Y2105*
X2673Y2104*
X2672Y2102*
X2672Y2100*
X2672Y2099*
Y2097*
X2672Y2095*
X2672Y2095*
X2671Y2092*
X2669Y2091*
X2669*
Y2065*
X2677*
Y2045*
X2670*
Y2017*
X2698*
X2698*
X2701Y2014*
X2700Y2011*
X2698*
X2696Y2011*
X2695Y2011*
X2693Y2010*
X2692Y2009*
X2688Y2005*
X2670*
Y1977*
X2688*
X2690Y1975*
Y1968*
X2687Y1965*
X2686Y1965*
X2686Y1965*
X2686Y1966*
X2685Y1966*
X2684Y1967*
X2683Y1967*
X2682Y1967*
X2675*
X2674Y1967*
X2673Y1967*
X2672Y1966*
X2671Y1966*
X2671Y1965*
X2670Y1964*
X2670Y1963*
X2670Y1963*
X2668Y1961*
X2666Y1960*
X2665Y1960*
X2663Y1961*
X2662Y1961*
X2660*
X2658Y1961*
X2657Y1960*
X2655Y1960*
X2654Y1959*
X2652Y1958*
X2651Y1957*
X2650Y1955*
X2649Y1954*
X2649Y1952*
X2648Y1951*
X2648Y1949*
Y1947*
X2648Y1946*
X2649Y1944*
X2649Y1943*
X2650Y1941*
X2651Y1940*
X2652Y1939*
X2654Y1938*
X2655Y1937*
X2657Y1936*
X2658Y1936*
X2660Y1936*
X2662*
X2663Y1936*
X2665Y1936*
X2666Y1937*
X2668Y1936*
X2670Y1934*
Y1931*
X2670Y1930*
X2670Y1929*
X2671Y1928*
X2671Y1927*
X2672Y1927*
X2673Y1926*
X2674Y1926*
X2675Y1926*
X2682*
X2683Y1926*
X2684Y1926*
X2685Y1927*
X2686Y1927*
X2686Y1927*
X2686Y1928*
X2688Y1928*
X2690Y1928*
X2691Y1927*
X2691Y1927*
X2692Y1927*
X2693Y1926*
X2694Y1926*
X2695Y1926*
X2702*
X2703Y1926*
X2704Y1926*
X2705Y1927*
X2706Y1927*
X2706Y1927*
X2706Y1928*
X2708Y1928*
X2710Y1928*
X2710Y1927*
X2711Y1927*
X2711Y1927*
X2712Y1926*
X2713Y1926*
X2714Y1926*
X2722*
X2723Y1926*
X2724Y1926*
X2725Y1927*
X2725Y1927*
X2726Y1928*
X2726Y1929*
X2727Y1930*
X2727Y1931*
Y1962*
X2727Y1963*
X2728Y1963*
X2729Y1965*
X2730Y1966*
X2730Y1968*
X2731Y1969*
X2731Y1971*
Y1973*
X2731Y1974*
X2730Y1976*
X2730Y1978*
X2729Y1979*
X2728Y1980*
X2726Y1982*
X2725Y1983*
X2724Y1983*
X2722Y1984*
X2721Y1985*
X2720Y1985*
X2720Y1989*
X2730*
Y2018*
X2704*
X2702*
X2700Y2021*
X2699Y2025*
Y2045*
X2692*
Y2065*
X2700*
Y2091*
X2700*
X2699Y2092*
X2697Y2095*
X2697Y2095*
X2697Y2097*
Y2099*
X2697Y2100*
X2697Y2102*
X2696Y2104*
X2695Y2105*
X2694Y2106*
X2693Y2108*
X2692Y2108*
Y2187*
X2692Y2188*
X2692Y2190*
X2691Y2191*
X2690Y2192*
X2574Y2308*
X2573Y2309*
X2571Y2310*
X2570Y2310*
X2568Y2311*
X2243*
X2155Y2399*
X2154Y2400*
X2152Y2401*
X2151Y2401*
X2149Y2401*
X1983*
X1927Y2458*
Y2489*
X1931Y2489*
X1931Y2488*
X1931Y2487*
X1932Y2485*
X1933Y2484*
X2006Y2411*
X2007Y2410*
X2008Y2410*
X2010Y2409*
X2011Y2409*
X2173*
X2180Y2403*
X2180Y2402*
Y2400*
X2180Y2399*
X2180Y2397*
X2181Y2395*
X2182Y2394*
X2183Y2393*
X2184Y2391*
X2185Y2390*
X2187Y2390*
X2188Y2389*
X2190Y2389*
X2192Y2388*
X2193*
X2195Y2389*
X2197Y2389*
X2198Y2390*
X2200Y2390*
X2201Y2391*
X2202Y2393*
X2203Y2394*
X2204Y2395*
X2205Y2397*
X2205Y2399*
X2205Y2400*
Y2402*
X2205Y2404*
X2205Y2405*
X2204Y2407*
X2203Y2408*
X2202Y2410*
X2201Y2411*
X2200Y2412*
X2198Y2413*
X2197Y2413*
X2195Y2414*
X2193Y2414*
X2192*
X2191Y2414*
X2182Y2422*
X2181Y2423*
X2180Y2424*
X2178Y2425*
X2177Y2425*
X2015*
X1946Y2493*
Y2537*
X1949Y2538*
X1950Y2538*
X1951Y2538*
X1952Y2537*
X1953Y2537*
X1954Y2537*
X1963*
X1964Y2537*
X1965Y2537*
X1966Y2538*
X1967Y2538*
X1969*
X1970Y2538*
X1971Y2537*
X1972Y2537*
X1973Y2537*
X1982*
X1983Y2537*
X1984Y2537*
X1985Y2538*
X1987Y2538*
X1989*
X1990Y2538*
X1991Y2537*
X1992Y2537*
X1993Y2537*
X2002*
X2003Y2537*
X2004Y2537*
X2005Y2538*
X2006Y2538*
X2007Y2538*
X2009Y2537*
Y2470*
X2009Y2468*
X2010Y2467*
X2011Y2466*
X2012Y2464*
X2041Y2435*
X2042Y2434*
X2044Y2433*
X2045Y2433*
X2047Y2433*
X2193*
X2270Y2356*
X2271Y2355*
X2272Y2354*
X2274Y2354*
X2275Y2354*
X2637*
X2873Y2117*
Y2108*
X2873Y2108*
X2872Y2106*
X2871Y2105*
X2870Y2104*
X2869Y2102*
X2869Y2100*
X2869Y2099*
Y2097*
X2869Y2095*
X2869Y2095*
X2867Y2092*
X2866Y2091*
X2866*
Y2065*
X2873*
Y2045*
X2866*
Y2017*
X2894*
X2895*
X2897Y2014*
X2897Y2011*
X2895*
X2893Y2011*
X2891Y2011*
X2890Y2010*
X2889Y2009*
X2885Y2005*
X2866*
Y1977*
X2885*
X2887Y1975*
Y1968*
X2884Y1965*
X2883Y1965*
X2883Y1965*
X2883Y1966*
X2882Y1966*
X2881Y1967*
X2880Y1967*
X2879Y1967*
X2872*
X2871Y1967*
X2870Y1967*
X2869Y1966*
X2868Y1966*
X2867Y1965*
X2867Y1964*
X2867Y1963*
X2867Y1963*
X2865Y1961*
X2863Y1960*
X2862Y1960*
X2860Y1961*
X2859Y1961*
X2857*
X2855Y1961*
X2854Y1960*
X2852Y1960*
X2851Y1959*
X2849Y1958*
X2848Y1957*
X2847Y1955*
X2846Y1954*
X2846Y1952*
X2845Y1951*
X2845Y1949*
Y1947*
X2845Y1946*
X2846Y1944*
X2846Y1943*
X2847Y1941*
X2848Y1940*
X2849Y1939*
X2851Y1938*
X2852Y1937*
X2854Y1936*
X2855Y1936*
X2857Y1936*
X2859*
X2860Y1936*
X2862Y1936*
X2863Y1937*
X2865Y1936*
X2867Y1934*
Y1931*
X2867Y1930*
X2867Y1929*
X2867Y1928*
X2868Y1927*
X2869Y1927*
X2870Y1926*
X2871Y1926*
X2872Y1926*
X2879*
X2880Y1926*
X2881Y1926*
X2882Y1927*
X2883Y1927*
X2883Y1927*
X2883Y1928*
X2885Y1928*
X2887Y1928*
X2888Y1927*
X2888Y1927*
X2889Y1927*
X2889Y1926*
X2890Y1926*
X2891Y1926*
X2899*
X2900Y1926*
X2901Y1926*
X2902Y1927*
X2903Y1927*
X2903Y1927*
X2903Y1928*
X2905Y1928*
X2907Y1928*
X2907Y1927*
X2907Y1927*
X2908Y1927*
X2909Y1926*
X2910Y1926*
X2911Y1926*
X2919*
X2920Y1926*
X2921Y1926*
X2921Y1927*
X2922Y1927*
X2923Y1928*
X2923Y1929*
X2924Y1930*
X2924Y1931*
Y1962*
X2924Y1963*
X2924Y1963*
X2926Y1965*
X2926Y1966*
X2927Y1968*
X2927Y1969*
X2928Y1971*
Y1973*
X2927Y1974*
X2927Y1976*
X2926Y1978*
X2926Y1979*
X2924Y1980*
X2923Y1982*
X2922Y1983*
X2921Y1983*
X2919Y1984*
X2917Y1985*
X2917Y1985*
X2917Y1989*
X2927*
Y2018*
X2901*
X2899*
X2896Y2021*
X2896Y2025*
Y2045*
X2889*
Y2065*
X2897*
Y2091*
X2897*
X2895Y2092*
X2894Y2095*
X2894Y2095*
X2894Y2097*
Y2099*
X2894Y2100*
X2894Y2102*
X2893Y2104*
X2892Y2105*
X2891Y2106*
X2890Y2108*
X2889Y2108*
Y2121*
X2889Y2122*
X2889Y2124*
X2888Y2125*
X2887Y2126*
X2646Y2367*
X2645Y2368*
X2643Y2369*
X2642Y2369*
X2640Y2370*
X2278*
X2202Y2446*
X2201Y2447*
X2199Y2448*
X2198Y2448*
X2196Y2448*
X2050*
X2025Y2473*
Y2537*
X2027Y2538*
X2029Y2538*
X2029Y2538*
X2030Y2537*
X2031Y2537*
X2032Y2537*
X2041*
X2042Y2537*
X2043Y2537*
X2044Y2538*
X2046Y2538*
X2048*
X2049Y2538*
X2050Y2537*
X2051Y2537*
X2052Y2537*
X2061*
X2062Y2537*
X2063Y2537*
X2064Y2538*
X2066Y2538*
X2067*
X2069Y2538*
X2070Y2537*
X2071Y2537*
X2072Y2537*
X2081*
X2082Y2537*
X2083Y2537*
X2084Y2538*
X2085Y2538*
X2085Y2539*
X2086Y2540*
X2086Y2541*
X2086Y2542*
Y2600*
X2086Y2601*
X2086Y2602*
X2085Y2603*
X2085Y2604*
X2084Y2605*
X2083Y2605*
X2082Y2606*
X2081Y2606*
X2072*
X2071Y2610*
X2072Y2610*
X2074Y2611*
X2075Y2612*
X2076Y2613*
X2077Y2614*
X2078Y2616*
X2079Y2617*
X2079Y2619*
X2079Y2621*
Y2622*
X2079Y2624*
X2079Y2626*
X2078Y2627*
X2077Y2629*
X2076Y2630*
X2075Y2631*
X2074Y2632*
X2072Y2633*
X2071Y2634*
X2069Y2634*
X2067Y2634*
X2066*
X2064Y2634*
X2062Y2634*
X2061Y2633*
X2059Y2632*
X2058Y2631*
X2057Y2630*
X2056Y2629*
X2055Y2627*
X2054Y2626*
X2054Y2624*
X2054Y2622*
Y2621*
X2054Y2621*
X2051Y2618*
X2050Y2617*
X2049Y2615*
X2049Y2614*
X2048Y2613*
X2048Y2612*
Y2607*
X2047Y2606*
X2044Y2605*
X2044*
X2043Y2605*
X2042Y2606*
X2041Y2606*
X2032*
X2031Y2606*
X2030Y2605*
X2029Y2605*
X2028Y2604*
X2026*
X2025Y2605*
X2024Y2605*
X2023Y2606*
X2022Y2606*
X2013*
X2012Y2606*
X2011Y2605*
X2010Y2605*
X2008Y2604*
X2006*
X2005Y2605*
X2004Y2605*
X2003Y2606*
X2002Y2606*
X1993*
X1992Y2606*
X1991Y2605*
X1990Y2605*
X1989Y2604*
X1987*
X1985Y2605*
X1984Y2605*
X1983Y2606*
X1982Y2606*
X1973*
X1972Y2606*
X1971Y2605*
X1970Y2605*
X1969Y2604*
X1967*
X1966Y2605*
X1965Y2605*
X1965Y2605*
X1964Y2609*
X1964Y2609*
X1966Y2610*
X1967Y2611*
X1969Y2612*
X1970Y2613*
X1971Y2614*
X1972Y2616*
X1972Y2617*
X1973Y2619*
X1973Y2621*
Y2622*
X1973Y2624*
X1972Y2626*
X1972Y2627*
X1971Y2629*
X1970Y2630*
X1970Y2631*
X1974Y2632*
X1974Y2632*
X1975Y2631*
X1977Y2630*
X1978Y2629*
X1980Y2628*
X1981Y2628*
X1983Y2627*
X1985*
X1986Y2628*
X1988Y2628*
X1989Y2629*
X1991Y2630*
X1992Y2631*
X1993Y2632*
X1994Y2633*
X1995Y2635*
X1996Y2636*
X1996Y2638*
X1997Y2639*
Y2641*
X1996Y2643*
X1996Y2644*
X1995Y2646*
X1994Y2647*
X1993Y2649*
X1992Y2650*
X1992Y2650*
Y2720*
X1992Y2721*
X1992Y2723*
X1991Y2724*
X1990Y2725*
X1990Y2726*
X1905Y2810*
X1904Y2811*
X1903Y2812*
X1902Y2813*
X1900Y2813*
X1899Y2813*
X1806*
X1806Y2814*
X1805Y2817*
X1806Y2817*
X1807Y2818*
X1829Y2840*
X1830Y2841*
X1830Y2842*
X1831Y2843*
X1831Y2845*
X1831Y2846*
Y2860*
X1832Y2861*
X1833Y2862*
X1834Y2864*
X1834Y2865*
X1835Y2867*
X1835Y2869*
Y2870*
X1835Y2872*
X1834Y2874*
X1834Y2875*
X1833Y2877*
X1832Y2878*
X1831Y2879*
X1829Y2880*
X1828Y2881*
X1826Y2882*
X1825Y2882*
X1823Y2882*
X1822*
X1820Y2882*
X1818Y2882*
X1817Y2881*
X1815Y2880*
X1814Y2879*
X1813Y2878*
X1812Y2877*
X1811Y2875*
X1810Y2874*
X1810Y2872*
X1810Y2870*
Y2869*
X1810Y2867*
X1810Y2865*
X1811Y2864*
X1812Y2862*
X1813Y2861*
X1813Y2860*
Y2850*
X1797Y2833*
X1780*
X1779Y2835*
X1778Y2837*
X1779Y2837*
X1779Y2839*
X1779Y2840*
Y2848*
X1779Y2849*
X1779Y2851*
X1778Y2851*
X1777Y2853*
Y2855*
X1778Y2856*
X1779Y2857*
X1779Y2858*
X1779Y2859*
Y2868*
X1779Y2869*
X1779Y2870*
X1778Y2871*
X1777Y2873*
Y2874*
X1778Y2876*
X1779Y2877*
X1779Y2878*
X1779Y2879*
Y2888*
X1779Y2889*
X1779Y2890*
X1778Y2891*
X1777Y2892*
Y2894*
X1778Y2896*
X1779Y2897*
X1779Y2898*
X1779Y2899*
Y2907*
X1779Y2909*
X1779Y2910*
X1778Y2910*
X1777Y2912*
Y2914*
X1778Y2915*
X1779Y2916*
X1779Y2917*
X1779Y2918*
Y2927*
X1779Y2928*
X1779Y2929*
X1778Y2930*
X1777Y2932*
Y2933*
X1778Y2935*
X1779Y2936*
X1779Y2937*
X1779Y2938*
Y2947*
X1779Y2948*
X1779Y2949*
X1778Y2950*
X1777Y2951*
X1777Y2951*
X1776Y2952*
X1775Y2952*
X1774Y2952*
X1745*
X1745Y2952*
X1736*
X1733Y2955*
Y2957*
X1733Y2959*
X1732Y2960*
X1731Y2962*
X1731Y2963*
X1730Y2965*
X1728Y2966*
X1727Y2967*
X1728Y2971*
X1730*
Y2998*
X1702*
X1700Y3002*
Y3007*
X1700Y3009*
X1700Y3010*
X1699Y3011*
X1698Y3013*
X1683Y3028*
Y3044*
X1655*
Y3055*
G37*
G36*
X2318Y2984D02*
X2248D01*
X2247Y2984*
X2246Y2983*
X2245Y2983*
X2237Y2975*
X2236Y2974*
X2236Y2973*
X2236Y2972*
Y2962*
X2231Y2957*
X2229Y2957*
X2228Y2957*
X2226Y2956*
X2225Y2955*
X2223Y2954*
X2222Y2953*
X2222Y2952*
X2191*
X2191Y2952*
X2162*
X2161Y2952*
X2160Y2952*
X2159Y2951*
X2159Y2951*
X2158Y2950*
X2157Y2949*
X2157Y2948*
X2157Y2947*
Y2938*
X2157Y2937*
X2157Y2936*
X2158Y2935*
X2159Y2934*
X2159Y2933*
X2160Y2933*
X2161Y2933*
X2162Y2933*
X2191*
X2191*
X2227*
X2228Y2932*
X2229Y2932*
X2231Y2932*
X2233*
X2234Y2932*
X2236Y2932*
X2237Y2933*
X2238Y2933*
X2239Y2933*
X2240Y2933*
X2326*
X2327Y2933*
X2328Y2933*
X2329Y2934*
X2330Y2935*
X2330Y2935*
X2330Y2937*
Y2972*
X2330Y2973*
X2330Y2974*
X2329Y2975*
X2321Y2983*
X2320Y2983*
X2319Y2984*
X2318Y2984*
G37*
G36*
X2142Y3091D02*
X2140D01*
X2139Y3091*
X2137Y3090*
X2136Y3090*
X2134Y3089*
X2133Y3088*
X2132Y3087*
X2131Y3085*
X2130Y3084*
X2129Y3082*
X2129Y3081*
X2128Y3079*
Y3077*
X2129Y3076*
X2129Y3074*
X2130Y3073*
X2131Y3071*
X2132Y3070*
X2133Y3069*
X2133Y3068*
Y2913*
X2133Y2911*
X2134Y2910*
X2135Y2908*
X2136Y2907*
X2145Y2897*
X2147Y2896*
X2148Y2896*
X2150Y2895*
X2150Y2895*
X2150Y2891*
X2145*
X2142Y2895*
X2140Y2896*
X2139Y2897*
X2138Y2897*
X2136Y2897*
X2124*
X2123Y2898*
X2122Y2899*
X2121Y2900*
X2119Y2901*
X2118Y2901*
X2116Y2902*
X2115Y2902*
X2113*
X2111Y2902*
X2110Y2901*
X2108Y2901*
X2107Y2900*
X2105Y2899*
X2104Y2898*
X2103Y2896*
X2102Y2895*
X2102Y2893*
X2101Y2892*
X2101Y2890*
Y2888*
X2101Y2887*
X2102Y2885*
X2102Y2884*
X2103Y2882*
X2104Y2881*
X2105Y2880*
X2107Y2879*
X2108Y2878*
X2110Y2877*
X2111Y2877*
X2113Y2876*
X2115*
X2116Y2877*
X2118Y2877*
X2119Y2878*
X2121Y2879*
X2122Y2880*
X2123Y2881*
X2124Y2881*
X2133*
X2136Y2878*
X2138Y2877*
X2139Y2876*
X2140Y2876*
X2142Y2875*
X2153*
X2155Y2872*
X2155Y2871*
X2154Y2871*
X2098*
X2098Y2871*
X2097Y2872*
X2095Y2873*
X2094Y2874*
X2092Y2875*
X2091Y2875*
X2089Y2875*
X2087*
X2086Y2875*
X2084Y2875*
X2082Y2874*
X2081Y2873*
X2080Y2872*
X2078Y2871*
X2077Y2870*
X2077Y2868*
X2076Y2867*
X2076Y2865*
X2075Y2864*
Y2862*
X2076Y2860*
X2076Y2859*
X2077Y2857*
X2077Y2856*
X2078Y2854*
X2080Y2853*
X2081Y2852*
X2082Y2851*
X2084Y2851*
X2086Y2850*
X2087Y2850*
X2089*
X2091Y2850*
X2092Y2851*
X2094Y2851*
X2095Y2852*
X2097Y2853*
X2098Y2854*
X2099Y2855*
X2131*
X2131Y2851*
X2131Y2851*
X2130Y2851*
X2129Y2850*
X2125Y2846*
X2116*
X2115Y2847*
X2114Y2848*
X2113Y2849*
X2111Y2850*
X2110Y2850*
X2108Y2851*
X2107Y2851*
X2105*
X2103Y2851*
X2102Y2850*
X2100Y2850*
X2099Y2849*
X2097Y2848*
X2096Y2847*
X2095Y2845*
X2094Y2844*
X2094Y2842*
X2093Y2841*
X2093Y2839*
Y2837*
X2093Y2836*
X2094Y2834*
X2094Y2832*
X2095Y2831*
X2096Y2830*
X2097Y2828*
X2099Y2827*
X2100Y2827*
X2102Y2826*
X2103Y2826*
X2105Y2825*
X2107*
X2108Y2826*
X2110Y2826*
X2111Y2827*
X2113Y2827*
X2114Y2828*
X2115Y2830*
X2116Y2830*
X2120*
X2122Y2826*
X2119Y2823*
X2118Y2823*
X2117*
X2115Y2823*
X2113Y2823*
X2112Y2822*
X2110Y2821*
X2109Y2820*
X2108Y2819*
X2107Y2818*
X2106Y2816*
X2105Y2815*
X2105Y2813*
X2105Y2811*
Y2810*
X2105Y2808*
X2105Y2806*
X2106Y2805*
X2107Y2803*
X2108Y2802*
X2109Y2801*
X2110Y2800*
X2112Y2799*
X2113Y2798*
X2115Y2798*
X2117Y2798*
X2118*
X2120Y2798*
X2122Y2798*
X2123Y2799*
X2125Y2800*
X2126Y2801*
X2127Y2802*
X2128Y2803*
X2129Y2805*
X2130Y2806*
X2130Y2808*
X2130Y2810*
Y2811*
X2130Y2812*
X2135Y2816*
X2148*
X2149Y2812*
X2148Y2812*
X2147Y2811*
X2145Y2810*
X2131Y2796*
X2130Y2796*
X2129*
X2127Y2796*
X2125Y2795*
X2124Y2794*
X2122Y2794*
X2121Y2793*
X2120Y2791*
X2119Y2790*
X2118Y2789*
X2117Y2787*
X2117Y2785*
X2117Y2784*
Y2782*
X2117Y2780*
X2117Y2779*
X2118Y2777*
X2119Y2776*
X2120Y2775*
X2121Y2773*
X2122Y2772*
X2124Y2771*
X2125Y2771*
X2127Y2770*
X2129Y2770*
X2130*
X2132Y2770*
X2134Y2771*
X2135Y2771*
X2137Y2772*
X2138Y2773*
X2139Y2775*
X2140Y2776*
X2141Y2777*
X2142Y2779*
X2142Y2780*
X2142Y2782*
Y2784*
X2142Y2784*
X2153Y2795*
X2155Y2795*
X2156Y2795*
X2157Y2792*
X2157Y2791*
X2157Y2790*
X2157Y2789*
Y2781*
X2157Y2779*
X2157Y2778*
X2158Y2777*
X2159Y2776*
Y2774*
X2158Y2773*
X2157Y2772*
X2157Y2771*
X2157Y2770*
Y2761*
X2157Y2760*
X2157Y2759*
X2158Y2758*
X2159Y2756*
Y2754*
X2158Y2753*
X2157Y2752*
X2157Y2751*
X2157Y2750*
Y2741*
X2157Y2740*
X2157Y2739*
X2158Y2738*
X2159Y2737*
Y2735*
X2158Y2733*
X2157Y2732*
X2157Y2731*
X2157Y2730*
Y2721*
X2157Y2720*
X2157Y2719*
X2158Y2718*
X2159Y2717*
Y2715*
X2158Y2714*
X2157Y2713*
X2157Y2712*
X2157Y2711*
Y2702*
X2157Y2701*
X2157Y2700*
X2158Y2699*
X2159Y2697*
Y2695*
X2158Y2694*
X2157Y2693*
X2157Y2692*
X2157Y2691*
Y2682*
X2157Y2681*
X2157Y2680*
X2158Y2679*
X2159Y2678*
Y2676*
X2158Y2674*
X2157Y2673*
X2157Y2672*
X2157Y2671*
Y2662*
X2157Y2661*
X2157Y2660*
X2158Y2659*
X2159Y2658*
Y2656*
X2158Y2655*
X2157Y2654*
X2157Y2653*
X2157Y2652*
Y2643*
X2157Y2642*
X2157Y2641*
X2158Y2640*
X2159Y2639*
X2159Y2638*
X2160Y2638*
X2161Y2637*
X2162Y2637*
X2184*
Y2500*
X2184Y2499*
X2184Y2497*
X2185Y2496*
X2186Y2495*
X2289Y2392*
X2290Y2391*
X2292Y2390*
X2293Y2389*
X2295Y2389*
X2921*
X3070Y2240*
Y2108*
X3070Y2108*
X3069Y2106*
X3068Y2105*
X3067Y2104*
X3066Y2102*
X3066Y2100*
X3065Y2099*
Y2097*
X3066Y2095*
X3066Y2095*
X3064Y2092*
X3063Y2091*
X3062*
Y2065*
X3070*
Y2045*
X3063*
Y2017*
X3091*
X3092*
X3094Y2014*
X3093Y2011*
X3091*
X3090Y2011*
X3088Y2011*
X3087Y2010*
X3086Y2009*
X3082Y2005*
X3063*
Y1977*
X3081*
X3084Y1974*
Y1968*
X3081Y1965*
X3080Y1965*
X3080Y1965*
X3080Y1966*
X3079Y1966*
X3078Y1967*
X3077Y1967*
X3076Y1967*
X3069*
X3068Y1967*
X3067Y1967*
X3066Y1966*
X3065Y1966*
X3064Y1965*
X3064Y1964*
X3064Y1963*
X3064Y1963*
X3062Y1961*
X3060Y1960*
X3059Y1960*
X3057Y1961*
X3055Y1961*
X3054*
X3052Y1961*
X3051Y1960*
X3049Y1960*
X3047Y1959*
X3046Y1958*
X3045Y1957*
X3044Y1955*
X3043Y1954*
X3042Y1952*
X3042Y1951*
X3042Y1949*
Y1947*
X3042Y1946*
X3042Y1944*
X3043Y1943*
X3044Y1941*
X3045Y1940*
X3046Y1939*
X3047Y1938*
X3049Y1937*
X3051Y1936*
X3052Y1936*
X3054Y1936*
X3055*
X3057Y1936*
X3059Y1936*
X3060Y1937*
X3062Y1936*
X3063Y1934*
Y1931*
X3064Y1930*
X3064Y1929*
X3064Y1928*
X3065Y1927*
X3066Y1927*
X3067Y1926*
X3068Y1926*
X3069Y1926*
X3076*
X3077Y1926*
X3078Y1926*
X3079Y1927*
X3080Y1927*
X3080Y1927*
X3080Y1928*
X3082Y1928*
X3084Y1928*
X3084Y1927*
X3085Y1927*
X3085Y1927*
X3086Y1926*
X3087Y1926*
X3088Y1926*
X3096*
X3097Y1926*
X3098Y1926*
X3099Y1927*
X3099Y1927*
X3100Y1927*
X3100Y1928*
X3102Y1928*
X3104Y1928*
X3104Y1927*
X3104Y1927*
X3105Y1927*
X3106Y1926*
X3107Y1926*
X3108Y1926*
X3115*
X3116Y1926*
X3117Y1926*
X3118Y1927*
X3119Y1927*
X3120Y1928*
X3120Y1929*
X3120Y1930*
X3121Y1931*
Y1962*
X3121Y1963*
X3121Y1963*
X3122Y1965*
X3123Y1966*
X3124Y1968*
X3124Y1969*
X3125Y1971*
Y1973*
X3124Y1974*
X3124Y1976*
X3123Y1978*
X3122Y1979*
X3121Y1980*
X3120Y1982*
X3119Y1983*
X3117Y1983*
X3116Y1984*
X3114Y1985*
X3114Y1985*
X3114Y1989*
X3123*
Y2018*
X3097*
X3095*
X3093Y2021*
X3093Y2025*
Y2045*
X3086*
Y2065*
X3094*
Y2091*
X3094*
X3092Y2092*
X3091Y2095*
X3091Y2095*
X3091Y2097*
Y2099*
X3091Y2100*
X3090Y2102*
X3090Y2104*
X3089Y2105*
X3088Y2106*
X3087Y2108*
X3086Y2108*
Y2244*
X3086Y2245*
X3086Y2247*
X3085Y2248*
X3084Y2249*
X2930Y2403*
X2929Y2404*
X2928Y2404*
X2926Y2405*
X2925Y2405*
X2298*
X2199Y2504*
Y2637*
X2220*
X2222Y2637*
X2223Y2638*
X2223Y2638*
X2224Y2639*
X2225Y2640*
X2225Y2641*
X2226Y2642*
X2226Y2643*
Y2652*
X2226Y2653*
X2225Y2654*
X2225Y2655*
X2224Y2656*
Y2658*
X2225Y2659*
X2225Y2660*
X2226Y2661*
X2226Y2662*
Y2671*
X2226Y2672*
X2225Y2673*
X2225Y2674*
X2225Y2675*
X2225Y2676*
X2226Y2679*
X2242*
X2283Y2638*
Y2569*
X2282Y2568*
X2281Y2567*
X2280Y2566*
X2279Y2564*
X2279Y2563*
X2278Y2561*
X2278Y2559*
Y2558*
X2278Y2556*
X2279Y2554*
X2279Y2553*
X2280Y2551*
X2281Y2550*
X2282Y2549*
X2284Y2548*
X2285Y2547*
X2287Y2546*
X2288Y2546*
X2290Y2546*
X2292*
X2293Y2546*
X2295Y2546*
X2297Y2547*
X2298Y2548*
X2299Y2549*
X2300Y2550*
X2302Y2551*
X2302Y2553*
X2303Y2554*
X2303Y2556*
X2304Y2558*
Y2559*
X2303Y2561*
X2303Y2563*
X2302Y2564*
X2302Y2566*
X2300Y2567*
X2299Y2568*
X2299Y2569*
Y2641*
X2299Y2643*
X2298Y2644*
X2297Y2646*
X2296Y2647*
X2251Y2692*
X2250Y2693*
X2249Y2694*
X2247Y2694*
X2246Y2694*
X2226*
X2225Y2697*
X2225Y2698*
X2225Y2699*
X2225Y2700*
X2226Y2701*
X2226Y2702*
Y2711*
X2226Y2712*
X2225Y2713*
X2225Y2714*
Y2714*
X2226Y2716*
X2227Y2717*
X2230Y2717*
X2236Y2712*
X2236Y2712*
Y2710*
X2236Y2709*
X2236Y2707*
X2237Y2705*
X2238Y2704*
X2239Y2703*
X2240Y2701*
X2241Y2700*
X2243Y2700*
X2244Y2699*
X2246Y2699*
X2248Y2698*
X2249*
X2251Y2699*
X2253Y2699*
X2254Y2700*
X2256Y2700*
X2257Y2701*
X2258Y2703*
X2259Y2704*
X2260Y2705*
X2261Y2707*
X2261Y2709*
X2261Y2710*
Y2712*
X2261Y2714*
X2261Y2715*
X2260Y2717*
X2259Y2718*
X2258Y2720*
X2257Y2721*
X2256Y2722*
X2254Y2723*
X2253Y2723*
X2251Y2724*
X2249Y2724*
X2248*
X2248Y2724*
X2245Y2727*
X2247Y2730*
X2263*
X2263Y2730*
X2265Y2729*
X2266Y2728*
X2267Y2727*
X2269Y2727*
X2271Y2726*
X2272Y2726*
X2274*
X2276Y2726*
X2277Y2727*
X2279Y2727*
X2280Y2728*
X2282Y2729*
X2283Y2730*
X2284Y2732*
X2285Y2733*
X2285Y2735*
X2286Y2736*
X2286Y2738*
Y2740*
X2286Y2741*
X2285Y2743*
X2285Y2744*
X2284Y2746*
X2283Y2747*
X2282Y2748*
X2280Y2749*
X2279Y2750*
X2277Y2751*
X2276Y2751*
X2274Y2751*
X2272*
X2271Y2751*
X2270Y2751*
X2268Y2755*
X2270Y2756*
X2271Y2757*
X2272Y2758*
X2273Y2760*
X2273Y2761*
X2274Y2763*
X2274Y2764*
Y2766*
X2274Y2768*
X2273Y2769*
X2273Y2771*
X2272Y2772*
X2271Y2774*
X2270Y2775*
X2268Y2776*
X2267Y2777*
X2265Y2777*
X2264Y2778*
X2262Y2778*
X2260*
X2260Y2778*
X2258Y2780*
X2258Y2782*
X2258Y2782*
X2259Y2784*
X2260Y2785*
X2261Y2787*
X2261Y2788*
X2261Y2790*
Y2792*
X2261Y2793*
X2261Y2795*
X2260Y2797*
X2259Y2798*
X2259Y2799*
X2259Y2801*
X2260Y2803*
X2265*
Y2796*
X2293*
Y2825*
Y2827*
Y2857*
X2265*
Y2850*
X2248*
X2246Y2850*
X2245Y2850*
X2244Y2849*
X2243Y2849*
X2242Y2848*
X2228Y2834*
X2225Y2837*
X2225Y2837*
X2226Y2839*
X2226Y2840*
Y2848*
X2226Y2849*
X2225Y2851*
X2225Y2851*
X2224Y2853*
Y2855*
X2225Y2856*
X2225Y2857*
X2226Y2858*
X2226Y2859*
Y2868*
X2226Y2869*
X2225Y2870*
X2225Y2871*
X2224Y2873*
Y2874*
X2225Y2876*
X2225Y2877*
X2226Y2878*
X2226Y2879*
Y2888*
X2226Y2889*
X2225Y2890*
X2225Y2891*
X2224Y2892*
Y2894*
X2225Y2896*
X2225Y2897*
X2226Y2898*
X2226Y2899*
Y2907*
X2226Y2909*
X2225Y2910*
X2225Y2910*
X2224Y2911*
X2223Y2912*
X2223Y2913*
X2222Y2913*
X2220Y2913*
X2162*
X2161Y2913*
X2160Y2913*
X2159Y2912*
X2159Y2911*
X2158Y2911*
X2154*
X2149Y2916*
Y3068*
X2150Y3069*
X2151Y3070*
X2152Y3071*
X2153Y3073*
X2153Y3074*
X2154Y3076*
X2154Y3077*
Y3079*
X2154Y3081*
X2153Y3082*
X2153Y3084*
X2152Y3085*
X2151Y3087*
X2150Y3088*
X2148Y3089*
X2147Y3090*
X2145Y3090*
X2144Y3091*
X2142Y3091*
G37*
G36*
X1363Y2874D02*
X1274D01*
X1273Y2873*
X1271Y2873*
X1270Y2873*
X1269Y2872*
X1268Y2871*
X1267Y2870*
X1266Y2869*
X1266Y2868*
X1064*
X1064Y2868*
X1063Y2869*
X1062Y2870*
X1061Y2871*
X1059Y2871*
X1058Y2871*
X1056Y2872*
X990*
X988Y2871*
X987Y2871*
X986Y2871*
X984Y2870*
X983Y2869*
X982Y2868*
X982Y2867*
X981Y2865*
X981Y2864*
X981Y2863*
Y2806*
X981Y2804*
X981Y2803*
X982Y2802*
X982Y2800*
X983Y2799*
X984Y2798*
X986Y2798*
X987Y2797*
X988Y2797*
X990Y2797*
X1056*
X1058Y2797*
X1059Y2797*
X1061Y2798*
X1062Y2798*
X1063Y2799*
X1064Y2800*
X1064Y2801*
X1266*
X1266Y2800*
X1267Y2798*
X1268Y2797*
X1269Y2796*
X1270Y2796*
X1271Y2795*
X1273Y2795*
X1274Y2795*
X1363*
X1364Y2795*
X1365Y2795*
X1367Y2796*
X1368Y2796*
X1369Y2797*
X1370Y2798*
X1371Y2800*
X1371Y2801*
X1371Y2802*
X1372Y2804*
Y2865*
X1371Y2866*
X1371Y2867*
X1371Y2869*
X1370Y2870*
X1369Y2871*
X1368Y2872*
X1367Y2873*
X1365Y2873*
X1364Y2873*
X1363Y2874*
G37*
G36*
X2342Y2858D02*
X2307D01*
X2306Y2858*
X2305Y2857*
X2304Y2857*
X2303Y2856*
X2303Y2855*
X2303Y2854*
Y2799*
X2303Y2798*
X2303Y2797*
X2304Y2796*
X2305Y2795*
X2306Y2795*
X2307Y2795*
X2342*
X2343Y2795*
X2344Y2795*
X2345Y2796*
X2353Y2804*
X2353Y2805*
X2354Y2806*
X2354Y2807*
Y2846*
X2354Y2847*
X2353Y2848*
X2353Y2849*
X2345Y2857*
X2344Y2857*
X2343Y2858*
X2342Y2858*
G37*
G36*
X1539Y2874D02*
X1448D01*
X1448Y2874*
X1432*
X1430Y2873*
X1429Y2873*
X1428Y2873*
X1426Y2872*
X1425Y2871*
X1424Y2870*
X1424Y2869*
X1423Y2867*
X1423Y2866*
X1423Y2865*
Y2804*
X1423Y2802*
X1423Y2801*
X1424Y2800*
X1424Y2798*
X1425Y2797*
X1426Y2796*
X1428Y2796*
X1429Y2795*
X1430Y2795*
X1432Y2795*
X1448*
X1448Y2795*
X1539*
X1540Y2795*
X1541Y2795*
X1542Y2796*
X1550Y2804*
X1550Y2805*
X1551Y2806*
X1551Y2807*
Y2862*
X1551Y2863*
X1550Y2864*
X1550Y2865*
X1542Y2872*
X1541Y2873*
X1540Y2873*
X1539Y2874*
G37*
G36*
X2822Y2765D02*
X2792D01*
Y2737*
X2794Y2733*
X2794Y2733*
Y2731*
X2794Y2729*
X2794Y2728*
X2795Y2726*
X2796Y2725*
X2797Y2723*
X2798Y2722*
X2799Y2721*
X2801Y2720*
X2802Y2720*
X2804Y2719*
X2806Y2719*
X2807*
X2809Y2719*
X2811Y2720*
X2812Y2720*
X2814Y2721*
X2815Y2722*
X2816Y2723*
X2817Y2725*
X2818Y2726*
X2819Y2728*
X2819Y2729*
X2819Y2731*
Y2733*
X2819Y2733*
X2822Y2737*
Y2765*
G37*
G36*
X2448D02*
X2418D01*
Y2737*
X2420Y2733*
X2420Y2733*
Y2731*
X2420Y2729*
X2420Y2728*
X2421Y2726*
X2422Y2725*
X2423Y2723*
X2424Y2722*
X2425Y2721*
X2427Y2720*
X2428Y2720*
X2430Y2719*
X2432Y2719*
X2433*
X2435Y2719*
X2437Y2720*
X2438Y2720*
X2440Y2721*
X2441Y2722*
X2442Y2723*
X2443Y2725*
X2444Y2726*
X2445Y2728*
X2445Y2729*
X2445Y2731*
Y2733*
X2445Y2733*
X2448Y2737*
Y2765*
G37*
G36*
X1507Y2732D02*
X1433D01*
X1432Y2732*
X1431Y2731*
X1430Y2731*
X1418Y2719*
X1417Y2718*
X1417Y2717*
X1417Y2716*
Y2700*
X1417Y2699*
X1417Y2698*
X1418Y2697*
X1430Y2686*
X1431Y2685*
X1432Y2685*
X1433Y2685*
X1507*
X1508Y2685*
X1509Y2685*
X1510Y2686*
X1511Y2686*
X1511Y2687*
X1511Y2688*
Y2728*
X1511Y2729*
X1511Y2730*
X1510Y2731*
X1509Y2731*
X1508Y2732*
X1507Y2732*
G37*
G36*
X1619Y2633D02*
X1593D01*
Y2602*
Y2597*
X1593Y2595*
X1594Y2594*
X1594Y2592*
X1595Y2591*
X1596Y2589*
X1597Y2588*
X1599Y2587*
X1600Y2586*
X1602Y2586*
X1603Y2585*
X1605Y2585*
X1607*
X1608Y2585*
X1610Y2586*
X1611Y2586*
X1613Y2587*
X1614Y2588*
X1615Y2589*
X1616Y2591*
X1617Y2592*
X1618Y2594*
X1618Y2595*
X1619Y2597*
Y2602*
Y2633*
G37*
G36*
X3018Y2726D02*
X2990D01*
Y2724*
X2990Y2724*
X2990Y2724*
X2990Y2724*
X2988Y2723*
X2988Y2723*
X2988Y2723*
X2986Y2722*
X2986Y2722*
X2985Y2722*
X2984Y2721*
X2984Y2721*
X2983Y2721*
X2982Y2720*
X2982Y2720*
X2982Y2719*
X2980Y2718*
X2980Y2718*
X2980Y2718*
X2979Y2716*
X2979Y2716*
X2979Y2716*
X2978Y2714*
X2977Y2714*
X2977Y2714*
X2977Y2712*
X2977Y2712*
X2977Y2712*
X2976Y2710*
X2976Y2710*
X2976Y2709*
X2976Y2707*
Y2707*
X2976Y2707*
Y2706*
X2976Y2706*
X2975Y2705*
X2975Y2705*
X2975Y2704*
X2974Y2703*
X2973Y2702*
X2973Y2702*
X2972Y2701*
X2971Y2701*
X2970Y2701*
X2969Y2700*
X2968Y2700*
X2968Y2700*
X2925*
X2924Y2700*
X2895*
Y2663*
X2895*
X2896Y2659*
X2896Y2658*
X2895Y2657*
X2894Y2656*
X2894Y2654*
X2893Y2653*
Y2644*
X2887*
Y2614*
X2893*
Y2610*
X2875*
Y2546*
X2921*
Y2487*
X2921Y2487*
X2921Y2486*
X2921Y2485*
X2921Y2484*
X2921Y2484*
X2922Y2482*
X2922Y2482*
X2922Y2482*
X2923Y2480*
X2923Y2480*
X2924Y2480*
X2925Y2479*
X2925Y2479*
X2925Y2478*
X2927Y2477*
X2927Y2477*
X2927Y2477*
X2929Y2476*
X2929Y2476*
X2930Y2476*
X2931Y2476*
X2931Y2476*
X2932Y2476*
X2933*
X2993*
X2994Y2476*
X2994*
X2994Y2476*
X2994Y2476*
X2995Y2476*
X2995Y2476*
X2995Y2476*
X2995Y2476*
X2995Y2477*
X2996Y2477*
X2997Y2477*
X2998Y2478*
X2999Y2478*
X3000Y2479*
X3001Y2479*
X3002*
X3003Y2479*
X3003Y2479*
X3003Y2479*
X3003Y2479*
X3004Y2479*
X3004Y2479*
X3004Y2479*
X3004Y2479*
X3005Y2480*
X3005Y2480*
X3005Y2480*
X3005Y2480*
X3005Y2480*
X3006Y2481*
X3006Y2481*
X3006Y2481*
X3006Y2481*
X3006Y2482*
X3006Y2482*
X3007*
Y2485*
X3007Y2485*
Y2486*
X3007Y2486*
X3007Y2486*
X3007Y2486*
X3007Y2487*
X3007Y2487*
Y2507*
Y2562*
Y2647*
X3007Y2648*
X3008Y2649*
X3008Y2650*
X3008Y2651*
X3008Y2652*
X3009Y2652*
X3009Y2653*
X3010Y2654*
X3010Y2654*
X3011Y2655*
X3011Y2655*
X3011Y2655*
X3012Y2656*
X3012Y2656*
X3012Y2656*
X3013Y2657*
X3013Y2658*
X3013Y2658*
X3014Y2659*
X3014Y2659*
X3014Y2659*
X3014Y2660*
X3014Y2661*
X3014Y2661*
X3015Y2662*
X3015Y2662*
X3015Y2662*
X3015Y2664*
X3015Y2664*
X3015Y2664*
X3015Y2665*
X3018Y2666*
Y2695*
Y2698*
Y2726*
G37*
G36*
X2120Y2606D02*
X2111D01*
X2110Y2606*
X2109Y2605*
X2108Y2605*
X2107Y2604*
X2107Y2603*
X2106Y2602*
X2106Y2601*
X2106Y2600*
Y2571*
Y2571*
Y2535*
X2106Y2533*
X2106Y2532*
X2107Y2530*
X2108Y2529*
X2109Y2528*
X2110Y2527*
Y2460*
X2110Y2459*
X2110Y2458*
X2111Y2457*
X2112Y2457*
X2113Y2456*
X2114Y2456*
X2149*
X2150Y2456*
X2151Y2457*
X2152Y2457*
X2156Y2461*
X2156Y2462*
X2157Y2463*
X2157Y2464*
Y2515*
X2157Y2516*
X2156Y2517*
X2156Y2518*
X2132Y2542*
X2131Y2542*
X2130Y2543*
X2129Y2543*
X2126*
Y2571*
Y2571*
Y2600*
X2125Y2601*
X2125Y2602*
X2125Y2603*
X2124Y2604*
X2123Y2605*
X2122Y2605*
X2121Y2606*
X2120Y2606*
G37*
G36*
X1594Y2732D02*
X1539D01*
X1538Y2732*
X1537Y2731*
X1536Y2731*
X1532*
Y2686*
X1536*
X1537Y2685*
X1538Y2685*
X1539Y2685*
X1590*
X1591Y2685*
X1592Y2685*
X1593Y2686*
X1596Y2688*
X1696*
X1697Y2689*
X1698Y2689*
X1699Y2690*
X1705Y2695*
X1708Y2695*
X1710Y2692*
X1710Y2691*
Y2682*
X1710Y2681*
X1711Y2680*
X1711Y2679*
X1712Y2678*
Y2676*
X1711Y2674*
X1711Y2673*
X1710Y2672*
X1710Y2671*
Y2662*
X1710Y2661*
X1711Y2660*
X1711Y2659*
X1712Y2658*
Y2656*
X1711Y2655*
X1711Y2654*
X1710Y2653*
X1710Y2652*
Y2643*
X1710Y2642*
X1711Y2641*
X1711Y2640*
X1712Y2639*
X1713Y2638*
X1713Y2638*
X1714Y2637*
X1716Y2637*
X1728*
Y2444*
X1728Y2443*
X1728Y2441*
X1729Y2440*
X1730Y2439*
X1805Y2364*
X1806Y2363*
X1808Y2362*
X1809Y2362*
X1811Y2362*
X1988*
X1990Y2358*
X1985Y2353*
X1984Y2352*
X1984Y2351*
X1984Y2350*
Y2322*
X1984Y2321*
X1984Y2320*
X1985Y2320*
Y2317*
X2014*
X2016*
X2046*
X2048*
X2075*
X2077*
X2079*
X2109*
Y2320*
X2109Y2320*
X2110Y2321*
X2110Y2322*
Y2350*
X2110Y2351*
X2109Y2352*
X2109Y2353*
X2104Y2358*
X2105Y2362*
X2126*
X2258Y2230*
X2259Y2229*
X2260Y2228*
X2262Y2228*
X2263Y2228*
X2425*
X2480Y2173*
Y2108*
X2479Y2108*
X2478Y2106*
X2477Y2105*
X2476Y2104*
X2476Y2102*
X2475Y2100*
X2475Y2099*
Y2097*
X2475Y2095*
X2475Y2095*
X2474Y2092*
X2472Y2091*
X2472*
Y2065*
X2480*
Y2045*
X2473*
Y2017*
X2501*
X2501*
X2504Y2014*
X2503Y2011*
X2501*
X2499Y2011*
X2498Y2011*
X2496Y2010*
X2495Y2009*
X2491Y2005*
X2473*
Y1977*
X2491*
X2494Y1975*
Y1968*
X2490Y1965*
X2490Y1965*
X2489Y1965*
X2489Y1966*
X2488Y1966*
X2487Y1967*
X2486Y1967*
X2485Y1967*
X2478*
X2477Y1967*
X2476Y1967*
X2475Y1966*
X2474Y1966*
X2474Y1965*
X2473Y1964*
X2473Y1963*
X2473Y1963*
X2471Y1961*
X2469Y1960*
X2468Y1960*
X2467Y1961*
X2465Y1961*
X2463*
X2462Y1961*
X2460Y1960*
X2458Y1960*
X2457Y1959*
X2456Y1958*
X2454Y1957*
X2453Y1955*
X2453Y1954*
X2452Y1952*
X2451Y1951*
X2451Y1949*
Y1947*
X2451Y1946*
X2452Y1944*
X2453Y1943*
X2453Y1941*
X2454Y1940*
X2456Y1939*
X2457Y1938*
X2458Y1937*
X2460Y1936*
X2462Y1936*
X2463Y1936*
X2465*
X2467Y1936*
X2468Y1936*
X2469Y1937*
X2471Y1936*
X2473Y1934*
Y1931*
X2473Y1930*
X2473Y1929*
X2474Y1928*
X2474Y1927*
X2475Y1927*
X2476Y1926*
X2477Y1926*
X2478Y1926*
X2485*
X2486Y1926*
X2487Y1926*
X2488Y1927*
X2489Y1927*
X2489Y1927*
X2490Y1928*
X2492Y1928*
X2494Y1928*
X2494Y1927*
X2494Y1927*
X2495Y1927*
X2496Y1926*
X2497Y1926*
X2498Y1926*
X2505*
X2506Y1926*
X2507Y1926*
X2508Y1927*
X2509Y1927*
X2509Y1927*
X2509Y1928*
X2511Y1928*
X2513Y1928*
X2514Y1927*
X2514Y1927*
X2515Y1927*
X2515Y1926*
X2516Y1926*
X2517Y1926*
X2525*
X2526Y1926*
X2527Y1926*
X2528Y1927*
X2529Y1927*
X2529Y1928*
X2530Y1929*
X2530Y1930*
X2530Y1931*
Y1962*
X2530Y1963*
X2531Y1963*
X2532Y1965*
X2533Y1966*
X2533Y1968*
X2534Y1969*
X2534Y1971*
Y1973*
X2534Y1974*
X2533Y1976*
X2533Y1978*
X2532Y1979*
X2531Y1980*
X2530Y1982*
X2528Y1983*
X2527Y1983*
X2525Y1984*
X2524Y1985*
X2523Y1985*
X2524Y1989*
X2533*
Y2018*
X2507*
X2505*
X2503Y2021*
X2503Y2025*
Y2045*
X2496*
Y2065*
X2503*
Y2091*
X2503*
X2502Y2092*
X2500Y2095*
X2500Y2095*
X2500Y2097*
Y2099*
X2500Y2100*
X2500Y2102*
X2499Y2104*
X2498Y2105*
X2497Y2106*
X2496Y2108*
X2496Y2108*
Y2177*
X2495Y2178*
X2495Y2180*
X2494Y2181*
X2493Y2182*
X2434Y2241*
X2433Y2242*
X2432Y2243*
X2430Y2243*
X2429Y2244*
X2267*
X2135Y2375*
X2134Y2376*
X2132Y2377*
X2131Y2377*
X2129Y2377*
X1814*
X1744Y2448*
Y2637*
X1774*
X1775Y2637*
X1776Y2638*
X1777Y2638*
X1777Y2639*
X1778Y2640*
X1779Y2641*
X1779Y2642*
X1779Y2643*
Y2652*
X1779Y2653*
X1779Y2654*
X1778Y2655*
X1778Y2655*
X1778Y2657*
X1779Y2659*
X1786*
X1791Y2654*
Y2621*
X1758Y2588*
X1757Y2587*
X1756Y2585*
X1756Y2584*
X1755Y2582*
Y2470*
X1755Y2470*
X1754Y2469*
X1753Y2467*
X1752Y2466*
X1751Y2464*
X1751Y2463*
X1750Y2461*
Y2459*
X1751Y2458*
X1751Y2456*
X1752Y2454*
X1753Y2453*
X1754Y2452*
X1755Y2450*
X1756Y2449*
X1758Y2449*
X1759Y2448*
X1761Y2448*
X1762Y2447*
X1764*
X1766Y2448*
X1767Y2448*
X1769Y2449*
X1770Y2449*
X1772Y2450*
X1773Y2452*
X1774Y2453*
X1775Y2454*
X1775Y2456*
X1776Y2458*
X1776Y2459*
Y2461*
X1776Y2463*
X1775Y2464*
X1775Y2466*
X1774Y2467*
X1773Y2469*
X1772Y2470*
X1771Y2470*
Y2579*
X1804Y2612*
X1805Y2613*
X1806Y2615*
X1806Y2616*
X1807Y2618*
Y2657*
X1806Y2659*
X1806Y2660*
X1805Y2661*
X1804Y2663*
X1794Y2672*
X1793Y2673*
X1792Y2674*
X1790Y2675*
X1789Y2675*
X1779*
X1778Y2677*
X1778Y2678*
X1778Y2679*
X1779Y2680*
X1779Y2681*
X1779Y2682*
Y2691*
X1779Y2692*
X1779Y2693*
X1778Y2694*
X1777Y2695*
Y2697*
X1778Y2699*
X1779Y2700*
X1779Y2701*
X1779Y2702*
Y2711*
X1779Y2712*
X1779Y2713*
X1778Y2714*
X1777Y2714*
X1777Y2715*
X1776Y2716*
X1775Y2716*
X1774Y2716*
X1745*
X1745Y2716*
X1706*
X1699Y2723*
X1698Y2723*
X1697Y2724*
X1696Y2724*
X1604*
X1597Y2731*
X1596Y2731*
X1595Y2732*
X1594Y2732*
G37*
G36*
X2244Y2532D02*
X2243D01*
X2241Y2532*
X2239Y2531*
X2238Y2531*
X2236Y2530*
X2235Y2529*
X2234Y2528*
X2233Y2526*
X2232Y2525*
X2231Y2523*
X2231Y2522*
X2231Y2520*
Y2518*
X2231Y2517*
X2231Y2515*
X2232Y2514*
X2233Y2512*
X2234Y2511*
X2235Y2510*
X2236Y2509*
X2238Y2508*
X2239Y2507*
X2241Y2507*
X2243Y2506*
X2244*
X2245Y2506*
X2313Y2439*
X2314Y2438*
X2315Y2437*
X2316Y2436*
X2317Y2436*
X2318Y2436*
X2537*
X2537Y2436*
X2538Y2435*
X2540Y2434*
X2541Y2433*
X2543Y2432*
X2544Y2432*
X2546Y2432*
X2548*
X2549Y2432*
X2551Y2432*
X2552Y2433*
X2554Y2434*
X2555Y2435*
X2556Y2436*
X2557Y2437*
X2558Y2439*
X2559Y2440*
X2559Y2442*
X2560Y2444*
Y2445*
X2559Y2447*
X2559Y2449*
X2558Y2450*
X2557Y2452*
X2556Y2453*
X2555Y2454*
X2554Y2455*
X2552Y2456*
X2551Y2457*
X2549Y2457*
X2548Y2457*
X2546*
X2544Y2457*
X2543Y2457*
X2541Y2456*
X2540Y2455*
X2538Y2454*
X2537Y2453*
X2537Y2453*
X2322*
X2256Y2518*
X2256Y2518*
Y2520*
X2256Y2522*
X2256Y2523*
X2255Y2525*
X2254Y2526*
X2253Y2528*
X2252Y2529*
X2251Y2530*
X2249Y2531*
X2248Y2531*
X2246Y2532*
X2244Y2532*
G37*
G36*
X1217Y2502D02*
X1190D01*
Y2488*
X1190Y2488*
X1189Y2486*
Y2471*
X1189Y2470*
X1188Y2469*
X1187Y2468*
X1187Y2466*
X1186Y2465*
Y2449*
X1177*
X1176Y2449*
X1176*
X1175Y2449*
X1175Y2449*
X1175Y2449*
X1174Y2449*
X1174Y2449*
X1173Y2449*
X1173Y2449*
X1173Y2449*
X1172Y2448*
X1172Y2448*
X1171Y2448*
X1171Y2448*
X1171Y2448*
X1170Y2448*
X1170Y2447*
X1170Y2447*
X1169Y2447*
X1169Y2447*
X1169Y2446*
X1168Y2446*
X1168Y2446*
X1168Y2446*
X1167Y2445*
X1167Y2445*
X1167Y2445*
X1166Y2444*
X1166Y2444*
X1166Y2444*
X1166Y2443*
X1166Y2443*
X1165Y2443*
X1165Y2442*
X1165Y2442*
X1165Y2441*
X1165Y2441*
X1165Y2441*
X1164Y2440*
X1164Y2440*
X1164Y2439*
X1164Y2439*
X1164Y2439*
X1164Y2438*
X1164Y2438*
X1164Y2437*
Y2437*
X1164Y2437*
X1164Y2436*
Y2436*
X1164Y2435*
X1164Y2435*
X1164Y2434*
X1164Y2434*
X1164Y2434*
X1164Y2433*
X1164Y2433*
X1165Y2432*
X1165Y2432*
X1165Y2432*
X1165Y2431*
X1165Y2431*
X1165Y2430*
X1166Y2430*
X1166Y2430*
X1166Y2429*
X1166Y2429*
X1166Y2429*
X1167Y2428*
X1167Y2428*
X1167Y2428*
X1168Y2427*
X1168Y2427*
X1168Y2427*
X1169Y2427*
X1169Y2426*
X1169Y2426*
X1170Y2426*
X1170Y2426*
X1170Y2425*
X1171Y2425*
X1171Y2425*
X1171Y2425*
X1172Y2425*
X1172Y2425*
X1173Y2424*
X1173Y2424*
X1173Y2424*
X1174Y2424*
X1174Y2424*
X1175Y2424*
X1175Y2424*
X1175Y2424*
X1176Y2424*
X1176*
X1177Y2424*
X1186*
Y2419*
X1187Y2417*
X1187Y2416*
X1188Y2415*
X1189Y2414*
X1190Y2413*
X1191Y2412*
X1192Y2412*
X1193Y2412*
X1211*
X1212Y2412*
X1214Y2412*
X1215Y2413*
X1216Y2414*
X1217Y2415*
X1218Y2416*
X1218Y2417*
X1218Y2419*
Y2465*
X1218Y2466*
X1218Y2468*
X1217Y2469*
X1216Y2470*
X1216Y2470*
X1217Y2474*
Y2502*
G37*
G36*
X3071Y2434D02*
X3070D01*
X3068Y2433*
X3066Y2433*
X3065Y2432*
X3063Y2431*
X3062Y2430*
X3061Y2429*
X3060Y2428*
X3059Y2426*
X3058Y2425*
X3058Y2423*
X3058Y2422*
Y2420*
X3058Y2418*
X3058Y2417*
X3059Y2415*
X3060Y2414*
X3061Y2412*
X3062Y2411*
X3063Y2410*
X3065Y2409*
X3066Y2409*
X3068Y2408*
X3070Y2408*
X3071*
X3073Y2408*
X3074Y2409*
X3076Y2409*
X3077Y2410*
X3079Y2411*
X3080Y2412*
X3081Y2414*
X3082Y2415*
X3083Y2417*
X3083Y2418*
X3083Y2420*
Y2422*
X3083Y2423*
X3083Y2425*
X3082Y2426*
X3081Y2428*
X3080Y2429*
X3079Y2430*
X3077Y2431*
X3076Y2432*
X3074Y2433*
X3073Y2433*
X3071Y2434*
G37*
G36*
X1211Y2382D02*
X1193D01*
X1192Y2382*
X1191Y2382*
X1190Y2381*
X1166*
Y2382*
X1123*
Y2342*
X1136*
X1147Y2330*
Y2307*
X1153*
Y2279*
X1153Y2278*
X1154Y2277*
X1154Y2276*
X1155Y2276*
X1156Y2275*
X1157Y2275*
X1181*
X1182Y2275*
X1183Y2276*
X1183Y2276*
X1184Y2277*
X1184Y2278*
X1185Y2279*
Y2293*
X1215Y2323*
X1215Y2323*
X1216Y2324*
X1217Y2325*
X1218Y2327*
X1218Y2328*
X1218Y2329*
Y2375*
X1218Y2377*
X1218Y2378*
X1217Y2379*
X1216Y2380*
X1215Y2381*
X1214Y2382*
X1212Y2382*
X1211Y2382*
G37*
G36*
X2889Y2370D02*
X2791D01*
X2790Y2369*
X2789Y2369*
X2788Y2368*
X2772Y2353*
X2772Y2352*
X2771Y2351*
X2771Y2350*
Y2318*
X2771Y2317*
X2772Y2316*
X2772Y2316*
X2773Y2315*
X2774Y2315*
X2775Y2314*
X2909*
X2910Y2315*
X2911Y2315*
X2912Y2316*
X2920Y2323*
X2920Y2324*
X2921Y2325*
X2921Y2326*
Y2338*
X2921Y2339*
X2920Y2340*
X2920Y2341*
X2892Y2368*
X2891Y2369*
X2890Y2369*
X2889Y2370*
G37*
G36*
X2866Y2304D02*
X2863D01*
X2837*
X2835*
X2831*
X2806*
X2803*
X2800*
X2772*
Y2277*
X2774Y2273*
X2774Y2272*
Y2270*
X2774Y2269*
X2775Y2267*
X2775Y2265*
X2776Y2264*
X2777Y2263*
X2778Y2262*
X2780Y2260*
X2781Y2260*
X2783Y2259*
X2784Y2259*
X2786Y2258*
X2788*
X2789Y2259*
X2791Y2259*
X2793Y2260*
X2794Y2260*
X2795Y2262*
X2797Y2263*
X2798Y2264*
X2798Y2265*
X2799Y2267*
X2799Y2269*
X2800Y2270*
Y2272*
X2803Y2274*
X2803Y2274*
X2806Y2270*
Y2270*
X2806Y2269*
X2806Y2267*
X2807Y2265*
X2808Y2264*
X2809Y2263*
X2810Y2262*
X2811Y2260*
X2813Y2260*
X2814Y2259*
X2816Y2259*
X2818Y2258*
X2819*
X2821Y2259*
X2823Y2259*
X2824Y2260*
X2826Y2260*
X2827Y2262*
X2828Y2263*
X2829Y2264*
X2830Y2265*
X2831Y2267*
X2831Y2269*
X2831Y2270*
Y2272*
X2834Y2274*
X2834Y2274*
X2837Y2270*
Y2270*
X2837Y2269*
X2838Y2267*
X2838Y2265*
X2839Y2264*
X2840Y2263*
X2841Y2262*
X2843Y2260*
X2844Y2260*
X2846Y2259*
X2847Y2259*
X2849Y2258*
X2851*
X2852Y2259*
X2854Y2259*
X2856Y2260*
X2857Y2260*
X2858Y2262*
X2860Y2263*
X2861Y2264*
X2861Y2265*
X2862Y2267*
X2862Y2269*
X2863Y2270*
Y2272*
X2866Y2274*
X2866Y2274*
X2869Y2270*
Y2270*
X2869Y2269*
X2869Y2267*
X2870Y2265*
X2871Y2264*
X2872Y2263*
X2873Y2262*
X2874Y2260*
X2876Y2260*
X2877Y2259*
X2879Y2259*
X2881Y2258*
X2882*
X2884Y2259*
X2886Y2259*
X2887Y2260*
X2889Y2260*
X2890Y2262*
X2891Y2263*
X2892Y2264*
X2893Y2265*
X2894Y2267*
X2894Y2269*
X2894Y2270*
Y2272*
X2894Y2273*
X2896Y2277*
Y2304*
X2866*
G37*
G36*
X2079D02*
X2075D01*
X2050*
X2046*
X2044*
X2018*
X2016*
X2012*
X1985*
Y2277*
X1987Y2273*
X1987Y2272*
Y2270*
X1987Y2269*
X1987Y2267*
X1988Y2265*
X1989Y2264*
X1990Y2263*
X1991Y2262*
X1992Y2260*
X1994Y2260*
X1995Y2259*
X1997Y2259*
X1999Y2258*
X2000*
X2002Y2259*
X2004Y2259*
X2005Y2260*
X2007Y2260*
X2008Y2262*
X2009Y2263*
X2010Y2264*
X2011Y2265*
X2012Y2267*
X2012Y2269*
X2012Y2270*
Y2272*
X2015Y2274*
X2015Y2274*
X2018Y2270*
Y2270*
X2018Y2269*
X2019Y2267*
X2020Y2265*
X2020Y2264*
X2021Y2263*
X2023Y2262*
X2024Y2260*
X2025Y2260*
X2027Y2259*
X2029Y2259*
X2030Y2258*
X2032*
X2034Y2259*
X2035Y2259*
X2037Y2260*
X2038Y2260*
X2039Y2262*
X2041Y2263*
X2042Y2264*
X2043Y2265*
X2043Y2267*
X2044Y2269*
X2044Y2270*
Y2270*
X2047Y2274*
X2047Y2274*
X2050Y2272*
Y2270*
X2050Y2269*
X2050Y2267*
X2051Y2265*
X2052Y2264*
X2053Y2263*
X2054Y2262*
X2055Y2260*
X2057Y2260*
X2058Y2259*
X2060Y2259*
X2062Y2258*
X2063*
X2065Y2259*
X2067Y2259*
X2068Y2260*
X2070Y2260*
X2071Y2262*
X2072Y2263*
X2073Y2264*
X2074Y2265*
X2075Y2267*
X2075Y2269*
X2075Y2270*
Y2270*
X2078Y2274*
X2078Y2274*
X2081Y2272*
Y2270*
X2081Y2269*
X2082Y2267*
X2082Y2265*
X2083Y2264*
X2084Y2263*
X2086Y2262*
X2087Y2260*
X2088Y2260*
X2090Y2259*
X2091Y2259*
X2093Y2258*
X2095*
X2096Y2259*
X2098Y2259*
X2100Y2260*
X2101Y2260*
X2102Y2262*
X2104Y2263*
X2105Y2264*
X2105Y2265*
X2106Y2267*
X2107Y2269*
X2107Y2270*
Y2272*
X2107Y2273*
X2109Y2277*
Y2304*
X2081*
X2079*
G37*
G36*
X1286Y2472D02*
X1268D01*
X1267Y2472*
X1266Y2471*
X1264Y2471*
X1263Y2470*
X1262Y2469*
X1262Y2468*
X1261Y2466*
X1261Y2465*
Y2419*
X1261Y2417*
X1262Y2416*
X1262Y2415*
X1263Y2414*
X1264Y2413*
X1266Y2412*
X1267Y2412*
X1268Y2412*
Y2382*
X1267Y2382*
X1266Y2382*
X1264Y2381*
X1263Y2380*
X1262Y2379*
X1262Y2378*
X1261Y2377*
X1261Y2375*
Y2329*
X1261Y2328*
X1262Y2327*
X1262Y2325*
X1263Y2324*
X1263Y2324*
X1264Y2321*
Y2292*
X1269*
Y2287*
X1268*
Y2247*
X1311*
Y2252*
X1313Y2254*
X1315Y2255*
X1316Y2255*
X1318Y2254*
X1319*
X1321Y2255*
X1323Y2255*
X1324Y2256*
X1326Y2257*
X1327Y2258*
X1328Y2259*
X1329Y2260*
X1330Y2262*
X1331Y2263*
X1331Y2265*
X1331Y2266*
Y2268*
X1331Y2270*
X1331Y2271*
X1330Y2273*
X1329Y2274*
X1328Y2276*
X1327Y2277*
X1326Y2278*
X1324Y2279*
X1323Y2279*
X1321Y2280*
X1319Y2280*
X1318*
X1316Y2280*
X1315Y2280*
X1313Y2281*
X1311Y2282*
Y2287*
X1287*
Y2292*
X1292*
Y2321*
X1292Y2322*
X1291Y2325*
X1292Y2325*
X1292Y2327*
X1293Y2328*
X1293Y2329*
Y2375*
X1293Y2377*
X1292Y2378*
X1292Y2379*
X1291Y2380*
X1290Y2381*
X1289Y2382*
X1287Y2382*
X1286Y2382*
Y2412*
X1287Y2412*
X1289Y2412*
X1290Y2413*
X1291Y2414*
X1292Y2415*
X1292Y2416*
X1293Y2417*
X1293Y2419*
Y2465*
X1293Y2466*
X1292Y2468*
X1292Y2469*
X1291Y2470*
X1290Y2471*
X1289Y2471*
X1287Y2472*
X1286Y2472*
G37*
G36*
X2107Y2245D02*
X2105D01*
X2103Y2244*
X2102Y2244*
X2100Y2243*
X2099Y2242*
X2097Y2241*
X2096Y2240*
X2095Y2239*
X2094Y2237*
X2094Y2236*
X2093Y2234*
X2093Y2233*
Y2231*
X2093Y2229*
X2094Y2228*
X2094Y2226*
X2095Y2225*
X2096Y2223*
X2097Y2222*
X2099Y2221*
X2100Y2220*
X2102Y2220*
X2103Y2219*
X2105Y2219*
X2107*
X2108Y2219*
X2110Y2220*
X2111Y2220*
X2113Y2221*
X2114Y2222*
X2115Y2223*
X2116Y2225*
X2117Y2226*
X2118Y2228*
X2118Y2229*
X2119Y2231*
Y2233*
X2118Y2234*
X2118Y2236*
X2117Y2237*
X2116Y2239*
X2115Y2240*
X2114Y2241*
X2113Y2242*
X2111Y2243*
X2110Y2244*
X2108Y2244*
X2107Y2245*
G37*
G36*
X1181Y2267D02*
X1090D01*
X1089Y2267*
X1088Y2267*
X1087Y2266*
X1087Y2265*
X1086Y2264*
X1086Y2263*
Y2228*
X1086Y2227*
X1087Y2226*
X1087Y2225*
X1095Y2217*
X1096Y2217*
X1097Y2216*
X1098Y2216*
X1173*
X1174Y2216*
X1175Y2217*
X1176Y2217*
X1183Y2225*
X1184Y2226*
X1184Y2227*
X1185Y2228*
Y2263*
X1184Y2264*
X1184Y2265*
X1183Y2266*
X1183Y2267*
X1182Y2267*
X1181Y2267*
G37*
G36*
X2922Y2229D02*
X2920D01*
X2918Y2229*
X2917Y2228*
X2915Y2228*
X2914Y2227*
X2912Y2226*
X2911Y2224*
X2910Y2223*
X2909Y2222*
X2909Y2220*
X2908Y2219*
X2908Y2217*
Y2215*
X2908Y2214*
X2909Y2212*
X2909Y2210*
X2910Y2209*
X2911Y2208*
X2912Y2206*
X2914Y2205*
X2915Y2205*
X2917Y2204*
X2918Y2203*
X2920Y2203*
X2922*
X2923Y2203*
X2925Y2204*
X2926Y2205*
X2928Y2205*
X2929Y2206*
X2930Y2208*
X2931Y2209*
X2932Y2210*
X2933Y2212*
X2933Y2214*
X2934Y2215*
Y2217*
X2933Y2219*
X2933Y2220*
X2932Y2222*
X2931Y2223*
X2930Y2224*
X2929Y2226*
X2928Y2227*
X2926Y2228*
X2925Y2228*
X2923Y2229*
X2922Y2229*
G37*
G36*
X2134Y2207D02*
X2133D01*
X2131Y2207*
X2129Y2207*
X2128Y2206*
X2126Y2205*
X2125Y2204*
X2124Y2203*
X2123Y2202*
X2122Y2200*
X2121Y2199*
X2121Y2197*
X2121Y2195*
Y2194*
X2121Y2192*
X2121Y2190*
X2122Y2189*
X2123Y2187*
X2124Y2186*
X2125Y2185*
X2126Y2184*
X2128Y2183*
X2129Y2182*
X2131Y2182*
X2133Y2182*
X2134*
X2136Y2182*
X2137Y2182*
X2139Y2183*
X2140Y2184*
X2142Y2185*
X2143Y2186*
X2144Y2187*
X2145Y2189*
X2146Y2190*
X2146Y2192*
X2146Y2194*
Y2195*
X2146Y2197*
X2146Y2199*
X2145Y2200*
X2144Y2202*
X2143Y2203*
X2142Y2204*
X2140Y2205*
X2139Y2206*
X2137Y2207*
X2136Y2207*
X2134Y2207*
G37*
G36*
X2928Y2197D02*
X2927D01*
X2925Y2197*
X2924Y2197*
X2922Y2196*
X2921Y2195*
X2919Y2194*
X2918Y2193*
X2917Y2192*
X2916Y2190*
X2916Y2189*
X2915Y2187*
X2915Y2185*
Y2184*
X2915Y2182*
X2916Y2180*
X2916Y2179*
X2917Y2177*
X2918Y2176*
X2919Y2175*
X2921Y2174*
X2922Y2173*
X2924Y2172*
X2925Y2172*
X2927Y2172*
X2928*
X2930Y2172*
X2932Y2172*
X2933Y2173*
X2935Y2174*
X2936Y2175*
X2937Y2176*
X2938Y2177*
X2939Y2179*
X2940Y2180*
X2940Y2182*
X2940Y2184*
Y2185*
X2940Y2187*
X2940Y2189*
X2939Y2190*
X2938Y2192*
X2937Y2193*
X2936Y2194*
X2935Y2195*
X2933Y2196*
X2932Y2197*
X2930Y2197*
X2928Y2197*
G37*
G36*
X945Y2237D02*
X944D01*
X942Y2236*
X940Y2236*
X939Y2235*
X937Y2235*
X936Y2234*
X935Y2232*
X934Y2231*
X933Y2230*
X932Y2228*
X932Y2226*
X932Y2225*
Y2223*
X932Y2221*
X932Y2220*
X933Y2218*
X934Y2217*
X935Y2215*
X936Y2214*
X937Y2213*
X939Y2212*
X940Y2212*
X942Y2211*
X944Y2211*
X945*
X945Y2211*
X978Y2179*
X979Y2178*
X980Y2177*
X981Y2177*
X982Y2177*
X983Y2177*
X1142*
Y2171*
X1172*
X1174*
X1203*
Y2199*
X1174*
X1172*
X1142*
Y2193*
X987*
X957Y2223*
X957Y2223*
Y2225*
X957Y2226*
X957Y2228*
X956Y2230*
X955Y2231*
X954Y2232*
X953Y2234*
X952Y2235*
X950Y2235*
X949Y2236*
X947Y2236*
X945Y2237*
G37*
G36*
X2193Y2170D02*
X2192D01*
X2190Y2170*
X2188Y2169*
X2187Y2168*
X2185Y2168*
X2184Y2167*
X2183Y2165*
X2182Y2165*
X2157*
X2155Y2165*
X2154Y2164*
X2153Y2164*
X2151Y2163*
X2088Y2100*
X2087Y2098*
X2087Y2097*
X2086Y2096*
X2086Y2094*
Y2091*
X2078*
Y2065*
X2086*
Y2045*
X2079*
Y2017*
X2107*
X2108*
X2110Y2014*
X2109Y2011*
X2107*
X2106Y2011*
X2104Y2011*
X2103Y2010*
X2102Y2009*
X2098Y2005*
X2079*
Y1977*
X2098*
X2100Y1975*
Y1968*
X2096Y1965*
X2096Y1965*
X2096Y1965*
X2095Y1966*
X2095Y1966*
X2094Y1967*
X2093Y1967*
X2092Y1967*
X2084*
X2083Y1967*
X2082Y1967*
X2082Y1966*
X2081Y1966*
X2080Y1965*
X2080Y1964*
X2079Y1963*
X2079Y1963*
X2078Y1961*
X2075Y1960*
X2074Y1960*
X2073Y1961*
X2071Y1961*
X2070*
X2068Y1961*
X2066Y1960*
X2065Y1960*
X2063Y1959*
X2062Y1958*
X2061Y1957*
X2060Y1955*
X2059Y1954*
X2058Y1952*
X2058Y1951*
X2058Y1949*
Y1947*
X2058Y1946*
X2058Y1944*
X2059Y1943*
X2060Y1941*
X2061Y1940*
X2062Y1939*
X2063Y1938*
X2065Y1937*
X2066Y1936*
X2068Y1936*
X2070Y1936*
X2071*
X2073Y1936*
X2074Y1936*
X2075Y1937*
X2078Y1936*
X2079Y1934*
Y1931*
X2079Y1930*
X2080Y1929*
X2080Y1928*
X2081Y1927*
X2082Y1927*
X2082Y1926*
X2083Y1926*
X2084Y1926*
X2092*
X2093Y1926*
X2094Y1926*
X2095Y1927*
X2095Y1927*
X2096Y1927*
X2096Y1928*
X2098Y1928*
X2100Y1928*
X2100Y1927*
X2100Y1927*
X2101Y1927*
X2102Y1926*
X2103Y1926*
X2104Y1926*
X2111*
X2112Y1926*
X2113Y1926*
X2114Y1927*
X2115Y1927*
X2115Y1927*
X2116Y1928*
X2118Y1928*
X2120Y1928*
X2120Y1927*
X2120Y1927*
X2121Y1927*
X2122Y1926*
X2123Y1926*
X2124Y1926*
X2131*
X2132Y1926*
X2133Y1926*
X2134Y1927*
X2135Y1927*
X2135Y1928*
X2136Y1929*
X2136Y1930*
X2136Y1931*
Y1962*
X2136Y1963*
X2137Y1963*
X2138Y1965*
X2139Y1966*
X2140Y1968*
X2140Y1969*
X2140Y1971*
Y1973*
X2140Y1974*
X2140Y1976*
X2139Y1978*
X2138Y1979*
X2137Y1980*
X2136Y1982*
X2135Y1983*
X2133Y1983*
X2132Y1984*
X2130Y1985*
X2130Y1985*
X2130Y1989*
X2139*
Y2018*
X2113*
X2111*
X2109Y2021*
X2109Y2025*
Y2045*
X2102*
Y2065*
X2110*
Y2091*
X2107*
X2106Y2095*
X2160Y2149*
X2182*
X2183Y2149*
X2184Y2147*
X2185Y2146*
X2187Y2145*
X2188Y2145*
X2190Y2144*
X2192Y2144*
X2193*
X2195Y2144*
X2197Y2145*
X2198Y2145*
X2200Y2146*
X2201Y2147*
X2202Y2149*
X2203Y2150*
X2204Y2151*
X2205Y2153*
X2205Y2154*
X2205Y2156*
Y2158*
X2205Y2159*
X2205Y2161*
X2204Y2163*
X2203Y2164*
X2202Y2165*
X2201Y2167*
X2200Y2168*
X2198Y2168*
X2197Y2169*
X2195Y2170*
X2193Y2170*
G37*
G36*
X2748Y2168D02*
X2747D01*
X2745Y2168*
X2743Y2167*
X2742Y2167*
X2740Y2166*
X2739Y2165*
X2738Y2163*
X2737Y2162*
X2736Y2161*
X2735Y2159*
X2735Y2158*
X2735Y2156*
Y2154*
X2735Y2153*
X2735Y2151*
X2736Y2149*
X2737Y2148*
X2738Y2147*
X2739Y2145*
X2740Y2144*
X2742Y2144*
X2743Y2143*
X2745Y2142*
X2747Y2142*
X2748*
X2750Y2142*
X2752Y2143*
X2753Y2144*
X2755Y2144*
X2756Y2145*
X2757Y2147*
X2758Y2148*
X2759Y2149*
X2760Y2151*
X2760Y2153*
X2760Y2154*
Y2156*
X2760Y2158*
X2760Y2159*
X2759Y2161*
X2758Y2162*
X2757Y2163*
X2756Y2165*
X2755Y2166*
X2753Y2167*
X2752Y2167*
X2750Y2168*
X2748Y2168*
G37*
G36*
X1961Y2166D02*
X1959D01*
X1958Y2166*
X1956Y2165*
X1954Y2165*
X1953Y2164*
X1952Y2163*
X1950Y2162*
X1949Y2160*
X1949Y2159*
X1948Y2157*
X1948Y2156*
X1947Y2154*
Y2152*
X1948Y2151*
X1948Y2149*
X1949Y2147*
X1949Y2146*
X1950Y2145*
X1952Y2143*
X1953Y2142*
X1954Y2142*
X1956Y2141*
X1958Y2140*
X1959Y2140*
X1961*
X1963Y2140*
X1964Y2141*
X1966Y2142*
X1967Y2142*
X1969Y2143*
X1970Y2145*
X1971Y2146*
X1972Y2147*
X1972Y2149*
X1973Y2151*
X1973Y2152*
Y2154*
X1973Y2156*
X1972Y2157*
X1972Y2159*
X1971Y2160*
X1970Y2162*
X1969Y2163*
X1967Y2164*
X1966Y2165*
X1964Y2165*
X1963Y2166*
X1961Y2166*
G37*
G36*
X2644Y2726D02*
X2616D01*
Y2724*
X2616Y2724*
X2616Y2724*
X2616Y2724*
X2614Y2723*
X2614Y2723*
X2614Y2723*
X2612Y2722*
X2612Y2722*
X2611Y2722*
X2610Y2721*
X2610Y2721*
X2609Y2721*
X2608Y2720*
X2608Y2720*
X2608Y2719*
X2606Y2718*
X2606Y2718*
X2606Y2718*
X2605Y2716*
X2605Y2716*
X2604Y2716*
X2604Y2714*
X2603Y2714*
X2603Y2714*
X2603Y2712*
X2603Y2712*
X2602Y2712*
X2602Y2710*
X2602Y2710*
X2602Y2709*
X2602Y2707*
Y2707*
X2602Y2707*
Y2706*
X2602Y2706*
X2601Y2705*
X2601Y2705*
X2601Y2704*
X2600Y2703*
X2599Y2702*
X2599Y2702*
X2598Y2701*
X2597Y2701*
X2596Y2701*
X2595Y2700*
X2594Y2700*
X2594Y2700*
X2551*
X2550Y2700*
X2521*
Y2663*
X2521*
X2522Y2659*
X2522Y2658*
X2521Y2657*
X2520Y2656*
X2520Y2654*
X2519Y2653*
Y2644*
X2513*
Y2614*
X2519*
Y2610*
X2501*
Y2546*
X2547*
Y2487*
X2547Y2487*
X2547Y2486*
X2547Y2485*
X2547Y2484*
X2547Y2484*
X2548Y2482*
X2548Y2482*
X2548Y2482*
X2549Y2480*
X2549Y2480*
X2550Y2480*
X2551Y2479*
X2551Y2479*
X2551Y2478*
X2553Y2477*
X2553Y2477*
X2553Y2477*
X2555Y2476*
X2555Y2476*
X2555Y2476*
X2557Y2476*
X2557Y2476*
X2558Y2476*
X2559*
X2559*
X2566*
Y2464*
X2566Y2463*
X2566Y2462*
X2567Y2460*
X2568Y2459*
X2568Y2458*
X2596Y2431*
X2597Y2430*
X2598Y2429*
X2599Y2429*
X2601Y2428*
X2602Y2428*
X2957*
X3141Y2244*
Y2155*
X3141Y2155*
X3139Y2154*
X3138Y2152*
X3138Y2151*
X3137Y2149*
X3137Y2148*
X3136Y2146*
Y2144*
X3137Y2143*
X3137Y2141*
X3138Y2140*
X3138Y2138*
X3139Y2137*
X3141Y2136*
X3142Y2135*
X3143Y2134*
X3145Y2133*
X3147Y2133*
X3148Y2132*
X3150*
X3152Y2133*
X3153Y2133*
X3155Y2134*
X3156Y2135*
X3158Y2136*
X3159Y2137*
X3160Y2138*
X3161Y2140*
X3161Y2141*
X3162Y2143*
X3162Y2144*
Y2146*
X3162Y2148*
X3161Y2149*
X3161Y2151*
X3160Y2152*
X3159Y2154*
X3158Y2155*
X3157Y2155*
Y2248*
X3157Y2249*
X3157Y2250*
X3157Y2251*
X3156Y2252*
X3155Y2253*
X2966Y2442*
X2965Y2443*
X2964Y2444*
X2963Y2444*
X2961Y2445*
X2960Y2445*
X2605*
X2583Y2468*
Y2476*
X2626*
X2626Y2476*
X2627Y2476*
X2627Y2476*
X2628Y2476*
X2628Y2476*
X2629Y2477*
X2629Y2477*
X2630Y2477*
X2630Y2477*
X2630Y2478*
X2631Y2478*
X2631Y2478*
X2632Y2479*
X2632Y2479*
X2632Y2480*
X2632Y2480*
X2633Y2480*
X2633Y2481*
X2633Y2481*
X2633Y2482*
X2633Y2483*
X2633Y2483*
X2633Y2483*
Y2484*
Y2507*
Y2562*
Y2647*
X2633Y2648*
X2634Y2649*
X2634Y2650*
X2634Y2651*
X2634Y2652*
X2635Y2652*
X2635Y2653*
X2636Y2654*
X2636Y2654*
X2637Y2655*
X2637Y2655*
X2637Y2655*
X2638Y2656*
X2638Y2656*
X2638Y2656*
X2639Y2657*
X2639Y2658*
X2639Y2658*
X2640Y2659*
X2640Y2659*
X2640Y2659*
X2640Y2660*
X2640Y2661*
X2640Y2661*
X2641Y2662*
X2641Y2662*
X2641Y2662*
X2641Y2664*
X2641Y2664*
X2641Y2664*
X2641Y2665*
X2644Y2666*
Y2695*
Y2698*
Y2726*
G37*
G36*
X2914Y2138D02*
X2912D01*
X2910Y2138*
X2909Y2138*
X2907Y2137*
X2906Y2136*
X2904Y2135*
X2903Y2134*
X2902Y2133*
X2901Y2131*
X2901Y2130*
X2900Y2128*
X2900Y2126*
Y2125*
X2900Y2123*
X2901Y2121*
X2901Y2120*
X2902Y2118*
X2903Y2117*
X2904Y2116*
X2906Y2115*
X2907Y2114*
X2909Y2113*
X2910Y2113*
X2912Y2113*
X2914*
X2915Y2113*
X2917Y2113*
X2919Y2114*
X2920Y2115*
X2921Y2116*
X2923Y2117*
X2924Y2118*
X2924Y2120*
X2925Y2121*
X2925Y2123*
X2926Y2125*
Y2126*
X2925Y2128*
X2925Y2130*
X2924Y2131*
X2924Y2133*
X2923Y2134*
X2921Y2135*
X2920Y2136*
X2919Y2137*
X2917Y2138*
X2915Y2138*
X2914Y2138*
G37*
G36*
X2091D02*
X2089D01*
X2088Y2138*
X2086Y2138*
X2084Y2137*
X2083Y2136*
X2082Y2135*
X2080Y2134*
X2079Y2133*
X2079Y2131*
X2078Y2130*
X2077Y2128*
X2077Y2126*
Y2125*
X2077Y2123*
X2078Y2121*
X2079Y2120*
X2079Y2118*
X2080Y2117*
X2082Y2116*
X2083Y2115*
X2084Y2114*
X2086Y2113*
X2088Y2113*
X2089Y2113*
X2091*
X2093Y2113*
X2094Y2113*
X2096Y2114*
X2097Y2115*
X2099Y2116*
X2100Y2117*
X2101Y2118*
X2102Y2120*
X2102Y2121*
X2103Y2123*
X2103Y2125*
Y2126*
X2103Y2128*
X2102Y2130*
X2102Y2131*
X2101Y2133*
X2100Y2134*
X2099Y2135*
X2097Y2136*
X2096Y2137*
X2094Y2138*
X2093Y2138*
X2091Y2138*
G37*
G36*
X2825Y2110D02*
X2823D01*
X2822Y2110*
X2820Y2109*
X2819Y2108*
X2817Y2108*
X2816Y2107*
X2815Y2105*
X2814Y2104*
X2813Y2103*
X2812Y2101*
X2812Y2099*
X2812Y2098*
Y2096*
X2812Y2094*
X2812Y2093*
X2813Y2091*
X2814Y2090*
X2815Y2088*
X2816Y2087*
X2817Y2086*
X2819Y2085*
X2820Y2085*
X2822Y2084*
X2823Y2084*
X2825*
X2827Y2084*
X2828Y2085*
X2830Y2085*
X2831Y2086*
X2833Y2087*
X2834Y2088*
X2835Y2090*
X2836Y2091*
X2836Y2093*
X2837Y2094*
X2837Y2096*
Y2098*
X2837Y2099*
X2836Y2101*
X2836Y2103*
X2835Y2104*
X2834Y2105*
X2833Y2107*
X2831Y2108*
X2830Y2108*
X2828Y2109*
X2827Y2110*
X2825Y2110*
G37*
G36*
X2038D02*
X2036D01*
X2034Y2110*
X2033Y2109*
X2031Y2108*
X2030Y2108*
X2028Y2107*
X2027Y2105*
X2026Y2104*
X2025Y2103*
X2025Y2101*
X2024Y2099*
X2024Y2098*
Y2096*
X2024Y2094*
X2025Y2093*
X2025Y2091*
X2026Y2090*
X2027Y2088*
X2028Y2087*
X2030Y2086*
X2031Y2085*
X2033Y2085*
X2034Y2084*
X2036Y2084*
X2038*
X2039Y2084*
X2041Y2085*
X2043Y2085*
X2044Y2086*
X2045Y2087*
X2047Y2088*
X2048Y2090*
X2048Y2091*
X2049Y2093*
X2049Y2094*
X2050Y2096*
Y2098*
X2049Y2099*
X2049Y2101*
X2048Y2103*
X2048Y2104*
X2047Y2105*
X2045Y2107*
X2044Y2108*
X2043Y2108*
X2041Y2109*
X2039Y2110*
X2038Y2110*
G37*
G36*
X1174Y2159D02*
X1170D01*
X1142*
Y2131*
X1144Y2127*
X1144Y2126*
Y2125*
X1144Y2123*
X1145Y2121*
X1145Y2120*
X1146Y2118*
X1147Y2117*
X1149Y2116*
X1150Y2115*
X1151Y2114*
X1153Y2113*
X1154Y2113*
X1156Y2113*
X1158*
X1159Y2113*
X1161Y2113*
X1163Y2114*
X1164Y2115*
X1165Y2116*
X1167Y2117*
X1168Y2118*
X1168Y2120*
X1169Y2121*
X1170Y2123*
X1170Y2125*
Y2126*
X1170Y2127*
X1172Y2130*
X1176Y2130*
X1176Y2130*
X1178Y2127*
X1178Y2126*
Y2125*
X1178Y2123*
X1178Y2121*
X1179Y2121*
X1178Y2120*
X1177Y2120*
X1176Y2119*
X1175Y2117*
X1175Y2116*
X1175Y2115*
Y2068*
X1175Y2067*
X1175Y2066*
X1176Y2065*
X1177Y2064*
X1178Y2063*
X1179Y2062*
X1180Y2062*
X1182Y2061*
X1199*
X1201Y2062*
X1202Y2062*
X1203Y2063*
X1204Y2064*
X1205Y2065*
X1206Y2066*
X1206Y2067*
X1206Y2068*
Y2115*
X1206Y2116*
X1206Y2117*
X1205Y2119*
X1204Y2120*
X1203Y2120*
X1202Y2121*
X1203Y2121*
X1203Y2123*
X1203Y2125*
Y2126*
X1203Y2127*
X1203Y2131*
Y2159*
X1174*
G37*
G36*
X1116Y2142D02*
X1115D01*
X1113Y2142*
X1112Y2142*
X1110Y2141*
X1109Y2140*
X1107Y2139*
X1106Y2138*
X1105Y2137*
X1104Y2135*
X1104Y2134*
X1103Y2132*
X1103Y2130*
Y2129*
X1103Y2127*
X1104Y2125*
X1104Y2125*
X1104Y2123*
X1103Y2120*
X1102Y2120*
X1101Y2119*
X1100Y2117*
X1100Y2116*
X1100Y2115*
Y2068*
X1100Y2067*
X1100Y2066*
X1101Y2065*
X1102Y2064*
X1103Y2063*
X1104Y2062*
X1105Y2062*
X1107Y2061*
X1125*
X1126Y2062*
X1127Y2062*
X1128Y2063*
X1129Y2064*
X1130Y2065*
X1131Y2066*
X1131Y2067*
X1131Y2068*
Y2115*
X1131Y2116*
X1131Y2117*
X1130Y2119*
X1129Y2120*
X1128Y2120*
X1127Y2123*
X1128Y2125*
X1128Y2125*
X1128Y2127*
X1128Y2129*
Y2130*
X1128Y2132*
X1128Y2134*
X1127Y2135*
X1126Y2137*
X1125Y2138*
X1124Y2139*
X1123Y2140*
X1121Y2141*
X1120Y2142*
X1118Y2142*
X1116Y2142*
G37*
G36*
X1060Y2167D02*
X1032D01*
Y2139*
X1032*
X1033Y2135*
X1033Y2134*
X1032Y2132*
X1032Y2130*
Y2129*
X1032Y2127*
X1033Y2125*
X1033Y2125*
Y2121*
X1032Y2120*
X1031Y2120*
X1030Y2119*
X1030Y2117*
X1029Y2116*
X1029Y2115*
Y2068*
X1029Y2067*
X1030Y2066*
X1030Y2065*
X1031Y2064*
X1032Y2063*
X1033Y2062*
X1035Y2062*
X1036Y2061*
X1054*
X1055Y2062*
X1056Y2062*
X1057Y2063*
X1059Y2064*
X1059Y2065*
X1060Y2066*
X1060Y2067*
X1061Y2068*
Y2115*
X1060Y2116*
X1060Y2117*
X1059Y2119*
X1059Y2120*
X1057Y2120*
X1057Y2121*
Y2125*
X1057Y2125*
X1057Y2127*
X1058Y2129*
Y2130*
X1057Y2132*
X1057Y2133*
Y2139*
X1060*
Y2167*
G37*
G36*
X971Y2142D02*
X969D01*
X967Y2142*
X966Y2142*
X964Y2141*
X963Y2140*
X962Y2139*
X960Y2138*
X959Y2137*
X958Y2135*
X958Y2134*
X957Y2132*
X957Y2130*
Y2129*
X957Y2127*
X958Y2125*
X958Y2125*
X958Y2123*
X957Y2120*
X956Y2120*
X955Y2119*
X955Y2117*
X954Y2116*
X954Y2115*
Y2068*
X954Y2067*
X955Y2066*
X955Y2065*
X956Y2064*
X957Y2063*
X958Y2062*
X960Y2062*
X961Y2061*
X979*
X980Y2062*
X981Y2062*
X983Y2063*
X984Y2064*
X985Y2065*
X985Y2066*
X986Y2067*
X986Y2068*
Y2115*
X986Y2116*
X985Y2117*
X985Y2119*
X984Y2120*
X983Y2120*
X982Y2123*
X982Y2125*
X982Y2125*
X983Y2127*
X983Y2129*
Y2130*
X983Y2132*
X982Y2134*
X981Y2135*
X981Y2137*
X980Y2138*
X978Y2139*
X977Y2140*
X976Y2141*
X974Y2142*
X972Y2142*
X971Y2142*
G37*
G36*
X3181Y2091D02*
X3149D01*
Y2065*
X3169*
X3173Y2062*
Y2045*
X3166*
Y2017*
X3196*
Y2045*
X3189*
Y2065*
X3188Y2067*
X3188Y2068*
X3187Y2070*
X3186Y2071*
X3181Y2077*
Y2091*
G37*
G36*
X2984D02*
X2952D01*
Y2065*
X2973*
X2976Y2062*
Y2045*
X2969*
Y2017*
X2999*
Y2045*
X2992*
Y2065*
X2992Y2067*
X2991Y2068*
X2990Y2070*
X2989Y2071*
X2984Y2077*
Y2091*
G37*
G36*
X2787D02*
X2755D01*
Y2065*
X2776*
X2779Y2062*
Y2045*
X2772*
Y2017*
X2802*
Y2045*
X2795*
Y2065*
X2795Y2067*
X2794Y2068*
X2793Y2070*
X2793Y2071*
X2787Y2077*
Y2091*
G37*
G36*
X2590D02*
X2559D01*
Y2065*
X2579*
X2582Y2062*
Y2045*
X2575*
Y2017*
X2605*
Y2045*
X2598*
Y2065*
X2598Y2067*
X2597Y2068*
X2597Y2070*
X2596Y2071*
X2590Y2077*
Y2091*
G37*
G36*
X2393D02*
X2362D01*
Y2065*
X2382*
X2385Y2062*
Y2045*
X2378*
Y2017*
X2408*
Y2045*
X2401*
Y2065*
X2401Y2067*
X2401Y2068*
X2400Y2070*
X2399Y2071*
X2393Y2077*
Y2091*
G37*
G36*
X2196D02*
X2165D01*
Y2065*
X2185*
X2188Y2062*
Y2045*
X2181*
Y2017*
X2211*
Y2045*
X2204*
Y2065*
X2204Y2067*
X2204Y2068*
X2203Y2070*
X2202Y2071*
X2196Y2077*
Y2091*
G37*
G36*
X2000D02*
X1968D01*
Y2065*
X1988*
X1992Y2062*
Y2045*
X1985*
Y2017*
X2014*
Y2045*
X2007*
Y2065*
X2007Y2067*
X2007Y2068*
X2006Y2070*
X2005Y2071*
X2000Y2077*
Y2091*
G37*
G36*
X1803D02*
X1771D01*
Y2065*
X1791*
X1795Y2062*
Y2045*
X1788*
Y2017*
X1818*
Y2045*
X1811*
Y2065*
X1810Y2067*
X1810Y2068*
X1809Y2070*
X1808Y2071*
X1803Y2077*
Y2091*
G37*
G36*
X979Y2032D02*
X961D01*
X960Y2032*
X958Y2031*
X957Y2031*
X956Y2030*
X955Y2029*
X955Y2028*
X954Y2026*
X954Y2025*
Y2012*
X946*
X946Y2012*
X945Y2013*
X944Y2014*
X942Y2015*
X941Y2016*
X939Y2016*
X937Y2016*
X936*
X934Y2016*
X932Y2016*
X931Y2015*
X929Y2014*
X928Y2013*
X927Y2012*
X926Y2011*
X925Y2009*
X924Y2008*
X924Y2006*
X924Y2004*
Y2003*
X924Y2001*
X924Y1999*
X925Y1998*
X926Y1996*
X927Y1995*
X928Y1994*
X929Y1993*
X931Y1992*
X932Y1991*
X934Y1991*
X936Y1991*
X937*
X939Y1991*
X941Y1991*
X942Y1992*
X944Y1993*
X945Y1994*
X946Y1995*
X946Y1995*
X954*
Y1979*
X954Y1977*
X955Y1976*
X955Y1975*
X956Y1974*
X957Y1973*
X958Y1972*
X960Y1972*
X961Y1972*
X979*
X980Y1972*
X981Y1972*
X983Y1973*
X984Y1974*
X985Y1975*
X985Y1976*
X986Y1977*
X986Y1979*
Y2025*
X986Y2026*
X985Y2028*
X985Y2029*
X984Y2030*
X983Y2031*
X981Y2031*
X980Y2032*
X979Y2032*
G37*
G36*
X1162D02*
X1144D01*
X1143Y2032*
X1142Y2031*
X1140Y2031*
X1139Y2030*
X1138Y2029*
X1138Y2028*
X1137Y2026*
X1137Y2025*
Y2010*
X1061*
Y2025*
X1060Y2026*
X1060Y2028*
X1059Y2029*
X1059Y2030*
X1057Y2031*
X1056Y2031*
X1055Y2032*
X1054Y2032*
X1036*
X1035Y2032*
X1033Y2031*
X1032Y2031*
X1031Y2030*
X1030Y2029*
X1030Y2028*
X1029Y2026*
X1029Y2025*
Y1979*
X1029Y1977*
X1030Y1976*
X1030Y1975*
X1031Y1974*
X1032Y1973*
X1033Y1972*
X1035Y1972*
X1036Y1972*
X1054*
X1055Y1972*
X1056Y1972*
X1057Y1973*
X1059Y1974*
X1059Y1975*
X1060Y1976*
X1060Y1977*
X1061Y1979*
Y1994*
X1137*
Y1979*
X1137Y1977*
X1138Y1976*
X1138Y1975*
X1139Y1974*
X1140Y1973*
X1142Y1972*
X1143Y1972*
X1144Y1972*
X1162*
X1163Y1972*
X1165Y1972*
X1166Y1973*
X1167Y1974*
X1168Y1975*
X1168Y1976*
X1169Y1977*
X1169Y1979*
Y2025*
X1169Y2026*
X1168Y2028*
X1168Y2029*
X1167Y2030*
X1166Y2031*
X1165Y2031*
X1163Y2032*
X1162Y2032*
G37*
G36*
X2292Y2111D02*
X2290D01*
X2288Y2111*
X2287Y2110*
X2285Y2109*
X2284Y2109*
X2282Y2108*
X2281Y2106*
X2280Y2105*
X2279Y2104*
X2279Y2102*
X2278Y2100*
X2278Y2099*
Y2097*
X2278Y2095*
X2278Y2095*
X2277Y2092*
X2276Y2091*
X2275*
Y2065*
X2283*
Y2045*
X2276*
Y2017*
X2304*
X2304*
X2307Y2014*
X2306Y2011*
X2304*
X2302Y2011*
X2301Y2011*
X2300Y2010*
X2298Y2009*
X2295Y2005*
X2276*
Y1977*
X2295*
X2297Y1975*
Y1968*
X2293Y1965*
X2293Y1965*
X2293Y1965*
X2292Y1966*
X2292Y1966*
X2291Y1967*
X2290Y1967*
X2289Y1967*
X2281*
X2280Y1967*
X2279Y1967*
X2278Y1966*
X2278Y1966*
X2277Y1965*
X2276Y1964*
X2276Y1963*
X2276Y1963*
X2274Y1961*
X2272Y1960*
X2271Y1960*
X2270Y1961*
X2268Y1961*
X2266*
X2265Y1961*
X2263Y1960*
X2262Y1960*
X2260Y1959*
X2259Y1958*
X2258Y1957*
X2257Y1955*
X2256Y1954*
X2255Y1952*
X2255Y1951*
X2254Y1949*
Y1947*
X2255Y1946*
X2255Y1944*
X2256Y1943*
X2257Y1941*
X2258Y1940*
X2259Y1939*
X2260Y1938*
X2262Y1937*
X2263Y1936*
X2265Y1936*
X2266Y1936*
X2268*
X2270Y1936*
X2271Y1936*
X2272Y1937*
X2274Y1936*
X2276Y1934*
Y1931*
X2276Y1930*
X2276Y1929*
X2277Y1928*
X2278Y1927*
X2278Y1927*
X2279Y1926*
X2280Y1926*
X2281Y1926*
X2289*
X2290Y1926*
X2291Y1926*
X2292Y1927*
X2292Y1927*
X2293Y1927*
X2293Y1928*
X2295Y1928*
X2297Y1928*
X2297Y1927*
X2297Y1927*
X2298Y1927*
X2299Y1926*
X2300Y1926*
X2301Y1926*
X2308*
X2309Y1926*
X2310Y1926*
X2311Y1927*
X2312Y1927*
X2312Y1927*
X2312Y1928*
X2314Y1928*
X2316Y1928*
X2317Y1927*
X2317Y1927*
X2318Y1927*
X2319Y1926*
X2320Y1926*
X2321Y1926*
X2328*
X2329Y1926*
X2330Y1926*
X2331Y1927*
X2332Y1927*
X2332Y1928*
X2333Y1929*
X2333Y1930*
X2333Y1931*
Y1962*
X2333Y1963*
X2334Y1963*
X2335Y1965*
X2336Y1966*
X2336Y1968*
X2337Y1969*
X2337Y1971*
Y1973*
X2337Y1974*
X2336Y1976*
X2336Y1978*
X2335Y1979*
X2334Y1980*
X2333Y1982*
X2331Y1983*
X2330Y1983*
X2328Y1984*
X2327Y1985*
X2326Y1985*
X2327Y1989*
X2336*
Y2018*
X2310*
X2308*
X2306Y2021*
X2306Y2025*
Y2045*
X2299*
Y2065*
X2307*
Y2091*
X2306*
X2305Y2092*
X2303Y2095*
X2303Y2095*
X2304Y2097*
Y2099*
X2303Y2100*
X2303Y2102*
X2302Y2104*
X2302Y2105*
X2300Y2106*
X2299Y2108*
X2298Y2109*
X2297Y2109*
X2295Y2110*
X2293Y2111*
X2292Y2111*
G37*
G36*
X1898Y2207D02*
X1896D01*
X1895Y2207*
X1893Y2207*
X1891Y2206*
X1890Y2205*
X1889Y2204*
X1888Y2203*
X1886Y2202*
X1886Y2200*
X1885Y2199*
X1885Y2197*
X1884Y2195*
Y2194*
X1885Y2192*
X1885Y2190*
X1886Y2189*
X1886Y2187*
X1888Y2186*
X1889Y2185*
X1889Y2184*
Y2091*
X1881*
Y2065*
X1889*
Y2045*
X1882*
Y2017*
X1910*
X1911*
X1913Y2014*
X1912Y2011*
X1910*
X1909Y2011*
X1907Y2011*
X1906Y2010*
X1905Y2009*
X1901Y2005*
X1882*
Y1977*
X1901*
X1903Y1975*
Y1968*
X1899Y1965*
X1899Y1965*
X1899Y1965*
X1899Y1966*
X1898Y1966*
X1897Y1967*
X1896Y1967*
X1895Y1967*
X1888*
X1887Y1967*
X1886Y1967*
X1885Y1966*
X1884Y1966*
X1883Y1965*
X1883Y1964*
X1882Y1963*
X1882Y1963*
X1881Y1961*
X1878Y1960*
X1878Y1960*
X1876Y1961*
X1874Y1961*
X1873*
X1871Y1961*
X1869Y1960*
X1868Y1960*
X1866Y1959*
X1865Y1958*
X1864Y1957*
X1863Y1955*
X1862Y1954*
X1861Y1952*
X1861Y1951*
X1861Y1949*
Y1947*
X1861Y1946*
X1861Y1944*
X1862Y1943*
X1863Y1941*
X1864Y1940*
X1865Y1939*
X1866Y1938*
X1868Y1937*
X1869Y1936*
X1871Y1936*
X1873Y1936*
X1874*
X1876Y1936*
X1878Y1936*
X1878Y1937*
X1881Y1936*
X1882Y1934*
Y1931*
X1882Y1930*
X1883Y1929*
X1883Y1928*
X1884Y1927*
X1885Y1927*
X1886Y1926*
X1887Y1926*
X1888Y1926*
X1895*
X1896Y1926*
X1897Y1926*
X1898Y1927*
X1899Y1927*
X1899Y1927*
X1899Y1928*
X1901Y1928*
X1903Y1928*
X1903Y1927*
X1904Y1927*
X1904Y1927*
X1905Y1926*
X1906Y1926*
X1907Y1926*
X1915*
X1916Y1926*
X1917Y1926*
X1917Y1927*
X1918Y1927*
X1919Y1927*
X1919Y1928*
X1921Y1928*
X1923Y1928*
X1923Y1927*
X1923Y1927*
X1924Y1927*
X1925Y1926*
X1926Y1926*
X1927Y1926*
X1934*
X1935Y1926*
X1936Y1926*
X1937Y1927*
X1938Y1927*
X1939Y1928*
X1939Y1929*
X1939Y1930*
X1939Y1931*
Y1962*
X1939Y1963*
X1940Y1963*
X1941Y1965*
X1942Y1966*
X1943Y1968*
X1943Y1969*
X1943Y1971*
Y1973*
X1943Y1974*
X1943Y1976*
X1942Y1978*
X1941Y1979*
X1940Y1980*
X1939Y1982*
X1938Y1983*
X1936Y1983*
X1935Y1984*
X1933Y1985*
X1933Y1985*
X1933Y1989*
X1942*
Y2018*
X1916*
X1914*
X1912Y2021*
X1912Y2025*
Y2045*
X1905*
Y2065*
X1913*
Y2091*
X1905*
Y2184*
X1906Y2185*
X1907Y2186*
X1908Y2187*
X1909Y2189*
X1909Y2190*
X1910Y2192*
X1910Y2194*
Y2195*
X1910Y2197*
X1909Y2199*
X1909Y2200*
X1908Y2202*
X1907Y2203*
X1906Y2204*
X1904Y2205*
X1903Y2206*
X1901Y2207*
X1900Y2207*
X1898Y2207*
G37*
G36*
X1701Y2111D02*
X1699D01*
X1698Y2111*
X1696Y2110*
X1695Y2109*
X1693Y2109*
X1692Y2108*
X1691Y2106*
X1690Y2105*
X1689Y2104*
X1688Y2102*
X1688Y2100*
X1687Y2099*
Y2097*
X1688Y2095*
X1688Y2095*
X1686Y2092*
X1685Y2091*
X1685*
Y2065*
X1692*
Y2045*
X1685*
Y2017*
X1713*
X1714*
X1716Y2014*
X1716Y2011*
X1713*
X1712Y2011*
X1710Y2011*
X1709Y2010*
X1708Y2009*
X1704Y2005*
X1685*
Y1977*
X1704*
X1706Y1975*
Y1968*
X1703Y1965*
X1702Y1965*
X1702Y1965*
X1702Y1966*
X1701Y1966*
X1700Y1967*
X1699Y1967*
X1698Y1967*
X1691*
X1690Y1967*
X1689Y1967*
X1688Y1966*
X1687Y1966*
X1686Y1965*
X1686Y1964*
X1686Y1963*
X1686Y1963*
X1684Y1961*
X1682Y1960*
X1681Y1960*
X1679Y1961*
X1678Y1961*
X1676*
X1674Y1961*
X1673Y1960*
X1671Y1960*
X1670Y1959*
X1668Y1958*
X1667Y1957*
X1666Y1955*
X1665Y1954*
X1665Y1952*
X1664Y1951*
X1664Y1949*
Y1947*
X1664Y1946*
X1665Y1944*
X1665Y1943*
X1666Y1941*
X1667Y1940*
X1668Y1939*
X1670Y1938*
X1671Y1937*
X1673Y1936*
X1674Y1936*
X1676Y1936*
X1678*
X1679Y1936*
X1681Y1936*
X1682Y1937*
X1684Y1936*
X1686Y1934*
Y1931*
X1686Y1930*
X1686Y1929*
X1686Y1928*
X1687Y1927*
X1688Y1927*
X1689Y1926*
X1690Y1926*
X1691Y1926*
X1698*
X1699Y1926*
X1700Y1926*
X1701Y1927*
X1702Y1927*
X1702Y1927*
X1702Y1928*
X1704Y1928*
X1706Y1928*
X1706Y1927*
X1707Y1927*
X1707Y1927*
X1708Y1926*
X1709Y1926*
X1710Y1926*
X1718*
X1719Y1926*
X1720Y1926*
X1721Y1927*
X1721Y1927*
X1722Y1927*
X1722Y1928*
X1724Y1928*
X1726Y1928*
X1726Y1927*
X1726Y1927*
X1727Y1927*
X1728Y1926*
X1729Y1926*
X1730Y1926*
X1737*
X1738Y1926*
X1739Y1926*
X1740Y1927*
X1741Y1927*
X1742Y1928*
X1742Y1929*
X1743Y1930*
X1743Y1931*
Y1962*
X1743Y1963*
X1743Y1963*
X1744Y1965*
X1745Y1966*
X1746Y1968*
X1746Y1969*
X1747Y1971*
Y1973*
X1746Y1974*
X1746Y1976*
X1745Y1978*
X1744Y1979*
X1743Y1980*
X1742Y1982*
X1741Y1983*
X1739Y1983*
X1738Y1984*
X1736Y1985*
X1736Y1985*
X1736Y1989*
X1745*
Y2018*
X1719*
X1718*
X1715Y2021*
X1715Y2025*
Y2045*
X1708*
Y2065*
X1716*
Y2091*
X1716*
X1714Y2092*
X1713Y2095*
X1713Y2095*
X1713Y2097*
Y2099*
X1713Y2100*
X1712Y2102*
X1712Y2104*
X1711Y2105*
X1710Y2106*
X1709Y2108*
X1707Y2109*
X1706Y2109*
X1704Y2110*
X1703Y2111*
X1701Y2111*
G37*
G36*
X1218Y1924D02*
X1190D01*
Y1896*
X1191*
Y1883*
X1179*
X1177Y1883*
X1176Y1883*
X1175Y1882*
X1174Y1881*
X1173Y1880*
X1172Y1879*
X1172Y1878*
X1172Y1876*
Y1859*
X1172Y1857*
X1172Y1856*
X1173Y1855*
X1174Y1854*
X1175Y1853*
X1176Y1852*
X1177Y1852*
X1179Y1852*
X1225*
X1226Y1852*
X1228Y1852*
X1229Y1853*
X1230Y1854*
X1231Y1855*
X1231Y1856*
X1232Y1857*
X1232Y1859*
Y1876*
X1232Y1878*
X1231Y1879*
X1231Y1880*
X1230Y1881*
X1229Y1882*
X1228Y1883*
X1226Y1883*
X1225Y1883*
X1217*
Y1896*
X1218*
Y1924*
G37*
G36*
X1016Y2032D02*
X999D01*
X997Y2032*
X996Y2031*
X995Y2031*
X994Y2030*
X993Y2029*
X992Y2028*
X992Y2026*
X992Y2025*
Y1979*
X992Y1977*
X992Y1976*
X993Y1975*
X994Y1974*
X995Y1973*
X996Y1972*
X997Y1972*
X999Y1972*
X999*
Y1956*
X999Y1955*
X999Y1954*
X1000Y1952*
X1001Y1951*
X1002Y1950*
X1037Y1915*
X1038Y1914*
X1039Y1913*
X1040Y1913*
X1042Y1913*
X1043Y1912*
X1081*
Y1901*
X1098*
Y1883*
X1089*
X1088Y1883*
X1086Y1883*
X1085Y1882*
X1084Y1881*
X1083Y1880*
X1083Y1879*
X1082Y1878*
X1082Y1876*
Y1859*
X1082Y1857*
X1083Y1856*
X1083Y1855*
X1084Y1854*
X1085Y1853*
X1086Y1852*
X1088Y1852*
X1089Y1852*
X1135*
X1137Y1852*
X1138Y1852*
X1139Y1853*
X1140Y1854*
X1141Y1855*
X1142Y1856*
X1142Y1857*
X1142Y1859*
Y1876*
X1142Y1878*
X1142Y1879*
X1141Y1880*
X1140Y1881*
X1139Y1882*
X1138Y1883*
X1137Y1883*
X1135Y1883*
X1114*
Y1901*
X1124*
Y1941*
X1081*
Y1929*
X1046*
X1016Y1960*
Y1972*
X1016*
X1018Y1972*
X1019Y1972*
X1020Y1973*
X1021Y1974*
X1022Y1975*
X1023Y1976*
X1023Y1977*
X1023Y1979*
Y2025*
X1023Y2026*
X1023Y2028*
X1022Y2029*
X1021Y2030*
X1020Y2031*
X1019Y2031*
X1018Y2032*
X1016Y2032*
G37*
G36*
X1225Y1809D02*
X1179D01*
X1177Y1808*
X1176Y1808*
X1175Y1807*
X1174Y1807*
X1173Y1806*
X1172Y1804*
X1172Y1803*
X1172Y1802*
Y1801*
X1142*
Y1802*
X1142Y1803*
X1142Y1804*
X1141Y1806*
X1140Y1807*
X1139Y1807*
X1138Y1808*
X1137Y1808*
X1135Y1809*
X1089*
X1088Y1808*
X1086Y1808*
X1085Y1807*
X1084Y1807*
X1083Y1806*
X1083Y1804*
X1082Y1803*
X1082Y1802*
Y1784*
X1082Y1783*
X1083Y1781*
X1083Y1780*
X1084Y1779*
X1085Y1778*
X1086Y1778*
X1088Y1777*
X1089Y1777*
X1114*
Y1762*
X1109*
Y1733*
X1114*
Y1724*
X1093*
Y1722*
X1001*
Y1751*
X927*
Y1676*
X1001*
Y1705*
X1093*
Y1684*
X1136*
Y1724*
X1131*
Y1733*
X1136*
Y1762*
X1131*
Y1777*
X1135*
X1137Y1777*
X1138Y1778*
X1139Y1778*
X1140Y1779*
X1141Y1780*
X1142Y1781*
X1142Y1783*
X1142Y1784*
Y1785*
X1172*
Y1784*
X1172Y1783*
X1172Y1781*
X1173Y1780*
X1174Y1779*
X1175Y1778*
X1176Y1778*
X1177Y1777*
X1179Y1777*
X1225*
X1226Y1777*
X1228Y1778*
X1229Y1778*
X1230Y1779*
X1231Y1780*
X1231Y1781*
X1232Y1783*
X1232Y1784*
Y1802*
X1232Y1803*
X1231Y1804*
X1231Y1806*
X1230Y1807*
X1229Y1807*
X1228Y1808*
X1226Y1808*
X1225Y1809*
G37*
G36*
X1280Y1993D02*
X1278D01*
X1277Y1992*
X1275Y1992*
X1273Y1991*
X1272Y1990*
X1271Y1989*
X1269Y1988*
X1268Y1987*
X1268Y1985*
X1267Y1984*
X1266Y1982*
X1266Y1981*
Y1979*
X1266Y1977*
X1267Y1976*
X1267Y1975*
Y1745*
X1148Y1626*
X1000*
X999Y1628*
X997Y1631*
X996Y1634*
X994Y1636*
X992Y1639*
X989Y1641*
X987Y1643*
X984Y1645*
X981Y1647*
X978Y1648*
X975Y1649*
X972Y1650*
X969Y1651*
X966Y1651*
X962*
X959Y1651*
X956Y1650*
X953Y1649*
X950Y1648*
X947Y1647*
X944Y1645*
X941Y1643*
X939Y1641*
X936Y1639*
X934Y1636*
X932Y1634*
X931Y1631*
X929Y1628*
X928Y1625*
X928Y1622*
X927Y1619*
X927Y1615*
Y1612*
X927Y1609*
X928Y1606*
X928Y1602*
X929Y1599*
X931Y1596*
X932Y1594*
X934Y1591*
X936Y1588*
X939Y1586*
X941Y1584*
X944Y1582*
X947Y1580*
X950Y1579*
X953Y1578*
X956Y1577*
X959Y1577*
X962Y1576*
X966*
X969Y1577*
X972Y1577*
X975Y1578*
X978Y1579*
X981Y1580*
X984Y1582*
X987Y1584*
X989Y1586*
X992Y1588*
X994Y1591*
X996Y1594*
X997Y1596*
X999Y1599*
X1000Y1602*
X1153*
X1155Y1602*
X1157Y1602*
X1158Y1603*
X1160Y1604*
X1161Y1605*
X1287Y1731*
X1289Y1733*
X1290Y1734*
X1290Y1736*
X1291Y1738*
X1291Y1740*
Y1975*
X1291Y1976*
X1292Y1977*
X1292Y1979*
Y1981*
X1292Y1982*
X1291Y1984*
X1291Y1985*
X1290Y1987*
X1289Y1988*
X1287Y1989*
X1286Y1990*
X1285Y1991*
X1283Y1992*
X1282Y1992*
X1280Y1993*
G37*
G36*
X1288Y1371D02*
X1286D01*
X1284Y1370*
X1283Y1370*
X1281Y1369*
X1280Y1368*
X1278Y1367*
X1277Y1366*
X1276Y1365*
X1275Y1363*
X1275Y1362*
X1274Y1360*
X1274Y1359*
Y1357*
X1274Y1355*
X1275Y1354*
X1275Y1352*
X1276Y1351*
X1277Y1349*
X1278Y1348*
X1280Y1347*
X1281Y1346*
X1283Y1346*
X1284Y1345*
X1286Y1345*
X1288*
X1289Y1345*
X1291Y1346*
X1293Y1346*
X1294Y1347*
X1295Y1348*
X1297Y1349*
X1298Y1351*
X1298Y1352*
X1299Y1354*
X1299Y1355*
X1300Y1357*
Y1359*
X1299Y1360*
X1299Y1362*
X1298Y1363*
X1298Y1365*
X1297Y1366*
X1295Y1367*
X1294Y1368*
X1293Y1369*
X1291Y1370*
X1289Y1370*
X1288Y1371*
G37*
G36*
X1718Y1279D02*
X1715D01*
X1712Y1278*
X1709Y1278*
X1706Y1277*
X1703Y1276*
X1700Y1274*
X1697Y1273*
X1694Y1271*
X1692Y1269*
X1689Y1267*
X1687Y1264*
X1685Y1261*
X1684Y1259*
X1682Y1256*
X1681Y1252*
X1680Y1249*
X1680Y1246*
X1679Y1243*
Y1240*
X1680Y1236*
X1680Y1233*
X1681Y1230*
X1682Y1227*
X1684Y1224*
X1685Y1221*
X1687Y1218*
X1689Y1216*
X1692Y1214*
X1694Y1212*
X1697Y1210*
X1700Y1208*
X1703Y1207*
X1706Y1206*
X1709Y1205*
X1712Y1204*
X1715Y1204*
X1718*
X1722Y1204*
X1725Y1205*
X1728Y1206*
X1731Y1207*
X1734Y1208*
X1737Y1210*
X1740Y1212*
X1742Y1214*
X1744Y1216*
X1747Y1218*
X1748Y1221*
X1750Y1224*
X1751Y1227*
X1753Y1230*
X1753Y1233*
X1754Y1236*
X1754Y1240*
Y1243*
X1754Y1246*
X1753Y1249*
X1753Y1252*
X1751Y1256*
X1750Y1259*
X1748Y1261*
X1747Y1264*
X1744Y1267*
X1742Y1269*
X1740Y1271*
X1737Y1273*
X1734Y1274*
X1731Y1276*
X1728Y1277*
X1725Y1278*
X1722Y1278*
X1718Y1279*
G37*
G36*
X1618D02*
X1615D01*
X1612Y1278*
X1609Y1278*
X1606Y1277*
X1603Y1276*
X1600Y1274*
X1597Y1273*
X1594Y1271*
X1592Y1269*
X1589Y1267*
X1587Y1264*
X1585Y1261*
X1584Y1259*
X1582Y1256*
X1581Y1252*
X1580Y1249*
X1580Y1246*
X1579Y1243*
Y1240*
X1580Y1236*
X1580Y1233*
X1581Y1230*
X1582Y1227*
X1584Y1224*
X1585Y1221*
X1587Y1218*
X1589Y1216*
X1592Y1214*
X1594Y1212*
X1597Y1210*
X1600Y1208*
X1603Y1207*
X1606Y1206*
X1609Y1205*
X1612Y1204*
X1615Y1204*
X1618*
X1622Y1204*
X1625Y1205*
X1628Y1206*
X1631Y1207*
X1634Y1208*
X1637Y1210*
X1640Y1212*
X1642Y1214*
X1644Y1216*
X1647Y1218*
X1648Y1221*
X1650Y1224*
X1651Y1227*
X1653Y1230*
X1653Y1233*
X1654Y1236*
X1654Y1240*
Y1243*
X1654Y1246*
X1653Y1249*
X1653Y1252*
X1651Y1256*
X1650Y1259*
X1648Y1261*
X1647Y1264*
X1644Y1267*
X1642Y1269*
X1640Y1271*
X1637Y1273*
X1634Y1274*
X1631Y1276*
X1628Y1277*
X1625Y1278*
X1622Y1278*
X1618Y1279*
G37*
G36*
X1418D02*
X1415D01*
X1412Y1278*
X1409Y1278*
X1406Y1277*
X1403Y1276*
X1400Y1274*
X1397Y1273*
X1394Y1271*
X1392Y1269*
X1389Y1267*
X1387Y1264*
X1385Y1261*
X1384Y1259*
X1382Y1256*
X1381Y1252*
X1380Y1249*
X1380Y1246*
X1379Y1243*
Y1240*
X1380Y1236*
X1380Y1233*
X1381Y1230*
X1382Y1227*
X1384Y1224*
X1385Y1221*
X1387Y1218*
X1389Y1216*
X1392Y1214*
X1394Y1212*
X1397Y1210*
X1400Y1208*
X1403Y1207*
X1406Y1206*
X1409Y1205*
X1412Y1204*
X1415Y1204*
X1418*
X1422Y1204*
X1425Y1205*
X1428Y1206*
X1431Y1207*
X1434Y1208*
X1437Y1210*
X1440Y1212*
X1442Y1214*
X1444Y1216*
X1447Y1218*
X1448Y1221*
X1450Y1224*
X1451Y1227*
X1453Y1230*
X1453Y1233*
X1454Y1236*
X1454Y1240*
Y1243*
X1454Y1246*
X1453Y1249*
X1453Y1252*
X1451Y1256*
X1450Y1259*
X1448Y1261*
X1447Y1264*
X1444Y1267*
X1442Y1269*
X1440Y1271*
X1437Y1273*
X1434Y1274*
X1431Y1276*
X1428Y1277*
X1425Y1278*
X1422Y1278*
X1418Y1279*
G37*
G36*
X1481Y2591D02*
X1479D01*
X1477Y2591*
X1476Y2590*
X1474Y2590*
X1473Y2589*
X1471Y2588*
X1470Y2587*
X1469Y2585*
X1468Y2584*
X1468Y2582*
X1467Y2581*
X1467Y2579*
Y2577*
X1467Y2576*
X1468Y2574*
X1468Y2573*
X1469Y2571*
X1470Y2570*
X1471Y2569*
X1472Y2568*
Y2507*
X1391Y2427*
X1390Y2426*
X1390Y2425*
X1389Y2423*
X1389Y2422*
X1389Y2421*
Y1424*
X1360Y1395*
X1359Y1394*
X1358Y1393*
X1358Y1392*
X1357Y1391*
X1357Y1389*
Y1249*
X1353Y1249*
X1353Y1249*
X1353Y1252*
X1351Y1256*
X1350Y1259*
X1348Y1261*
X1347Y1264*
X1344Y1267*
X1342Y1269*
X1340Y1271*
X1337Y1273*
X1334Y1274*
X1331Y1276*
X1328Y1277*
X1325Y1278*
X1322Y1278*
X1318Y1279*
X1315*
X1312Y1278*
X1309Y1278*
X1306Y1277*
X1303Y1276*
X1300Y1274*
X1297Y1273*
X1294Y1271*
X1292Y1269*
X1289Y1267*
X1287Y1264*
X1285Y1261*
X1284Y1259*
X1282Y1256*
X1281Y1252*
X1280Y1249*
X1280Y1246*
X1279Y1243*
Y1240*
X1280Y1236*
X1280Y1233*
X1281Y1230*
X1282Y1227*
X1284Y1224*
X1285Y1221*
X1287Y1218*
X1289Y1216*
X1292Y1214*
X1294Y1212*
X1297Y1210*
X1300Y1208*
X1303Y1207*
X1306Y1206*
X1309Y1205*
X1312Y1204*
X1315Y1204*
X1318*
X1322Y1204*
X1325Y1205*
X1328Y1206*
X1331Y1207*
X1334Y1208*
X1337Y1210*
X1340Y1212*
X1342Y1214*
X1344Y1216*
X1347Y1218*
X1348Y1221*
X1350Y1224*
X1351Y1227*
X1353Y1230*
X1353Y1233*
X1353Y1233*
X1357Y1233*
Y1192*
X1357Y1191*
X1358Y1190*
X1358Y1189*
X1359Y1188*
X1360Y1187*
X1385Y1161*
X1384Y1159*
X1382Y1156*
X1381Y1152*
X1380Y1149*
X1380Y1146*
X1379Y1143*
Y1140*
X1380Y1136*
X1380Y1133*
X1381Y1130*
X1382Y1127*
X1384Y1124*
X1385Y1121*
X1387Y1118*
X1389Y1116*
X1392Y1114*
X1394Y1112*
X1397Y1110*
X1400Y1108*
X1403Y1107*
X1406Y1106*
X1409Y1105*
X1412Y1104*
X1415Y1104*
X1418*
X1422Y1104*
X1425Y1105*
X1428Y1106*
X1431Y1107*
X1434Y1108*
X1437Y1110*
X1440Y1112*
X1442Y1114*
X1444Y1116*
X1447Y1118*
X1448Y1121*
X1450Y1124*
X1451Y1127*
X1453Y1130*
X1453Y1133*
X1454Y1136*
X1454Y1140*
Y1143*
X1454Y1146*
X1453Y1149*
X1453Y1152*
X1451Y1156*
X1450Y1159*
X1448Y1161*
X1447Y1164*
X1444Y1167*
X1442Y1169*
X1440Y1171*
X1437Y1173*
X1434Y1174*
X1431Y1176*
X1428Y1177*
X1425Y1178*
X1422Y1178*
X1418Y1179*
X1415*
X1412Y1178*
X1409Y1178*
X1406Y1177*
X1403Y1176*
X1400Y1174*
X1397Y1173*
X1374Y1196*
Y1346*
X1375Y1346*
X1378Y1347*
X1378Y1347*
X1380Y1346*
X1381Y1346*
X1383Y1345*
X1384Y1345*
X1386*
X1388Y1345*
X1389Y1346*
X1391Y1346*
X1392Y1347*
X1394Y1348*
X1395Y1349*
X1396Y1351*
X1397Y1352*
X1397Y1354*
X1398Y1355*
X1398Y1357*
Y1359*
X1398Y1360*
X1397Y1362*
X1397Y1363*
X1396Y1365*
X1395Y1366*
X1394Y1367*
X1392Y1368*
X1391Y1369*
X1389Y1370*
X1388Y1370*
X1386Y1371*
X1384*
X1383Y1370*
X1381Y1370*
X1380Y1369*
X1378Y1368*
X1378Y1368*
X1375Y1369*
X1374Y1370*
Y1386*
X1403Y1415*
X1404Y1416*
X1405Y1417*
X1405Y1418*
X1405Y1419*
X1405Y1421*
Y2417*
X1486Y2498*
X1487Y2499*
X1487Y2500*
X1488Y2501*
X1488Y2502*
X1488Y2503*
Y2568*
X1488Y2569*
X1489Y2570*
X1490Y2571*
X1491Y2572*
X1492Y2571*
X1495Y2570*
Y2570*
X1495Y2568*
X1495Y2566*
X1496Y2565*
X1497Y2563*
X1498Y2562*
X1499Y2561*
X1499Y2561*
Y2475*
X1462Y2438*
X1461Y2437*
X1461Y2436*
X1460Y2435*
X1460Y2434*
X1460Y2433*
Y1190*
X1460Y1189*
X1460Y1187*
X1461Y1186*
X1461Y1185*
X1462Y1184*
X1485Y1161*
X1484Y1159*
X1482Y1156*
X1481Y1152*
X1480Y1149*
X1480Y1146*
X1479Y1143*
Y1140*
X1480Y1136*
X1480Y1133*
X1481Y1130*
X1482Y1127*
X1484Y1124*
X1485Y1121*
X1487Y1118*
X1489Y1116*
X1492Y1114*
X1494Y1112*
X1497Y1110*
X1500Y1108*
X1503Y1107*
X1506Y1106*
X1509Y1105*
X1512Y1104*
X1515Y1104*
X1518*
X1522Y1104*
X1525Y1105*
X1528Y1106*
X1531Y1107*
X1534Y1108*
X1537Y1110*
X1540Y1112*
X1542Y1114*
X1544Y1116*
X1547Y1118*
X1548Y1121*
X1550Y1124*
X1551Y1127*
X1553Y1130*
X1553Y1133*
X1554Y1136*
X1554Y1140*
Y1143*
X1554Y1146*
X1553Y1149*
X1553Y1152*
X1551Y1156*
X1550Y1159*
X1548Y1161*
X1547Y1164*
X1544Y1167*
X1542Y1169*
X1540Y1171*
X1537Y1173*
X1534Y1174*
X1531Y1176*
X1528Y1177*
X1525Y1178*
X1522Y1178*
X1518Y1179*
X1515*
X1512Y1178*
X1509Y1178*
X1506Y1177*
X1503Y1176*
X1500Y1174*
X1497Y1173*
X1476Y1193*
Y1233*
X1480Y1233*
X1480Y1233*
X1481Y1230*
X1482Y1227*
X1484Y1224*
X1485Y1221*
X1487Y1218*
X1489Y1216*
X1492Y1214*
X1494Y1212*
X1497Y1210*
X1500Y1208*
X1503Y1207*
X1506Y1206*
X1509Y1205*
X1512Y1204*
X1515Y1204*
X1518*
X1522Y1204*
X1525Y1205*
X1528Y1206*
X1531Y1207*
X1534Y1208*
X1537Y1210*
X1540Y1212*
X1542Y1214*
X1544Y1216*
X1547Y1218*
X1548Y1221*
X1550Y1224*
X1551Y1227*
X1553Y1230*
X1553Y1233*
X1554Y1236*
X1554Y1239*
Y1239*
X1555Y1239*
X1558Y1237*
Y1192*
X1558Y1190*
X1559Y1189*
X1559Y1188*
X1560Y1187*
X1561Y1186*
X1585Y1161*
X1584Y1159*
X1582Y1156*
X1581Y1152*
X1580Y1149*
X1580Y1146*
X1579Y1143*
Y1140*
X1580Y1136*
X1580Y1133*
X1581Y1130*
X1582Y1127*
X1584Y1124*
X1585Y1121*
X1587Y1118*
X1589Y1116*
X1592Y1114*
X1594Y1112*
X1597Y1110*
X1600Y1108*
X1603Y1107*
X1606Y1106*
X1609Y1105*
X1612Y1104*
X1615Y1104*
X1618*
X1622Y1104*
X1625Y1105*
X1628Y1106*
X1631Y1107*
X1634Y1108*
X1637Y1110*
X1640Y1112*
X1642Y1114*
X1644Y1116*
X1647Y1118*
X1648Y1121*
X1650Y1124*
X1651Y1127*
X1653Y1130*
X1653Y1133*
X1654Y1136*
X1654Y1140*
Y1143*
X1654Y1146*
X1653Y1149*
X1653Y1152*
X1651Y1156*
X1650Y1159*
X1648Y1161*
X1647Y1164*
X1644Y1167*
X1642Y1169*
X1640Y1171*
X1637Y1173*
X1634Y1174*
X1631Y1176*
X1628Y1177*
X1625Y1178*
X1622Y1178*
X1618Y1179*
X1615*
X1612Y1178*
X1609Y1178*
X1606Y1177*
X1603Y1176*
X1600Y1174*
X1597Y1173*
X1575Y1195*
Y1389*
X1575Y1391*
X1574Y1392*
X1574Y1393*
X1573Y1394*
X1572Y1395*
X1543Y1424*
Y2537*
X1543Y2537*
X1545Y2538*
X1546Y2540*
X1546Y2541*
X1547Y2543*
X1548Y2544*
X1548Y2546*
Y2548*
X1548Y2549*
X1547Y2551*
X1546Y2552*
X1546Y2554*
X1545Y2555*
X1543Y2556*
X1542Y2557*
X1541Y2558*
X1539Y2559*
X1537Y2559*
X1536Y2560*
X1534*
X1532Y2559*
X1531Y2559*
X1529Y2558*
X1528Y2557*
X1526Y2556*
X1525Y2555*
X1524Y2554*
X1523Y2552*
X1523Y2551*
X1522Y2549*
X1522Y2548*
Y2546*
X1522Y2544*
X1523Y2543*
X1523Y2541*
X1524Y2540*
X1525Y2538*
X1526Y2537*
X1527Y2537*
Y1421*
X1527Y1419*
X1527Y1418*
X1528Y1417*
X1528Y1416*
X1529Y1415*
X1558Y1386*
Y1246*
X1555Y1243*
X1554Y1243*
Y1243*
X1554Y1246*
X1553Y1249*
X1553Y1252*
X1551Y1256*
X1550Y1259*
X1548Y1261*
X1547Y1264*
X1544Y1267*
X1542Y1269*
X1540Y1271*
X1537Y1273*
X1534Y1274*
X1531Y1276*
X1528Y1277*
X1525Y1278*
X1522Y1278*
X1518Y1279*
X1515*
X1512Y1278*
X1509Y1278*
X1506Y1277*
X1503Y1276*
X1500Y1274*
X1497Y1273*
X1494Y1271*
X1492Y1269*
X1489Y1267*
X1487Y1264*
X1485Y1261*
X1484Y1259*
X1482Y1256*
X1481Y1252*
X1480Y1249*
X1480Y1249*
X1476Y1249*
Y1346*
X1477Y1346*
X1480Y1347*
X1481Y1347*
X1482Y1346*
X1484Y1346*
X1485Y1345*
X1487Y1345*
X1489*
X1490Y1345*
X1492Y1346*
X1493Y1346*
X1495Y1347*
X1496Y1348*
X1497Y1349*
X1498Y1351*
X1499Y1352*
X1500Y1354*
X1500Y1355*
X1500Y1357*
Y1359*
X1500Y1360*
X1500Y1362*
X1499Y1363*
X1498Y1365*
X1497Y1366*
X1496Y1367*
X1495Y1368*
X1493Y1369*
X1492Y1370*
X1490Y1370*
X1489Y1371*
X1487*
X1485Y1370*
X1484Y1370*
X1482Y1369*
X1481Y1368*
X1480Y1368*
X1477Y1369*
X1476Y1370*
Y2429*
X1513Y2466*
X1514Y2467*
X1515Y2468*
X1515Y2469*
X1516Y2471*
X1516Y2472*
Y2561*
X1516Y2561*
X1517Y2562*
X1518Y2563*
X1519Y2565*
X1520Y2566*
X1520Y2568*
X1520Y2570*
Y2571*
X1520Y2573*
X1520Y2574*
X1519Y2576*
X1518Y2577*
X1517Y2579*
X1516Y2580*
X1515Y2581*
X1513Y2582*
X1512Y2583*
X1510Y2583*
X1508Y2583*
X1507*
X1505Y2583*
X1503Y2583*
X1502Y2582*
X1500Y2581*
X1499Y2580*
X1498Y2579*
X1497Y2577*
X1496Y2577*
X1495Y2577*
X1493Y2578*
Y2579*
X1492Y2581*
X1492Y2582*
X1491Y2584*
X1490Y2585*
X1489Y2587*
X1488Y2588*
X1487Y2589*
X1485Y2590*
X1484Y2590*
X1482Y2591*
X1481Y2591*
G37*
G36*
X1345Y1179D02*
X1288D01*
X1287Y1179*
X1286Y1178*
X1284Y1178*
X1283Y1177*
X1282Y1176*
X1281Y1175*
X1280Y1174*
X1280Y1172*
X1280Y1171*
X1279Y1170*
Y1113*
X1280Y1111*
X1280Y1110*
X1280Y1109*
X1281Y1108*
X1282Y1106*
X1283Y1106*
X1284Y1105*
X1286Y1104*
X1287Y1104*
X1288Y1104*
X1345*
X1347Y1104*
X1348Y1104*
X1349Y1105*
X1351Y1106*
X1352Y1106*
X1353Y1108*
X1353Y1109*
X1354Y1110*
X1354Y1111*
X1354Y1113*
Y1170*
X1354Y1171*
X1354Y1172*
X1353Y1174*
X1353Y1175*
X1352Y1176*
X1351Y1177*
X1349Y1178*
X1348Y1178*
X1347Y1179*
X1345Y1179*
G37*
%LNbenchy-voltmeter-pcb-3*%
%LPD*%
G36*
X2393Y3354D02*
X2637D01*
Y3299*
X2393*
Y3255*
X2173*
Y3334*
Y3336*
X2173Y3340*
X2174Y3344*
X2174Y3348*
X2175Y3352*
X2177Y3356*
X2178Y3360*
X2180Y3364*
X2182Y3367*
X2184Y3371*
X2187Y3374*
X2190Y3377*
X2193Y3380*
X2196Y3383*
X2199Y3385*
X2202Y3388*
X2206Y3390*
X2210Y3392*
X2214Y3393*
X2217Y3394*
X2221Y3396*
X2225Y3396*
X2230Y3397*
X2234Y3397*
X2393*
Y3354*
G37*
G36*
X3086Y3454D02*
X3090Y3453D01*
X3094Y3452*
X3097Y3451*
X3101Y3450*
X3104Y3448*
X3108Y3446*
X3111Y3444*
X3114Y3441*
X3116Y3438*
X3119Y3436*
X3121Y3432*
X3123Y3429*
X3125Y3426*
X3126Y3422*
X3128Y3418*
X3129Y3415*
X3129Y3411*
X3129Y3407*
Y3405*
Y3326*
Y3326*
X3129Y3324*
X3129Y3323*
X3128Y3322*
X3128Y3321*
X3127Y3320*
X3126Y3319*
X3125Y3318*
X3124Y3317*
X3123Y3317*
X3122Y3317*
X3120Y3316*
X3030*
X3028Y3317*
X3026Y3317*
X3024Y3318*
X3023Y3318*
X3021Y3319*
X3019Y3320*
X3018Y3322*
X3016Y3323*
X3015Y3324*
X3014Y3326*
X3013Y3328*
X3012Y3329*
X3012Y3331*
X3012Y3333*
X3011Y3335*
Y3336*
X3011Y3337*
X3011Y3339*
X3011Y3341*
X3010Y3343*
X3009Y3345*
X3009Y3346*
X3007Y3348*
X3006Y3349*
X3005Y3351*
X3003Y3352*
X3002Y3353*
X3000Y3354*
X2998Y3355*
X2996Y3355*
X2995Y3356*
X2993Y3356*
X2992Y3356*
X2685*
X2683Y3356*
X2681Y3356*
X2678Y3357*
X2676Y3358*
X2674Y3359*
X2672Y3360*
X2671Y3362*
X2670Y3363*
X2657Y3375*
X2656Y3376*
X2655Y3378*
X2653Y3379*
X2651Y3380*
X2649Y3381*
X2647Y3382*
X2645Y3383*
X2643Y3384*
X2641Y3384*
X2639Y3385*
X2637Y3385*
X2634Y3385*
X2633Y3385*
X2568*
X2566Y3385*
X2565Y3386*
X2564Y3386*
X2563Y3387*
X2562Y3388*
X2561Y3389*
X2560Y3390*
X2560Y3391*
X2559Y3392*
X2559Y3393*
X2559Y3395*
Y3395*
Y3444*
Y3445*
X2559Y3446*
X2559Y3448*
X2560Y3449*
X2560Y3450*
X2561Y3451*
X2562Y3452*
X2563Y3453*
X2564Y3453*
X2565Y3454*
X2566Y3454*
X2568Y3454*
X3082*
X3086Y3454*
G37*
G36*
X3111Y3297D02*
X3113Y3297D01*
X3115Y3296*
X3116Y3296*
X3118Y3295*
X3120Y3294*
X3121Y3293*
X3123Y3292*
X3124Y3290*
X3126Y3289*
X3127Y3287*
X3128Y3285*
X3128Y3284*
X3129Y3282*
X3129Y3280*
X3129Y3278*
Y3277*
Y3237*
X3129Y3235*
X3129Y3233*
X3128Y3231*
X3128Y3229*
X3127Y3228*
X3126Y3226*
X3124Y3224*
X3123Y3223*
X3121Y3222*
X3120Y3221*
X3118Y3220*
X3116Y3219*
X3115Y3219*
X3113Y3218*
X3111Y3218*
X3110*
X3041*
X3039Y3218*
X3035Y3218*
X3031Y3217*
X3027Y3216*
X3024Y3215*
X3020Y3213*
X3017Y3212*
X3013Y3210*
X3010Y3207*
X3007Y3205*
X3005Y3202*
X3002Y3199*
X3000Y3196*
X2998Y3193*
X2996Y3189*
X2995Y3186*
X2993Y3182*
X2993Y3178*
X2992Y3175*
X2992Y3171*
X2992Y3169*
Y3032*
X2992Y3031*
X2992Y3028*
X2992Y3025*
X2993Y3023*
X2993Y3020*
X2994Y3018*
X2995Y3015*
X2996Y3013*
X2998Y3011*
X2999Y3008*
X3001Y3006*
X3003Y3004*
X3003Y3003*
X3005Y3002*
X3007Y3000*
X3009Y2997*
X3011Y2994*
X3013Y2991*
X3014Y2988*
X3016Y2984*
X3017Y2981*
X3018Y2978*
X3019Y2974*
X3019Y2971*
X3019Y2969*
X3019Y2965*
Y2791*
Y2790*
X3019Y2789*
X3018Y2787*
X3017Y2786*
X3016Y2785*
X3015Y2784*
X3014Y2783*
X3012Y2783*
X3011*
X2940*
Y2814*
X2940Y2815*
X2940Y2816*
X2940Y2817*
X2940Y2818*
X2940Y2819*
X2939Y2819*
X2939Y2820*
X2938Y2821*
X2938Y2821*
X2936Y2823*
X2935Y2824*
X2934Y2825*
X2934Y2826*
X2933Y2827*
X2933Y2829*
X2933Y2830*
X2933Y2831*
Y2929*
X2933Y2930*
X2932Y2932*
X2932Y2933*
X2931Y2935*
X2931Y2937*
X2930Y2939*
X2929Y2940*
X2927Y2942*
X2926Y2943*
X2925Y2944*
X2923Y2946*
X2921Y2946*
X2920Y2947*
X2918Y2948*
X2917Y2948*
X2916Y2948*
X2914Y2948*
X2913Y2948*
X2669*
X2668Y2948*
X2665Y2948*
X2663Y2948*
X2661Y2947*
X2659Y2946*
X2657Y2945*
X2655Y2944*
X2653Y2942*
X2651Y2941*
X2650Y2939*
X2649Y2937*
X2647Y2935*
X2647Y2933*
X2646Y2930*
X2645Y2928*
X2645Y2926*
X2645Y2925*
Y2791*
Y2790*
X2645Y2789*
X2644Y2787*
X2643Y2786*
X2642Y2785*
X2641Y2784*
X2640Y2783*
X2638Y2783*
X2637*
X2566*
Y2814*
X2566Y2815*
X2566Y2816*
X2566Y2817*
X2566Y2818*
X2566Y2819*
X2565Y2819*
X2565Y2820*
X2564Y2821*
X2564Y2821*
X2562Y2823*
X2561Y2824*
X2560Y2825*
X2560Y2826*
X2559Y2827*
X2559Y2829*
X2559Y2830*
X2559Y2831*
Y2988*
Y2989*
X2559Y2991*
X2559Y2993*
X2560Y2996*
X2561Y2998*
X2562Y3000*
X2563Y3002*
X2565Y3004*
X2566Y3005*
X2568Y3007*
X2570Y3008*
X2572Y3009*
X2574Y3010*
X2576Y3011*
X2579Y3011*
X2581Y3011*
X2582*
X2838*
X2839Y3011*
X2841Y3012*
X2843Y3012*
X2845Y3012*
X2847Y3013*
X2848Y3014*
X2850Y3015*
X2851Y3016*
X2853Y3018*
X2854Y3019*
X2855Y3021*
X2856Y3023*
X2857Y3024*
X2857Y3026*
X2858Y3028*
X2858Y3030*
X2858Y3031*
Y3253*
X2858Y3257*
X2859Y3260*
X2859Y3264*
X2861Y3267*
X2862Y3270*
X2864Y3274*
X2865Y3277*
X2867Y3280*
X2870Y3282*
X2872Y3285*
X2875Y3287*
X2878Y3289*
X2881Y3291*
X2884Y3293*
X2887Y3294*
X2891Y3295*
X2894Y3296*
X2898Y3296*
X2901Y3297*
X2903*
X3111*
G37*
G36*
X2028Y3122D02*
X2030Y3121D01*
X2031Y3121*
X2079*
X2107Y3093*
Y3088*
X2104Y3087*
X2103Y3087*
X2102Y3088*
X2101Y3089*
X2100Y3090*
X2098Y3090*
X2096Y3091*
X2095Y3091*
X2093*
X2092Y3091*
X2072Y3111*
X2071Y3112*
X2069Y3113*
X2068Y3114*
X2066Y3114*
X2030*
X2025Y3119*
X2027Y3122*
X2028Y3122*
G37*
G36*
X2004Y3076D02*
X1991Y3063D01*
X1990Y3062*
X1990Y3061*
X1987Y3062*
X1986Y3062*
Y3069*
X1995Y3077*
X1995Y3077*
X1996*
X1998Y3077*
X2000Y3078*
X2001Y3079*
X2002Y3079*
X2004Y3076*
G37*
G36*
X1818Y3070D02*
X1795D01*
Y3125*
X1818*
Y3070*
G37*
G36*
X2081Y3080D02*
X2081Y3079D01*
Y3077*
X2081Y3076*
X2082Y3074*
X2082Y3073*
X2083Y3071*
X2084Y3070*
X2086Y3069*
X2087Y3068*
X2088Y3067*
X2090Y3066*
X2091Y3066*
X2093Y3065*
X2095*
X2096Y3066*
X2098Y3066*
X2100Y3067*
X2101Y3068*
X2102Y3069*
X2103Y3070*
X2104Y3070*
X2107Y3068*
Y3053*
X2106Y3053*
X2103Y3052*
X2102Y3052*
X2101Y3053*
X2100Y3053*
X2092*
X2090Y3053*
X2089Y3052*
X2089Y3052*
X2087Y3051*
X2085*
X2084Y3052*
X2083Y3052*
X2082Y3053*
X2081Y3053*
X2072*
X2071Y3053*
X2070Y3052*
X2069Y3052*
X2067Y3051*
X2066*
X2064Y3052*
X2063Y3052*
X2062Y3053*
X2061Y3053*
X2052*
X2051Y3053*
X2050Y3052*
X2049Y3052*
X2048Y3051*
X2046*
X2044Y3052*
X2043Y3052*
X2042Y3053*
X2041Y3053*
X2032*
X2031Y3053*
X2030Y3052*
X2029Y3052*
X2028Y3051*
X2026*
X2025Y3052*
X2024Y3052*
X2023Y3053*
X2022Y3053*
X2013*
X2012Y3053*
X2012Y3053*
X2009Y3056*
X2027Y3073*
X2045*
X2046Y3073*
X2047Y3072*
X2049Y3071*
X2051Y3070*
X2052Y3070*
X2054Y3069*
X2055*
X2057Y3070*
X2059Y3070*
X2060Y3071*
X2062Y3072*
X2063Y3073*
X2064Y3074*
X2065Y3075*
X2066Y3077*
X2067Y3078*
X2067Y3080*
X2067Y3081*
Y3083*
X2067Y3085*
X2067Y3086*
X2066Y3088*
X2065Y3089*
X2064Y3091*
X2063Y3092*
X2062Y3092*
X2062Y3095*
X2063Y3097*
X2064Y3097*
X2081Y3080*
G37*
G36*
X1931Y3089D02*
X1931Y3089D01*
Y3056*
X1931Y3056*
X1927Y3057*
X1927Y3058*
Y3087*
X1931Y3089*
X1931Y3089*
G37*
G36*
X1890Y2957D02*
X1892Y2956D01*
X1893Y2956*
X1923*
X1923Y2956*
X1924Y2954*
X1925Y2953*
X1927Y2953*
X1928Y2952*
X1927Y2948*
X1893*
X1887Y2954*
X1889Y2957*
X1890Y2957*
G37*
G36*
X1706Y2962D02*
X1706Y2960D01*
X1707Y2959*
X1707Y2957*
X1707Y2957*
Y2955*
X1707Y2954*
X1708Y2952*
X1708Y2951*
X1709Y2949*
X1710Y2948*
X1710Y2947*
Y2938*
X1710Y2937*
X1711Y2936*
X1711Y2935*
X1712Y2933*
Y2932*
X1711Y2930*
X1711Y2929*
X1710Y2928*
X1710Y2927*
Y2920*
X1706Y2918*
X1700Y2924*
Y2967*
X1702Y2971*
X1706*
Y2962*
G37*
G36*
X1952Y2701D02*
Y2647D01*
X1948Y2646*
X1947Y2647*
X1946Y2649*
X1945Y2650*
X1944Y2650*
Y2681*
X1944Y2682*
X1944Y2684*
X1943Y2685*
X1942Y2686*
X1857Y2771*
X1856Y2772*
X1855Y2773*
X1854Y2773*
X1855Y2777*
X1876*
X1952Y2701*
G37*
G36*
X1975Y2717D02*
Y2650D01*
X1975Y2650*
X1974Y2649*
X1973Y2647*
X1972Y2646*
X1968Y2647*
Y2704*
X1968Y2706*
X1968Y2707*
X1968Y2708*
X1967Y2709*
X1966Y2710*
X1885Y2791*
X1884Y2792*
X1883Y2792*
X1883Y2792*
X1884Y2796*
X1896*
X1975Y2717*
G37*
G36*
X1929Y2677D02*
Y2650D01*
X1928Y2650*
X1927Y2649*
X1926Y2647*
X1925Y2646*
X1921Y2647*
Y2665*
X1921Y2666*
X1921Y2667*
X1920Y2669*
X1920Y2670*
X1919Y2671*
X1838Y2751*
X1837Y2752*
X1836Y2753*
X1835Y2753*
X1835Y2757*
X1849*
X1929Y2677*
G37*
G36*
X1927Y2632D02*
X1928Y2631D01*
X1929Y2630*
X1931Y2629*
X1932Y2628*
X1934Y2628*
X1936Y2627*
X1937*
X1939Y2628*
X1941Y2628*
X1942Y2629*
X1944Y2630*
X1945Y2631*
X1946Y2632*
X1947Y2632*
X1950Y2631*
X1950Y2630*
X1949Y2629*
X1949Y2627*
X1948Y2626*
X1948Y2624*
X1947Y2622*
Y2621*
X1948Y2619*
X1948Y2617*
X1949Y2616*
X1949Y2614*
X1950Y2613*
X1952Y2612*
X1953Y2611*
X1954Y2610*
X1955Y2610*
X1954Y2606*
X1954*
X1953Y2606*
X1952Y2605*
X1951Y2605*
X1949Y2604*
X1947*
X1946Y2605*
X1945Y2605*
X1944Y2606*
X1943Y2606*
X1934*
X1933Y2606*
X1932Y2605*
X1931Y2605*
X1930Y2604*
X1928*
X1926Y2605*
X1925Y2605*
X1924Y2606*
X1923Y2606*
X1919*
X1918Y2610*
X1919Y2610*
X1920Y2611*
X1921Y2612*
X1923Y2613*
X1924Y2614*
X1924Y2616*
X1925Y2617*
X1925Y2619*
X1926Y2621*
Y2622*
X1925Y2624*
X1925Y2626*
X1924Y2627*
X1924Y2629*
X1923Y2630*
X1923Y2631*
X1926Y2632*
X1927Y2632*
G37*
G36*
X2913Y1985D02*
X2912Y1985D01*
X2911Y1984*
X2909Y1983*
X2908Y1983*
X2907Y1982*
X2903Y1983*
X2901Y1985*
X2903Y1989*
X2912*
X2913Y1985*
G37*
G36*
X2716D02*
X2716Y1985D01*
X2714Y1984*
X2712Y1983*
X2711Y1983*
X2710Y1982*
X2706Y1983*
X2704Y1985*
X2706Y1989*
X2716*
X2716Y1985*
G37*
G36*
X2326Y2972D02*
Y2937D01*
X2240*
Y2972*
X2248Y2980*
X2318*
X2326Y2972*
G37*
G36*
X2265Y2827D02*
D01*
Y2825*
Y2818*
X2241*
X2240Y2822*
X2251Y2834*
X2265*
Y2827*
G37*
G36*
X2252Y2757D02*
X2253Y2756D01*
X2254Y2755*
X2256Y2754*
X2257Y2753*
X2259Y2753*
X2260Y2752*
X2262*
X2263Y2753*
X2265Y2750*
X2265Y2749*
X2263Y2747*
X2247*
X2243Y2751*
X2242Y2752*
X2240Y2753*
X2240Y2753*
X2241Y2757*
X2252*
X2252Y2757*
G37*
G36*
X3110Y1985D02*
X3109Y1985D01*
X3108Y1984*
X3106Y1983*
X3105Y1983*
X3103Y1982*
X3103Y1981*
X3102Y1981*
X3099Y1982*
X3099Y1982*
X3098Y1982*
X3098Y1983*
X3096Y1985*
X3098Y1989*
X3109*
X3110Y1985*
G37*
G36*
X2350Y2846D02*
Y2807D01*
X2342Y2799*
X2307*
Y2854*
X2342*
X2350Y2846*
G37*
G36*
X1547Y2862D02*
Y2807D01*
X1539Y2799*
X1448*
Y2870*
X1539*
X1547Y2862*
G37*
G36*
X1507Y2688D02*
X1433D01*
X1421Y2700*
Y2716*
X1433Y2728*
X1507*
Y2688*
G37*
G36*
X3011Y2717D02*
Y2666D01*
Y2666*
X3011Y2665*
X3011Y2663*
X3011Y2662*
X3010Y2661*
X3009Y2660*
X3009Y2658*
X3008Y2657*
X3007Y2657*
X3007Y2657*
X3006Y2655*
X3005Y2654*
X3005Y2653*
X3004Y2652*
X3004Y2651*
X3004Y2649*
X3003Y2648*
X3003Y2647*
Y2562*
Y2507*
Y2487*
X3002Y2483*
X3001*
X2999Y2483*
X2997Y2482*
X2996Y2481*
X2994Y2481*
X2993Y2480*
X2933*
X2932*
X2930Y2480*
X2929Y2481*
X2928Y2482*
X2926Y2483*
X2926Y2484*
X2925Y2485*
X2925Y2487*
Y2696*
X2968*
X2969Y2696*
X2970Y2697*
X2971Y2697*
X2973Y2697*
X2974Y2698*
X2975Y2699*
X2976Y2700*
X2977Y2701*
X2978Y2702*
X2979Y2703*
X2979Y2704*
X2979Y2705*
X2980Y2706*
Y2707*
X2980Y2709*
X2980Y2711*
X2981Y2712*
X2982Y2714*
X2983Y2715*
X2984Y2717*
X2986Y2718*
X2987Y2719*
X2989Y2719*
X2991Y2720*
X2993Y2720*
X2994*
X3009*
X3011Y2717*
G37*
G36*
X2921Y2610D02*
X2909D01*
Y2614*
X2915*
Y2644*
X2909*
Y2650*
X2911Y2651*
X2912Y2652*
X2912Y2653*
X2913Y2655*
X2913Y2656*
Y2663*
X2921*
Y2610*
G37*
G36*
X2153Y2515D02*
Y2464D01*
X2149Y2460*
X2114*
Y2519*
Y2533*
X2120Y2539*
X2129*
X2153Y2515*
G37*
G36*
X1602Y2720D02*
X1696D01*
X1704Y2712*
Y2700*
X1696Y2692*
X1594*
X1590Y2688*
X1539*
Y2728*
X1594*
X1602Y2720*
G37*
G36*
X2106Y2350D02*
Y2322D01*
X1988*
Y2350*
X1996Y2358*
X2098*
X2106Y2350*
G37*
G36*
X2519Y1985D02*
X2519Y1985D01*
X2517Y1984*
X2515Y1983*
X2514Y1983*
X2513Y1982*
X2509Y1983*
X2508Y1985*
X2509Y1989*
X2519*
X2519Y1985*
G37*
G36*
X1212Y2326D02*
X1181Y2295D01*
Y2279*
X1157*
Y2326*
X1133Y2350*
Y2377*
X1212*
Y2326*
G37*
G36*
X2917Y2338D02*
Y2326D01*
X2909Y2318*
X2775*
Y2350*
X2791Y2366*
X2889*
X2917Y2338*
G37*
G36*
X1181Y2228D02*
X1173Y2220D01*
X1098*
X1090Y2228*
Y2263*
X1181*
Y2228*
G37*
G36*
X2125Y1985D02*
X2125Y1985D01*
X2123Y1984*
X2122Y1983*
X2120Y1983*
X2119Y1982*
X2115Y1983*
X2114Y1985*
X2116Y1989*
X2125*
X2125Y1985*
G37*
G36*
X2637Y2717D02*
Y2666D01*
Y2666*
X2637Y2665*
X2637Y2663*
X2637Y2662*
X2636Y2661*
X2635Y2660*
X2635Y2658*
X2634Y2657*
X2633Y2657*
X2633Y2657*
X2632Y2655*
X2631Y2654*
X2631Y2653*
X2630Y2652*
X2630Y2651*
X2630Y2649*
X2629Y2648*
X2629Y2647*
Y2562*
Y2507*
Y2484*
Y2483*
X2629Y2483*
X2629Y2482*
X2629Y2481*
X2628Y2481*
X2627Y2480*
X2627Y2480*
X2626Y2480*
X2559*
X2558*
X2556Y2480*
X2555Y2481*
X2554Y2482*
X2552Y2483*
X2552Y2484*
X2551Y2485*
X2551Y2487*
Y2696*
X2594*
X2595Y2696*
X2596Y2697*
X2597Y2697*
X2599Y2697*
X2600Y2698*
X2601Y2699*
X2602Y2700*
X2603Y2701*
X2604Y2702*
X2605Y2703*
X2605Y2704*
X2605Y2705*
X2606Y2706*
Y2707*
X2606Y2709*
X2606Y2711*
X2607Y2712*
X2608Y2714*
X2609Y2715*
X2610Y2717*
X2612Y2718*
X2613Y2719*
X2615Y2719*
X2617Y2720*
X2619Y2720*
X2620*
X2635*
X2637Y2717*
G37*
G36*
X2547Y2610D02*
X2535D01*
Y2614*
X2541*
Y2644*
X2535*
Y2650*
X2537Y2651*
X2538Y2652*
X2538Y2653*
X2539Y2655*
X2539Y2656*
Y2663*
X2547*
Y2610*
G37*
G36*
X2322Y1985D02*
X2322Y1985D01*
X2320Y1984*
X2319Y1983*
X2317Y1983*
X2316Y1982*
X2312Y1983*
X2311Y1985*
X2312Y1989*
X2322*
X2322Y1985*
G37*
G36*
X1928D02*
X1928Y1985D01*
X1926Y1984*
X1925Y1983*
X1923Y1983*
X1922Y1982*
X1918Y1983*
X1917Y1985*
X1919Y1989*
X1928*
X1928Y1985*
G37*
G36*
X1732D02*
X1731Y1985D01*
X1730Y1984*
X1728Y1983*
X1727Y1983*
X1726Y1982*
X1722Y1983*
X1720Y1985*
X1722Y1989*
X1731*
X1732Y1985*
G37*
%LNbenchy-voltmeter-pcb-4*%
%LPC*%
G36*
X3158Y1126D02*
X3156D01*
X3154Y1126*
X3153Y1126*
X3151Y1125*
X3150Y1124*
X3149Y1123*
X3147Y1122*
X3146Y1121*
X3145Y1119*
X3145Y1118*
X3144Y1116*
X3144Y1115*
Y1113*
X3144Y1113*
X3142Y1110*
X3141Y1109*
X3135*
Y1077*
X3179*
Y1109*
X3173*
X3172Y1110*
X3170Y1113*
X3170Y1113*
Y1115*
X3170Y1116*
X3169Y1118*
X3168Y1119*
X3168Y1121*
X3167Y1122*
X3165Y1123*
X3164Y1124*
X3163Y1125*
X3161Y1126*
X3159Y1126*
X3158Y1126*
G37*
G36*
X3095D02*
X3093D01*
X3091Y1126*
X3090Y1126*
X3088Y1125*
X3087Y1124*
X3086Y1123*
X3084Y1122*
X3083Y1121*
X3082Y1119*
X3082Y1118*
X3081Y1116*
X3081Y1115*
Y1113*
X3081Y1113*
X3079Y1110*
X3078Y1109*
X3072*
Y1077*
X3116*
Y1109*
X3110*
X3109Y1110*
X3107Y1113*
X3107Y1113*
Y1115*
X3107Y1116*
X3106Y1118*
X3105Y1119*
X3105Y1121*
X3104Y1122*
X3102Y1123*
X3101Y1124*
X3100Y1125*
X3098Y1126*
X3096Y1126*
X3095Y1126*
G37*
G36*
X3032D02*
X3030D01*
X3028Y1126*
X3027Y1126*
X3025Y1125*
X3024Y1124*
X3023Y1123*
X3021Y1122*
X3020Y1121*
X3020Y1119*
X3019Y1118*
X3018Y1116*
X3018Y1115*
Y1113*
X3018Y1113*
X3016Y1110*
X3015Y1109*
X3009*
Y1077*
X3053*
Y1109*
X3047*
X3046Y1110*
X3044Y1113*
X3044Y1113*
Y1115*
X3044Y1116*
X3043Y1118*
X3043Y1119*
X3042Y1121*
X3041Y1122*
X3039Y1123*
X3038Y1124*
X3037Y1125*
X3035Y1126*
X3034Y1126*
X3032Y1126*
G37*
G36*
X2969D02*
X2967D01*
X2966Y1126*
X2964Y1126*
X2962Y1125*
X2961Y1124*
X2960Y1123*
X2958Y1122*
X2957Y1121*
X2957Y1119*
X2956Y1118*
X2955Y1116*
X2955Y1115*
Y1113*
X2955Y1113*
X2953Y1110*
X2952Y1109*
X2946*
Y1077*
X2990*
Y1109*
X2984*
X2983Y1110*
X2981Y1113*
X2981Y1113*
Y1115*
X2981Y1116*
X2980Y1118*
X2980Y1119*
X2979Y1121*
X2978Y1122*
X2976Y1123*
X2975Y1124*
X2974Y1125*
X2972Y1126*
X2971Y1126*
X2969Y1126*
G37*
G36*
X3095Y1067D02*
X3093D01*
X3091Y1067*
X3090Y1067*
X3088Y1066*
X3087Y1065*
X3086Y1064*
X3084Y1063*
X3083Y1062*
X3082Y1060*
X3082Y1059*
X3081Y1057*
X3081Y1055*
Y1054*
X3081Y1052*
X3082Y1052*
X3080Y1049*
X3079Y1048*
X3072*
Y1016*
X3116*
Y1048*
X3109*
X3108Y1049*
X3106Y1052*
X3107Y1052*
X3107Y1054*
Y1055*
X3107Y1057*
X3106Y1059*
X3105Y1060*
X3105Y1062*
X3104Y1063*
X3102Y1064*
X3101Y1065*
X3100Y1066*
X3098Y1067*
X3096Y1067*
X3095Y1067*
G37*
G36*
X3032D02*
X3030D01*
X3028Y1067*
X3027Y1067*
X3025Y1066*
X3024Y1065*
X3023Y1064*
X3021Y1063*
X3020Y1062*
X3020Y1060*
X3019Y1059*
X3018Y1057*
X3018Y1055*
Y1054*
X3018Y1052*
X3019Y1052*
X3017Y1049*
X3016Y1048*
X3009*
Y1016*
X3053*
Y1048*
X3046*
X3045Y1049*
X3043Y1052*
X3044Y1052*
X3044Y1054*
Y1055*
X3044Y1057*
X3043Y1059*
X3043Y1060*
X3042Y1062*
X3041Y1063*
X3039Y1064*
X3038Y1065*
X3037Y1066*
X3035Y1067*
X3034Y1067*
X3032Y1067*
G37*
%LNbenchy-voltmeter-pcb-5*%
%LPD*%
G54D15*
X1745Y2942D03*
X2191D03*
Y2647D03*
X1745D03*
X2191Y2923D03*
Y2903D03*
Y2883D03*
Y2864D03*
Y2844D03*
Y2824D03*
Y2805D03*
Y2785D03*
Y2765D03*
Y2746D03*
Y2726D03*
Y2706D03*
Y2687D03*
Y2667D03*
X1745D03*
Y2687D03*
Y2706D03*
Y2726D03*
Y2746D03*
Y2765D03*
Y2785D03*
Y2805D03*
Y2824D03*
Y2844D03*
Y2864D03*
Y2883D03*
Y2903D03*
Y2923D03*
G54D16*
X1820Y3018D03*
X2116D03*
Y2571D03*
X1820D03*
X1840Y3018D03*
X1860D03*
X1879D03*
X1899D03*
X1919D03*
X1938D03*
X1958D03*
X1978D03*
X1998D03*
X2017D03*
X2037D03*
X2057D03*
X2076D03*
X2096D03*
Y2571D03*
X2076D03*
X2057D03*
X2037D03*
X2017D03*
X1998D03*
X1978D03*
X1958D03*
X1938D03*
X1919D03*
X1899D03*
X1879D03*
X1860D03*
X1840D03*
G54D17*
X3157Y1032D03*
Y1093D03*
X2968Y1032D03*
Y1093D03*
X3031Y1032D03*
Y1093D03*
X3094Y1032D03*
Y1093D03*
G54D18*
X3046Y2811D03*
X3008D03*
X1008Y2153D03*
X1046D03*
X1203Y2488D03*
X1166D03*
X1278Y2307D03*
X1240D03*
X1853Y2472D03*
X1815D03*
X1122Y1748D03*
X1160D03*
X2630Y2712D03*
X2668D03*
X2630Y2681D03*
X2668D03*
X1807Y3082D03*
X1845D03*
X1807Y3114D03*
X1845D03*
X2634Y2811D03*
X2672D03*
X3004Y2681D03*
X3042D03*
X3004Y2712D03*
X3042D03*
X2125Y2503D03*
X2087D03*
X2125Y2472D03*
X2087D03*
X1853Y2503D03*
X1815D03*
G54D19*
X2608Y2629D03*
X2683D03*
X2982D03*
X3057D03*
X2824Y2578D03*
X2899D03*
X2450D03*
X2525D03*
G54D20*
X1188Y2145D03*
Y2185D03*
X1157Y2145D03*
Y2185D03*
X2094Y2291D03*
Y2331D03*
X2062Y2291D03*
Y2331D03*
X2031Y2291D03*
Y2331D03*
X2000Y2291D03*
Y2331D03*
X2881D03*
Y2291D03*
X2850D03*
Y2331D03*
X2818Y2291D03*
Y2331D03*
X2787Y2291D03*
Y2331D03*
X1169Y2291D03*
Y2251D03*
X1700Y1991D03*
Y2031D03*
X1897Y1991D03*
Y2031D03*
X2094Y1991D03*
Y2031D03*
X2291Y1991D03*
Y2031D03*
X2488Y1991D03*
Y2031D03*
X3078Y1991D03*
Y2031D03*
X2881Y1991D03*
Y2031D03*
X1657Y1775D03*
Y1815D03*
X1791Y1775D03*
Y1815D03*
X1854Y1775D03*
Y1815D03*
X3035Y1775D03*
Y1815D03*
X2972Y1775D03*
Y1815D03*
X2838Y1775D03*
Y1815D03*
X2775Y1775D03*
Y1815D03*
X2641Y1775D03*
Y1815D03*
X2578Y1775D03*
Y1815D03*
X2444Y1775D03*
Y1815D03*
X2051Y1775D03*
Y1815D03*
X1988Y1775D03*
Y1815D03*
X2248Y1775D03*
Y1815D03*
X2185Y1775D03*
Y1815D03*
X2381Y1775D03*
Y1815D03*
X1433Y3291D03*
Y3251D03*
X1573Y3291D03*
Y3251D03*
X3169Y1775D03*
Y1815D03*
X2685Y1991D03*
Y2031D03*
X1803Y1991D03*
Y2031D03*
X2000Y1991D03*
Y2031D03*
X2196Y1991D03*
Y2031D03*
X2393D03*
Y1991D03*
X2590D03*
Y2031D03*
X2787D03*
Y1991D03*
X2984D03*
Y2031D03*
X3181Y1991D03*
Y2031D03*
X2842Y2791D03*
Y2751D03*
X2807D03*
Y2791D03*
X2468D03*
Y2751D03*
X2433D03*
Y2791D03*
G54D21*
X1045Y2092D03*
X1007D03*
X970D03*
Y2002D03*
X1007D03*
X1045D03*
X1153D03*
X1116Y2092D03*
X1190D03*
X1202Y2442D03*
X1277D03*
Y2352D03*
X1240D03*
X1202D03*
G54D22*
X1144Y2362D03*
X1083D03*
X1290Y2267D03*
X1229D03*
X1115Y1704D03*
X1176D03*
X1103Y1921D03*
X1164D03*
G54D23*
X1102Y2290D03*
Y2252D03*
X1133Y2290D03*
Y2252D03*
X1669Y2922D03*
Y2959D03*
Y3030D03*
Y2992D03*
X1653Y2703D03*
Y2666D03*
X1685Y2703D03*
Y2666D03*
X1204Y1910D03*
Y1948D03*
X1716Y2985D03*
Y3022D03*
X2251Y2948D03*
Y2910D03*
X2283Y2948D03*
Y2910D03*
G54D24*
X1121Y2322D03*
X1161D03*
X1731Y2003D03*
X1771D03*
X1928D03*
X1968D03*
X2125D03*
X2165D03*
X2322D03*
X2362D03*
X2519D03*
X2559D03*
X3109D03*
X3149D03*
X2913D03*
X2953D03*
X1704Y1783D03*
X1744D03*
X1901D03*
X1941D03*
X3082D03*
X3122D03*
X2885D03*
X2925D03*
X2688D03*
X2728D03*
X2491D03*
X2531D03*
X2098D03*
X2138D03*
X2294D03*
X2334D03*
X2527Y2629D03*
X2487D03*
X2716Y2003D03*
X2756D03*
X2946Y2849D03*
X2906D03*
X2946Y2885D03*
X2906D03*
X2901Y2629D03*
X2861D03*
X2319Y2811D03*
X2279D03*
X2319Y2842D03*
X2279D03*
X2572Y2849D03*
X2532D03*
X2572Y2889D03*
X2532D03*
G54D25*
X1487Y2708D03*
X1552D03*
G54D26*
X3102Y1889D03*
X1724D03*
X1921D03*
X2118D03*
X2314D03*
X2905D03*
X2708D03*
X2511D03*
G54D27*
X3072Y1946D03*
X3092D03*
X3112D03*
X3131D03*
Y1832D03*
X3112D03*
X3092D03*
X3072D03*
X1694Y1946D03*
X1714D03*
X1734D03*
X1753D03*
Y1832D03*
X1734D03*
X1714D03*
X1694D03*
X1891Y1946D03*
X1911D03*
X1931D03*
X1950D03*
Y1832D03*
X1931D03*
X1911D03*
X1891D03*
X2088Y1946D03*
X2108D03*
X2127D03*
X2147D03*
Y1832D03*
X2127D03*
X2108D03*
X2088D03*
X2285Y1946D03*
X2305D03*
X2324D03*
X2344D03*
Y1832D03*
X2324D03*
X2305D03*
X2285D03*
X2875Y1946D03*
X2895D03*
X2915D03*
X2935D03*
Y1832D03*
X2915D03*
X2895D03*
X2875D03*
X2679Y1946D03*
X2698D03*
X2718D03*
X2738D03*
Y1832D03*
X2718D03*
X2698D03*
X2679D03*
X2482Y1946D03*
X2501D03*
X2521D03*
X2541D03*
Y1832D03*
X2521D03*
X2501D03*
X2482D03*
G54D28*
X2607Y2539D03*
X2723D03*
X2997Y2885D03*
X3113D03*
X2981Y2539D03*
X3097D03*
X2623Y2885D03*
X2739D03*
G54D29*
X1868Y3282D03*
X1918D03*
X1968D03*
X2018D03*
X2068D03*
Y3332D03*
X2018D03*
X1968D03*
X1918D03*
X1868D03*
G54D30*
X1296Y3257D03*
Y3435D03*
X1380Y3257D03*
Y3435D03*
G54D31*
X1618Y2767D03*
Y2814D03*
Y2862D03*
G54D32*
X1618Y2923D03*
Y3029D03*
G54D33*
X1606Y2618D03*
Y2704D03*
G54D34*
X1318Y2834D03*
X1476D03*
G54D35*
X2263Y3446D03*
Y3372D03*
G54D36*
X1202Y1868D03*
Y1793D03*
X1112D03*
Y1830D03*
Y1868D03*
G54D37*
X3044Y1720D03*
X3159D03*
X2847D03*
X2963D03*
X2651D03*
X2766D03*
X2454D03*
X2569D03*
X2257D03*
X2372D03*
X2060D03*
X2175D03*
X1863D03*
X1978D03*
X1666D03*
X1781D03*
G54D38*
X1767Y1536D03*
Y1652D03*
X1964Y1536D03*
Y1652D03*
X2161Y1536D03*
Y1652D03*
X2358Y1536D03*
Y1652D03*
X2555Y1536D03*
Y1652D03*
X2751Y1536D03*
Y1652D03*
X3145Y1536D03*
Y1652D03*
X2948Y1536D03*
Y1652D03*
G54D39*
X1787Y2078D03*
X1700D03*
X1984D03*
X1897D03*
X2181D03*
X2094D03*
X2377D03*
X2291D03*
X2574D03*
X2488D03*
X2771D03*
X2685D03*
X2968D03*
X2881D03*
X3165D03*
X3078D03*
G54D40*
X2551Y2740D03*
X2925D03*
G54D41*
X2590Y2682D03*
X2570D03*
X2551D03*
X2531D03*
X2511D03*
Y2798D03*
X2531D03*
X2551D03*
X2570D03*
X2590D03*
X2964Y2682D03*
X2944D03*
X2925D03*
X2905D03*
X2885D03*
Y2798D03*
X2905D03*
X2925D03*
X2944D03*
X2964D03*
G54D42*
X2224Y3278D03*
Y3162D03*
X2732Y3384D03*
Y3268D03*
G54D43*
X2604Y3236D03*
Y3326D03*
Y3417D03*
G54D44*
X2356Y3326D03*
G54D87*
X2574Y2543D02*
D01*
X2574Y2544*
X2574Y2544*
X2574Y2545*
X2574Y2546*
X2574Y2547*
X2573Y2548*
X2573Y2548*
X2573Y2549*
X2572Y2550*
X2572Y2550*
X2571Y2551*
X2570Y2552*
X2570Y2552*
X2569Y2553*
X2568Y2553*
X2568Y2553*
X2567Y2554*
X2566Y2554*
X2565Y2554*
X2565Y2554*
X2564Y2555*
X2563Y2555*
X2562Y2555*
X1984Y2640D02*
Y2720D01*
X1899Y2805D02*
X1984Y2720D01*
X2191Y2765D02*
X2261D01*
X2191Y2785D02*
X2240D01*
X2246Y2791D02*
X2249D01*
X2240Y2785D02*
X2246Y2791D01*
X2244Y2739D02*
X2273D01*
X2191Y2746D02*
X2237D01*
X2244Y2739*
X2234Y2726D02*
X2249Y2711D01*
X2191Y2726D02*
X2234D01*
X1106Y1874D02*
X1112Y1868D01*
X1103Y1921D02*
X1106Y1918D01*
Y1874D02*
Y1918D01*
X1043Y1921D02*
X1103D01*
X1007Y1956D02*
X1043Y1921D01*
X1535Y1421D02*
Y2547D01*
X1507Y2472D02*
Y2570D01*
X1468Y1190D02*
Y2433D01*
X1507Y2472*
X1397Y1421D02*
Y2421D01*
X1480Y2503D02*
Y2578D01*
X1397Y2421D02*
X1480Y2503D01*
X2057Y2571D02*
Y2612D01*
X2066Y2622*
X2318Y2444D02*
X2547D01*
X2244Y2519D02*
X2318Y2444D01*
X1889Y2870D02*
X2051D01*
X1775Y2984D02*
X1889Y2870D01*
X1775Y2984D02*
Y3031D01*
X2051Y2870D02*
X2096Y2915D01*
X1157Y2185D02*
X1188D01*
X983D02*
X1157D01*
X1566Y1192D02*
Y1389D01*
X1535Y1421D02*
X1566Y1389D01*
X1366Y1192D02*
Y1389D01*
X1397Y1421*
X1468Y1190D02*
X1517Y1141D01*
X1939Y3101D02*
X1940Y3102D01*
X1939Y3019D02*
Y3101D01*
X1938Y3018D02*
X1939Y3019D01*
X1958Y3084D02*
X1968Y3094D01*
X1958Y3018D02*
Y3084D01*
X1978Y3072D02*
X1996Y3090D01*
X1978Y3018D02*
Y3072D01*
X2118Y2811D02*
X2131Y2824D01*
X2230*
X2248Y2842D02*
X2279D01*
X2230Y2824D02*
X2248Y2842D01*
X1566Y1192D02*
X1617Y1141D01*
X1366Y1192D02*
X1417Y1141D01*
X2096Y2915D02*
Y3018D01*
X1712Y3094D02*
X1775Y3031D01*
X944Y2224D02*
X983Y2185D01*
X1960Y2622D02*
Y2704D01*
X1879Y2785D02*
X1960Y2704D01*
X1745Y2805D02*
X1899D01*
X1832Y2746D02*
X1913Y2665D01*
Y2622D02*
Y2665D01*
X1745Y2746D02*
X1832D01*
X1007Y1956D02*
Y2002D01*
X1045D02*
X1153D01*
X970Y2092D02*
Y2129D01*
X969Y2003D02*
X970Y2002D01*
X937Y2003D02*
X969D01*
X1115Y1793D02*
X1202D01*
X1112D02*
X1115D01*
X1122Y1751D02*
Y1785D01*
X1115Y1793D02*
X1122Y1785D01*
Y1720D02*
Y1751D01*
X1115Y1712D02*
X1122Y1720D01*
X964Y1714D02*
X1113D01*
X1115Y1712*
X3149Y2145D02*
Y2248D01*
X2602Y2437D02*
X2960D01*
X3149Y2248*
X2574Y2464D02*
Y2543D01*
Y2464D02*
X2602Y2437D01*
X1547Y3094D02*
X1712D01*
X1527Y3141D02*
X1885D01*
X1919Y3018D02*
Y3108D01*
X1885Y3141D02*
X1919Y3108D01*
X2031Y3129D02*
X2082D01*
X1976Y3185D02*
X2031Y3129D01*
X2082D02*
X2116Y3096D01*
Y3018D02*
Y3096D01*
X3031Y1032D02*
D01*
Y1055*
X3157Y1032D02*
X3157Y1031D01*
X3184*
X3185Y1031*
X1745Y2785D02*
X1879D01*
X1385Y2933D02*
X1547Y3094D01*
X1023Y2933D02*
X1385D01*
X1417Y3031D02*
X1527Y3141D01*
X1023Y3031D02*
X1417D01*
X3157Y1093D02*
D01*
Y1114*
X3094Y1093D02*
D01*
Y1114*
X3031Y1093D02*
D01*
Y1114*
X2968Y1093D02*
D01*
Y1114*
X2902Y1032D02*
X2968D01*
X2874Y1061D02*
X2902Y1032D01*
G54D88*
X1840Y3018D02*
Y3056D01*
X1846Y3064D02*
X1846Y3063D01*
X1840Y3056D02*
X1846Y3062D01*
X1846Y3064D02*
Y3082D01*
X1846Y3062D02*
Y3063D01*
X1840Y3018D02*
D01*
X1845Y3082D02*
X1846Y3082D01*
X2251Y2889D02*
Y2910D01*
X2248Y2914D02*
X2251Y2910D01*
X2233Y2917D02*
X2236D01*
X2239Y2914D02*
X2248D01*
X2191Y2923D02*
X2227D01*
X2236Y2917D02*
X2239Y2914D01*
X2227Y2923D02*
X2233Y2917D01*
X1445Y3338D02*
X1473Y3366D01*
X1445Y3319D02*
Y3338D01*
X1433Y3307D02*
X1445Y3319D01*
X1433Y3291D02*
Y3307D01*
X2870Y2681D02*
X2885D01*
X2496D02*
X2511D01*
X2807Y2732D02*
Y2751D01*
X1606Y2598D02*
Y2618D01*
X2232Y2944D02*
X2249Y2962D01*
X1721Y2942D02*
Y2955D01*
X1745Y2726D02*
X1783D01*
X1785Y2724*
X1787*
X2885Y2681D02*
Y2682D01*
X2870Y2681D02*
X2870Y2681D01*
X3094Y1032D02*
D01*
Y1055*
X2511Y2681D02*
Y2682D01*
X2496Y2681D02*
X2496Y2681D01*
X2249Y2962D02*
Y2966D01*
X2250Y2967*
X2191Y2942D02*
X2228D01*
X2230Y2944*
X2232*
X1820Y3018D02*
Y3051D01*
X1814Y3057D02*
X1820Y3051D01*
X1814Y3057D02*
Y3059D01*
X1807Y3082D02*
X1809Y3081D01*
Y3066D02*
Y3081D01*
Y3066D02*
X1814Y3060D01*
Y3059D02*
Y3060D01*
X1721Y2942D02*
X1745D01*
X1720Y2956D02*
X1721Y2955D01*
X1716Y2962D02*
Y2977D01*
Y2962D02*
X1720Y2958D01*
Y2956D02*
Y2958D01*
X1687Y2706D02*
X1745D01*
X1685Y2703D02*
X1687Y2706D01*
X2096Y2534D02*
Y2571D01*
X2086Y2524D02*
X2096Y2534D01*
X2086Y2523D02*
Y2524D01*
X2116Y2535D02*
Y2571D01*
Y2535D02*
X2123Y2528D01*
X2123*
X2128Y2523*
X2129*
X1853Y2472D02*
Y2503D01*
Y2521*
X1858Y2525*
Y2527*
X1860Y2531D02*
Y2571D01*
X1858Y2529D02*
X1860Y2531D01*
X1858Y2527D02*
Y2529D01*
G54D89*
X2089Y2863D02*
X2191D01*
X2191Y2864*
X2088Y2863D02*
X2089Y2863D01*
X1937Y2640D02*
Y2681D01*
X2912Y2835D02*
X2925Y2822D01*
X2912Y2835D02*
Y2843D01*
X2925Y2798D02*
Y2822D01*
X2906Y2849D02*
X2912Y2843D01*
X2883Y2885D02*
X2906D01*
X2883Y2834D02*
X2892Y2825D01*
X2899*
X2883Y2834D02*
Y2885D01*
X2899Y2825D02*
X2905Y2819D01*
Y2798D02*
Y2819D01*
X2881Y2098D02*
Y2121D01*
X2275Y2362D02*
X2640D01*
X2881Y2121*
X2509Y2834D02*
X2517Y2826D01*
X2526D02*
X2531Y2821D01*
Y2798D02*
Y2821D01*
X2517Y2826D02*
X2526D01*
X2537Y2834D02*
Y2844D01*
Y2834D02*
X2551Y2820D01*
Y2798D02*
Y2820D01*
X2532Y2849D02*
X2537Y2844D01*
X2509Y2834D02*
Y2889D01*
X2532*
X1573Y3366D02*
Y3385D01*
Y3291D02*
Y3366D01*
Y3231D02*
Y3251D01*
X2968Y2074D02*
X2971D01*
X2968Y2078D02*
X2971D01*
X2984Y2065*
Y2031D02*
Y2065D01*
X2771Y2074D02*
X2774D01*
X2771Y2078D02*
X2774D01*
X2787Y2065*
Y2031D02*
Y2065D01*
X2574Y2074D02*
X2577D01*
X2574Y2078D02*
X2577D01*
X2590Y2065*
Y2031D02*
Y2065D01*
X2377Y2074D02*
X2380D01*
X2377Y2078D02*
X2380D01*
X2393Y2065*
Y2031D02*
Y2065D01*
X2181Y2074D02*
X2187D01*
X2196Y2065*
Y2031D02*
Y2065D01*
X1984Y2074D02*
X1987D01*
X1984Y2078D02*
X1987D01*
X2000Y2065*
Y2031D02*
Y2065D01*
X1787Y2074D02*
X1790D01*
X1787Y2078D02*
X1790D01*
X1803Y2065*
Y2031D02*
Y2065D01*
X3181Y2031D02*
Y2065D01*
X3168Y2078D02*
X3181Y2065D01*
X3165Y2078D02*
X3168D01*
X1473Y3366D02*
Y3385D01*
X2047Y2440D02*
X2196D01*
X2017Y2470D02*
Y2571D01*
Y2470D02*
X2047Y2440D01*
X2685Y2098D02*
Y2187D01*
X2240Y2303D02*
X2568D01*
X2685Y2187*
X2488Y2098D02*
Y2177D01*
X2263Y2236D02*
X2429D01*
X2488Y2177*
X2291Y2559D02*
Y2641D01*
X2246Y2687D02*
X2291Y2641D01*
X1889Y2940D02*
X1952D01*
X1860Y2970D02*
Y3018D01*
Y2970D02*
X1889Y2940D01*
X1893Y2964D02*
X1933D01*
X1879Y2978D02*
Y3018D01*
Y2978D02*
X1893Y2964D01*
X2062Y2921D02*
X2076Y2935D01*
Y3018*
X2056Y2957D02*
Y3017D01*
X2027Y2929D02*
X2056Y2957D01*
X1988Y2929D02*
X2037Y2978D01*
Y3018*
X1885Y3098D02*
X1899Y3084D01*
Y3018D02*
Y3084D01*
X1763Y2460D02*
Y2582D01*
X1736Y2444D02*
X1811Y2370D01*
X1736Y2444D02*
Y2645D01*
X1811Y2370D02*
X2129D01*
X2114Y2889D02*
X2136D01*
X2142Y2883*
X2191*
X2106Y2838D02*
X2128D01*
X2134Y2844*
X2191*
X2151Y2805D02*
X2191D01*
X2129Y2783D02*
X2151Y2805D01*
X2240Y2811D02*
X2279D01*
X2234Y2805D02*
X2240Y2811D01*
X2191Y2805D02*
X2234D01*
X1799Y2618D02*
Y2657D01*
X1763Y2582D02*
X1799Y2618D01*
X2056Y3017D02*
X2057Y3018D01*
X1852Y2765D02*
X1937Y2681D01*
X1738Y2647D02*
X1745D01*
X1736Y2645D02*
X1738Y2647D01*
X1789Y2667D02*
X1799Y2657D01*
X1745Y2667D02*
X1789D01*
X2066Y3106D02*
X2094Y3078D01*
X1948Y3185D02*
X2027Y3106D01*
X2066*
X2151Y2903D02*
X2191D01*
X2141Y2913D02*
Y3078D01*
Y2913D02*
X2151Y2903D01*
X1897Y2074D02*
D01*
Y2194*
X2094Y2074D02*
Y2094D01*
X2157Y2157D02*
X2192D01*
X2094Y2094D02*
X2157Y2157D01*
X2094Y2074D02*
D01*
X3180Y1991D02*
X3181D01*
X3168Y1980D02*
X3180Y1991D01*
X3149Y1980D02*
X3168D01*
X1745Y2765D02*
X1852D01*
X2925Y2397D02*
X3078Y2244D01*
X2191Y2500D02*
X2295Y2397D01*
X2925*
X2129Y2370D02*
X2263Y2236D01*
X1980Y2393D02*
X2149D01*
X2240Y2303*
X2177Y2417D02*
X2192Y2401D01*
X2011Y2417D02*
X2177D01*
X2196Y2440D02*
X2275Y2362D01*
X1919Y2454D02*
X1980Y2393D01*
X1938Y2490D02*
X2011Y2417D01*
X1938Y2490D02*
Y2571D01*
X1919Y2454D02*
Y2571D01*
X1618Y2923D02*
X1619Y2922D01*
X1669*
X1618Y3029D02*
X1619Y3030D01*
X1669*
X1669*
X1692Y3007*
Y2921D02*
Y3007D01*
Y2921D02*
X1710Y2903D01*
X1745*
X1707Y2883D02*
X1745D01*
X1669Y2922D02*
X1707Y2883D01*
X1669Y2922D02*
X1669D01*
X1702Y2844D02*
X1745D01*
X1688Y2830D02*
X1702Y2844D01*
X1688Y2791D02*
Y2830D01*
X1618Y2775D02*
X1673D01*
X1688Y2791*
X1687Y2864D02*
X1745D01*
X1681Y2870D02*
X1687Y2864D01*
X1618Y2870D02*
X1681D01*
X2191Y2500D02*
Y2647D01*
Y2687D02*
X2246D01*
X2291Y2074D02*
Y2098D01*
X1899Y2525D02*
Y2571D01*
X1889Y2515D02*
X1899Y2525D01*
X3078Y2098D02*
Y2244D01*
X1700Y2074D02*
D01*
Y2098D01*
X2291Y2074D02*
D01*
X2488D02*
D01*
Y2098D01*
X2685Y2074D02*
D01*
Y2098D01*
X2881Y2074D02*
D01*
Y2098D01*
X3078Y2074D02*
Y2098D01*
X3149Y2003D02*
X3149Y2003D01*
X3149Y1980D02*
Y2003D01*
X3149Y1980D02*
X3149Y1980D01*
X3078Y2031D02*
Y2074D01*
X2881Y2031D02*
Y2074D01*
X2685Y2031D02*
Y2074D01*
X2488Y2031D02*
Y2074D01*
X2291Y2031D02*
Y2074D01*
X2094Y2031D02*
Y2074D01*
X1897Y2031D02*
Y2074D01*
X1700Y2031D02*
Y2074D01*
X1897Y1991D02*
X1898D01*
X1910Y2003*
X1928*
X1700Y1991D02*
X1701D01*
X1713Y2003*
X1731*
X2685Y1991D02*
X2686D01*
X2698Y2003*
X2716*
X2488Y1991D02*
X2489D01*
X2501Y2003*
X2519*
X2291Y1991D02*
X2292D01*
X2304Y2003*
X2322*
X2094Y1991D02*
X2095D01*
X2107Y2003*
X2125*
X1714Y1946D02*
Y1979D01*
X1701Y1991D02*
X1714Y1979D01*
X1911Y1946D02*
Y1979D01*
X1898Y1991D02*
X1911Y1979D01*
X2108Y1946D02*
Y1979D01*
X2095Y1991D02*
X2108Y1979D01*
X2305Y1946D02*
Y1979D01*
X2292Y1991D02*
X2305Y1979D01*
X2501Y1946D02*
Y1979D01*
X2489Y1991D02*
X2501Y1979D01*
X2698Y1946D02*
Y1979D01*
X2686Y1991D02*
X2698Y1979D01*
X2895Y1946D02*
Y1979D01*
X2882Y1991D02*
X2895Y1979D01*
X2881Y1991D02*
X2882D01*
X2895Y2003*
X2913*
X3078Y1991D02*
X3079D01*
X3091Y2003*
X3109*
X3079Y1991D02*
X3085Y1985D01*
Y1984D02*
Y1985D01*
Y1984D02*
X3092Y1978D01*
Y1946D02*
Y1978D01*
X1753Y1909D02*
Y1946D01*
X1734Y1889D02*
X1753Y1909D01*
X1724Y1889D02*
X1734D01*
X1950Y1909D02*
Y1946D01*
X1931Y1889D02*
X1950Y1909D01*
X1921Y1889D02*
X1931D01*
X2147Y1909D02*
Y1946D01*
X2127Y1889D02*
X2147Y1909D01*
X2118Y1889D02*
X2127D01*
X2344Y1909D02*
Y1946D01*
X2324Y1889D02*
X2344Y1909D01*
X2314Y1889D02*
X2324D01*
X2541Y1909D02*
Y1946D01*
X2521Y1889D02*
X2541Y1909D01*
X2511Y1889D02*
X2521D01*
X2738Y1909D02*
Y1946D01*
X2718Y1889D02*
X2738Y1909D01*
X2708Y1889D02*
X2718D01*
X2935Y1909D02*
Y1946D01*
X2915Y1889D02*
X2935Y1909D01*
X2905Y1889D02*
X2915D01*
X3131Y1909D02*
Y1946D01*
X3112Y1889D02*
X3131Y1909D01*
X3102Y1889D02*
X3112D01*
X2846Y2751D02*
D01*
X2472Y2791D02*
D01*
X2440D02*
X2472D01*
X2511Y2793D02*
Y2798D01*
X2509Y2791D02*
X2511Y2793D01*
X2472Y2791D02*
X2509D01*
X2068Y3332D02*
X2093Y3307D01*
X2141*
X1868Y3332D02*
X1893Y3357D01*
Y3385*
X1918Y3246D02*
X1948Y3216D01*
Y3185D02*
Y3216D01*
X1918Y3246D02*
Y3282D01*
X1976Y3239D02*
X2018Y3282D01*
X1976Y3185D02*
Y3239D01*
X2527Y2580D02*
Y2629D01*
Y2580D02*
X2529Y2578D01*
X2531Y2656D02*
Y2682D01*
X2527Y2653D02*
X2531Y2656D01*
X2527Y2629D02*
Y2653D01*
X2901Y2581D02*
Y2629D01*
X2899Y2578D02*
X2901Y2581D01*
X2905Y2656D02*
Y2682D01*
X2901Y2653D02*
X2905Y2656D01*
X2901Y2629D02*
Y2653D01*
X2814Y2791D02*
D01*
X2846*
X2885Y2793D02*
Y2798D01*
X2883Y2791D02*
X2885Y2793D01*
X2846Y2791D02*
X2883D01*
X2905Y2798D02*
X2905Y2798D01*
X1675Y1832D02*
X1694D01*
X1658Y1815D02*
X1675Y1832D01*
X1657Y1815D02*
X1658D01*
X1714Y1794D02*
Y1832D01*
X1704Y1784D02*
X1714Y1794D01*
X1704Y1783D02*
Y1784D01*
X1734Y1794D02*
Y1832D01*
Y1794D02*
X1744Y1784D01*
Y1783D02*
Y1784D01*
X1753Y1832D02*
X1772D01*
X1790Y1815*
X1791*
X1872Y1832D02*
X1891D01*
X1855Y1815D02*
X1872Y1832D01*
X1854Y1815D02*
X1855D01*
X1911Y1794D02*
Y1832D01*
X1901Y1784D02*
X1911Y1794D01*
X1901Y1783D02*
Y1784D01*
X1931Y1794D02*
Y1832D01*
Y1794D02*
X1941Y1784D01*
Y1783D02*
Y1784D01*
X1950Y1832D02*
X1969D01*
X1987Y1815*
X1988*
X2069Y1832D02*
X2088D01*
X2052Y1815D02*
X2069Y1832D01*
X2051Y1815D02*
X2052D01*
X2108Y1794D02*
Y1832D01*
X2098Y1784D02*
X2108Y1794D01*
X2098Y1783D02*
Y1784D01*
X2127Y1794D02*
Y1832D01*
Y1794D02*
X2138Y1784D01*
Y1783D02*
Y1784D01*
X2147Y1832D02*
X2166D01*
X2184Y1815*
X2185*
X2266Y1832D02*
X2285D01*
X2249Y1815D02*
X2266Y1832D01*
X2248Y1815D02*
X2249D01*
X2305Y1794D02*
Y1832D01*
X2294Y1784D02*
X2305Y1794D01*
X2294Y1783D02*
Y1784D01*
X2324Y1794D02*
Y1832D01*
Y1794D02*
X2334Y1784D01*
Y1783D02*
Y1784D01*
X2344Y1832D02*
X2363D01*
X2380Y1815*
X2381*
X2444D02*
X2445D01*
X2463Y1832*
X2482*
X2501Y1794D02*
Y1832D01*
X2491Y1784D02*
X2501Y1794D01*
X2491Y1783D02*
Y1784D01*
X2521Y1794D02*
Y1832D01*
Y1794D02*
X2531Y1784D01*
Y1783D02*
Y1784D01*
X2541Y1832D02*
X2560D01*
X2577Y1815*
X2578*
X2718Y1794D02*
Y1832D01*
Y1794D02*
X2728Y1784D01*
Y1783D02*
Y1784D01*
X2698Y1794D02*
Y1832D01*
X2688Y1784D02*
X2698Y1794D01*
X2688Y1783D02*
Y1784D01*
X2660Y1832D02*
X2679D01*
X2642Y1815D02*
X2660Y1832D01*
X2641Y1815D02*
X2642D01*
X2774D02*
X2775D01*
X2757Y1832D02*
X2774Y1815D01*
X2738Y1832D02*
X2757D01*
X2915Y1794D02*
Y1832D01*
Y1794D02*
X2925Y1784D01*
Y1783D02*
Y1784D01*
X2895Y1794D02*
Y1832D01*
X2885Y1784D02*
X2895Y1794D01*
X2885Y1783D02*
Y1784D01*
X2838Y1815D02*
X2839D01*
X2856Y1832*
X2875*
X2971Y1815D02*
X2972D01*
X2954Y1832D02*
X2971Y1815D01*
X2935Y1832D02*
X2954D01*
X3168Y1815D02*
X3169D01*
X3150Y1832D02*
X3168Y1815D01*
X3131Y1832D02*
X3150D01*
X3035Y1815D02*
X3036D01*
X3053Y1832*
X3072*
X3112Y1794D02*
Y1832D01*
Y1794D02*
X3122Y1784D01*
Y1783D02*
Y1784D01*
X3092Y1794D02*
Y1832D01*
X3082Y1784D02*
X3092Y1794D01*
X3082Y1783D02*
Y1784D01*
G54D90*
X1433Y3251D02*
X1433D01*
X1468*
X1468Y3251*
X1387Y3251D02*
X1433D01*
X1380Y3257D02*
X1387Y3251D01*
X3055Y1948D02*
X3072D01*
X2858D02*
X2875D01*
X2661D02*
X2679D01*
X2464D02*
X2482D01*
X2267D02*
X2285D01*
X2070D02*
X2088D01*
X1874D02*
X1891D01*
X1677D02*
X1694D01*
X1822Y2846D02*
Y2870D01*
X1801Y2824D02*
X1822Y2846D01*
X1290Y2267D02*
X1318D01*
X1289D02*
X1290D01*
X1278Y2278D02*
X1289Y2267D01*
X1278Y2278D02*
Y2307D01*
X1277Y2352D02*
X1278Y2352D01*
Y2307D02*
Y2352D01*
Y2307D02*
X1278Y2307D01*
X1204Y1948D02*
D01*
Y1968D02*
D01*
X1296Y3435D02*
D01*
Y3346D02*
Y3435D01*
Y3257D02*
D01*
Y3346D01*
X1380Y3257D02*
Y3435D01*
X2068Y3278D02*
Y3282D01*
Y3278D02*
X2081Y3265D01*
Y3261D02*
Y3265D01*
Y3261D02*
X2082Y3259D01*
X1998Y3018D02*
Y3057D01*
X2023Y3082D02*
X2055D01*
X1998Y3057D02*
X2023Y3082D01*
X1149Y2488D02*
X1166D01*
X1240Y2352D02*
Y2389D01*
X1277Y2352D02*
Y2442D01*
X1745Y2824D02*
X1801D01*
X1694Y1946D02*
Y1948D01*
X1891Y1946D02*
Y1948D01*
X2088Y1946D02*
Y1948D01*
X2285Y1946D02*
Y1948D01*
X2482Y1946D02*
Y1948D01*
X2679Y1946D02*
Y1948D01*
X2875Y1946D02*
Y1948D01*
X3072Y1946D02*
Y1948D01*
G54D91*
X1160Y1751D02*
X1164Y1748D01*
X1176Y1712D02*
X1181D01*
X1164Y1748D02*
X1181D01*
Y1712D02*
Y1748D01*
X1203Y1948D02*
X1204Y1948D01*
X1181Y1948D02*
X1203D01*
X1168Y1917D02*
X1169D01*
X1176Y1924*
Y1925*
X1177Y1926*
Y1944D02*
X1181Y1948D01*
X1177Y1926D02*
Y1944D01*
X1007Y2152D02*
X1008Y2153D01*
X1007Y2129D02*
Y2152D01*
Y2092D02*
Y2129D01*
X2263Y3446D02*
X2303D01*
X2224D02*
X2263D01*
X1204Y1948D02*
Y1968D01*
X1202Y2439D02*
Y2442D01*
X1199Y2437D02*
X1202Y2439D01*
X1177Y2437D02*
X1199D01*
X1202Y2442D02*
Y2486D01*
X1203Y2487*
Y2488*
X1202Y1868D02*
X1204Y1870D01*
Y1889*
Y1910D02*
D01*
Y1889D02*
Y1910D01*
X1803Y1972D02*
Y1991D01*
X1771Y1980D02*
Y2003D01*
X1771Y1980D02*
X1771Y1980D01*
X2000Y1972D02*
Y1991D01*
X1968Y1980D02*
Y2003D01*
X1968Y1980D02*
X1968Y1980D01*
X2196Y1972D02*
Y1991D01*
X2165Y1980D02*
Y2003D01*
X2165Y1980D02*
X2165Y1980D01*
X2393Y1972D02*
Y1991D01*
X2362Y1980D02*
Y2003D01*
X2362Y1980D02*
X2362Y1980D01*
X2590Y1972D02*
Y1991D01*
X2559Y1980D02*
Y2003D01*
X2559Y1980D02*
X2559Y1980D01*
X2787Y1972D02*
Y1991D01*
X2756Y1980D02*
Y2003D01*
X2755Y1980D02*
X2756Y1980D01*
X2984Y1972D02*
Y1991D01*
X2952Y2003D02*
X2953Y2003D01*
X2952Y1980D02*
Y2003D01*
G54D92*
X1716Y3018D02*
X1729D01*
X1740Y3007*
X3080Y3049D02*
Y3159D01*
X3113Y2877D02*
Y3016D01*
X3080Y3049D02*
X3113Y3016D01*
X1657Y1729D02*
X1666Y1720D01*
X2935Y1536D02*
X2948D01*
X2963Y1664D02*
Y1720D01*
X2950Y1652D02*
X2963Y1664D01*
X2948Y1652D02*
X2950D01*
X2766Y1664D02*
Y1720D01*
X2754Y1652D02*
X2766Y1664D01*
X2751Y1652D02*
X2754D01*
X2569Y1664D02*
Y1720D01*
X2557Y1652D02*
X2569Y1664D01*
X2555Y1652D02*
X2557D01*
X2372Y1664D02*
Y1720D01*
X2360Y1652D02*
X2372Y1664D01*
X2358Y1652D02*
X2360D01*
X2175Y1664D02*
Y1720D01*
X2163Y1652D02*
X2175Y1664D01*
X2161Y1652D02*
X2163D01*
X1978Y1664D02*
Y1720D01*
X1966Y1652D02*
X1978Y1664D01*
X1964Y1652D02*
X1966D01*
X1781Y1664D02*
Y1720D01*
X1769Y1652D02*
X1781Y1664D01*
X1767Y1652D02*
X1769D01*
X1657Y1775D02*
D01*
Y1729D02*
Y1775D01*
X1781Y1720D02*
X1791Y1729D01*
Y1775D02*
Y1775D01*
Y1729D02*
Y1775D01*
X1854Y1729D02*
X1863Y1720D01*
X1854Y1729D02*
Y1759D01*
Y1775D01*
Y1759D02*
D01*
X1978Y1720D02*
X1988Y1729D01*
Y1775D02*
Y1775D01*
Y1729D02*
Y1775D01*
X2051Y1729D02*
X2060Y1720D01*
X2051Y1729D02*
Y1759D01*
Y1775D01*
Y1759D02*
D01*
X2185Y1729D02*
Y1775D01*
X2175Y1720D02*
X2185Y1729D01*
Y1775D02*
Y1775D01*
X2248Y1729D02*
X2257Y1720D01*
X2248Y1729D02*
Y1759D01*
Y1775D01*
Y1759D02*
D01*
X2372Y1720D02*
X2381Y1729D01*
Y1759*
Y1775D01*
Y1759D02*
D01*
X2444Y1729D02*
X2454Y1720D01*
X2444Y1729D02*
Y1759D01*
Y1775D01*
Y1759D02*
D01*
X2569Y1720D02*
X2578Y1729D01*
Y1759*
Y1775D01*
Y1759D02*
D01*
X2641Y1729D02*
X2651Y1720D01*
X2641Y1729D02*
Y1759D01*
Y1775D01*
Y1759D02*
D01*
X2766Y1720D02*
X2775Y1729D01*
Y1775D02*
Y1775D01*
Y1729D02*
Y1775D01*
X2838Y1729D02*
X2847Y1720D01*
X2838Y1729D02*
Y1759D01*
Y1775D01*
Y1759D02*
D01*
X2963Y1720D02*
X2972Y1729D01*
Y1759*
Y1775D01*
Y1759D02*
D01*
X3035Y1729D02*
X3044Y1720D01*
X3035Y1729D02*
Y1759D01*
Y1775D01*
Y1759D02*
D01*
X3159Y1720D02*
X3169Y1729D01*
Y1759*
Y1775D01*
Y1759D02*
D01*
X3159Y1664D02*
Y1720D01*
X3147Y1652D02*
X3159Y1664D01*
X3145Y1652D02*
X3147D01*
G54D93*
X1618Y2814D02*
X1661D01*
X1574D02*
X1618D01*
X1188Y2145D02*
X1190Y2143D01*
Y2126D02*
Y2143D01*
Y2126D02*
X1190Y2125D01*
Y2092D02*
Y2125D01*
X1157Y2145D02*
D01*
Y2125D02*
Y2145D01*
X1153Y1614D02*
X1279Y1740D01*
Y1980*
X964Y1614D02*
X1153D01*
X1045Y2152D02*
X1046Y2153D01*
X1045Y2130D02*
Y2152D01*
X1045Y2129D02*
X1045Y2130D01*
X1045Y2092D02*
Y2129D01*
X1918Y3332D02*
Y3362D01*
X1868Y3282D02*
X1889Y3260D01*
Y3244D02*
Y3260D01*
X2787Y2271D02*
Y2291D01*
X2818Y2271D02*
Y2291D01*
X2850Y2271D02*
Y2291D01*
X2881Y2271D02*
Y2291D01*
X1952Y3266D02*
X1968Y3282D01*
X1952Y3251D02*
Y3266D01*
G54D94*
X2433Y2733D02*
Y2754D01*
X1116Y2092D02*
Y2129D01*
X2774Y1214D02*
X2996Y1437D01*
X3090D02*
X3145Y1492D01*
X2996Y1437D02*
X3090D01*
X2094Y2271D02*
Y2291D01*
Y2271D02*
D01*
X2062D02*
Y2291D01*
X2031Y2271D02*
Y2291D01*
X2000Y2271D02*
Y2291D01*
X2774Y1161D02*
Y1214D01*
X3145Y1492D02*
Y1536D01*
X2948Y1468D02*
X3000D01*
X3044Y1513D02*
Y1720D01*
X3000Y1468D02*
X3044Y1513D01*
X2674Y1161D02*
Y1272D01*
X2935Y1536D02*
X2938D01*
X2920Y1521D02*
X2935Y1536D01*
X2920Y1519D02*
Y1521D01*
X2674Y1272D02*
X2920Y1519D01*
X2474Y1161D02*
Y1355D01*
X2555Y1437D02*
Y1536D01*
X2474Y1355D02*
X2555Y1437D01*
X2174Y1161D02*
Y1278D01*
X1964Y1488D02*
Y1536D01*
Y1488D02*
X2174Y1278D01*
X2224Y1111D02*
Y1303D01*
X2060Y1467D02*
Y1720D01*
Y1467D02*
X2224Y1303D01*
X2161Y1433D02*
Y1536D01*
X2274Y1161D02*
Y1320D01*
X2161Y1433D02*
X2274Y1320D01*
X1666Y1537D02*
Y1720D01*
Y1537D02*
X2007Y1196D01*
Y1127D02*
X2074Y1061D01*
X2007Y1127D02*
Y1196D01*
X2074Y1161D02*
Y1221D01*
X1792Y1502D02*
X2074Y1221D01*
X1767Y1536D02*
X1777D01*
X1792Y1521*
Y1502D02*
Y1521D01*
X2122Y1113D02*
Y1255D01*
X1863Y1514D02*
Y1720D01*
Y1514D02*
X2122Y1255D01*
Y1113D02*
X2174Y1061D01*
X2224Y1111D02*
X2274Y1061D01*
X2257Y1415D02*
Y1720D01*
Y1415D02*
X2322Y1350D01*
Y1112D02*
Y1350D01*
Y1112D02*
X2374Y1061D01*
X2358Y1389D02*
Y1536D01*
Y1389D02*
X2374Y1374D01*
Y1161D02*
Y1374D01*
X2454Y1422D02*
Y1720D01*
X2425Y1393D02*
X2454Y1422D01*
X2425Y1110D02*
Y1393D01*
Y1110D02*
X2474Y1061D01*
X2651Y1454D02*
Y1720D01*
X2523Y1326D02*
X2651Y1454D01*
X2523Y1111D02*
Y1326D01*
Y1111D02*
X2574Y1061D01*
X2751Y1488D02*
Y1536D01*
X2574Y1310D02*
X2751Y1488D01*
X2574Y1161D02*
Y1310D01*
X2847Y1517D02*
Y1720D01*
X2622Y1291D02*
X2847Y1517D01*
X2622Y1113D02*
Y1291D01*
Y1113D02*
X2674Y1061D01*
X2724Y1244D02*
X2948Y1468D01*
X2724Y1111D02*
Y1244D01*
Y1111D02*
X2774Y1061D01*
G54D95*
X1023Y2834D02*
X1318D01*
G54D96*
X3080Y3159D03*
Y3257D03*
X1023Y2933D03*
Y3031D03*
Y3129D03*
G54D97*
X3080Y3356D03*
X1023Y2834D03*
G54D98*
X1003Y3385D03*
X2755Y3106D03*
X3102Y1318D03*
X1003Y1102D03*
G54D99*
X1317Y1141D03*
G54D100*
X1317Y1241D03*
X1417Y1141D03*
Y1241D03*
X1517Y1141D03*
Y1241D03*
X1617Y1141D03*
Y1241D03*
X1717Y1141D03*
Y1241D03*
G54D101*
X964Y1714D03*
G54D102*
X964Y1614D03*
Y1514D03*
G54D103*
X2118Y3267D03*
Y3347D03*
X1818Y3307D03*
G54D104*
X1818Y3407D03*
X2043Y3207D03*
Y3407D03*
X1818Y3207D03*
G54D105*
X1673Y3366D03*
X1573D03*
X2874Y1061D03*
X2774Y1161D03*
Y1061D03*
X2674Y1161D03*
Y1061D03*
X2574Y1161D03*
Y1061D03*
X2474Y1161D03*
Y1061D03*
X2374Y1161D03*
Y1061D03*
X2274Y1161D03*
Y1061D03*
X2174Y1161D03*
Y1061D03*
X2074Y1161D03*
Y1061D03*
G54D106*
X1473Y3366D03*
X2874Y1161D03*
G54D107*
X2551Y2720D03*
X2519Y2740D03*
X2582D03*
X2551Y2759D03*
X2925Y2720D03*
X2893Y2740D03*
X2956D03*
X2925Y2759D03*
G54D108*
X2824Y2097D03*
Y2066D03*
X1846Y3063D03*
X2088Y2863D03*
X1984Y2640D03*
X1937D03*
X2883Y2885D03*
X2928Y2185D03*
X2261Y2765D03*
X2249Y2791D03*
X2273Y2739D03*
X2249Y2711D03*
X2485Y2920D03*
X2468Y2819D03*
X2433D03*
X2485Y2849D03*
X2509Y2889D03*
X2251D03*
X1573Y3231D03*
X1468Y3251D03*
X2137Y2295D03*
X1181Y1748D03*
X1574Y2814D03*
X1661D03*
X1740Y3007D03*
X2433Y2732D03*
X2807D03*
X2657Y3051D03*
X2608D03*
X2559D03*
X2608Y3100D03*
X2657D03*
X2608Y3151D03*
X2657D03*
X1433Y2708D03*
X1460D03*
X1535Y2547D03*
X1507Y2570D03*
X1606Y2598D03*
X1220Y2283D03*
X3141Y2952D03*
Y3001D03*
X3090D03*
Y2952D03*
X2704Y3232D03*
X2805Y3200D03*
Y3250D03*
X2559Y3151D03*
X2509D03*
X2460D03*
Y3200D03*
X2509D03*
Y3250D03*
X2460D03*
X2165Y2214D03*
Y2263D03*
X2125Y2322D03*
X1870Y2411D03*
X1820D03*
X1879Y2627D03*
X2027Y2637D03*
X2116Y2647D03*
Y2716D03*
Y2952D03*
X2185Y2972D03*
X1919Y2903D03*
X1860Y2844D03*
X3001Y1870D03*
X2805D03*
X2608D03*
X2411D03*
X2214D03*
X2017D03*
X1820D03*
Y1919D03*
X2017D03*
X2214D03*
X2411D03*
X2608D03*
X3001D03*
X2805D03*
X1840Y2066D03*
X2037D03*
X2234D03*
X2431D03*
X2627D03*
X3021D03*
X3100Y2253D03*
X1564Y3051D03*
Y3001D03*
Y2952D03*
X1525D03*
X1476D03*
X1525Y3001D03*
X1968Y3444D03*
X1919D03*
X1968Y3395D03*
X2165D03*
Y3444D03*
X2116D03*
Y3395D03*
X2531Y2920D03*
X2657Y2755D03*
X2706D03*
X3188Y2362D03*
Y2411D03*
Y2460D03*
Y2509D03*
Y2559D03*
Y2608D03*
Y2657D03*
Y2706D03*
Y2755D03*
X3100Y2805D03*
X3149D03*
X3188D03*
Y2854D03*
Y2903D03*
Y2952D03*
Y3001D03*
X3100Y2706D03*
X3149D03*
Y2657D03*
Y2608D03*
X3001Y2263D03*
X2952Y2312D03*
X3051Y2391D03*
X3149Y2293D03*
X3100Y2342D03*
X3149Y2411D03*
Y2460D03*
X3051Y2470D03*
X3001D03*
X3100D03*
X2706D03*
X2755D03*
X2805D03*
X2854D03*
X2903D03*
Y2509D03*
X2854D03*
X2805D03*
X2755Y2608D03*
Y2657D03*
X2805D03*
X2755Y2706D03*
Y2755D03*
X3001D03*
X3051D03*
X3100D03*
X3149D03*
X3051Y3001D03*
Y2952D03*
X2913Y2928D03*
X2312Y3149D03*
X2362D03*
X2411D03*
X2559Y3100D03*
X2509D03*
X2460D03*
X2411D03*
X2362D03*
X2312D03*
X2263D03*
X2214D03*
X2165D03*
Y3051D03*
X2214D03*
X2263D03*
X2312D03*
X2362D03*
X2411D03*
X2460D03*
X2509D03*
Y3001D03*
X2460D03*
X2362Y2952D03*
X2312Y2903D03*
X2368Y2826D03*
X2411Y2854D03*
Y2903D03*
X2362D03*
X2244Y2657D03*
Y2559D03*
Y2608D03*
X2322D03*
Y2559D03*
Y2509D03*
Y2480D03*
X2214Y2381D03*
X2263Y2332D03*
X2312D03*
X2362D03*
X2411D03*
X2706Y2214D03*
X2509Y2165D03*
X2559D03*
X2608Y2214D03*
X2559D03*
X2509D03*
X2411D03*
Y2165D03*
X2362D03*
Y2214D03*
X2312D03*
Y2165D03*
X2263D03*
X2214Y2214D03*
X2263D03*
Y2263D03*
X2312D03*
X2362D03*
X2460D03*
X2411D03*
X2942Y1062D03*
Y1151D03*
Y1279D03*
Y1210D03*
X3179Y1240D03*
Y1397D03*
X1870Y1181D03*
X1919Y1131D03*
Y1082D03*
Y1033D03*
X1968D03*
X1328Y1820D03*
X1377D03*
X1574Y1938D03*
Y1860D03*
Y1820D03*
Y1771D03*
Y1722D03*
Y1673D03*
Y1624D03*
Y1574D03*
Y1525D03*
Y1476D03*
X1624Y1427D03*
X1673Y1279D03*
Y1181D03*
Y1377D03*
X1722Y1328D03*
X1771Y1279D03*
X1820Y1230D03*
Y1181D03*
X1771D03*
Y1230D03*
X1870Y1131D03*
Y1082D03*
Y1033D03*
X1820D03*
X1131D03*
X1181D03*
X1230D03*
X1279D03*
X1328D03*
X1377D03*
X1427D03*
X1476D03*
X1525D03*
X1574D03*
X1624D03*
X1673D03*
X1722D03*
X1771D03*
Y1082D03*
X1820D03*
Y1131D03*
X1771D03*
X1722Y1082D03*
X1673D03*
X1624D03*
X1574D03*
X1525D03*
X1476D03*
X1427D03*
X1377D03*
X1328D03*
X1279D03*
X1230D03*
X1181D03*
X1131D03*
Y1131D03*
X1181D03*
X1230D03*
X1279Y1427D03*
X1230D03*
X1131D03*
X1181D03*
X1131Y1377D03*
X1181D03*
X1230D03*
Y1328D03*
Y1279D03*
Y1181D03*
Y1230D03*
X1181Y1181D03*
X1131D03*
Y1230D03*
X1181D03*
X1131Y1279D03*
X1181D03*
Y1328D03*
X1131D03*
X935Y1181D03*
X1082D03*
X935Y1230D03*
X984D03*
X1033D03*
X1082D03*
Y1279D03*
X1033D03*
X984D03*
X935D03*
Y1328D03*
X984D03*
X1033D03*
X1082D03*
Y1377D03*
X1033D03*
X984D03*
X935D03*
Y1427D03*
X984D03*
X1082D03*
X1033D03*
Y1476D03*
X1082D03*
X1131D03*
X1181D03*
X1230D03*
X1279D03*
X1328D03*
X1377Y1525D03*
X1328D03*
X1279D03*
X1230D03*
X1181D03*
X1131D03*
X1082D03*
X1033D03*
Y1574D03*
X1082D03*
X1131D03*
X1181D03*
X1230Y1624D03*
Y1574D03*
X1279Y1584D03*
X1328Y1574D03*
X1377D03*
Y1624D03*
X1328D03*
X1279D03*
Y1673D03*
X1082Y1968D03*
X935D03*
X984Y1919D03*
X935D03*
Y1870D03*
Y1820D03*
X984D03*
Y1870D03*
X1033D03*
Y1820D03*
X1377Y1673D03*
X1328D03*
Y1722D03*
X1377D03*
Y1771D03*
X1328D03*
X1377Y1860D03*
X1328D03*
X1377Y1938D03*
X1328D03*
X1230Y2017D03*
Y2066D03*
Y2116D03*
Y2165D03*
Y2214D03*
X1279D03*
Y2165D03*
Y2116D03*
Y2017D03*
Y2066D03*
X1328D03*
Y2017D03*
X1377D03*
Y2066D03*
Y2116D03*
X1328Y2165D03*
Y2116D03*
X1574Y2066D03*
Y2017D03*
X1673D03*
X1624D03*
Y2066D03*
X1948Y2214D03*
X1870Y2165D03*
X1820D03*
X1771D03*
X1722D03*
Y2214D03*
X1870D03*
X1820D03*
X1771D03*
Y2263D03*
X1820D03*
X1919D03*
X1870D03*
Y2312D03*
X1820D03*
X1771Y2362D03*
Y2312D03*
X1722D03*
Y2263D03*
X1673Y2165D03*
Y2214D03*
Y2263D03*
Y2312D03*
Y2362D03*
X1722Y2411D03*
X1673D03*
X1624Y2362D03*
X1574Y2312D03*
Y2263D03*
Y2214D03*
Y2165D03*
X1624D03*
Y2214D03*
Y2263D03*
Y2312D03*
X1082Y3051D03*
X1131D03*
X1181D03*
X1230D03*
X1279D03*
X1328D03*
X1377D03*
X1338Y3238D03*
Y3454D03*
X1427Y3444D03*
X1476D03*
X1525D03*
X1574D03*
X1624D03*
X1673D03*
X1722D03*
X1525Y3297D03*
Y3248D03*
X1722Y3198D03*
X1673Y3179D03*
X1574D03*
X1525D03*
X1624D03*
X1771Y3297D03*
X1722Y3248D03*
Y3297D03*
X1624D03*
X1673D03*
Y3248D03*
X1230Y3346D03*
X1181D03*
Y3395D03*
X1230D03*
Y3444D03*
X1181D03*
X1131D03*
Y3395D03*
Y3346D03*
Y3297D03*
X1082D03*
X984Y3248D03*
X935D03*
X1033D03*
X1082D03*
X1131D03*
X1181Y3297D03*
X1230D03*
Y3248D03*
X1181D03*
X1476Y3149D03*
Y3198D03*
X1427D03*
X1377D03*
X1328D03*
X1279D03*
X1230D03*
X1181D03*
Y3149D03*
X1230D03*
X1279D03*
X1328D03*
X1377D03*
X1427D03*
Y3100D03*
X1377D03*
X1328D03*
X1279D03*
X1230D03*
X1181D03*
X1082Y2982D03*
X1131D03*
X1328D03*
X1279D03*
X1230D03*
X1181D03*
X935Y2903D03*
X1082D03*
X1131D03*
X1279D03*
X1230D03*
X1181D03*
X1525Y2755D03*
X1476D03*
X1427D03*
X1377Y2706D03*
X1328Y2509D03*
Y2362D03*
Y2411D03*
Y2460D03*
X1377D03*
Y2362D03*
Y2411D03*
X1427Y2362D03*
Y2411D03*
X1624Y2559D03*
X1574Y2509D03*
Y2559D03*
X1525Y2657D03*
X1476D03*
Y2608D03*
X1427D03*
Y2559D03*
Y2509D03*
X1377D03*
Y2559D03*
X1230D03*
X1279Y2608D03*
X1328Y2657D03*
X935Y2755D03*
X984D03*
X1033D03*
X1082D03*
X1131D03*
X1230D03*
X1181D03*
Y2706D03*
X935D03*
X984D03*
X1033D03*
X1082D03*
X1131D03*
X1033Y2608D03*
X984Y2559D03*
Y2608D03*
X935D03*
Y2559D03*
Y2509D03*
Y2460D03*
X984Y2509D03*
X1033Y2559D03*
X1082Y2608D03*
X1131Y2657D03*
X1082D03*
X1033D03*
X984D03*
X935D03*
X1102Y3129D03*
X1078D03*
X3090Y2614D03*
Y2645D03*
X2716D03*
Y2614D03*
X2066Y2622D03*
X2244Y2519D03*
X2291Y2559D03*
X2547Y2444D03*
X3070Y2421D03*
X1822Y2870D03*
X1157Y2125D03*
X1190D03*
X1116Y2129D03*
X1287Y1358D03*
X1385D03*
X1488D03*
X2062Y2921D03*
X2027Y2929D03*
X1988D03*
X1952Y2940D03*
X1933Y2964D03*
X1480Y2578D03*
X1940Y3102D03*
X1968Y3094D03*
X1996Y3090D03*
X1885Y3098D03*
X1763Y2460D03*
X1787Y2724D03*
X2114Y2889D03*
X2106Y2838D03*
X2118Y2811D03*
X2129Y2783D03*
X944Y2224D03*
X1960Y2622D03*
X1913D03*
X1279Y1980D03*
X1181Y1948D03*
X1045Y2129D03*
X1007D03*
X937Y2003D03*
X970Y2129D03*
X2106Y2232D03*
X2303Y3377D03*
Y3279D03*
X2185Y3326D03*
X2208D03*
X2232D03*
X2255D03*
X2279D03*
X2303Y3303D03*
Y3350D03*
Y3326D03*
X1204Y1968D03*
X1118Y2232D03*
X1296Y3346D03*
X1889Y3244D03*
X2055Y3082D03*
X2094Y3078D03*
X2141D03*
X1177Y2437D03*
X1078Y1830D03*
X1145D03*
X2037Y2097D03*
X2133Y2194D03*
X1897D03*
X2748Y2155D03*
X2090Y2125D03*
X1960Y2153D03*
X2913Y2125D03*
X1318Y2267D03*
X1220Y2307D03*
X1240Y2389D03*
X1169Y2232D03*
X1098Y2311D03*
Y2334D03*
X1204Y1889D03*
X3149Y2145D03*
X2748Y2216D03*
X3031Y1055D03*
X3185Y1031D03*
X3094Y1055D03*
X2562Y2602D03*
Y2578D03*
Y2555D03*
X2937Y2598D03*
Y2574D03*
Y2551D03*
X2905Y2330D03*
X2881Y2354D03*
X2850D03*
X2826D03*
X2094Y2346D03*
X2062D03*
X2031D03*
X2000D03*
X1988Y2232D03*
X2094Y2271D03*
X2062D03*
X2031D03*
X2000D03*
X2192Y2401D03*
X2881Y2271D03*
X2850D03*
X2818D03*
X2787D03*
X1799Y2472D03*
Y2503D03*
X2086Y2523D03*
X2129D03*
X2291Y2098D03*
X2192Y2157D03*
X1889Y2515D03*
X1814Y3059D03*
X1720Y2956D03*
X1669Y2976D03*
X2070Y2472D03*
X2141D03*
Y2503D03*
X2070D03*
X2232Y2944D03*
X1149Y2488D03*
X1700Y2098D03*
X2488D03*
X2685D03*
X2881D03*
X3078D03*
X2559Y1980D03*
X1734Y1972D03*
X1931D03*
X2127D03*
X2324D03*
X2521D03*
X2718D03*
X3112D03*
X2915D03*
X3149Y1980D03*
X2952D03*
X2755D03*
X2362D03*
X2165D03*
X1968D03*
X1771D03*
X1677Y1948D03*
X1874D03*
X2070D03*
X2267D03*
X2464D03*
X2661D03*
X2858D03*
X3055D03*
X1803Y1972D03*
X2000D03*
X2196D03*
X2393D03*
X2590D03*
X2787D03*
X2984D03*
X3154Y1889D03*
X3050D03*
X2957D03*
X2853D03*
X2760D03*
X2656D03*
X2563D03*
X2459D03*
X2367D03*
X2262D03*
X2170D03*
X2065D03*
X1973D03*
X1869D03*
X1672D03*
X1776D03*
X2562Y2653D03*
X2937D03*
X2141Y3307D03*
X1893Y3385D03*
X2082Y3259D03*
X2303Y3446D03*
X2224D03*
X2921Y2259D03*
Y2216D03*
X2870Y2681D03*
X2496D03*
X2692Y2811D03*
X2688Y2681D03*
Y2712D03*
X2472Y2732D03*
X2846D03*
X1535Y2811D03*
Y2858D03*
Y2834D03*
X1653Y2645D03*
X1685D03*
X1858Y2527D03*
X2250Y2967D03*
X2283Y2968D03*
X2338Y2811D03*
Y2842D03*
X2314Y2968D03*
X2283Y2889D03*
X2468Y2629D03*
X2448Y2614D03*
X2759Y2511D03*
Y2566D03*
Y2539D03*
X2842Y2629D03*
X2822Y2614D03*
X3133Y2511D03*
Y2566D03*
Y2539D03*
X3062Y2681D03*
Y2712D03*
X3149Y2850D03*
Y2905D03*
Y2877D03*
X3066Y2811D03*
X2775Y2850D03*
Y2905D03*
Y2877D03*
X1952Y3251D03*
X1918Y3362D03*
X2251Y3125D03*
X2196D03*
X2224D03*
X2759Y3232D03*
X2732D03*
X3157Y1192D03*
X3094D03*
X3031D03*
X2968D03*
X3157Y1114D03*
X3094D03*
X3031D03*
X2968D03*
M02*