%FSLAX23Y23*%
%MOIN*%
%SFA1B1*%

%IPPOS*%
%AMD75*
4,1,8,0.039900,0.000000,0.039900,0.000000,0.004900,0.035000,-0.004900,0.035000,-0.039900,0.000000,-0.039900,0.000000,-0.004900,-0.035000,0.004900,-0.035000,0.039900,0.000000,0.0*
1,1,0.069920,0.004900,0.000000*
1,1,0.069920,0.004900,0.000000*
1,1,0.069920,-0.004900,0.000000*
1,1,0.069920,-0.004900,0.000000*
%
%AMD76*
4,1,8,0.039900,-0.028400,0.039900,0.028400,0.033400,0.035000,-0.033400,0.035000,-0.039900,0.028400,-0.039900,-0.028400,-0.033400,-0.035000,0.033400,-0.035000,0.039900,-0.028400,0.0*
1,1,0.013040,0.033400,-0.028400*
1,1,0.013040,0.033400,0.028400*
1,1,0.013040,-0.033400,0.028400*
1,1,0.013040,-0.033400,-0.028400*
%
%AMD78*
4,1,8,-0.035000,0.028400,-0.035000,-0.028400,-0.028400,-0.035000,0.028400,-0.035000,0.035000,-0.028400,0.035000,0.028400,0.028400,0.035000,-0.028400,0.035000,-0.035000,0.028400,0.0*
1,1,0.013040,-0.028400,0.028400*
1,1,0.013040,-0.028400,-0.028400*
1,1,0.013040,0.028400,-0.028400*
1,1,0.013040,0.028400,0.028400*
%
%AMD81*
4,1,8,0.000000,0.035000,0.000000,0.035000,-0.035000,0.000000,-0.035000,0.000000,0.000000,-0.035000,0.000000,-0.035000,0.035000,0.000000,0.035000,0.000000,0.000000,0.035000,0.0*
1,1,0.069920,0.000000,0.000000*
1,1,0.069920,0.000000,0.000000*
1,1,0.069920,0.000000,0.000000*
1,1,0.069920,0.000000,0.000000*
%
%AMD84*
4,1,8,-0.035000,0.000000,-0.035000,0.000000,0.000000,-0.035000,0.000000,-0.035000,0.035000,0.000000,0.035000,0.000000,0.000000,0.035000,0.000000,0.035000,-0.035000,0.000000,0.0*
1,1,0.069920,0.000000,0.000000*
1,1,0.069920,0.000000,0.000000*
1,1,0.069920,0.000000,0.000000*
1,1,0.069920,0.000000,0.000000*
%
%AMD111*
4,1,8,-0.015000,-0.006400,0.015000,-0.006400,0.017700,-0.003700,0.017700,0.003700,0.015000,0.006400,-0.015000,0.006400,-0.017700,0.003700,-0.017700,-0.003700,-0.015000,-0.006400,0.0*
1,1,0.005460,-0.015000,-0.003700*
1,1,0.005460,0.015000,-0.003700*
1,1,0.005460,0.015000,0.003700*
1,1,0.005460,-0.015000,0.003700*
%
%AMD112*
4,1,8,-0.003700,-0.017700,0.003700,-0.017700,0.006400,-0.015000,0.006400,0.015000,0.003700,0.017700,-0.003700,0.017700,-0.006400,0.015000,-0.006400,-0.015000,-0.003700,-0.017700,0.0*
1,1,0.005460,-0.003700,-0.015000*
1,1,0.005460,0.003700,-0.015000*
1,1,0.005460,0.003700,0.015000*
1,1,0.005460,-0.003700,0.015000*
%
%ADD48R,0.022680X0.023460*%
%ADD50R,0.024990X0.022990*%
%ADD53R,0.023460X0.022680*%
G04~CAMADD=75~8~0.0~0.0~699.2~797.6~349.6~0.0~15~0.0~0.0~0.0~0.0~0~0.0~0.0~0.0~0.0~0~0.0~0.0~0.0~270.0~798.0~700.0*
%ADD75D75*%
G04~CAMADD=76~8~0.0~0.0~699.2~797.6~65.2~0.0~15~0.0~0.0~0.0~0.0~0~0.0~0.0~0.0~0.0~0~0.0~0.0~0.0~270.0~798.0~700.0*
%ADD76D76*%
%ADD77C,0.180160*%
G04~CAMADD=78~8~0.0~0.0~699.2~699.2~65.2~0.0~15~0.0~0.0~0.0~0.0~0~0.0~0.0~0.0~0.0~0~0.0~0.0~0.0~90.0~700.0~700.0*
%ADD78D78*%
%ADD79C,0.069920*%
%ADD80R,0.069920X0.069920*%
G04~CAMADD=81~8~0.0~0.0~699.2~699.2~349.6~0.0~15~0.0~0.0~0.0~0.0~0~0.0~0.0~0.0~0.0~0~0.0~0.0~0.0~0.0~699.2~699.2*
%ADD81D81*%
%ADD82C,0.041990*%
%ADD83C,0.096490*%
G04~CAMADD=84~8~0.0~0.0~699.2~699.2~349.6~0.0~15~0.0~0.0~0.0~0.0~0~0.0~0.0~0.0~0.0~0~0.0~0.0~0.0~90.0~700.0~699.0*
%ADD84D84*%
%ADD85R,0.069920X0.069920*%
%ADD86C,0.024650*%
G04~CAMADD=111~8~0.0~0.0~354.7~128.4~27.3~0.0~15~0.0~0.0~0.0~0.0~0~0.0~0.0~0.0~0.0~0~0.0~0.0~0.0~180.0~354.0~128.0*
%ADD111D111*%
G04~CAMADD=112~8~0.0~0.0~128.4~354.7~27.3~0.0~15~0.0~0.0~0.0~0.0~0~0.0~0.0~0.0~0.0~0~0.0~0.0~0.0~180.0~128.0~354.0*
%ADD112D112*%
%LNbenchy-voltmeter-pcb-1*%
%LPD*%
G54D48*
X1705Y1944D03*
X1743D03*
X1902D03*
X1940D03*
X2099D03*
X2137D03*
X2296D03*
X2333D03*
X2492D03*
X2530D03*
X2689D03*
X2727D03*
X2886D03*
X2924D03*
X3083D03*
X3121D03*
G54D50*
X1488Y1294D03*
Y1334D03*
X1385Y1294D03*
Y1334D03*
X1287Y1294D03*
Y1334D03*
X3157Y1173D03*
Y1133D03*
X2968Y1173D03*
Y1133D03*
X3031Y1173D03*
Y1133D03*
X3094Y1173D03*
Y1133D03*
G54D53*
X2137Y2278D03*
Y2240D03*
X2940Y2221D03*
Y2259D03*
G54D75*
X3080Y3159D03*
Y3257D03*
X1023Y2933D03*
Y3031D03*
Y3129D03*
G54D76*
X3080Y3356D03*
X1023Y2834D03*
G54D77*
X1003Y3385D03*
X2755Y3106D03*
X3102Y1318D03*
X1003Y1102D03*
G54D78*
X1317Y1141D03*
G54D79*
X1317Y1241D03*
X1417Y1141D03*
Y1241D03*
X1517Y1141D03*
Y1241D03*
X1617Y1141D03*
Y1241D03*
X1717Y1141D03*
Y1241D03*
G54D80*
X2834Y2185D03*
X2047D03*
X964Y1714D03*
G54D81*
X964Y1614D03*
Y1514D03*
G54D82*
X2118Y3267D03*
Y3347D03*
X1818Y3307D03*
G54D83*
X1818Y3407D03*
X2043Y3207D03*
Y3407D03*
X1818Y3207D03*
G54D84*
X1673Y3366D03*
X1573D03*
X2874Y1061D03*
X2774Y1161D03*
Y1061D03*
X2674Y1161D03*
Y1061D03*
X2574Y1161D03*
Y1061D03*
X2474Y1161D03*
Y1061D03*
X2374Y1161D03*
Y1061D03*
X2274Y1161D03*
Y1061D03*
X2174Y1161D03*
Y1061D03*
X2074Y1161D03*
Y1061D03*
G54D85*
X1473Y3366D03*
X2874Y1161D03*
G54D86*
X2551Y2720D03*
X2519Y2740D03*
X2582D03*
X2551Y2759D03*
X2925Y2720D03*
X2893Y2740D03*
X2956D03*
X2925Y2759D03*
G54D111*
X2892Y2214D03*
Y2194D03*
Y2175D03*
Y2155D03*
X2777D03*
Y2175D03*
Y2194D03*
Y2214D03*
X2104D03*
Y2194D03*
Y2175D03*
Y2155D03*
X1989D03*
Y2175D03*
Y2194D03*
Y2214D03*
G54D112*
X2864Y2127D03*
X2844D03*
X2824D03*
X2805D03*
Y2242D03*
X2824D03*
X2844D03*
X2864D03*
X2076Y2127D03*
X2057D03*
X2037D03*
X2017D03*
Y2242D03*
X2037D03*
X2057D03*
X2076D03*
M02*