%FSLAX23Y23*%
%MOIN*%
%SFA1B1*%

%IPPOS*%
%AMD15*
4,1,8,-0.012700,-0.005500,0.012700,-0.005500,0.013800,-0.004400,0.013800,0.004400,0.012700,0.005500,-0.012700,0.005500,-0.013800,0.004400,-0.013800,-0.004400,-0.012700,-0.005500,0.0*
1,1,0.002200,-0.012700,-0.004400*
1,1,0.002200,0.012700,-0.004400*
1,1,0.002200,0.012700,0.004400*
1,1,0.002200,-0.012700,0.004400*
%
%AMD16*
4,1,8,-0.005500,0.012700,-0.005500,-0.012700,-0.004400,-0.013800,0.004400,-0.013800,0.005500,-0.012700,0.005500,0.012700,0.004400,0.013800,-0.004400,0.013800,-0.005500,0.012700,0.0*
1,1,0.002200,-0.004400,0.012700*
1,1,0.002200,-0.004400,-0.012700*
1,1,0.002200,0.004400,-0.012700*
1,1,0.002200,0.004400,0.012700*
%
%AMD44*
4,1,8,-0.070900,0.000000,-0.070900,0.000000,-0.031500,-0.039400,0.031500,-0.039400,0.070900,0.000000,0.070900,0.000000,0.031500,0.039400,-0.031500,0.039400,-0.070900,0.000000,0.0*
1,1,0.078740,-0.031500,0.000000*
1,1,0.078740,-0.031500,0.000000*
1,1,0.078740,0.031500,0.000000*
1,1,0.078740,0.031500,0.000000*
%
%AMD45*
4,1,8,-0.070900,0.034600,-0.070900,-0.034600,-0.066100,-0.039400,0.066100,-0.039400,0.070900,-0.034600,0.070900,0.034600,0.066100,0.039400,-0.066100,0.039400,-0.070900,0.034600,0.0*
1,1,0.009440,-0.066100,0.034600*
1,1,0.009440,-0.066100,-0.034600*
1,1,0.009440,0.066100,-0.034600*
1,1,0.009440,0.066100,0.034600*
%
%AMD46*
4,1,8,0.000000,0.038400,0.000000,0.038400,-0.033500,0.004900,-0.033500,-0.004900,0.000000,-0.038400,0.000000,-0.038400,0.033500,-0.004900,0.033500,0.004900,0.000000,0.038400,0.0*
1,1,0.066940,0.000000,0.004900*
1,1,0.066940,0.000000,0.004900*
1,1,0.066940,0.000000,-0.004900*
1,1,0.066940,0.000000,-0.004900*
%
%AMD47*
4,1,8,0.028400,0.038400,-0.028400,0.038400,-0.033500,0.033400,-0.033500,-0.033400,-0.028400,-0.038400,0.028400,-0.038400,0.033500,-0.033400,0.033500,0.033400,0.028400,0.038400,0.0*
1,1,0.010040,0.028400,0.033400*
1,1,0.010040,-0.028400,0.033400*
1,1,0.010040,-0.028400,-0.033400*
1,1,0.010040,0.028400,-0.033400*
%
%ADD14R,0.157480X0.082680*%
G04~CAMADD=15~8~0.0~0.0~275.6~110.2~11.0~0.0~15~0.0~0.0~0.0~0.0~0~0.0~0.0~0.0~0.0~0~0.0~0.0~0.0~180.0~276.0~110.0*
%ADD15D15*%
G04~CAMADD=16~8~0.0~0.0~275.6~110.2~11.0~0.0~15~0.0~0.0~0.0~0.0~0~0.0~0.0~0.0~0.0~0~0.0~0.0~0.0~90.0~110.0~276.0*
%ADD16D16*%
%ADD17R,0.040000X0.055000*%
%ADD18R,0.040000X0.056000*%
%ADD19R,0.105000X0.045000*%
%ADD20R,0.055120X0.038390*%
%ADD21R,0.037400X0.031500*%
%ADD22R,0.035000X0.032280*%
%ADD40C,0.008660*%
%ADD41C,0.013780*%
%ADD42C,0.019680*%
%ADD43C,0.118110*%
G04~CAMADD=44~8~0.0~0.0~787.4~1417.3~393.7~0.0~15~0.0~0.0~0.0~0.0~0~0.0~0.0~0.0~0.0~0~0.0~0.0~0.0~90.0~1418.0~788.0*
%ADD44D44*%
G04~CAMADD=45~8~0.0~0.0~787.4~1417.3~47.2~0.0~15~0.0~0.0~0.0~0.0~0~0.0~0.0~0.0~0.0~0~0.0~0.0~0.0~90.0~1418.0~788.0*
%ADD45D45*%
G04~CAMADD=46~8~0.0~0.0~669.3~767.7~334.7~0.0~15~0.0~0.0~0.0~0.0~0~0.0~0.0~0.0~0.0~0~0.0~0.0~0.0~0.0~669.3~767.7*
%ADD46D46*%
G04~CAMADD=47~8~0.0~0.0~669.3~767.7~50.2~0.0~15~0.0~0.0~0.0~0.0~0~0.0~0.0~0.0~0.0~0~0.0~0.0~0.0~0.0~669.3~767.7*
%ADD47D47*%
%ADD48O,0.072840X0.255910*%
%ADD49O,0.255910X0.072840*%
%ADD50C,0.224410*%
%ADD51C,0.017720*%
%LNbenchy-relays-pcb-1*%
%LPD*%
G36*
X12500Y2539D02*
Y2055D01*
X12452Y2007*
X11968*
X11889Y2086*
Y2263*
X11830Y2322*
X11771*
X11653Y2204*
Y2007*
X11574*
Y2204*
X11456Y2322*
X10314*
X10196Y2204*
Y2007*
X10118*
Y2204*
X10000Y2322*
X8858*
X8740Y2204*
Y2007*
X8661*
Y2204*
X8543Y2322*
X7401*
X7283Y2204*
Y2007*
X7204*
Y2204*
X7086Y2322*
X5944*
X5826Y2204*
Y2007*
X5748*
Y2204*
X5629Y2322*
X4488*
X4370Y2204*
Y2007*
X4291*
Y2204*
X4173Y2322*
X3031*
X2913Y2204*
Y2007*
X2834*
Y2204*
X2716Y2322*
X1574*
X1456Y2204*
Y2007*
X1377*
Y2224*
X1259Y2342*
Y2795*
X1338Y2874*
X12165*
X12500Y2539*
G37*
G36*
X11181Y2007D02*
Y1771D01*
X11102Y1692*
X10380*
Y1784*
X10379Y1787*
X10379Y1790*
X10378Y1794*
X10378Y1797*
X10376Y1800*
X10375Y1803*
X10373Y1806*
X10372Y1808*
X10370Y1811*
X10367Y1813*
X10365Y1815*
X10362Y1817*
X10360Y1819*
X10357Y1821*
X10354Y1822*
X10351Y1823*
X10348Y1824*
X10345Y1825*
X10341Y1825*
X10338Y1825*
X10335Y1825*
X10332Y1825*
X10328Y1824*
X10325Y1823*
X10322Y1822*
X10319Y1821*
X10316Y1819*
X10314Y1817*
X10311Y1815*
X10309Y1813*
X10307Y1811*
X10305Y1808*
X10303Y1806*
X10301Y1803*
X10300Y1800*
X10299Y1797*
X10298Y1794*
X10297Y1790*
X10297Y1787*
X10297Y1784*
Y1692*
X10255*
Y1771*
X10255Y1775*
X10255Y1780*
X10254Y1784*
X10253Y1788*
X10252Y1790*
X10252Y1795*
X10251Y1800*
X10250Y1805*
X10249Y1810*
X10247Y1815*
X10245Y1821*
X10243Y1825*
X10241Y1830*
X10238Y1835*
X10235Y1839*
X10232Y1844*
X10228Y1848*
X10225Y1851*
X10221Y1855*
X10217Y1859*
X10212Y1862*
X10208Y1865*
X10203Y1868*
X10198Y1870*
X10194Y1872*
X10189Y1874*
X10183Y1876*
X10178Y1877*
X10173Y1878*
X10168Y1879*
X10162Y1879*
X10157Y1879*
X10152Y1879*
X10146Y1879*
X10141Y1878*
X10136Y1877*
X10131Y1876*
X10125Y1874*
X10120Y1872*
X10116Y1870*
X10111Y1868*
X10106Y1865*
X10102Y1862*
X10097Y1859*
X10093Y1855*
X10089Y1851*
X10086Y1848*
X10082Y1844*
X10079Y1839*
X10076Y1835*
X10073Y1830*
X10071Y1825*
X10069Y1821*
X10067Y1815*
X10065Y1810*
X10064Y1805*
X10063Y1800*
X10062Y1795*
X10062Y1790*
X10061Y1788*
X10060Y1784*
X10059Y1780*
X10059Y1775*
X10059Y1771*
Y1692*
X10016*
Y1784*
X10016Y1789*
X10016Y1795*
X10015Y1800*
X10014Y1805*
X10013Y1810*
X10011Y1815*
X10009Y1821*
X10007Y1825*
X10004Y1830*
X10002Y1835*
X9999Y1839*
X9995Y1844*
X9992Y1848*
X9988Y1851*
X9984Y1855*
X9980Y1859*
X9976Y1862*
X9972Y1865*
X9967Y1868*
X9962Y1870*
X9957Y1872*
X9952Y1874*
X9947Y1876*
X9942Y1877*
X9937Y1878*
X9931Y1879*
X9926Y1879*
X9921Y1879*
X9915Y1879*
X9910Y1879*
X9905Y1878*
X9900Y1877*
X9894Y1876*
X9889Y1874*
X9884Y1872*
X9879Y1870*
X9875Y1868*
X9870Y1865*
X9865Y1862*
X9861Y1859*
X9857Y1855*
X9853Y1851*
X9850Y1848*
X9846Y1844*
X9843Y1839*
X9840Y1835*
X9837Y1830*
X9835Y1825*
X9833Y1821*
X9831Y1815*
X9829Y1810*
X9828Y1805*
X9827Y1800*
X9826Y1795*
X9825Y1789*
X9825Y1784*
Y1692*
X8923*
Y1784*
X8923Y1787*
X8922Y1790*
X8922Y1794*
X8921Y1797*
X8920Y1800*
X8918Y1803*
X8917Y1806*
X8915Y1808*
X8913Y1811*
X8911Y1813*
X8908Y1815*
X8906Y1817*
X8903Y1819*
X8900Y1821*
X8897Y1822*
X8894Y1823*
X8891Y1824*
X8888Y1825*
X8885Y1825*
X8881Y1825*
X8878Y1825*
X8875Y1825*
X8872Y1824*
X8869Y1823*
X8866Y1822*
X8863Y1821*
X8860Y1819*
X8857Y1817*
X8854Y1815*
X8852Y1813*
X8850Y1811*
X8848Y1808*
X8846Y1806*
X8844Y1803*
X8843Y1800*
X8842Y1797*
X8841Y1794*
X8840Y1790*
X8840Y1787*
X8840Y1784*
Y1692*
X8799*
Y1771*
X8799Y1775*
X8798Y1780*
X8797Y1784*
X8796Y1788*
X8796Y1790*
X8795Y1795*
X8794Y1800*
X8793Y1805*
X8792Y1810*
X8790Y1815*
X8789Y1821*
X8786Y1825*
X8784Y1830*
X8781Y1835*
X8778Y1839*
X8775Y1844*
X8772Y1848*
X8768Y1851*
X8764Y1855*
X8760Y1859*
X8756Y1862*
X8751Y1865*
X8746Y1868*
X8742Y1870*
X8737Y1872*
X8732Y1874*
X8727Y1876*
X8722Y1877*
X8716Y1878*
X8711Y1879*
X8706Y1879*
X8700Y1879*
X8695Y1879*
X8690Y1879*
X8684Y1878*
X8679Y1877*
X8674Y1876*
X8669Y1874*
X8664Y1872*
X8659Y1870*
X8654Y1868*
X8649Y1865*
X8645Y1862*
X8641Y1859*
X8637Y1855*
X8633Y1851*
X8629Y1848*
X8626Y1844*
X8622Y1839*
X8619Y1835*
X8617Y1830*
X8614Y1825*
X8612Y1821*
X8610Y1815*
X8609Y1810*
X8607Y1805*
X8606Y1800*
X8605Y1795*
X8605Y1790*
X8604Y1788*
X8603Y1784*
X8602Y1780*
X8602Y1775*
X8602Y1771*
Y1692*
X8560*
Y1784*
X8559Y1789*
X8559Y1795*
X8558Y1800*
X8557Y1805*
X8556Y1810*
X8554Y1815*
X8552Y1821*
X8550Y1825*
X8548Y1830*
X8545Y1835*
X8542Y1839*
X8539Y1844*
X8535Y1848*
X8532Y1851*
X8528Y1855*
X8524Y1859*
X8519Y1862*
X8515Y1865*
X8510Y1868*
X8506Y1870*
X8501Y1872*
X8496Y1874*
X8491Y1876*
X8485Y1877*
X8480Y1878*
X8475Y1879*
X8469Y1879*
X8464Y1879*
X8459Y1879*
X8453Y1879*
X8448Y1878*
X8443Y1877*
X8438Y1876*
X8433Y1874*
X8428Y1872*
X8423Y1870*
X8418Y1868*
X8413Y1865*
X8409Y1862*
X8405Y1859*
X8400Y1855*
X8397Y1851*
X8393Y1848*
X8389Y1844*
X8386Y1839*
X8383Y1835*
X8380Y1830*
X8378Y1825*
X8376Y1821*
X8374Y1815*
X8372Y1810*
X8371Y1805*
X8370Y1800*
X8369Y1795*
X8369Y1789*
X8369Y1784*
Y1692*
X7466*
Y1784*
X7466Y1787*
X7466Y1790*
X7465Y1794*
X7464Y1797*
X7463Y1800*
X7462Y1803*
X7460Y1806*
X7458Y1808*
X7456Y1811*
X7454Y1813*
X7452Y1815*
X7449Y1817*
X7446Y1819*
X7444Y1821*
X7441Y1822*
X7438Y1823*
X7434Y1824*
X7431Y1825*
X7428Y1825*
X7425Y1825*
X7421Y1825*
X7418Y1825*
X7415Y1824*
X7412Y1823*
X7409Y1822*
X7406Y1821*
X7403Y1819*
X7400Y1817*
X7398Y1815*
X7395Y1813*
X7393Y1811*
X7391Y1808*
X7389Y1806*
X7388Y1803*
X7386Y1800*
X7385Y1797*
X7384Y1794*
X7384Y1790*
X7383Y1787*
X7383Y1784*
Y1692*
X7342*
Y1771*
X7342Y1775*
X7341Y1780*
X7341Y1784*
X7340Y1788*
X7339Y1790*
X7339Y1795*
X7338Y1800*
X7337Y1805*
X7335Y1810*
X7334Y1815*
X7332Y1821*
X7330Y1825*
X7327Y1830*
X7324Y1835*
X7321Y1839*
X7318Y1844*
X7315Y1848*
X7311Y1851*
X7307Y1855*
X7303Y1859*
X7299Y1862*
X7294Y1865*
X7290Y1868*
X7285Y1870*
X7280Y1872*
X7275Y1874*
X7270Y1876*
X7265Y1877*
X7260Y1878*
X7254Y1879*
X7249Y1879*
X7244Y1879*
X7238Y1879*
X7233Y1879*
X7228Y1878*
X7222Y1877*
X7217Y1876*
X7212Y1874*
X7207Y1872*
X7202Y1870*
X7197Y1868*
X7193Y1865*
X7188Y1862*
X7184Y1859*
X7180Y1855*
X7176Y1851*
X7172Y1848*
X7169Y1844*
X7166Y1839*
X7163Y1835*
X7160Y1830*
X7158Y1825*
X7155Y1821*
X7153Y1815*
X7152Y1810*
X7150Y1805*
X7149Y1800*
X7149Y1795*
X7148Y1790*
X7148Y1788*
X7146Y1784*
X7146Y1780*
X7145Y1775*
X7145Y1771*
Y1692*
X7103*
Y1784*
X7103Y1789*
X7102Y1795*
X7102Y1800*
X7100Y1805*
X7099Y1810*
X7098Y1815*
X7096Y1821*
X7093Y1825*
X7091Y1830*
X7088Y1835*
X7085Y1839*
X7082Y1844*
X7079Y1848*
X7075Y1851*
X7071Y1855*
X7067Y1859*
X7063Y1862*
X7058Y1865*
X7054Y1868*
X7049Y1870*
X7044Y1872*
X7039Y1874*
X7034Y1876*
X7029Y1877*
X7023Y1878*
X7018Y1879*
X7013Y1879*
X7007Y1879*
X7002Y1879*
X6997Y1879*
X6991Y1878*
X6986Y1877*
X6981Y1876*
X6976Y1874*
X6971Y1872*
X6966Y1870*
X6961Y1868*
X6957Y1865*
X6952Y1862*
X6948Y1859*
X6944Y1855*
X6940Y1851*
X6936Y1848*
X6933Y1844*
X6929Y1839*
X6927Y1835*
X6924Y1830*
X6921Y1825*
X6919Y1821*
X6917Y1815*
X6916Y1810*
X6914Y1805*
X6913Y1800*
X6912Y1795*
X6912Y1789*
X6912Y1784*
Y1692*
X6009*
Y1784*
X6009Y1787*
X6009Y1790*
X6008Y1794*
X6007Y1797*
X6006Y1800*
X6005Y1803*
X6003Y1806*
X6002Y1808*
X6000Y1811*
X5997Y1813*
X5995Y1815*
X5992Y1817*
X5990Y1819*
X5987Y1821*
X5984Y1822*
X5981Y1823*
X5978Y1824*
X5974Y1825*
X5971Y1825*
X5968Y1825*
X5965Y1825*
X5962Y1825*
X5958Y1824*
X5955Y1823*
X5952Y1822*
X5949Y1821*
X5946Y1819*
X5944Y1817*
X5941Y1815*
X5939Y1813*
X5936Y1811*
X5934Y1808*
X5933Y1806*
X5931Y1803*
X5930Y1800*
X5929Y1797*
X5928Y1794*
X5927Y1790*
X5927Y1787*
X5927Y1784*
Y1692*
X5885*
Y1771*
X5885Y1775*
X5885Y1780*
X5884Y1784*
X5883Y1788*
X5882Y1790*
X5882Y1795*
X5881Y1800*
X5880Y1805*
X5879Y1810*
X5877Y1815*
X5875Y1821*
X5873Y1825*
X5870Y1830*
X5868Y1835*
X5865Y1839*
X5862Y1844*
X5858Y1848*
X5854Y1851*
X5851Y1855*
X5846Y1859*
X5842Y1862*
X5838Y1865*
X5833Y1868*
X5828Y1870*
X5823Y1872*
X5818Y1874*
X5813Y1876*
X5808Y1877*
X5803Y1878*
X5798Y1879*
X5792Y1879*
X5787Y1879*
X5782Y1879*
X5776Y1879*
X5771Y1878*
X5766Y1877*
X5760Y1876*
X5755Y1874*
X5750Y1872*
X5745Y1870*
X5741Y1868*
X5736Y1865*
X5732Y1862*
X5727Y1859*
X5723Y1855*
X5719Y1851*
X5716Y1848*
X5712Y1844*
X5709Y1839*
X5706Y1835*
X5703Y1830*
X5701Y1825*
X5699Y1821*
X5697Y1815*
X5695Y1810*
X5694Y1805*
X5693Y1800*
X5692Y1795*
X5692Y1790*
X5691Y1788*
X5690Y1784*
X5689Y1780*
X5689Y1775*
X5688Y1771*
Y1692*
X5646*
Y1784*
X5646Y1789*
X5646Y1795*
X5645Y1800*
X5644Y1805*
X5642Y1810*
X5641Y1815*
X5639Y1821*
X5637Y1825*
X5634Y1830*
X5632Y1835*
X5629Y1839*
X5625Y1844*
X5622Y1848*
X5618Y1851*
X5614Y1855*
X5610Y1859*
X5606Y1862*
X5601Y1865*
X5597Y1868*
X5592Y1870*
X5587Y1872*
X5582Y1874*
X5577Y1876*
X5572Y1877*
X5567Y1878*
X5561Y1879*
X5556Y1879*
X5551Y1879*
X5545Y1879*
X5540Y1879*
X5535Y1878*
X5529Y1877*
X5524Y1876*
X5519Y1874*
X5514Y1872*
X5509Y1870*
X5504Y1868*
X5500Y1865*
X5495Y1862*
X5491Y1859*
X5487Y1855*
X5483Y1851*
X5479Y1848*
X5476Y1844*
X5473Y1839*
X5470Y1835*
X5467Y1830*
X5465Y1825*
X5462Y1821*
X5461Y1815*
X5459Y1810*
X5458Y1805*
X5457Y1800*
X5456Y1795*
X5455Y1789*
X5455Y1784*
Y1692*
X4553*
Y1784*
X4553Y1787*
X4552Y1790*
X4552Y1794*
X4551Y1797*
X4550Y1800*
X4548Y1803*
X4547Y1806*
X4545Y1808*
X4543Y1811*
X4541Y1813*
X4538Y1815*
X4536Y1817*
X4533Y1819*
X4530Y1821*
X4527Y1822*
X4524Y1823*
X4521Y1824*
X4518Y1825*
X4515Y1825*
X4511Y1825*
X4508Y1825*
X4505Y1825*
X4502Y1824*
X4499Y1823*
X4495Y1822*
X4492Y1821*
X4490Y1819*
X4487Y1817*
X4484Y1815*
X4482Y1813*
X4480Y1811*
X4478Y1808*
X4476Y1806*
X4474Y1803*
X4473Y1800*
X4472Y1797*
X4471Y1794*
X4470Y1790*
X4470Y1787*
X4470Y1784*
Y1692*
X4429*
Y1771*
X4429Y1775*
X4428Y1780*
X4427Y1784*
X4426Y1788*
X4426Y1790*
X4425Y1795*
X4424Y1800*
X4423Y1805*
X4422Y1810*
X4420Y1815*
X4418Y1821*
X4416Y1825*
X4414Y1830*
X4411Y1835*
X4408Y1839*
X4405Y1844*
X4401Y1848*
X4398Y1851*
X4394Y1855*
X4390Y1859*
X4385Y1862*
X4381Y1865*
X4376Y1868*
X4372Y1870*
X4367Y1872*
X4362Y1874*
X4357Y1876*
X4351Y1877*
X4346Y1878*
X4341Y1879*
X4336Y1879*
X4330Y1879*
X4325Y1879*
X4320Y1879*
X4314Y1878*
X4309Y1877*
X4304Y1876*
X4299Y1874*
X4294Y1872*
X4289Y1870*
X4284Y1868*
X4279Y1865*
X4275Y1862*
X4271Y1859*
X4267Y1855*
X4263Y1851*
X4259Y1848*
X4256Y1844*
X4252Y1839*
X4249Y1835*
X4247Y1830*
X4244Y1825*
X4242Y1821*
X4240Y1815*
X4238Y1810*
X4237Y1805*
X4236Y1800*
X4235Y1795*
X4235Y1790*
X4234Y1788*
X4233Y1784*
X4232Y1780*
X4232Y1775*
X4232Y1771*
Y1692*
X4190*
Y1784*
X4189Y1789*
X4189Y1795*
X4188Y1800*
X4187Y1805*
X4186Y1810*
X4184Y1815*
X4182Y1821*
X4180Y1825*
X4178Y1830*
X4175Y1835*
X4172Y1839*
X4169Y1844*
X4165Y1848*
X4162Y1851*
X4158Y1855*
X4154Y1859*
X4149Y1862*
X4145Y1865*
X4140Y1868*
X4135Y1870*
X4131Y1872*
X4126Y1874*
X4120Y1876*
X4115Y1877*
X4110Y1878*
X4105Y1879*
X4099Y1879*
X4094Y1879*
X4089Y1879*
X4083Y1879*
X4078Y1878*
X4073Y1877*
X4068Y1876*
X4062Y1874*
X4057Y1872*
X4053Y1870*
X4048Y1868*
X4043Y1865*
X4039Y1862*
X4034Y1859*
X4030Y1855*
X4026Y1851*
X4023Y1848*
X4019Y1844*
X4016Y1839*
X4013Y1835*
X4010Y1830*
X4008Y1825*
X4006Y1821*
X4004Y1815*
X4002Y1810*
X4001Y1805*
X4000Y1800*
X3999Y1795*
X3999Y1789*
X3998Y1784*
Y1692*
X3096*
Y1784*
X3096Y1787*
X3096Y1790*
X3095Y1794*
X3094Y1797*
X3093Y1800*
X3092Y1803*
X3090Y1806*
X3088Y1808*
X3086Y1811*
X3084Y1813*
X3082Y1815*
X3079Y1817*
X3076Y1819*
X3073Y1821*
X3070Y1822*
X3067Y1823*
X3064Y1824*
X3061Y1825*
X3058Y1825*
X3055Y1825*
X3051Y1825*
X3048Y1825*
X3045Y1824*
X3042Y1823*
X3039Y1822*
X3036Y1821*
X3033Y1819*
X3030Y1817*
X3028Y1815*
X3025Y1813*
X3023Y1811*
X3021Y1808*
X3019Y1806*
X3018Y1803*
X3016Y1800*
X3015Y1797*
X3014Y1794*
X3014Y1790*
X3013Y1787*
X3013Y1784*
Y1692*
X2972*
Y1771*
X2972Y1775*
X2971Y1780*
X2971Y1784*
X2970Y1788*
X2969Y1790*
X2968Y1795*
X2968Y1800*
X2967Y1805*
X2965Y1810*
X2964Y1815*
X2962Y1821*
X2960Y1825*
X2957Y1830*
X2954Y1835*
X2951Y1839*
X2948Y1844*
X2945Y1848*
X2941Y1851*
X2937Y1855*
X2933Y1859*
X2929Y1862*
X2924Y1865*
X2920Y1868*
X2915Y1870*
X2910Y1872*
X2905Y1874*
X2900Y1876*
X2895Y1877*
X2890Y1878*
X2884Y1879*
X2879Y1879*
X2874Y1879*
X2868Y1879*
X2863Y1879*
X2858Y1878*
X2852Y1877*
X2847Y1876*
X2842Y1874*
X2837Y1872*
X2832Y1870*
X2827Y1868*
X2823Y1865*
X2818Y1862*
X2814Y1859*
X2810Y1855*
X2806Y1851*
X2802Y1848*
X2799Y1844*
X2796Y1839*
X2793Y1835*
X2790Y1830*
X2787Y1825*
X2785Y1821*
X2783Y1815*
X2782Y1810*
X2780Y1805*
X2779Y1800*
X2779Y1795*
X2778Y1790*
X2777Y1788*
X2776Y1784*
X2776Y1780*
X2775Y1775*
X2775Y1771*
Y1692*
X2733*
Y1784*
X2733Y1789*
X2732Y1795*
X2731Y1800*
X2730Y1805*
X2729Y1810*
X2727Y1815*
X2726Y1821*
X2723Y1825*
X2721Y1830*
X2718Y1835*
X2715Y1839*
X2712Y1844*
X2709Y1848*
X2705Y1851*
X2701Y1855*
X2697Y1859*
X2693Y1862*
X2688Y1865*
X2684Y1868*
X2679Y1870*
X2674Y1872*
X2669Y1874*
X2664Y1876*
X2659Y1877*
X2653Y1878*
X2648Y1879*
X2643Y1879*
X2637Y1879*
X2632Y1879*
X2627Y1879*
X2621Y1878*
X2616Y1877*
X2611Y1876*
X2606Y1874*
X2601Y1872*
X2596Y1870*
X2591Y1868*
X2586Y1865*
X2582Y1862*
X2578Y1859*
X2574Y1855*
X2570Y1851*
X2566Y1848*
X2563Y1844*
X2559Y1839*
X2556Y1835*
X2554Y1830*
X2551Y1825*
X2549Y1821*
X2547Y1815*
X2546Y1810*
X2544Y1805*
X2543Y1800*
X2542Y1795*
X2542Y1789*
X2542Y1784*
Y1692*
X1639*
Y1784*
X1639Y1787*
X1639Y1790*
X1638Y1794*
X1637Y1797*
X1636Y1800*
X1635Y1803*
X1633Y1806*
X1631Y1808*
X1629Y1811*
X1627Y1813*
X1625Y1815*
X1622Y1817*
X1620Y1819*
X1617Y1821*
X1614Y1822*
X1611Y1823*
X1608Y1824*
X1604Y1825*
X1601Y1825*
X1598Y1825*
X1595Y1825*
X1591Y1825*
X1588Y1824*
X1585Y1823*
X1582Y1822*
X1579Y1821*
X1576Y1819*
X1574Y1817*
X1571Y1815*
X1569Y1813*
X1566Y1811*
X1564Y1808*
X1563Y1806*
X1561Y1803*
X1560Y1800*
X1559Y1797*
X1558Y1794*
X1557Y1790*
X1557Y1787*
X1556Y1784*
Y1692*
X1515*
Y1771*
X1515Y1775*
X1515Y1780*
X1514Y1784*
X1513Y1788*
X1512Y1790*
X1512Y1795*
X1511Y1800*
X1510Y1805*
X1509Y1810*
X1507Y1815*
X1505Y1821*
X1503Y1825*
X1500Y1830*
X1498Y1835*
X1495Y1839*
X1492Y1844*
X1488Y1848*
X1484Y1851*
X1480Y1855*
X1476Y1859*
X1472Y1862*
X1468Y1865*
X1463Y1868*
X1458Y1870*
X1453Y1872*
X1448Y1874*
X1443Y1876*
X1438Y1877*
X1433Y1878*
X1428Y1879*
X1422Y1879*
X1417Y1879*
X1411Y1879*
X1406Y1879*
X1401Y1878*
X1396Y1877*
X1390Y1876*
X1385Y1874*
X1380Y1872*
X1375Y1870*
X1371Y1868*
X1366Y1865*
X1362Y1862*
X1357Y1859*
X1353Y1855*
X1349Y1851*
X1346Y1848*
X1342Y1844*
X1339Y1839*
X1336Y1835*
X1333Y1830*
X1331Y1825*
X1329Y1821*
X1327Y1815*
X1325Y1810*
X1324Y1805*
X1323Y1800*
X1322Y1795*
X1322Y1790*
X1321Y1788*
X1320Y1784*
X1319Y1780*
X1319Y1775*
X1318Y1771*
Y1575*
X1218Y1474*
X1215Y1471*
X1212Y1468*
X1210Y1465*
X1207Y1461*
X1206Y1457*
X1204Y1453*
X1203Y1449*
X1202Y1445*
X1201Y1441*
X1200Y1437*
X1200Y1433*
Y984*
X1200Y981*
X1200Y981*
X1197Y979*
X1196Y980*
X1195Y980*
X1193Y981*
X1191Y982*
X1189Y982*
X1188*
X1186Y982*
X1184Y981*
X1182Y980*
X1181Y980*
X1179Y978*
X1178Y977*
X1177Y976*
X1176Y974*
X1175Y972*
X1175Y971*
X1175Y969*
Y967*
X1175Y965*
X1175Y964*
X1176Y962*
X1177Y960*
X1178Y959*
X1179Y958*
X1181Y956*
X1182Y956*
X1184Y955*
X1186Y954*
X1188Y954*
X1189*
X1394Y749*
X1396Y748*
X1397Y747*
X1398Y747*
X1400Y746*
X1401Y746*
X2719*
X2736Y728*
Y709*
X2735Y708*
X2732Y707*
X2732Y708*
X2730Y709*
X2728Y710*
X2727Y710*
X2725Y710*
X2723*
X2721Y710*
X2719Y710*
X2718Y709*
X2716Y708*
X2715Y707*
X2713Y706*
X2712Y704*
X2711Y702*
X2711Y701*
X2710Y699*
X2710Y697*
Y695*
X2710Y694*
X2711Y692*
X2711Y690*
X2712Y689*
X2713Y687*
X2714Y687*
X2713Y683*
X2712Y682*
X2711Y682*
X2711Y682*
X2702*
X2701Y682*
X2699Y681*
X2698Y681*
X2697Y680*
X2697Y679*
X2696Y678*
X2696Y677*
X2696Y676*
Y650*
X2696Y649*
X2696Y648*
X2697Y647*
X2697Y647*
Y639*
X2692Y634*
X2674*
X2672Y634*
X2670Y637*
X2670Y638*
X2669Y640*
X2669Y641*
X2667Y643*
X2666Y644*
X2665Y645*
X2663Y646*
X2661Y647*
X2660Y647*
X2658Y647*
X2656*
X2655Y647*
X2654Y648*
X2651Y650*
Y655*
X2640*
Y670*
X2640Y672*
X2640Y673*
X2639Y675*
X2638Y677*
X2637Y678*
X2622Y693*
X2621Y694*
X2619Y695*
X2617Y696*
X2616Y696*
X2614Y696*
X2500*
X2498Y696*
X2496Y696*
X2494Y695*
X2492Y694*
X2491Y693*
X2282Y484*
X2281Y483*
X2280Y481*
X2280Y480*
X2279Y478*
X2279Y476*
Y347*
X2229Y297*
X2142*
Y310*
X2077*
Y261*
X2142*
Y274*
X2234*
X2236Y274*
X2238Y274*
X2240Y275*
X2241Y276*
X2243Y277*
X2299Y334*
X2300Y335*
X2301Y337*
X2302Y338*
X2303Y340*
X2303Y342*
Y471*
X2504Y673*
X2609*
X2617Y665*
Y655*
X2606*
Y612*
X2651*
Y617*
X2654Y619*
X2655Y620*
X2656Y620*
X2658*
X2660Y617*
X2661Y616*
X2663Y615*
X2664Y615*
X2665Y614*
X2667Y614*
X2670*
X2670Y614*
X2671Y613*
X2673Y613*
X2674Y613*
X2699*
X2700Y613*
X2702Y613*
X2703Y614*
X2704Y615*
X2704Y616*
X2705Y617*
X2705Y618*
X2705Y619*
Y621*
X2713Y628*
X2714Y629*
X2716Y632*
X2874*
Y642*
X2875Y643*
X2877Y644*
X2878Y644*
X2879Y644*
X2888*
X2889Y644*
X2890Y645*
X2891Y645*
X2892Y646*
X2893Y647*
X2893Y648*
X2894Y649*
X2894Y650*
Y676*
X2894Y677*
X2893Y678*
X2893Y679*
X2893Y679*
Y687*
X2913Y707*
X3818*
Y204*
X869*
X834Y239*
Y1023*
X834Y1026*
X832Y1029*
X793Y1068*
X792Y1069*
X792Y1069*
X792Y1070*
Y1070*
X792Y1070*
X792Y1071*
Y1417*
X792Y1418*
X792Y1419*
X791Y1420*
X790Y1420*
X595Y1616*
Y1934*
X748Y2086*
X1085*
Y1995*
X1085Y1989*
X1086Y1984*
X1086Y1979*
X1087Y1973*
X1089Y1968*
X1090Y1963*
X1092Y1958*
X1095Y1953*
X1097Y1948*
X1100Y1944*
X1103Y1939*
X1106Y1935*
X1109Y1931*
X1113Y1927*
X1117Y1923*
X1121Y1920*
X1125Y1917*
X1130Y1914*
X1134Y1911*
X1139Y1909*
X1144Y1906*
X1149Y1904*
X1154Y1903*
X1159Y1901*
X1165Y1900*
X1170Y1900*
X1175Y1899*
X1181Y1899*
X1186Y1899*
X1191Y1900*
X1197Y1900*
X1202Y1901*
X1207Y1903*
X1212Y1904*
X1217Y1906*
X1222Y1909*
X1227Y1911*
X1231Y1914*
X1236Y1917*
X1240Y1920*
X1244Y1923*
X1248Y1927*
X1252Y1931*
X1255Y1935*
X1259Y1939*
X1261Y1944*
X1264Y1948*
X1267Y1953*
X1269Y1958*
X1271Y1963*
X1272Y1968*
X1274Y1973*
X1275Y1979*
X1276Y1984*
X1276Y1989*
X1276Y1995*
Y2086*
X1318*
Y2007*
X1319Y2003*
X1319Y1999*
X1320Y1995*
X1321Y1991*
X1322Y1988*
X1322Y1984*
X1323Y1979*
X1324Y1973*
X1325Y1968*
X1327Y1963*
X1329Y1958*
X1331Y1953*
X1333Y1948*
X1336Y1944*
X1339Y1939*
X1342Y1935*
X1346Y1931*
X1349Y1927*
X1353Y1923*
X1357Y1920*
X1362Y1917*
X1366Y1914*
X1371Y1911*
X1375Y1909*
X1380Y1906*
X1385Y1904*
X1390Y1903*
X1396Y1901*
X1401Y1900*
X1406Y1900*
X1411Y1899*
X1417Y1899*
X1422Y1899*
X1428Y1900*
X1433Y1900*
X1438Y1901*
X1443Y1903*
X1448Y1904*
X1453Y1906*
X1458Y1909*
X1463Y1911*
X1468Y1914*
X1472Y1917*
X1476Y1920*
X1480Y1923*
X1484Y1927*
X1488Y1931*
X1492Y1935*
X1495Y1939*
X1498Y1944*
X1500Y1948*
X1503Y1953*
X1505Y1958*
X1507Y1963*
X1509Y1968*
X1510Y1973*
X1511Y1979*
X1512Y1984*
X1512Y1988*
X1513Y1991*
X1514Y1995*
X1515Y1999*
X1515Y2003*
X1515Y2007*
Y2086*
X1556*
Y1995*
X1557Y1991*
X1557Y1988*
X1558Y1985*
X1559Y1982*
X1560Y1979*
X1561Y1976*
X1563Y1973*
X1564Y1970*
X1566Y1968*
X1569Y1965*
X1571Y1963*
X1574Y1961*
X1576Y1959*
X1579Y1958*
X1582Y1956*
X1585Y1955*
X1588Y1954*
X1591Y1954*
X1595Y1953*
X1598Y1953*
X1601Y1953*
X1604Y1954*
X1608Y1954*
X1611Y1955*
X1614Y1956*
X1617Y1958*
X1620Y1959*
X1622Y1961*
X1625Y1963*
X1627Y1965*
X1629Y1968*
X1631Y1970*
X1633Y1973*
X1635Y1976*
X1636Y1979*
X1637Y1982*
X1638Y1985*
X1639Y1988*
X1639Y1991*
X1639Y1995*
Y2086*
X2542*
Y1995*
X2542Y1989*
X2542Y1984*
X2543Y1979*
X2544Y1973*
X2546Y1968*
X2547Y1963*
X2549Y1958*
X2551Y1953*
X2554Y1948*
X2556Y1944*
X2559Y1939*
X2563Y1935*
X2566Y1931*
X2570Y1927*
X2574Y1923*
X2578Y1920*
X2582Y1917*
X2586Y1914*
X2591Y1911*
X2596Y1909*
X2601Y1906*
X2606Y1904*
X2611Y1903*
X2616Y1901*
X2621Y1900*
X2627Y1900*
X2632Y1899*
X2637Y1899*
X2643Y1899*
X2648Y1900*
X2653Y1900*
X2659Y1901*
X2664Y1903*
X2669Y1904*
X2674Y1906*
X2679Y1909*
X2684Y1911*
X2688Y1914*
X2693Y1917*
X2697Y1920*
X2701Y1923*
X2705Y1927*
X2709Y1931*
X2712Y1935*
X2715Y1939*
X2718Y1944*
X2721Y1948*
X2723Y1953*
X2726Y1958*
X2727Y1963*
X2729Y1968*
X2730Y1973*
X2731Y1979*
X2732Y1984*
X2733Y1989*
X2733Y1995*
Y2086*
X2775*
Y2007*
X2775Y2003*
X2776Y1999*
X2776Y1995*
X2777Y1991*
X2778Y1988*
X2779Y1984*
X2779Y1979*
X2780Y1973*
X2782Y1968*
X2783Y1963*
X2785Y1958*
X2787Y1953*
X2790Y1948*
X2793Y1944*
X2796Y1939*
X2799Y1935*
X2802Y1931*
X2806Y1927*
X2810Y1923*
X2814Y1920*
X2818Y1917*
X2823Y1914*
X2827Y1911*
X2832Y1909*
X2837Y1906*
X2842Y1904*
X2847Y1903*
X2852Y1901*
X2858Y1900*
X2863Y1900*
X2868Y1899*
X2874Y1899*
X2879Y1899*
X2884Y1900*
X2890Y1900*
X2895Y1901*
X2900Y1903*
X2905Y1904*
X2910Y1906*
X2915Y1909*
X2920Y1911*
X2924Y1914*
X2929Y1917*
X2933Y1920*
X2937Y1923*
X2941Y1927*
X2945Y1931*
X2948Y1935*
X2951Y1939*
X2954Y1944*
X2957Y1948*
X2960Y1953*
X2962Y1958*
X2964Y1963*
X2965Y1968*
X2967Y1973*
X2968Y1979*
X2968Y1984*
X2969Y1988*
X2970Y1991*
X2971Y1995*
X2971Y1999*
X2972Y2003*
X2972Y2007*
Y2086*
X3013*
Y1995*
X3013Y1991*
X3014Y1988*
X3014Y1985*
X3015Y1982*
X3016Y1979*
X3018Y1976*
X3019Y1973*
X3021Y1970*
X3023Y1968*
X3025Y1965*
X3028Y1963*
X3030Y1961*
X3033Y1959*
X3036Y1958*
X3039Y1956*
X3042Y1955*
X3045Y1954*
X3048Y1954*
X3051Y1953*
X3055Y1953*
X3058Y1953*
X3061Y1954*
X3064Y1954*
X3067Y1955*
X3070Y1956*
X3073Y1958*
X3076Y1959*
X3079Y1961*
X3082Y1963*
X3084Y1965*
X3086Y1968*
X3088Y1970*
X3090Y1973*
X3092Y1976*
X3093Y1979*
X3094Y1982*
X3095Y1985*
X3096Y1988*
X3096Y1991*
X3096Y1995*
Y2086*
X3998*
Y1995*
X3999Y1989*
X3999Y1984*
X4000Y1979*
X4001Y1973*
X4002Y1968*
X4004Y1963*
X4006Y1958*
X4008Y1953*
X4010Y1948*
X4013Y1944*
X4016Y1939*
X4019Y1935*
X4023Y1931*
X4026Y1927*
X4030Y1923*
X4034Y1920*
X4039Y1917*
X4043Y1914*
X4048Y1911*
X4053Y1909*
X4057Y1906*
X4062Y1904*
X4068Y1903*
X4073Y1901*
X4078Y1900*
X4083Y1900*
X4089Y1899*
X4094Y1899*
X4099Y1899*
X4105Y1900*
X4110Y1900*
X4115Y1901*
X4120Y1903*
X4126Y1904*
X4131Y1906*
X4135Y1909*
X4140Y1911*
X4145Y1914*
X4149Y1917*
X4154Y1920*
X4158Y1923*
X4162Y1927*
X4165Y1931*
X4169Y1935*
X4172Y1939*
X4175Y1944*
X4178Y1948*
X4180Y1953*
X4182Y1958*
X4184Y1963*
X4186Y1968*
X4187Y1973*
X4188Y1979*
X4189Y1984*
X4189Y1989*
X4190Y1995*
Y2086*
X4232*
Y2007*
X4232Y2003*
X4232Y1999*
X4233Y1995*
X4234Y1991*
X4235Y1988*
X4235Y1984*
X4236Y1979*
X4237Y1973*
X4238Y1968*
X4240Y1963*
X4242Y1958*
X4244Y1953*
X4247Y1948*
X4249Y1944*
X4252Y1939*
X4256Y1935*
X4259Y1931*
X4263Y1927*
X4267Y1923*
X4271Y1920*
X4275Y1917*
X4279Y1914*
X4284Y1911*
X4289Y1909*
X4294Y1906*
X4299Y1904*
X4304Y1903*
X4309Y1901*
X4314Y1900*
X4320Y1900*
X4325Y1899*
X4330Y1899*
X4336Y1899*
X4341Y1900*
X4346Y1900*
X4351Y1901*
X4357Y1903*
X4362Y1904*
X4367Y1906*
X4372Y1909*
X4376Y1911*
X4381Y1914*
X4385Y1917*
X4390Y1920*
X4394Y1923*
X4398Y1927*
X4401Y1931*
X4405Y1935*
X4408Y1939*
X4411Y1944*
X4414Y1948*
X4416Y1953*
X4418Y1958*
X4420Y1963*
X4422Y1968*
X4423Y1973*
X4424Y1979*
X4425Y1984*
X4426Y1988*
X4426Y1991*
X4427Y1995*
X4428Y1999*
X4429Y2003*
X4429Y2007*
Y2086*
X4470*
Y1995*
X4470Y1991*
X4470Y1988*
X4471Y1985*
X4472Y1982*
X4473Y1979*
X4474Y1976*
X4476Y1973*
X4478Y1970*
X4480Y1968*
X4482Y1965*
X4484Y1963*
X4487Y1961*
X4490Y1959*
X4492Y1958*
X4495Y1956*
X4499Y1955*
X4502Y1954*
X4505Y1954*
X4508Y1953*
X4511Y1953*
X4515Y1953*
X4518Y1954*
X4521Y1954*
X4524Y1955*
X4527Y1956*
X4530Y1958*
X4533Y1959*
X4536Y1961*
X4538Y1963*
X4541Y1965*
X4543Y1968*
X4545Y1970*
X4547Y1973*
X4548Y1976*
X4550Y1979*
X4551Y1982*
X4552Y1985*
X4552Y1988*
X4553Y1991*
X4553Y1995*
Y2086*
X5455*
Y1995*
X5455Y1989*
X5456Y1984*
X5457Y1979*
X5458Y1973*
X5459Y1968*
X5461Y1963*
X5462Y1958*
X5465Y1953*
X5467Y1948*
X5470Y1944*
X5473Y1939*
X5476Y1935*
X5479Y1931*
X5483Y1927*
X5487Y1923*
X5491Y1920*
X5495Y1917*
X5500Y1914*
X5504Y1911*
X5509Y1909*
X5514Y1906*
X5519Y1904*
X5524Y1903*
X5529Y1901*
X5535Y1900*
X5540Y1900*
X5545Y1899*
X5551Y1899*
X5556Y1899*
X5561Y1900*
X5567Y1900*
X5572Y1901*
X5577Y1903*
X5582Y1904*
X5587Y1906*
X5592Y1909*
X5597Y1911*
X5601Y1914*
X5606Y1917*
X5610Y1920*
X5614Y1923*
X5618Y1927*
X5622Y1931*
X5625Y1935*
X5629Y1939*
X5632Y1944*
X5634Y1948*
X5637Y1953*
X5639Y1958*
X5641Y1963*
X5642Y1968*
X5644Y1973*
X5645Y1979*
X5646Y1984*
X5646Y1989*
X5646Y1995*
Y2086*
X5688*
Y2007*
X5689Y2003*
X5689Y1999*
X5690Y1995*
X5691Y1991*
X5692Y1988*
X5692Y1984*
X5693Y1979*
X5694Y1973*
X5695Y1968*
X5697Y1963*
X5699Y1958*
X5701Y1953*
X5703Y1948*
X5706Y1944*
X5709Y1939*
X5712Y1935*
X5716Y1931*
X5719Y1927*
X5723Y1923*
X5727Y1920*
X5732Y1917*
X5736Y1914*
X5741Y1911*
X5745Y1909*
X5750Y1906*
X5755Y1904*
X5760Y1903*
X5766Y1901*
X5771Y1900*
X5776Y1900*
X5782Y1899*
X5787Y1899*
X5792Y1899*
X5798Y1900*
X5803Y1900*
X5808Y1901*
X5813Y1903*
X5818Y1904*
X5823Y1906*
X5828Y1909*
X5833Y1911*
X5838Y1914*
X5842Y1917*
X5846Y1920*
X5851Y1923*
X5854Y1927*
X5858Y1931*
X5862Y1935*
X5865Y1939*
X5868Y1944*
X5870Y1948*
X5873Y1953*
X5875Y1958*
X5877Y1963*
X5879Y1968*
X5880Y1973*
X5881Y1979*
X5882Y1984*
X5882Y1988*
X5883Y1991*
X5884Y1995*
X5885Y1999*
X5885Y2003*
X5885Y2007*
Y2086*
X5927*
Y1995*
X5927Y1991*
X5927Y1988*
X5928Y1985*
X5929Y1982*
X5930Y1979*
X5931Y1976*
X5933Y1973*
X5934Y1970*
X5936Y1968*
X5939Y1965*
X5941Y1963*
X5944Y1961*
X5946Y1959*
X5949Y1958*
X5952Y1956*
X5955Y1955*
X5958Y1954*
X5962Y1954*
X5965Y1953*
X5968Y1953*
X5971Y1953*
X5974Y1954*
X5978Y1954*
X5981Y1955*
X5984Y1956*
X5987Y1958*
X5990Y1959*
X5992Y1961*
X5995Y1963*
X5997Y1965*
X6000Y1968*
X6002Y1970*
X6003Y1973*
X6005Y1976*
X6006Y1979*
X6007Y1982*
X6008Y1985*
X6009Y1988*
X6009Y1991*
X6009Y1995*
Y2086*
X6912*
Y1995*
X6912Y1989*
X6912Y1984*
X6913Y1979*
X6914Y1973*
X6916Y1968*
X6917Y1963*
X6919Y1958*
X6921Y1953*
X6924Y1948*
X6927Y1944*
X6929Y1939*
X6933Y1935*
X6936Y1931*
X6940Y1927*
X6944Y1923*
X6948Y1920*
X6952Y1917*
X6957Y1914*
X6961Y1911*
X6966Y1909*
X6971Y1906*
X6976Y1904*
X6981Y1903*
X6986Y1901*
X6991Y1900*
X6997Y1900*
X7002Y1899*
X7007Y1899*
X7013Y1899*
X7018Y1900*
X7023Y1900*
X7029Y1901*
X7034Y1903*
X7039Y1904*
X7044Y1906*
X7049Y1909*
X7054Y1911*
X7058Y1914*
X7063Y1917*
X7067Y1920*
X7071Y1923*
X7075Y1927*
X7079Y1931*
X7082Y1935*
X7085Y1939*
X7088Y1944*
X7091Y1948*
X7093Y1953*
X7096Y1958*
X7098Y1963*
X7099Y1968*
X7100Y1973*
X7102Y1979*
X7102Y1984*
X7103Y1989*
X7103Y1995*
Y2086*
X7145*
Y2007*
X7145Y2003*
X7146Y1999*
X7146Y1995*
X7148Y1991*
X7148Y1988*
X7149Y1984*
X7149Y1979*
X7150Y1973*
X7152Y1968*
X7153Y1963*
X7155Y1958*
X7158Y1953*
X7160Y1948*
X7163Y1944*
X7166Y1939*
X7169Y1935*
X7172Y1931*
X7176Y1927*
X7180Y1923*
X7184Y1920*
X7188Y1917*
X7193Y1914*
X7197Y1911*
X7202Y1909*
X7207Y1906*
X7212Y1904*
X7217Y1903*
X7222Y1901*
X7228Y1900*
X7233Y1900*
X7238Y1899*
X7244Y1899*
X7249Y1899*
X7254Y1900*
X7260Y1900*
X7265Y1901*
X7270Y1903*
X7275Y1904*
X7280Y1906*
X7285Y1909*
X7290Y1911*
X7294Y1914*
X7299Y1917*
X7303Y1920*
X7307Y1923*
X7311Y1927*
X7315Y1931*
X7318Y1935*
X7321Y1939*
X7324Y1944*
X7327Y1948*
X7330Y1953*
X7332Y1958*
X7334Y1963*
X7335Y1968*
X7337Y1973*
X7338Y1979*
X7339Y1984*
X7339Y1988*
X7340Y1991*
X7341Y1995*
X7341Y1999*
X7342Y2003*
X7342Y2007*
Y2086*
X7383*
Y1995*
X7383Y1991*
X7384Y1988*
X7384Y1985*
X7385Y1982*
X7386Y1979*
X7388Y1976*
X7389Y1973*
X7391Y1970*
X7393Y1968*
X7395Y1965*
X7398Y1963*
X7400Y1961*
X7403Y1959*
X7406Y1958*
X7409Y1956*
X7412Y1955*
X7415Y1954*
X7418Y1954*
X7421Y1953*
X7425Y1953*
X7428Y1953*
X7431Y1954*
X7434Y1954*
X7438Y1955*
X7441Y1956*
X7444Y1958*
X7446Y1959*
X7449Y1961*
X7452Y1963*
X7454Y1965*
X7456Y1968*
X7458Y1970*
X7460Y1973*
X7462Y1976*
X7463Y1979*
X7464Y1982*
X7465Y1985*
X7466Y1988*
X7466Y1991*
X7466Y1995*
Y2086*
X8369*
Y1995*
X8369Y1989*
X8369Y1984*
X8370Y1979*
X8371Y1973*
X8372Y1968*
X8374Y1963*
X8376Y1958*
X8378Y1953*
X8380Y1948*
X8383Y1944*
X8386Y1939*
X8389Y1935*
X8393Y1931*
X8397Y1927*
X8400Y1923*
X8405Y1920*
X8409Y1917*
X8413Y1914*
X8418Y1911*
X8423Y1909*
X8428Y1906*
X8433Y1904*
X8438Y1903*
X8443Y1901*
X8448Y1900*
X8453Y1900*
X8459Y1899*
X8464Y1899*
X8469Y1899*
X8475Y1900*
X8480Y1900*
X8485Y1901*
X8491Y1903*
X8496Y1904*
X8501Y1906*
X8506Y1909*
X8510Y1911*
X8515Y1914*
X8519Y1917*
X8524Y1920*
X8528Y1923*
X8532Y1927*
X8535Y1931*
X8539Y1935*
X8542Y1939*
X8545Y1944*
X8548Y1948*
X8550Y1953*
X8552Y1958*
X8554Y1963*
X8556Y1968*
X8557Y1973*
X8558Y1979*
X8559Y1984*
X8559Y1989*
X8560Y1995*
Y2086*
X8602*
Y2007*
X8602Y2003*
X8602Y1999*
X8603Y1995*
X8604Y1991*
X8605Y1988*
X8605Y1984*
X8606Y1979*
X8607Y1973*
X8609Y1968*
X8610Y1963*
X8612Y1958*
X8614Y1953*
X8617Y1948*
X8619Y1944*
X8622Y1939*
X8626Y1935*
X8629Y1931*
X8633Y1927*
X8637Y1923*
X8641Y1920*
X8645Y1917*
X8649Y1914*
X8654Y1911*
X8659Y1909*
X8664Y1906*
X8669Y1904*
X8674Y1903*
X8679Y1901*
X8684Y1900*
X8690Y1900*
X8695Y1899*
X8700Y1899*
X8706Y1899*
X8711Y1900*
X8716Y1900*
X8722Y1901*
X8727Y1903*
X8732Y1904*
X8737Y1906*
X8742Y1909*
X8746Y1911*
X8751Y1914*
X8756Y1917*
X8760Y1920*
X8764Y1923*
X8768Y1927*
X8772Y1931*
X8775Y1935*
X8778Y1939*
X8781Y1944*
X8784Y1948*
X8786Y1953*
X8789Y1958*
X8790Y1963*
X8792Y1968*
X8793Y1973*
X8794Y1979*
X8795Y1984*
X8796Y1988*
X8796Y1991*
X8797Y1995*
X8798Y1999*
X8799Y2003*
X8799Y2007*
Y2086*
X8840*
Y1995*
X8840Y1991*
X8840Y1988*
X8841Y1985*
X8842Y1982*
X8843Y1979*
X8844Y1976*
X8846Y1973*
X8848Y1970*
X8850Y1968*
X8852Y1965*
X8854Y1963*
X8857Y1961*
X8860Y1959*
X8863Y1958*
X8866Y1956*
X8869Y1955*
X8872Y1954*
X8875Y1954*
X8878Y1953*
X8881Y1953*
X8885Y1953*
X8888Y1954*
X8891Y1954*
X8894Y1955*
X8897Y1956*
X8900Y1958*
X8903Y1959*
X8906Y1961*
X8908Y1963*
X8911Y1965*
X8913Y1968*
X8915Y1970*
X8917Y1973*
X8918Y1976*
X8920Y1979*
X8921Y1982*
X8922Y1985*
X8922Y1988*
X8923Y1991*
X8923Y1995*
Y2086*
X9825*
Y1995*
X9825Y1989*
X9826Y1984*
X9827Y1979*
X9828Y1973*
X9829Y1968*
X9831Y1963*
X9833Y1958*
X9835Y1953*
X9837Y1948*
X9840Y1944*
X9843Y1939*
X9846Y1935*
X9850Y1931*
X9853Y1927*
X9857Y1923*
X9861Y1920*
X9865Y1917*
X9870Y1914*
X9875Y1911*
X9879Y1909*
X9884Y1906*
X9889Y1904*
X9894Y1903*
X9900Y1901*
X9905Y1900*
X9910Y1900*
X9915Y1899*
X9921Y1899*
X9926Y1899*
X9931Y1900*
X9937Y1900*
X9942Y1901*
X9947Y1903*
X9952Y1904*
X9957Y1906*
X9962Y1909*
X9967Y1911*
X9972Y1914*
X9976Y1917*
X9980Y1920*
X9984Y1923*
X9988Y1927*
X9992Y1931*
X9995Y1935*
X9999Y1939*
X10002Y1944*
X10004Y1948*
X10007Y1953*
X10009Y1958*
X10011Y1963*
X10013Y1968*
X10014Y1973*
X10015Y1979*
X10016Y1984*
X10016Y1989*
X10016Y1995*
Y2086*
X10059*
Y2007*
X10059Y2003*
X10059Y1999*
X10060Y1995*
X10061Y1991*
X10062Y1988*
X10062Y1984*
X10063Y1979*
X10064Y1973*
X10065Y1968*
X10067Y1963*
X10069Y1958*
X10071Y1953*
X10073Y1948*
X10076Y1944*
X10079Y1939*
X10082Y1935*
X10086Y1931*
X10089Y1927*
X10093Y1923*
X10097Y1920*
X10102Y1917*
X10106Y1914*
X10111Y1911*
X10116Y1909*
X10120Y1906*
X10125Y1904*
X10131Y1903*
X10136Y1901*
X10141Y1900*
X10146Y1900*
X10152Y1899*
X10157Y1899*
X10162Y1899*
X10168Y1900*
X10173Y1900*
X10178Y1901*
X10183Y1903*
X10189Y1904*
X10194Y1906*
X10198Y1909*
X10203Y1911*
X10208Y1914*
X10212Y1917*
X10217Y1920*
X10221Y1923*
X10225Y1927*
X10228Y1931*
X10232Y1935*
X10235Y1939*
X10238Y1944*
X10241Y1948*
X10243Y1953*
X10245Y1958*
X10247Y1963*
X10249Y1968*
X10250Y1973*
X10251Y1979*
X10252Y1984*
X10252Y1988*
X10253Y1991*
X10254Y1995*
X10255Y1999*
X10255Y2003*
X10255Y2007*
Y2086*
X10297*
Y1995*
X10297Y1991*
X10297Y1988*
X10298Y1985*
X10299Y1982*
X10300Y1979*
X10301Y1976*
X10303Y1973*
X10305Y1970*
X10307Y1968*
X10309Y1965*
X10311Y1963*
X10314Y1961*
X10316Y1959*
X10319Y1958*
X10322Y1956*
X10325Y1955*
X10328Y1954*
X10332Y1954*
X10335Y1953*
X10338Y1953*
X10341Y1953*
X10345Y1954*
X10348Y1954*
X10351Y1955*
X10354Y1956*
X10357Y1958*
X10360Y1959*
X10362Y1961*
X10365Y1963*
X10367Y1965*
X10370Y1968*
X10372Y1970*
X10373Y1973*
X10375Y1976*
X10376Y1979*
X10378Y1982*
X10378Y1985*
X10379Y1988*
X10379Y1991*
X10380Y1995*
Y2086*
X11102*
X11181Y2007*
G37*
G36*
X12629Y204D02*
X3858D01*
Y707*
X10724*
X10725Y707*
X10727Y707*
X10728Y708*
X10729Y708*
X10748*
X10885Y846*
X12165*
X12169Y846*
X12173Y847*
X12177Y847*
X12182Y848*
X12186Y850*
X12189Y851*
X12193Y853*
X12197Y855*
X12200Y858*
X12204Y860*
X12207Y863*
X12541Y1198*
X12544Y1201*
X12547Y1204*
X12549Y1208*
X12551Y1211*
X12553Y1215*
X12555Y1219*
X12556Y1223*
X12557Y1227*
X12558Y1231*
X12558Y1235*
X12559Y1240*
Y1720*
X12558Y1724*
X12558Y1728*
X12557Y1733*
X12556Y1737*
X12555Y1741*
X12553Y1745*
X12551Y1748*
X12549Y1752*
X12547Y1755*
X12544Y1759*
X12541Y1762*
X12490Y1813*
X12487Y1816*
X12484Y1818*
X12480Y1821*
X12477Y1823*
X12473Y1825*
X12469Y1827*
X12465Y1828*
X12461Y1829*
X12457Y1830*
X12453Y1830*
X12448Y1830*
X12125*
Y1948*
X12452*
X12456Y1948*
X12461Y1949*
X12465Y1950*
X12469Y1951*
X12473Y1952*
X12477Y1954*
X12481Y1956*
X12484Y1958*
X12488Y1960*
X12491Y1963*
X12494Y1966*
X12541Y2013*
X12544Y2016*
X12547Y2019*
X12549Y2023*
X12551Y2026*
X12553Y2030*
X12555Y2034*
X12556Y2038*
X12557Y2042*
X12558Y2046*
X12558Y2050*
X12559Y2055*
Y2539*
X12558Y2543*
X12558Y2547*
X12557Y2551*
X12556Y2556*
X12555Y2560*
X12553Y2563*
X12551Y2567*
X12549Y2571*
X12547Y2574*
X12544Y2578*
X12541Y2581*
X12207Y2915*
X12204Y2918*
X12200Y2921*
X12197Y2923*
X12193Y2925*
X12189Y2927*
X12186Y2929*
X12182Y2930*
X12177Y2931*
X12173Y2932*
X12169Y2932*
X12165Y2933*
X1338*
X1334Y2932*
X1330Y2932*
X1326Y2931*
X1321Y2930*
X1317Y2929*
X1314Y2927*
X1310Y2925*
X1306Y2923*
X1303Y2921*
X1299Y2918*
X1296Y2915*
X1218Y2837*
X1215Y2833*
X1212Y2830*
X1210Y2827*
X1207Y2823*
X1206Y2819*
X1204Y2815*
X1203Y2811*
X1202Y2807*
X1201Y2803*
X1200Y2799*
X1200Y2795*
Y2736*
X590Y2125*
Y1614*
X787Y1417*
Y1071*
X239*
X204Y1105*
Y3535*
X12629*
Y204*
G37*
G36*
X11653Y1574D02*
X11771Y1456D01*
X11830*
X11889Y1515*
Y1692*
X11968Y1771*
X12448*
X12500Y1720*
Y1240*
X12165Y905*
X1338*
X1259Y984*
Y1433*
X1377Y1551*
Y1771*
X1456*
Y1574*
X1574Y1456*
X2716*
X2834Y1574*
Y1771*
X2913*
Y1574*
X3031Y1456*
X4173*
X4291Y1574*
Y1771*
X4370*
Y1574*
X4488Y1456*
X5629*
X5748Y1574*
Y1771*
X5826*
Y1574*
X5944Y1456*
X7086*
X7204Y1574*
Y1771*
X7283*
Y1574*
X7401Y1456*
X8543*
X8661Y1574*
Y1771*
X8740*
Y1574*
X8858Y1456*
X10000*
X10078Y1535*
X10118Y1574*
Y1771*
X10196*
Y1574*
X10314Y1456*
X11456*
X11535Y1535*
X11574Y1574*
Y1771*
X11653*
Y1574*
G37*
G36*
X2821Y744D02*
X2818Y741D01*
X2817Y741*
X2814Y742*
X2814Y744*
X2817Y748*
X2820*
X2821Y744*
G37*
G36*
X2756Y741D02*
X2753Y739D01*
X2752Y739*
X2748Y744*
X2749Y748*
X2756*
Y741*
G37*
G36*
X2888Y744D02*
X2857Y713D01*
X2856Y713*
X2854Y714*
X2853Y718*
X2883Y748*
X2887*
X2888Y744*
G37*
G36*
X3818Y725D02*
X2909D01*
X2907Y725*
X2906Y725*
X2905Y724*
X2903Y724*
X2902Y723*
X2877Y697*
X2876Y697*
X2873Y699*
X2873Y702*
X2909Y738*
X3818*
Y725*
G37*
%LNbenchy-relays-pcb-2*%
%LPC*%
G36*
X989Y1651D02*
X806D01*
X802Y1651*
X799Y1651*
X796Y1650*
X793Y1649*
X790Y1648*
X787Y1647*
X784Y1645*
X781Y1643*
X779Y1641*
X776Y1639*
X774Y1637*
X772Y1634*
X770Y1631*
X769Y1629*
X767Y1626*
X766Y1623*
X765Y1619*
X765Y1616*
X764Y1613*
X764Y1610*
X764Y1606*
X765Y1603*
X765Y1600*
X766Y1597*
X767Y1594*
X769Y1591*
X770Y1588*
X772Y1585*
X774Y1583*
X776Y1580*
X779Y1578*
X781Y1576*
X784Y1574*
X787Y1573*
X790Y1571*
X793Y1570*
X796Y1569*
X799Y1569*
X802Y1568*
X806Y1568*
X989*
X992Y1568*
X995Y1569*
X998Y1569*
X1001Y1570*
X1005Y1571*
X1007Y1573*
X1010Y1574*
X1013Y1576*
X1016Y1578*
X1018Y1580*
X1020Y1583*
X1022Y1585*
X1024Y1588*
X1026Y1591*
X1027Y1594*
X1028Y1597*
X1029Y1600*
X1030Y1603*
X1030Y1606*
X1030Y1610*
X1030Y1613*
X1030Y1616*
X1029Y1619*
X1028Y1623*
X1027Y1626*
X1026Y1629*
X1024Y1631*
X1022Y1634*
X1020Y1637*
X1018Y1639*
X1016Y1641*
X1013Y1643*
X1010Y1645*
X1007Y1647*
X1005Y1648*
X1001Y1649*
X998Y1650*
X995Y1651*
X992Y1651*
X989Y1651*
G37*
G36*
X1181Y1879D02*
X1175Y1879D01*
X1170Y1879*
X1165Y1878*
X1159Y1877*
X1154Y1876*
X1149Y1874*
X1144Y1872*
X1139Y1870*
X1134Y1868*
X1130Y1865*
X1125Y1862*
X1121Y1859*
X1117Y1855*
X1113Y1851*
X1109Y1848*
X1106Y1844*
X1103Y1839*
X1100Y1835*
X1097Y1830*
X1095Y1825*
X1092Y1821*
X1090Y1815*
X1089Y1810*
X1087Y1805*
X1086Y1800*
X1086Y1795*
X1085Y1789*
X1085Y1784*
Y1601*
X1085Y1596*
X1086Y1590*
X1086Y1585*
X1087Y1580*
X1089Y1574*
X1090Y1569*
X1092Y1564*
X1095Y1559*
X1097Y1555*
X1100Y1550*
X1103Y1546*
X1106Y1541*
X1109Y1537*
X1113Y1533*
X1117Y1530*
X1121Y1526*
X1125Y1523*
X1130Y1520*
X1134Y1517*
X1139Y1515*
X1144Y1513*
X1149Y1511*
X1154Y1509*
X1159Y1508*
X1165Y1507*
X1170Y1506*
X1175Y1506*
X1181Y1505*
X1186Y1506*
X1191Y1506*
X1197Y1507*
X1202Y1508*
X1207Y1509*
X1212Y1511*
X1217Y1513*
X1222Y1515*
X1227Y1517*
X1231Y1520*
X1236Y1523*
X1240Y1526*
X1244Y1530*
X1248Y1533*
X1252Y1537*
X1255Y1541*
X1259Y1546*
X1261Y1550*
X1264Y1555*
X1267Y1559*
X1269Y1564*
X1271Y1569*
X1272Y1574*
X1274Y1580*
X1275Y1585*
X1276Y1590*
X1276Y1596*
X1276Y1601*
Y1784*
X1276Y1789*
X1276Y1795*
X1275Y1800*
X1274Y1805*
X1272Y1810*
X1271Y1815*
X1269Y1821*
X1267Y1825*
X1264Y1830*
X1261Y1835*
X1259Y1839*
X1255Y1844*
X1252Y1848*
X1248Y1851*
X1244Y1855*
X1240Y1859*
X1236Y1862*
X1231Y1865*
X1227Y1868*
X1222Y1870*
X1217Y1872*
X1212Y1874*
X1207Y1876*
X1202Y1877*
X1197Y1878*
X1191Y1879*
X1186Y1879*
X1181Y1879*
G37*
G36*
X2874Y556D02*
X2716D01*
Y546*
X2715Y545*
X2712Y544*
X2712Y544*
X2711Y544*
X2702*
X2701Y544*
X2699Y543*
X2698Y543*
X2697Y542*
X2697Y541*
X2696Y540*
X2696Y539*
X2696Y538*
Y512*
X2696Y511*
X2696Y510*
X2694Y508*
X2693Y507*
X2691Y506*
X2690Y505*
X2689Y503*
X2688Y502*
X2687Y500*
X2687Y498*
X2686Y496*
Y495*
X2687Y493*
X2687Y491*
X2688Y489*
X2689Y488*
X2690Y486*
X2691Y485*
X2691Y485*
X2690Y481*
X2519*
X2518Y481*
X2516Y481*
X2515Y480*
X2514Y480*
X2513Y479*
X2454Y420*
X2453Y418*
X2452Y417*
X2451Y416*
X2451Y414*
X2451Y413*
Y396*
X2450Y396*
X2447Y395*
X2444Y394*
X2441Y392*
X2438Y390*
X2435Y388*
X2433Y386*
X2431Y384*
X2429Y381*
X2427Y378*
X2425Y375*
X2424Y372*
X2423Y369*
X2422Y365*
X2422Y362*
X2422Y359*
Y349*
X2422Y346*
X2422Y342*
X2423Y339*
X2424Y336*
X2425Y333*
X2427Y330*
X2429Y327*
X2431Y324*
X2433Y322*
X2435Y319*
X2438Y317*
X2441Y316*
X2444Y314*
X2447Y313*
X2450Y312*
X2453Y311*
X2457Y311*
X2460Y310*
X2463Y311*
X2467Y311*
X2470Y312*
X2473Y313*
X2476Y314*
X2479Y316*
X2482Y317*
X2485Y319*
X2487Y322*
X2490Y324*
X2492Y327*
X2493Y330*
X2495Y333*
X2496Y336*
X2497Y339*
X2498Y342*
X2498Y346*
X2499Y349*
Y359*
X2498Y362*
X2498Y365*
X2497Y369*
X2496Y372*
X2495Y375*
X2493Y378*
X2492Y381*
X2490Y384*
X2487Y386*
X2485Y388*
X2482Y390*
X2479Y392*
X2476Y394*
X2473Y395*
X2470Y396*
X2469Y396*
Y409*
X2523Y463*
X2704*
X2705Y461*
X2705Y459*
X2700Y454*
X2594*
X2593Y454*
X2591Y453*
X2590Y453*
X2588Y452*
X2587Y451*
X2552Y416*
X2551Y414*
X2550Y413*
X2550Y412*
X2549Y410*
X2549Y409*
Y396*
X2549Y396*
X2545Y395*
X2542Y394*
X2539Y392*
X2536Y390*
X2534Y388*
X2531Y386*
X2529Y384*
X2527Y381*
X2525Y378*
X2524Y375*
X2522Y372*
X2521Y369*
X2521Y365*
X2520Y362*
X2520Y359*
Y349*
X2520Y346*
X2521Y342*
X2521Y339*
X2522Y336*
X2524Y333*
X2525Y330*
X2527Y327*
X2529Y324*
X2531Y322*
X2534Y319*
X2536Y317*
X2539Y316*
X2542Y314*
X2545Y313*
X2549Y312*
X2552Y311*
X2555Y311*
X2559Y310*
X2562Y311*
X2565Y311*
X2569Y312*
X2572Y313*
X2575Y314*
X2578Y316*
X2581Y317*
X2583Y319*
X2586Y322*
X2588Y324*
X2590Y327*
X2592Y330*
X2593Y333*
X2595Y336*
X2596Y339*
X2596Y342*
X2597Y346*
X2597Y349*
Y359*
X2597Y362*
X2596Y365*
X2596Y369*
X2595Y372*
X2593Y375*
X2592Y378*
X2590Y381*
X2588Y384*
X2586Y386*
X2583Y388*
X2581Y390*
X2578Y392*
X2575Y394*
X2572Y395*
X2569Y396*
X2568Y396*
Y405*
X2598Y435*
X2701*
X2702Y431*
X2702Y430*
X2669*
X2667Y430*
X2666Y430*
X2665Y429*
X2663Y428*
X2662Y427*
X2650Y416*
X2649Y414*
X2649Y413*
X2648Y412*
X2648Y410*
X2648Y409*
Y396*
X2647Y396*
X2644Y395*
X2641Y394*
X2638Y392*
X2635Y390*
X2632Y388*
X2630Y386*
X2627Y384*
X2625Y381*
X2624Y378*
X2622Y375*
X2621Y372*
X2620Y369*
X2619Y365*
X2619Y362*
X2618Y359*
Y349*
X2619Y346*
X2619Y342*
X2620Y339*
X2621Y336*
X2622Y333*
X2624Y330*
X2625Y327*
X2627Y324*
X2630Y322*
X2632Y319*
X2635Y317*
X2638Y316*
X2641Y314*
X2644Y313*
X2647Y312*
X2650Y311*
X2654Y311*
X2657Y310*
X2660Y311*
X2664Y311*
X2667Y312*
X2670Y313*
X2673Y314*
X2676Y316*
X2679Y317*
X2682Y319*
X2684Y322*
X2686Y324*
X2689Y327*
X2690Y330*
X2692Y333*
X2693Y336*
X2694Y339*
X2695Y342*
X2695Y346*
X2695Y349*
Y359*
X2695Y362*
X2695Y365*
X2694Y369*
X2693Y372*
X2692Y375*
X2690Y378*
X2689Y381*
X2686Y384*
X2684Y386*
X2682Y388*
X2679Y390*
X2676Y392*
X2673Y394*
X2670Y395*
X2667Y396*
X2666Y396*
Y405*
X2673Y411*
X2708*
X2710Y412*
X2711Y412*
X2712Y412*
X2714Y413*
X2715Y414*
X2772Y471*
X2773Y471*
X2776Y470*
Y462*
X2749Y435*
X2748Y434*
X2747Y433*
X2747Y432*
X2746Y430*
X2746Y429*
Y396*
X2745Y396*
X2742Y395*
X2739Y394*
X2736Y392*
X2733Y390*
X2731Y388*
X2728Y386*
X2726Y384*
X2724Y381*
X2722Y378*
X2721Y375*
X2719Y372*
X2718Y369*
X2717Y365*
X2717Y362*
X2717Y359*
Y349*
X2717Y346*
X2717Y342*
X2718Y339*
X2719Y336*
X2721Y333*
X2722Y330*
X2724Y327*
X2726Y324*
X2728Y322*
X2731Y319*
X2733Y317*
X2736Y316*
X2739Y314*
X2742Y313*
X2745Y312*
X2749Y311*
X2752Y311*
X2755Y310*
X2759Y311*
X2762Y311*
X2765Y312*
X2769Y313*
X2772Y314*
X2775Y316*
X2777Y317*
X2780Y319*
X2783Y322*
X2785Y324*
X2787Y327*
X2789Y330*
X2790Y333*
X2792Y336*
X2793Y339*
X2793Y342*
X2794Y346*
X2794Y349*
Y359*
X2794Y362*
X2793Y365*
X2793Y369*
X2792Y372*
X2790Y375*
X2789Y378*
X2787Y381*
X2785Y384*
X2783Y386*
X2780Y388*
X2777Y390*
X2775Y392*
X2772Y394*
X2769Y395*
X2765Y396*
X2765Y396*
Y425*
X2792Y452*
X2793Y453*
X2793Y453*
X2794Y453*
X2796*
X2797Y453*
X2797Y453*
X2798Y452*
X2844Y405*
Y396*
X2844Y396*
X2841Y395*
X2838Y394*
X2835Y392*
X2832Y390*
X2829Y388*
X2827Y386*
X2824Y384*
X2822Y381*
X2820Y378*
X2819Y375*
X2818Y372*
X2817Y369*
X2816Y365*
X2815Y362*
X2815Y359*
Y349*
X2815Y346*
X2816Y342*
X2817Y339*
X2818Y336*
X2819Y333*
X2820Y330*
X2822Y327*
X2824Y324*
X2827Y322*
X2829Y319*
X2832Y317*
X2835Y316*
X2838Y314*
X2841Y313*
X2844Y312*
X2847Y311*
X2850Y311*
X2854Y310*
X2857Y311*
X2861Y311*
X2864Y312*
X2867Y313*
X2870Y314*
X2873Y316*
X2876Y317*
X2879Y319*
X2881Y322*
X2883Y324*
X2885Y327*
X2887Y330*
X2889Y333*
X2890Y336*
X2891Y339*
X2892Y342*
X2892Y346*
X2892Y349*
Y359*
X2892Y362*
X2892Y365*
X2891Y369*
X2890Y372*
X2889Y375*
X2887Y378*
X2885Y381*
X2883Y384*
X2881Y386*
X2879Y388*
X2876Y390*
X2873Y392*
X2870Y394*
X2867Y395*
X2864Y396*
X2863Y396*
Y409*
X2863Y410*
X2863Y412*
X2862Y413*
X2861Y414*
X2860Y416*
X2814Y462*
Y470*
X2817Y471*
X2818Y471*
X2867Y422*
X2868Y421*
X2869Y420*
X2871Y420*
X2872Y419*
X2874Y419*
X2917*
X2938Y399*
X2937Y394*
X2936Y394*
X2933Y392*
X2930Y390*
X2928Y388*
X2925Y386*
X2923Y384*
X2921Y381*
X2919Y378*
X2917Y375*
X2916Y372*
X2915Y369*
X2914Y365*
X2914Y362*
X2914Y359*
Y349*
X2914Y346*
X2914Y342*
X2915Y339*
X2916Y336*
X2917Y333*
X2919Y330*
X2921Y327*
X2923Y324*
X2925Y322*
X2928Y319*
X2930Y317*
X2933Y316*
X2936Y314*
X2939Y313*
X2942Y312*
X2946Y311*
X2949Y311*
X2952Y310*
X2956Y311*
X2959Y311*
X2962Y312*
X2965Y313*
X2969Y314*
X2972Y316*
X2974Y317*
X2977Y319*
X2979Y322*
X2982Y324*
X2984Y327*
X2986Y330*
X2987Y333*
X2988Y336*
X2989Y339*
X2990Y342*
X2991Y346*
X2991Y349*
Y359*
X2991Y362*
X2990Y365*
X2989Y369*
X2988Y372*
X2987Y375*
X2986Y378*
X2984Y381*
X2982Y384*
X2979Y386*
X2977Y388*
X2974Y390*
X2972Y392*
X2969Y394*
X2965Y395*
X2962Y396*
X2962Y396*
Y397*
X2962Y399*
X2961Y400*
X2961Y401*
X2960Y403*
X2959Y404*
X2927Y435*
X2926Y436*
X2925Y437*
X2924Y438*
X2922Y438*
X2921Y438*
X2877*
X2834Y482*
X2834Y485*
X2837Y487*
X2838Y487*
X2879Y446*
X2880Y445*
X2881Y444*
X2882Y443*
X2884Y443*
X2885Y443*
X3000*
X3041Y401*
Y396*
X3041Y396*
X3038Y395*
X3034Y394*
X3031Y392*
X3029Y390*
X3026Y388*
X3023Y386*
X3021Y384*
X3019Y381*
X3017Y378*
X3016Y375*
X3015Y372*
X3013Y369*
X3013Y365*
X3012Y362*
X3012Y359*
Y349*
X3012Y346*
X3013Y342*
X3013Y339*
X3015Y336*
X3016Y333*
X3017Y330*
X3019Y327*
X3021Y324*
X3023Y322*
X3026Y319*
X3029Y317*
X3031Y316*
X3034Y314*
X3038Y313*
X3041Y312*
X3044Y311*
X3047Y311*
X3051Y310*
X3054Y311*
X3057Y311*
X3061Y312*
X3064Y313*
X3067Y314*
X3070Y316*
X3073Y317*
X3075Y319*
X3078Y322*
X3080Y324*
X3082Y327*
X3084Y330*
X3086Y333*
X3087Y336*
X3088Y339*
X3089Y342*
X3089Y346*
X3089Y349*
Y359*
X3089Y362*
X3089Y365*
X3088Y369*
X3087Y372*
X3086Y375*
X3084Y378*
X3082Y381*
X3080Y384*
X3078Y386*
X3075Y388*
X3073Y390*
X3070Y392*
X3067Y394*
X3064Y395*
X3061Y396*
X3060Y396*
Y405*
X3060Y406*
X3060Y408*
X3059Y409*
X3058Y411*
X3057Y412*
X3010Y459*
X3009Y460*
X3008Y461*
X3006Y461*
X3005Y462*
X3003Y462*
X2892*
X2891Y463*
X2893Y467*
X3078*
X3140Y405*
Y396*
X3139Y396*
X3136Y395*
X3133Y394*
X3130Y392*
X3127Y390*
X3124Y388*
X3122Y386*
X3120Y384*
X3118Y381*
X3116Y378*
X3114Y375*
X3113Y372*
X3112Y369*
X3111Y365*
X3111Y362*
X3111Y359*
Y349*
X3111Y346*
X3111Y342*
X3112Y339*
X3113Y336*
X3114Y333*
X3116Y330*
X3118Y327*
X3120Y324*
X3122Y322*
X3124Y319*
X3127Y317*
X3130Y316*
X3133Y314*
X3136Y313*
X3139Y312*
X3142Y311*
X3146Y311*
X3149Y310*
X3152Y311*
X3156Y311*
X3159Y312*
X3162Y313*
X3165Y314*
X3168Y316*
X3171Y317*
X3174Y319*
X3176Y322*
X3179Y324*
X3181Y327*
X3182Y330*
X3184Y333*
X3185Y336*
X3186Y339*
X3187Y342*
X3187Y346*
X3188Y349*
Y359*
X3187Y362*
X3187Y365*
X3186Y369*
X3185Y372*
X3184Y375*
X3182Y378*
X3181Y381*
X3179Y384*
X3176Y386*
X3174Y388*
X3171Y390*
X3168Y392*
X3165Y394*
X3162Y395*
X3159Y396*
X3158Y396*
Y409*
X3158Y410*
X3158Y412*
X3157Y413*
X3157Y414*
X3156Y416*
X3089Y483*
X3088Y483*
X3086Y484*
X3085Y485*
X3084Y485*
X3082Y485*
X2893*
X2873Y505*
Y509*
X2873Y509*
X2874Y510*
X2874Y511*
X2874Y512*
Y538*
X2874Y539*
X2874Y540*
X2874Y541*
Y556*
G37*
G36*
X2651Y576D02*
X2606D01*
Y533*
X2620*
Y523*
X2614Y517*
X2421*
X2419Y517*
X2418Y516*
X2417Y516*
X2415Y515*
X2414Y514*
X2355Y455*
X2354Y454*
X2353Y453*
X2353Y451*
X2352Y450*
X2352Y448*
Y397*
X2333*
X2332Y397*
X2330Y397*
X2329Y396*
X2327Y395*
X2326Y394*
X2325Y393*
X2324Y392*
X2324Y390*
X2323Y389*
X2323Y387*
Y320*
X2323Y319*
X2324Y317*
X2324Y316*
X2325Y315*
X2326Y313*
X2327Y312*
X2329Y312*
X2330Y311*
X2332Y311*
X2333Y310*
X2390*
X2392Y311*
X2393Y311*
X2395Y312*
X2396Y312*
X2397Y313*
X2398Y315*
X2399Y316*
X2400Y317*
X2400Y319*
X2400Y320*
Y387*
X2400Y389*
X2400Y390*
X2399Y392*
X2398Y393*
X2397Y394*
X2396Y395*
X2395Y396*
X2393Y397*
X2392Y397*
X2390Y397*
X2371*
Y444*
X2425Y498*
X2618*
X2619Y498*
X2621Y498*
X2622Y499*
X2623Y500*
X2624Y501*
X2636Y513*
X2637Y514*
X2638Y515*
X2638Y516*
X2639Y518*
X2639Y519*
Y533*
X2651*
Y538*
X2654Y540*
X2655Y541*
X2656Y541*
X2658*
X2660Y541*
X2661Y541*
X2663Y542*
X2665Y543*
X2666Y544*
X2667Y545*
X2669Y547*
X2669Y548*
X2670Y550*
X2670Y551*
X2672Y554*
X2674Y554*
X2699*
X2700Y554*
X2702Y554*
X2703Y555*
X2704Y556*
X2704Y557*
X2705Y558*
X2705Y559*
X2705Y560*
Y569*
X2705Y570*
X2705Y571*
X2704Y572*
X2704Y573*
X2703Y574*
X2702Y575*
X2700Y575*
X2699Y575*
X2674*
X2673Y575*
X2671Y575*
X2670Y574*
X2670Y574*
X2667*
X2665Y574*
X2664Y573*
X2663Y573*
X2661Y572*
X2660Y571*
X2658Y568*
X2656*
X2655Y568*
X2654Y569*
X2651Y571*
Y576*
G37*
G36*
X3402Y580D02*
X3400D01*
X3398Y580*
X3397Y580*
X3395Y579*
X3393Y578*
X3392Y577*
X3391Y576*
X3390Y574*
X3389Y573*
X3388Y571*
X3387Y569*
X3387Y567*
Y566*
X3387Y564*
X3388Y562*
X3389Y560*
X3390Y559*
X3391Y557*
X3392Y556*
X3393Y555*
X3395Y554*
X3397Y553*
X3398Y553*
X3400Y553*
X3402*
X3404Y553*
X3406Y553*
X3407Y554*
X3408Y555*
X3628*
X3639Y544*
X3638Y540*
X3635*
X3632*
X3631*
X3517*
Y485*
X3567*
Y397*
X3554*
X3552Y397*
X3551Y397*
X3549Y396*
X3548Y395*
X3547Y394*
X3546Y393*
X3545Y392*
X3544Y390*
X3544Y389*
X3544Y387*
Y320*
X3544Y319*
X3544Y317*
X3545Y316*
X3546Y315*
X3547Y313*
X3548Y312*
X3549Y312*
X3551Y311*
X3552Y311*
X3554Y310*
X3570*
Y280*
X3530Y240*
X2016*
X1962Y294*
X1961Y295*
X1959Y296*
X1957Y297*
X1956Y297*
X1954Y297*
X1906*
Y310*
X1841*
Y261*
X1906*
Y274*
X1949*
X2003Y219*
X2004Y218*
X2006Y217*
X2008Y217*
X2009Y216*
X2011Y216*
X3535*
X3537Y216*
X3539Y217*
X3540Y217*
X3542Y218*
X3543Y219*
X3591Y267*
X3592Y268*
X3593Y270*
X3594Y271*
X3594Y273*
X3594Y275*
Y310*
X3611*
X3612Y311*
X3614Y311*
X3615Y312*
X3617Y312*
X3618Y313*
X3619Y315*
X3620Y316*
X3620Y317*
X3621Y319*
X3621Y320*
Y387*
X3621Y389*
X3620Y390*
X3620Y392*
X3619Y393*
X3618Y394*
X3617Y395*
X3615Y396*
X3614Y397*
X3612Y397*
X3611Y397*
X3597*
Y485*
X3631*
X3632*
X3635*
X3636*
X3669*
Y395*
X3667Y395*
X3664Y394*
X3661Y392*
X3659Y390*
X3656Y388*
X3653Y386*
X3651Y384*
X3649Y381*
X3647Y378*
X3646Y375*
X3644Y372*
X3643Y369*
X3643Y365*
X3642Y362*
X3642Y359*
Y349*
X3642Y346*
X3643Y342*
X3643Y339*
X3644Y336*
X3646Y333*
X3647Y330*
X3649Y327*
X3651Y324*
X3653Y322*
X3656Y319*
X3659Y317*
X3661Y316*
X3664Y314*
X3667Y313*
X3671Y312*
X3674Y311*
X3677Y311*
X3681Y310*
X3684Y311*
X3687Y311*
X3691Y312*
X3694Y313*
X3697Y314*
X3700Y316*
X3703Y317*
X3705Y319*
X3708Y322*
X3710Y324*
X3712Y327*
X3714Y330*
X3716Y333*
X3717Y336*
X3718Y339*
X3719Y342*
X3719Y346*
X3719Y349*
Y359*
X3719Y362*
X3719Y365*
X3718Y369*
X3717Y372*
X3716Y375*
X3714Y378*
X3712Y381*
X3710Y384*
X3708Y386*
X3705Y388*
X3703Y390*
X3700Y392*
X3697Y394*
X3694Y395*
X3693Y395*
Y485*
X3750*
Y540*
X3665*
Y547*
X3665Y549*
X3664Y550*
X3664Y552*
X3663Y554*
X3661Y555*
X3642Y575*
X3640Y576*
X3639Y577*
X3637Y578*
X3635Y578*
X3633Y578*
X3408*
X3407Y579*
X3406Y580*
X3404Y580*
X3402Y580*
G37*
G36*
X2133Y456D02*
X2086D01*
Y415*
X2098*
Y383*
X2077*
Y335*
X2142*
Y383*
X2122*
Y415*
X2133*
Y456*
G37*
G36*
X1897D02*
X1850D01*
Y415*
X1862*
Y383*
X1841*
Y335*
X1906*
Y383*
X1885*
Y415*
X1897*
Y456*
G37*
G36*
X11632Y3503D02*
X11627D01*
X11621Y3503*
X11615Y3503*
X11609Y3502*
X11604Y3501*
X11598Y3499*
X11592Y3498*
X11587Y3496*
X11582Y3493*
X11576Y3491*
X11571Y3488*
X11566Y3485*
X11561Y3482*
X11557Y3478*
X11552Y3475*
X11548Y3471*
X11544Y3467*
X11540Y3463*
X11536Y3458*
X11533Y3453*
X11530Y3449*
X11527Y3444*
X11524Y3438*
X11521Y3433*
X11519Y3428*
X11517Y3422*
X11516Y3417*
X11514Y3411*
X11513Y3406*
X11512Y3400*
X11512Y3394*
X11511Y3388*
Y3382*
X11512Y3377*
X11512Y3371*
X11513Y3365*
X11514Y3359*
X11516Y3354*
X11517Y3348*
X11519Y3343*
X11521Y3337*
X11524Y3332*
X11527Y3327*
X11530Y3322*
X11533Y3317*
X11536Y3313*
X11540Y3308*
X11544Y3304*
X11548Y3300*
X11552Y3296*
X11557Y3292*
X11561Y3289*
X11566Y3286*
X11571Y3283*
X11576Y3280*
X11582Y3277*
X11587Y3275*
X11592Y3273*
X11598Y3271*
X11604Y3270*
X11609Y3269*
X11615Y3268*
X11621Y3268*
X11627Y3267*
X11632*
X11638Y3268*
X11644Y3268*
X11650Y3269*
X11655Y3270*
X11661Y3271*
X11666Y3273*
X11672Y3275*
X11677Y3277*
X11683Y3280*
X11688Y3283*
X11693Y3286*
X11697Y3289*
X11702Y3292*
X11707Y3296*
X11711Y3300*
X11715Y3304*
X11719Y3308*
X11723Y3313*
X11726Y3317*
X11729Y3322*
X11732Y3327*
X11735Y3332*
X11737Y3337*
X11740Y3343*
X11742Y3348*
X11743Y3354*
X11745Y3359*
X11746Y3365*
X11747Y3371*
X11747Y3377*
X11748Y3382*
Y3388*
X11747Y3394*
X11747Y3400*
X11746Y3406*
X11745Y3411*
X11743Y3417*
X11742Y3422*
X11740Y3428*
X11737Y3433*
X11735Y3438*
X11732Y3444*
X11729Y3449*
X11726Y3453*
X11723Y3458*
X11719Y3463*
X11715Y3467*
X11711Y3471*
X11707Y3475*
X11702Y3478*
X11697Y3482*
X11693Y3485*
X11688Y3488*
X11683Y3491*
X11677Y3493*
X11672Y3496*
X11666Y3498*
X11661Y3499*
X11655Y3501*
X11650Y3502*
X11644Y3503*
X11638Y3503*
X11632Y3503*
G37*
G36*
X11128D02*
X11123D01*
X11117Y3503*
X11111Y3503*
X11105Y3502*
X11100Y3501*
X11094Y3499*
X11088Y3498*
X11083Y3496*
X11078Y3493*
X11072Y3491*
X11067Y3488*
X11062Y3485*
X11057Y3482*
X11053Y3478*
X11048Y3475*
X11044Y3471*
X11040Y3467*
X11036Y3463*
X11032Y3458*
X11029Y3453*
X11026Y3449*
X11023Y3444*
X11020Y3438*
X11017Y3433*
X11015Y3428*
X11013Y3422*
X11012Y3417*
X11010Y3411*
X11009Y3406*
X11008Y3400*
X11008Y3394*
X11007Y3388*
Y3382*
X11008Y3377*
X11008Y3371*
X11009Y3365*
X11010Y3359*
X11012Y3354*
X11013Y3348*
X11015Y3343*
X11017Y3337*
X11020Y3332*
X11023Y3327*
X11026Y3322*
X11029Y3317*
X11032Y3313*
X11036Y3308*
X11040Y3304*
X11044Y3300*
X11048Y3296*
X11053Y3292*
X11057Y3289*
X11062Y3286*
X11067Y3283*
X11072Y3280*
X11078Y3277*
X11083Y3275*
X11088Y3273*
X11094Y3271*
X11100Y3270*
X11105Y3269*
X11111Y3268*
X11117Y3268*
X11123Y3267*
X11128*
X11134Y3268*
X11140Y3268*
X11146Y3269*
X11151Y3270*
X11157Y3271*
X11163Y3273*
X11168Y3275*
X11173Y3277*
X11179Y3280*
X11184Y3283*
X11189Y3286*
X11194Y3289*
X11198Y3292*
X11203Y3296*
X11207Y3300*
X11211Y3304*
X11215Y3308*
X11219Y3313*
X11222Y3317*
X11225Y3322*
X11228Y3327*
X11231Y3332*
X11233Y3337*
X11236Y3343*
X11238Y3348*
X11239Y3354*
X11241Y3359*
X11242Y3365*
X11243Y3371*
X11243Y3377*
X11244Y3382*
Y3388*
X11243Y3394*
X11243Y3400*
X11242Y3406*
X11241Y3411*
X11239Y3417*
X11238Y3422*
X11236Y3428*
X11233Y3433*
X11231Y3438*
X11228Y3444*
X11225Y3449*
X11222Y3453*
X11219Y3458*
X11215Y3463*
X11211Y3467*
X11207Y3471*
X11203Y3475*
X11198Y3478*
X11194Y3482*
X11189Y3485*
X11184Y3488*
X11179Y3491*
X11173Y3493*
X11168Y3496*
X11163Y3498*
X11157Y3499*
X11151Y3501*
X11146Y3502*
X11140Y3503*
X11134Y3503*
X11128Y3503*
G37*
G36*
X10176D02*
X10170D01*
X10164Y3503*
X10158Y3503*
X10153Y3502*
X10147Y3501*
X10141Y3499*
X10136Y3498*
X10130Y3496*
X10125Y3493*
X10120Y3491*
X10114Y3488*
X10110Y3485*
X10105Y3482*
X10100Y3478*
X10096Y3475*
X10091Y3471*
X10087Y3467*
X10083Y3463*
X10080Y3458*
X10076Y3453*
X10073Y3449*
X10070Y3444*
X10067Y3438*
X10065Y3433*
X10063Y3428*
X10061Y3422*
X10059Y3417*
X10057Y3411*
X10056Y3406*
X10055Y3400*
X10055Y3394*
X10055Y3388*
Y3382*
X10055Y3377*
X10055Y3371*
X10056Y3365*
X10057Y3359*
X10059Y3354*
X10061Y3348*
X10063Y3343*
X10065Y3337*
X10067Y3332*
X10070Y3327*
X10073Y3322*
X10076Y3317*
X10080Y3313*
X10083Y3308*
X10087Y3304*
X10091Y3300*
X10096Y3296*
X10100Y3292*
X10105Y3289*
X10110Y3286*
X10114Y3283*
X10120Y3280*
X10125Y3277*
X10130Y3275*
X10136Y3273*
X10141Y3271*
X10147Y3270*
X10153Y3269*
X10158Y3268*
X10164Y3268*
X10170Y3267*
X10176*
X10181Y3268*
X10187Y3268*
X10193Y3269*
X10199Y3270*
X10204Y3271*
X10210Y3273*
X10215Y3275*
X10221Y3277*
X10226Y3280*
X10231Y3283*
X10236Y3286*
X10241Y3289*
X10245Y3292*
X10250Y3296*
X10254Y3300*
X10258Y3304*
X10262Y3308*
X10266Y3313*
X10269Y3317*
X10273Y3322*
X10276Y3327*
X10278Y3332*
X10281Y3337*
X10283Y3343*
X10285Y3348*
X10287Y3354*
X10288Y3359*
X10289Y3365*
X10290Y3371*
X10291Y3377*
X10291Y3382*
Y3388*
X10291Y3394*
X10290Y3400*
X10289Y3406*
X10288Y3411*
X10287Y3417*
X10285Y3422*
X10283Y3428*
X10281Y3433*
X10278Y3438*
X10276Y3444*
X10273Y3449*
X10269Y3453*
X10266Y3458*
X10262Y3463*
X10258Y3467*
X10254Y3471*
X10250Y3475*
X10245Y3478*
X10241Y3482*
X10236Y3485*
X10231Y3488*
X10226Y3491*
X10221Y3493*
X10215Y3496*
X10210Y3498*
X10204Y3499*
X10199Y3501*
X10193Y3502*
X10187Y3503*
X10181Y3503*
X10176Y3503*
G37*
G36*
X9672D02*
X9666D01*
X9660Y3503*
X9654Y3503*
X9649Y3502*
X9643Y3501*
X9637Y3499*
X9632Y3498*
X9626Y3496*
X9621Y3493*
X9616Y3491*
X9611Y3488*
X9606Y3485*
X9601Y3482*
X9596Y3478*
X9592Y3475*
X9587Y3471*
X9583Y3467*
X9579Y3463*
X9576Y3458*
X9572Y3453*
X9569Y3449*
X9566Y3444*
X9563Y3438*
X9561Y3433*
X9559Y3428*
X9557Y3422*
X9555Y3417*
X9554Y3411*
X9552Y3406*
X9552Y3400*
X9551Y3394*
X9551Y3388*
Y3382*
X9551Y3377*
X9552Y3371*
X9552Y3365*
X9554Y3359*
X9555Y3354*
X9557Y3348*
X9559Y3343*
X9561Y3337*
X9563Y3332*
X9566Y3327*
X9569Y3322*
X9572Y3317*
X9576Y3313*
X9579Y3308*
X9583Y3304*
X9587Y3300*
X9592Y3296*
X9596Y3292*
X9601Y3289*
X9606Y3286*
X9611Y3283*
X9616Y3280*
X9621Y3277*
X9626Y3275*
X9632Y3273*
X9637Y3271*
X9643Y3270*
X9649Y3269*
X9654Y3268*
X9660Y3268*
X9666Y3267*
X9672*
X9677Y3268*
X9683Y3268*
X9689Y3269*
X9695Y3270*
X9700Y3271*
X9706Y3273*
X9711Y3275*
X9717Y3277*
X9722Y3280*
X9727Y3283*
X9732Y3286*
X9737Y3289*
X9741Y3292*
X9746Y3296*
X9750Y3300*
X9754Y3304*
X9758Y3308*
X9762Y3313*
X9765Y3317*
X9769Y3322*
X9772Y3327*
X9774Y3332*
X9777Y3337*
X9779Y3343*
X9781Y3348*
X9783Y3354*
X9784Y3359*
X9785Y3365*
X9786Y3371*
X9787Y3377*
X9787Y3382*
Y3388*
X9787Y3394*
X9786Y3400*
X9785Y3406*
X9784Y3411*
X9783Y3417*
X9781Y3422*
X9779Y3428*
X9777Y3433*
X9774Y3438*
X9772Y3444*
X9769Y3449*
X9765Y3453*
X9762Y3458*
X9758Y3463*
X9754Y3467*
X9750Y3471*
X9746Y3475*
X9741Y3478*
X9737Y3482*
X9732Y3485*
X9727Y3488*
X9722Y3491*
X9717Y3493*
X9711Y3496*
X9706Y3498*
X9700Y3499*
X9695Y3501*
X9689Y3502*
X9683Y3503*
X9677Y3503*
X9672Y3503*
G37*
G36*
X8719D02*
X8713D01*
X8707Y3503*
X8702Y3503*
X8696Y3502*
X8690Y3501*
X8685Y3499*
X8679Y3498*
X8674Y3496*
X8668Y3493*
X8663Y3491*
X8658Y3488*
X8653Y3485*
X8648Y3482*
X8643Y3478*
X8639Y3475*
X8635Y3471*
X8630Y3467*
X8627Y3463*
X8623Y3458*
X8619Y3453*
X8616Y3449*
X8613Y3444*
X8611Y3438*
X8608Y3433*
X8606Y3428*
X8604Y3422*
X8602Y3417*
X8601Y3411*
X8600Y3406*
X8599Y3400*
X8598Y3394*
X8598Y3388*
Y3382*
X8598Y3377*
X8599Y3371*
X8600Y3365*
X8601Y3359*
X8602Y3354*
X8604Y3348*
X8606Y3343*
X8608Y3337*
X8611Y3332*
X8613Y3327*
X8616Y3322*
X8619Y3317*
X8623Y3313*
X8627Y3308*
X8630Y3304*
X8635Y3300*
X8639Y3296*
X8643Y3292*
X8648Y3289*
X8653Y3286*
X8658Y3283*
X8663Y3280*
X8668Y3277*
X8674Y3275*
X8679Y3273*
X8685Y3271*
X8690Y3270*
X8696Y3269*
X8702Y3268*
X8707Y3268*
X8713Y3267*
X8719*
X8725Y3268*
X8731Y3268*
X8736Y3269*
X8742Y3270*
X8748Y3271*
X8753Y3273*
X8759Y3275*
X8764Y3277*
X8769Y3280*
X8774Y3283*
X8779Y3286*
X8784Y3289*
X8789Y3292*
X8793Y3296*
X8798Y3300*
X8802Y3304*
X8806Y3308*
X8809Y3313*
X8813Y3317*
X8816Y3322*
X8819Y3327*
X8822Y3332*
X8824Y3337*
X8826Y3343*
X8828Y3348*
X8830Y3354*
X8831Y3359*
X8832Y3365*
X8833Y3371*
X8834Y3377*
X8834Y3382*
Y3388*
X8834Y3394*
X8833Y3400*
X8832Y3406*
X8831Y3411*
X8830Y3417*
X8828Y3422*
X8826Y3428*
X8824Y3433*
X8822Y3438*
X8819Y3444*
X8816Y3449*
X8813Y3453*
X8809Y3458*
X8806Y3463*
X8802Y3467*
X8798Y3471*
X8793Y3475*
X8789Y3478*
X8784Y3482*
X8779Y3485*
X8774Y3488*
X8769Y3491*
X8764Y3493*
X8759Y3496*
X8753Y3498*
X8748Y3499*
X8742Y3501*
X8736Y3502*
X8731Y3503*
X8725Y3503*
X8719Y3503*
G37*
G36*
X8215D02*
X8209D01*
X8203Y3503*
X8198Y3503*
X8192Y3502*
X8186Y3501*
X8181Y3499*
X8175Y3498*
X8170Y3496*
X8164Y3493*
X8159Y3491*
X8154Y3488*
X8149Y3485*
X8144Y3482*
X8139Y3478*
X8135Y3475*
X8131Y3471*
X8127Y3467*
X8123Y3463*
X8119Y3458*
X8116Y3453*
X8112Y3449*
X8109Y3444*
X8107Y3438*
X8104Y3433*
X8102Y3428*
X8100Y3422*
X8098Y3417*
X8097Y3411*
X8096Y3406*
X8095Y3400*
X8094Y3394*
X8094Y3388*
Y3382*
X8094Y3377*
X8095Y3371*
X8096Y3365*
X8097Y3359*
X8098Y3354*
X8100Y3348*
X8102Y3343*
X8104Y3337*
X8107Y3332*
X8109Y3327*
X8112Y3322*
X8116Y3317*
X8119Y3313*
X8123Y3308*
X8127Y3304*
X8131Y3300*
X8135Y3296*
X8139Y3292*
X8144Y3289*
X8149Y3286*
X8154Y3283*
X8159Y3280*
X8164Y3277*
X8170Y3275*
X8175Y3273*
X8181Y3271*
X8186Y3270*
X8192Y3269*
X8198Y3268*
X8203Y3268*
X8209Y3267*
X8215*
X8221Y3268*
X8227Y3268*
X8232Y3269*
X8238Y3270*
X8244Y3271*
X8249Y3273*
X8255Y3275*
X8260Y3277*
X8265Y3280*
X8270Y3283*
X8275Y3286*
X8280Y3289*
X8285Y3292*
X8289Y3296*
X8294Y3300*
X8298Y3304*
X8302Y3308*
X8305Y3313*
X8309Y3317*
X8312Y3322*
X8315Y3327*
X8318Y3332*
X8320Y3337*
X8322Y3343*
X8324Y3348*
X8326Y3354*
X8327Y3359*
X8329Y3365*
X8329Y3371*
X8330Y3377*
X8330Y3382*
Y3388*
X8330Y3394*
X8329Y3400*
X8329Y3406*
X8327Y3411*
X8326Y3417*
X8324Y3422*
X8322Y3428*
X8320Y3433*
X8318Y3438*
X8315Y3444*
X8312Y3449*
X8309Y3453*
X8305Y3458*
X8302Y3463*
X8298Y3467*
X8294Y3471*
X8289Y3475*
X8285Y3478*
X8280Y3482*
X8275Y3485*
X8270Y3488*
X8265Y3491*
X8260Y3493*
X8255Y3496*
X8249Y3498*
X8244Y3499*
X8238Y3501*
X8232Y3502*
X8227Y3503*
X8221Y3503*
X8215Y3503*
G37*
G36*
X7262D02*
X7256D01*
X7251Y3503*
X7245Y3503*
X7239Y3502*
X7233Y3501*
X7228Y3499*
X7222Y3498*
X7217Y3496*
X7211Y3493*
X7206Y3491*
X7201Y3488*
X7196Y3485*
X7191Y3482*
X7187Y3478*
X7182Y3475*
X7178Y3471*
X7174Y3467*
X7170Y3463*
X7166Y3458*
X7163Y3453*
X7160Y3449*
X7157Y3444*
X7154Y3438*
X7151Y3433*
X7149Y3428*
X7147Y3422*
X7145Y3417*
X7144Y3411*
X7143Y3406*
X7142Y3400*
X7142Y3394*
X7141Y3388*
Y3382*
X7142Y3377*
X7142Y3371*
X7143Y3365*
X7144Y3359*
X7145Y3354*
X7147Y3348*
X7149Y3343*
X7151Y3337*
X7154Y3332*
X7157Y3327*
X7160Y3322*
X7163Y3317*
X7166Y3313*
X7170Y3308*
X7174Y3304*
X7178Y3300*
X7182Y3296*
X7187Y3292*
X7191Y3289*
X7196Y3286*
X7201Y3283*
X7206Y3280*
X7211Y3277*
X7217Y3275*
X7222Y3273*
X7228Y3271*
X7233Y3270*
X7239Y3269*
X7245Y3268*
X7251Y3268*
X7256Y3267*
X7262*
X7268Y3268*
X7274Y3268*
X7280Y3269*
X7285Y3270*
X7291Y3271*
X7296Y3273*
X7302Y3275*
X7307Y3277*
X7312Y3280*
X7318Y3283*
X7323Y3286*
X7327Y3289*
X7332Y3292*
X7337Y3296*
X7341Y3300*
X7345Y3304*
X7349Y3308*
X7352Y3313*
X7356Y3317*
X7359Y3322*
X7362Y3327*
X7365Y3332*
X7367Y3337*
X7370Y3343*
X7372Y3348*
X7373Y3354*
X7375Y3359*
X7376Y3365*
X7377Y3371*
X7377Y3377*
X7377Y3382*
Y3388*
X7377Y3394*
X7377Y3400*
X7376Y3406*
X7375Y3411*
X7373Y3417*
X7372Y3422*
X7370Y3428*
X7367Y3433*
X7365Y3438*
X7362Y3444*
X7359Y3449*
X7356Y3453*
X7352Y3458*
X7349Y3463*
X7345Y3467*
X7341Y3471*
X7337Y3475*
X7332Y3478*
X7327Y3482*
X7323Y3485*
X7318Y3488*
X7312Y3491*
X7307Y3493*
X7302Y3496*
X7296Y3498*
X7291Y3499*
X7285Y3501*
X7280Y3502*
X7274Y3503*
X7268Y3503*
X7262Y3503*
G37*
G36*
X6758D02*
X6753D01*
X6747Y3503*
X6741Y3503*
X6735Y3502*
X6730Y3501*
X6724Y3499*
X6718Y3498*
X6713Y3496*
X6708Y3493*
X6702Y3491*
X6697Y3488*
X6692Y3485*
X6687Y3482*
X6683Y3478*
X6678Y3475*
X6674Y3471*
X6670Y3467*
X6666Y3463*
X6662Y3458*
X6659Y3453*
X6656Y3449*
X6653Y3444*
X6650Y3438*
X6647Y3433*
X6645Y3428*
X6643Y3422*
X6642Y3417*
X6640Y3411*
X6639Y3406*
X6638Y3400*
X6638Y3394*
X6637Y3388*
Y3382*
X6638Y3377*
X6638Y3371*
X6639Y3365*
X6640Y3359*
X6642Y3354*
X6643Y3348*
X6645Y3343*
X6647Y3337*
X6650Y3332*
X6653Y3327*
X6656Y3322*
X6659Y3317*
X6662Y3313*
X6666Y3308*
X6670Y3304*
X6674Y3300*
X6678Y3296*
X6683Y3292*
X6687Y3289*
X6692Y3286*
X6697Y3283*
X6702Y3280*
X6708Y3277*
X6713Y3275*
X6718Y3273*
X6724Y3271*
X6730Y3270*
X6735Y3269*
X6741Y3268*
X6747Y3268*
X6753Y3267*
X6758*
X6764Y3268*
X6770Y3268*
X6776Y3269*
X6781Y3270*
X6787Y3271*
X6792Y3273*
X6798Y3275*
X6803Y3277*
X6809Y3280*
X6814Y3283*
X6819Y3286*
X6823Y3289*
X6828Y3292*
X6833Y3296*
X6837Y3300*
X6841Y3304*
X6845Y3308*
X6849Y3313*
X6852Y3317*
X6855Y3322*
X6858Y3327*
X6861Y3332*
X6863Y3337*
X6866Y3343*
X6868Y3348*
X6869Y3354*
X6871Y3359*
X6872Y3365*
X6873Y3371*
X6873Y3377*
X6874Y3382*
Y3388*
X6873Y3394*
X6873Y3400*
X6872Y3406*
X6871Y3411*
X6869Y3417*
X6868Y3422*
X6866Y3428*
X6863Y3433*
X6861Y3438*
X6858Y3444*
X6855Y3449*
X6852Y3453*
X6849Y3458*
X6845Y3463*
X6841Y3467*
X6837Y3471*
X6833Y3475*
X6828Y3478*
X6823Y3482*
X6819Y3485*
X6814Y3488*
X6809Y3491*
X6803Y3493*
X6798Y3496*
X6792Y3498*
X6787Y3499*
X6781Y3501*
X6776Y3502*
X6770Y3503*
X6764Y3503*
X6758Y3503*
G37*
G36*
X5806D02*
X5800D01*
X5794Y3503*
X5788Y3503*
X5782Y3502*
X5777Y3501*
X5771Y3499*
X5766Y3498*
X5760Y3496*
X5755Y3493*
X5750Y3491*
X5744Y3488*
X5739Y3485*
X5735Y3482*
X5730Y3478*
X5725Y3475*
X5721Y3471*
X5717Y3467*
X5713Y3463*
X5710Y3458*
X5706Y3453*
X5703Y3449*
X5700Y3444*
X5697Y3438*
X5695Y3433*
X5692Y3428*
X5690Y3422*
X5689Y3417*
X5687Y3411*
X5686Y3406*
X5685Y3400*
X5685Y3394*
X5685Y3388*
Y3382*
X5685Y3377*
X5685Y3371*
X5686Y3365*
X5687Y3359*
X5689Y3354*
X5690Y3348*
X5692Y3343*
X5695Y3337*
X5697Y3332*
X5700Y3327*
X5703Y3322*
X5706Y3317*
X5710Y3313*
X5713Y3308*
X5717Y3304*
X5721Y3300*
X5725Y3296*
X5730Y3292*
X5735Y3289*
X5739Y3286*
X5744Y3283*
X5750Y3280*
X5755Y3277*
X5760Y3275*
X5766Y3273*
X5771Y3271*
X5777Y3270*
X5782Y3269*
X5788Y3268*
X5794Y3268*
X5800Y3267*
X5806*
X5811Y3268*
X5817Y3268*
X5823Y3269*
X5829Y3270*
X5834Y3271*
X5840Y3273*
X5845Y3275*
X5851Y3277*
X5856Y3280*
X5861Y3283*
X5866Y3286*
X5871Y3289*
X5875Y3292*
X5880Y3296*
X5884Y3300*
X5888Y3304*
X5892Y3308*
X5896Y3313*
X5899Y3317*
X5902Y3322*
X5905Y3327*
X5908Y3332*
X5911Y3337*
X5913Y3343*
X5915Y3348*
X5917Y3354*
X5918Y3359*
X5919Y3365*
X5920Y3371*
X5920Y3377*
X5921Y3382*
Y3388*
X5920Y3394*
X5920Y3400*
X5919Y3406*
X5918Y3411*
X5917Y3417*
X5915Y3422*
X5913Y3428*
X5911Y3433*
X5908Y3438*
X5905Y3444*
X5902Y3449*
X5899Y3453*
X5896Y3458*
X5892Y3463*
X5888Y3467*
X5884Y3471*
X5880Y3475*
X5875Y3478*
X5871Y3482*
X5866Y3485*
X5861Y3488*
X5856Y3491*
X5851Y3493*
X5845Y3496*
X5840Y3498*
X5834Y3499*
X5829Y3501*
X5823Y3502*
X5817Y3503*
X5811Y3503*
X5806Y3503*
G37*
G36*
X5302D02*
X5296D01*
X5290Y3503*
X5284Y3503*
X5279Y3502*
X5273Y3501*
X5267Y3499*
X5262Y3498*
X5256Y3496*
X5251Y3493*
X5246Y3491*
X5240Y3488*
X5236Y3485*
X5231Y3482*
X5226Y3478*
X5222Y3475*
X5217Y3471*
X5213Y3467*
X5209Y3463*
X5206Y3458*
X5202Y3453*
X5199Y3449*
X5196Y3444*
X5193Y3438*
X5191Y3433*
X5188Y3428*
X5187Y3422*
X5185Y3417*
X5183Y3411*
X5182Y3406*
X5181Y3400*
X5181Y3394*
X5181Y3388*
Y3382*
X5181Y3377*
X5181Y3371*
X5182Y3365*
X5183Y3359*
X5185Y3354*
X5187Y3348*
X5188Y3343*
X5191Y3337*
X5193Y3332*
X5196Y3327*
X5199Y3322*
X5202Y3317*
X5206Y3313*
X5209Y3308*
X5213Y3304*
X5217Y3300*
X5222Y3296*
X5226Y3292*
X5231Y3289*
X5236Y3286*
X5240Y3283*
X5246Y3280*
X5251Y3277*
X5256Y3275*
X5262Y3273*
X5267Y3271*
X5273Y3270*
X5279Y3269*
X5284Y3268*
X5290Y3268*
X5296Y3267*
X5302*
X5307Y3268*
X5313Y3268*
X5319Y3269*
X5325Y3270*
X5330Y3271*
X5336Y3273*
X5341Y3275*
X5347Y3277*
X5352Y3280*
X5357Y3283*
X5362Y3286*
X5367Y3289*
X5371Y3292*
X5376Y3296*
X5380Y3300*
X5384Y3304*
X5388Y3308*
X5392Y3313*
X5395Y3317*
X5399Y3322*
X5402Y3327*
X5404Y3332*
X5407Y3337*
X5409Y3343*
X5411Y3348*
X5413Y3354*
X5414Y3359*
X5415Y3365*
X5416Y3371*
X5417Y3377*
X5417Y3382*
Y3388*
X5417Y3394*
X5416Y3400*
X5415Y3406*
X5414Y3411*
X5413Y3417*
X5411Y3422*
X5409Y3428*
X5407Y3433*
X5404Y3438*
X5402Y3444*
X5399Y3449*
X5395Y3453*
X5392Y3458*
X5388Y3463*
X5384Y3467*
X5380Y3471*
X5376Y3475*
X5371Y3478*
X5367Y3482*
X5362Y3485*
X5357Y3488*
X5352Y3491*
X5347Y3493*
X5341Y3496*
X5336Y3498*
X5330Y3499*
X5325Y3501*
X5319Y3502*
X5313Y3503*
X5307Y3503*
X5302Y3503*
G37*
G36*
X4349D02*
X4343D01*
X4337Y3503*
X4331Y3503*
X4326Y3502*
X4320Y3501*
X4314Y3499*
X4309Y3498*
X4303Y3496*
X4298Y3493*
X4293Y3491*
X4288Y3488*
X4283Y3485*
X4278Y3482*
X4273Y3478*
X4269Y3475*
X4264Y3471*
X4260Y3467*
X4257Y3463*
X4253Y3458*
X4249Y3453*
X4246Y3449*
X4243Y3444*
X4240Y3438*
X4238Y3433*
X4236Y3428*
X4234Y3422*
X4232Y3417*
X4231Y3411*
X4230Y3406*
X4229Y3400*
X4228Y3394*
X4228Y3388*
Y3382*
X4228Y3377*
X4229Y3371*
X4230Y3365*
X4231Y3359*
X4232Y3354*
X4234Y3348*
X4236Y3343*
X4238Y3337*
X4240Y3332*
X4243Y3327*
X4246Y3322*
X4249Y3317*
X4253Y3313*
X4257Y3308*
X4260Y3304*
X4264Y3300*
X4269Y3296*
X4273Y3292*
X4278Y3289*
X4283Y3286*
X4288Y3283*
X4293Y3280*
X4298Y3277*
X4303Y3275*
X4309Y3273*
X4314Y3271*
X4320Y3270*
X4326Y3269*
X4331Y3268*
X4337Y3268*
X4343Y3267*
X4349*
X4355Y3268*
X4360Y3268*
X4366Y3269*
X4372Y3270*
X4377Y3271*
X4383Y3273*
X4388Y3275*
X4394Y3277*
X4399Y3280*
X4404Y3283*
X4409Y3286*
X4414Y3289*
X4419Y3292*
X4423Y3296*
X4427Y3300*
X4432Y3304*
X4435Y3308*
X4439Y3313*
X4443Y3317*
X4446Y3322*
X4449Y3327*
X4451Y3332*
X4454Y3337*
X4456Y3343*
X4458Y3348*
X4460Y3354*
X4461Y3359*
X4462Y3365*
X4463Y3371*
X4464Y3377*
X4464Y3382*
Y3388*
X4464Y3394*
X4463Y3400*
X4462Y3406*
X4461Y3411*
X4460Y3417*
X4458Y3422*
X4456Y3428*
X4454Y3433*
X4451Y3438*
X4449Y3444*
X4446Y3449*
X4443Y3453*
X4439Y3458*
X4435Y3463*
X4432Y3467*
X4427Y3471*
X4423Y3475*
X4419Y3478*
X4414Y3482*
X4409Y3485*
X4404Y3488*
X4399Y3491*
X4394Y3493*
X4388Y3496*
X4383Y3498*
X4377Y3499*
X4372Y3501*
X4366Y3502*
X4360Y3503*
X4355Y3503*
X4349Y3503*
G37*
G36*
X3845D02*
X3839D01*
X3833Y3503*
X3828Y3503*
X3822Y3502*
X3816Y3501*
X3811Y3499*
X3805Y3498*
X3800Y3496*
X3794Y3493*
X3789Y3491*
X3784Y3488*
X3779Y3485*
X3774Y3482*
X3769Y3478*
X3765Y3475*
X3761Y3471*
X3756Y3467*
X3753Y3463*
X3749Y3458*
X3745Y3453*
X3742Y3449*
X3739Y3444*
X3736Y3438*
X3734Y3433*
X3732Y3428*
X3730Y3422*
X3728Y3417*
X3727Y3411*
X3726Y3406*
X3725Y3400*
X3724Y3394*
X3724Y3388*
Y3382*
X3724Y3377*
X3725Y3371*
X3726Y3365*
X3727Y3359*
X3728Y3354*
X3730Y3348*
X3732Y3343*
X3734Y3337*
X3736Y3332*
X3739Y3327*
X3742Y3322*
X3745Y3317*
X3749Y3313*
X3753Y3308*
X3756Y3304*
X3761Y3300*
X3765Y3296*
X3769Y3292*
X3774Y3289*
X3779Y3286*
X3784Y3283*
X3789Y3280*
X3794Y3277*
X3800Y3275*
X3805Y3273*
X3811Y3271*
X3816Y3270*
X3822Y3269*
X3828Y3268*
X3833Y3268*
X3839Y3267*
X3845*
X3851Y3268*
X3856Y3268*
X3862Y3269*
X3868Y3270*
X3874Y3271*
X3879Y3273*
X3885Y3275*
X3890Y3277*
X3895Y3280*
X3900Y3283*
X3905Y3286*
X3910Y3289*
X3915Y3292*
X3919Y3296*
X3923Y3300*
X3928Y3304*
X3931Y3308*
X3935Y3313*
X3939Y3317*
X3942Y3322*
X3945Y3327*
X3948Y3332*
X3950Y3337*
X3952Y3343*
X3954Y3348*
X3956Y3354*
X3957Y3359*
X3958Y3365*
X3959Y3371*
X3960Y3377*
X3960Y3382*
Y3388*
X3960Y3394*
X3959Y3400*
X3958Y3406*
X3957Y3411*
X3956Y3417*
X3954Y3422*
X3952Y3428*
X3950Y3433*
X3948Y3438*
X3945Y3444*
X3942Y3449*
X3939Y3453*
X3935Y3458*
X3931Y3463*
X3928Y3467*
X3923Y3471*
X3919Y3475*
X3915Y3478*
X3910Y3482*
X3905Y3485*
X3900Y3488*
X3895Y3491*
X3890Y3493*
X3885Y3496*
X3879Y3498*
X3874Y3499*
X3868Y3501*
X3862Y3502*
X3856Y3503*
X3851Y3503*
X3845Y3503*
G37*
G36*
X2892D02*
X2886D01*
X2881Y3503*
X2875Y3503*
X2869Y3502*
X2863Y3501*
X2858Y3499*
X2852Y3498*
X2847Y3496*
X2841Y3493*
X2836Y3491*
X2831Y3488*
X2826Y3485*
X2821Y3482*
X2817Y3478*
X2812Y3475*
X2808Y3471*
X2804Y3467*
X2800Y3463*
X2796Y3458*
X2793Y3453*
X2789Y3449*
X2786Y3444*
X2784Y3438*
X2781Y3433*
X2779Y3428*
X2777Y3422*
X2775Y3417*
X2774Y3411*
X2773Y3406*
X2772Y3400*
X2771Y3394*
X2771Y3388*
Y3382*
X2771Y3377*
X2772Y3371*
X2773Y3365*
X2774Y3359*
X2775Y3354*
X2777Y3348*
X2779Y3343*
X2781Y3337*
X2784Y3332*
X2786Y3327*
X2789Y3322*
X2793Y3317*
X2796Y3313*
X2800Y3308*
X2804Y3304*
X2808Y3300*
X2812Y3296*
X2817Y3292*
X2821Y3289*
X2826Y3286*
X2831Y3283*
X2836Y3280*
X2841Y3277*
X2847Y3275*
X2852Y3273*
X2858Y3271*
X2863Y3270*
X2869Y3269*
X2875Y3268*
X2881Y3268*
X2886Y3267*
X2892*
X2898Y3268*
X2904Y3268*
X2909Y3269*
X2915Y3270*
X2921Y3271*
X2926Y3273*
X2932Y3275*
X2937Y3277*
X2942Y3280*
X2948Y3283*
X2952Y3286*
X2957Y3289*
X2962Y3292*
X2966Y3296*
X2971Y3300*
X2975Y3304*
X2979Y3308*
X2982Y3313*
X2986Y3317*
X2989Y3322*
X2992Y3327*
X2995Y3332*
X2997Y3337*
X2999Y3343*
X3001Y3348*
X3003Y3354*
X3005Y3359*
X3006Y3365*
X3007Y3371*
X3007Y3377*
X3007Y3382*
Y3388*
X3007Y3394*
X3007Y3400*
X3006Y3406*
X3005Y3411*
X3003Y3417*
X3001Y3422*
X2999Y3428*
X2997Y3433*
X2995Y3438*
X2992Y3444*
X2989Y3449*
X2986Y3453*
X2982Y3458*
X2979Y3463*
X2975Y3467*
X2971Y3471*
X2966Y3475*
X2962Y3478*
X2957Y3482*
X2952Y3485*
X2948Y3488*
X2942Y3491*
X2937Y3493*
X2932Y3496*
X2926Y3498*
X2921Y3499*
X2915Y3501*
X2909Y3502*
X2904Y3503*
X2898Y3503*
X2892Y3503*
G37*
G36*
X2388D02*
X2382D01*
X2377Y3503*
X2371Y3503*
X2365Y3502*
X2359Y3501*
X2354Y3499*
X2348Y3498*
X2343Y3496*
X2337Y3493*
X2332Y3491*
X2327Y3488*
X2322Y3485*
X2317Y3482*
X2313Y3478*
X2308Y3475*
X2304Y3471*
X2300Y3467*
X2296Y3463*
X2292Y3458*
X2289Y3453*
X2286Y3449*
X2283Y3444*
X2280Y3438*
X2277Y3433*
X2275Y3428*
X2273Y3422*
X2271Y3417*
X2270Y3411*
X2269Y3406*
X2268Y3400*
X2268Y3394*
X2267Y3388*
Y3382*
X2268Y3377*
X2268Y3371*
X2269Y3365*
X2270Y3359*
X2271Y3354*
X2273Y3348*
X2275Y3343*
X2277Y3337*
X2280Y3332*
X2283Y3327*
X2286Y3322*
X2289Y3317*
X2292Y3313*
X2296Y3308*
X2300Y3304*
X2304Y3300*
X2308Y3296*
X2313Y3292*
X2317Y3289*
X2322Y3286*
X2327Y3283*
X2332Y3280*
X2337Y3277*
X2343Y3275*
X2348Y3273*
X2354Y3271*
X2359Y3270*
X2365Y3269*
X2371Y3268*
X2377Y3268*
X2382Y3267*
X2388*
X2394Y3268*
X2400Y3268*
X2406Y3269*
X2411Y3270*
X2417Y3271*
X2422Y3273*
X2428Y3275*
X2433Y3277*
X2438Y3280*
X2444Y3283*
X2449Y3286*
X2453Y3289*
X2458Y3292*
X2463Y3296*
X2467Y3300*
X2471Y3304*
X2475Y3308*
X2478Y3313*
X2482Y3317*
X2485Y3322*
X2488Y3327*
X2491Y3332*
X2493Y3337*
X2496Y3343*
X2498Y3348*
X2499Y3354*
X2501Y3359*
X2502Y3365*
X2503Y3371*
X2503Y3377*
X2503Y3382*
Y3388*
X2503Y3394*
X2503Y3400*
X2502Y3406*
X2501Y3411*
X2499Y3417*
X2498Y3422*
X2496Y3428*
X2493Y3433*
X2491Y3438*
X2488Y3444*
X2485Y3449*
X2482Y3453*
X2478Y3458*
X2475Y3463*
X2471Y3467*
X2467Y3471*
X2463Y3475*
X2458Y3478*
X2453Y3482*
X2449Y3485*
X2444Y3488*
X2438Y3491*
X2433Y3493*
X2428Y3496*
X2422Y3498*
X2417Y3499*
X2411Y3501*
X2406Y3502*
X2400Y3503*
X2394Y3503*
X2388Y3503*
G37*
G36*
X1435D02*
X1430D01*
X1424Y3503*
X1418Y3503*
X1412Y3502*
X1407Y3501*
X1401Y3499*
X1396Y3498*
X1390Y3496*
X1385Y3493*
X1379Y3491*
X1374Y3488*
X1369Y3485*
X1365Y3482*
X1360Y3478*
X1355Y3475*
X1351Y3471*
X1347Y3467*
X1343Y3463*
X1339Y3458*
X1336Y3453*
X1333Y3449*
X1330Y3444*
X1327Y3438*
X1325Y3433*
X1322Y3428*
X1320Y3422*
X1319Y3417*
X1317Y3411*
X1316Y3406*
X1315Y3400*
X1315Y3394*
X1314Y3388*
Y3382*
X1315Y3377*
X1315Y3371*
X1316Y3365*
X1317Y3359*
X1319Y3354*
X1320Y3348*
X1322Y3343*
X1325Y3337*
X1327Y3332*
X1330Y3327*
X1333Y3322*
X1336Y3317*
X1339Y3313*
X1343Y3308*
X1347Y3304*
X1351Y3300*
X1355Y3296*
X1360Y3292*
X1365Y3289*
X1369Y3286*
X1374Y3283*
X1379Y3280*
X1385Y3277*
X1390Y3275*
X1396Y3273*
X1401Y3271*
X1407Y3270*
X1412Y3269*
X1418Y3268*
X1424Y3268*
X1430Y3267*
X1435*
X1441Y3268*
X1447Y3268*
X1453Y3269*
X1458Y3270*
X1464Y3271*
X1470Y3273*
X1475Y3275*
X1480Y3277*
X1486Y3280*
X1491Y3283*
X1496Y3286*
X1501Y3289*
X1505Y3292*
X1510Y3296*
X1514Y3300*
X1518Y3304*
X1522Y3308*
X1526Y3313*
X1529Y3317*
X1532Y3322*
X1535Y3327*
X1538Y3332*
X1541Y3337*
X1543Y3343*
X1545Y3348*
X1546Y3354*
X1548Y3359*
X1549Y3365*
X1550Y3371*
X1550Y3377*
X1551Y3382*
Y3388*
X1550Y3394*
X1550Y3400*
X1549Y3406*
X1548Y3411*
X1546Y3417*
X1545Y3422*
X1543Y3428*
X1541Y3433*
X1538Y3438*
X1535Y3444*
X1532Y3449*
X1529Y3453*
X1526Y3458*
X1522Y3463*
X1518Y3467*
X1514Y3471*
X1510Y3475*
X1505Y3478*
X1501Y3482*
X1496Y3485*
X1491Y3488*
X1486Y3491*
X1480Y3493*
X1475Y3496*
X1470Y3498*
X1464Y3499*
X1458Y3501*
X1453Y3502*
X1447Y3503*
X1441Y3503*
X1435Y3503*
G37*
G36*
X932D02*
X926D01*
X920Y3503*
X914Y3503*
X908Y3502*
X903Y3501*
X897Y3499*
X892Y3498*
X886Y3496*
X881Y3493*
X876Y3491*
X870Y3488*
X865Y3485*
X861Y3482*
X856Y3478*
X851Y3475*
X847Y3471*
X843Y3467*
X839Y3463*
X835Y3458*
X832Y3453*
X829Y3449*
X826Y3444*
X823Y3438*
X821Y3433*
X818Y3428*
X816Y3422*
X815Y3417*
X813Y3411*
X812Y3406*
X811Y3400*
X811Y3394*
X811Y3388*
Y3382*
X811Y3377*
X811Y3371*
X812Y3365*
X813Y3359*
X815Y3354*
X816Y3348*
X818Y3343*
X821Y3337*
X823Y3332*
X826Y3327*
X829Y3322*
X832Y3317*
X835Y3313*
X839Y3308*
X843Y3304*
X847Y3300*
X851Y3296*
X856Y3292*
X861Y3289*
X865Y3286*
X870Y3283*
X876Y3280*
X881Y3277*
X886Y3275*
X892Y3273*
X897Y3271*
X903Y3270*
X908Y3269*
X914Y3268*
X920Y3268*
X926Y3267*
X932*
X937Y3268*
X943Y3268*
X949Y3269*
X955Y3270*
X960Y3271*
X966Y3273*
X971Y3275*
X977Y3277*
X982Y3280*
X987Y3283*
X992Y3286*
X997Y3289*
X1001Y3292*
X1006Y3296*
X1010Y3300*
X1014Y3304*
X1018Y3308*
X1022Y3313*
X1025Y3317*
X1028Y3322*
X1031Y3327*
X1034Y3332*
X1037Y3337*
X1039Y3343*
X1041Y3348*
X1043Y3354*
X1044Y3359*
X1045Y3365*
X1046Y3371*
X1046Y3377*
X1047Y3382*
Y3388*
X1046Y3394*
X1046Y3400*
X1045Y3406*
X1044Y3411*
X1043Y3417*
X1041Y3422*
X1039Y3428*
X1037Y3433*
X1034Y3438*
X1031Y3444*
X1028Y3449*
X1025Y3453*
X1022Y3458*
X1018Y3463*
X1014Y3467*
X1010Y3471*
X1006Y3475*
X1001Y3478*
X997Y3482*
X992Y3485*
X987Y3488*
X982Y3491*
X977Y3493*
X971Y3496*
X966Y3498*
X960Y3499*
X955Y3501*
X949Y3502*
X943Y3503*
X937Y3503*
X932Y3503*
G37*
%LNbenchy-relays-pcb-3*%
%LPD*%
G54D14*
X2795Y594D03*
G54D15*
X2687Y624D03*
X2903D03*
Y564D03*
X2687D03*
G54D16*
X2706Y663D03*
X2726D03*
X2746D03*
X2765D03*
X2785D03*
X2805D03*
X2824D03*
X2844D03*
X2864D03*
X2883D03*
Y525D03*
X2864D03*
X2844D03*
X2824D03*
X2805D03*
X2785D03*
X2765D03*
X2746D03*
X2726D03*
X2706D03*
G54D17*
X3802Y590D03*
X3874D03*
G54D18*
X3801Y511D03*
X3875D03*
G54D19*
X3574Y628D03*
Y512D03*
X3692Y628D03*
Y512D03*
G54D20*
X2110Y285D03*
Y359D03*
X1874Y285D03*
Y359D03*
G54D21*
X2110Y436D03*
Y500D03*
X1874Y436D03*
Y500D03*
G54D22*
X2567Y633D03*
X2628D03*
X2567Y555D03*
X2628D03*
G54D40*
X2706Y525D02*
D01*
Y504D02*
Y525D01*
X2687Y624D02*
X2695D01*
X2667D02*
X2687D01*
X2724Y685D02*
Y696D01*
X2726Y663D02*
Y683D01*
X2724Y685D02*
X2726Y683D01*
X1188Y968D02*
X1401Y755D01*
X2722*
X2086Y818D02*
X2122Y783D01*
X2740D02*
X2765Y757D01*
X2122Y783D02*
X2740D01*
X2086Y818D02*
Y866D01*
X2722Y755D02*
X2746Y732D01*
Y663D02*
Y732D01*
X2921Y429D02*
X2952Y397D01*
X2824Y478D02*
X2874Y429D01*
X2921*
X2885Y452D02*
X3003D01*
X3051Y405*
X2844Y494D02*
X2885Y452D01*
X3082Y476D02*
X3149Y409D01*
X2864Y501D02*
X2889Y476D01*
X3082*
X2628Y555D02*
X2629Y554D01*
Y519D02*
Y554D01*
X2421Y507D02*
X2618D01*
X2629Y519*
X2362Y448D02*
X2421Y507D01*
X2362Y354D02*
Y448D01*
X2566Y632D02*
X2567Y633D01*
X2566Y594D02*
Y632D01*
Y556D02*
X2567Y555D01*
X2566Y556D02*
Y594D01*
X2700Y498D02*
X2706Y504D01*
X2700Y496D02*
Y498D01*
X2519Y472D02*
X2704D01*
X2726Y494D02*
Y525D01*
X2704Y472D02*
X2726Y494D01*
X2903Y564D02*
X2904Y565D01*
Y593*
X2905Y594*
X2903Y624D02*
X2904Y623D01*
Y595D02*
Y623D01*
Y595D02*
X2905Y594D01*
X2706Y635D02*
Y663D01*
X2695Y624D02*
X2706Y635D01*
X2628Y633D02*
X2657D01*
X2667Y624*
X2628Y555D02*
X2657D01*
X2667Y564D02*
X2687D01*
X2657Y555D02*
X2667Y564D01*
X2881Y826D02*
X4960D01*
X5000Y866*
X2897Y775D02*
X7842D01*
X7913Y846*
X2905Y748D02*
X9271D01*
X9370Y846*
X2765Y663D02*
Y757D01*
X2785D02*
X2877Y850D01*
X3527D02*
X3543Y866D01*
X2877Y850D02*
X3527D01*
X2805Y750D02*
X2881Y826D01*
X2824Y734D02*
X2889Y799D01*
X6409D02*
X6456Y846D01*
X2889Y799D02*
X6409D01*
X2909Y716D02*
X10724D01*
X2883Y690D02*
X2909Y716D01*
X10724D02*
X10834Y826D01*
X2785Y663D02*
Y757D01*
X2805Y663D02*
Y750D01*
X2844Y722D02*
X2897Y775D01*
X2864Y706D02*
X2905Y748D01*
X2746Y486D02*
Y525D01*
X2765Y478D02*
Y525D01*
X2785Y458D02*
Y525D01*
X2805Y458D02*
Y525D01*
X2824Y478D02*
Y525D01*
X2844Y494D02*
Y525D01*
X2864Y501D02*
Y525D01*
X2657Y354D02*
Y409D01*
X2669Y421D02*
X2708D01*
X2657Y409D02*
X2669Y421D01*
X2708D02*
X2765Y478D01*
X3051Y354D02*
Y405D01*
X2952Y354D02*
Y397D01*
X2704Y444D02*
X2746Y486D01*
X2594Y444D02*
X2704D01*
X2883Y663D02*
Y690D01*
X2864Y663D02*
Y706D01*
X2844Y663D02*
Y722D01*
X2824Y663D02*
Y734D01*
X3149Y354D02*
Y409D01*
X2854Y354D02*
Y409D01*
X2805Y458D02*
X2854Y409D01*
X2755Y429D02*
X2785Y458D01*
X2755Y354D02*
Y429D01*
X2559Y409D02*
X2594Y444D01*
X2559Y354D02*
Y409D01*
X2460Y413D02*
X2519Y472D01*
X2460Y354D02*
Y413D01*
G54D41*
X2110Y359D02*
Y436D01*
Y359D02*
D01*
X1874D02*
D01*
Y436*
X1954Y285D02*
X2011Y228D01*
X1874Y285D02*
X1954D01*
X2110D02*
X2234D01*
X3582Y275D02*
Y354D01*
X3535Y228D02*
X3582Y275D01*
X2011Y228D02*
X3535D01*
X2110Y347D02*
D01*
X2628Y633D02*
Y670D01*
X2614Y685D02*
X2628Y670D01*
X2291Y476D02*
X2500Y685D01*
X2614*
X2291Y342D02*
Y476D01*
X2234Y285D02*
X2291Y342D01*
X3401Y566D02*
X3633D01*
X3653Y528D02*
Y547D01*
X3633Y566D02*
X3653Y547D01*
X3669Y512D02*
X3692D01*
X3653Y528D02*
X3669Y512D01*
X3681Y500D02*
X3692Y512D01*
X3681Y354D02*
Y500D01*
G54D42*
X3574Y512D02*
X3582Y504D01*
Y354D02*
Y504D01*
G54D43*
X11629Y3385D03*
X11377D03*
X11125D03*
X10173D03*
X9921D03*
X9669D03*
X8716D03*
X8464D03*
X8212D03*
X7259D03*
X7007D03*
X6755D03*
X5803D03*
X5551D03*
X5299D03*
X4346D03*
X4094D03*
X3842D03*
X2889D03*
X2637D03*
X2385D03*
X1433D03*
X1181D03*
X929D03*
G54D44*
X12413Y2086D03*
Y1889D03*
G54D45*
X12413Y1692D03*
G54D46*
X3779Y354D03*
X3681D03*
X3248D03*
X3149D03*
X3051D03*
X2952D03*
X2854D03*
X2755D03*
X2657D03*
X2559D03*
X2460D03*
G54D47*
X3582Y354D03*
X2362D03*
G54D48*
X1417Y2086D03*
Y1692D03*
X1181D03*
Y2086D03*
X1598Y1692D03*
Y2086D03*
X2874D03*
Y1692D03*
X2637D03*
Y2086D03*
X3055Y1692D03*
Y2086D03*
X5787D03*
Y1692D03*
X5551D03*
Y2086D03*
X5968Y1692D03*
Y2086D03*
X4330D03*
Y1692D03*
X4094D03*
Y2086D03*
X4511Y1692D03*
Y2086D03*
X8700D03*
Y1692D03*
X8464D03*
Y2086D03*
X8881Y1692D03*
Y2086D03*
X7244D03*
Y1692D03*
X7007D03*
Y2086D03*
X7425Y1692D03*
Y2086D03*
X11614D03*
Y1692D03*
X11377D03*
Y2086D03*
X11795Y1692D03*
Y2086D03*
X10157D03*
Y1692D03*
X9921D03*
Y2086D03*
X10338Y1692D03*
Y2086D03*
G54D49*
X897Y1610D03*
Y2169D03*
X2354Y1610D03*
Y2169D03*
X5267Y1610D03*
Y2169D03*
X3811Y1610D03*
Y2169D03*
X8181Y1610D03*
Y2169D03*
X6724Y1610D03*
Y2169D03*
X11094Y1610D03*
Y2169D03*
X9637Y1610D03*
Y2169D03*
G54D50*
X12480Y354D03*
Y3385D03*
X354D03*
Y1220D03*
G54D51*
X2724Y696D03*
X1188Y968D03*
X3401Y566D03*
X692Y1799D03*
X2149D03*
X3606D03*
X5062D03*
X6519D03*
X7976D03*
X9433D03*
X10897D03*
X2566Y594D03*
X2700Y496D03*
X2657Y633D03*
Y555D03*
X5000Y866D03*
X7913Y846D03*
X9370D03*
X2086Y866D03*
X3543D03*
X6456Y846D03*
X10834Y826D03*
X2905Y594D03*
X12480Y444D03*
Y264D03*
X12416Y417D03*
X12543Y290D03*
X12390Y354D03*
X12570D03*
X12416Y290D03*
X12543Y417D03*
X12480Y3475D03*
Y3295D03*
X12416Y3449D03*
X12543Y3322D03*
X12390Y3385D03*
X12570D03*
X12416Y3322D03*
X12543Y3449D03*
X354Y3475D03*
Y3295D03*
X290Y3449D03*
X417Y3322D03*
X264Y3385D03*
X444D03*
X290Y3322D03*
X417Y3449D03*
X354Y1310D03*
Y1130D03*
X290Y1284D03*
X417Y1156D03*
X264Y1220D03*
X444D03*
X290Y1156D03*
X417Y1284D03*
M02*