%FSLAX23Y23*%
%MOIN*%
%SFA1B1*%

%IPPOS*%
%ADD10C,0.004720*%
%ADD11C,0.006000*%
%ADD12C,0.007090*%
%ADD13C,0.007870*%
%LNbenchy-relays-pcb-1*%
%LPD*%
G36*
X4886Y1028D02*
X4885Y242D01*
X4099Y243*
Y985*
Y988*
X4101Y1029*
X4886Y1028*
G37*
G36*
X5077Y298D02*
X5077Y298D01*
X5077Y298*
X5077Y297*
X5077Y297*
X5078Y297*
X5078Y296*
Y296*
Y296*
X5078Y296*
X5077Y296*
X5063Y254*
Y254*
X5063Y254*
X5063Y254*
X5063Y253*
X5062Y253*
X5062Y252*
X5062*
X5062Y252*
X5062Y252*
X5061Y252*
X5061Y252*
X5061Y252*
X5060Y252*
X5060Y252*
X5057*
X5057Y252*
X5056Y252*
X5056Y252*
X5055Y252*
X5054Y253*
X5054Y253*
X5054Y254*
X5054Y254*
X5039Y296*
Y296*
X5039Y296*
X5039Y296*
X5039Y296*
Y297*
Y297*
X5039Y297*
X5039Y297*
X5039Y298*
X5039Y298*
X5040Y298*
X5040Y298*
X5040Y298*
X5043*
X5044Y298*
X5044Y298*
X5044Y298*
X5045Y297*
X5045Y297*
X5045Y296*
X5058Y258*
X5071Y296*
X5071Y296*
X5071Y297*
X5071Y297*
X5072Y297*
X5072Y297*
X5072Y298*
X5073Y298*
X5074Y298*
X5076*
X5077Y298*
G37*
G36*
X5100Y299D02*
X5101D01*
X5101Y299*
X5101Y298*
X5102Y298*
X5103Y298*
X5105Y298*
X5106Y297*
X5107Y297*
X5107*
X5108Y297*
X5108Y297*
X5108Y296*
X5108Y296*
X5109Y295*
X5110Y295*
X5111Y294*
X5112Y293*
X5112Y292*
Y292*
X5112Y291*
X5113Y291*
X5113Y291*
X5113Y291*
X5113Y290*
X5113Y290*
X5114Y288*
X5114Y287*
X5114Y286*
X5114Y284*
Y284*
Y284*
Y284*
Y284*
X5114Y283*
Y283*
X5114Y282*
X5114Y281*
X5114Y280*
X5113Y278*
X5113Y277*
Y277*
X5113Y277*
X5113Y277*
X5112Y277*
X5112Y276*
X5112Y275*
X5111Y275*
X5110Y274*
X5109Y272*
X5108Y271*
X5093Y258*
X5113*
X5114Y257*
X5114Y257*
X5115Y257*
X5115Y257*
X5115Y257*
X5115Y256*
X5115Y256*
Y253*
Y253*
Y253*
X5115Y253*
X5115Y252*
X5115Y252*
X5114Y252*
X5114Y252*
X5114Y252*
X5113Y252*
X5085*
X5084Y252*
X5084Y252*
X5083Y252*
X5083Y252*
X5083Y252*
X5083Y253*
X5083Y253*
Y256*
Y256*
Y256*
X5083Y256*
X5083Y257*
X5083Y257*
X5083Y257*
X5084Y257*
X5084Y258*
X5084Y258*
X5104Y276*
X5104Y276*
X5104Y276*
X5105Y277*
X5105Y277*
X5106Y278*
X5106Y278*
X5107Y279*
X5107Y280*
X5107Y280*
X5107Y280*
X5107Y281*
X5107Y281*
X5108Y282*
X5108Y283*
X5108Y283*
X5108Y284*
Y284*
Y285*
Y285*
X5108Y285*
Y285*
X5108Y286*
X5108Y287*
X5107Y288*
X5107Y289*
X5106Y290*
X5106Y290*
X5106Y290*
X5105Y291*
X5105Y291*
X5104Y292*
X5103Y292*
X5102Y292*
X5101Y293*
X5099Y293*
X5099*
X5099Y293*
X5098*
X5098Y293*
X5097Y292*
X5096Y292*
X5095Y292*
X5094Y291*
X5093Y290*
X5093Y290*
X5093Y290*
X5092Y290*
X5092Y289*
X5091Y288*
X5091Y287*
X5090Y286*
X5090Y284*
Y284*
X5090Y284*
X5090Y284*
X5090Y284*
X5089Y283*
X5089Y283*
X5089Y283*
X5089Y283*
X5088Y283*
X5085*
X5085Y283*
X5084Y283*
X5084Y283*
X5084Y283*
X5084Y284*
X5084Y284*
X5084Y284*
Y284*
Y285*
Y285*
X5084Y285*
X5084Y285*
X5084Y286*
X5084Y287*
X5084Y287*
X5085Y289*
X5085Y290*
X5086Y291*
Y291*
X5086Y291*
X5086Y291*
X5086Y292*
X5086Y292*
X5087Y293*
X5088Y294*
X5089Y295*
X5090Y296*
X5091Y296*
X5091*
X5091Y297*
X5091Y297*
X5092Y297*
X5092Y297*
X5092Y297*
X5093Y297*
X5093Y298*
X5094Y298*
X5095Y298*
X5096Y298*
X5098Y299*
X5099Y299*
X5100*
X5100Y299*
G37*
G36*
X5032Y298D02*
X5032Y298D01*
X5033Y298*
X5033Y297*
X5033Y297*
X5033Y297*
X5033Y296*
Y296*
Y296*
Y294*
X5033Y293*
X5033Y293*
X5033Y293*
X5033Y293*
X5032Y292*
X5032Y292*
X5031Y292*
X5010*
Y278*
X5030*
X5030Y278*
X5031Y278*
X5031Y278*
X5031Y277*
X5031Y277*
X5032Y277*
X5032Y276*
Y276*
Y276*
Y274*
X5032Y273*
X5031Y273*
X5031Y273*
X5031Y273*
X5031Y272*
X5030Y272*
X5030Y272*
X5010*
Y258*
X5032*
X5032Y257*
X5033Y257*
X5033Y257*
X5033Y257*
X5033Y257*
X5034Y256*
X5034Y256*
Y256*
Y256*
Y253*
X5034Y253*
X5033Y252*
X5033Y252*
X5033Y252*
X5033Y252*
X5032Y252*
X5032Y252*
X5005*
X5005Y252*
X5004Y252*
X5004Y252*
X5004Y252*
X5004Y252*
X5003Y253*
X5003Y253*
Y253*
Y253*
Y296*
X5003Y297*
X5004Y297*
X5004Y297*
X5004Y297*
X5004Y298*
X5005Y298*
X5005Y298*
X5031*
X5032Y298*
G37*
G36*
X4979Y298D02*
X4980Y298D01*
X4980Y298*
X4981Y298*
X4982Y298*
X4984Y297*
X4985Y297*
X4986Y296*
X4987Y296*
X4988Y296*
X4989Y295*
X4989Y295*
X4990Y294*
X4990Y294*
X4990Y294*
X4990Y294*
X4990Y294*
X4991Y293*
X4991Y293*
X4992Y292*
X4992Y291*
X4993Y291*
X4993Y290*
X4993Y289*
X4994Y288*
X4994Y287*
X4994Y286*
X4994Y284*
Y284*
Y284*
Y284*
X4994Y283*
Y283*
X4994Y282*
X4994Y282*
X4994Y281*
X4993Y280*
X4993Y279*
X4992Y277*
X4992Y276*
X4991Y276*
X4991Y276*
X4991Y276*
X4991Y275*
X4991Y275*
X4991Y275*
X4990Y275*
X4990Y274*
X4989Y273*
X4987Y272*
X4986Y272*
X4984Y271*
X4994Y254*
X4994Y254*
X4995Y253*
X4995Y253*
X4995Y253*
Y253*
X4995Y253*
X4994Y252*
X4994Y252*
X4994Y252*
X4994Y252*
X4994Y252*
X4993Y252*
X4990*
X4990Y252*
X4990Y252*
X4989Y252*
X4989Y252*
X4988Y252*
X4988Y253*
X4987Y253*
X4978Y270*
X4966*
Y253*
Y253*
Y253*
X4966Y253*
X4966Y252*
X4966Y252*
X4966Y252*
X4966Y252*
X4965Y252*
X4965Y252*
X4962*
X4962Y252*
X4961Y252*
X4961Y252*
X4961Y252*
X4960Y252*
X4960Y253*
X4960Y253*
Y296*
Y296*
Y296*
X4960Y297*
X4960Y297*
X4961Y297*
X4961Y298*
X4961Y298*
X4961Y298*
X4962Y298*
X4979*
X4979Y298*
G37*
G36*
X5518Y453D02*
X5519D01*
X5520Y453*
X5522Y453*
X5523Y452*
X5527Y452*
X5531Y451*
X5534Y450*
X5538Y448*
X5538*
X5539Y448*
X5539Y447*
X5540Y447*
X5540Y447*
X5541Y446*
X5543Y445*
X5546Y443*
X5548Y441*
X5551Y439*
X5553Y436*
Y436*
X5553Y436*
X5553Y435*
X5553Y435*
X5554Y433*
X5555Y432*
X5556Y430*
X5557Y428*
X5558Y425*
X5558Y423*
Y423*
X5558Y422*
X5558Y421*
X5557Y420*
X5557Y420*
X5556Y420*
X5556Y419*
X5555Y419*
X5547*
X5547Y419*
X5546Y420*
X5545Y420*
X5545Y420*
X5544Y421*
X5543Y422*
X5543Y422*
X5543Y423*
X5542Y423*
X5542Y424*
X5541Y425*
X5540Y426*
X5539Y428*
X5538Y429*
X5536Y431*
X5533Y433*
X5533*
X5533Y433*
X5533Y433*
X5532Y434*
X5531Y434*
X5531Y435*
X5529Y436*
X5526Y436*
X5523Y437*
X5520Y438*
X5516Y438*
X5514*
X5513Y438*
X5512Y438*
X5510Y437*
X5507Y437*
X5505Y436*
X5502Y435*
X5499Y434*
X5499*
X5499Y433*
X5498Y433*
X5497Y432*
X5496Y430*
X5494Y428*
X5493Y426*
X5492Y424*
X5492Y422*
X5492Y421*
Y420*
Y420*
X5492Y419*
X5493Y417*
X5493Y416*
X5494Y414*
X5494Y413*
X5496Y412*
X5496Y411*
X5496Y411*
X5497Y410*
X5498Y409*
X5500Y409*
X5501Y407*
X5503Y406*
X5506Y405*
X5506*
X5506Y405*
X5507Y405*
X5507Y405*
X5508Y405*
X5509Y404*
X5510Y404*
X5511Y404*
X5512Y403*
X5514Y403*
X5516Y402*
X5518Y402*
X5520Y401*
X5522Y400*
X5524Y400*
X5527Y399*
X5527*
X5528Y399*
X5529Y399*
X5530Y398*
X5531Y398*
X5533Y397*
X5535Y396*
X5537Y396*
X5542Y394*
X5546Y392*
X5548Y391*
X5550Y390*
X5552Y388*
X5554Y387*
X5554Y387*
X5554Y387*
X5554Y386*
X5555Y386*
X5555Y385*
X5556Y384*
X5557Y383*
X5558Y382*
X5558Y380*
X5559Y379*
X5560Y377*
X5560Y376*
X5561Y374*
X5561Y372*
X5561Y370*
X5561Y367*
Y367*
Y367*
Y366*
X5561Y366*
Y365*
X5561Y364*
X5561Y361*
X5560Y358*
X5559Y356*
X5558Y353*
X5556Y350*
Y349*
X5556Y349*
X5555Y349*
X5555Y348*
X5554Y347*
X5552Y345*
X5550Y343*
X5547Y341*
X5544Y339*
X5540Y338*
X5540*
X5540Y338*
X5539Y337*
X5538Y337*
X5537Y337*
X5536Y336*
X5535Y336*
X5533Y336*
X5532Y335*
X5530Y335*
X5526Y334*
X5522Y334*
X5517Y333*
X5516*
X5515Y334*
X5514*
X5512Y334*
X5511Y334*
X5509Y334*
X5506Y335*
X5502Y335*
X5498Y336*
X5494Y338*
X5494*
X5494Y338*
X5493Y339*
X5493Y339*
X5492Y339*
X5491Y340*
X5489Y341*
X5486Y343*
X5483Y345*
X5481Y347*
X5478Y350*
Y350*
X5478Y350*
X5478Y351*
X5477Y351*
X5477Y353*
X5475Y354*
X5474Y357*
X5473Y359*
X5473Y362*
X5472Y364*
Y364*
Y364*
X5472Y365*
X5473Y366*
X5473Y367*
X5473Y367*
X5474Y367*
X5475Y368*
X5476Y368*
X5483*
X5484Y368*
X5485Y368*
X5486Y367*
X5486Y367*
X5486Y367*
X5487Y366*
X5488Y365*
X5488Y364*
X5488Y364*
X5488Y363*
X5489Y362*
X5490Y361*
X5491Y359*
X5493Y357*
X5495Y355*
X5498Y353*
X5498*
X5498Y353*
X5498Y353*
X5499Y352*
X5500Y352*
X5501Y352*
X5502Y351*
X5503Y351*
X5504Y350*
X5505Y350*
X5509Y349*
X5513Y349*
X5517Y348*
X5518*
X5519Y349*
X5520*
X5521Y349*
X5522Y349*
X5524Y349*
X5527Y350*
X5531Y351*
X5534Y352*
X5537Y354*
X5537*
X5538Y354*
X5538Y354*
X5539Y355*
X5540Y356*
X5542Y357*
X5543Y359*
X5544Y361*
X5545Y363*
X5545Y364*
X5546Y366*
X5546Y367*
Y368*
Y368*
X5545Y369*
X5545Y370*
X5545Y372*
X5544Y373*
X5543Y375*
X5541Y376*
X5541Y377*
X5540Y377*
X5539Y378*
X5538Y379*
X5536Y380*
X5534Y381*
X5532Y382*
X5529Y383*
X5529*
X5529Y383*
X5528Y383*
X5528Y383*
X5527Y383*
X5526Y384*
X5525Y384*
X5524Y385*
X5522Y385*
X5520Y386*
X5519Y386*
X5517Y387*
X5514Y387*
X5512Y388*
X5510Y389*
X5507Y389*
X5507*
X5506Y389*
X5505Y390*
X5504Y390*
X5503Y390*
X5501Y391*
X5500Y392*
X5498Y392*
X5494Y394*
X5490Y396*
X5487Y398*
X5485Y400*
X5484Y401*
X5483Y401*
X5483Y402*
X5483Y402*
X5482Y403*
X5482Y403*
X5481Y404*
X5481Y405*
X5480Y407*
X5479Y409*
X5478Y413*
X5477Y416*
X5477Y418*
X5476Y421*
Y421*
Y421*
Y422*
X5477Y422*
Y423*
X5477Y424*
X5477Y426*
X5478Y428*
X5478Y431*
X5479Y434*
X5481Y437*
Y437*
X5481Y437*
X5482Y437*
X5482Y438*
X5483Y439*
X5484Y441*
X5486Y443*
X5488Y445*
X5491Y447*
X5494Y448*
X5494*
X5495Y449*
X5495Y449*
X5496Y449*
X5497Y450*
X5498Y450*
X5499Y450*
X5501Y451*
X5502Y451*
X5504Y452*
X5507Y452*
X5511Y453*
X5516Y453*
X5517*
X5518Y453*
G37*
G36*
X5458Y451D02*
X5459Y451D01*
X5460Y450*
X5460Y450*
X5460Y450*
X5461Y449*
X5461Y448*
Y447*
X5461Y447*
X5461Y446*
X5460Y445*
X5421Y378*
Y339*
Y339*
Y339*
X5420Y338*
X5420Y337*
X5419Y336*
X5419Y336*
X5418Y336*
X5417Y335*
X5416Y335*
X5409*
X5408Y335*
X5407Y336*
X5406Y336*
X5406Y337*
X5405Y337*
X5405Y338*
X5405Y339*
Y378*
X5365Y445*
Y445*
X5365Y446*
X5365Y446*
X5364Y447*
X5364Y448*
Y448*
Y448*
X5364Y449*
X5365Y449*
X5365Y450*
X5365Y450*
X5366Y451*
X5367Y451*
X5368Y451*
X5376*
X5377Y451*
X5378Y451*
X5379Y451*
X5379Y450*
X5380Y450*
X5380Y449*
X5381Y448*
X5382Y447*
X5413Y394*
X5443Y447*
Y447*
X5444Y447*
X5444Y448*
X5445Y449*
X5446Y450*
X5446Y450*
X5446Y451*
X5447Y451*
X5447Y451*
X5448Y451*
X5449Y451*
X5458*
X5458Y451*
G37*
G36*
X5309D02*
X5310Y451D01*
X5311Y451*
X5312Y450*
X5313Y449*
X5314Y448*
X5315Y446*
X5356Y341*
X5356Y341*
X5356Y340*
X5356Y339*
X5356Y339*
Y338*
X5356Y338*
X5356Y337*
X5355Y336*
X5355Y336*
X5355Y336*
X5354Y335*
X5353Y335*
X5346*
X5346Y335*
X5345Y335*
X5344Y336*
X5343Y336*
X5342Y337*
X5341Y338*
X5340Y339*
X5332Y361*
X5274*
X5265Y339*
X5265Y339*
X5265Y339*
X5265Y338*
X5264Y337*
X5263Y336*
X5262Y336*
X5260Y335*
X5259Y335*
X5252*
X5252Y335*
X5251Y336*
X5250Y336*
X5250Y336*
X5250Y337*
X5249Y338*
X5249Y339*
Y339*
X5249Y339*
X5249Y340*
X5250Y341*
X5290Y446*
X5290Y446*
X5291Y447*
X5291Y448*
X5292Y449*
X5293Y450*
X5294Y450*
X5296Y451*
X5298Y451*
X5308*
X5309Y451*
G37*
G36*
X5179D02*
X5180Y451D01*
X5181Y450*
X5181Y450*
X5182Y449*
X5182Y448*
X5182Y447*
Y350*
X5239*
X5240Y350*
X5241Y349*
X5242Y349*
X5242Y348*
X5242Y348*
X5243Y347*
X5243Y345*
Y339*
Y339*
Y339*
X5243Y338*
X5243Y337*
X5242Y336*
X5241Y336*
X5241Y336*
X5240Y335*
X5239Y335*
X5171*
X5170Y335*
X5169Y336*
X5168Y336*
X5168Y337*
X5167Y337*
X5167Y338*
X5167Y339*
Y447*
Y447*
Y447*
X5167Y448*
X5167Y449*
X5168Y450*
X5168Y450*
X5169Y451*
X5170Y451*
X5171Y451*
X5178*
X5179Y451*
G37*
G36*
X5140Y451D02*
X5141Y451D01*
X5141Y450*
X5142Y450*
X5142Y449*
X5143Y448*
X5143Y447*
Y447*
Y447*
Y441*
X5143Y440*
X5142Y439*
X5142Y438*
X5142Y438*
X5141Y437*
X5140Y437*
X5139Y436*
X5084*
Y401*
X5135*
X5136Y401*
X5137Y401*
X5138Y400*
X5138Y400*
X5139Y399*
X5139Y398*
X5139Y397*
Y397*
Y397*
Y391*
X5139Y390*
X5139Y389*
X5138Y388*
X5138Y388*
X5137Y387*
X5136Y387*
X5135Y386*
X5084*
Y350*
X5140*
X5141Y350*
X5142Y349*
X5143Y349*
X5143Y349*
X5144Y348*
X5144Y347*
X5144Y346*
Y346*
Y345*
Y339*
X5144Y338*
X5144Y337*
X5143Y337*
X5143Y336*
X5142Y336*
X5141Y335*
X5140Y335*
X5073*
X5071Y335*
X5070Y336*
X5070Y336*
X5069Y336*
X5069Y337*
X5068Y338*
X5068Y339*
Y339*
Y339*
Y447*
X5068Y448*
X5069Y449*
X5069Y450*
X5069Y450*
X5071Y451*
X5072Y451*
X5073Y451*
X5139*
X5140Y451*
G37*
G36*
X5008Y451D02*
X5009Y451D01*
X5011Y451*
X5013Y451*
X5015Y450*
X5019Y449*
X5022Y449*
X5024Y448*
X5027Y447*
X5029Y446*
X5031Y444*
X5034Y443*
X5034Y443*
X5034Y442*
X5035Y442*
X5035Y441*
X5036Y440*
X5037Y439*
X5038Y438*
X5039Y436*
X5040Y435*
X5041Y433*
X5042Y431*
X5043Y428*
X5044Y426*
X5044Y423*
X5045Y420*
X5045Y417*
Y417*
Y416*
Y416*
X5045Y415*
Y414*
X5045Y412*
X5044Y411*
X5044Y409*
X5043Y406*
X5042Y403*
X5041Y399*
X5039Y397*
X5038Y396*
X5038Y396*
X5038Y395*
X5038Y395*
X5037Y394*
X5037Y394*
X5036Y393*
X5034Y391*
X5031Y389*
X5028Y387*
X5025Y386*
X5021Y384*
X5046Y341*
X5046Y340*
X5046Y340*
X5046Y339*
X5047Y339*
Y338*
X5046Y338*
X5046Y337*
X5045Y336*
X5045Y336*
X5045Y336*
X5044Y335*
X5043Y335*
X5036*
X5035Y335*
X5034Y335*
X5033Y336*
X5032Y336*
X5031Y337*
X5030Y338*
X5029Y339*
X5004Y382*
X4976*
Y339*
Y339*
Y339*
X4976Y338*
X4975Y337*
X4974Y336*
X4974Y336*
X4974Y336*
X4973Y335*
X4971Y335*
X4964*
X4964Y335*
X4962Y336*
X4961Y336*
X4961Y337*
X4961Y337*
X4960Y338*
X4960Y339*
Y447*
Y447*
Y447*
X4960Y448*
X4961Y449*
X4961Y450*
X4962Y450*
X4962Y451*
X4963Y451*
X4965Y451*
X5006*
X5008Y451*
G37*
G36*
X5330Y610D02*
X5331D01*
X5333Y610*
X5334Y610*
X5336Y610*
X5340Y609*
X5344Y608*
X5349Y606*
X5351Y606*
X5353Y604*
X5353*
X5353Y604*
X5354Y604*
X5355Y603*
X5355Y603*
X5356Y602*
X5359Y600*
X5361Y598*
X5364Y596*
X5366Y593*
X5368Y590*
Y590*
X5368Y589*
X5369Y589*
X5369Y588*
X5369Y587*
X5370Y587*
X5371Y584*
X5372Y582*
X5373Y579*
X5373Y576*
X5374Y573*
Y573*
X5373Y572*
X5373Y571*
X5372Y570*
X5372Y570*
X5372Y570*
X5371Y569*
X5370Y569*
X5362*
X5361Y569*
X5361Y570*
X5359Y570*
X5359Y570*
X5359Y571*
X5358Y572*
X5358Y573*
Y573*
X5358Y573*
X5358Y574*
X5358Y575*
X5357Y575*
X5357Y576*
X5356Y579*
X5355Y581*
X5353Y584*
X5351Y587*
X5349Y589*
X5349Y589*
X5348Y589*
X5348Y590*
X5347Y590*
X5347Y591*
X5346Y591*
X5345Y592*
X5343Y592*
X5342Y593*
X5340Y593*
X5339Y594*
X5337Y595*
X5334Y595*
X5332Y595*
X5330Y596*
X5326*
X5325Y595*
X5323Y595*
X5322Y595*
X5320Y595*
X5319Y594*
X5315Y593*
X5313Y593*
X5311Y592*
X5310Y591*
X5308Y590*
X5306Y589*
X5304Y587*
X5304Y587*
X5304Y587*
X5304Y586*
X5303Y586*
X5303Y585*
X5302Y584*
X5301Y583*
X5300Y581*
X5300Y580*
X5299Y578*
X5298Y576*
X5298Y574*
X5297Y572*
X5297Y570*
X5296Y567*
X5296Y565*
Y564*
Y564*
Y563*
Y561*
X5296Y559*
Y557*
Y554*
Y551*
Y551*
Y550*
Y550*
Y549*
Y548*
Y546*
Y543*
Y541*
X5296Y539*
Y537*
Y537*
Y536*
X5296Y535*
Y534*
X5296Y533*
X5297Y532*
X5297Y530*
X5297Y529*
X5298Y525*
X5299Y523*
X5300Y521*
X5301Y519*
X5302Y518*
X5303Y516*
X5304Y514*
X5305Y514*
X5305Y514*
X5305Y513*
X5306Y513*
X5307Y512*
X5308Y512*
X5309Y511*
X5310Y510*
X5312Y509*
X5314Y508*
X5315Y508*
X5317Y507*
X5320Y507*
X5322Y506*
X5324Y506*
X5327Y506*
X5328*
X5329Y506*
X5331*
X5332Y506*
X5334Y506*
X5335Y507*
X5339Y507*
X5342Y508*
X5346Y510*
X5347Y511*
X5349Y512*
X5349Y512*
X5349Y512*
X5349Y513*
X5350Y513*
X5351Y515*
X5352Y517*
X5354Y519*
X5355Y522*
X5357Y525*
X5358Y528*
Y529*
Y529*
X5358Y529*
X5359Y530*
X5359Y531*
X5360Y531*
X5360Y532*
X5361Y532*
X5362Y532*
X5370*
X5371Y532*
X5372Y532*
X5372Y531*
X5373Y531*
X5373Y530*
X5373Y529*
X5374Y528*
Y528*
Y528*
Y528*
X5373Y527*
X5373Y526*
X5373Y525*
X5373Y523*
X5372Y521*
X5371Y518*
X5370Y515*
X5368Y511*
Y511*
X5368Y511*
X5368Y511*
X5367Y510*
X5366Y508*
X5364Y506*
X5362Y504*
X5360Y502*
X5357Y499*
X5353Y497*
X5353*
X5352Y497*
X5352Y496*
X5351Y496*
X5350Y495*
X5349Y495*
X5347Y495*
X5346Y494*
X5344Y493*
X5342Y493*
X5340Y492*
X5338Y492*
X5335Y491*
X5333Y491*
X5330Y491*
X5327Y491*
X5326*
X5325Y491*
X5323*
X5322Y491*
X5320Y491*
X5319Y492*
X5315Y492*
X5311Y493*
X5307Y495*
X5303Y497*
X5302Y497*
X5302Y497*
X5302Y497*
X5301Y498*
X5300Y498*
X5299Y499*
X5297Y501*
X5294Y503*
X5291Y506*
X5289Y509*
X5286Y513*
Y513*
X5286Y513*
X5286Y514*
X5285Y514*
X5285Y515*
X5285Y517*
X5284Y518*
X5284Y519*
X5283Y521*
X5282Y523*
X5281Y527*
X5281Y531*
X5280Y536*
Y536*
Y537*
Y538*
Y540*
X5280Y542*
Y544*
Y547*
Y551*
Y551*
Y551*
Y552*
Y552*
Y553*
Y554*
Y556*
Y559*
Y561*
X5280Y563*
Y565*
Y566*
Y566*
X5280Y567*
Y568*
X5280Y569*
X5281Y570*
X5281Y572*
X5281Y573*
X5282Y577*
X5283Y581*
X5285Y585*
X5286Y589*
X5287Y589*
X5287Y589*
X5287Y590*
X5288Y590*
X5288Y591*
X5289Y592*
X5291Y594*
X5293Y597*
X5296Y600*
X5299Y602*
X5303Y605*
X5303Y605*
X5303Y605*
X5304Y605*
X5304Y606*
X5305Y606*
X5307Y606*
X5308Y607*
X5310Y608*
X5311Y608*
X5313Y609*
X5315Y609*
X5317Y609*
X5322Y610*
X5324Y610*
X5329*
X5330Y610*
G37*
G36*
X5482Y609D02*
X5483Y608D01*
X5484Y607*
X5484Y607*
X5485Y607*
X5485Y606*
X5485Y604*
Y497*
Y497*
Y497*
X5485Y496*
X5485Y495*
X5484Y494*
X5484Y494*
X5483Y493*
X5482Y493*
X5481Y493*
X5474*
X5473Y493*
X5472Y493*
X5471Y494*
X5471Y494*
X5470Y495*
X5470Y496*
X5470Y497*
Y544*
X5411*
Y497*
Y497*
Y497*
X5411Y496*
X5411Y495*
X5410Y494*
X5409Y494*
X5409Y493*
X5408Y493*
X5407Y493*
X5400*
X5399Y493*
X5398Y493*
X5397Y494*
X5396Y494*
X5396Y495*
X5396Y496*
X5395Y497*
Y604*
Y604*
Y605*
X5396Y605*
X5396Y606*
X5397Y607*
X5397Y608*
X5398Y608*
X5399Y609*
X5400Y609*
X5407*
X5408Y609*
X5409Y608*
X5410Y607*
X5410Y607*
X5410Y607*
X5411Y606*
X5411Y604*
Y559*
X5470*
Y604*
Y604*
Y605*
X5470Y605*
X5470Y606*
X5471Y607*
X5471Y608*
X5472Y608*
X5473Y609*
X5474Y609*
X5481*
X5482Y609*
G37*
G36*
X5599D02*
X5600Y608D01*
X5600Y608*
X5601Y608*
X5601Y607*
X5601Y606*
X5602Y605*
Y605*
X5601Y605*
X5601Y604*
X5601Y603*
X5561Y536*
Y497*
Y497*
Y497*
X5561Y496*
X5561Y495*
X5560Y494*
X5559Y494*
X5559Y493*
X5558Y493*
X5557Y493*
X5549*
X5549Y493*
X5548Y493*
X5547Y494*
X5546Y494*
X5546Y495*
X5545Y496*
X5545Y497*
Y536*
X5506Y603*
Y603*
X5505Y603*
X5505Y604*
X5505Y604*
X5505Y605*
Y605*
Y605*
X5505Y606*
X5505Y607*
X5506Y608*
X5506Y608*
X5507Y608*
X5507Y609*
X5508Y609*
X5517*
X5517Y609*
X5519Y608*
X5519Y608*
X5520Y608*
X5520Y608*
X5521Y607*
X5522Y606*
X5523Y605*
X5553Y552*
X5584Y605*
Y605*
X5584Y605*
X5585Y606*
X5585Y607*
X5586Y608*
X5587Y608*
X5587Y608*
X5587Y608*
X5588Y609*
X5589Y609*
X5590Y609*
X5598*
X5599Y609*
G37*
G36*
X5253D02*
X5254Y608D01*
X5255Y607*
X5255Y607*
X5255Y607*
X5256Y606*
X5256Y604*
Y497*
Y497*
Y497*
X5256Y496*
X5255Y495*
X5255Y494*
X5254Y494*
X5254Y493*
X5253Y493*
X5251Y493*
X5245*
X5245Y493*
X5244*
X5243Y493*
X5242Y494*
X5242Y494*
X5241Y495*
X5240Y496*
X5239Y498*
X5185Y579*
Y497*
Y497*
Y497*
X5185Y496*
X5184Y495*
X5184Y494*
X5183Y494*
X5183Y493*
X5182Y493*
X5181Y493*
X5174*
X5173Y493*
X5172Y493*
X5171Y494*
X5170Y494*
X5170Y495*
X5169Y496*
X5169Y497*
Y604*
Y604*
Y605*
X5169Y605*
X5170Y606*
X5171Y607*
X5171Y608*
X5171Y608*
X5172Y609*
X5174Y609*
X5180*
X5181Y609*
X5182Y608*
X5183Y607*
X5183*
X5184Y607*
X5184Y606*
X5185Y605*
X5186Y604*
X5240Y523*
Y604*
Y604*
Y605*
X5240Y605*
X5241Y606*
X5241Y607*
X5242Y608*
X5242Y608*
X5243Y609*
X5245Y609*
X5252*
X5253Y609*
G37*
G36*
X6444D02*
X6445D01*
X6446Y609*
X6448Y608*
X6450Y608*
X6454Y607*
X6458Y606*
X6462Y605*
X6466Y603*
X6466*
X6467Y603*
X6467Y603*
X6468Y602*
X6469Y602*
X6470Y601*
X6472Y599*
X6475Y597*
X6478Y594*
X6481Y591*
X6483Y588*
X6483Y588*
X6483Y587*
X6484Y587*
X6484Y586*
X6484Y585*
X6485Y584*
X6485Y582*
X6486Y581*
X6487Y579*
X6487Y577*
X6488Y575*
X6488Y573*
X6489Y569*
X6489Y566*
X6489Y564*
Y564*
Y563*
Y562*
X6489Y560*
Y558*
Y556*
Y554*
Y551*
Y551*
Y550*
Y550*
Y549*
Y548*
Y546*
Y544*
Y542*
X6489Y539*
Y538*
Y537*
Y537*
Y536*
X6489Y535*
X6489Y534*
X6489Y533*
X6489Y531*
X6488Y529*
X6488Y526*
X6487Y522*
X6485Y517*
X6484Y515*
X6483Y514*
Y513*
X6483Y513*
X6482Y513*
X6482Y512*
X6481Y511*
X6481Y510*
X6479Y508*
X6476Y505*
X6474Y503*
X6470Y500*
X6467Y498*
X6466*
X6466Y498*
X6465Y497*
X6465Y497*
X6464Y497*
X6463Y496*
X6461Y496*
X6460Y495*
X6458Y495*
X6456Y494*
X6454Y494*
X6452Y493*
X6447Y493*
X6443Y493*
X6403*
X6402Y493*
X6401Y493*
X6400Y494*
X6400Y494*
X6400Y495*
X6399Y496*
X6399Y497*
Y604*
Y604*
Y605*
X6399Y605*
X6400Y606*
X6400Y607*
X6401Y608*
X6401Y608*
X6402Y609*
X6404Y609*
X6443*
X6444Y609*
G37*
G36*
X6372Y609D02*
X6373Y608D01*
X6374Y608*
X6374Y607*
X6375Y606*
X6375Y605*
X6376Y605*
Y604*
Y604*
Y598*
X6375Y597*
X6375Y596*
X6374Y595*
X6374Y595*
X6373Y594*
X6372Y594*
X6371Y594*
X6316*
Y559*
X6367*
X6369Y558*
X6370Y558*
X6370Y558*
X6370Y557*
X6371Y556*
X6372Y555*
X6372Y555*
Y554*
Y554*
Y548*
X6372Y547*
X6371Y546*
X6371Y545*
X6370Y545*
X6370Y544*
X6368Y544*
X6368Y544*
X6316*
Y507*
X6372*
X6374Y507*
X6375Y507*
X6375Y506*
X6375Y506*
X6376Y505*
X6377Y504*
X6377Y503*
Y503*
Y503*
Y497*
X6376Y496*
X6376Y495*
X6376Y494*
X6375Y494*
X6374Y493*
X6373Y493*
X6373Y493*
X6305*
X6304Y493*
X6303Y493*
X6302Y494*
X6302Y494*
X6301Y495*
X6301Y496*
X6301Y497*
Y497*
Y497*
Y604*
X6301Y606*
X6301Y607*
X6302Y607*
X6302Y607*
X6303Y608*
X6304Y609*
X6305Y609*
X6371*
X6372Y609*
G37*
G36*
X6231Y609D02*
X6233D01*
X6234Y609*
X6236Y608*
X6237Y608*
X6241Y607*
X6245Y606*
X6249Y605*
X6253Y603*
X6254*
X6254Y603*
X6255Y603*
X6255Y602*
X6256Y602*
X6257Y601*
X6260Y599*
X6262Y597*
X6265Y594*
X6268Y591*
X6270Y588*
X6271Y588*
X6271Y587*
X6271Y587*
X6271Y586*
X6272Y585*
X6272Y584*
X6273Y582*
X6274Y581*
X6274Y579*
X6275Y577*
X6275Y575*
X6276Y573*
X6276Y569*
X6277Y566*
X6277Y564*
Y564*
Y563*
Y562*
X6277Y560*
Y558*
Y556*
Y554*
Y551*
Y551*
Y550*
Y550*
Y549*
Y548*
Y546*
Y544*
Y542*
X6277Y539*
Y538*
Y537*
Y537*
Y536*
X6277Y535*
X6276Y534*
X6276Y533*
X6276Y531*
X6276Y529*
X6275Y526*
X6274Y522*
X6273Y517*
X6272Y515*
X6271Y514*
Y513*
X6270Y513*
X6270Y513*
X6269Y512*
X6269Y511*
X6268Y510*
X6266Y508*
X6264Y505*
X6261Y503*
X6258Y500*
X6254Y498*
X6254*
X6254Y498*
X6253Y497*
X6252Y497*
X6251Y497*
X6250Y496*
X6249Y496*
X6247Y495*
X6245Y495*
X6244Y494*
X6242Y494*
X6240Y493*
X6235Y493*
X6230Y493*
X6191*
X6190Y493*
X6189Y493*
X6188Y494*
X6188Y494*
X6187Y495*
X6187Y496*
X6186Y497*
Y604*
Y604*
Y605*
X6187Y605*
X6187Y606*
X6188Y607*
X6188Y608*
X6189Y608*
X6190Y609*
X6191Y609*
X6230*
X6231Y609*
G37*
G36*
X6122D02*
X6122Y609D01*
X6124Y608*
X6125Y607*
X6126Y606*
X6127Y605*
X6128Y603*
X6169Y498*
X6169Y498*
X6169Y498*
X6169Y497*
X6169Y496*
Y496*
X6169Y495*
X6169Y494*
X6168Y494*
X6168Y493*
X6168Y493*
X6167Y493*
X6166Y493*
X6159*
X6159Y493*
X6158Y493*
X6157Y493*
X6156Y494*
X6155Y494*
X6154Y495*
X6153Y497*
X6145Y519*
X6087*
X6078Y497*
X6078Y497*
X6078Y496*
X6078Y495*
X6077Y495*
X6076Y494*
X6075Y493*
X6073Y493*
X6072Y493*
X6065*
X6065Y493*
X6064Y493*
X6063Y494*
X6063Y494*
X6062Y494*
X6062Y495*
X6062Y496*
Y496*
X6062Y497*
X6062Y498*
X6063Y498*
X6103Y603*
X6103Y604*
X6104Y604*
X6104Y605*
X6105Y606*
X6106Y607*
X6107Y608*
X6109Y609*
X6111Y609*
X6121*
X6122Y609*
G37*
G36*
X5880D02*
X5881Y608D01*
X5882Y607*
X5882Y607*
X5883Y607*
X5883Y606*
X5884Y604*
Y507*
X5940*
X5941Y507*
X5942Y507*
X5943Y506*
X5943Y506*
X5944Y505*
X5944Y504*
X5944Y503*
Y497*
Y497*
Y497*
X5944Y496*
X5944Y495*
X5943Y494*
X5943Y494*
X5942Y493*
X5941Y493*
X5940Y493*
X5872*
X5871Y493*
X5870Y493*
X5869Y494*
X5869Y494*
X5869Y495*
X5868Y496*
X5868Y497*
Y604*
Y604*
Y605*
X5868Y605*
X5868Y606*
X5869Y607*
X5869Y608*
X5870Y608*
X5871Y609*
X5872Y609*
X5879*
X5880Y609*
G37*
G36*
X5841Y609D02*
X5842Y608D01*
X5843Y608*
X5843Y607*
X5844Y606*
X5844Y605*
X5844Y605*
Y604*
Y604*
Y598*
X5844Y597*
X5844Y596*
X5843Y595*
X5843Y595*
X5842Y594*
X5841Y594*
X5840Y594*
X5785*
Y559*
X5836*
X5837Y558*
X5838Y558*
X5839Y558*
X5839Y557*
X5840Y556*
X5840Y555*
X5841Y555*
Y554*
Y554*
Y548*
X5840Y547*
X5840Y546*
X5840Y545*
X5839Y545*
X5838Y544*
X5837Y544*
X5836Y544*
X5785*
Y507*
X5841*
X5842Y507*
X5843Y507*
X5844Y506*
X5844Y506*
X5845Y505*
X5845Y504*
X5846Y503*
Y503*
Y503*
Y497*
X5845Y496*
X5845Y495*
X5844Y494*
X5844Y494*
X5843Y493*
X5842Y493*
X5841Y493*
X5774*
X5773Y493*
X5772Y493*
X5771Y494*
X5771Y494*
X5770Y495*
X5770Y496*
X5770Y497*
Y497*
Y497*
Y604*
X5770Y606*
X5770Y607*
X5771Y607*
X5771Y607*
X5772Y608*
X5773Y609*
X5774Y609*
X5840*
X5841Y609*
G37*
G36*
X5709Y609D02*
X5710Y609D01*
X5712Y608*
X5714Y608*
X5716Y608*
X5721Y607*
X5723Y606*
X5726Y605*
X5728Y604*
X5730Y603*
X5733Y602*
X5735Y600*
X5735Y600*
X5735Y600*
X5736Y599*
X5737Y599*
X5737Y598*
X5738Y597*
X5739Y595*
X5741Y594*
X5742Y592*
X5743Y590*
X5744Y588*
X5744Y586*
X5745Y583*
X5746Y580*
X5746Y578*
X5746Y574*
Y574*
Y574*
Y573*
X5746Y572*
Y571*
X5746Y570*
X5746Y568*
X5745Y567*
X5745Y564*
X5743Y560*
X5742Y557*
X5741Y555*
X5740Y553*
X5739Y553*
X5739Y553*
X5739Y552*
X5738Y552*
X5738Y551*
X5737Y551*
X5735Y549*
X5732Y547*
X5730Y545*
X5726Y543*
X5722Y542*
X5747Y498*
X5747Y498*
X5748Y497*
X5748Y497*
X5748Y496*
Y496*
X5748Y495*
X5747Y494*
X5747Y494*
X5747Y493*
X5746Y493*
X5745Y493*
X5744Y493*
X5737*
X5736Y493*
X5735Y493*
X5734Y493*
X5733Y494*
X5732Y495*
X5731Y495*
X5730Y497*
X5706Y539*
X5677*
Y497*
Y497*
Y497*
X5677Y496*
X5677Y495*
X5676Y494*
X5675Y494*
X5675Y493*
X5674Y493*
X5673Y493*
X5666*
X5665Y493*
X5664Y493*
X5663Y494*
X5662Y494*
X5662Y495*
X5662Y496*
X5661Y497*
Y604*
Y604*
Y605*
X5662Y605*
X5662Y606*
X5663Y607*
X5663Y608*
X5664Y608*
X5665Y609*
X5666Y609*
X5708*
X5709Y609*
G37*
G36*
X5142Y609D02*
X5143Y608D01*
X5144Y608*
X5144Y607*
X5145Y606*
X5146Y605*
X5146Y605*
Y604*
Y604*
Y598*
X5146Y597*
X5145Y596*
X5145Y595*
X5144Y595*
X5143Y594*
X5142Y594*
X5142Y594*
X5087*
Y559*
X5138*
X5139Y558*
X5140Y558*
X5140Y558*
X5141Y557*
X5142Y556*
X5142Y555*
X5142Y555*
Y554*
Y554*
Y548*
X5142Y547*
X5141Y546*
X5141Y545*
X5141Y545*
X5140Y544*
X5139Y544*
X5138Y544*
X5087*
Y507*
X5143*
X5144Y507*
X5145Y507*
X5145Y506*
X5146Y506*
X5146Y505*
X5147Y504*
X5147Y503*
Y503*
Y503*
Y497*
X5147Y496*
X5146Y495*
X5146Y494*
X5146Y494*
X5145Y493*
X5144Y493*
X5143Y493*
X5076*
X5074Y493*
X5073Y493*
X5073Y494*
X5072Y494*
X5072Y495*
X5071Y496*
X5071Y497*
Y497*
Y497*
Y604*
X5071Y606*
X5072Y607*
X5072Y607*
X5072Y607*
X5073Y608*
X5074Y609*
X5075Y609*
X5141*
X5142Y609*
G37*
G36*
X5011Y609D02*
X5012D01*
X5014Y609*
X5015Y608*
X5017Y608*
X5020Y608*
X5024Y607*
X5027Y605*
X5030Y604*
X5030*
X5031Y603*
X5031Y603*
X5032Y603*
X5033Y602*
X5035Y600*
X5037Y599*
X5039Y596*
X5041Y594*
X5042Y591*
Y591*
X5042Y591*
X5042Y591*
X5043Y590*
X5043Y589*
X5044Y587*
X5044Y585*
X5045Y583*
X5045Y580*
X5046Y578*
Y577*
Y577*
Y577*
Y576*
X5045Y575*
X5045Y574*
X5045Y572*
X5044Y570*
X5044Y567*
X5043Y565*
X5041Y563*
X5041Y562*
X5040Y562*
X5039Y561*
X5038Y559*
X5037Y558*
X5035Y557*
X5034Y555*
X5032Y554*
X5032*
X5032Y554*
X5033Y553*
X5035Y552*
X5036Y551*
X5038Y549*
X5040Y547*
X5042Y545*
X5044Y542*
Y542*
X5044Y542*
X5044Y542*
X5044Y541*
X5045Y539*
X5046Y538*
X5047Y535*
X5047Y533*
X5048Y529*
X5048Y526*
Y526*
Y526*
Y525*
Y525*
X5048Y524*
X5048Y523*
X5047Y521*
X5047Y518*
X5046Y516*
X5045Y513*
X5044Y510*
Y510*
X5044Y510*
X5043Y509*
X5043Y509*
X5042Y507*
X5041Y505*
X5039Y503*
X5037Y501*
X5034Y499*
X5031Y497*
X5031*
X5031Y497*
X5030Y497*
X5030Y497*
X5029Y496*
X5028Y496*
X5027Y495*
X5026Y495*
X5023Y494*
X5019Y493*
X5015Y493*
X5011Y493*
X4964*
X4964Y493*
X4962Y493*
X4961Y494*
X4961Y494*
X4961Y495*
X4960Y496*
X4960Y497*
Y604*
Y604*
Y605*
X4960Y605*
X4961Y606*
X4961Y607*
X4962Y608*
X4962Y608*
X4963Y609*
X4965Y609*
X5010*
X5011Y609*
G37*
G36*
X6006Y610D02*
X6007D01*
X6008Y610*
X6010Y610*
X6012Y610*
X6016Y609*
X6020Y608*
X6024Y606*
X6026Y606*
X6028Y604*
X6028*
X6028Y604*
X6029Y604*
X6030Y603*
X6030Y603*
X6031Y602*
X6034Y600*
X6036Y598*
X6039Y595*
X6041Y592*
X6043Y588*
Y588*
X6044Y588*
X6044Y587*
X6044Y587*
X6045Y586*
X6045Y584*
X6046Y583*
X6046Y582*
X6047Y580*
X6047Y578*
X6048Y574*
X6049Y570*
X6049Y565*
Y565*
Y565*
Y564*
X6049Y564*
Y563*
Y562*
X6049Y560*
Y558*
X6050Y555*
Y553*
Y551*
Y550*
Y550*
Y549*
Y547*
X6049Y545*
Y542*
X6049Y539*
X6049Y536*
Y536*
Y535*
X6049Y535*
Y534*
X6049Y533*
X6049Y531*
X6049Y530*
X6048Y528*
X6048Y525*
X6046Y521*
X6045Y517*
X6043Y513*
Y513*
X6043Y513*
X6043Y512*
X6042Y511*
X6042Y510*
X6041Y509*
X6039Y507*
X6037Y505*
X6034Y502*
X6031Y499*
X6028Y497*
X6027*
X6027Y497*
X6027Y496*
X6026Y496*
X6025Y495*
X6024Y495*
X6022Y495*
X6021Y494*
X6019Y493*
X6017Y493*
X6015Y492*
X6013Y492*
X6008Y491*
X6006Y491*
X6003Y491*
X6002*
X6001Y491*
X6000*
X5998Y491*
X5997Y491*
X5995Y492*
X5991Y492*
X5987Y493*
X5983Y495*
X5981Y496*
X5979Y497*
X5979Y497*
X5979Y497*
X5978Y498*
X5977Y498*
X5976Y498*
X5976Y499*
X5973Y501*
X5971Y503*
X5968Y506*
X5966Y509*
X5963Y513*
Y513*
X5963Y513*
X5963Y514*
X5963Y515*
X5962Y516*
X5962Y517*
X5961Y518*
X5961Y520*
X5960Y521*
X5960Y523*
X5959Y527*
X5958Y531*
X5957Y536*
Y536*
Y537*
Y538*
Y540*
X5957Y542*
Y544*
Y547*
Y551*
Y551*
Y551*
Y552*
Y552*
Y553*
Y554*
Y556*
Y559*
Y561*
X5957Y563*
Y565*
Y566*
Y566*
X5958Y567*
Y568*
X5958Y569*
X5958Y570*
X5958Y571*
X5958Y573*
X5959Y577*
X5960Y580*
X5961Y584*
X5963Y588*
Y588*
X5964Y589*
X5964Y589*
X5964Y590*
X5965Y591*
X5966Y592*
X5967Y594*
X5970Y597*
X5972Y599*
X5975Y602*
X5979Y604*
X5979Y605*
X5979Y605*
X5980Y605*
X5981Y605*
X5982Y606*
X5983Y606*
X5984Y607*
X5986Y607*
X5988Y608*
X5989Y609*
X5991Y609*
X5994Y609*
X5998Y610*
X6001Y610*
X6005*
X6006Y610*
G37*
%LNbenchy-relays-pcb-2*%
%LPC*%
G36*
X4197Y721D02*
X4174Y718D01*
X4167Y714*
Y711*
X4161Y697*
X4171Y678*
X4185Y672*
X4197Y675*
X4207Y682*
X4210Y694*
X4207Y711*
X4197Y721*
G37*
G36*
X4670Y837D02*
X4453Y835D01*
X4455Y446*
X4675Y449*
X4695Y460*
X4700Y464*
X4697Y470*
X4683Y493*
X4680Y498*
X4660Y529*
X4657Y535*
X4653Y542*
X4620Y487*
X4619Y486*
X4615Y481*
X4606Y467*
X4559Y466*
X4558Y467*
X4564Y473*
X4566Y478*
X4595Y518*
X4598Y524*
X4612Y544*
X4615Y549*
X4620Y555*
X4629Y572*
X4615Y592*
X4612Y597*
X4583Y637*
X4581Y643*
X4566Y663*
X4568Y667*
X4615Y665*
X4617Y660*
X4632Y637*
X4634Y631*
X4649Y609*
X4653Y599*
X4687Y655*
X4692Y667*
X4742Y665*
X4736Y660*
X4734Y654*
X4728Y648*
X4725Y643*
X4711Y623*
X4708Y617*
X4680Y578*
X4677Y569*
X4683Y563*
X4685Y558*
X4700Y538*
X4702Y532*
X4708Y527*
X4711Y521*
X4725Y501*
X4726Y497*
X4742Y535*
X4748Y555*
X4751Y566*
X4755Y593*
X4758Y650*
X4755Y689*
X4749Y723*
X4743Y746*
X4732Y774*
X4719Y799*
X4714Y804*
X4711Y810*
X4695Y825*
X4690Y828*
X4670Y837*
G37*
G36*
X4857Y1001D02*
X4576D01*
X4215Y1000*
X4218Y872*
X4262Y828*
X4289Y830*
X4292Y841*
X4307Y845*
X4371Y847*
X4374Y889*
X4385Y909*
X4409Y919*
X4690Y916*
X4698Y913*
X4712Y908*
X4738Y893*
X4753Y881*
X4762Y875*
X4765Y869*
X4779Y855*
X4782Y850*
X4787Y844*
X4790Y838*
X4819Y779*
X4823Y763*
X4828Y740*
X4831Y726*
X4834Y709*
X4838Y671*
X4836Y575*
X4833Y566*
X4828Y542*
X4823Y520*
X4811Y488*
X4806Y474*
X4782Y433*
X4776Y427*
X4773Y422*
X4749Y398*
X4743Y395*
X4738Y389*
X4701Y372*
X4678Y367*
X4641Y364*
X4401Y367*
X4381Y378*
X4375Y392*
X4371Y408*
X4370Y435*
X4293Y437*
X4289Y442*
X4287Y449*
X4265Y446*
X4227Y408*
X4228Y375*
X4248Y364*
X4258Y354*
X4263Y340*
X4266Y320*
X4263Y311*
X4252Y292*
X4242Y282*
X4228Y276*
X4217Y273*
X4197Y276*
X4177Y290*
X4167Y300*
X4161Y320*
X4164Y345*
X4177Y361*
X4185Y369*
X4198Y376*
X4201Y419*
X4207Y425*
X4210Y430*
X4251Y471*
X4265Y477*
X4289Y478*
X4292Y490*
X4371Y493*
X4370Y551*
X4293Y554*
X4289Y558*
X4286Y566*
X4251Y568*
X4235Y555*
X4208Y528*
X4188Y522*
X4127Y521*
X4129Y270*
X4858Y272*
X4857Y1001*
G37*
G36*
X4214Y350D02*
X4200Y347D01*
X4193Y340*
X4190Y328*
Y326*
X4193Y311*
X4197Y307*
X4211Y301*
X4225Y304*
X4235Y314*
X4238Y326*
X4235Y337*
X4225Y347*
X4214Y350*
G37*
G36*
X4185Y1001D02*
X4127Y1000D01*
X4129Y551*
X4194Y554*
X4228Y588*
X4234Y590*
X4242Y593*
X4287Y596*
X4292Y606*
X4304Y610*
X4371Y612*
X4370Y670*
X4290Y672*
X4287Y684*
X4235Y682*
X4232Y671*
X4214Y653*
X4200Y647*
X4166Y650*
X4147Y663*
X4144Y668*
X4136Y688*
X4139Y719*
X4151Y735*
X4160Y743*
X4180Y749*
X4205Y746*
X4225Y732*
X4229Y728*
X4236Y712*
X4289Y714*
X4292Y722*
X4296Y726*
X4371Y728*
X4370Y786*
X4293Y789*
X4289Y793*
X4287Y800*
X4251Y803*
X4190Y864*
X4187Y883*
Y974*
Y977*
X4185Y1001*
G37*
G36*
X4979Y292D02*
X4966D01*
Y276*
X4978*
X4979Y276*
X4979Y276*
X4980Y276*
X4981Y277*
X4982Y277*
X4983Y277*
X4984Y278*
X4984Y278*
X4985Y279*
X4986Y280*
X4987Y281*
X4987Y282*
X4988Y283*
X4988Y284*
Y284*
Y284*
Y284*
Y285*
X4988Y285*
Y285*
X4988Y286*
X4987Y287*
X4987Y287*
X4987Y288*
X4986Y289*
X4986Y290*
X4985Y290*
X4985*
X4985Y290*
X4985Y290*
X4985Y290*
X4984Y291*
X4984Y291*
X4984Y291*
X4983Y291*
X4983Y291*
X4982Y291*
X4982Y292*
X4981Y292*
X4980Y292*
X4979Y292*
X4979Y292*
G37*
G36*
X5303Y436D02*
X5280Y376D01*
X5326*
X5303Y436*
G37*
G36*
X5006Y436D02*
X4976D01*
Y397*
X5005*
X5006Y397*
X5008Y397*
X5010Y397*
X5012Y398*
X5014Y398*
X5017Y399*
X5019Y400*
X5021Y402*
X5023Y403*
X5025Y405*
X5027Y408*
X5028Y410*
X5029Y413*
X5029Y415*
Y417*
Y417*
Y417*
Y418*
X5029Y419*
Y419*
X5029Y421*
X5028Y423*
X5028Y425*
X5026Y428*
X5025Y430*
X5024Y431*
X5023Y432*
X5023*
X5022Y432*
X5022Y432*
X5022Y432*
X5021Y433*
X5020Y433*
X5019Y434*
X5018Y434*
X5017Y434*
X5015Y435*
X5014Y435*
X5012Y436*
X5010Y436*
X5008Y436*
X5006Y436*
G37*
G36*
X6441Y594D02*
X6415D01*
Y507*
X6443*
X6444Y508*
X6446Y508*
X6447Y508*
X6449Y508*
X6451Y509*
X6455Y510*
X6457Y510*
X6459Y511*
X6461Y512*
X6463Y513*
X6464Y515*
X6466Y516*
X6466Y516*
X6466Y517*
X6466Y517*
X6467Y518*
X6468Y519*
X6468Y520*
X6469Y521*
X6469Y522*
X6470Y524*
X6471Y525*
X6471Y527*
X6472Y529*
X6473Y531*
X6473Y533*
X6473Y536*
X6473Y538*
Y539*
Y539*
X6474Y540*
Y542*
Y544*
X6474Y546*
Y548*
Y551*
Y551*
Y551*
Y551*
Y552*
Y553*
Y555*
Y557*
X6474Y559*
Y561*
X6473Y563*
Y563*
Y564*
X6473Y564*
Y565*
X6473Y566*
X6473Y568*
X6473Y569*
X6472Y571*
X6471Y574*
X6470Y578*
X6469Y580*
X6468Y582*
X6467Y583*
X6465Y585*
X6465Y585*
X6465Y586*
X6465Y586*
X6464Y587*
X6463Y587*
X6462Y588*
X6461Y589*
X6459Y590*
X6458Y590*
X6456Y591*
X6454Y592*
X6452Y593*
X6449Y593*
X6447Y593*
X6444Y594*
X6441Y594*
G37*
G36*
X6228D02*
X6202D01*
Y507*
X6231*
X6232Y508*
X6233Y508*
X6235Y508*
X6237Y508*
X6238Y509*
X6242Y510*
X6244Y510*
X6246Y511*
X6248Y512*
X6250Y513*
X6252Y515*
X6253Y516*
X6253Y516*
X6253Y517*
X6254Y517*
X6254Y518*
X6255Y519*
X6256Y520*
X6256Y521*
X6257Y522*
X6258Y524*
X6258Y525*
X6259Y527*
X6259Y529*
X6260Y531*
X6260Y533*
X6261Y536*
X6261Y538*
Y539*
Y539*
X6261Y540*
Y542*
Y544*
X6261Y546*
Y548*
Y551*
Y551*
Y551*
Y551*
Y552*
Y553*
Y555*
Y557*
X6261Y559*
Y561*
X6261Y563*
Y563*
Y564*
X6261Y564*
Y565*
X6261Y566*
X6260Y568*
X6260Y569*
X6260Y571*
X6259Y574*
X6257Y578*
X6256Y580*
X6255Y582*
X6254Y583*
X6253Y585*
X6253Y585*
X6252Y586*
X6252Y586*
X6251Y587*
X6250Y587*
X6249Y588*
X6248Y589*
X6247Y590*
X6245Y590*
X6243Y591*
X6241Y592*
X6239Y593*
X6237Y593*
X6234Y593*
X6231Y594*
X6228Y594*
G37*
G36*
X6116Y593D02*
X6093Y534D01*
X6139*
X6116Y593*
G37*
G36*
X5708Y594D02*
X5677D01*
Y554*
X5706*
X5708Y554*
X5709Y555*
X5711Y555*
X5713Y555*
X5715Y556*
X5718Y557*
X5720Y558*
X5722Y559*
X5725Y561*
X5726Y563*
X5728Y565*
X5729Y568*
X5730Y571*
X5730Y573*
Y574*
Y575*
Y575*
Y575*
X5730Y576*
Y577*
X5730Y578*
X5729Y580*
X5729Y583*
X5728Y585*
X5726Y587*
X5725Y588*
X5724Y589*
X5724*
X5724Y589*
X5723Y590*
X5723Y590*
X5722Y590*
X5721Y591*
X5720Y591*
X5719Y592*
X5718Y592*
X5717Y592*
X5715Y593*
X5713Y593*
X5712Y593*
X5710Y594*
X5708Y594*
G37*
G36*
X5007D02*
X4976D01*
Y560*
X5009*
X5009Y560*
X5010*
X5011Y561*
X5014Y561*
X5016Y561*
X5019Y562*
X5022Y563*
X5024Y564*
X5024Y565*
X5025Y565*
X5026Y566*
X5027Y568*
X5028Y570*
X5029Y572*
X5029Y574*
X5030Y577*
Y577*
Y577*
Y578*
X5030Y578*
X5029Y580*
X5029Y582*
X5028Y584*
X5027Y586*
X5026Y588*
X5024Y590*
X5024Y590*
X5023Y590*
X5022Y591*
X5020Y592*
X5017Y593*
X5015Y593*
X5011Y594*
X5007Y594*
G37*
G36*
X5010Y545D02*
X4976D01*
Y507*
X5011*
X5012Y508*
X5012*
X5013Y508*
X5016Y508*
X5019Y509*
X5021Y510*
X5024Y511*
X5026Y513*
X5026*
X5027Y513*
X5027Y514*
X5028Y515*
X5029Y517*
X5030Y519*
X5031Y521*
X5032Y523*
X5032Y525*
Y526*
Y526*
Y527*
Y527*
X5032Y528*
X5032Y529*
X5031Y531*
X5031Y533*
X5030Y536*
X5028Y538*
X5027Y540*
X5026Y540*
X5025Y541*
X5024Y542*
X5022Y543*
X5020Y544*
X5017Y545*
X5014Y545*
X5010Y545*
G37*
G36*
X6003Y596D02*
X6002D01*
X6001Y595*
X6000Y595*
X5999Y595*
X5997Y595*
X5996Y595*
X5992Y594*
X5991Y593*
X5989Y592*
X5987Y591*
X5985Y590*
X5984Y589*
X5982Y588*
X5982Y588*
X5982Y587*
X5981Y587*
X5981Y586*
X5980Y585*
X5979Y584*
X5979Y583*
X5978Y582*
X5977Y580*
X5976Y579*
X5976Y577*
X5975Y575*
X5974Y572*
X5974Y570*
X5973Y567*
X5973Y565*
Y564*
Y564*
Y563*
Y561*
X5973Y559*
Y557*
Y554*
Y551*
Y551*
Y550*
Y550*
Y549*
Y548*
Y546*
Y543*
Y541*
X5973Y539*
Y537*
Y537*
Y536*
X5973Y535*
Y534*
X5974Y533*
X5974Y532*
X5974Y530*
X5975Y528*
X5976Y524*
X5976Y522*
X5977Y520*
X5978Y519*
X5979Y517*
X5980Y515*
X5982Y514*
X5982Y514*
X5982Y513*
X5983Y513*
X5983Y512*
X5984Y512*
X5985Y511*
X5986Y510*
X5988Y510*
X5989Y509*
X5991Y508*
X5993Y508*
X5995Y507*
X5997Y507*
X5999Y506*
X6001Y506*
X6003Y506*
X6005*
X6006Y506*
X6007Y506*
X6008Y506*
X6009Y507*
X6011Y507*
X6015Y508*
X6016Y508*
X6018Y509*
X6020Y510*
X6021Y511*
X6023Y512*
X6025Y514*
X6025Y514*
X6025Y514*
X6026Y514*
X6026Y515*
X6027Y516*
X6027Y517*
X6028Y518*
X6029Y520*
X6030Y521*
X6030Y523*
X6031Y525*
X6032Y527*
X6033Y529*
X6033Y531*
X6033Y534*
X6034Y537*
Y537*
Y537*
Y538*
Y538*
Y539*
X6034Y540*
Y542*
Y545*
X6034Y547*
Y549*
Y550*
Y551*
Y551*
Y552*
Y552*
Y554*
Y556*
X6034Y558*
Y561*
X6034Y563*
Y565*
Y565*
Y565*
X6033Y566*
X6033Y567*
X6033Y568*
X6033Y570*
X6033Y571*
X6032Y573*
X6031Y577*
X6030Y579*
X6030Y581*
X6029Y583*
X6027Y584*
X6026Y586*
X6025Y588*
X6025Y588*
X6024Y588*
X6024Y588*
X6023Y589*
X6022Y590*
X6021Y590*
X6020Y591*
X6019Y592*
X6018Y592*
X6016Y593*
X6014Y594*
X6012Y594*
X6010Y595*
X6008Y595*
X6006Y595*
X6003Y596*
G37*
%LNbenchy-relays-pcb-3*%
%LPD*%
G54D10*
X12500Y1614D02*
D01*
X12505Y1618*
X12510Y1623*
X12514Y1629*
X12519Y1635*
X12523Y1641*
X12526Y1647*
X12529Y1653*
X12531Y1660*
X12533Y1667*
X12535Y1674*
X12536Y1681*
X12537Y1688*
X12537Y1695*
X12536Y1702*
X12535Y1709*
X12534Y1716*
X12532Y1723*
X12529Y1730*
X12527Y1736*
X12523Y1743*
X12520Y1749*
X12515Y1755*
X12511Y1760*
X12506Y1765*
X12501Y1770*
X12500Y1771*
X12500Y2007D02*
D01*
X12505Y2012*
X12510Y2017*
X12514Y2023*
X12519Y2028*
X12523Y2034*
X12526Y2041*
X12529Y2047*
X12531Y2054*
X12533Y2061*
X12535Y2068*
X12536Y2075*
X12537Y2082*
X12537Y2089*
X12536Y2096*
X12535Y2103*
X12534Y2110*
X12532Y2117*
X12529Y2124*
X12527Y2130*
X12523Y2136*
X12520Y2142*
X12515Y2148*
X12511Y2154*
X12506Y2159*
X12501Y2164*
X12500Y2164*
X12500Y1811D02*
D01*
X12505Y1815*
X12510Y1820*
X12514Y1826*
X12519Y1831*
X12523Y1837*
X12526Y1844*
X12529Y1850*
X12531Y1857*
X12533Y1864*
X12535Y1871*
X12536Y1878*
X12537Y1885*
X12537Y1892*
X12536Y1899*
X12535Y1906*
X12534Y1913*
X12532Y1920*
X12529Y1927*
X12527Y1933*
X12523Y1940*
X12520Y1946*
X12515Y1951*
X12511Y1957*
X12506Y1962*
X12501Y1967*
X12500Y1967*
X2683Y667D02*
X2691D01*
X2899Y521D02*
X2907D01*
X2899Y667D02*
X2907D01*
X2683Y521D02*
X2691D01*
X2675Y540D02*
X2683Y535D01*
X2675Y540D02*
X2683Y549D01*
Y521D02*
Y549D01*
Y639D02*
Y667D01*
X2907Y639D02*
Y667D01*
Y521D02*
Y549D01*
X12188Y1704D02*
X12212Y1692D01*
X12500Y1771D02*
Y1811D01*
X12220Y1850D02*
Y1929D01*
Y1850D02*
X12291D01*
Y1586D02*
Y2192D01*
Y1850D02*
Y1929D01*
Y1653D02*
Y1732D01*
X12500Y1968D02*
Y2007D01*
X12251Y1732D02*
Y1850D01*
X12220Y1929D02*
X12291D01*
X12220Y1653D02*
X12291D01*
X12220Y1550D02*
X12567D01*
Y2228*
X12220Y2047D02*
Y2125D01*
X12188Y1681D02*
Y1704D01*
X12220Y2125D02*
X12291D01*
X12220Y2228D02*
X12567D01*
X12500Y1586D02*
Y1614D01*
Y2165D02*
Y2192D01*
X12220Y1732D02*
X12291D01*
X12220Y1550D02*
Y2228D01*
X12251Y1929D02*
Y2047D01*
X12220Y1653D02*
Y1732D01*
Y2047D02*
X12291D01*
Y2192D02*
X12500D01*
X12291Y2047D02*
Y2125D01*
X12251Y2130D02*
Y2228D01*
X12188Y1681D02*
X12212Y1692D01*
X12251Y1550D02*
Y1649D01*
X12291Y1586D02*
X12500D01*
X2391Y421D02*
X3218D01*
X2291Y246D02*
X2805D01*
X2250Y462D02*
X2299D01*
X2391Y421D02*
Y450D01*
X2261Y362D02*
X2291D01*
X3318D02*
X3348D01*
X2261Y450D02*
X2332D01*
X2805Y246D02*
X3318D01*
X2261Y216D02*
X3348D01*
X2261Y451D02*
X3348D01*
X2391Y450D02*
X3218D01*
X3277D02*
X3348D01*
X2261Y421D02*
X2332D01*
X3641Y545D02*
Y596D01*
X3743Y545D02*
Y596D01*
X1855Y475D02*
Y461D01*
X1892Y462D02*
Y474D01*
X2332Y421D02*
Y450D01*
X2091Y461D02*
Y475D01*
X2128Y462D02*
Y474D01*
X2595Y570D02*
X2601D01*
X3218Y421D02*
Y450D01*
X2261Y421D02*
Y450D01*
X3348Y421D02*
Y450D01*
X2261Y216D02*
Y451D01*
X3277Y421D02*
Y450D01*
Y421D02*
X3348D01*
X3318Y246D02*
Y362D01*
X2595Y618D02*
X2601D01*
X2595Y649D02*
X2601D01*
X2595Y539D02*
X2601D01*
X3348Y216D02*
Y451D01*
X2250Y413D02*
Y462D01*
X2291Y246D02*
Y362D01*
X3625Y545D02*
Y596D01*
X3470Y462D02*
Y413D01*
X3481Y216D02*
X3880D01*
X3612Y421D02*
X3750D01*
X3850Y362D02*
X3879D01*
X3809Y421D02*
Y450D01*
X3482D02*
X3553D01*
X3879Y421D02*
Y450D01*
X3612D02*
X3750D01*
X3850Y246D02*
Y362D01*
X3809Y450D02*
X3879D01*
X3830Y487D02*
X3846D01*
X3830Y536D02*
X3846D01*
X3523Y545D02*
Y596D01*
X3681Y246D02*
X3850D01*
X3832Y565D02*
X3844D01*
X3832Y615D02*
X3844D01*
X3553Y450D02*
Y421D01*
X3809D02*
X3879D01*
X3511Y246D02*
Y362D01*
X3482Y421D02*
X3553D01*
X3880Y216D02*
Y451D01*
X3612Y421D02*
Y450D01*
X3482Y362D02*
X3511D01*
X3482Y450D02*
Y421D01*
X3481Y451D02*
X3880D01*
X3470Y462D02*
X3519D01*
X3481Y451D02*
Y216D01*
X3750Y421D02*
Y450D01*
X3511Y246D02*
X3681D01*
G54D11*
X2071Y389D02*
X2148D01*
Y283D02*
Y389D01*
X1835Y283D02*
Y389D01*
X2071Y283D02*
Y389D01*
X1835D02*
X1912D01*
Y283D02*
Y389D01*
G54D12*
X2103Y251D02*
X2077D01*
Y232*
X2090Y238*
X2097*
X2103Y232*
Y219*
X2097Y212*
X2084*
X2077Y219*
X2116Y251D02*
Y225D01*
X2129Y212*
X2143Y225*
Y251*
X11106Y3307D02*
X11145D01*
X11106Y3281*
X11145*
X11397D02*
Y3307D01*
X11358*
Y3281*
X11377Y3307D02*
Y3294D01*
X11649Y3307D02*
X11610D01*
X11629*
Y3281*
X11649*
X11610*
X9649Y3307D02*
X9688D01*
X9649Y3281*
X9688*
X9940D02*
Y3307D01*
X9901*
Y3281*
X9921Y3307D02*
Y3294D01*
X10192Y3307D02*
X10153D01*
X10173*
Y3281*
X10192*
X10153*
X8192Y3307D02*
X8232D01*
X8192Y3281*
X8232*
X8484D02*
Y3307D01*
X8444*
Y3281*
X8464Y3307D02*
Y3294D01*
X8736Y3307D02*
X8696D01*
X8716*
Y3281*
X8736*
X8696*
X6736Y3307D02*
X6775D01*
X6736Y3281*
X6775*
X7027D02*
Y3307D01*
X6988*
Y3281*
X7007Y3307D02*
Y3294D01*
X7279Y3307D02*
X7240D01*
X7259*
Y3281*
X7279*
X7240*
X5279Y3307D02*
X5318D01*
X5279Y3281*
X5318*
X5570D02*
Y3307D01*
X5531*
Y3281*
X5551Y3307D02*
Y3294D01*
X5822Y3307D02*
X5783D01*
X5803*
Y3281*
X5822*
X5783*
X3822Y3307D02*
X3862D01*
X3822Y3281*
X3862*
X4114D02*
Y3307D01*
X4074*
Y3281*
X4094Y3307D02*
Y3294D01*
X4366Y3307D02*
X4326D01*
X4346*
Y3281*
X4366*
X4326*
X2366Y3307D02*
X2405D01*
X2366Y3281*
X2405*
X2657D02*
Y3307D01*
X2618*
Y3281*
X2637Y3307D02*
Y3294D01*
X2909Y3307D02*
X2870D01*
X2889*
Y3281*
X2909*
X2870*
X909Y3307D02*
X948D01*
X909Y3281*
X948*
X1200D02*
Y3307D01*
X1161*
Y3281*
X1181Y3307D02*
Y3294D01*
X1452Y3307D02*
X1413D01*
X1433*
Y3281*
X1452*
X1413*
X1824Y212D02*
X1837D01*
X1831*
Y251*
X1824Y245*
X1883Y212D02*
X1857D01*
X1883Y238*
Y245*
X1877Y251*
X1864*
X1857Y245*
X1896Y251D02*
Y225D01*
X1910Y212*
X1923Y225*
Y251*
G54D13*
X10839Y3484D02*
X10826D01*
X10833*
Y3451*
X10826Y3444*
X10820*
X10813Y3451*
X10853D02*
X10859Y3444D01*
X10872*
X10879Y3451*
Y3477*
X10872Y3484*
X10859*
X10853Y3477*
Y3471*
X10859Y3464*
X10879*
X9383Y3484D02*
X9370D01*
X9376*
Y3451*
X9370Y3444*
X9363*
X9356Y3451*
X9396Y3477D02*
X9402Y3484D01*
X9416*
X9422Y3477*
Y3471*
X9416Y3464*
X9422Y3458*
Y3451*
X9416Y3444*
X9402*
X9396Y3451*
Y3458*
X9402Y3464*
X9396Y3471*
Y3477*
X9402Y3464D02*
X9416D01*
X7926Y3484D02*
X7913D01*
X7919*
Y3451*
X7913Y3444*
X7906*
X7900Y3451*
X7965Y3484D02*
X7952Y3477D01*
X7939Y3464*
Y3451*
X7946Y3444*
X7959*
X7965Y3451*
Y3458*
X7959Y3464*
X7939*
X6469Y3484D02*
X6456D01*
X6463*
Y3451*
X6456Y3444*
X6450*
X6443Y3451*
X6509Y3484D02*
X6482D01*
Y3464*
X6496Y3471*
X6502*
X6509Y3464*
Y3451*
X6502Y3444*
X6489*
X6482Y3451*
X5013Y3484D02*
X5000D01*
X5006*
Y3451*
X5000Y3444*
X4993*
X4986Y3451*
X5045Y3444D02*
Y3484D01*
X5026Y3464*
X5052*
X3556Y3484D02*
X3543D01*
X3549*
Y3451*
X3543Y3444*
X3536*
X3530Y3451*
X3569Y3477D02*
X3576Y3484D01*
X3589*
X3595Y3477*
Y3471*
X3589Y3464*
X3582*
X3589*
X3595Y3458*
Y3451*
X3589Y3444*
X3576*
X3569Y3451*
X2099Y3484D02*
X2086D01*
X2093*
Y3451*
X2086Y3444*
X2080*
X2073Y3451*
X2139Y3444D02*
X2112D01*
X2139Y3471*
Y3477*
X2132Y3484*
X2119*
X2112Y3477*
X649Y3484D02*
X636D01*
X643*
Y3451*
X636Y3444*
X629*
X623Y3451*
X662Y3444D02*
X675D01*
X669*
Y3484*
X662Y3477*
X12367Y2287D02*
X12354D01*
X12360*
Y2254*
X12354Y2248*
X12347*
X12341Y2254*
X12380Y2287D02*
X12406D01*
Y2280*
X12380Y2254*
Y2248*
X2670Y738D02*
Y705D01*
X2677Y698*
X2690*
X2696Y705*
Y738*
X2709Y698D02*
X2723D01*
X2716*
Y738*
X2709Y731*
X10838Y2348D02*
Y2387D01*
X10857*
X10864Y2380*
Y2367*
X10857Y2361*
X10838*
X10851D02*
X10864Y2348D01*
X10877Y2387D02*
Y2348D01*
X10903*
X10916Y2380D02*
X10923Y2387D01*
X10936*
X10942Y2380*
Y2374*
X10936Y2367*
X10942Y2361*
Y2354*
X10936Y2348*
X10923*
X10916Y2354*
Y2361*
X10923Y2367*
X10916Y2374*
Y2380*
X10923Y2367D02*
X10936D01*
X9381Y2348D02*
Y2387D01*
X9400*
X9407Y2380*
Y2367*
X9400Y2361*
X9381*
X9394D02*
X9407Y2348D01*
X9420Y2387D02*
Y2348D01*
X9446*
X9459Y2387D02*
X9485D01*
Y2380*
X9459Y2354*
Y2348*
X7924D02*
Y2387D01*
X7943*
X7950Y2380*
Y2367*
X7943Y2361*
X7924*
X7937D02*
X7950Y2348D01*
X7963Y2387D02*
Y2348D01*
X7989*
X8028Y2387D02*
X8015Y2380D01*
X8002Y2367*
Y2354*
X8009Y2348*
X8022*
X8028Y2354*
Y2361*
X8022Y2367*
X8002*
X6467Y2347D02*
Y2386D01*
X6486*
X6493Y2380*
Y2367*
X6486Y2360*
X6467*
X6480D02*
X6493Y2347D01*
X6506Y2386D02*
Y2347D01*
X6532*
X6571Y2386D02*
X6545D01*
Y2367*
X6558Y2373*
X6565*
X6571Y2367*
Y2353*
X6565Y2347*
X6552*
X6545Y2353*
X5011Y2347D02*
Y2386D01*
X5030*
X5037Y2380*
Y2367*
X5030Y2360*
X5011*
X5024D02*
X5037Y2347D01*
X5050Y2386D02*
Y2347D01*
X5076*
X5109D02*
Y2386D01*
X5089Y2367*
X5115*
X3554Y2347D02*
Y2386D01*
X3573*
X3580Y2380*
Y2367*
X3573Y2360*
X3554*
X3567D02*
X3580Y2347D01*
X3593Y2386D02*
Y2347D01*
X3619*
X3632Y2380D02*
X3639Y2386D01*
X3652*
X3658Y2380*
Y2373*
X3652Y2367*
X3645*
X3652*
X3658Y2360*
Y2353*
X3652Y2347*
X3639*
X3632Y2353*
X2097Y2347D02*
Y2386D01*
X2116*
X2123Y2380*
Y2367*
X2116Y2360*
X2097*
X2110D02*
X2123Y2347D01*
X2136Y2386D02*
Y2347D01*
X2162*
X2201D02*
X2175D01*
X2201Y2373*
Y2380*
X2195Y2386*
X2182*
X2175Y2380*
X641Y2347D02*
Y2386D01*
X660*
X667Y2380*
Y2367*
X660Y2360*
X641*
X654D02*
X667Y2347D01*
X680Y2386D02*
Y2347D01*
X706*
X719D02*
X732D01*
X726*
Y2386*
X719Y2380*
X2078Y419D02*
X2039D01*
Y438*
X2045Y445*
X2059*
X2065Y438*
Y419*
Y432D02*
X2078Y445D01*
Y458D02*
Y471D01*
Y465*
X2039*
X2045Y458*
Y491D02*
X2039Y498D01*
Y511*
X2045Y517*
X2052*
X2059Y511*
X2065Y517*
X2072*
X2078Y511*
Y498*
X2072Y491*
X2065*
X2059Y498*
X2052Y491*
X2045*
X2059Y498D02*
Y511D01*
X1944Y419D02*
X1905D01*
Y438*
X1912Y445*
X1925*
X1931Y438*
Y419*
Y432D02*
X1944Y445D01*
Y458D02*
Y471D01*
Y465*
X1905*
X1912Y458*
X1905Y491D02*
Y517D01*
X1912*
X1938Y491*
X1944*
X2345Y507D02*
X2332D01*
X2339*
Y475*
X2332Y468*
X2326*
X2319Y475*
X2358Y468D02*
X2372D01*
X2365*
Y507*
X2358Y501*
X2391Y468D02*
X2404D01*
X2398*
Y507*
X2391Y501*
X3425Y323D02*
Y310D01*
Y316*
X3458*
X3464Y310*
Y303*
X3458Y297*
X3464Y336D02*
Y349D01*
Y343*
X3425*
X3431Y336*
Y369D02*
X3425Y375D01*
Y389*
X3431Y395*
X3458*
X3464Y389*
Y375*
X3458Y369*
X3431*
X3939Y610D02*
X3913D01*
Y590*
X3926*
X3913*
Y570*
X3952Y610D02*
Y570D01*
X3972*
X3978Y577*
Y583*
X3972Y590*
X3952*
X3972*
X3978Y597*
Y603*
X3972Y610*
X3952*
X3992Y570D02*
X4005D01*
X3998*
Y610*
X3992Y603*
X2591Y698D02*
X2585Y704D01*
X2572*
X2565Y698*
Y671*
X2572Y665*
X2585*
X2591Y671*
X2631Y704D02*
X2604D01*
Y685*
X2618Y691*
X2624*
X2631Y685*
Y671*
X2624Y665*
X2611*
X2604Y671*
X2591Y517D02*
X2585Y523D01*
X2572*
X2565Y517*
Y490*
X2572Y484*
X2585*
X2591Y490*
X2624Y484D02*
Y523D01*
X2604Y503*
X2631*
X3568Y698D02*
X3561Y704D01*
X3548*
X3542Y698*
Y671*
X3548Y665*
X3561*
X3568Y671*
X3581Y698D02*
X3587Y704D01*
X3601*
X3607Y698*
Y691*
X3601Y685*
X3594*
X3601*
X3607Y678*
Y671*
X3601Y665*
X3587*
X3581Y671*
X3686Y698D02*
X3679Y704D01*
X3666*
X3660Y698*
Y671*
X3666Y665*
X3679*
X3686Y671*
X3725Y665D02*
X3699D01*
X3725Y691*
Y698*
X3719Y704*
X3706*
X3699Y698*
X3939Y524D02*
X3933Y531D01*
X3919*
X3913Y524*
Y498*
X3919Y492*
X3933*
X3939Y498*
X3952Y492D02*
X3965D01*
X3959*
Y531*
X3952Y524*
M02*