%FSLAX23Y23*%
%MOIN*%
%SFA1B1*%

%IPPOS*%
%ADD10C,0.004720*%
%ADD13C,0.007870*%
%LNbenchy-relays-pcb-1*%
%LPD*%
G54D10*
X655Y1786D02*
X667D01*
X654Y1749D02*
X668D01*
X760Y1686D02*
X816D01*
X9500Y1777D02*
X9556D01*
Y1751D02*
Y1777D01*
X9509Y1679D02*
X9514Y1686D01*
X8044D02*
X8052Y1679D01*
X9500Y1686D02*
X9556D01*
Y1712*
X9500Y1686D02*
X9509Y1679D01*
X11012Y1751D02*
Y1777D01*
X10966Y1679D02*
X10971Y1686D01*
X10957D02*
X10966Y1679D01*
X10957Y1686D02*
X11012D01*
Y1712*
X10957Y1777D02*
X11012D01*
X9600Y1848D02*
Y1953D01*
X9533D02*
X9600D01*
X8076D02*
Y1848D01*
X11057D02*
Y1953D01*
X10990D02*
X11057D01*
X9533D02*
Y1848D01*
X8143D02*
Y1953D01*
X8044Y1777D02*
X8099D01*
Y1751*
X8052Y1679D02*
X8057Y1686D01*
X8076Y1953D02*
X8143D01*
X8044Y1686D02*
X8099D01*
Y1712*
X9394Y1715D02*
X9408D01*
X9395Y1678D02*
X9407D01*
X9394Y1749D02*
X9408D01*
X10860Y1678D02*
X10872D01*
X10859Y1749D02*
X10873D01*
X10860Y1786D02*
X10872D01*
X9395D02*
X9407D01*
X7938D02*
X7950D01*
X3567Y1715D02*
X3581D01*
X3568Y1678D02*
X3580D01*
X7937Y1715D02*
X7951D01*
X7938Y1678D02*
X7950D01*
X7937Y1749D02*
X7951D01*
X2112Y1678D02*
X2124D01*
X5024Y1715D02*
X5038D01*
X5025Y1678D02*
X5037D01*
X654Y1715D02*
X668D01*
X655Y1678D02*
X667D01*
X2111Y1715D02*
X2125D01*
X6481D02*
X6495D01*
X2630Y485D02*
X2644D01*
X2631Y522D02*
X2643D01*
X10859Y1715D02*
X10873D01*
X6482Y1678D02*
X6494D01*
X2630Y467D02*
X2644D01*
X2631Y430D02*
X2643D01*
X10990Y1953D02*
Y1848D01*
X2250Y1953D02*
Y1848D01*
X2316D02*
Y1953D01*
X2250D02*
X2316D01*
X2272Y1751D02*
Y1777D01*
X2226Y1679D02*
X2231Y1686D01*
X2217D02*
X2226Y1679D01*
X3568Y1786D02*
X3580D01*
X3674Y1777D02*
X3729D01*
Y1751D02*
Y1777D01*
X3682Y1679D02*
X3687Y1686D01*
X3567Y1749D02*
X3581D01*
X3674Y1686D02*
X3729D01*
Y1712*
X769Y1679D02*
X774Y1686D01*
X760D02*
X769Y1679D01*
X793Y1953D02*
Y1848D01*
X816Y1686D02*
Y1712D01*
X760Y1777D02*
X816D01*
Y1751D02*
Y1777D01*
X860Y1848D02*
Y1953D01*
X2217Y1686D02*
X2272D01*
Y1712*
X2217Y1777D02*
X2272D01*
X793Y1953D02*
X860D01*
X2112Y1786D02*
X2124D01*
X2111Y1749D02*
X2125D01*
X6481D02*
X6495D01*
X6587Y1686D02*
X6642D01*
Y1712*
X5230Y1848D02*
Y1953D01*
X5163D02*
X5230D01*
X6482Y1786D02*
X6494D01*
X6587Y1777D02*
X6642D01*
X6620Y1953D02*
Y1848D01*
X6687D02*
Y1953D01*
X6620D02*
X6687D01*
X6642Y1751D02*
Y1777D01*
X6596Y1679D02*
X6601Y1686D01*
X6587D02*
X6596Y1679D01*
X3706Y1953D02*
X3773D01*
X5025Y1786D02*
X5037D01*
X5024Y1749D02*
X5038D01*
X3674Y1686D02*
X3682Y1679D01*
X3706Y1953D02*
Y1848D01*
X3773D02*
Y1953D01*
X5130Y1686D02*
X5186D01*
X5139Y1679D02*
X5144Y1686D01*
X5130D02*
X5139Y1679D01*
X5163Y1953D02*
Y1848D01*
X5186Y1686D02*
Y1712D01*
X5130Y1777D02*
X5186D01*
Y1751D02*
Y1777D01*
G54D13*
X2129Y280D02*
X2090D01*
Y299*
X2097Y306*
X2123*
X2129Y299*
Y280*
X2090Y319D02*
Y332D01*
Y326*
X2129*
X2123Y319*
X2090Y352D02*
Y365D01*
Y358*
X2129*
X2123Y352*
X1893Y276D02*
X1854D01*
Y296*
X1860Y302*
X1887*
X1893Y296*
Y276*
X1854Y315D02*
Y329D01*
Y322*
X1893*
X1887Y315*
Y348D02*
X1893Y355D01*
Y368*
X1887Y374*
X1860*
X1854Y368*
Y355*
X1860Y348*
X1887*
X2809Y425D02*
Y464D01*
X2790*
X2783Y458*
Y444*
X2790Y438*
X2809*
X2796D02*
X2783Y425D01*
X2744D02*
X2770D01*
X2744Y451*
Y458*
X2750Y464*
X2763*
X2770Y458*
X2730D02*
X2724Y464D01*
X2711*
X2704Y458*
Y431*
X2711Y425*
X2724*
X2730Y431*
Y458*
X2803Y488D02*
Y527D01*
X2783*
X2776Y520*
Y507*
X2783Y501*
X2803*
X2790D02*
X2776Y488D01*
X2763D02*
X2750D01*
X2757*
Y527*
X2763Y520*
X2730Y494D02*
X2724Y488D01*
X2711*
X2704Y494*
Y520*
X2711Y527*
X2724*
X2730Y520*
Y514*
X2724Y507*
X2704*
X10915Y1803D02*
Y1842D01*
X10895*
X10889Y1835*
Y1822*
X10895Y1816*
X10915*
X10902D02*
X10889Y1803D01*
X10875D02*
X10862D01*
X10869*
Y1842*
X10875Y1835*
X10816Y1842D02*
X10830Y1835D01*
X10843Y1822*
Y1809*
X10836Y1803*
X10823*
X10816Y1809*
Y1816*
X10823Y1822*
X10843*
X9450Y1803D02*
Y1842D01*
X9431*
X9424Y1835*
Y1822*
X9431Y1816*
X9450*
X9437D02*
X9424Y1803D01*
X9411D02*
X9398D01*
X9404*
Y1842*
X9411Y1835*
X9352Y1842D02*
X9378D01*
Y1822*
X9365Y1829*
X9358*
X9352Y1822*
Y1809*
X9358Y1803*
X9372*
X9378Y1809*
X10915Y1622D02*
Y1661D01*
X10895*
X10889Y1654*
Y1641*
X10895Y1635*
X10915*
X10902D02*
X10889Y1622D01*
X10875D02*
X10862D01*
X10869*
Y1661*
X10875Y1654*
X10823Y1622D02*
Y1661D01*
X10843Y1641*
X10816*
X9450Y1622D02*
Y1661D01*
X9431*
X9424Y1654*
Y1641*
X9431Y1635*
X9450*
X9437D02*
X9424Y1622D01*
X9411D02*
X9398D01*
X9404*
Y1661*
X9411Y1654*
X9378D02*
X9372Y1661D01*
X9358*
X9352Y1654*
Y1648*
X9358Y1641*
X9365*
X9358*
X9352Y1635*
Y1628*
X9358Y1622*
X9372*
X9378Y1628*
X7994Y1803D02*
Y1842D01*
X7974*
X7967Y1835*
Y1822*
X7974Y1816*
X7994*
X7980D02*
X7967Y1803D01*
X7954D02*
X7941D01*
X7948*
Y1842*
X7954Y1835*
X7895Y1803D02*
X7921D01*
X7895Y1829*
Y1835*
X7902Y1842*
X7915*
X7921Y1835*
X6530Y1803D02*
Y1842D01*
X6511*
X6504Y1835*
Y1822*
X6511Y1816*
X6530*
X6517D02*
X6504Y1803D01*
X6491D02*
X6478D01*
X6484*
Y1842*
X6491Y1835*
X6458Y1803D02*
X6445D01*
X6452*
Y1842*
X6458Y1835*
X7994Y1622D02*
Y1661D01*
X7974*
X7967Y1654*
Y1641*
X7974Y1635*
X7994*
X7980D02*
X7967Y1622D01*
X7954D02*
X7941D01*
X7948*
Y1661*
X7954Y1654*
X7921D02*
X7915Y1661D01*
X7902*
X7895Y1654*
Y1628*
X7902Y1622*
X7915*
X7921Y1628*
Y1654*
X6520Y1622D02*
Y1661D01*
X6501*
X6494Y1654*
Y1641*
X6501Y1635*
X6520*
X6507D02*
X6494Y1622D01*
X6481Y1628D02*
X6475Y1622D01*
X6461*
X6455Y1628*
Y1654*
X6461Y1661*
X6475*
X6481Y1654*
Y1648*
X6475Y1641*
X6455*
X5064Y1803D02*
Y1842D01*
X5044*
X5038Y1835*
Y1822*
X5044Y1816*
X5064*
X5051D02*
X5038Y1803D01*
X5024Y1835D02*
X5018Y1842D01*
X5005*
X4998Y1835*
Y1829*
X5005Y1822*
X4998Y1816*
Y1809*
X5005Y1803*
X5018*
X5024Y1809*
Y1816*
X5018Y1822*
X5024Y1829*
Y1835*
X5018Y1822D02*
X5005D01*
X3607Y1803D02*
Y1842D01*
X3587*
X3581Y1835*
Y1822*
X3587Y1816*
X3607*
X3594D02*
X3581Y1803D01*
X3568Y1842D02*
X3542D01*
Y1835*
X3568Y1809*
Y1803*
X5064Y1622D02*
Y1661D01*
X5044*
X5038Y1654*
Y1641*
X5044Y1635*
X5064*
X5051D02*
X5038Y1622D01*
X4998Y1661D02*
X5011Y1654D01*
X5024Y1641*
Y1628*
X5018Y1622*
X5005*
X4998Y1628*
Y1635*
X5005Y1641*
X5024*
X3607Y1622D02*
Y1661D01*
X3587*
X3581Y1654*
Y1641*
X3587Y1635*
X3607*
X3594D02*
X3581Y1622D01*
X3542Y1661D02*
X3568D01*
Y1641*
X3555Y1648*
X3548*
X3542Y1641*
Y1628*
X3548Y1622*
X3561*
X3568Y1628*
X2150Y1803D02*
Y1842D01*
X2131*
X2124Y1835*
Y1822*
X2131Y1816*
X2150*
X2137D02*
X2124Y1803D01*
X2091D02*
Y1842D01*
X2111Y1822*
X2085*
X694Y1803D02*
Y1842D01*
X674*
X667Y1835*
Y1822*
X674Y1816*
X694*
X681D02*
X667Y1803D01*
X654Y1835D02*
X648Y1842D01*
X635*
X628Y1835*
Y1829*
X635Y1822*
X641*
X635*
X628Y1816*
Y1809*
X635Y1803*
X648*
X654Y1809*
X2150Y1622D02*
Y1661D01*
X2131*
X2124Y1654*
Y1641*
X2131Y1635*
X2150*
X2137D02*
X2124Y1622D01*
X2085D02*
X2111D01*
X2085Y1648*
Y1654*
X2091Y1661*
X2104*
X2111Y1654*
X687Y1622D02*
Y1661D01*
X667*
X661Y1654*
Y1641*
X667Y1635*
X687*
X674D02*
X661Y1622D01*
X648D02*
X635D01*
X641*
Y1661*
X648Y1654*
X11094Y1719D02*
Y1745D01*
X11101Y1751*
X11114*
X11120Y1745*
Y1719*
X11114Y1712*
X11101*
X11107Y1725D02*
X11094Y1712D01*
X11101D02*
X11094Y1719D01*
X11081Y1745D02*
X11074Y1751D01*
X11061*
X11055Y1745*
Y1738*
X11061Y1732*
X11055Y1725*
Y1719*
X11061Y1712*
X11074*
X11081Y1719*
Y1725*
X11074Y1732*
X11081Y1738*
Y1745*
X11074Y1732D02*
X11061D01*
X9637Y1719D02*
Y1745D01*
X9644Y1751*
X9657*
X9664Y1745*
Y1719*
X9657Y1712*
X9644*
X9650Y1725D02*
X9637Y1712D01*
X9644D02*
X9637Y1719D01*
X9624Y1751D02*
X9598D01*
Y1745*
X9624Y1719*
Y1712*
X8181Y1719D02*
Y1745D01*
X8187Y1751*
X8200*
X8207Y1745*
Y1719*
X8200Y1712*
X8187*
X8194Y1725D02*
X8181Y1712D01*
X8187D02*
X8181Y1719D01*
X8141Y1751D02*
X8154Y1745D01*
X8167Y1732*
Y1719*
X8161Y1712*
X8148*
X8141Y1719*
Y1725*
X8148Y1732*
X8167*
X6724Y1719D02*
Y1745D01*
X6730Y1751*
X6744*
X6750Y1745*
Y1719*
X6744Y1712*
X6730*
X6737Y1725D02*
X6724Y1712D01*
X6730D02*
X6724Y1719D01*
X6685Y1751D02*
X6711D01*
Y1732*
X6698Y1738*
X6691*
X6685Y1732*
Y1719*
X6691Y1712*
X6704*
X6711Y1719*
X5263D02*
Y1745D01*
X5270Y1751*
X5283*
X5290Y1745*
Y1719*
X5283Y1712*
X5270*
X5276Y1725D02*
X5263Y1712D01*
X5270D02*
X5263Y1719D01*
X5230Y1712D02*
Y1751D01*
X5250Y1732*
X5224*
X3811Y1719D02*
Y1745D01*
X3817Y1751*
X3830*
X3837Y1745*
Y1719*
X3830Y1712*
X3817*
X3824Y1725D02*
X3811Y1712D01*
X3817D02*
X3811Y1719D01*
X3797Y1745D02*
X3791Y1751D01*
X3778*
X3771Y1745*
Y1738*
X3778Y1732*
X3784*
X3778*
X3771Y1725*
Y1719*
X3778Y1712*
X3791*
X3797Y1719*
X2354D02*
Y1745D01*
X2360Y1751*
X2374*
X2380Y1745*
Y1719*
X2374Y1712*
X2360*
X2367Y1725D02*
X2354Y1712D01*
X2360D02*
X2354Y1719D01*
X2314Y1712D02*
X2341D01*
X2314Y1738*
Y1745*
X2321Y1751*
X2334*
X2341Y1745*
X884Y1719D02*
Y1745D01*
X891Y1751*
X904*
X910Y1745*
Y1719*
X904Y1712*
X891*
X897Y1725D02*
X884Y1712D01*
X891D02*
X884Y1719D01*
X871Y1712D02*
X858D01*
X864*
Y1751*
X871Y1745*
X11056Y2007D02*
Y1968D01*
X11036*
X11030Y1975*
Y2001*
X11036Y2007*
X11056*
X11017Y2001D02*
X11010Y2007D01*
X10997*
X10990Y2001*
Y1994*
X10997Y1988*
X10990Y1981*
Y1975*
X10997Y1968*
X11010*
X11017Y1975*
Y1981*
X11010Y1988*
X11017Y1994*
Y2001*
X11010Y1988D02*
X10997D01*
X9599Y2007D02*
Y1968D01*
X9580*
X9573Y1975*
Y2001*
X9580Y2007*
X9599*
X9560D02*
X9534D01*
Y2001*
X9560Y1975*
Y1968*
X8143Y2007D02*
Y1968D01*
X8123*
X8116Y1975*
Y2001*
X8123Y2007*
X8143*
X8077D02*
X8090Y2001D01*
X8103Y1988*
Y1975*
X8097Y1968*
X8084*
X8077Y1975*
Y1981*
X8084Y1988*
X8103*
X6686Y2007D02*
Y1968D01*
X6666*
X6660Y1975*
Y2001*
X6666Y2007*
X6686*
X6620D02*
X6646D01*
Y1988*
X6633Y1994*
X6627*
X6620Y1988*
Y1975*
X6627Y1968*
X6640*
X6646Y1975*
X5229Y2007D02*
Y1968D01*
X5209*
X5203Y1975*
Y2001*
X5209Y2007*
X5229*
X5170Y1968D02*
Y2007D01*
X5190Y1988*
X5164*
X3772Y2007D02*
Y1968D01*
X3753*
X3746Y1975*
Y2001*
X3753Y2007*
X3772*
X3733Y2001D02*
X3727Y2007D01*
X3713*
X3707Y2001*
Y1994*
X3713Y1988*
X3720*
X3713*
X3707Y1981*
Y1975*
X3713Y1968*
X3727*
X3733Y1975*
X2316Y2007D02*
Y1968D01*
X2296*
X2290Y1975*
Y2001*
X2296Y2007*
X2316*
X2250Y1968D02*
X2276D01*
X2250Y1994*
Y2001*
X2257Y2007*
X2270*
X2276Y2001*
X853Y2007D02*
Y1968D01*
X833*
X826Y1975*
Y2001*
X833Y2007*
X853*
X813Y1968D02*
X800D01*
X807*
Y2007*
X813Y2001*
M02*