%FSLAX23Y23*%
%MOIN*%
%SFA1B1*%

%IPPOS*%
%ADD9500C,0.011800*%
%ADD9501C,0.037400*%
%ADD9502C,0.055100*%
%ADD9503C,0.078700*%
%ADD9504C,0.126000*%
%LNbenchy-relays-pcb-roundholes-1*%
%LPD*%
G54D9500*
X290Y1156D03*
X354Y1130D03*
X418Y1156D03*
X444Y1220D03*
X418Y1284D03*
X354Y1310D03*
X290Y1284D03*
X264Y1220D03*
X1189Y968D03*
X2086Y866D03*
X2566Y594D03*
X2657Y633D03*
Y555D03*
X2700Y496D03*
X2724Y696D03*
X2905Y594D03*
X3401Y566D03*
X3543Y866D03*
X5000D03*
X6456Y846D03*
X7913D03*
X9370D03*
X10834Y826D03*
X12416Y418D03*
X12480Y444D03*
Y264D03*
X12416Y290D03*
X12390Y354D03*
X12570D03*
X12544Y290D03*
Y418D03*
X10897Y1799D03*
X9433D03*
X7976D03*
X6519D03*
X5063D03*
X3606D03*
X2149D03*
X692D03*
X418Y3322D03*
X354Y3295D03*
X290Y3322D03*
X264Y3385D03*
X290Y3449D03*
X354Y3475D03*
X418Y3449D03*
X444Y3385D03*
X12390D03*
X12416Y3449D03*
X12480Y3475D03*
Y3295D03*
X12416Y3322D03*
X12544D03*
X12570Y3385D03*
X12544Y3449D03*
G54D9501*
X2362Y354D03*
X2460D03*
X2559D03*
X2657D03*
X2755D03*
X2854D03*
X2952D03*
X3051D03*
X3149D03*
X3248D03*
X3582D03*
X3681D03*
X3779D03*
G54D9502*
X12413Y1692D03*
Y1889D03*
Y2086D03*
G54D9503*
X929Y3385D03*
X1181D03*
X1433D03*
X2385D03*
X2637D03*
X2889D03*
X3842D03*
X4094D03*
X4346D03*
X5299D03*
X5551D03*
X5803D03*
X6755D03*
X7007D03*
X7259D03*
X8212D03*
X8464D03*
X8716D03*
X9669D03*
X9921D03*
X10173D03*
X11126D03*
X11378D03*
X11629D03*
G54D9504*
X354Y1220D03*
X12480Y354D03*
X354Y3385D03*
X12480D03*
M02*