%FSLAX23Y23*%
%MOIN*%
%SFA1B1*%

%IPPOS*%
%AMD54*
4,1,8,0.008900,-0.009600,0.008900,0.009600,0.006600,0.011800,-0.006600,0.011800,-0.008900,0.009600,-0.008900,-0.009600,-0.006600,-0.011800,0.006600,-0.011800,0.008900,-0.009600,0.0*
1,1,0.004440,0.006600,-0.009600*
1,1,0.004440,0.006600,0.009600*
1,1,0.004440,-0.006600,0.009600*
1,1,0.004440,-0.006600,-0.009600*
%
%ADD52R,0.031500X0.037400*%
%ADD53R,0.027560X0.017720*%
G04~CAMADD=54~8~0.0~0.0~236.2~177.2~22.2~0.0~15~0.0~0.0~0.0~0.0~0~0.0~0.0~0.0~0.0~0~0.0~0.0~0.0~270.0~178.0~236.0*
%ADD54D54*%
%LNbenchy-relays-pcb-1*%
%LPD*%
G54D52*
X693Y1767D03*
X628D03*
X2150D03*
X2085D03*
X3607D03*
X3542D03*
X5063D03*
X4999D03*
X6520D03*
X6455D03*
X693Y1696D03*
X628D03*
X2150D03*
X2085D03*
X5063D03*
X4999D03*
X6520D03*
X6455D03*
X2670Y448D03*
X2605D03*
Y503D03*
X2670D03*
X10898Y1696D03*
X10833D03*
Y1767D03*
X10898D03*
X9434Y1696D03*
X9369D03*
Y1767D03*
X9434D03*
X7977Y1696D03*
X7912D03*
Y1767D03*
X7977D03*
X3607Y1696D03*
X3542D03*
G54D53*
X748Y1706D03*
Y1757D03*
X826Y1732D03*
X2204Y1706D03*
Y1757D03*
X2283Y1732D03*
X3661Y1706D03*
Y1757D03*
X3740Y1732D03*
X5118Y1706D03*
Y1757D03*
X5196Y1732D03*
X6574Y1706D03*
Y1757D03*
X6653Y1732D03*
X8031Y1706D03*
Y1757D03*
X8110Y1732D03*
X9488Y1706D03*
Y1757D03*
X9566Y1732D03*
X10944Y1706D03*
Y1757D03*
X11023Y1732D03*
G54D54*
X826Y1848D03*
Y1931D03*
X2283Y1848D03*
Y1931D03*
X3740Y1848D03*
Y1931D03*
X5196Y1848D03*
Y1931D03*
X6653Y1848D03*
Y1931D03*
X11023Y1848D03*
Y1931D03*
X9566Y1848D03*
Y1931D03*
X8110Y1848D03*
Y1931D03*
M02*