%FSLAX23Y23*%
%MOIN*%
%SFA1B1*%

%IPPOS*%
%AMD24*
4,1,8,-0.012700,-0.007000,0.012700,-0.007000,0.015300,-0.004400,0.015300,0.004400,0.012700,0.007000,-0.012700,0.007000,-0.015300,0.004400,-0.015300,-0.004400,-0.012700,-0.007000,0.0*
1,1,0.005200,-0.012700,-0.004400*
1,1,0.005200,0.012700,-0.004400*
1,1,0.005200,0.012700,0.004400*
1,1,0.005200,-0.012700,0.004400*
%
%AMD25*
4,1,8,-0.007000,0.012700,-0.007000,-0.012700,-0.004400,-0.015300,0.004400,-0.015300,0.007000,-0.012700,0.007000,0.012700,0.004400,0.015300,-0.004400,0.015300,-0.007000,0.012700,0.0*
1,1,0.005200,-0.004400,0.012700*
1,1,0.005200,-0.004400,-0.012700*
1,1,0.005200,0.004400,-0.012700*
1,1,0.005200,0.004400,0.012700*
%
%AMD33*
4,1,8,-0.072400,0.000000,-0.072400,0.000000,-0.031500,-0.040900,0.031500,-0.040900,0.072400,0.000000,0.072400,0.000000,0.031500,0.040900,-0.031500,0.040900,-0.072400,0.000000,0.0*
1,1,0.081740,-0.031500,0.000000*
1,1,0.081740,-0.031500,0.000000*
1,1,0.081740,0.031500,0.000000*
1,1,0.081740,0.031500,0.000000*
%
%AMD34*
4,1,8,-0.072400,0.034600,-0.072400,-0.034600,-0.066100,-0.040900,0.066100,-0.040900,0.072400,-0.034600,0.072400,0.034600,0.066100,0.040900,-0.066100,0.040900,-0.072400,0.034600,0.0*
1,1,0.012440,-0.066100,0.034600*
1,1,0.012440,-0.066100,-0.034600*
1,1,0.012440,0.066100,-0.034600*
1,1,0.012440,0.066100,0.034600*
%
%AMD35*
4,1,8,0.000000,0.039900,0.000000,0.039900,-0.035000,0.004900,-0.035000,-0.004900,0.000000,-0.039900,0.000000,-0.039900,0.035000,-0.004900,0.035000,0.004900,0.000000,0.039900,0.0*
1,1,0.069920,0.000000,0.004900*
1,1,0.069920,0.000000,0.004900*
1,1,0.069920,0.000000,-0.004900*
1,1,0.069920,0.000000,-0.004900*
%
%AMD36*
4,1,8,0.028400,0.039900,-0.028400,0.039900,-0.035000,0.033400,-0.035000,-0.033400,-0.028400,-0.039900,0.028400,-0.039900,0.035000,-0.033400,0.035000,0.033400,0.028400,0.039900,0.0*
1,1,0.013040,0.028400,0.033400*
1,1,0.013040,-0.028400,0.033400*
1,1,0.013040,-0.028400,-0.033400*
1,1,0.013040,0.028400,-0.033400*
%
%ADD23R,0.160470X0.085670*%
G04~CAMADD=24~8~0.0~0.0~305.5~140.2~26.0~0.0~15~0.0~0.0~0.0~0.0~0~0.0~0.0~0.0~0.0~0~0.0~0.0~0.0~180.0~306.0~140.0*
%ADD24D24*%
G04~CAMADD=25~8~0.0~0.0~305.5~140.2~26.0~0.0~15~0.0~0.0~0.0~0.0~0~0.0~0.0~0.0~0.0~0~0.0~0.0~0.0~90.0~141.0~306.0*
%ADD25D25*%
%ADD26R,0.042990X0.057990*%
%ADD27R,0.042990X0.058990*%
%ADD28R,0.107990X0.047990*%
%ADD29R,0.058110X0.041380*%
%ADD30R,0.040390X0.034490*%
%ADD31R,0.037990X0.035280*%
%ADD32C,0.121100*%
G04~CAMADD=33~8~0.0~0.0~817.3~1447.3~408.7~0.0~15~0.0~0.0~0.0~0.0~0~0.0~0.0~0.0~0.0~0~0.0~0.0~0.0~90.0~1448.0~818.0*
%ADD33D33*%
G04~CAMADD=34~8~0.0~0.0~817.3~1447.3~62.2~0.0~15~0.0~0.0~0.0~0.0~0~0.0~0.0~0.0~0.0~0~0.0~0.0~0.0~90.0~1448.0~818.0*
%ADD34D34*%
G04~CAMADD=35~8~0.0~0.0~699.2~797.6~349.6~0.0~15~0.0~0.0~0.0~0.0~0~0.0~0.0~0.0~0.0~0~0.0~0.0~0.0~0.0~699.2~797.6*
%ADD35D35*%
G04~CAMADD=36~8~0.0~0.0~699.2~797.6~65.2~0.0~15~0.0~0.0~0.0~0.0~0~0.0~0.0~0.0~0.0~0~0.0~0.0~0.0~0.0~699.2~797.6*
%ADD36D36*%
%ADD37O,0.075830X0.258900*%
%ADD38O,0.258900X0.075830*%
%ADD39C,0.227400*%
%LNbenchy-relays-pcb-1*%
%LPD*%
G54D23*
X2795Y594D03*
G54D24*
X2687Y624D03*
X2903D03*
Y564D03*
X2687D03*
G54D25*
X2706Y663D03*
X2726D03*
X2746D03*
X2765D03*
X2785D03*
X2805D03*
X2824D03*
X2844D03*
X2864D03*
X2883D03*
Y525D03*
X2864D03*
X2844D03*
X2824D03*
X2805D03*
X2785D03*
X2765D03*
X2746D03*
X2726D03*
X2706D03*
G54D26*
X3802Y590D03*
X3874D03*
G54D27*
X3801Y511D03*
X3875D03*
G54D28*
X3574Y628D03*
Y512D03*
X3692Y628D03*
Y512D03*
G54D29*
X2110Y285D03*
Y359D03*
X1874Y285D03*
Y359D03*
G54D30*
X2110Y436D03*
Y500D03*
X1874Y436D03*
Y500D03*
G54D31*
X2567Y633D03*
X2628D03*
X2567Y555D03*
X2628D03*
G54D32*
X11629Y3385D03*
X11377D03*
X11125D03*
X10173D03*
X9921D03*
X9669D03*
X8716D03*
X8464D03*
X8212D03*
X7259D03*
X7007D03*
X6755D03*
X5803D03*
X5551D03*
X5299D03*
X4346D03*
X4094D03*
X3842D03*
X2889D03*
X2637D03*
X2385D03*
X1433D03*
X1181D03*
X929D03*
G54D33*
X12413Y2086D03*
Y1889D03*
G54D34*
X12413Y1692D03*
G54D35*
X3779Y354D03*
X3681D03*
X3248D03*
X3149D03*
X3051D03*
X2952D03*
X2854D03*
X2755D03*
X2657D03*
X2559D03*
X2460D03*
G54D36*
X3582Y354D03*
X2362D03*
G54D37*
X1417Y2086D03*
Y1692D03*
X1181D03*
Y2086D03*
X1598Y1692D03*
Y2086D03*
X2874D03*
Y1692D03*
X2637D03*
Y2086D03*
X3055Y1692D03*
Y2086D03*
X5787D03*
Y1692D03*
X5551D03*
Y2086D03*
X5968Y1692D03*
Y2086D03*
X4330D03*
Y1692D03*
X4094D03*
Y2086D03*
X4511Y1692D03*
Y2086D03*
X8700D03*
Y1692D03*
X8464D03*
Y2086D03*
X8881Y1692D03*
Y2086D03*
X7244D03*
Y1692D03*
X7007D03*
Y2086D03*
X7425Y1692D03*
Y2086D03*
X11614D03*
Y1692D03*
X11377D03*
Y2086D03*
X11795Y1692D03*
Y2086D03*
X10157D03*
Y1692D03*
X9921D03*
Y2086D03*
X10338Y1692D03*
Y2086D03*
G54D38*
X897Y1610D03*
Y2169D03*
X2354Y1610D03*
Y2169D03*
X5267Y1610D03*
Y2169D03*
X3811Y1610D03*
Y2169D03*
X8181Y1610D03*
Y2169D03*
X6724Y1610D03*
Y2169D03*
X11094Y1610D03*
Y2169D03*
X9637Y1610D03*
Y2169D03*
G54D39*
X12480Y354D03*
Y3385D03*
X354D03*
Y1220D03*
M02*