%FSLAX23Y23*%
%MOIN*%
%SFA1B1*%

%IPPOS*%
%ADD9500C,0.011800*%
%ADD9501C,0.037400*%
%ADD9502C,0.059100*%
%ADD9503C,0.063000*%
%ADD9504C,0.105100*%
%ADD9505C,0.106300*%
%ADD9506C,0.118100*%
%LNbenchyeloadpcb-roundholes-1*%
%LPD*%
G54D9500*
X259Y259D03*
X236Y315D03*
X259Y370D03*
X315Y393D03*
X370Y370D03*
X383Y413D03*
X442D03*
X502D03*
X561D03*
X620D03*
X590Y472D03*
X531D03*
X472D03*
X413D03*
X354D03*
X295D03*
X236D03*
X265Y531D03*
X324D03*
X383D03*
X442D03*
X413Y590D03*
X354D03*
X295D03*
X236D03*
X265Y649D03*
X324D03*
X295Y708D03*
X354D03*
X413D03*
X472D03*
X531D03*
X561Y767D03*
X620D03*
X590Y826D03*
X531D03*
X472D03*
X413D03*
X354D03*
X295D03*
X236D03*
X265Y885D03*
X324D03*
X383D03*
X442D03*
X502D03*
X561D03*
X620D03*
X669Y895D03*
X708Y826D03*
X738Y767D03*
X797D03*
X856D03*
X915D03*
X974D03*
X1033D03*
X1003Y708D03*
X974Y649D03*
X944Y590D03*
X1003D03*
X1063D03*
X1122D03*
X1181D03*
X1289Y541D03*
X1328Y531D03*
X1387D03*
X1446D03*
X1417Y472D03*
X1358D03*
X1299D03*
X1263Y480D03*
Y448D03*
Y417D03*
Y385D03*
X1299Y354D03*
X1358D03*
X1417D03*
X1476D03*
X1496Y417D03*
X1446Y413D03*
X1387D03*
X1328D03*
X1092D03*
X1033D03*
X974D03*
X915D03*
X944Y472D03*
X1003D03*
X1063D03*
X1003Y354D03*
X944D03*
X974Y295D03*
X1031Y299D03*
X1114D03*
X1220Y267D03*
X826Y354D03*
X797Y413D03*
X738D03*
X708Y472D03*
X826D03*
X708Y590D03*
X531D03*
X502Y767D03*
X442D03*
X383D03*
X324D03*
X265D03*
X236Y708D03*
Y944D03*
X295D03*
X354D03*
X413D03*
X472D03*
X531D03*
X590D03*
X561Y1003D03*
X502D03*
X442D03*
X383D03*
X324D03*
X265D03*
X236Y1063D03*
X295D03*
X354D03*
X413D03*
X472D03*
X502Y1122D03*
X442D03*
X383D03*
X370Y1164D03*
X315Y1141D03*
X259Y1164D03*
X236Y1220D03*
X259Y1276D03*
X315Y1299D03*
X324Y1358D03*
X383D03*
X442D03*
X502D03*
X561D03*
X600D03*
X639Y1338D03*
X679Y1358D03*
X649Y1417D03*
X708D03*
X738Y1476D03*
X797D03*
X856D03*
X915D03*
X885Y1535D03*
Y1417D03*
X944D03*
X1003D03*
Y1299D03*
X1032Y1271D03*
X944Y1299D03*
X885D03*
X826D03*
X788Y1251D03*
X856Y1240D03*
Y1122D03*
X917D03*
Y1098D03*
X885Y1063D03*
X826D03*
X856Y1003D03*
X915D03*
X964Y944D03*
X1033Y1003D03*
X1032Y1090D03*
X1102Y1082D03*
X1151D03*
X1200D03*
X1250D03*
X1299D03*
X1348D03*
X1372Y1051D03*
X1421D03*
X1413Y1082D03*
X1462D03*
X1446Y1122D03*
X1505D03*
X1476Y1181D03*
X1417D03*
X1358D03*
X1387Y1122D03*
X1397Y1023D03*
X1348D03*
X1299D03*
X1250D03*
X1200D03*
X1151D03*
X1102D03*
X1126Y996D03*
X1177D03*
X1224D03*
X1275D03*
X1322D03*
X1374D03*
X1425D03*
X1476Y944D03*
X1535D03*
Y1063D03*
X1322Y1051D03*
X1273D03*
X1224D03*
X1175D03*
X1126D03*
X1151Y767D03*
X1210D03*
X1334Y763D03*
X1374D03*
X1452D03*
X1496Y665D03*
X1328Y1240D03*
X767Y1348D03*
X826Y1417D03*
X679Y1476D03*
X620D03*
X561D03*
X502D03*
X442D03*
X383D03*
X324D03*
X265D03*
X236Y1535D03*
X295D03*
X354D03*
X413D03*
X472D03*
X531D03*
X590D03*
X649D03*
X590Y1417D03*
X531D03*
X472D03*
X413D03*
X354D03*
X295D03*
X236D03*
X265Y1358D03*
X370Y1276D03*
X413Y1299D03*
X442Y1240D03*
X393Y1220D03*
X472Y1181D03*
X511Y1196D03*
X566Y1192D03*
X586Y1267D03*
X692Y1279D03*
X673Y1185D03*
X738Y1122D03*
X720Y1039D03*
X649Y1063D03*
X767Y944D03*
Y866D03*
X826Y826D03*
X885D03*
X708Y354D03*
X590D03*
X531D03*
X472D03*
X502Y295D03*
X442D03*
X393Y315D03*
X370Y259D03*
X413Y236D03*
X472D03*
X531D03*
X590D03*
X315D03*
X1624Y295D03*
X1683D03*
X1685Y354D03*
X1771D03*
X1830D03*
X1889D03*
X1948D03*
X1919Y295D03*
X1860D03*
X1801D03*
X1830Y472D03*
X1889D03*
X1948D03*
X2066D03*
X2126D03*
X2185D03*
X2214Y531D03*
X2273D03*
X2244Y590D03*
X2303D03*
X2362D03*
X2421D03*
X2480D03*
X2539D03*
X2598D03*
X2657D03*
X2716D03*
X2775D03*
X2834D03*
X2893D03*
X2952D03*
X3011D03*
X3070D03*
X3100Y649D03*
X3041D03*
X2982D03*
X2923D03*
X2864D03*
X2805D03*
X2746D03*
X2687D03*
X2628D03*
X2568D03*
X2509D03*
X2450D03*
X2391D03*
X2332D03*
X2273D03*
X2214D03*
X2155D03*
X2096D03*
X2037D03*
X1978D03*
X1919D03*
X1860D03*
X1801D03*
X1742D03*
X1683D03*
X1653Y708D03*
X1606Y704D03*
X1624Y767D03*
X1683D03*
X1742D03*
X1801D03*
X1860D03*
X1919D03*
X1889Y826D03*
X1948D03*
Y708D03*
X1889D03*
X1830D03*
X1771D03*
X1712D03*
Y826D03*
X1771D03*
X1830D03*
X1801Y885D03*
X1742D03*
X1683D03*
X1624D03*
X1594Y944D03*
X1653D03*
X1712D03*
X1771D03*
X1830D03*
X1801Y1003D03*
X1742D03*
X1683D03*
X1771Y1063D03*
X1830D03*
X1889D03*
X1948D03*
X1919Y1122D03*
X1860D03*
X1801D03*
X1830Y1181D03*
X1889D03*
X1948D03*
X1919Y1240D03*
X1860D03*
X1801D03*
X1830Y1299D03*
X1889D03*
X1948D03*
X2051Y1267D03*
X2090Y1189D03*
X2051Y1110D03*
X2090Y1031D03*
X2169D03*
X2248D03*
X2326D03*
X2405D03*
X2484D03*
X2563D03*
X2641D03*
X2720D03*
X2799D03*
X2878D03*
X2923Y1003D03*
X2952Y1063D03*
X2982Y1122D03*
X3041D03*
X3100D03*
X3075Y1184D03*
X3019Y1161D03*
X2964Y1184D03*
X2940Y1240D03*
X2964Y1295D03*
X3019Y1318D03*
X3041Y1358D03*
X2982D03*
X2923D03*
X2799Y1346D03*
X2720D03*
X2716Y1417D03*
X2795Y1480D03*
X2830Y1448D03*
X2881Y1456D03*
X2982Y1476D03*
X3041D03*
X3100D03*
X3070Y1535D03*
X3011D03*
X2952D03*
X2838Y1547D03*
Y1267D03*
X2759D03*
X2681D03*
X2602D03*
X2523D03*
X2444D03*
X2366D03*
X2287D03*
X2326Y1346D03*
X2405D03*
X2484D03*
X2563D03*
X2641D03*
Y1189D03*
X2720D03*
X2799D03*
X2878D03*
X2923Y1122D03*
X2838Y1110D03*
X2759D03*
X2681D03*
X2602D03*
X2523D03*
X2444D03*
X2366D03*
X2287D03*
X2326Y1189D03*
X2405D03*
X2484D03*
X2563D03*
X2602Y952D03*
X2681D03*
X2759D03*
X2838D03*
X2878Y874D03*
X2923Y885D03*
X2982D03*
X3041D03*
X3100D03*
X3070Y944D03*
X3011D03*
X2952D03*
Y826D03*
X3011D03*
X3070D03*
X3100Y767D03*
X3041D03*
X2982D03*
X2923D03*
X2893Y708D03*
X2952D03*
X3011D03*
X3070D03*
X3100Y531D03*
X3041D03*
X2982D03*
X2923D03*
X2864D03*
X2805D03*
X2746D03*
X2687D03*
X2628D03*
Y413D03*
X2687D03*
X2746D03*
X2805D03*
X2864D03*
X2923D03*
X2982D03*
X2952Y354D03*
X2893D03*
X2834D03*
X2775D03*
X2716D03*
X2657D03*
X2598D03*
X2539D03*
X2568Y413D03*
X2509D03*
X2450D03*
X2437Y370D03*
X2381Y393D03*
X2326Y370D03*
X2303Y315D03*
X2326Y259D03*
X2381Y236D03*
X2437Y259D03*
X2480Y236D03*
X2539D03*
X2598D03*
X2657D03*
X2716D03*
X2775D03*
X2834D03*
X2893D03*
X2952D03*
X3011D03*
X3070D03*
X3100Y295D03*
Y413D03*
X2923Y295D03*
X2864D03*
X2805D03*
X2746D03*
X2687D03*
X2628D03*
X2568D03*
X2509D03*
X2460Y315D03*
X2244Y236D03*
X2185D03*
X2126D03*
Y354D03*
X2185D03*
X2214Y413D03*
X2155D03*
X2096D03*
X2066Y354D03*
X2096Y531D03*
X2155D03*
X2126Y590D03*
X2185D03*
X2066D03*
X2007D03*
X1948D03*
X1889D03*
X1830D03*
X1771D03*
X1712D03*
X1732Y484D03*
X1653Y472D03*
X1590Y448D03*
Y417D03*
X1594Y354D03*
Y826D03*
X1653D03*
X2051Y795D03*
X2129D03*
X2208D03*
X2287D03*
X2248Y874D03*
X2169D03*
X2090D03*
X2129Y952D03*
X2208D03*
X2287D03*
X2366D03*
X2444D03*
X2523D03*
X2641Y874D03*
X2720D03*
X2799D03*
X2838Y795D03*
X2759D03*
X2681D03*
X2602D03*
X2051Y952D03*
X2248Y1189D03*
Y1346D03*
X3075Y1295D03*
X3098Y1240D03*
X3159Y1476D03*
X3129Y1535D03*
X3159Y413D03*
X3129Y354D03*
X3159Y295D03*
X3129Y236D03*
X3159Y1594D03*
X3129Y1653D03*
X3159Y1712D03*
X3129Y1889D03*
X3159Y1948D03*
X3100D03*
X3041D03*
X2982D03*
X2923D03*
X2864D03*
X2805D03*
X2746D03*
X2775Y1889D03*
X2834D03*
X2893D03*
X2952D03*
X3011D03*
X3070D03*
X2982Y1830D03*
X2923D03*
X2864D03*
X2805D03*
X2746D03*
X2775Y1771D03*
X2834D03*
X2893D03*
X2952D03*
X2982Y1712D03*
X3041D03*
X3011Y1653D03*
X3070D03*
X3100Y1594D03*
X3041D03*
X2982D03*
X2929Y1582D03*
X2885Y1629D03*
X2858Y1669D03*
X2864Y1712D03*
X2923D03*
X2952Y1653D03*
X2775D03*
X2805Y1712D03*
X2746D03*
X885Y1653D03*
X856Y1594D03*
X679D03*
X620D03*
X561D03*
X502D03*
X442D03*
X383D03*
X324D03*
X265D03*
X236Y1653D03*
X295D03*
X354D03*
X413D03*
X472D03*
X531D03*
X590D03*
X649D03*
X383Y1712D03*
X324D03*
X265D03*
X236Y1889D03*
X295D03*
X354D03*
X383Y1948D03*
X324D03*
X265D03*
X383Y1830D03*
G54D9501*
X570Y295D03*
X669D03*
X767D03*
X866D03*
Y639D03*
X767D03*
X669D03*
X570D03*
X472D03*
X374D03*
X2007Y511D03*
Y413D03*
Y315D03*
G54D9502*
X2187Y1586D03*
X2401D03*
X2616D03*
X1198D03*
X984D03*
X769D03*
G54D9503*
X1653Y1133D03*
Y1267D03*
X2185D03*
Y1133D03*
G54D9504*
X3089Y1798D03*
X296D03*
G54D9505*
X315Y315D03*
Y1220D03*
X3019Y1240D03*
X2381Y315D03*
G54D9506*
X3031Y352D03*
Y1025D03*
M02*