%FSLAX23Y23*%
%MOIN*%
%SFA1B1*%

%IPPOS*%
%ADD10C,0.004720*%
%ADD11C,0.007870*%
%ADD12C,0.003940*%
%LNbenchyeloadpcb-1*%
%LPD*%
G54D10*
X927Y1125D02*
X982D01*
X927Y1216D02*
X982D01*
X927Y1125D02*
X936Y1118D01*
X940Y1125*
G54D11*
X2934Y269D02*
X2946D01*
X2940*
Y240*
X2946Y234*
X2952*
X2958Y240*
X2923Y269D02*
Y234D01*
X2899*
X2864Y263D02*
X2870Y269D01*
X2881*
X2887Y263*
Y240*
X2881Y234*
X2870*
X2864Y240*
X2828Y269D02*
X2840D01*
X2834*
Y240*
X2840Y234*
X2846*
X2852Y240*
X2816Y269D02*
Y234D01*
X2793*
X2757Y263D02*
X2763Y269D01*
X2775*
X2781Y263*
Y240*
X2775Y234*
X2763*
X2757Y240*
X2722Y269D02*
X2734D01*
X2728*
Y240*
X2734Y234*
X2740*
X2746Y240*
X2710Y269D02*
Y234D01*
X2687*
X2651Y263D02*
X2657Y269D01*
X2669*
X2675Y263*
Y240*
X2669Y234*
X2657*
X2651Y240*
X2616Y269D02*
X2627D01*
X2622*
Y240*
X2627Y234*
X2633*
X2639Y240*
X2604Y269D02*
Y234D01*
X2580*
X2545Y263D02*
X2551Y269D01*
X2563*
X2568Y263*
Y240*
X2563Y234*
X2551*
X2545Y240*
X973Y1271D02*
Y1238D01*
X967Y1232*
X954*
X947Y1238*
Y1271*
X914Y1232D02*
Y1271D01*
X934Y1251*
X908*
X1163Y1094D02*
Y1133D01*
X1143*
X1137Y1127*
Y1114*
X1143Y1107*
X1163*
X1150D02*
X1137Y1094D01*
X1124D02*
X1110D01*
X1117*
Y1133*
X1124Y1127*
X1091D02*
X1084Y1133D01*
X1071*
X1064Y1127*
Y1101*
X1071Y1094*
X1084*
X1091Y1101*
Y1127*
X1127Y1232D02*
Y1271D01*
X1107*
X1101Y1265*
Y1251*
X1107Y1245*
X1127*
X1114D02*
X1101Y1232D01*
X1087Y1238D02*
X1081Y1232D01*
X1068*
X1061Y1238*
Y1265*
X1068Y1271*
X1081*
X1087Y1265*
Y1258*
X1081Y1251*
X1061*
X733Y1405D02*
Y1444D01*
X713*
X707Y1438*
Y1425*
X713Y1418*
X733*
X720D02*
X707Y1405D01*
X694Y1438D02*
X687Y1444D01*
X674*
X667Y1438*
Y1431*
X674Y1425*
X681*
X674*
X667Y1418*
Y1412*
X674Y1405*
X687*
X694Y1412*
X2284Y1409D02*
Y1448D01*
X2265*
X2258Y1442*
Y1429*
X2265Y1422*
X2284*
X2271D02*
X2258Y1409D01*
X2219D02*
X2245D01*
X2219Y1435*
Y1442*
X2225Y1448*
X2238*
X2245Y1442*
X1164Y1194D02*
X1171Y1200D01*
X1184*
X1190Y1194*
Y1167*
X1184Y1161*
X1171*
X1164Y1167*
X1151Y1161D02*
X1138D01*
X1145*
Y1200*
X1151Y1194*
X1092Y1161D02*
X1118D01*
X1092Y1187*
Y1194*
X1099Y1200*
X1112*
X1118Y1194*
G54D12*
X2197Y1425D02*
Y1429D01*
X754Y1425D02*
Y1429D01*
X780Y1425D02*
Y1429D01*
X1046Y1139D02*
Y1143D01*
X1020Y1139D02*
Y1143D01*
X1046Y1218D02*
Y1222D01*
M02*