%FSLAX23Y23*%
%MOIN*%
%SFA1B1*%

%IPPOS*%
%ADD10C,0.004720*%
%ADD11C,0.007870*%
%ADD12C,0.003940*%
%ADD13C,0.007090*%
%LNbenchyeloadpcb-1*%
%LPD*%
G36*
X2038Y1054D02*
X2039D01*
Y1053*
X2040*
Y1052*
X2039*
Y863*
X2040*
Y862*
X2039*
Y861*
X2038*
Y861*
X2037*
Y861*
X1848*
Y861*
X1847*
Y861*
X1846*
Y862*
X1846*
Y863*
X1846*
Y871*
Y872*
Y1052*
X1846*
Y1053*
X1846*
Y1054*
X1847*
Y1055*
X1848*
Y1054*
X2037*
Y1055*
X2038*
Y1054*
G37*
G36*
X1981Y792D02*
X1981Y792D01*
X1981Y791*
X1982Y791*
X1982Y791*
X1982Y790*
X1982Y790*
Y783*
Y783*
Y783*
X1982Y783*
X1982Y782*
X1981Y782*
X1981Y782*
X1981Y782*
X1981Y782*
X1980Y781*
X1972*
X1971Y782*
X1971Y782*
X1971Y782*
X1971Y782*
X1970Y782*
X1970Y783*
X1970Y783*
Y790*
Y790*
Y790*
X1970Y790*
X1970Y791*
X1971Y791*
X1971Y791*
X1971Y791*
X1971Y792*
X1972Y792*
X1980*
X1981Y792*
G37*
G36*
X2197Y790D02*
X2197Y790D01*
X2198Y790*
X2198Y790*
X2198Y790*
X2198Y789*
X2198Y789*
Y745*
Y745*
Y745*
X2198Y745*
X2198Y744*
X2198Y744*
X2197Y744*
X2197Y744*
X2197Y743*
X2196Y743*
X2188*
X2188Y743*
X2187Y744*
X2187Y744*
X2187Y744*
X2187Y744*
X2187Y745*
X2187Y745*
Y747*
X2187Y747*
X2186Y746*
X2186Y746*
X2186Y746*
X2185Y745*
X2184Y745*
X2184Y745*
X2184Y744*
X2184Y744*
X2184Y744*
X2183Y744*
X2183Y744*
X2182Y743*
X2182Y743*
X2182*
X2181Y743*
X2181Y743*
X2181Y743*
X2180Y743*
X2179Y743*
X2178Y743*
X2177*
X2176Y743*
X2176Y743*
X2175Y743*
X2174Y743*
X2174Y743*
X2173Y743*
X2172Y744*
X2171Y744*
X2170Y744*
X2169Y745*
X2168Y745*
X2168Y746*
X2167Y747*
X2167Y747*
X2167Y747*
X2166Y747*
X2166Y747*
X2166Y748*
X2166Y748*
X2165Y749*
X2165Y749*
X2164Y750*
X2164Y751*
X2164Y752*
X2163Y753*
X2163Y754*
X2163Y755*
X2163Y757*
X2162Y758*
X2162Y761*
X2162Y763*
Y763*
Y764*
X2163Y764*
X2163Y764*
X2163Y765*
X2163Y766*
X2163Y767*
X2163Y767*
X2163Y768*
X2164Y769*
X2164Y770*
X2164Y771*
X2165Y772*
X2165Y773*
X2166Y774*
X2167Y775*
X2167Y775*
X2167Y775*
X2167Y775*
X2168Y775*
X2168Y775*
X2168Y776*
X2169Y776*
X2170Y777*
X2170Y777*
X2171Y777*
X2172Y778*
X2173Y778*
X2174Y778*
X2175Y778*
X2176Y778*
X2177Y778*
X2178*
X2179Y778*
X2179Y778*
X2180Y778*
X2181Y778*
X2182Y778*
X2183Y777*
X2183Y777*
X2183Y777*
X2184Y777*
X2184Y777*
X2185Y776*
X2185Y776*
X2186Y775*
X2186Y775*
Y789*
Y789*
Y789*
X2186Y789*
X2186Y789*
X2187Y790*
X2187Y790*
X2187Y790*
X2187Y790*
X2188Y790*
X2196*
X2197Y790*
G37*
G36*
X1949Y778D02*
X1950Y778D01*
X1951Y778*
X1951Y778*
X1952Y778*
X1953Y778*
X1954Y778*
X1955Y777*
X1956Y777*
X1956Y776*
X1957Y776*
X1958Y775*
X1959Y775*
X1959Y775*
X1959Y775*
X1959Y774*
X1959Y774*
X1960Y774*
X1960Y773*
X1960Y773*
X1961Y772*
X1961Y771*
X1961Y770*
X1962Y769*
X1962Y768*
X1962Y767*
X1963Y766*
X1963Y765*
X1963Y763*
Y745*
Y745*
Y745*
X1963Y745*
X1962Y744*
X1962Y744*
X1962Y744*
X1962Y744*
X1961Y743*
X1961Y743*
X1952*
X1952Y743*
X1952Y744*
X1951Y744*
X1951Y744*
X1951Y744*
X1951Y745*
X1951Y745*
Y762*
Y762*
Y762*
Y762*
Y762*
X1951Y763*
X1951Y764*
X1950Y764*
X1950Y765*
X1950Y766*
X1949Y767*
X1949Y767*
X1949Y767*
X1949Y767*
X1948Y767*
X1948Y768*
X1947Y768*
X1946Y768*
X1945Y768*
X1945*
X1944Y768*
X1943Y768*
X1943Y768*
X1942Y767*
X1941Y767*
X1941Y767*
X1941Y766*
X1940Y766*
X1940Y766*
X1940Y765*
X1940Y765*
X1939Y764*
X1939Y763*
X1939Y762*
Y745*
Y745*
Y745*
X1939Y745*
X1939Y744*
X1939Y744*
X1939Y744*
X1938Y744*
X1938Y743*
X1937Y743*
X1929*
X1929Y743*
X1928Y744*
X1928Y744*
X1928Y744*
X1928Y744*
X1927Y745*
X1927Y745*
Y776*
Y776*
Y776*
X1927Y777*
X1928Y777*
X1928Y777*
X1928Y777*
X1928Y778*
X1929Y778*
X1929Y778*
X1937*
X1938Y778*
X1938Y778*
X1938Y777*
X1939Y777*
X1939Y777*
X1939Y777*
X1939Y776*
Y775*
X1939Y775*
X1939Y775*
X1939Y775*
X1940Y775*
X1940Y775*
X1940Y776*
X1941Y776*
X1941Y777*
X1942Y777*
X1943Y777*
X1943Y778*
X1944Y778*
X1945Y778*
X1946Y778*
X1947Y778*
X1948Y778*
X1949*
X1949Y778*
G37*
G36*
X1880Y778D02*
X1881Y778D01*
X1881Y777*
X1881Y777*
X1882Y777*
X1882Y777*
X1882Y776*
Y769*
Y769*
Y769*
X1882Y769*
X1882Y768*
X1881Y768*
X1881Y768*
X1881Y768*
X1881Y768*
X1880Y768*
X1873*
X1873Y767*
X1872Y767*
X1872Y767*
X1871Y767*
X1870Y767*
X1869Y766*
X1869Y766*
X1869Y766*
X1869Y765*
X1869Y765*
X1868Y764*
X1868Y763*
X1868Y762*
X1868Y761*
Y745*
Y745*
Y745*
X1868Y745*
X1868Y744*
X1867Y744*
X1867Y744*
X1867Y744*
X1867Y743*
X1866Y743*
X1858*
X1857Y743*
X1857Y744*
X1856Y744*
X1856Y744*
X1856Y744*
X1856Y745*
X1856Y745*
Y776*
Y776*
Y776*
X1856Y777*
X1856Y777*
X1856Y777*
X1857Y777*
X1857Y778*
X1857Y778*
X1858Y778*
X1866*
X1866Y778*
X1866Y778*
X1867Y777*
X1867Y777*
X1867Y777*
X1867Y777*
X1867Y776*
Y775*
X1867Y775*
X1867Y775*
X1868Y775*
X1868Y775*
X1868Y775*
X1869Y776*
X1869Y776*
X1870Y776*
X1870Y777*
X1871Y777*
X1872Y777*
X1872Y777*
X1873Y777*
X1874Y778*
X1875Y778*
X1876Y778*
X1880*
X1880Y778*
G37*
G36*
X2007Y778D02*
X2008D01*
X2009Y778*
X2009Y778*
X2010Y778*
X2012Y778*
X2013Y778*
X2015Y777*
X2016Y777*
X2017Y776*
X2017*
X2017Y776*
X2017Y776*
X2017Y776*
X2018Y776*
X2018Y775*
X2019Y775*
X2020Y774*
X2021Y773*
X2021Y772*
X2022Y771*
Y771*
X2022Y771*
X2022Y771*
X2022Y771*
X2023Y770*
X2023Y769*
X2023Y769*
X2024Y768*
X2024Y767*
X2024Y766*
Y766*
Y766*
X2024Y766*
X2024Y765*
X2024Y765*
X2023Y765*
X2023Y765*
X2023Y765*
X2023Y765*
X2022Y764*
X2013*
X2013Y765*
X2013Y765*
X2012Y765*
X2012Y765*
X2012Y765*
X2012Y765*
X2012Y766*
X2012Y766*
X2011Y766*
X2011Y766*
X2011Y766*
X2011Y767*
X2010Y767*
X2010Y767*
X2010Y768*
X2009Y768*
X2009Y768*
X2009Y768*
X2009Y768*
X2008Y768*
X2008Y768*
X2007Y768*
X2006*
X2005Y768*
X2005Y768*
X2004Y768*
X2003Y768*
X2003Y767*
X2002Y767*
X2002Y767*
X2002Y766*
X2002Y766*
X2001Y766*
X2001Y765*
X2001Y765*
X2000Y764*
X2000Y763*
Y763*
Y763*
Y763*
Y762*
X2000Y762*
Y762*
Y761*
Y761*
Y761*
Y760*
Y760*
Y760*
Y759*
X2000Y759*
Y758*
Y758*
X2000Y758*
X2000Y757*
X2001Y757*
X2001Y756*
X2001Y756*
X2002Y755*
X2002Y754*
X2002Y754*
X2002Y754*
X2003Y754*
X2003Y754*
X2004Y753*
X2005Y753*
X2005Y753*
X2006Y753*
X2007*
X2007Y753*
X2007*
X2008Y753*
X2009Y753*
X2009Y753*
X2010Y754*
X2010Y754*
X2010Y754*
X2010Y754*
X2010Y754*
X2011Y755*
X2012Y755*
Y755*
X2012Y755*
X2012Y756*
X2012Y756*
X2012Y756*
X2012Y756*
X2013Y757*
X2013Y757*
X2013Y757*
X2022*
X2023Y757*
X2023Y756*
X2023Y756*
X2024Y756*
X2024Y756*
X2024Y755*
X2024Y755*
Y755*
Y755*
X2024Y754*
X2024Y754*
X2024Y753*
X2023Y752*
X2023Y751*
X2022Y750*
Y750*
X2022Y750*
X2022Y750*
X2022Y750*
X2022Y749*
X2021Y748*
X2020Y748*
X2019Y747*
X2018Y746*
X2017Y745*
X2017*
X2017Y745*
X2016Y745*
X2016Y745*
X2016Y744*
X2015Y744*
X2015Y744*
X2014Y744*
X2013Y744*
X2012Y743*
X2012Y743*
X2011Y743*
X2010Y743*
X2009Y743*
X2008Y743*
X2006Y743*
X2006*
X2006Y743*
X2005*
X2005Y743*
X2004Y743*
X2003Y743*
X2002Y743*
X2000Y743*
X1999Y744*
X1997Y745*
X1997*
X1997Y745*
X1997Y745*
X1997Y745*
X1996Y745*
X1996Y745*
X1995Y746*
X1994Y747*
X1993Y748*
X1992Y749*
X1991Y750*
Y750*
X1991Y750*
X1991Y750*
X1990Y751*
X1990Y751*
X1990Y751*
X1990Y752*
X1990Y752*
X1989Y753*
X1989Y755*
X1988Y756*
X1988Y758*
X1988Y761*
X1988Y763*
Y763*
Y763*
X1988Y764*
Y764*
X1988Y764*
X1988Y765*
X1989Y765*
X1989Y766*
X1989Y767*
X1989Y769*
X1990Y770*
X1991Y771*
X1991Y771*
X1991Y771*
X1991Y772*
X1991Y772*
X1992Y772*
X1993Y773*
X1994Y774*
X1995Y775*
X1996Y776*
X1997Y777*
X1997*
X1997Y777*
X1998Y777*
X1998Y777*
X1998Y777*
X1999Y777*
X1999Y777*
X2000Y778*
X2001Y778*
X2001Y778*
X2003Y778*
X2005Y778*
X2006Y778*
X2007*
X2007Y778*
G37*
G36*
X1802D02*
X1803D01*
X1803Y778*
X1804Y778*
X1805Y778*
X1806Y778*
X1808Y778*
X1810Y777*
X1811Y777*
X1811Y776*
X1811*
X1812Y776*
X1812Y776*
X1812Y776*
X1812Y776*
X1813Y775*
X1814Y775*
X1815Y774*
X1815Y773*
X1816Y772*
X1817Y771*
Y771*
X1817Y771*
X1817Y771*
X1817Y771*
X1818Y770*
X1818Y769*
X1818Y769*
X1818Y768*
X1819Y767*
X1819Y766*
Y766*
Y766*
X1819Y766*
X1819Y765*
X1818Y765*
X1818Y765*
X1818Y765*
X1818Y765*
X1817Y765*
X1817Y764*
X1808*
X1808Y765*
X1808Y765*
X1807Y765*
X1807Y765*
X1807Y765*
X1807Y765*
X1806Y766*
X1806Y766*
X1806Y766*
X1806Y766*
X1806Y766*
X1806Y767*
X1805Y767*
X1805Y767*
X1804Y768*
X1804Y768*
X1804Y768*
X1804Y768*
X1803Y768*
X1803Y768*
X1803Y768*
X1802Y768*
X1801*
X1800Y768*
X1800Y768*
X1799Y768*
X1798Y768*
X1798Y767*
X1797Y767*
X1797Y767*
X1797Y766*
X1796Y766*
X1796Y766*
X1796Y765*
X1795Y765*
X1795Y764*
X1795Y763*
Y763*
Y763*
Y763*
Y762*
X1795Y762*
Y762*
Y761*
Y761*
Y761*
Y760*
Y760*
Y760*
Y759*
X1795Y759*
Y758*
Y758*
X1795Y758*
X1795Y757*
X1795Y757*
X1796Y756*
X1796Y756*
X1796Y755*
X1797Y754*
X1797Y754*
X1797Y754*
X1798Y754*
X1798Y754*
X1799Y753*
X1799Y753*
X1800Y753*
X1801Y753*
X1801*
X1802Y753*
X1802*
X1803Y753*
X1803Y753*
X1804Y753*
X1804Y754*
X1804Y754*
X1805Y754*
X1805Y754*
X1805Y754*
X1806Y755*
X1806Y755*
Y755*
X1806Y755*
X1807Y756*
X1807Y756*
X1807Y756*
X1807Y756*
X1808Y757*
X1808Y757*
X1808Y757*
X1817*
X1817Y757*
X1818Y756*
X1818Y756*
X1818Y756*
X1819Y756*
X1819Y755*
X1819Y755*
Y755*
Y755*
X1819Y754*
X1819Y754*
X1818Y753*
X1818Y752*
X1818Y751*
X1817Y750*
Y750*
X1817Y750*
X1817Y750*
X1817Y750*
X1816Y749*
X1816Y748*
X1815Y748*
X1814Y747*
X1813Y746*
X1812Y745*
X1811*
X1811Y745*
X1811Y745*
X1811Y745*
X1810Y744*
X1810Y744*
X1809Y744*
X1809Y744*
X1808Y744*
X1807Y743*
X1806Y743*
X1806Y743*
X1804Y743*
X1803Y743*
X1802Y743*
X1801Y743*
X1801*
X1800Y743*
X1800*
X1799Y743*
X1799Y743*
X1798Y743*
X1797Y743*
X1795Y743*
X1794Y744*
X1792Y745*
X1792*
X1792Y745*
X1792Y745*
X1791Y745*
X1791Y745*
X1791Y745*
X1790Y746*
X1789Y747*
X1788Y748*
X1787Y749*
X1786Y750*
Y750*
X1786Y750*
X1785Y750*
X1785Y751*
X1785Y751*
X1785Y751*
X1785Y752*
X1784Y752*
X1784Y753*
X1784Y755*
X1783Y756*
X1783Y758*
X1783Y761*
X1783Y763*
Y763*
Y763*
X1783Y764*
Y764*
X1783Y764*
X1783Y765*
X1783Y765*
X1784Y766*
X1784Y767*
X1784Y769*
X1785Y770*
X1786Y771*
X1786Y771*
X1786Y771*
X1786Y772*
X1786Y772*
X1787Y772*
X1787Y773*
X1788Y774*
X1789Y775*
X1791Y776*
X1792Y777*
X1792*
X1792Y777*
X1793Y777*
X1793Y777*
X1793Y777*
X1794Y777*
X1794Y777*
X1795Y778*
X1795Y778*
X1796Y778*
X1798Y778*
X1799Y778*
X1801Y778*
X1802*
X1802Y778*
G37*
G36*
X2142D02*
X2143Y778D01*
X2143Y778*
X2144Y778*
X2145Y778*
X2147Y778*
X2148Y777*
X2149Y777*
X2150Y777*
X2151Y776*
X2152Y776*
X2152Y775*
X2152Y775*
X2153Y775*
X2153Y774*
X2153Y774*
X2153Y774*
X2154Y773*
X2154Y773*
X2154Y772*
X2155Y772*
X2155Y771*
X2155Y770*
X2156Y769*
X2156Y768*
X2156Y767*
X2156Y766*
X2156Y765*
Y745*
Y745*
Y745*
X2156Y745*
X2156Y744*
X2156Y744*
X2156Y744*
X2155Y744*
X2155Y743*
X2155Y743*
X2146*
X2146Y743*
X2145Y744*
X2145Y744*
X2145Y744*
X2145Y744*
X2145Y745*
X2144Y745*
Y747*
X2144Y747*
X2144Y747*
X2144Y746*
X2143Y746*
X2143Y745*
X2142Y745*
X2141Y744*
X2140Y744*
X2140Y744*
X2140Y744*
X2139Y743*
X2139Y743*
X2138Y743*
X2137Y743*
X2136Y743*
X2134Y743*
X2134*
X2133Y743*
X2133Y743*
X2132Y743*
X2132Y743*
X2131Y743*
X2130Y743*
X2128Y744*
X2128Y744*
X2127Y745*
X2126Y745*
X2126Y746*
X2126Y746*
X2125Y746*
X2125Y746*
X2125Y746*
X2125Y746*
X2125Y747*
X2124Y747*
X2124Y748*
X2123Y749*
X2123Y750*
X2123Y751*
X2123Y751*
X2123Y752*
X2122Y753*
Y753*
Y753*
Y754*
X2123Y754*
X2123Y754*
X2123Y755*
X2123Y756*
X2123Y757*
X2124Y758*
X2124Y758*
X2124Y759*
X2125Y759*
X2125Y760*
X2126Y760*
X2126Y761*
X2126Y761*
X2126Y761*
X2127Y761*
X2127Y761*
X2127Y761*
X2128Y762*
X2129Y762*
X2129Y762*
X2130Y763*
X2131Y763*
X2132Y763*
X2133Y764*
X2134Y764*
X2135Y764*
X2137Y765*
X2144Y766*
Y766*
Y766*
Y766*
X2144Y766*
X2144Y767*
X2144Y768*
X2144Y768*
X2144Y768*
X2143Y769*
X2143Y769*
X2142Y769*
X2142Y769*
X2141Y769*
X2141Y770*
X2140*
X2140Y769*
X2139Y769*
X2139Y769*
X2138Y769*
X2138Y769*
X2137Y768*
X2137Y768*
X2137Y768*
X2136Y768*
X2136Y768*
X2136*
X2136Y768*
X2135Y768*
X2126*
X2126Y768*
X2126Y768*
X2125Y768*
X2125Y768*
X2125Y768*
X2125Y769*
X2125Y769*
Y769*
X2125Y769*
X2125Y770*
X2125Y770*
X2125Y771*
X2126Y772*
X2126Y772*
X2127Y773*
X2127Y773*
X2127Y774*
X2128Y774*
X2129Y775*
X2129Y775*
X2130Y776*
X2131Y776*
X2133Y777*
X2133*
X2133Y777*
X2133Y777*
X2133Y777*
X2134Y777*
X2134Y777*
X2135Y778*
X2135Y778*
X2136Y778*
X2138Y778*
X2139Y778*
X2141Y778*
X2141*
X2142Y778*
G37*
G36*
X2056Y790D02*
X2056Y790D01*
X2056Y789*
X2056Y789*
X2057Y789*
X2057Y789*
X2057Y788*
Y754*
X2077*
X2078Y754*
X2078Y754*
X2078Y753*
X2078Y753*
X2079Y753*
X2079Y753*
X2079Y752*
Y745*
Y745*
Y745*
X2079Y745*
X2079Y744*
X2078Y744*
X2078Y744*
X2078Y744*
X2078Y743*
X2077Y743*
X2046*
X2046Y743*
X2046Y744*
X2045Y744*
X2045Y744*
X2045Y744*
X2045Y745*
X2045Y745*
Y788*
Y788*
Y788*
X2045Y788*
X2045Y789*
X2045Y789*
X2045Y789*
X2045Y789*
X2046Y790*
X2046Y790*
X2055*
X2056Y790*
G37*
G36*
X1981Y778D02*
X1981Y778D01*
X1981Y777*
X1982Y777*
X1982Y777*
X1982Y777*
X1982Y776*
Y745*
Y745*
Y745*
X1982Y745*
X1982Y744*
X1981Y744*
X1981Y744*
X1981Y744*
X1981Y743*
X1980Y743*
X1972*
X1971Y743*
X1971Y744*
X1971Y744*
X1971Y744*
X1970Y744*
X1970Y745*
X1970Y745*
Y776*
Y776*
Y776*
X1970Y777*
X1970Y777*
X1971Y777*
X1971Y777*
X1971Y778*
X1971Y778*
X1972Y778*
X1980*
X1981Y778*
G37*
G36*
X1839Y790D02*
X1839Y790D01*
X1840Y790*
X1840Y790*
X1840Y790*
X1840Y789*
X1840Y789*
Y778*
X1848*
X1848Y778*
X1849Y778*
X1849Y777*
X1849Y777*
X1849Y777*
X1850Y777*
X1850Y776*
Y769*
Y769*
Y769*
X1850Y769*
X1849Y768*
X1849Y768*
X1849Y768*
X1849Y768*
X1848Y768*
X1848Y768*
X1840*
Y757*
Y757*
Y757*
Y757*
X1840Y756*
X1841Y756*
X1841Y755*
X1841Y755*
X1842Y754*
X1842Y754*
X1842Y754*
X1843Y754*
X1843Y754*
X1849*
X1849Y754*
X1849Y753*
X1850Y753*
X1850Y753*
X1850Y753*
X1850Y752*
X1850Y752*
Y745*
Y745*
Y745*
X1850Y745*
X1850Y744*
X1850Y744*
X1850Y744*
X1849Y744*
X1849Y743*
X1849Y743*
X1842*
X1841Y743*
X1841Y743*
X1840Y744*
X1839Y744*
X1839Y744*
X1837Y744*
X1836Y745*
X1835Y745*
X1834Y745*
X1834Y746*
X1833Y746*
X1832Y747*
X1832Y747*
X1832Y747*
X1832Y747*
X1832Y748*
X1831Y748*
X1831Y748*
X1831Y749*
X1830Y749*
X1830Y750*
X1830Y751*
X1829Y751*
X1829Y752*
X1829Y753*
X1829Y754*
X1828Y755*
X1828Y756*
Y768*
X1823*
X1823Y768*
X1823Y768*
X1822Y768*
X1822Y768*
X1822Y768*
X1822Y769*
X1822Y769*
Y776*
Y776*
Y776*
X1822Y777*
X1822Y777*
X1822Y777*
X1822Y777*
X1823Y778*
X1823Y778*
X1824Y778*
X1828*
Y789*
Y789*
Y789*
X1828Y789*
X1829Y789*
X1829Y790*
X1829Y790*
X1829Y790*
X1830Y790*
X1830Y790*
X1839*
X1839Y790*
G37*
G36*
X1735D02*
X1736Y790D01*
X1736Y790*
X1736Y790*
X1736Y790*
X1736Y789*
X1737Y789*
Y745*
Y745*
Y745*
X1736Y745*
X1736Y744*
X1736Y744*
X1736Y744*
X1736Y744*
X1735Y743*
X1735Y743*
X1726*
X1726Y743*
X1726Y744*
X1725Y744*
X1725Y744*
X1725Y744*
X1725Y745*
X1725Y745*
Y789*
Y789*
Y789*
X1725Y789*
X1725Y789*
X1725Y790*
X1725Y790*
X1725Y790*
X1726Y790*
X1726Y790*
X1735*
X1735Y790*
G37*
G36*
X1716Y790D02*
X1716Y789D01*
X1717Y789*
X1717Y789*
X1717Y789*
X1717Y788*
X1717Y788*
Y788*
Y788*
Y781*
X1717Y780*
X1717Y780*
X1717Y780*
X1717Y780*
X1716Y779*
X1716Y779*
X1716Y779*
X1695*
Y772*
X1714*
X1714Y772*
X1715Y772*
X1715Y772*
X1715Y771*
X1716Y771*
X1716Y771*
X1716Y770*
Y770*
Y770*
Y763*
X1716Y763*
X1716Y762*
X1715Y762*
X1715Y762*
X1715Y762*
X1714Y761*
X1714Y761*
X1695*
Y754*
X1716*
X1717Y754*
X1717Y754*
X1717Y754*
X1717Y753*
X1718Y753*
X1718Y753*
X1718Y752*
Y752*
Y752*
Y745*
X1718Y745*
X1717Y744*
X1717Y744*
X1717Y744*
X1717Y744*
X1716Y743*
X1716Y743*
X1685*
X1684Y743*
X1684Y744*
X1683Y744*
X1683Y744*
X1683Y744*
X1683Y745*
X1683Y745*
Y745*
Y745*
Y788*
X1683Y789*
X1683Y789*
X1683Y789*
X1683Y789*
X1684Y790*
X1684Y790*
X1684Y790*
X1715*
X1716Y790*
G37*
G36*
X2101Y778D02*
X2102D01*
X2102Y778*
X2103Y778*
X2104Y778*
X2105Y778*
X2107Y778*
X2108Y777*
X2110Y776*
X2110*
X2110Y776*
X2110Y776*
X2110Y776*
X2111Y776*
X2111Y776*
X2112Y775*
X2113Y774*
X2114Y773*
X2115Y772*
X2116Y771*
X2116Y771*
X2116Y771*
X2116Y770*
X2116Y770*
X2117Y770*
X2117Y770*
X2117Y769*
X2117Y769*
X2118Y767*
X2118Y766*
X2118Y765*
X2118Y763*
Y763*
Y763*
Y763*
X2118Y763*
Y762*
Y762*
Y761*
Y761*
Y761*
Y760*
Y760*
Y760*
Y759*
X2118Y758*
Y758*
Y758*
Y758*
X2118Y758*
Y757*
X2118Y757*
X2118Y756*
X2118Y756*
X2118Y755*
X2118Y754*
X2117Y753*
X2117Y752*
X2116Y750*
Y750*
X2116Y750*
X2116Y750*
X2116Y750*
X2115Y749*
X2114Y748*
X2113Y747*
X2112Y746*
X2111Y746*
X2110Y745*
X2110*
X2110Y745*
X2109Y745*
X2109Y744*
X2109Y744*
X2108Y744*
X2108Y744*
X2107Y744*
X2106Y744*
X2106Y743*
X2104Y743*
X2102Y743*
X2100Y743*
X2100*
X2100Y743*
X2099*
X2099Y743*
X2098Y743*
X2097Y743*
X2096Y743*
X2094Y744*
X2093Y744*
X2091Y745*
X2091*
X2091Y745*
X2091Y745*
X2090Y745*
X2090Y745*
X2090Y746*
X2089Y746*
X2088Y747*
X2087Y748*
X2086Y749*
X2085Y750*
Y750*
X2085Y750*
X2085Y751*
X2084Y751*
X2084Y751*
X2084Y752*
X2084Y752*
X2084Y753*
X2083Y754*
X2083Y755*
X2082Y756*
X2082Y758*
X2082Y761*
X2082Y763*
Y763*
Y763*
X2082Y764*
Y764*
X2082Y764*
X2082Y765*
X2083Y765*
X2083Y766*
X2083Y767*
X2083Y768*
X2084Y770*
X2085Y771*
X2085Y771*
X2085Y771*
X2085Y771*
X2085Y771*
X2086Y772*
X2086Y773*
X2087Y774*
X2088Y775*
X2090Y776*
X2091Y776*
X2091*
X2091Y777*
X2092Y777*
X2092Y777*
X2092Y777*
X2093Y777*
X2093Y777*
X2094Y777*
X2094Y778*
X2095Y778*
X2097Y778*
X2098Y778*
X2100Y778*
X2101*
X2101Y778*
G37*
G36*
X1904D02*
X1904D01*
X1905Y778*
X1905Y778*
X1906Y778*
X1908Y778*
X1909Y778*
X1911Y777*
X1912Y776*
X1912*
X1912Y776*
X1913Y776*
X1913Y776*
X1913Y776*
X1914Y776*
X1915Y775*
X1916Y774*
X1917Y773*
X1918Y772*
X1919Y771*
X1919Y771*
X1919Y771*
X1919Y770*
X1919Y770*
X1919Y770*
X1919Y770*
X1920Y769*
X1920Y769*
X1920Y767*
X1921Y766*
X1921Y765*
X1921Y763*
Y763*
Y763*
Y763*
X1921Y763*
Y762*
Y762*
Y761*
Y761*
Y761*
Y760*
Y760*
Y760*
Y759*
X1921Y758*
Y758*
Y758*
Y758*
X1921Y758*
Y757*
X1921Y757*
X1921Y756*
X1921Y756*
X1921Y755*
X1920Y754*
X1920Y753*
X1919Y752*
X1919Y750*
Y750*
X1918Y750*
X1918Y750*
X1918Y750*
X1918Y749*
X1917Y748*
X1916Y747*
X1915Y746*
X1914Y746*
X1912Y745*
X1912*
X1912Y745*
X1912Y745*
X1912Y744*
X1911Y744*
X1911Y744*
X1910Y744*
X1910Y744*
X1909Y744*
X1908Y743*
X1907Y743*
X1905Y743*
X1903Y743*
X1903*
X1902Y743*
X1902*
X1901Y743*
X1901Y743*
X1900Y743*
X1898Y743*
X1897Y744*
X1895Y744*
X1894Y745*
X1894*
X1894Y745*
X1893Y745*
X1893Y745*
X1893Y745*
X1892Y746*
X1891Y746*
X1890Y747*
X1889Y748*
X1888Y749*
X1887Y750*
Y750*
X1887Y750*
X1887Y751*
X1887Y751*
X1887Y751*
X1887Y752*
X1886Y752*
X1886Y753*
X1886Y754*
X1885Y755*
X1885Y756*
X1885Y758*
X1885Y761*
X1885Y763*
Y763*
Y763*
X1885Y764*
Y764*
X1885Y764*
X1885Y765*
X1885Y765*
X1885Y766*
X1886Y767*
X1886Y768*
X1887Y770*
X1887Y771*
X1887Y771*
X1887Y771*
X1888Y771*
X1888Y771*
X1888Y772*
X1889Y773*
X1890Y774*
X1891Y775*
X1892Y776*
X1894Y776*
X1894*
X1894Y777*
X1894Y777*
X1894Y777*
X1895Y777*
X1895Y777*
X1896Y777*
X1896Y777*
X1897Y778*
X1898Y778*
X1899Y778*
X1901Y778*
X1903Y778*
X1904*
X1904Y778*
G37*
G36*
X1762D02*
X1762D01*
X1763Y778*
X1763Y778*
X1764Y778*
X1766Y778*
X1767Y777*
X1769Y777*
X1770Y776*
X1771Y776*
X1771Y776*
X1771Y776*
X1771Y776*
X1771Y775*
X1772Y775*
X1772Y775*
X1773Y774*
X1774Y773*
X1775Y772*
X1776Y771*
X1777Y769*
Y769*
X1777Y769*
X1777Y769*
X1777Y768*
X1777Y768*
X1777Y768*
X1777Y767*
X1778Y766*
X1778Y765*
X1778Y764*
X1778Y762*
X1778Y760*
Y759*
Y759*
Y758*
X1778Y758*
X1778Y758*
X1778Y757*
X1778Y757*
X1778Y757*
X1777Y757*
X1777Y757*
X1755*
Y757*
Y757*
X1755Y756*
X1755Y756*
X1755Y755*
X1755Y755*
X1755Y754*
X1756Y753*
X1756Y753*
X1756Y753*
X1757Y753*
X1757Y752*
X1758Y752*
X1758Y752*
X1759Y752*
X1760Y752*
X1761Y752*
X1761*
X1762Y752*
X1762Y752*
X1763Y752*
X1763Y752*
X1764Y752*
X1764*
X1764Y752*
X1764Y752*
X1764Y752*
X1765Y753*
X1766Y753*
X1766Y753*
X1766Y753*
X1766Y753*
X1766Y754*
X1767Y754*
X1767Y754*
X1767Y754*
X1767Y754*
X1777*
X1777Y754*
X1777Y754*
X1778Y754*
X1778Y754*
X1778Y753*
X1778Y753*
X1778Y753*
Y753*
X1778Y752*
X1778Y752*
X1778Y752*
X1777Y751*
X1777Y750*
X1777Y750*
X1776Y749*
X1776Y749*
X1776Y748*
X1775Y748*
X1774Y747*
X1774Y747*
X1773Y746*
X1771Y745*
X1770Y745*
X1770*
X1770Y745*
X1770Y744*
X1769Y744*
X1769Y744*
X1768Y744*
X1768Y744*
X1767Y744*
X1767Y743*
X1766Y743*
X1765Y743*
X1764Y743*
X1763Y743*
X1761Y743*
X1760*
X1760Y743*
X1759*
X1758Y743*
X1758Y743*
X1757Y743*
X1756Y743*
X1755Y744*
X1754Y744*
X1752Y744*
X1751Y745*
X1750Y745*
X1749Y746*
X1748Y747*
X1747Y747*
X1747Y747*
X1747Y748*
X1747Y748*
X1747Y748*
X1746Y749*
X1746Y749*
X1745Y750*
X1745Y751*
X1745Y752*
X1744Y753*
X1744Y754*
X1743Y755*
X1743Y756*
X1743Y758*
X1743Y759*
X1743Y761*
Y761*
Y761*
Y761*
X1743Y761*
Y762*
X1743Y762*
X1743Y763*
X1743Y764*
X1743Y765*
X1744Y767*
X1744Y768*
X1745Y770*
Y770*
X1745Y770*
X1745Y770*
X1745Y770*
X1745Y771*
X1746Y771*
X1746Y772*
X1747Y773*
X1748Y774*
X1749Y775*
X1751Y776*
X1751Y776*
X1751Y776*
X1751Y776*
X1752Y777*
X1752Y777*
X1752Y777*
X1753Y777*
X1754Y777*
X1754Y778*
X1755Y778*
X1756Y778*
X1757Y778*
X1759Y778*
X1761Y778*
X1761*
X1762Y778*
G37*
G36*
X1768Y729D02*
X1768Y729D01*
X1769Y729*
X1769Y729*
X1769Y729*
X1769Y729*
X1769Y728*
Y728*
Y728*
X1769Y728*
X1769Y728*
X1758Y696*
Y696*
X1758Y696*
X1758Y696*
X1758Y696*
X1757Y695*
X1757Y695*
X1757*
X1757Y695*
X1757Y695*
X1757Y695*
X1756Y695*
X1756Y695*
X1756Y694*
X1755Y694*
X1753*
X1753Y694*
X1753Y695*
X1752Y695*
X1752Y695*
X1751Y695*
X1751Y696*
X1751Y696*
X1751Y696*
X1740Y728*
Y728*
X1740Y728*
X1740Y728*
X1740Y728*
Y728*
Y728*
X1740Y728*
X1740Y729*
X1740Y729*
X1740Y729*
X1740Y729*
X1741Y729*
X1741Y729*
X1743*
X1743Y729*
X1744Y729*
X1744Y729*
X1744Y729*
X1744Y728*
X1745Y728*
X1754Y699*
X1764Y728*
X1764Y728*
X1764Y728*
X1764Y728*
X1764Y729*
X1765Y729*
X1765Y729*
X1765Y729*
X1766Y729*
X1768*
X1768Y729*
G37*
G36*
X1786Y730D02*
X1786D01*
X1786Y730*
X1787Y730*
X1787Y730*
X1788Y729*
X1789Y729*
X1790Y729*
X1791Y728*
X1791*
X1791Y728*
X1791Y728*
X1792Y728*
X1792Y728*
X1793Y727*
X1793Y727*
X1794Y726*
X1794Y725*
X1795Y725*
Y724*
X1795Y724*
X1795Y724*
X1795Y724*
X1795Y724*
X1795Y724*
X1796Y723*
X1796Y722*
X1796Y721*
X1796Y720*
X1796Y719*
Y719*
Y719*
Y719*
Y719*
X1796Y718*
Y718*
X1796Y717*
X1796Y716*
X1796Y716*
X1796Y715*
X1795Y714*
Y714*
X1795Y714*
X1795Y714*
X1795Y713*
X1795Y713*
X1794Y712*
X1794Y712*
X1793Y711*
X1792Y710*
X1792Y709*
X1780Y699*
X1796*
X1796Y699*
X1796Y699*
X1797Y698*
X1797Y698*
X1797Y698*
X1797Y698*
X1797Y698*
Y696*
Y696*
Y696*
X1797Y695*
X1797Y695*
X1797Y695*
X1797Y695*
X1796Y695*
X1796Y694*
X1796Y694*
X1774*
X1774Y694*
X1774Y695*
X1773Y695*
X1773Y695*
X1773Y695*
X1773Y695*
X1773Y696*
Y698*
Y698*
Y698*
X1773Y698*
X1773Y698*
X1773Y698*
X1773Y699*
X1773Y699*
X1774Y699*
X1774Y699*
X1789Y713*
X1789Y713*
X1789Y713*
X1789Y713*
X1789Y714*
X1790Y714*
X1790Y715*
X1791Y715*
X1791Y716*
X1791Y716*
X1791Y716*
X1791Y716*
X1791Y717*
X1791Y717*
X1791Y718*
X1791Y718*
X1792Y719*
Y719*
Y719*
Y719*
X1791Y720*
Y720*
X1791Y720*
X1791Y721*
X1791Y721*
X1791Y722*
X1790Y723*
X1790Y724*
X1790Y724*
X1790Y724*
X1789Y724*
X1789Y724*
X1788Y725*
X1787Y725*
X1786Y725*
X1785Y725*
X1785*
X1785Y725*
X1784*
X1784Y725*
X1783Y725*
X1783Y725*
X1782Y725*
X1781Y724*
X1780Y724*
X1780Y724*
X1780Y723*
X1780Y723*
X1779Y722*
X1779Y722*
X1779Y721*
X1778Y720*
X1778Y719*
Y719*
X1778Y719*
X1778Y719*
X1778Y719*
X1778Y718*
X1777Y718*
X1777Y718*
X1777Y718*
X1777Y718*
X1774*
X1774Y718*
X1774Y718*
X1774Y718*
X1774Y718*
X1774Y718*
X1773Y719*
X1773Y719*
Y719*
Y719*
Y719*
X1773Y720*
X1773Y720*
X1773Y720*
X1774Y721*
X1774Y721*
X1774Y722*
X1774Y723*
X1775Y724*
Y724*
X1775Y724*
X1775Y724*
X1775Y724*
X1775Y725*
X1776Y726*
X1777Y726*
X1777Y727*
X1778Y728*
X1779Y728*
X1779*
X1779Y728*
X1779Y728*
X1779Y728*
X1780Y729*
X1780Y729*
X1780Y729*
X1781Y729*
X1781Y729*
X1782Y729*
X1783Y730*
X1784Y730*
X1785Y730*
X1785*
X1786Y730*
G37*
G36*
X1734Y729D02*
X1735Y729D01*
X1735Y729*
X1735Y729*
X1735Y729*
X1735Y728*
X1735Y728*
Y728*
Y728*
Y726*
X1735Y726*
X1735Y725*
X1735Y725*
X1735Y725*
X1735Y725*
X1734Y725*
X1734Y725*
X1718*
Y714*
X1733*
X1733Y714*
X1734Y714*
X1734Y714*
X1734Y714*
X1734Y714*
X1734Y713*
X1734Y713*
Y713*
Y713*
Y711*
X1734Y711*
X1734Y710*
X1734Y710*
X1734Y710*
X1734Y710*
X1733Y710*
X1733Y710*
X1718*
Y699*
X1735*
X1735Y699*
X1735Y699*
X1735Y699*
X1735Y698*
X1736Y698*
X1736Y698*
X1736Y698*
Y698*
Y698*
Y696*
X1736Y695*
X1736Y695*
X1736Y695*
X1735Y695*
X1735Y695*
X1735Y694*
X1735Y694*
X1714*
X1714Y694*
X1714Y695*
X1713Y695*
X1713Y695*
X1713Y695*
X1713Y695*
X1713Y696*
Y696*
Y696*
Y728*
X1713Y728*
X1713Y729*
X1713Y729*
X1713Y729*
X1714Y729*
X1714Y729*
X1714Y729*
X1734*
X1734Y729*
G37*
G36*
X1695Y729D02*
X1695Y729D01*
X1696Y729*
X1696Y729*
X1697Y729*
X1698Y729*
X1699Y728*
X1700Y728*
X1701Y728*
X1701Y728*
X1702Y727*
X1703Y727*
X1703Y727*
X1703Y727*
X1703Y726*
X1703Y726*
X1703Y726*
X1704Y726*
X1704Y725*
X1704Y725*
X1705Y724*
X1705Y724*
X1705Y723*
X1705Y722*
X1706Y722*
X1706Y721*
X1706Y720*
X1706Y719*
Y719*
Y719*
Y719*
X1706Y718*
Y718*
X1706Y718*
X1706Y717*
X1706Y717*
X1706Y716*
X1705Y715*
X1705Y714*
X1704Y713*
X1704Y713*
X1704Y713*
X1704Y713*
X1704Y712*
X1704Y712*
X1704Y712*
X1703Y712*
X1703Y711*
X1702Y711*
X1701Y710*
X1700Y710*
X1699Y709*
X1706Y696*
X1706Y696*
X1706Y696*
X1706Y696*
X1707Y695*
Y695*
X1706Y695*
X1706Y695*
X1706Y695*
X1706Y695*
X1706Y695*
X1706Y694*
X1705Y694*
X1703*
X1703Y694*
X1703Y695*
X1703Y695*
X1702Y695*
X1702Y695*
X1701Y695*
X1701Y696*
X1694Y708*
X1685*
Y696*
Y696*
Y696*
X1685Y695*
X1685Y695*
X1685Y695*
X1685Y695*
X1685Y695*
X1684Y694*
X1684Y694*
X1682*
X1682Y694*
X1681Y695*
X1681Y695*
X1681Y695*
X1681Y695*
X1681Y695*
X1681Y696*
Y728*
Y728*
Y728*
X1681Y728*
X1681Y729*
X1681Y729*
X1681Y729*
X1681Y729*
X1682Y729*
X1682Y729*
X1695*
X1695Y729*
G37*
G36*
X2224Y852D02*
X2225Y852D01*
X2225Y852*
X2225Y851*
X2225Y851*
X2226Y851*
X2226Y850*
Y807*
Y807*
Y807*
X2226Y806*
X2226Y806*
X2225Y806*
X2225Y806*
X2225Y805*
X2224Y805*
X2224Y805*
X2216*
X2216Y805*
X2215Y805*
X2215Y806*
X2215Y806*
X2214Y806*
X2214Y806*
X2214Y807*
Y808*
X2214Y808*
X2214Y808*
X2214Y808*
X2214Y808*
X2213Y807*
X2212Y806*
X2212Y806*
X2212Y806*
X2212Y806*
X2211Y806*
X2211Y806*
X2211Y805*
X2210Y805*
X2209Y805*
X2209*
X2209Y805*
X2209Y805*
X2208Y805*
X2208Y805*
X2207Y805*
X2206Y804*
X2204*
X2204Y804*
X2203Y805*
X2203Y805*
X2202Y805*
X2201Y805*
X2200Y805*
X2200Y805*
X2199Y806*
X2198Y806*
X2197Y807*
X2196Y807*
X2195Y808*
X2194Y808*
X2194Y808*
X2194Y808*
X2194Y809*
X2194Y809*
X2193Y809*
X2193Y810*
X2193Y810*
X2192Y811*
X2192Y812*
X2192Y813*
X2191Y814*
X2191Y815*
X2191Y816*
X2190Y817*
X2190Y818*
X2190Y820*
X2190Y822*
X2190Y825*
Y825*
Y825*
X2190Y826*
X2190Y826*
X2190Y827*
X2190Y828*
X2191Y828*
X2191Y829*
X2191Y830*
X2191Y831*
X2192Y832*
X2192Y833*
X2193Y834*
X2193Y835*
X2194Y836*
X2194Y836*
X2195Y836*
X2195Y836*
X2195Y837*
X2195Y837*
X2196Y837*
X2196Y838*
X2197Y838*
X2197Y838*
X2198Y839*
X2199Y839*
X2200Y839*
X2201Y840*
X2202Y840*
X2203Y840*
X2204Y840*
X2205Y840*
X2205*
X2206Y840*
X2207Y840*
X2208Y840*
X2209Y840*
X2210Y839*
X2211Y839*
X2211Y839*
X2211Y839*
X2211Y839*
X2212Y838*
X2212Y838*
X2213Y837*
X2213Y837*
X2214Y836*
Y850*
Y850*
Y850*
X2214Y851*
X2214Y851*
X2214Y852*
X2214Y852*
X2215Y852*
X2215Y852*
X2216Y852*
X2224*
X2224Y852*
G37*
G36*
X2142D02*
X2142Y852D01*
X2143Y852*
X2143Y851*
X2143Y851*
X2143Y851*
X2143Y850*
Y807*
Y807*
Y807*
X2143Y806*
X2143Y806*
X2143Y806*
X2143Y806*
X2143Y805*
X2142Y805*
X2142Y805*
X2134*
X2133Y805*
X2133Y805*
X2132Y806*
X2132Y806*
X2132Y806*
X2132Y806*
X2132Y807*
Y808*
X2132Y808*
X2132Y808*
X2131Y808*
X2131Y808*
X2131Y807*
X2130Y806*
X2130Y806*
X2130Y806*
X2129Y806*
X2129Y806*
X2129Y806*
X2128Y805*
X2128Y805*
X2127Y805*
X2127*
X2127Y805*
X2126Y805*
X2126Y805*
X2125Y805*
X2124Y805*
X2124Y804*
X2122*
X2122Y804*
X2121Y805*
X2120Y805*
X2120Y805*
X2119Y805*
X2118Y805*
X2117Y805*
X2116Y806*
X2115Y806*
X2115Y807*
X2114Y807*
X2113Y808*
X2112Y808*
X2112Y808*
X2112Y808*
X2112Y809*
X2111Y809*
X2111Y809*
X2111Y810*
X2110Y810*
X2110Y811*
X2110Y812*
X2109Y813*
X2109Y814*
X2109Y815*
X2108Y816*
X2108Y817*
X2108Y818*
X2108Y820*
X2108Y822*
X2108Y825*
Y825*
Y825*
X2108Y826*
X2108Y826*
X2108Y827*
X2108Y828*
X2108Y828*
X2108Y829*
X2109Y830*
X2109Y831*
X2109Y832*
X2110Y833*
X2110Y834*
X2111Y835*
X2111Y836*
X2112Y836*
X2112Y836*
X2112Y836*
X2113Y837*
X2113Y837*
X2113Y837*
X2114Y838*
X2114Y838*
X2115Y838*
X2116Y839*
X2116Y839*
X2117Y839*
X2118Y840*
X2119Y840*
X2120Y840*
X2121Y840*
X2123Y840*
X2123*
X2124Y840*
X2125Y840*
X2125Y840*
X2126Y840*
X2127Y839*
X2128Y839*
X2128Y839*
X2128Y839*
X2129Y839*
X2129Y838*
X2130Y838*
X2130Y837*
X2131Y837*
X2131Y836*
Y850*
Y850*
Y850*
X2132Y851*
X2132Y851*
X2132Y852*
X2132Y852*
X2132Y852*
X2133Y852*
X2133Y852*
X2142*
X2142Y852*
G37*
G36*
X1764Y840D02*
X1765Y840D01*
X1765Y840*
X1766Y840*
X1767Y840*
X1767Y840*
X1768Y839*
X1769Y839*
X1770Y839*
X1771Y838*
X1772Y838*
X1773Y837*
X1773Y836*
X1773Y836*
X1774Y836*
X1774Y836*
X1774Y836*
X1774Y835*
X1775Y835*
X1775Y834*
X1775Y834*
X1776Y833*
X1776Y832*
X1776Y831*
X1777Y830*
X1777Y829*
X1777Y828*
X1777Y826*
X1777Y825*
Y807*
Y807*
Y807*
X1777Y806*
X1777Y806*
X1777Y806*
X1777Y806*
X1776Y805*
X1776Y805*
X1775Y805*
X1767*
X1767Y805*
X1766Y805*
X1766Y806*
X1766Y806*
X1766Y806*
X1765Y806*
X1765Y807*
Y824*
Y824*
Y824*
Y824*
Y824*
X1765Y825*
X1765Y825*
X1765Y826*
X1765Y827*
X1764Y828*
X1764Y828*
X1764Y828*
X1764Y829*
X1763Y829*
X1763Y829*
X1762Y829*
X1761Y830*
X1761Y830*
X1760Y830*
X1759*
X1759Y830*
X1758Y830*
X1757Y829*
X1757Y829*
X1756Y829*
X1755Y828*
X1755Y828*
X1755Y828*
X1755Y828*
X1755Y827*
X1754Y826*
X1754Y826*
X1754Y825*
X1754Y824*
Y807*
Y807*
Y807*
X1754Y806*
X1754Y806*
X1753Y806*
X1753Y806*
X1753Y805*
X1753Y805*
X1752Y805*
X1744*
X1743Y805*
X1743Y805*
X1742Y806*
X1742Y806*
X1742Y806*
X1742Y806*
X1742Y807*
Y838*
Y838*
Y838*
X1742Y838*
X1742Y839*
X1742Y839*
X1742Y839*
X1743Y839*
X1743Y839*
X1744Y840*
X1752*
X1752Y839*
X1753Y839*
X1753Y839*
X1753Y839*
X1753Y839*
X1753Y838*
X1753Y838*
Y836*
X1754Y836*
X1754Y836*
X1754Y837*
X1754Y837*
X1754Y837*
X1755Y838*
X1755Y838*
X1756Y838*
X1756Y839*
X1757Y839*
X1758Y839*
X1759Y840*
X1760Y840*
X1761Y840*
X1762Y840*
X1763Y840*
X1763*
X1764Y840*
G37*
G36*
X1802D02*
X1803D01*
X1803Y840*
X1804Y840*
X1805Y840*
X1807Y840*
X1808Y839*
X1810Y839*
X1811Y838*
X1811Y838*
X1812*
X1812Y838*
X1812Y838*
X1812Y838*
X1812Y837*
X1813Y837*
X1814Y836*
X1815Y836*
X1815Y835*
X1816Y834*
X1817Y833*
Y833*
X1817Y833*
X1817Y833*
X1817Y832*
X1818Y832*
X1818Y831*
X1818Y830*
X1819Y830*
X1819Y829*
X1819Y828*
Y828*
Y828*
X1819Y828*
X1819Y827*
X1819Y827*
X1818Y827*
X1818Y827*
X1818Y826*
X1818Y826*
X1817Y826*
X1808*
X1808Y826*
X1808Y826*
X1807Y827*
X1807Y827*
X1807Y827*
X1807Y827*
X1806Y828*
X1806Y828*
X1806Y828*
X1806Y828*
X1806Y828*
X1806Y829*
X1805Y829*
X1805Y829*
X1804Y829*
X1804Y829*
X1804Y829*
X1804Y830*
X1804Y830*
X1803Y830*
X1803Y830*
X1802Y830*
X1801*
X1800Y830*
X1800Y830*
X1799Y830*
X1798Y829*
X1798Y829*
X1797Y828*
X1797Y828*
X1797Y828*
X1796Y828*
X1796Y827*
X1796Y827*
X1796Y826*
X1795Y826*
X1795Y825*
Y825*
Y825*
Y824*
Y824*
X1795Y824*
Y823*
Y823*
Y822*
Y822*
Y822*
Y822*
Y821*
Y821*
X1795Y820*
Y820*
Y820*
X1795Y820*
X1795Y819*
X1795Y819*
X1796Y818*
X1796Y817*
X1796Y817*
X1797Y816*
X1797Y816*
X1797Y816*
X1798Y816*
X1798Y815*
X1799Y815*
X1799Y815*
X1800Y815*
X1801Y815*
X1802*
X1802Y815*
X1802*
X1803Y815*
X1803Y815*
X1804Y815*
X1804Y815*
X1804Y815*
X1805Y815*
X1805Y816*
X1805Y816*
X1806Y816*
X1806Y817*
Y817*
X1807Y817*
X1807Y817*
X1807Y818*
X1807Y818*
X1807Y818*
X1808Y818*
X1808Y818*
X1808Y818*
X1817*
X1817Y818*
X1818Y818*
X1818Y818*
X1818Y818*
X1819Y818*
X1819Y817*
X1819Y817*
Y817*
Y816*
X1819Y816*
X1819Y815*
X1818Y815*
X1818Y814*
X1818Y813*
X1817Y812*
Y812*
X1817Y812*
X1817Y812*
X1817Y811*
X1816Y811*
X1816Y810*
X1815Y809*
X1814Y809*
X1813Y808*
X1812Y807*
X1812*
X1811Y807*
X1811Y807*
X1811Y806*
X1811Y806*
X1810Y806*
X1809Y806*
X1809Y806*
X1808Y805*
X1807Y805*
X1806Y805*
X1806Y805*
X1805Y805*
X1804Y805*
X1802Y804*
X1801Y804*
X1801*
X1800Y804*
X1800*
X1799Y805*
X1799Y805*
X1798Y805*
X1797Y805*
X1795Y805*
X1794Y806*
X1792Y806*
X1792*
X1792Y806*
X1792Y807*
X1792Y807*
X1791Y807*
X1791Y807*
X1790Y808*
X1789Y808*
X1788Y809*
X1787Y810*
X1786Y812*
Y812*
X1786Y812*
X1786Y812*
X1785Y812*
X1785Y813*
X1785Y813*
X1785Y813*
X1785Y814*
X1784Y815*
X1784Y816*
X1783Y818*
X1783Y820*
X1783Y822*
X1783Y825*
Y825*
Y825*
X1783Y825*
Y826*
X1783Y826*
X1783Y827*
X1783Y827*
X1784Y828*
X1784Y829*
X1784Y830*
X1785Y832*
X1786Y833*
X1786Y833*
X1786Y833*
X1786Y833*
X1786Y834*
X1787Y834*
X1788Y835*
X1788Y836*
X1790Y837*
X1791Y838*
X1792Y838*
X1792*
X1792Y838*
X1793Y838*
X1793Y839*
X1793Y839*
X1794Y839*
X1794Y839*
X1795Y839*
X1795Y839*
X1796Y840*
X1798Y840*
X1799Y840*
X1801Y840*
X1802*
X1802Y840*
G37*
G36*
X1903Y839D02*
X1903Y839D01*
X1903Y839*
X1903Y839*
X1904Y839*
X1904Y838*
X1904Y838*
Y838*
Y838*
X1904Y838*
X1885Y794*
Y794*
X1885Y794*
X1885Y794*
X1885Y793*
X1885Y793*
X1884Y793*
X1884Y793*
X1883Y793*
X1875*
X1874Y793*
X1874Y793*
X1874Y793*
X1874Y793*
X1873Y793*
X1873Y794*
X1873Y794*
Y794*
Y794*
X1873Y795*
X1878Y806*
X1865Y838*
Y838*
Y838*
X1865Y838*
Y838*
Y838*
X1865Y838*
X1865Y839*
X1865Y839*
X1865Y839*
X1866Y839*
X1866Y839*
X1866Y840*
X1875*
X1875Y839*
X1876Y839*
X1876Y839*
X1876Y839*
X1877Y839*
X1877Y838*
X1884Y821*
X1892Y838*
X1892Y838*
X1892Y838*
X1892Y838*
X1892Y839*
X1892Y839*
X1893Y839*
X1893Y839*
X1894Y840*
X1902*
X1903Y839*
G37*
G36*
X2087Y840D02*
X2088Y840D01*
X2089Y840*
X2089Y840*
X2090Y840*
X2092Y839*
X2093Y839*
X2094Y839*
X2095Y838*
X2096Y838*
X2097Y837*
X2098Y837*
X2098Y837*
X2098Y836*
X2098Y836*
X2098Y836*
X2099Y836*
X2099Y835*
X2099Y835*
X2100Y834*
X2100Y833*
X2100Y833*
X2101Y832*
X2101Y831*
X2101Y830*
X2102Y829*
X2102Y828*
X2102Y827*
Y807*
Y807*
Y807*
X2102Y806*
X2101Y806*
X2101Y806*
X2101Y806*
X2101Y805*
X2100Y805*
X2100Y805*
X2091*
X2091Y805*
X2091Y805*
X2090Y806*
X2090Y806*
X2090Y806*
X2090Y806*
X2090Y807*
Y809*
X2090Y809*
X2089Y808*
X2089Y808*
X2089Y807*
X2088Y807*
X2087Y806*
X2086Y806*
X2086Y805*
X2085Y805*
X2085Y805*
X2085Y805*
X2084Y805*
X2083Y805*
X2082Y805*
X2081Y804*
X2080Y804*
X2079*
X2079Y804*
X2078Y805*
X2078Y805*
X2077Y805*
X2076Y805*
X2075Y805*
X2074Y806*
X2073Y806*
X2072Y806*
X2071Y807*
X2071Y807*
X2071Y807*
X2071Y807*
X2071Y808*
X2070Y808*
X2070Y808*
X2070Y808*
X2070Y809*
X2069Y809*
X2069Y810*
X2068Y812*
X2068Y812*
X2068Y813*
X2068Y814*
X2068Y815*
Y815*
Y815*
Y815*
X2068Y816*
X2068Y816*
X2068Y816*
X2068Y817*
X2069Y819*
X2069Y819*
X2069Y820*
X2070Y820*
X2070Y821*
X2071Y822*
X2071Y822*
X2071Y822*
X2071Y822*
X2072Y822*
X2072Y823*
X2072Y823*
X2073Y823*
X2073Y823*
X2074Y824*
X2074Y824*
X2075Y824*
X2076Y825*
X2077Y825*
X2078Y825*
X2079Y826*
X2081Y826*
X2082Y826*
X2090Y828*
Y828*
Y828*
Y828*
X2090Y828*
X2090Y829*
X2089Y829*
X2089Y830*
X2089Y830*
X2088Y830*
X2088Y831*
X2088Y831*
X2087Y831*
X2087Y831*
X2086Y831*
X2086*
X2085Y831*
X2085Y831*
X2084Y831*
X2083Y831*
X2083Y830*
X2082Y830*
X2082Y830*
X2082Y830*
X2082Y830*
X2081Y829*
X2081*
X2081Y829*
X2080Y829*
X2071*
X2071Y829*
X2071Y829*
X2070Y830*
X2070Y830*
X2070Y830*
X2070Y830*
X2070Y831*
Y831*
X2070Y831*
X2070Y832*
X2070Y832*
X2071Y833*
X2071Y833*
X2072Y834*
X2072Y835*
X2072Y835*
X2073Y835*
X2073Y836*
X2074Y836*
X2075Y837*
X2076Y838*
X2077Y838*
X2078Y839*
X2078*
X2078Y839*
X2078Y839*
X2079Y839*
X2079Y839*
X2079Y839*
X2080Y839*
X2080Y839*
X2081Y840*
X2083Y840*
X2084Y840*
X2086Y840*
X2087*
X2087Y840*
G37*
G36*
X2020Y852D02*
X2020Y852D01*
X2021Y852*
X2021Y851*
X2021Y851*
X2021Y851*
X2021Y850*
Y807*
Y807*
Y807*
X2021Y806*
X2021Y806*
X2021Y806*
X2021Y806*
X2020Y805*
X2020Y805*
X2020Y805*
X2011*
X2011Y805*
X2010Y805*
X2010Y806*
X2010Y806*
X2010Y806*
X2009Y806*
X2009Y807*
Y850*
Y850*
Y850*
X2009Y851*
X2010Y851*
X2010Y852*
X2010Y852*
X2010Y852*
X2011Y852*
X2011Y852*
X2020*
X2020Y852*
G37*
G36*
X1945Y851D02*
X1946Y851D01*
X1947Y851*
X1948Y851*
X1949Y851*
X1950Y851*
X1951Y851*
X1952Y850*
X1953Y850*
X1954Y849*
X1955Y849*
X1956Y848*
X1957Y848*
X1957Y848*
X1958Y848*
X1958Y847*
X1958Y847*
X1958Y847*
X1959Y846*
X1959Y845*
X1960Y845*
X1960Y844*
X1961Y843*
X1961Y842*
X1961Y841*
X1962Y840*
X1962Y839*
X1962Y838*
X1962Y836*
Y836*
Y836*
X1962Y835*
X1962Y835*
X1962Y834*
X1962Y833*
X1962Y832*
X1961Y831*
X1961Y830*
X1960Y829*
X1960Y828*
X1959Y827*
X1958Y826*
X1957Y825*
X1956Y824*
X1954Y823*
X1963Y807*
X1963Y807*
X1963Y807*
X1963Y807*
X1963Y807*
Y806*
X1963Y806*
X1963Y806*
X1962Y805*
X1962Y805*
X1962Y805*
X1962Y805*
X1961Y805*
X1952*
X1952Y805*
X1952*
X1951Y805*
X1951Y805*
X1950Y806*
X1950Y806*
X1950Y806*
X1950Y806*
X1950Y807*
X1942Y821*
X1936*
Y807*
Y807*
Y807*
X1936Y806*
X1936Y806*
X1935Y806*
X1935Y806*
X1935Y805*
X1935Y805*
X1934Y805*
X1925*
X1925Y805*
X1925Y805*
X1924Y806*
X1924Y806*
X1924Y806*
X1924Y806*
X1924Y807*
Y850*
Y850*
Y850*
X1924Y850*
X1924Y851*
X1924Y851*
X1924Y851*
X1925Y851*
X1925Y851*
X1926Y851*
X1944*
X1945Y851*
G37*
G36*
X1835Y852D02*
X1836Y852D01*
X1836Y852*
X1836Y851*
X1836Y851*
X1836Y851*
X1837Y850*
Y836*
X1837Y836*
X1837Y837*
X1837Y837*
X1837Y837*
X1838Y838*
X1839Y838*
X1839Y839*
X1840Y839*
X1840*
X1840Y839*
X1841Y839*
X1841Y839*
X1842Y840*
X1843Y840*
X1844Y840*
X1845Y840*
X1846Y840*
X1846*
X1847Y840*
X1847Y840*
X1848Y840*
X1849Y840*
X1849Y840*
X1850Y840*
X1851Y839*
X1852Y839*
X1853Y839*
X1854Y838*
X1855Y838*
X1855Y837*
X1856Y836*
X1856Y836*
X1856Y836*
X1856Y836*
X1857Y836*
X1857Y835*
X1857Y835*
X1858Y834*
X1858Y834*
X1858Y833*
X1859Y832*
X1859Y831*
X1859Y830*
X1860Y829*
X1860Y828*
X1860Y826*
X1860Y825*
Y807*
Y807*
Y807*
X1860Y806*
X1860Y806*
X1859Y806*
X1859Y806*
X1859Y805*
X1859Y805*
X1858Y805*
X1850*
X1849Y805*
X1849Y805*
X1849Y806*
X1848Y806*
X1848Y806*
X1848Y806*
X1848Y807*
Y824*
Y824*
Y824*
Y824*
Y824*
X1848Y825*
X1848Y825*
X1848Y826*
X1847Y827*
X1847Y828*
X1847Y828*
X1847Y828*
X1846Y829*
X1846Y829*
X1845Y829*
X1845Y829*
X1844Y830*
X1843Y830*
X1842Y830*
X1842*
X1841Y830*
X1841Y830*
X1840Y829*
X1839Y829*
X1839Y829*
X1838Y828*
X1838Y828*
X1838Y828*
X1838Y828*
X1837Y827*
X1837Y826*
X1837Y826*
X1837Y825*
X1837Y824*
Y807*
Y807*
Y807*
X1836Y806*
X1836Y806*
X1836Y806*
X1836Y806*
X1836Y805*
X1835Y805*
X1835Y805*
X1826*
X1826Y805*
X1826Y805*
X1825Y806*
X1825Y806*
X1825Y806*
X1825Y806*
X1825Y807*
Y850*
Y850*
Y850*
X1825Y851*
X1825Y851*
X1825Y852*
X1825Y852*
X1825Y852*
X1826Y852*
X1826Y852*
X1835*
X1835Y852*
G37*
G36*
X1679Y851D02*
X1680D01*
X1680Y851*
X1681Y851*
X1682Y851*
X1683Y851*
X1685Y851*
X1686Y850*
X1687Y849*
X1687*
X1688Y849*
X1688Y849*
X1688Y849*
X1689Y849*
X1689Y848*
X1690Y847*
X1691Y847*
X1692Y845*
X1693Y844*
Y844*
X1693Y844*
X1693Y844*
X1693Y844*
X1693Y844*
X1693Y843*
X1693Y842*
X1694Y841*
X1694Y840*
X1694Y839*
X1694Y838*
Y838*
Y838*
Y837*
Y837*
X1694Y837*
X1694Y836*
X1694Y835*
X1694Y834*
X1693Y833*
X1693Y832*
X1693Y832*
X1693Y832*
X1692Y832*
X1692Y831*
X1692Y831*
X1691Y830*
X1691Y830*
X1690Y829*
X1690*
X1690Y829*
X1691Y829*
X1691Y829*
X1692Y828*
X1692Y828*
X1693Y827*
X1693Y826*
X1694Y825*
X1694Y825*
X1694Y825*
X1694Y824*
X1694Y824*
X1695Y823*
X1695Y822*
X1695Y821*
X1695Y819*
Y819*
Y819*
Y819*
X1695Y818*
X1695Y818*
X1695Y817*
X1695Y817*
X1695Y816*
X1694Y814*
X1694Y813*
X1693Y813*
X1693Y812*
X1693Y811*
X1692Y810*
X1691Y809*
X1691Y809*
X1691Y809*
X1691Y809*
X1691Y809*
X1690Y808*
X1690Y808*
X1689Y808*
X1688Y807*
X1688Y807*
X1687Y806*
X1686Y806*
X1685Y806*
X1684Y805*
X1682Y805*
X1681Y805*
X1680Y805*
X1657*
X1656Y805*
X1656Y805*
X1656Y806*
X1656Y806*
X1655Y806*
X1655Y806*
X1655Y807*
Y850*
Y850*
Y850*
X1655Y850*
X1655Y851*
X1656Y851*
X1656Y851*
X1656Y851*
X1656Y851*
X1657Y851*
X1679*
X1679Y851*
G37*
G36*
X2168Y840D02*
X2169D01*
X2170Y840*
X2170Y840*
X2171Y840*
X2173Y840*
X2174Y839*
X2176Y838*
X2177Y838*
X2178Y838*
X2178Y838*
X2178Y837*
X2178Y837*
X2178Y837*
X2179Y837*
X2179Y837*
X2180Y836*
X2181Y835*
X2182Y834*
X2183Y832*
X2183Y831*
Y831*
X2184Y831*
X2184Y830*
X2184Y830*
X2184Y830*
X2184Y829*
X2184Y829*
X2184Y828*
X2185Y827*
X2185Y825*
X2185Y824*
X2185Y822*
Y820*
Y820*
Y820*
X2185Y820*
X2185Y819*
X2185Y819*
X2185Y819*
X2184Y819*
X2184Y819*
X2184Y819*
X2161*
Y818*
Y818*
X2162Y818*
X2162Y818*
X2162Y817*
X2162Y816*
X2162Y816*
X2163Y815*
X2163Y815*
X2163Y814*
X2164Y814*
X2164Y814*
X2164Y814*
X2165Y814*
X2166Y813*
X2167Y813*
X2167Y813*
X2168*
X2169Y813*
X2169Y813*
X2169Y813*
X2170Y814*
X2170Y814*
X2171*
X2171Y814*
X2171Y814*
X2171Y814*
X2172Y814*
X2173Y815*
X2173Y815*
X2173Y815*
X2173Y815*
X2173Y815*
X2174Y816*
X2174Y816*
X2174Y816*
X2174Y816*
X2183*
X2184Y816*
X2184Y816*
X2184Y815*
X2184Y815*
X2185Y815*
X2185Y815*
X2185Y814*
Y814*
X2185Y814*
X2185Y814*
X2185Y813*
X2184Y813*
X2184Y812*
X2183Y811*
X2183Y811*
X2183Y810*
X2182Y810*
X2182Y810*
X2181Y809*
X2180Y808*
X2179Y808*
X2178Y807*
X2177Y806*
X2177*
X2177Y806*
X2176Y806*
X2176Y806*
X2176Y806*
X2175Y806*
X2175Y806*
X2174Y805*
X2174Y805*
X2173Y805*
X2172Y805*
X2171Y805*
X2169Y804*
X2167Y804*
X2167*
X2167Y804*
X2166*
X2165Y805*
X2164Y805*
X2164Y805*
X2163Y805*
X2162Y805*
X2160Y806*
X2159Y806*
X2158Y806*
X2157Y807*
X2156Y808*
X2155Y808*
X2154Y809*
X2154Y809*
X2154Y809*
X2154Y810*
X2153Y810*
X2153Y810*
X2153Y811*
X2152Y812*
X2152Y813*
X2151Y813*
X2151Y814*
X2151Y816*
X2150Y817*
X2150Y818*
X2150Y819*
X2150Y821*
X2150Y822*
Y822*
Y823*
Y823*
X2150Y823*
Y824*
X2150Y824*
X2150Y825*
X2150Y825*
X2150Y827*
X2150Y828*
X2151Y830*
X2152Y832*
Y832*
X2152Y832*
X2152Y832*
X2152Y832*
X2152Y833*
X2152Y833*
X2153Y834*
X2154Y835*
X2155Y836*
X2156Y837*
X2158Y838*
X2158Y838*
X2158Y838*
X2158Y838*
X2158Y838*
X2159Y838*
X2159Y839*
X2160Y839*
X2160Y839*
X2161Y839*
X2162Y839*
X2163Y840*
X2164Y840*
X2165Y840*
X2167Y840*
X2168*
X2168Y840*
G37*
G36*
X2047D02*
X2047D01*
X2048Y840*
X2048Y840*
X2049Y840*
X2050Y840*
X2052Y839*
X2053Y839*
X2055Y838*
X2055*
X2055Y838*
X2055Y838*
X2056Y838*
X2056Y838*
X2056Y837*
X2057Y837*
X2058Y836*
X2059Y835*
X2060Y834*
X2061Y833*
X2061Y832*
X2061Y832*
X2061Y832*
X2062Y832*
X2062Y832*
X2062Y831*
X2062Y831*
X2062Y830*
X2063Y829*
X2063Y828*
X2064Y826*
X2064Y825*
Y825*
Y825*
Y825*
X2064Y824*
Y824*
Y823*
Y823*
Y822*
Y822*
Y822*
Y822*
Y821*
Y820*
X2064Y820*
Y820*
Y820*
Y820*
X2064Y819*
Y819*
X2064Y819*
X2064Y818*
X2063Y818*
X2063Y817*
X2063Y816*
X2063Y815*
X2062Y813*
X2061Y812*
Y812*
X2061Y812*
X2061Y812*
X2061Y811*
X2060Y811*
X2060Y810*
X2059Y809*
X2058Y808*
X2056Y807*
X2055Y806*
X2055*
X2055Y806*
X2055Y806*
X2054Y806*
X2054Y806*
X2053Y806*
X2053Y806*
X2052Y805*
X2052Y805*
X2051Y805*
X2049Y805*
X2048Y805*
X2046Y804*
X2045*
X2045Y804*
X2044*
X2044Y805*
X2043Y805*
X2043Y805*
X2041Y805*
X2040Y805*
X2038Y806*
X2036Y806*
X2036*
X2036Y807*
X2036Y807*
X2036Y807*
X2035Y807*
X2035Y807*
X2034Y808*
X2033Y809*
X2032Y810*
X2031Y811*
X2030Y812*
Y812*
X2030Y812*
X2030Y812*
X2030Y813*
X2030Y813*
X2029Y813*
X2029Y814*
X2029Y814*
X2028Y815*
X2028Y817*
X2028Y818*
X2028Y820*
X2028Y822*
X2028Y825*
Y825*
Y825*
X2028Y825*
Y826*
X2028Y826*
X2028Y826*
X2028Y827*
X2028Y827*
X2028Y829*
X2029Y830*
X2029Y831*
X2030Y833*
X2030Y833*
X2030Y833*
X2030Y833*
X2030Y833*
X2031Y834*
X2032Y835*
X2033Y835*
X2034Y836*
X2035Y837*
X2036Y838*
X2036*
X2036Y838*
X2037Y838*
X2037Y838*
X2037Y839*
X2038Y839*
X2038Y839*
X2039Y839*
X2040Y839*
X2040Y840*
X2042Y840*
X2044Y840*
X2046Y840*
X2046*
X2047Y840*
G37*
G36*
X1986D02*
X1987D01*
X1988Y840*
X1988Y840*
X1989Y840*
X1991Y840*
X1992Y839*
X1994Y838*
X1995Y838*
X1996Y838*
X1996Y838*
X1996Y837*
X1996Y837*
X1996Y837*
X1997Y837*
X1997Y837*
X1998Y836*
X1999Y835*
X2000Y834*
X2001Y832*
X2001Y831*
Y831*
X2002Y831*
X2002Y830*
X2002Y830*
X2002Y830*
X2002Y829*
X2002Y829*
X2002Y828*
X2003Y827*
X2003Y825*
X2003Y824*
X2003Y822*
Y820*
Y820*
Y820*
X2003Y820*
X2003Y819*
X2003Y819*
X2003Y819*
X2002Y819*
X2002Y819*
X2002Y819*
X1979*
Y818*
Y818*
X1980Y818*
X1980Y818*
X1980Y817*
X1980Y816*
X1980Y816*
X1981Y815*
X1981Y815*
X1981Y814*
X1982Y814*
X1982Y814*
X1982Y814*
X1983Y814*
X1984Y813*
X1985Y813*
X1985Y813*
X1986*
X1987Y813*
X1987Y813*
X1988Y813*
X1988Y814*
X1988Y814*
X1989*
X1989Y814*
X1989Y814*
X1989Y814*
X1990Y814*
X1991Y815*
X1991Y815*
X1991Y815*
X1991Y815*
X1991Y815*
X1992Y816*
X1992Y816*
X1992Y816*
X1992Y816*
X2001*
X2002Y816*
X2002Y816*
X2002Y815*
X2002Y815*
X2003Y815*
X2003Y815*
X2003Y814*
Y814*
X2003Y814*
X2003Y814*
X2003Y813*
X2002Y813*
X2002Y812*
X2001Y811*
X2001Y811*
X2001Y810*
X2000Y810*
X2000Y810*
X1999Y809*
X1998Y808*
X1997Y808*
X1996Y807*
X1995Y806*
X1995*
X1995Y806*
X1995Y806*
X1994Y806*
X1994Y806*
X1993Y806*
X1993Y806*
X1992Y805*
X1992Y805*
X1991Y805*
X1990Y805*
X1989Y805*
X1987Y804*
X1985Y804*
X1985*
X1985Y804*
X1984*
X1983Y805*
X1982Y805*
X1982Y805*
X1981Y805*
X1980Y805*
X1978Y806*
X1977Y806*
X1976Y806*
X1975Y807*
X1974Y808*
X1973Y808*
X1972Y809*
X1972Y809*
X1972Y809*
X1972Y810*
X1971Y810*
X1971Y810*
X1971Y811*
X1970Y812*
X1970Y813*
X1969Y813*
X1969Y814*
X1969Y816*
X1968Y817*
X1968Y818*
X1968Y819*
X1968Y821*
X1968Y822*
Y822*
Y823*
Y823*
X1968Y823*
Y824*
X1968Y824*
X1968Y825*
X1968Y825*
X1968Y827*
X1968Y828*
X1969Y830*
X1970Y832*
Y832*
X1970Y832*
X1970Y832*
X1970Y832*
X1970Y833*
X1970Y833*
X1971Y834*
X1972Y835*
X1973Y836*
X1974Y837*
X1976Y838*
X1976Y838*
X1976Y838*
X1976Y838*
X1976Y838*
X1977Y838*
X1977Y839*
X1978Y839*
X1978Y839*
X1979Y839*
X1980Y839*
X1981Y840*
X1982Y840*
X1983Y840*
X1985Y840*
X1986*
X1986Y840*
G37*
G36*
X1719D02*
X1719D01*
X1720Y840*
X1721Y840*
X1722Y840*
X1723Y840*
X1725Y839*
X1726Y838*
X1727Y838*
X1728Y838*
X1728Y838*
X1728Y837*
X1728Y837*
X1729Y837*
X1729Y837*
X1729Y837*
X1730Y836*
X1731Y835*
X1732Y834*
X1733Y832*
X1734Y831*
Y831*
X1734Y831*
X1734Y830*
X1734Y830*
X1734Y830*
X1735Y829*
X1735Y829*
X1735Y828*
X1735Y827*
X1736Y825*
X1736Y824*
X1736Y822*
Y820*
Y820*
Y820*
X1736Y820*
X1736Y819*
X1735Y819*
X1735Y819*
X1735Y819*
X1734Y819*
X1734Y819*
X1712*
Y818*
Y818*
X1712Y818*
X1712Y818*
X1712Y817*
X1712Y816*
X1713Y816*
X1713Y815*
X1714Y815*
X1714Y814*
X1714Y814*
X1714Y814*
X1715Y814*
X1715Y814*
X1716Y813*
X1717Y813*
X1718Y813*
X1719*
X1719Y813*
X1719Y813*
X1720Y813*
X1720Y814*
X1721Y814*
X1721*
X1721Y814*
X1721Y814*
X1722Y814*
X1722Y814*
X1723Y815*
X1723Y815*
X1723Y815*
X1723Y815*
X1724Y815*
X1724Y816*
X1724Y816*
X1724Y816*
X1725Y816*
X1734*
X1734Y816*
X1735Y816*
X1735Y815*
X1735Y815*
X1735Y815*
X1735Y815*
X1735Y814*
Y814*
X1735Y814*
X1735Y814*
X1735Y813*
X1735Y813*
X1734Y812*
X1734Y811*
X1733Y811*
X1733Y810*
X1733Y810*
X1732Y810*
X1732Y809*
X1731Y808*
X1730Y808*
X1729Y807*
X1727Y806*
X1727*
X1727Y806*
X1727Y806*
X1727Y806*
X1726Y806*
X1726Y806*
X1725Y806*
X1725Y805*
X1724Y805*
X1723Y805*
X1723Y805*
X1722Y805*
X1720Y804*
X1718Y804*
X1718*
X1717Y804*
X1716*
X1716Y805*
X1715Y805*
X1714Y805*
X1713Y805*
X1712Y805*
X1711Y806*
X1710Y806*
X1709Y806*
X1708Y807*
X1707Y808*
X1706Y808*
X1705Y809*
X1705Y809*
X1704Y809*
X1704Y810*
X1704Y810*
X1704Y810*
X1703Y811*
X1703Y812*
X1702Y813*
X1702Y813*
X1701Y814*
X1701Y816*
X1701Y817*
X1700Y818*
X1700Y819*
X1700Y821*
X1700Y822*
Y822*
Y823*
Y823*
X1700Y823*
Y824*
X1700Y824*
X1700Y825*
X1700Y825*
X1700Y827*
X1701Y828*
X1701Y830*
X1702Y832*
Y832*
X1702Y832*
X1702Y832*
X1702Y832*
X1703Y833*
X1703Y833*
X1704Y834*
X1704Y835*
X1706Y836*
X1707Y837*
X1708Y838*
X1708Y838*
X1708Y838*
X1709Y838*
X1709Y838*
X1709Y838*
X1710Y839*
X1710Y839*
X1711Y839*
X1712Y839*
X1712Y839*
X1713Y840*
X1714Y840*
X1716Y840*
X1718Y840*
X1719*
X1719Y840*
G37*
%LNbenchyeloadpcb-2*%
%LPC*%
G36*
X1867Y1048D02*
X1852D01*
Y936*
X1868*
Y937*
X1869*
Y937*
X1870*
Y938*
X1871*
Y939*
X1871*
Y939*
X1872*
Y940*
X1873*
Y941*
X1873*
Y941*
X1874*
Y942*
X1875*
Y943*
X1875*
Y943*
X1876*
Y944*
X1877*
Y945*
X1877*
Y945*
X1878*
Y946*
X1879*
Y947*
X1881*
Y947*
X1890*
Y947*
X1891*
Y947*
X1891*
Y948*
X1892*
Y949*
X1893*
Y950*
X1893*
Y951*
X1894*
Y951*
X1913*
Y952*
X1914*
Y953*
X1913*
Y963*
X1914*
Y965*
X1913*
Y965*
X1913*
Y966*
X1893*
Y967*
X1893*
Y967*
X1892*
Y969*
X1891*
Y970*
X1879*
Y969*
X1879*
Y967*
X1878*
Y967*
X1877*
Y965*
X1877*
Y964*
X1876*
Y963*
X1875*
Y963*
X1873*
Y962*
X1873*
Y961*
X1871*
Y961*
X1867*
Y960*
X1866*
Y961*
X1864*
Y961*
X1862*
Y962*
X1861*
Y963*
X1860*
Y963*
X1859*
Y964*
X1858*
Y965*
X1858*
Y965*
X1857*
Y966*
X1856*
Y967*
X1856*
Y969*
X1855*
Y976*
X1856*
Y979*
X1856*
Y979*
X1857*
Y981*
X1858*
Y981*
X1858*
Y982*
X1859*
Y983*
X1860*
Y983*
X1861*
Y984*
X1862*
Y985*
X1864*
Y985*
X1870*
Y985*
X1873*
Y984*
X1874*
Y983*
X1875*
Y983*
X1875*
Y982*
X1876*
Y981*
X1877*
Y981*
X1877*
Y980*
X1878*
Y979*
X1879*
Y978*
X1879*
Y976*
X1891*
Y977*
X1892*
Y979*
X1893*
Y980*
X1895*
Y981*
X1913*
Y981*
X1913*
Y983*
X1914*
Y984*
X1913*
Y992*
X1914*
Y993*
X1913*
Y994*
X1913*
Y994*
X1893*
Y995*
X1893*
Y996*
X1892*
Y999*
X1883*
Y1000*
X1882*
Y1000*
X1881*
Y1001*
X1881*
Y1002*
X1880*
Y1002*
X1879*
Y1003*
X1879*
Y1004*
X1878*
Y1004*
X1877*
Y1005*
X1877*
Y1006*
X1876*
Y1006*
X1875*
Y1007*
X1875*
Y1008*
X1874*
Y1008*
X1873*
Y1009*
X1873*
Y1010*
X1872*
Y1010*
X1871*
Y1011*
X1871*
Y1012*
X1870*
Y1012*
X1869*
Y1013*
X1869*
Y1014*
X1868*
Y1016*
X1867*
Y1048*
X1867*
Y1048*
G37*
G36*
X1868Y979D02*
X1866D01*
Y979*
X1864*
Y978*
X1864*
Y977*
X1862*
Y976*
X1862*
Y974*
X1861*
Y971*
X1862*
Y971*
Y970*
X1862*
Y969*
X1863*
Y969*
X1864*
Y967*
X1866*
Y967*
X1867*
Y966*
X1867*
Y967*
X1869*
Y967*
X1871*
Y968*
X1871*
Y969*
X1872*
Y969*
X1873*
Y972*
X1873*
Y973*
X1874*
Y973*
X1873*
Y975*
X1873*
Y977*
X1871*
Y977*
X1871*
Y978*
X1870*
Y979*
X1868*
Y979*
G37*
G36*
X1985Y1008D02*
X1934D01*
Y1007*
X1933*
Y945*
Y944*
Y911*
X1934*
Y910*
X1935*
Y911*
X1983*
Y910*
X1984*
Y911*
X1987*
Y912*
X1989*
Y912*
X1990*
Y913*
X1992*
Y915*
X1980*
Y916*
X1980*
Y916*
X1979*
Y917*
X1978*
Y918*
X1978*
Y919*
X1977*
Y920*
X1976*
Y920*
X1976*
Y922*
X1975*
Y922*
X1974*
Y923*
X1974*
Y924*
X1973*
Y925*
X1972*
Y926*
X1970*
Y924*
X1969*
Y924*
X1968*
Y922*
X1968*
Y922*
X1967*
Y921*
X1966*
Y920*
X1966*
Y919*
X1965*
Y918*
X1964*
Y918*
X1964*
Y917*
X1963*
Y916*
X1962*
Y915*
X1945*
Y916*
X1944*
Y919*
X1945*
Y920*
X1946*
Y920*
X1946*
Y921*
X1947*
Y922*
X1948*
Y923*
X1948*
Y924*
X1949*
Y924*
X1950*
Y925*
X1950*
Y926*
X1951*
Y927*
X1952*
Y928*
X1952*
Y928*
X1953*
Y930*
X1954*
Y930*
X1954*
Y931*
X1955*
Y932*
X1956*
Y934*
X1957*
Y935*
X1958*
Y936*
X1958*
Y936*
X1959*
Y937*
X1960*
Y937*
X1960*
Y941*
X1959*
Y942*
X1958*
Y943*
X1958*
Y944*
X1957*
Y945*
X1956*
Y945*
X1956*
Y947*
X1955*
Y947*
X1954*
Y949*
X1954*
Y949*
X1953*
Y950*
X1952*
Y951*
X1952*
Y952*
X1951*
Y953*
X1950*
Y953*
X1950*
Y954*
X1949*
Y955*
X1948*
Y956*
X1948*
Y957*
X1947*
Y958*
X1946*
Y959*
X1946*
Y960*
X1945*
Y961*
X1944*
Y961*
X1945*
Y962*
X1946*
Y963*
X1946*
Y963*
X1962*
Y963*
X1963*
Y962*
X1964*
Y961*
X1964*
Y961*
X1965*
Y960*
X1966*
Y959*
X1966*
Y958*
X1967*
Y957*
X1968*
Y957*
X1968*
Y955*
X1969*
Y955*
X1970*
Y953*
X1970*
Y953*
X1972*
Y953*
X1973*
Y955*
X1974*
Y955*
X1974*
Y956*
X1975*
Y957*
X1976*
Y958*
X1976*
Y959*
X1977*
Y959*
X1978*
Y961*
X1978*
Y961*
X1979*
Y962*
X1980*
Y963*
X1981*
Y963*
X1996*
Y963*
X1997*
Y962*
X1998*
Y960*
X1997*
Y959*
X1997*
Y958*
X1996*
Y957*
X1995*
Y957*
X1995*
Y955*
X1994*
Y955*
X1993*
Y953*
X1992*
Y953*
X1991*
Y951*
X1991*
Y951*
X1990*
Y950*
X1989*
Y949*
X1989*
Y947*
X1988*
Y947*
X1987*
Y946*
X1987*
Y945*
X1986*
Y945*
X1985*
Y943*
X1985*
Y943*
X1984*
Y942*
X1983*
Y941*
X1983*
Y940*
X1982*
Y937*
X1983*
Y937*
X1983*
Y936*
X1984*
Y936*
X1985*
Y935*
X1985*
Y933*
X1986*
Y932*
X1987*
Y932*
X1987*
Y931*
X1988*
Y930*
X1989*
Y929*
X1989*
Y928*
X1990*
Y928*
X1991*
Y927*
X1991*
Y926*
X1992*
Y925*
X1993*
Y924*
X1993*
Y924*
X1994*
Y922*
X1995*
Y922*
X1995*
Y921*
X1996*
Y920*
X1997*
Y920*
X1998*
Y920*
X1999*
Y922*
X1999*
Y922*
X2000*
Y924*
X2001*
Y925*
X2001*
Y926*
X2002*
Y928*
X2003*
Y929*
X2003*
Y931*
X2004*
Y932*
X2005*
Y936*
X2005*
Y938*
X2006*
Y941*
X2007*
Y943*
X2007*
Y947*
X2008*
Y971*
X2007*
Y975*
X2007*
Y977*
X2006*
Y981*
X2005*
Y983*
X2005*
Y987*
X2004*
Y987*
X2003*
Y990*
X2003*
Y991*
X2002*
Y993*
X2001*
Y994*
X2001*
Y994*
X2000*
Y996*
X1999*
Y996*
X1999*
Y998*
X1998*
Y999*
X1997*
Y1000*
X1997*
Y1000*
X1996*
Y1001*
X1995*
Y1002*
X1995*
Y1002*
X1994*
Y1003*
X1993*
Y1004*
X1993*
Y1004*
X1992*
Y1005*
X1991*
Y1006*
X1989*
Y1006*
X1989*
Y1007*
X1985*
Y1008*
G37*
G36*
X2033Y1048D02*
X1874D01*
Y1048*
X1873*
Y1018*
X1874*
Y1016*
X1875*
Y1016*
X1876*
Y1015*
X1877*
Y1014*
X1877*
Y1014*
X1878*
Y1013*
X1879*
Y1012*
X1879*
Y1012*
X1880*
Y1011*
X1881*
Y1010*
X1881*
Y1010*
X1882*
Y1009*
X1883*
Y1008*
X1883*
Y1008*
X1884*
Y1007*
X1885*
Y1006*
X1885*
Y1006*
X1886*
Y1005*
X1891*
Y1006*
X1892*
Y1008*
X1893*
Y1008*
X1894*
Y1009*
X1913*
Y1010*
X1913*
Y1011*
X1914*
Y1012*
X1913*
Y1018*
X1914*
Y1018*
X1913*
Y1020*
X1914*
Y1022*
X1915*
Y1023*
X1915*
Y1024*
X1916*
Y1024*
X1917*
Y1025*
X1917*
Y1026*
X1919*
Y1026*
X1920*
Y1027*
X1921*
Y1028*
X1989*
Y1027*
X1989*
Y1026*
X1993*
Y1026*
X1995*
Y1025*
X1996*
Y1024*
X1999*
Y1024*
X1999*
Y1023*
X2001*
Y1022*
X2002*
Y1022*
X2003*
Y1021*
X2004*
Y1020*
X2005*
Y1020*
X2006*
Y1019*
X2007*
Y1018*
X2007*
Y1018*
X2008*
Y1017*
X2009*
Y1016*
X2009*
Y1016*
X2010*
Y1015*
X2011*
Y1014*
X2011*
Y1014*
X2012*
Y1013*
X2013*
Y1012*
X2013*
Y1011*
X2014*
Y1010*
X2015*
Y1009*
X2015*
Y1008*
X2016*
Y1007*
X2017*
Y1006*
X2017*
Y1004*
X2018*
Y1004*
X2019*
Y1002*
X2019*
Y1001*
X2020*
Y999*
X2021*
Y998*
X2021*
Y996*
X2022*
Y994*
X2023*
Y993*
X2023*
Y991*
X2024*
Y989*
X2025*
Y986*
X2025*
Y983*
X2026*
Y979*
X2027*
Y973*
X2027*
Y945*
X2027*
Y940*
X2026*
Y936*
X2025*
Y932*
X2025*
Y930*
X2024*
Y928*
X2023*
Y926*
X2023*
Y924*
X2022*
Y922*
X2021*
Y921*
X2021*
Y920*
X2020*
Y918*
X2019*
Y916*
X2019*
Y915*
X2018*
Y914*
X2017*
Y912*
X2017*
Y912*
X2016*
Y910*
X2015*
Y910*
X2015*
Y909*
X2014*
Y908*
X2013*
Y906*
X2013*
Y906*
X2012*
Y905*
X2011*
Y904*
X2011*
Y904*
X2010*
Y903*
X2009*
Y902*
X2009*
Y902*
X2008*
Y901*
X2007*
Y900*
X2007*
Y900*
X2006*
Y899*
X2005*
Y898*
X2004*
Y898*
X2003*
Y897*
X2002*
Y896*
X2001*
Y896*
X2000*
Y895*
X1999*
Y894*
X1997*
Y894*
X1995*
Y893*
X1995*
Y892*
X1991*
Y892*
X1989*
Y891*
X1921*
Y892*
X1920*
Y892*
X1918*
Y893*
X1917*
Y894*
X1917*
Y894*
X1916*
Y895*
X1915*
Y896*
X1915*
Y896*
X1914*
Y898*
X1913*
Y900*
X1914*
Y900*
X1913*
Y905*
X1914*
Y906*
X1913*
Y908*
X1894*
Y908*
X1893*
Y909*
X1892*
Y912*
X1887*
Y911*
X1887*
Y910*
X1886*
Y910*
X1885*
Y909*
X1885*
Y908*
X1884*
Y908*
X1883*
Y907*
X1883*
Y906*
X1882*
Y906*
X1881*
Y905*
X1881*
Y904*
X1880*
Y904*
X1879*
Y903*
X1879*
Y902*
X1877*
Y901*
X1877*
Y894*
X1877*
Y893*
X1879*
Y892*
X1880*
Y892*
X1881*
Y891*
X1882*
Y890*
X1883*
Y890*
X1883*
Y889*
X1884*
Y888*
X1885*
Y887*
X1885*
Y884*
X1886*
Y878*
X1885*
Y875*
X1885*
Y875*
X1884*
Y873*
X1883*
Y873*
X1883*
Y872*
X1882*
Y871*
X1881*
Y871*
X1880*
Y870*
X1878*
Y869*
X1869*
Y870*
X1868*
Y871*
X1867*
Y871*
X1866*
Y872*
X1866*
Y873*
X1865*
Y873*
X1864*
Y874*
X1864*
Y875*
X1863*
Y875*
X1862*
Y877*
X1862*
Y880*
X1861*
Y882*
X1862*
Y884*
X1862*
Y884*
X1862*
Y886*
X1862*
Y887*
X1863*
Y888*
X1864*
Y889*
X1864*
Y890*
X1865*
Y890*
X1866*
Y891*
X1867*
Y892*
X1867*
Y892*
X1869*
Y893*
X1870*
Y894*
X1871*
Y904*
X1871*
Y905*
X1872*
Y906*
X1873*
Y906*
X1873*
Y907*
X1874*
Y908*
X1875*
Y908*
X1875*
Y909*
X1876*
Y910*
X1877*
Y910*
X1877*
Y911*
X1878*
Y912*
X1879*
Y912*
X1879*
Y913*
X1880*
Y914*
X1881*
Y914*
X1881*
Y915*
X1882*
Y916*
X1883*
Y916*
X1883*
Y917*
X1884*
Y918*
X1885*
Y918*
X1886*
Y918*
X1891*
Y918*
X1892*
Y921*
X1893*
Y922*
X1893*
Y922*
X1894*
Y923*
X1913*
Y924*
X1914*
Y925*
X1913*
Y934*
X1914*
Y934*
X1913*
Y936*
X1911*
Y937*
X1911*
Y936*
X1896*
Y937*
X1893*
Y937*
X1893*
Y938*
X1892*
Y941*
X1891*
Y941*
X1883*
Y941*
X1882*
Y940*
X1881*
Y939*
X1881*
Y939*
X1880*
Y938*
X1879*
Y937*
X1879*
Y937*
X1878*
Y936*
X1877*
Y936*
X1877*
Y935*
X1876*
Y934*
X1875*
Y934*
X1875*
Y933*
X1874*
Y932*
X1873*
Y932*
X1872*
Y931*
X1869*
Y930*
X1853*
Y930*
X1852*
Y867*
X2033*
Y1048*
G37*
G36*
X1877Y887D02*
X1871D01*
Y886*
X1870*
Y886*
X1869*
Y885*
X1869*
Y884*
X1868*
Y882*
X1867*
Y880*
X1868*
Y879*
X1869*
Y878*
X1869*
Y877*
X1870*
Y877*
X1871*
Y876*
X1871*
Y875*
X1877*
Y876*
X1877*
Y877*
X1878*
Y877*
X1879*
Y878*
X1879*
Y879*
X1880*
Y883*
X1879*
Y884*
X1879*
Y885*
X1878*
Y886*
X1877*
Y886*
X1877*
Y887*
G37*
G36*
X2180Y768D02*
X2180D01*
X2179Y768*
X2179Y768*
X2178Y768*
X2177Y768*
X2177Y767*
X2176Y767*
X2176Y767*
X2176Y766*
X2176Y766*
X2175Y766*
X2175Y765*
X2175Y764*
X2174Y763*
X2174Y762*
Y762*
Y762*
Y762*
Y762*
X2174Y762*
Y761*
Y761*
Y761*
Y760*
Y760*
Y760*
Y759*
X2174Y759*
Y759*
Y759*
X2174Y758*
X2174Y758*
X2175Y757*
X2175Y757*
X2175Y756*
X2175Y755*
X2176Y755*
X2176Y754*
X2176Y754*
X2177Y754*
X2177Y754*
X2178Y753*
X2178Y753*
X2179Y753*
X2180Y753*
X2181*
X2181Y753*
X2182Y753*
X2183Y753*
X2183Y754*
X2184Y754*
X2184Y754*
X2184Y755*
X2185Y755*
X2185Y755*
X2185Y756*
X2186Y756*
X2186Y757*
X2186Y757*
X2186Y758*
Y758*
Y758*
X2186Y759*
Y759*
Y759*
X2186Y760*
Y760*
Y761*
Y761*
Y761*
Y761*
Y761*
X2186Y762*
Y763*
X2186Y763*
Y763*
X2186Y763*
X2186Y764*
X2186Y764*
X2186Y765*
X2185Y765*
X2185Y766*
X2184Y767*
X2184Y767*
X2184Y767*
X2184Y767*
X2183Y767*
X2183Y768*
X2182Y768*
X2181Y768*
X2180Y768*
G37*
G36*
X2144Y758D02*
X2138Y757D01*
X2138*
X2138Y757*
X2138Y757*
X2137Y757*
X2136Y756*
X2136Y756*
X2135Y756*
X2135Y756*
X2135Y756*
X2135Y756*
X2135Y755*
X2135Y755*
X2135Y755*
X2134Y754*
X2134Y754*
Y754*
X2134Y754*
X2135Y753*
X2135Y753*
X2135Y752*
X2135Y752*
X2136Y752*
X2136Y752*
X2137Y752*
X2137Y752*
X2138Y752*
X2138*
X2138Y752*
X2139Y752*
X2139Y752*
X2140Y752*
X2141Y752*
X2142Y753*
X2142Y753*
X2143Y754*
X2143Y754*
X2143Y754*
X2143Y755*
X2144Y755*
X2144Y756*
X2144Y757*
X2144Y758*
G37*
G36*
X2100Y768D02*
X2100D01*
X2099Y768*
X2099Y768*
X2098Y768*
X2097Y768*
X2097Y767*
X2096Y767*
X2096Y767*
X2096Y767*
X2096Y766*
X2095Y766*
X2095Y765*
X2095Y765*
X2094Y764*
X2094Y763*
Y763*
Y763*
Y763*
Y762*
X2094Y762*
Y762*
Y761*
Y761*
Y761*
Y760*
Y760*
Y760*
Y759*
X2094Y759*
Y758*
Y758*
X2094Y758*
X2094Y757*
X2095Y757*
X2095Y756*
X2095Y756*
X2096Y755*
X2096Y754*
X2096Y754*
X2096Y754*
X2097Y754*
X2097Y754*
X2098Y753*
X2099Y753*
X2099Y753*
X2100Y753*
X2101*
X2101Y753*
X2102Y753*
X2103Y753*
X2103Y754*
X2104Y754*
X2105Y754*
X2105Y754*
X2105Y755*
X2105Y755*
X2106Y755*
X2106Y756*
X2106Y757*
X2106Y757*
X2107Y758*
Y758*
Y759*
X2107Y759*
Y759*
X2107Y760*
Y761*
Y761*
Y761*
Y761*
Y761*
Y762*
X2107Y762*
X2107Y763*
Y763*
Y763*
X2106Y763*
X2106Y764*
X2106Y764*
X2106Y765*
X2106Y766*
X2105Y766*
X2105Y767*
X2105Y767*
X2104Y767*
X2104Y767*
X2104Y767*
X2103Y768*
X2102Y768*
X2101Y768*
X2100Y768*
G37*
G36*
X1903D02*
X1903D01*
X1902Y768*
X1901Y768*
X1901Y768*
X1900Y768*
X1899Y767*
X1899Y767*
X1899Y767*
X1898Y767*
X1898Y766*
X1898Y766*
X1898Y765*
X1897Y765*
X1897Y764*
X1897Y763*
Y763*
Y763*
Y763*
Y762*
X1897Y762*
Y762*
Y761*
Y761*
Y761*
Y760*
Y760*
Y760*
Y759*
X1897Y759*
Y758*
Y758*
X1897Y758*
X1897Y757*
X1897Y757*
X1897Y756*
X1898Y756*
X1898Y755*
X1899Y754*
X1899Y754*
X1899Y754*
X1899Y754*
X1900Y754*
X1901Y753*
X1901Y753*
X1902Y753*
X1903Y753*
X1903*
X1904Y753*
X1905Y753*
X1905Y753*
X1906Y754*
X1907Y754*
X1907Y754*
X1907Y754*
X1908Y755*
X1908Y755*
X1908Y755*
X1908Y756*
X1909Y757*
X1909Y757*
X1909Y758*
Y758*
Y759*
X1909Y759*
Y759*
X1909Y760*
Y761*
Y761*
Y761*
Y761*
Y761*
Y762*
X1909Y762*
X1909Y763*
Y763*
Y763*
X1909Y763*
X1909Y764*
X1909Y764*
X1909Y765*
X1908Y766*
X1908Y766*
X1907Y767*
X1907Y767*
X1907Y767*
X1907Y767*
X1906Y767*
X1906Y768*
X1905Y768*
X1904Y768*
X1903Y768*
G37*
G36*
X1761Y770D02*
X1760D01*
X1760Y769*
X1759Y769*
X1758Y769*
X1758Y769*
X1757Y768*
X1756Y768*
X1756Y768*
X1756Y768*
X1756Y767*
X1756Y767*
X1755Y766*
X1755Y766*
X1755Y765*
X1755Y764*
X1767*
Y764*
X1766Y765*
X1766Y765*
X1766Y765*
X1766Y766*
X1766Y767*
X1765Y767*
X1765Y768*
X1765Y768*
X1764Y768*
X1764Y768*
X1764Y769*
X1763Y769*
X1762Y769*
X1761Y769*
X1761Y770*
G37*
G36*
X1694Y725D02*
X1685D01*
Y713*
X1694*
X1694Y713*
X1695Y713*
X1695Y713*
X1696Y713*
X1697Y713*
X1698Y714*
X1698Y714*
X1699Y714*
X1700Y715*
X1700Y715*
X1701Y716*
X1701Y717*
X1701Y718*
X1701Y718*
Y719*
Y719*
Y719*
Y719*
X1701Y719*
Y720*
X1701Y720*
X1701Y721*
X1701Y721*
X1700Y722*
X1700Y723*
X1700Y723*
X1699Y723*
X1699*
X1699Y723*
X1699Y724*
X1699Y724*
X1699Y724*
X1699Y724*
X1698Y724*
X1698Y724*
X1698Y724*
X1697Y724*
X1697Y724*
X1696Y725*
X1696Y725*
X1695Y725*
X1694Y725*
G37*
G36*
X2208Y830D02*
X2207D01*
X2207Y830*
X2206Y830*
X2206Y830*
X2205Y829*
X2204Y829*
X2204Y828*
X2204Y828*
X2203Y828*
X2203Y828*
X2203Y827*
X2203Y827*
X2202Y826*
X2202Y825*
X2202Y824*
Y824*
Y824*
Y824*
Y824*
X2202Y823*
Y823*
Y822*
Y822*
Y822*
Y822*
Y822*
Y821*
X2202Y820*
Y820*
Y820*
X2202Y820*
X2202Y820*
X2202Y819*
X2202Y818*
X2203Y818*
X2203Y817*
X2204Y816*
X2204Y816*
X2204Y816*
X2204Y816*
X2205Y816*
X2205Y815*
X2206Y815*
X2207Y815*
X2208Y815*
X2208*
X2209Y815*
X2209Y815*
X2210Y815*
X2211Y815*
X2211Y816*
X2212Y816*
X2212Y816*
X2212Y816*
X2213Y817*
X2213Y817*
X2213Y818*
X2213Y818*
X2214Y819*
X2214Y820*
Y820*
Y820*
X2214Y820*
Y821*
Y821*
X2214Y821*
Y822*
Y822*
Y822*
Y823*
Y823*
Y823*
X2214Y824*
Y824*
X2214Y825*
Y825*
X2214Y825*
X2214Y825*
X2214Y826*
X2213Y826*
X2213Y827*
X2213Y828*
X2212Y828*
X2212Y828*
X2212Y829*
X2211Y829*
X2211Y829*
X2210Y829*
X2210Y830*
X2209Y830*
X2208Y830*
G37*
G36*
X2126D02*
X2125D01*
X2125Y830*
X2124Y830*
X2123Y830*
X2123Y829*
X2122Y829*
X2121Y828*
X2121Y828*
X2121Y828*
X2121Y828*
X2121Y827*
X2120Y827*
X2120Y826*
X2120Y825*
X2120Y824*
Y824*
Y824*
Y824*
Y824*
X2120Y823*
Y823*
Y822*
Y822*
Y822*
Y822*
Y822*
Y821*
X2120Y820*
Y820*
Y820*
X2120Y820*
X2120Y820*
X2120Y819*
X2120Y818*
X2120Y818*
X2121Y817*
X2121Y816*
X2121Y816*
X2122Y816*
X2122Y816*
X2122Y816*
X2123Y815*
X2124Y815*
X2125Y815*
X2126Y815*
X2126*
X2127Y815*
X2127Y815*
X2128Y815*
X2128Y815*
X2129Y816*
X2130Y816*
X2130Y816*
X2130Y816*
X2130Y817*
X2130Y817*
X2131Y818*
X2131Y818*
X2131Y819*
X2131Y820*
Y820*
Y820*
X2132Y820*
Y821*
Y821*
X2132Y821*
Y822*
Y822*
Y822*
Y823*
Y823*
Y823*
X2132Y824*
Y824*
X2131Y825*
Y825*
X2131Y825*
X2131Y825*
X2131Y826*
X2131Y826*
X2131Y827*
X2130Y828*
X2130Y828*
X2130Y828*
X2129Y829*
X2129Y829*
X2129Y829*
X2128Y829*
X2127Y830*
X2127Y830*
X2126Y830*
G37*
G36*
X2090Y820D02*
X2084Y819D01*
X2084*
X2083Y819*
X2083Y819*
X2083Y819*
X2082Y818*
X2081Y818*
X2081Y818*
X2081Y818*
X2080Y817*
X2080Y817*
X2080Y817*
X2080Y817*
X2080Y816*
X2080Y816*
X2080Y816*
Y816*
X2080Y815*
X2080Y815*
X2080Y814*
X2080Y814*
X2081Y814*
X2081Y814*
X2081Y814*
X2082Y813*
X2082Y813*
X2083Y813*
X2083*
X2083Y813*
X2084Y813*
X2085Y814*
X2085Y814*
X2086Y814*
X2087Y815*
X2088Y815*
X2088Y815*
X2088Y816*
X2088Y816*
X2089Y816*
X2089Y817*
X2089Y818*
X2090Y819*
X2090Y820*
G37*
G36*
X1944Y841D02*
X1936D01*
Y831*
X1944*
X1944Y831*
X1945*
X1945Y832*
X1946Y832*
X1946Y832*
X1947Y832*
X1947Y832*
X1948Y833*
X1948Y833*
X1949Y833*
X1949Y834*
X1950Y835*
X1950Y835*
X1950Y836*
Y836*
Y837*
X1950Y837*
X1950Y837*
X1950Y837*
X1950Y838*
X1949Y838*
X1949Y839*
X1949Y839*
X1948Y840*
X1948Y840*
X1947Y840*
X1947Y841*
X1946Y841*
X1945Y841*
X1944Y841*
G37*
G36*
X1678D02*
X1667D01*
Y834*
X1678*
X1678Y834*
X1679Y834*
X1679Y834*
X1680Y834*
X1680Y834*
X1681Y835*
X1681Y835*
X1681Y835*
X1681Y835*
X1681Y835*
X1681Y836*
X1682Y836*
X1682Y837*
X1682Y837*
Y837*
Y838*
X1682Y838*
X1682Y838*
X1681Y839*
X1681Y839*
X1681Y840*
X1681Y840*
X1681Y840*
X1681Y840*
X1680Y841*
X1680Y841*
X1680Y841*
X1679Y841*
X1678Y841*
X1678Y841*
G37*
G36*
X1678Y823D02*
X1667D01*
Y815*
X1679*
X1679Y815*
X1680Y816*
X1680Y816*
X1681Y816*
X1681Y816*
X1682Y816*
X1682Y816*
X1682Y817*
X1682Y817*
X1682Y817*
X1682Y818*
X1683Y818*
X1683Y819*
X1683Y819*
Y819*
Y820*
X1683Y820*
X1683Y820*
X1682Y821*
X1682Y821*
X1682Y822*
X1682Y822*
X1681Y822*
X1681Y822*
X1681Y823*
X1681Y823*
X1680Y823*
X1680Y823*
X1679Y823*
X1678Y823*
G37*
G36*
X2167Y831D02*
X2167D01*
X2166Y831*
X2166Y831*
X2165Y831*
X2165Y831*
X2164Y830*
X2163Y830*
X2163Y830*
X2163Y829*
X2163Y829*
X2162Y829*
X2162Y828*
X2162Y827*
X2162Y827*
X2161Y826*
X2173*
Y826*
X2173Y826*
X2173Y827*
X2173Y827*
X2173Y828*
X2173Y828*
X2172Y829*
X2172Y830*
X2171Y830*
X2171Y830*
X2171Y830*
X2170Y830*
X2170Y831*
X2169Y831*
X2168Y831*
X2167Y831*
G37*
G36*
X2046Y830D02*
X2045D01*
X2045Y830*
X2044Y830*
X2043Y830*
X2043Y829*
X2042Y829*
X2041Y829*
X2041Y828*
X2041Y828*
X2041Y828*
X2041Y827*
X2040Y827*
X2040Y826*
X2040Y825*
X2040Y825*
Y825*
Y824*
Y824*
Y824*
X2039Y824*
Y823*
Y823*
Y822*
Y822*
Y822*
Y822*
Y821*
Y821*
X2040Y820*
Y820*
Y820*
X2040Y820*
X2040Y819*
X2040Y819*
X2040Y818*
X2040Y817*
X2041Y817*
X2041Y816*
X2041Y816*
X2042Y816*
X2042Y816*
X2042Y815*
X2043Y815*
X2044Y815*
X2045Y815*
X2046Y815*
X2046*
X2047Y815*
X2047Y815*
X2048Y815*
X2049Y815*
X2049Y816*
X2050Y816*
X2050Y816*
X2050Y816*
X2050Y817*
X2051Y817*
X2051Y818*
X2051Y818*
X2052Y819*
X2052Y820*
Y820*
Y820*
X2052Y821*
Y821*
X2052Y822*
Y822*
Y822*
Y822*
Y823*
Y823*
Y823*
X2052Y824*
X2052Y825*
Y825*
Y825*
X2052Y825*
X2052Y825*
X2051Y826*
X2051Y827*
X2051Y827*
X2050Y828*
X2050Y829*
X2050Y829*
X2050Y829*
X2049Y829*
X2049Y829*
X2048Y829*
X2047Y830*
X2047Y830*
X2046Y830*
G37*
G36*
X1985Y831D02*
X1985D01*
X1985Y831*
X1984Y831*
X1983Y831*
X1983Y831*
X1982Y830*
X1981Y830*
X1981Y830*
X1981Y829*
X1981Y829*
X1980Y829*
X1980Y828*
X1980Y827*
X1980Y827*
X1979Y826*
X1991*
Y826*
X1991Y826*
X1991Y827*
X1991Y827*
X1991Y828*
X1991Y828*
X1990Y829*
X1990Y830*
X1989Y830*
X1989Y830*
X1989Y830*
X1988Y830*
X1988Y831*
X1987Y831*
X1986Y831*
X1985Y831*
G37*
G36*
X1718D02*
X1717D01*
X1717Y831*
X1716Y831*
X1716Y831*
X1715Y831*
X1714Y830*
X1714Y830*
X1714Y830*
X1713Y829*
X1713Y829*
X1713Y829*
X1713Y828*
X1712Y827*
X1712Y827*
X1712Y826*
X1724*
Y826*
X1724Y826*
X1724Y827*
X1724Y827*
X1723Y828*
X1723Y828*
X1723Y829*
X1722Y830*
X1722Y830*
X1722Y830*
X1721Y830*
X1721Y830*
X1720Y831*
X1720Y831*
X1719Y831*
X1718Y831*
G37*
%LNbenchyeloadpcb-3*%
%LPD*%
G54D10*
X470Y228D02*
X541D01*
X470Y433D02*
Y207D01*
X600D02*
Y228D01*
X966Y433D02*
Y207D01*
X500Y403D02*
X718D01*
X470Y287D02*
X500D01*
X470Y433D02*
X966D01*
X937Y287D02*
X966D01*
X500Y403D02*
Y287D01*
X937D02*
Y403D01*
X541Y207D02*
Y228D01*
X895D02*
X966D01*
X978Y236D02*
Y207D01*
X895Y228D02*
Y207D01*
X966Y228D02*
Y207D01*
X403Y572D02*
X836D01*
X303Y748D02*
X620D01*
X978Y531D02*
Y580D01*
X937Y631D02*
Y748D01*
X966Y543D02*
Y572D01*
X273Y777D02*
X966D01*
X303Y631D02*
Y748D01*
X966Y542D02*
Y777D01*
X273Y542D02*
X966D01*
X929Y531D02*
X978D01*
X895Y543D02*
X966D01*
X273Y542D02*
Y777D01*
X836Y543D02*
Y572D01*
X273Y543D02*
X344D01*
Y572*
X273Y631D02*
X303D01*
X937D02*
X966D01*
X403Y543D02*
X836D01*
X1869Y214D02*
X2104D01*
X2074Y482D02*
X2104D01*
X2074Y344D02*
Y482D01*
Y541D02*
Y612D01*
Y541D02*
X2104D01*
X2015Y582D02*
Y612D01*
X1869Y612D02*
X2104D01*
X2074Y214D02*
Y285D01*
X1899Y582D02*
X2015D01*
X1869Y214D02*
Y612D01*
X558Y1228D02*
Y1307D01*
X646Y1228D02*
Y1307D01*
Y1293D02*
X654Y1298D01*
X646Y1307D02*
X654Y1298D01*
X2861Y1478D02*
X2870Y1485D01*
X2807D02*
X2870D01*
X2066Y624D02*
X2116D01*
X2856Y1485D02*
X2861Y1478D01*
X2807Y1608D02*
X2870D01*
X1899Y244D02*
Y413D01*
X2104Y541D02*
Y612D01*
Y214D02*
Y285D01*
X718Y403D02*
X937D01*
X470Y207D02*
Y228D01*
X836Y207D02*
Y228D01*
X600D02*
X836D01*
X2074Y285D02*
X2104D01*
X2074Y612D02*
X2104D01*
X2104Y214D02*
Y612D01*
X2074Y344D02*
X2104D01*
X1899Y413D02*
Y582D01*
X2116Y574D02*
Y624D01*
X1899Y244D02*
X2015D01*
Y214*
X2074D02*
X2104D01*
Y344D02*
Y482D01*
X712Y1122D02*
X775D01*
X685Y1248D02*
X775D01*
X752Y1295D02*
X759Y1295D01*
X752Y1263D02*
X759D01*
X693Y1255D02*
X698Y1248D01*
X685D02*
X693Y1255D01*
X1480Y1042D02*
X1492D01*
X1642Y413D02*
X1656D01*
X1501Y1122D02*
Y1338D01*
X491Y1260D02*
Y1275D01*
X1642Y381D02*
X1656D01*
X1372Y1338D02*
X1501D01*
X1588Y1042D02*
X1600D01*
X1479Y1004D02*
X1493D01*
X1372Y1122D02*
Y1338D01*
X1587Y1004D02*
X1601D01*
X1001Y1119D02*
X1006Y1112D01*
X952Y1242D02*
X1015D01*
X1006Y1112D02*
X1015Y1119D01*
X952D02*
X1015D01*
X1083Y739D02*
Y756D01*
X1262Y739D02*
Y756D01*
X1130Y683D02*
X1215D01*
X1131Y812D02*
X1215D01*
X1139Y819D02*
X1144Y812D01*
X1043Y365D02*
X1053Y376D01*
X1043Y365D02*
X1100D01*
X1131Y812D02*
X1139Y819D01*
X1053Y376D02*
X1058Y365D01*
X1527Y1064D02*
Y1336D01*
X895Y543D02*
Y572D01*
X620Y748D02*
X937D01*
X403Y543D02*
Y572D01*
X273Y543D02*
Y572D01*
X895D02*
X966D01*
X2311Y1064D02*
Y1336D01*
X1527Y1064D02*
X2311D01*
X273Y572D02*
X344D01*
X1527Y1336D02*
X2311D01*
X1235Y290D02*
Y303D01*
X1179Y566D02*
X1235D01*
X540Y1260D02*
Y1275D01*
X1507Y290D02*
X1520D01*
X1179Y566D02*
X1187Y574D01*
X1235Y290D02*
X1248D01*
X1042Y233D02*
X1100D01*
X1187Y574D02*
X1192Y566D01*
X1235D02*
Y575D01*
X1520Y562D02*
Y575D01*
Y290D02*
Y303D01*
X1235Y575D02*
X1248D01*
X1507D02*
X1520D01*
G54D11*
X1322Y1039D02*
Y1322D01*
X1077Y1067D02*
Y1295D01*
X1665Y1360D02*
X1641D01*
X1665Y1383*
Y1389*
X1659Y1395*
X1647*
X1641Y1389*
X1677D02*
X1683Y1395D01*
X1694*
X1700Y1389*
Y1366*
X1694Y1360*
X1683*
X1677Y1366*
Y1389*
X1748Y1377D02*
X1771D01*
X1842Y1360D02*
X1818D01*
X1842Y1383*
Y1389*
X1836Y1395*
X1824*
X1818Y1389*
X1872Y1360D02*
Y1395D01*
X1854Y1377*
X1877*
X1925Y1360D02*
Y1383D01*
X1937Y1395*
X1948Y1383*
Y1360*
Y1377*
X1925*
X1960Y1360D02*
Y1395D01*
X1972Y1383*
X1984Y1395*
Y1360*
X1996D02*
Y1395D01*
X2013*
X2019Y1389*
Y1377*
X2013Y1372*
X1996*
X2090Y1395D02*
X2066D01*
Y1377*
X2078*
X2066*
Y1360*
X2102Y1395D02*
Y1366D01*
X2108Y1360*
X2120*
X2125Y1366*
Y1395*
X2161Y1389D02*
X2155Y1395D01*
X2143*
X2137Y1389*
Y1383*
X2143Y1377*
X2155*
X2161Y1372*
Y1366*
X2155Y1360*
X2143*
X2137Y1366*
X2196Y1395D02*
X2173D01*
Y1360*
X2196*
X2173Y1377D02*
X2184D01*
X1847Y647D02*
Y683D01*
X1865*
X1871Y677*
Y665*
X1865Y659*
X1847*
X1900Y683D02*
X1888D01*
X1882Y677*
Y653*
X1888Y647*
X1900*
X1906Y653*
Y677*
X1900Y683*
X1918D02*
Y647D01*
X1930Y659*
X1941Y647*
Y683*
X1977D02*
X1953D01*
Y647*
X1977*
X1953Y665D02*
X1965D01*
X1989Y647D02*
Y683D01*
X2006*
X2012Y677*
Y665*
X2006Y659*
X1989*
X2000D02*
X2012Y647D01*
X2060Y683D02*
X2071D01*
X2065*
Y647*
X2060*
X2071*
X2089D02*
Y683D01*
X2113Y647*
Y683*
X456Y828D02*
X433D01*
Y811*
X444*
X433*
Y793*
X468D02*
Y828D01*
X486*
X492Y822*
Y811*
X486Y805*
X468*
X480D02*
X492Y793D01*
X521Y828D02*
X509D01*
X503Y822*
Y799*
X509Y793*
X521*
X527Y799*
Y822*
X521Y828*
X539Y793D02*
Y828D01*
X563Y793*
Y828*
X574D02*
X598D01*
X586*
Y793*
X645D02*
Y828D01*
X663*
X669Y822*
Y811*
X663Y805*
X645*
X681Y793D02*
Y816D01*
X692Y828*
X704Y816*
Y793*
Y811*
X681*
X716Y793D02*
Y828D01*
X740Y793*
Y828*
X775D02*
X751D01*
Y793*
X775*
X751Y811D02*
X763D01*
X787Y828D02*
Y793D01*
X810*
X527Y450D02*
Y486D01*
X539Y474*
X551Y486*
Y450*
X580Y486D02*
X568D01*
X563Y480*
Y456*
X568Y450*
X580*
X586Y456*
Y480*
X580Y486*
X598D02*
X622D01*
X610*
Y450*
X633Y486D02*
Y450D01*
Y468*
X657*
Y486*
Y450*
X692Y486D02*
X669D01*
Y450*
X692*
X669Y468D02*
X681D01*
X704Y450D02*
Y486D01*
X722*
X728Y480*
Y468*
X722Y462*
X704*
X716D02*
X728Y450D01*
X740Y486D02*
Y450D01*
X757*
X763Y456*
Y462*
X757Y468*
X740*
X757*
X763Y474*
Y480*
X757Y486*
X740*
X793D02*
X781D01*
X775Y480*
Y456*
X781Y450*
X793*
X799Y456*
Y480*
X793Y486*
X810Y450D02*
Y474D01*
X822Y486*
X834Y474*
Y450*
Y468*
X810*
X846Y450D02*
Y486D01*
X864*
X870Y480*
Y468*
X864Y462*
X846*
X858D02*
X870Y450D01*
X881Y486D02*
Y450D01*
X899*
X905Y456*
Y480*
X899Y486*
X881*
X2805Y1464D02*
Y1431D01*
X2812Y1425*
X2825*
X2832Y1431*
Y1464*
X2871D02*
X2845D01*
Y1444*
X2858Y1451*
X2864*
X2871Y1444*
Y1431*
X2864Y1425*
X2851*
X2845Y1431*
X2815Y1686D02*
X2809Y1692D01*
X2795*
X2789Y1686*
Y1660*
X2795Y1653*
X2809*
X2815Y1660*
X2828Y1653D02*
X2841D01*
X2835*
Y1692*
X2828Y1686*
X2861D02*
X2868Y1692D01*
X2881*
X2887Y1686*
Y1679*
X2881Y1673*
X2874*
X2881*
X2887Y1666*
Y1660*
X2881Y1653*
X2868*
X2861Y1660*
X1153Y869D02*
X1146Y875D01*
X1133*
X1127Y869*
Y862*
X1133Y856*
X1146*
X1153Y849*
Y843*
X1146Y836*
X1133*
X1127Y843*
X1166Y875D02*
Y836D01*
X1179Y849*
X1192Y836*
Y875*
X1206Y836D02*
X1219D01*
X1212*
Y875*
X1206Y869*
X1919Y1472D02*
X1893D01*
Y1452*
X1906*
X1893*
Y1433*
X1932D02*
X1945D01*
X1938*
Y1472*
X1932Y1465*
X984Y269D02*
X990D01*
X1003Y282*
X990Y295*
X984*
X1003Y282D02*
X1023D01*
Y308D02*
Y321D01*
Y314*
X984*
X990Y308*
X1164Y638D02*
Y605D01*
X1170Y599*
X1184*
X1190Y605*
Y638*
X1203Y632D02*
X1210Y638D01*
X1223*
X1229Y632*
Y625*
X1223Y619*
X1216*
X1223*
X1229Y612*
Y605*
X1223Y599*
X1210*
X1203Y605*
X706Y1101D02*
Y1068D01*
X712Y1062*
X726*
X732Y1068*
Y1101*
X771Y1062D02*
X745D01*
X771Y1088*
Y1094*
X765Y1101*
X752*
X745Y1094*
X576Y1376D02*
Y1344D01*
X582Y1337*
X595*
X602Y1344*
Y1376*
X615Y1337D02*
X628D01*
X622*
Y1376*
X615Y1370*
X1150Y976D02*
Y1015D01*
X1170*
X1177Y1009*
Y996*
X1170Y989*
X1150*
X1164D02*
X1177Y976D01*
X1216Y1009D02*
X1209Y1015D01*
X1196*
X1190Y1009*
Y1002*
X1196Y996*
X1209*
X1216Y989*
Y982*
X1209Y976*
X1196*
X1190Y982*
X1229Y976D02*
X1242D01*
X1236*
Y1015*
X1229Y1009*
X1477Y700D02*
Y739D01*
X1497*
X1503Y732*
Y719*
X1497Y713*
X1477*
X1490D02*
X1503Y700D01*
X1516D02*
X1530D01*
X1523*
Y739*
X1516Y732*
X1575Y700D02*
X1549D01*
X1575Y726*
Y732*
X1569Y739*
X1556*
X1549Y732*
X1409Y771D02*
X1370D01*
Y791*
X1376Y797*
X1389*
X1396Y791*
Y771*
Y784D02*
X1409Y797D01*
Y811D02*
Y824D01*
Y817*
X1370*
X1376Y811*
X1409Y843D02*
Y856D01*
Y850*
X1370*
X1376Y843*
X1354Y771D02*
X1314D01*
Y791*
X1321Y797*
X1334*
X1341Y791*
Y771*
Y784D02*
X1354Y797D01*
X1321Y811D02*
X1314Y817D01*
Y830*
X1321Y837*
X1328*
X1334Y830*
X1341Y837*
X1347*
X1354Y830*
Y817*
X1347Y811*
X1341*
X1334Y817*
X1328Y811*
X1321*
X1334Y817D02*
Y830D01*
X823Y1210D02*
Y1249D01*
X843*
X849Y1243*
Y1230*
X843Y1223*
X823*
X836D02*
X849Y1210D01*
X862Y1249D02*
X889D01*
Y1243*
X862Y1217*
Y1210*
X1355Y1003D02*
Y1043D01*
X1374*
X1381Y1036*
Y1023*
X1374Y1017*
X1355*
X1368D02*
X1381Y1003D01*
X1420Y1043D02*
X1407Y1036D01*
X1394Y1023*
Y1010*
X1400Y1003*
X1414*
X1420Y1010*
Y1017*
X1414Y1023*
X1394*
X1561Y944D02*
Y984D01*
X1581*
X1587Y977*
Y964*
X1581Y958*
X1561*
X1574D02*
X1587Y944D01*
X1627Y984D02*
X1601D01*
Y964*
X1614Y971*
X1620*
X1627Y964*
Y951*
X1620Y944*
X1607*
X1601Y951*
X670Y1049D02*
X631D01*
Y1068*
X637Y1075*
X650*
X657Y1068*
Y1049*
Y1062D02*
X670Y1075D01*
Y1108D02*
X631D01*
X650Y1088*
Y1114*
X535Y1141D02*
Y1180D01*
X555*
X561Y1173*
Y1160*
X555Y1154*
X535*
X548D02*
X561Y1141D01*
X575D02*
X588D01*
X581*
Y1180*
X575Y1173*
X1692Y1640D02*
Y1666D01*
X1686Y1673*
X1673*
X1666Y1666*
Y1640*
X1673Y1633*
X1686*
X1679Y1646D02*
X1692Y1633D01*
X1686D02*
X1692Y1640D01*
X1706Y1633D02*
X1719D01*
X1712*
Y1673*
X1706Y1666*
X1812Y263D02*
X1799D01*
X1805*
Y230*
X1799Y224*
X1792*
X1786Y230*
X1845Y224D02*
Y263D01*
X1825Y244*
X1851*
X220Y733D02*
Y720D01*
Y727*
X253*
X259Y720*
Y713*
X253Y707*
X227Y746D02*
X220Y753D01*
Y766*
X227Y772*
X233*
X240Y766*
Y759*
Y766*
X246Y772*
X253*
X259Y766*
Y753*
X253Y746*
X417Y387D02*
Y374D01*
Y380*
X450*
X456Y374*
Y367*
X450Y360*
X456Y426D02*
Y400D01*
X430Y426*
X423*
X417Y419*
Y406*
X423Y400*
X2751Y1169D02*
X2738D01*
X2745*
Y1136*
X2738Y1129*
X2732*
X2725Y1136*
X2765Y1129D02*
X2778D01*
X2771*
Y1169*
X2765Y1162*
X1708Y382D02*
Y356D01*
X1728*
Y369*
Y356*
X1748*
X1708Y395D02*
X1748D01*
Y415*
X1741Y421*
X1734*
X1728Y415*
Y395*
Y415*
X1721Y421*
X1715*
X1708Y415*
Y395*
X1748Y434D02*
Y447D01*
Y441*
X1708*
X1715Y434*
X947Y1098D02*
Y1059D01*
X967*
X973Y1065*
Y1091*
X967Y1098*
X947*
X1013Y1059D02*
X986D01*
X1013Y1085*
Y1091*
X1006Y1098*
X993*
X986Y1091*
X1410Y1393D02*
Y1354D01*
X1430*
X1437Y1360*
Y1387*
X1430Y1393*
X1410*
X1450Y1354D02*
X1463D01*
X1456*
Y1393*
X1450Y1387*
X1627Y320D02*
X1620Y326D01*
X1607*
X1601Y320*
Y294*
X1607Y287*
X1620*
X1627Y294*
X1640Y287D02*
X1653D01*
X1647*
Y326*
X1640Y320*
X1673Y287D02*
X1686D01*
X1679*
Y326*
X1673Y320*
X1611Y524D02*
X1604Y518D01*
Y505*
X1611Y498*
X1637*
X1644Y505*
Y518*
X1637Y524*
X1644Y537D02*
Y551D01*
Y544*
X1604*
X1611Y537*
Y570D02*
X1604Y577D01*
Y590*
X1611Y597*
X1637*
X1644Y590*
Y577*
X1637Y570*
X1611*
X1669Y524D02*
X1662Y518D01*
Y505*
X1669Y498*
X1695*
X1702Y505*
Y518*
X1695Y524*
Y537D02*
X1702Y544D01*
Y557*
X1695Y564*
X1669*
X1662Y557*
Y544*
X1669Y537*
X1676*
X1682Y544*
Y564*
X1010Y521D02*
X1003Y514D01*
Y501*
X1010Y494*
X1036*
X1043Y501*
Y514*
X1036Y521*
X1010Y534D02*
X1003Y540D01*
Y553*
X1010Y560*
X1017*
X1023Y553*
X1030Y560*
X1036*
X1043Y553*
Y540*
X1036Y534*
X1030*
X1023Y540*
X1017Y534*
X1010*
X1023Y540D02*
Y553D01*
X1065Y414D02*
X1059Y408D01*
Y395*
X1065Y388*
X1091*
X1098Y395*
Y408*
X1091Y414*
X1059Y427D02*
Y454D01*
X1065*
X1091Y427*
X1098*
X1065Y521D02*
X1059Y514D01*
Y501*
X1065Y494*
X1091*
X1098Y501*
Y514*
X1091Y521*
X1059Y560D02*
X1065Y547D01*
X1078Y534*
X1091*
X1098Y540*
Y553*
X1091Y560*
X1085*
X1078Y553*
Y534*
X1010Y414D02*
X1003Y408D01*
Y395*
X1010Y388*
X1036*
X1043Y395*
Y408*
X1036Y414*
X1003Y454D02*
Y427D01*
X1023*
X1017Y440*
Y447*
X1023Y454*
X1036*
X1043Y447*
Y434*
X1036Y427*
X433Y1261D02*
X427Y1254D01*
Y1241*
X433Y1234*
X459*
X466Y1241*
Y1254*
X459Y1261*
X466Y1293D02*
X427D01*
X446Y1274*
Y1300*
X1488Y948D02*
X1482Y954D01*
X1469*
X1462Y948*
Y921*
X1469Y915*
X1482*
X1488Y921*
X1501Y948D02*
X1508Y954D01*
X1521*
X1528Y948*
Y941*
X1521Y935*
X1514*
X1521*
X1528Y928*
Y921*
X1521Y915*
X1508*
X1501Y921*
X839Y1115D02*
X833Y1122D01*
X820*
X813Y1115*
Y1089*
X820Y1082*
X833*
X839Y1089*
X879Y1082D02*
X853D01*
X879Y1108*
Y1115*
X872Y1122*
X859*
X853Y1115*
X756Y1346D02*
X750Y1352D01*
X737*
X730Y1346*
Y1319*
X737Y1313*
X750*
X756Y1319*
X769Y1313D02*
X783D01*
X776*
Y1352*
X769Y1346*
G54D12*
X636Y1163D02*
Y1167D01*
X662D02*
Y1163D01*
X1439Y718D02*
Y722D01*
X1465Y718D02*
Y722D01*
X1361Y718D02*
Y722D01*
X1347Y718D02*
Y722D01*
X1386Y718D02*
Y722D01*
X1321Y718D02*
Y722D01*
G54D13*
X2143Y328D02*
X2137Y334D01*
X2123*
X2117Y328*
Y301*
X2123Y295*
X2137*
X2143Y301*
Y314*
X2130*
X2156Y295D02*
Y334D01*
X2182Y295*
Y334*
X2196D02*
Y295D01*
X2215*
X2222Y301*
Y328*
X2215Y334*
X2196*
X2117Y413D02*
X2143D01*
X2130Y426D02*
Y400D01*
X2182Y433D02*
X2156D01*
Y413*
X2169Y419*
X2176*
X2182Y413*
Y400*
X2176Y393*
X2163*
X2156Y400*
X2196Y433D02*
Y406D01*
X2209Y393*
X2222Y406*
Y433*
X2117Y511D02*
X2143D01*
X2130Y524D02*
Y498D01*
X2156Y492D02*
X2169D01*
X2163*
Y531*
X2156Y524*
X2215Y492D02*
X2189D01*
X2215Y518*
Y524*
X2209Y531*
X2196*
X2189Y524*
X2228Y531D02*
Y505D01*
X2241Y492*
X2255Y505*
Y531*
M02*