%FSLAX23Y23*%
%MOIN*%
%SFA1B1*%

%IPPOS*%
%AMD49*
4,1,8,0.039900,0.000000,0.039900,0.000000,0.004900,0.035000,-0.004900,0.035000,-0.039900,0.000000,-0.039900,0.000000,-0.004900,-0.035000,0.004900,-0.035000,0.039900,0.000000,0.0*
1,1,0.069920,0.004900,0.000000*
1,1,0.069920,0.004900,0.000000*
1,1,0.069920,-0.004900,0.000000*
1,1,0.069920,-0.004900,0.000000*
%
%AMD50*
4,1,8,0.039900,-0.028400,0.039900,0.028400,0.033400,0.035000,-0.033400,0.035000,-0.039900,0.028400,-0.039900,-0.028400,-0.033400,-0.035000,0.033400,-0.035000,0.039900,-0.028400,0.0*
1,1,0.013040,0.033400,-0.028400*
1,1,0.013040,0.033400,0.028400*
1,1,0.013040,-0.033400,0.028400*
1,1,0.013040,-0.033400,-0.028400*
%
%AMD51*
4,1,8,0.000000,-0.039900,0.000000,-0.039900,0.035000,-0.004900,0.035000,0.004900,0.000000,0.039900,0.000000,0.039900,-0.035000,0.004900,-0.035000,-0.004900,0.000000,-0.039900,0.0*
1,1,0.069920,0.000000,-0.004900*
1,1,0.069920,0.000000,-0.004900*
1,1,0.069920,0.000000,0.004900*
1,1,0.069920,0.000000,0.004900*
%
%AMD52*
4,1,8,-0.028400,-0.039900,0.028400,-0.039900,0.035000,-0.033400,0.035000,0.033400,0.028400,0.039900,-0.028400,0.039900,-0.035000,0.033400,-0.035000,-0.033400,-0.028400,-0.039900,0.0*
1,1,0.013040,-0.028400,-0.033400*
1,1,0.013040,0.028400,-0.033400*
1,1,0.013040,0.028400,0.033400*
1,1,0.013040,-0.028400,0.033400*
%
%AMD55*
4,1,8,0.000000,0.090100,0.000000,0.090100,-0.050700,0.039400,-0.050700,-0.039400,0.000000,-0.090100,0.000000,-0.090100,0.050700,-0.039400,0.050700,0.039400,0.000000,0.090100,0.0*
1,1,0.101420,0.000000,0.039400*
1,1,0.101420,0.000000,0.039400*
1,1,0.101420,0.000000,-0.039400*
1,1,0.101420,0.000000,-0.039400*
%
%AMD57*
4,1,8,0.101400,0.040900,-0.101400,0.040900,-0.122600,0.019700,-0.122600,-0.019700,-0.101400,-0.040900,0.101400,-0.040900,0.122600,-0.019700,0.122600,0.019700,0.101400,0.040900,0.0*
1,1,0.042360,0.101400,0.019700*
1,1,0.042360,-0.101400,0.019700*
1,1,0.042360,-0.101400,-0.019700*
1,1,0.042360,0.101400,-0.019700*
%
%ADD38R,0.023460X0.022680*%
%ADD41R,0.024990X0.022990*%
%ADD48C,0.207720*%
G04~CAMADD=49~8~0.0~0.0~699.2~797.6~349.6~0.0~15~0.0~0.0~0.0~0.0~0~0.0~0.0~0.0~0.0~0~0.0~0.0~0.0~270.0~798.0~700.0*
%ADD49D49*%
G04~CAMADD=50~8~0.0~0.0~699.2~797.6~65.2~0.0~15~0.0~0.0~0.0~0.0~0~0.0~0.0~0.0~0.0~0~0.0~0.0~0.0~270.0~798.0~700.0*
%ADD50D50*%
G04~CAMADD=51~8~0.0~0.0~699.2~797.6~349.6~0.0~15~0.0~0.0~0.0~0.0~0~0.0~0.0~0.0~0.0~0~0.0~0.0~0.0~180.0~700.0~797.0*
%ADD51D51*%
G04~CAMADD=52~8~0.0~0.0~699.2~797.6~65.2~0.0~15~0.0~0.0~0.0~0.0~0~0.0~0.0~0.0~0.0~0~0.0~0.0~0.0~180.0~700.0~798.0*
%ADD52D52*%
%ADD53C,0.105350*%
%ADD54C,0.160470*%
G04~CAMADD=55~8~0.0~0.0~1014.2~1801.6~507.1~0.0~15~0.0~0.0~0.0~0.0~0~0.0~0.0~0.0~0.0~0~0.0~0.0~0.0~0.0~1014.2~1801.6*
%ADD55D55*%
%ADD56R,0.101420X0.180160*%
G04~CAMADD=57~8~0.0~0.0~2451.2~817.3~211.8~0.0~15~0.0~0.0~0.0~0.0~0~0.0~0.0~0.0~0.0~0~0.0~0.0~0.0~0.0~2451.2~817.3*
%ADD57D57*%
%ADD58C,0.121100*%
%ADD79R,0.028580X0.018740*%
%LNbenchyeloadpcb-1*%
%LPD*%
G36*
X2600Y1972D02*
X2603D01*
X2609Y1972*
X2614Y1971*
X2620Y1970*
X2625Y1969*
X2631Y1967*
X2636Y1965*
X2641Y1963*
X2646Y1961*
X2651Y1958*
X2656Y1955*
X2660Y1952*
X2665Y1948*
X2669Y1945*
X2673Y1941*
X2677Y1936*
X2680Y1932*
X2683Y1928*
X2686Y1923*
X2689Y1918*
X2692Y1913*
X2694Y1908*
X2696Y1902*
X2697Y1897*
X2698Y1891*
X2699Y1886*
X2700Y1880*
X2700Y1876*
X2700Y1872*
Y1872*
Y1746*
X2700Y1743*
X2700Y1740*
X2699Y1737*
X2698Y1734*
X2697Y1731*
X2695Y1728*
X2694Y1726*
X2692Y1723*
X2690Y1721*
X2688Y1719*
X2685Y1717*
X2683Y1715*
X2680Y1713*
X2677Y1712*
X2675Y1711*
X2672Y1710*
X2669Y1709*
X2666Y1708*
X2662Y1708*
X2661*
X2129*
X2128Y1708*
X2126Y1708*
X2124Y1707*
X2122Y1707*
X2121Y1706*
X2119Y1704*
X2118Y1703*
X2116Y1701*
X2115Y1699*
X2115Y1697*
X2114Y1695*
X2114Y1693*
X2114Y1692*
Y1485*
Y1483*
X2113Y1477*
X2113Y1471*
X2112Y1466*
X2111Y1460*
X2109Y1455*
X2107Y1450*
X2105Y1444*
X2103Y1439*
X2100Y1435*
X2097Y1430*
X2094Y1425*
X2090Y1421*
X2086Y1417*
X2082Y1413*
X2078Y1409*
X2074Y1405*
X2069Y1402*
X2065Y1399*
X2060Y1396*
X2055Y1394*
X2049Y1392*
X2044Y1390*
X2039Y1388*
X2033Y1387*
X2028Y1386*
X2022Y1386*
X2016Y1385*
X2014*
X1363*
X1360*
X1355Y1386*
X1349Y1386*
X1344Y1387*
X1338Y1388*
X1333Y1390*
X1328Y1392*
X1322Y1394*
X1317Y1396*
X1312Y1399*
X1308Y1402*
X1303Y1405*
X1299Y1409*
X1295Y1413*
X1291Y1417*
X1287Y1421*
X1283Y1425*
X1280Y1430*
X1277Y1435*
X1274Y1439*
X1272Y1444*
X1270Y1450*
X1268Y1455*
X1266Y1460*
X1265Y1466*
X1264Y1471*
X1264Y1477*
X1263Y1483*
Y1485*
Y1677*
X1263Y1678*
X1263Y1680*
X1262Y1682*
X1262Y1684*
X1261Y1685*
X1259Y1687*
X1258Y1689*
X1256Y1690*
X1255Y1691*
X1253Y1692*
X1251Y1692*
X1251Y1692*
X1249Y1692*
X1248Y1692*
X1110*
X1108*
X1105Y1693*
X1102Y1693*
X1099Y1694*
X1096Y1695*
X1093Y1696*
X1090Y1697*
X1088Y1699*
X1085Y1701*
X1083Y1703*
X1081Y1705*
X1079Y1707*
X1077Y1710*
X1075Y1713*
X1074Y1715*
X1073Y1718*
X1072Y1721*
X1071Y1724*
X1071Y1727*
X1070Y1730*
Y1732*
Y1872*
Y1875*
X1071Y1880*
X1071Y1886*
X1072Y1891*
X1074Y1897*
X1075Y1902*
X1077Y1908*
X1079Y1913*
X1081Y1918*
X1084Y1923*
X1087Y1928*
X1090Y1932*
X1094Y1936*
X1098Y1941*
X1102Y1945*
X1106Y1948*
X1110Y1952*
X1115Y1955*
X1120Y1958*
X1124Y1961*
X1130Y1963*
X1135Y1965*
X1140Y1967*
X1145Y1969*
X1151Y1970*
X1156Y1971*
X1162Y1972*
X1168Y1972*
X1170*
X2600*
G37*
G54D38*
X1062Y1162D03*
Y1200D03*
G54D41*
X2185Y1447D03*
Y1407D03*
X767Y1447D03*
Y1407D03*
X1033Y1240D03*
Y1200D03*
Y1121D03*
Y1161D03*
G54D48*
X3019Y1240D03*
X314Y1220D03*
Y314D03*
X2381D03*
G54D49*
X2007Y314D03*
Y413D03*
G54D50*
X2007Y511D03*
G54D51*
X570Y295D03*
X669D03*
X767D03*
X374Y639D03*
X472D03*
X570D03*
X669D03*
X767D03*
G54D52*
X866Y295D03*
Y639D03*
G54D53*
X2185Y1267D03*
Y1133D03*
X1653D03*
Y1267D03*
G54D54*
X3089Y1798D03*
X296D03*
G54D55*
X984Y1586D03*
X1198D03*
X2616D03*
X2401D03*
G54D56*
X769Y1586D03*
X2187D03*
G54D57*
X2452Y836D03*
Y541D03*
G54D58*
X3031Y1025D03*
Y352D03*
G54D79*
X992Y1145D03*
Y1171D03*
Y1196D03*
X917D03*
Y1171D03*
Y1145D03*
M02*